<?xml version="1.0" encoding="UTF-8" standalone="no"?>
<!DOCTYPE svg PUBLIC "-//W3C//DTD SVG 1.1//EN"
 "http://www.w3.org/Graphics/SVG/1.1/DTD/svg11.dtd">
<!-- Generated by graphviz version 2.43.0 (0)
 -->
<!-- Title: mosaic/create_xgrid.c Pages: 1 -->
<svg width="490pt" height="84pt"
 viewBox="0.00 0.00 489.50 84.00" xmlns="http://www.w3.org/2000/svg" xmlns:xlink="http://www.w3.org/1999/xlink">
<g id="graph0" class="graph" transform="scale(1 1) rotate(0) translate(4 80)">
<title>mosaic/create_xgrid.c</title>
<polygon fill="white" stroke="transparent" points="-4,4 -4,-80 485.5,-80 485.5,4 -4,4"/>
<!-- Node1 -->
<g id="node1" class="node">
<title>Node1</title>
<g id="a_node1"><a xlink:title="Grid creation and calculation functions for use in mosaic_mod /.">
<polygon fill="#bfbfbf" stroke="black" points="145.5,-56.5 145.5,-75.5 269.5,-75.5 269.5,-56.5 145.5,-56.5"/>
<text text-anchor="middle" x="207.5" y="-63.5" font-family="Helvetica,sans-Serif" font-size="10.00">mosaic/create_xgrid.c</text>
</a>
</g>
</g>
<!-- Node2 -->
<g id="node2" class="node">
<title>Node2</title>
<g id="a_node2"><a xlink:title=" ">
<polygon fill="white" stroke="#bfbfbf" points="0,-0.5 0,-19.5 53,-19.5 53,-0.5 0,-0.5"/>
<text text-anchor="middle" x="26.5" y="-7.5" font-family="Helvetica,sans-Serif" font-size="10.00">stdlib.h</text>
</a>
</g>
</g>
<!-- Node1&#45;&gt;Node2 -->
<g id="edge1" class="edge">
<title>Node1&#45;&gt;Node2</title>
<path fill="none" stroke="midnightblue" d="M178.82,-56.44C147.43,-47.08 97.03,-32.04 62.88,-21.85"/>
<polygon fill="midnightblue" stroke="midnightblue" points="63.86,-18.49 53.28,-18.99 61.86,-25.2 63.86,-18.49"/>
</g>
<!-- Node3 -->
<g id="node3" class="node">
<title>Node3</title>
<g id="a_node3"><a xlink:title=" ">
<polygon fill="white" stroke="#bfbfbf" points="71.5,-0.5 71.5,-19.5 121.5,-19.5 121.5,-0.5 71.5,-0.5"/>
<text text-anchor="middle" x="96.5" y="-7.5" font-family="Helvetica,sans-Serif" font-size="10.00">stdio.h</text>
</a>
</g>
</g>
<!-- Node1&#45;&gt;Node3 -->
<g id="edge2" class="edge">
<title>Node1&#45;&gt;Node3</title>
<path fill="none" stroke="midnightblue" d="M189.67,-56.32C171.78,-47.62 144.02,-34.12 123.45,-24.11"/>
<polygon fill="midnightblue" stroke="midnightblue" points="124.81,-20.88 114.29,-19.65 121.75,-27.18 124.81,-20.88"/>
</g>
<!-- Node4 -->
<g id="node4" class="node">
<title>Node4</title>
<g id="a_node4"><a xlink:title=" ">
<polygon fill="white" stroke="#bfbfbf" points="140,-0.5 140,-19.5 191,-19.5 191,-0.5 140,-0.5"/>
<text text-anchor="middle" x="165.5" y="-7.5" font-family="Helvetica,sans-Serif" font-size="10.00">math.h</text>
</a>
</g>
</g>
<!-- Node1&#45;&gt;Node4 -->
<g id="edge3" class="edge">
<title>Node1&#45;&gt;Node4</title>
<path fill="none" stroke="midnightblue" d="M200.56,-56.08C194.57,-48.38 185.75,-37.03 178.45,-27.65"/>
<polygon fill="midnightblue" stroke="midnightblue" points="181.21,-25.5 172.31,-19.75 175.68,-29.79 181.21,-25.5"/>
</g>
<!-- Node5 -->
<g id="node5" class="node">
<title>Node5</title>
<g id="a_node5"><a xlink:href="mosaic__util_8h_source.html" target="_top" xlink:title=" ">
<polygon fill="white" stroke="black" points="209.5,-0.5 209.5,-19.5 291.5,-19.5 291.5,-0.5 209.5,-0.5"/>
<text text-anchor="middle" x="250.5" y="-7.5" font-family="Helvetica,sans-Serif" font-size="10.00">mosaic_util.h</text>
</a>
</g>
</g>
<!-- Node1&#45;&gt;Node5 -->
<g id="edge4" class="edge">
<title>Node1&#45;&gt;Node5</title>
<path fill="none" stroke="midnightblue" d="M214.6,-56.08C220.74,-48.38 229.77,-37.03 237.24,-27.65"/>
<polygon fill="midnightblue" stroke="midnightblue" points="240.04,-29.75 243.53,-19.75 234.56,-25.39 240.04,-29.75"/>
</g>
<!-- Node6 -->
<g id="node6" class="node">
<title>Node6</title>
<g id="a_node6"><a xlink:href="create__xgrid_8h_source.html" target="_top" xlink:title=" ">
<polygon fill="white" stroke="black" points="309.5,-0.5 309.5,-19.5 395.5,-19.5 395.5,-0.5 309.5,-0.5"/>
<text text-anchor="middle" x="352.5" y="-7.5" font-family="Helvetica,sans-Serif" font-size="10.00">create_xgrid.h</text>
</a>
</g>
</g>
<!-- Node1&#45;&gt;Node6 -->
<g id="edge5" class="edge">
<title>Node1&#45;&gt;Node6</title>
<path fill="none" stroke="midnightblue" d="M230.48,-56.44C254.66,-47.44 292.92,-33.19 320.15,-23.05"/>
<polygon fill="midnightblue" stroke="midnightblue" points="321.48,-26.29 329.63,-19.52 319.04,-19.73 321.48,-26.29"/>
</g>
<!-- Node7 -->
<g id="node7" class="node">
<title>Node7</title>
<g id="a_node7"><a xlink:href="constant_8h_source.html" target="_top" xlink:title=" ">
<polygon fill="white" stroke="black" points="413.5,-0.5 413.5,-19.5 481.5,-19.5 481.5,-0.5 413.5,-0.5"/>
<text text-anchor="middle" x="447.5" y="-7.5" font-family="Helvetica,sans-Serif" font-size="10.00">constant.h</text>
</a>
</g>
</g>
<!-- Node1&#45;&gt;Node7 -->
<g id="edge6" class="edge">
<title>Node1&#45;&gt;Node7</title>
<path fill="none" stroke="midnightblue" d="M245.53,-56.44C288.41,-46.79 358.06,-31.12 403.32,-20.94"/>
<polygon fill="midnightblue" stroke="midnightblue" points="404.16,-24.34 413.15,-18.73 402.62,-17.51 404.16,-24.34"/>
</g>
</g>
</svg>
