<?xml version="1.0" encoding="UTF-8" standalone="no"?>
<!DOCTYPE svg PUBLIC "-//W3C//DTD SVG 1.1//EN"
 "http://www.w3.org/Graphics/SVG/1.1/DTD/svg11.dtd">
<!-- Generated by graphviz version 2.43.0 (0)
 -->
<!-- Title: mosaic/gradient_c2l.c Pages: 1 -->
<svg width="489pt" height="84pt"
 viewBox="0.00 0.00 488.50 84.00" xmlns="http://www.w3.org/2000/svg" xmlns:xlink="http://www.w3.org/1999/xlink">
<g id="graph0" class="graph" transform="scale(1 1) rotate(0) translate(4 80)">
<title>mosaic/gradient_c2l.c</title>
<polygon fill="white" stroke="transparent" points="-4,4 -4,-80 484.5,-80 484.5,4 -4,4"/>
<!-- Node1 -->
<g id="node1" class="node">
<title>Node1</title>
<g id="a_node1"><a xlink:title=" ">
<polygon fill="#bfbfbf" stroke="black" points="159,-56.5 159,-75.5 282,-75.5 282,-56.5 159,-56.5"/>
<text text-anchor="middle" x="220.5" y="-63.5" font-family="Helvetica,sans-Serif" font-size="10.00">mosaic/gradient_c2l.c</text>
</a>
</g>
</g>
<!-- Node2 -->
<g id="node2" class="node">
<title>Node2</title>
<g id="a_node2"><a xlink:title=" ">
<polygon fill="white" stroke="#bfbfbf" points="0,-0.5 0,-19.5 51,-19.5 51,-0.5 0,-0.5"/>
<text text-anchor="middle" x="25.5" y="-7.5" font-family="Helvetica,sans-Serif" font-size="10.00">math.h</text>
</a>
</g>
</g>
<!-- Node1&#45;&gt;Node2 -->
<g id="edge1" class="edge">
<title>Node1&#45;&gt;Node2</title>
<path fill="none" stroke="midnightblue" d="M189.6,-56.44C154.66,-46.77 97.84,-31.03 61.08,-20.85"/>
<polygon fill="midnightblue" stroke="midnightblue" points="61.84,-17.43 51.27,-18.14 59.98,-24.18 61.84,-17.43"/>
</g>
<!-- Node3 -->
<g id="node3" class="node">
<title>Node3</title>
<g id="a_node3"><a xlink:title=" ">
<polygon fill="white" stroke="#bfbfbf" points="69,-0.5 69,-19.5 122,-19.5 122,-0.5 69,-0.5"/>
<text text-anchor="middle" x="95.5" y="-7.5" font-family="Helvetica,sans-Serif" font-size="10.00">stdlib.h</text>
</a>
</g>
</g>
<!-- Node1&#45;&gt;Node3 -->
<g id="edge2" class="edge">
<title>Node1&#45;&gt;Node3</title>
<path fill="none" stroke="midnightblue" d="M200.69,-56.44C180.21,-47.6 148.02,-33.69 124.64,-23.59"/>
<polygon fill="midnightblue" stroke="midnightblue" points="125.78,-20.27 115.21,-19.52 123.01,-26.7 125.78,-20.27"/>
</g>
<!-- Node4 -->
<g id="node4" class="node">
<title>Node4</title>
<g id="a_node4"><a xlink:href="constant_8h_source.html" target="_top" xlink:title=" ">
<polygon fill="white" stroke="black" points="140.5,-0.5 140.5,-19.5 208.5,-19.5 208.5,-0.5 140.5,-0.5"/>
<text text-anchor="middle" x="174.5" y="-7.5" font-family="Helvetica,sans-Serif" font-size="10.00">constant.h</text>
</a>
</g>
</g>
<!-- Node1&#45;&gt;Node4 -->
<g id="edge3" class="edge">
<title>Node1&#45;&gt;Node4</title>
<path fill="none" stroke="midnightblue" d="M212.9,-56.08C206.27,-48.3 196.48,-36.8 188.44,-27.37"/>
<polygon fill="midnightblue" stroke="midnightblue" points="191.1,-25.09 181.95,-19.75 185.77,-29.63 191.1,-25.09"/>
</g>
<!-- Node5 -->
<g id="node5" class="node">
<title>Node5</title>
<g id="a_node5"><a xlink:href="mosaic__util_8h_source.html" target="_top" xlink:title=" ">
<polygon fill="white" stroke="black" points="226.5,-0.5 226.5,-19.5 308.5,-19.5 308.5,-0.5 226.5,-0.5"/>
<text text-anchor="middle" x="267.5" y="-7.5" font-family="Helvetica,sans-Serif" font-size="10.00">mosaic_util.h</text>
</a>
</g>
</g>
<!-- Node1&#45;&gt;Node5 -->
<g id="edge4" class="edge">
<title>Node1&#45;&gt;Node5</title>
<path fill="none" stroke="midnightblue" d="M228.26,-56.08C235.04,-48.3 245.04,-36.8 253.26,-27.37"/>
<polygon fill="midnightblue" stroke="midnightblue" points="255.96,-29.59 259.88,-19.75 250.68,-25 255.96,-29.59"/>
</g>
<!-- Node6 -->
<g id="node6" class="node">
<title>Node6</title>
<g id="a_node6"><a xlink:href="gradient__c2l_8h_source.html" target="_top" xlink:title=" ">
<polygon fill="white" stroke="black" points="326.5,-0.5 326.5,-19.5 412.5,-19.5 412.5,-0.5 326.5,-0.5"/>
<text text-anchor="middle" x="369.5" y="-7.5" font-family="Helvetica,sans-Serif" font-size="10.00">gradient_c2l.h</text>
</a>
</g>
</g>
<!-- Node1&#45;&gt;Node6 -->
<g id="edge5" class="edge">
<title>Node1&#45;&gt;Node6</title>
<path fill="none" stroke="midnightblue" d="M244.11,-56.44C268.96,-47.44 308.27,-33.19 336.25,-23.05"/>
<polygon fill="midnightblue" stroke="midnightblue" points="337.79,-26.21 346,-19.52 335.41,-19.63 337.79,-26.21"/>
</g>
<!-- Node7 -->
<g id="node7" class="node">
<title>Node7</title>
<g id="a_node7"><a xlink:title=" ">
<polygon fill="white" stroke="#bfbfbf" points="430.5,-0.5 430.5,-19.5 480.5,-19.5 480.5,-0.5 430.5,-0.5"/>
<text text-anchor="middle" x="455.5" y="-7.5" font-family="Helvetica,sans-Serif" font-size="10.00">stdio.h</text>
</a>
</g>
</g>
<!-- Node1&#45;&gt;Node7 -->
<g id="edge6" class="edge">
<title>Node1&#45;&gt;Node7</title>
<path fill="none" stroke="midnightblue" d="M260.65,-56.49C299.23,-48.2 359.42,-35 420.47,-20.18"/>
<polygon fill="midnightblue" stroke="midnightblue" points="421.39,-23.56 430.28,-17.79 419.73,-16.76 421.39,-23.56"/>
</g>
</g>
</svg>
