<?xml version="1.0" encoding="UTF-8" standalone="no"?>
<!DOCTYPE svg PUBLIC "-//W3C//DTD SVG 1.1//EN"
 "http://www.w3.org/Graphics/SVG/1.1/DTD/svg11.dtd">
<!-- Generated by graphviz version 2.43.0 (0)
 -->
<!-- Title: Graphical Class Hierarchy Pages: 1 -->
<svg width="322pt" height="66pt"
 viewBox="0.00 0.00 322.00 66.00" xmlns="http://www.w3.org/2000/svg" xmlns:xlink="http://www.w3.org/1999/xlink">
<g id="graph0" class="graph" transform="scale(1 1) rotate(0) translate(4 62)">
<title>Graphical Class Hierarchy</title>
<polygon fill="white" stroke="transparent" points="-4,4 -4,-62 318,-62 318,4 -4,4"/>
<!-- Node0 -->
<g id="node1" class="node">
<title>Node0</title>
<g id="a_node1"><a xlink:href="group__netcdf__io__mod.html#structnetcdf__io__mod_1_1fmsnetcdffile__t" target="_top" xlink:title="Netcdf file type.">
<polygon fill="white" stroke="black" points="0,-19.5 0,-38.5 90,-38.5 90,-19.5 0,-19.5"/>
<text text-anchor="middle" x="45" y="-26.5" font-family="Helvetica,sans-Serif" font-size="10.00">fmsnetcdffile_t</text>
</a>
</g>
</g>
<!-- Node1 -->
<g id="node2" class="node">
<title>Node1</title>
<g id="a_node2"><a xlink:href="group__fms__netcdf__domain__io__mod.html#structfms__netcdf__domain__io__mod_1_1fmsnetcdfdomainfile__t" target="_top" xlink:title="netcdf domain file type.">
<polygon fill="white" stroke="black" points="156.5,-38.5 156.5,-57.5 283.5,-57.5 283.5,-38.5 156.5,-38.5"/>
<text text-anchor="middle" x="220" y="-45.5" font-family="Helvetica,sans-Serif" font-size="10.00">fmsnetcdfdomainfile_t</text>
</a>
</g>
</g>
<!-- Node0&#45;&gt;Node1 -->
<g id="edge1" class="edge">
<title>Node0&#45;&gt;Node1</title>
<path fill="none" stroke="midnightblue" d="M100.31,-34.96C118.1,-36.92 138.02,-39.11 156.37,-41.12"/>
<polygon fill="midnightblue" stroke="midnightblue" points="100.43,-31.46 90.1,-33.84 99.66,-38.41 100.43,-31.46"/>
</g>
<!-- Node2 -->
<g id="node3" class="node">
<title>Node2</title>
<g id="a_node3"><a xlink:href="group__fms__netcdf__unstructured__domain__io__mod.html#structfms__netcdf__unstructured__domain__io__mod_1_1fmsnetcdfunstructureddomainfile__t" target="_top" xlink:title="netcdf unstructured domain file type.">
<polygon fill="white" stroke="black" points="126,-0.5 126,-19.5 314,-19.5 314,-0.5 126,-0.5"/>
<text text-anchor="middle" x="220" y="-7.5" font-family="Helvetica,sans-Serif" font-size="10.00">fmsnetcdfunstructureddomainfile_t</text>
</a>
</g>
</g>
<!-- Node0&#45;&gt;Node2 -->
<g id="edge2" class="edge">
<title>Node0&#45;&gt;Node2</title>
<path fill="none" stroke="midnightblue" d="M100.08,-23.06C110.31,-21.94 121.26,-20.73 132.21,-19.53"/>
<polygon fill="midnightblue" stroke="midnightblue" points="99.66,-19.59 90.1,-24.16 100.43,-26.54 99.66,-19.59"/>
</g>
</g>
</svg>
