<?xml version="1.0" encoding="UTF-8" standalone="no"?>
<!DOCTYPE svg PUBLIC "-//W3C//DTD SVG 1.1//EN"
 "http://www.w3.org/Graphics/SVG/1.1/DTD/svg11.dtd">
<!-- Generated by graphviz version 2.43.0 (0)
 -->
<!-- Title: atttype Pages: 1 -->
<svg width="390pt" height="117pt"
 viewBox="0.00 0.00 389.50 117.00" xmlns="http://www.w3.org/2000/svg" xmlns:xlink="http://www.w3.org/1999/xlink">
<g id="graph0" class="graph" transform="scale(1 1) rotate(0) translate(4 113)">
<title>atttype</title>
<polygon fill="white" stroke="transparent" points="-4,4 -4,-113 385.5,-113 385.5,4 -4,4"/>
<!-- Node1 -->
<g id="node1" class="node">
<title>Node1</title>
<g id="a_node1"><a xlink:title=" ">
<polygon fill="#bfbfbf" stroke="black" points="150.5,-0.5 150.5,-19.5 202.5,-19.5 202.5,-0.5 150.5,-0.5"/>
<text text-anchor="middle" x="176.5" y="-7.5" font-family="Helvetica,sans-Serif" font-size="10.00">atttype</text>
</a>
</g>
</g>
<!-- Node2 -->
<g id="node2" class="node">
<title>Node2</title>
<g id="a_node2"><a xlink:title=" ">
<polygon fill="white" stroke="#bfbfbf" points="0,-84 0,-103 111,-103 111,-84 0,-84"/>
<text text-anchor="middle" x="55.5" y="-91" font-family="Helvetica,sans-Serif" font-size="10.00">character(len=128)</text>
</a>
</g>
</g>
<!-- Node2&#45;&gt;Node1 -->
<g id="edge1" class="edge">
<title>Node2&#45;&gt;Node1</title>
<path fill="none" stroke="#9a32cd" stroke-dasharray="5,2" d="M72.68,-76.75C85.76,-65.21 104.52,-49.61 122.5,-38 133.42,-30.95 146.43,-24.4 156.94,-19.51"/>
<polygon fill="#9a32cd" stroke="#9a32cd" points="70.08,-74.38 64.97,-83.66 74.75,-79.59 70.08,-74.38"/>
<text text-anchor="middle" x="138" y="-46.5" font-family="Helvetica,sans-Serif" font-size="10.00"> name</text>
</g>
<!-- Node3 -->
<g id="node3" class="node">
<title>Node3</title>
<g id="a_node3"><a xlink:title=" ">
<polygon fill="white" stroke="#bfbfbf" points="129,-84 129,-103 164,-103 164,-84 129,-84"/>
<text text-anchor="middle" x="146.5" y="-91" font-family="Helvetica,sans-Serif" font-size="10.00">real</text>
</a>
</g>
</g>
<!-- Node3&#45;&gt;Node1 -->
<g id="edge2" class="edge">
<title>Node3&#45;&gt;Node1</title>
<path fill="none" stroke="#9a32cd" stroke-dasharray="5,2" d="M152.08,-74.09C155.43,-63.45 159.92,-49.87 164.5,-38 166.87,-31.88 169.87,-25.13 172.27,-19.91"/>
<polygon fill="#9a32cd" stroke="#9a32cd" points="148.65,-73.32 149.05,-83.91 155.34,-75.39 148.65,-73.32"/>
<text text-anchor="middle" x="175" y="-46.5" font-family="Helvetica,sans-Serif" font-size="10.00"> fatt</text>
</g>
<!-- Node4 -->
<g id="node4" class="node">
<title>Node4</title>
<g id="a_node4"><a xlink:title=" ">
<polygon fill="white" stroke="#bfbfbf" points="182,-84 182,-103 233,-103 233,-84 182,-84"/>
<text text-anchor="middle" x="207.5" y="-91" font-family="Helvetica,sans-Serif" font-size="10.00">integer</text>
</a>
</g>
</g>
<!-- Node4&#45;&gt;Node1 -->
<g id="edge3" class="edge">
<title>Node4&#45;&gt;Node1</title>
<path fill="none" stroke="#9a32cd" stroke-dasharray="5,2" d="M200.6,-74.35C194.12,-57.33 184.72,-32.61 179.79,-19.66"/>
<polygon fill="#9a32cd" stroke="#9a32cd" points="197.36,-75.68 204.18,-83.78 203.9,-73.19 197.36,-75.68"/>
<text text-anchor="middle" x="205.5" y="-52" font-family="Helvetica,sans-Serif" font-size="10.00"> len</text>
<text text-anchor="middle" x="205.5" y="-41" font-family="Helvetica,sans-Serif" font-size="10.00">type</text>
</g>
<!-- Node5 -->
<g id="node5" class="node">
<title>Node5</title>
<g id="a_node5"><a xlink:title=" ">
<polygon fill="white" stroke="#bfbfbf" points="251.5,-78.5 251.5,-108.5 381.5,-108.5 381.5,-78.5 251.5,-78.5"/>
<text text-anchor="start" x="259.5" y="-96.5" font-family="Helvetica,sans-Serif" font-size="10.00">character(len=max_att</text>
<text text-anchor="middle" x="316.5" y="-85.5" font-family="Helvetica,sans-Serif" font-size="10.00">_length)</text>
</a>
</g>
</g>
<!-- Node5&#45;&gt;Node1 -->
<g id="edge4" class="edge">
<title>Node5&#45;&gt;Node1</title>
<path fill="none" stroke="#9a32cd" stroke-dasharray="5,2" d="M283.79,-73.46C254.56,-56.44 213.07,-32.29 191.24,-19.58"/>
<polygon fill="#9a32cd" stroke="#9a32cd" points="282.03,-76.48 292.43,-78.49 285.55,-70.43 282.03,-76.48"/>
<text text-anchor="middle" x="269.5" y="-46.5" font-family="Helvetica,sans-Serif" font-size="10.00"> catt</text>
</g>
</g>
</svg>
