<?xml version="1.0" encoding="UTF-8" standalone="no"?>
<!DOCTYPE svg PUBLIC "-//W3C//DTD SVG 1.1//EN"
 "http://www.w3.org/Graphics/SVG/1.1/DTD/svg11.dtd">
<!-- Generated by graphviz version 2.43.0 (0)
 -->
<!-- Title: fmtype_t Pages: 1 -->
<!--zoomable 410 -->
<svg id="main" version="1.1" xmlns="http://www.w3.org/2000/svg" xmlns:xlink="http://www.w3.org/1999/xlink" xml:space="preserve" onload="init(evt)">
<style type="text/css"><![CDATA[
.edge:hover path { stroke: red; }
.edge:hover polygon { stroke: red; fill: red; }
]]></style>
<script type="text/javascript"><![CDATA[
var edges = document.getElementsByTagName('g');
if (edges && edges.length) {
  for (var i=0;i<edges.length;i++) {
    if (edges[i].id.substr(0,4)=='edge') {
      edges[i].setAttribute('class','edge');
    }
  }
}
]]></script>
        <defs>
                <circle id="rim" cx="0" cy="0" r="7"/>
                <circle id="rim2" cx="0" cy="0" r="3.5"/>
                <g id="zoomPlus">
                        <use xlink:href="#rim" fill="#404040">
                                <set attributeName="fill" to="#808080" begin="zoomplus.mouseover" end="zoomplus.mouseout"/>
                        </use>
                        <path d="M-4,0h8M0,-4v8" fill="none" stroke="white" stroke-width="1.5" pointer-events="none"/>
                </g>
                <g id="zoomMin">
                        <use xlink:href="#rim" fill="#404040">
                                <set attributeName="fill" to="#808080" begin="zoomminus.mouseover" end="zoomminus.mouseout"/>
                        </use>
                        <path d="M-4,0h8" fill="none" stroke="white" stroke-width="1.5" pointer-events="none"/>
                </g>
                <g id="dirArrow">
                        <path fill="none" stroke="white" stroke-width="1.5" d="M0,-3.0v7 M-2.5,-0.5L0,-3.0L2.5,-0.5"/>
                </g>
               <g id="resetDef">
                       <use xlink:href="#rim2" fill="#404040">
                               <set attributeName="fill" to="#808080" begin="reset.mouseover" end="reset.mouseout"/>
                       </use>
               </g>
        </defs>

<script type="text/javascript">
var viewWidth = 631;
var viewHeight = 410;
var sectionId = 'dynsection-3';
</script>
<script xlink:href="svgpan.js"/>
<svg id="graph" class="graph">
<g id="viewport">
<title>fmtype_t</title>
<polygon fill="white" stroke="transparent" points="-4,4 -4,-406 627,-406 627,4 -4,4"/>
<!-- Node1 -->
<g id="node1" class="node">
<title>Node1</title>
<g id="a_node1"><a xlink:title="This type represents the entries for a specific field type, e.g. a tracer. This type contains the nam...">
<polygon fill="#bfbfbf" stroke="black" points="431.5,-0.5 431.5,-19.5 492.5,-19.5 492.5,-0.5 431.5,-0.5"/>
<text text-anchor="middle" x="462" y="-7.5" font-family="Helvetica,sans-Serif" font-size="10.00">fmtype_t</text>
</a>
</g>
</g>
<!-- Node2 -->
<g id="node2" class="node">
<title>Node2</title>
<g id="a_node2"><a xlink:href="group__fm__yaml__mod.html#structfm__yaml__mod_1_1fmmodel__t" target="_top" xlink:title="This type represents the entries for a given model, e.g. land, ocean, atmosphere. This type contains ...">
<polygon fill="white" stroke="black" points="350,-67.5 350,-86.5 420,-86.5 420,-67.5 350,-67.5"/>
<text text-anchor="middle" x="385" y="-74.5" font-family="Helvetica,sans-Serif" font-size="10.00">fmmodel_t</text>
</a>
</g>
</g>
<!-- Node2&#45;&gt;Node1 -->
<g id="edge1" class="edge">
<title>Node2&#45;&gt;Node1</title>
<path fill="none" stroke="#9a32cd" stroke-dasharray="5,2" d="M403.11,-60.71C418.28,-47.91 439.39,-30.09 451.78,-19.63"/>
<polygon fill="#9a32cd" stroke="#9a32cd" points="400.77,-58.11 395.38,-67.23 405.28,-63.46 400.77,-58.11"/>
<text text-anchor="middle" x="450.5" y="-41" font-family="Helvetica,sans-Serif" font-size="10.00"> children</text>
</g>
<!-- Node3 -->
<g id="node3" class="node">
<title>Node3</title>
<g id="a_node3"><a xlink:title=" ">
<polygon fill="white" stroke="#bfbfbf" points="41,-377 41,-396 197,-396 197,-377 41,-377"/>
<text text-anchor="middle" x="119" y="-384" font-family="Helvetica,sans-Serif" font-size="10.00">character(len=:), allocatable</text>
</a>
</g>
</g>
<!-- Node3&#45;&gt;Node1 -->
<g id="edge14" class="edge">
<title>Node3&#45;&gt;Node1</title>
<path fill="none" stroke="#9a32cd" stroke-dasharray="5,2" d="M83.4,-373.18C48.34,-358.52 0,-330.35 0,-286.5 0,-286.5 0,-286.5 0,-76 0,-32.31 328.14,-16.09 431.33,-12.08"/>
<polygon fill="#9a32cd" stroke="#9a32cd" points="82.3,-376.51 92.88,-376.96 84.89,-370.01 82.3,-376.51"/>
<text text-anchor="middle" x="15.5" y="-153.5" font-family="Helvetica,sans-Serif" font-size="10.00"> name</text>
</g>
<!-- Node3&#45;&gt;Node2 -->
<g id="edge2" class="edge">
<title>Node3&#45;&gt;Node2</title>
<path fill="none" stroke="#9a32cd" stroke-dasharray="5,2" d="M106.1,-368.63C96.24,-354.6 83.43,-333.65 78,-313 64.53,-261.83 63.68,-234.48 100,-196 169.11,-122.78 290.41,-93.47 349.98,-83.06"/>
<polygon fill="#9a32cd" stroke="#9a32cd" points="103.33,-370.77 112.06,-376.78 108.99,-366.64 103.33,-370.77"/>
<text text-anchor="middle" x="115.5" y="-215.5" font-family="Helvetica,sans-Serif" font-size="10.00"> name</text>
</g>
<!-- Node5 -->
<g id="node5" class="node">
<title>Node5</title>
<g id="a_node5"><a xlink:href="group__fm__yaml__mod.html#structfm__yaml__mod_1_1fmvar__t" target="_top" xlink:title="This type represents the entries for a given variable, e.g. dust. This type contains the name of the ...">
<polygon fill="white" stroke="black" points="278.5,-146.5 278.5,-165.5 333.5,-165.5 333.5,-146.5 278.5,-146.5"/>
<text text-anchor="middle" x="306" y="-153.5" font-family="Helvetica,sans-Serif" font-size="10.00">fmvar_t</text>
</a>
</g>
</g>
<!-- Node3&#45;&gt;Node5 -->
<g id="edge10" class="edge">
<title>Node3&#45;&gt;Node5</title>
<path fill="none" stroke="#9a32cd" stroke-dasharray="5,2" d="M136.92,-370.4C153.03,-356.38 176.88,-334.49 195,-313 213.99,-290.48 215.07,-282.11 232,-258 256.36,-223.31 286.55,-182.87 299.55,-165.56"/>
<polygon fill="#9a32cd" stroke="#9a32cd" points="134.57,-367.8 129.27,-376.97 139.13,-373.11 134.57,-367.8"/>
<text text-anchor="middle" x="247.5" y="-283" font-family="Helvetica,sans-Serif" font-size="10.00"> name</text>
</g>
<!-- Node6 -->
<g id="node6" class="node">
<title>Node6</title>
<g id="a_node6"><a xlink:href="group__fm__yaml__mod.html#structfm__yaml__mod_1_1fmattr__t" target="_top" xlink:title="This type represents the subparameters for a given variable parameter. This type contains the name of...">
<polygon fill="white" stroke="black" points="272,-276 272,-295 328,-295 328,-276 272,-276"/>
<text text-anchor="middle" x="300" y="-283" font-family="Helvetica,sans-Serif" font-size="10.00">fmattr_t</text>
</a>
</g>
</g>
<!-- Node3&#45;&gt;Node6 -->
<g id="edge6" class="edge">
<title>Node3&#45;&gt;Node6</title>
<path fill="none" stroke="#9a32cd" stroke-dasharray="5,2" d="M158.26,-373.77C174.13,-368.37 192.36,-361.3 208,-353 224.71,-344.13 268.11,-311.16 288.76,-295.23"/>
<polygon fill="#9a32cd" stroke="#9a32cd" points="157.13,-370.46 148.73,-376.92 159.32,-377.11 157.13,-370.46"/>
<text text-anchor="middle" x="272.5" y="-339.5" font-family="Helvetica,sans-Serif" font-size="10.00"> paramname</text>
</g>
<!-- Node4 -->
<g id="node4" class="node">
<title>Node4</title>
<g id="a_node4"><a xlink:title=" ">
<polygon fill="white" stroke="#bfbfbf" points="434.5,-146.5 434.5,-165.5 533.5,-165.5 533.5,-146.5 434.5,-146.5"/>
<text text-anchor="middle" x="484" y="-153.5" font-family="Helvetica,sans-Serif" font-size="10.00">character(len=7)</text>
</a>
</g>
</g>
<!-- Node4&#45;&gt;Node1 -->
<g id="edge15" class="edge">
<title>Node4&#45;&gt;Node1</title>
<path fill="none" stroke="#9a32cd" stroke-dasharray="5,2" d="M485.05,-136C485.81,-112.51 485.4,-71.54 476,-38 474.18,-31.49 470.68,-24.74 467.63,-19.62"/>
<polygon fill="#9a32cd" stroke="#9a32cd" points="481.54,-136.14 484.6,-146.28 488.53,-136.44 481.54,-136.14"/>
<text text-anchor="middle" x="513" y="-74.5" font-family="Helvetica,sans-Serif" font-size="10.00"> blockname</text>
</g>
<!-- Node4&#45;&gt;Node2 -->
<g id="edge3" class="edge">
<title>Node4&#45;&gt;Node2</title>
<path fill="none" stroke="#9a32cd" stroke-dasharray="5,2" d="M457.61,-141.55C445.3,-134.7 430.8,-125.75 419,-116 408.22,-107.09 397.79,-94.7 391.39,-86.53"/>
<polygon fill="#9a32cd" stroke="#9a32cd" points="456.05,-144.69 466.51,-146.37 459.38,-138.53 456.05,-144.69"/>
<text text-anchor="middle" x="448" y="-108" font-family="Helvetica,sans-Serif" font-size="10.00"> blockname</text>
</g>
<!-- Node5&#45;&gt;Node2 -->
<g id="edge4" class="edge">
<title>Node5&#45;&gt;Node2</title>
<path fill="none" stroke="#9a32cd" stroke-dasharray="5,2" d="M310.68,-136.44C314.07,-126.14 319.56,-113.68 328,-105 335.94,-96.84 346.84,-90.85 356.98,-86.62"/>
<polygon fill="#9a32cd" stroke="#9a32cd" points="307.29,-135.58 307.88,-146.16 314.01,-137.52 307.29,-135.58"/>
<text text-anchor="middle" x="349.5" y="-108" font-family="Helvetica,sans-Serif" font-size="10.00"> children</text>
</g>
<!-- Node6&#45;&gt;Node5 -->
<g id="edge5" class="edge">
<title>Node6&#45;&gt;Node5</title>
<path fill="none" stroke="#9a32cd" stroke-dasharray="5,2" d="M300.89,-265.66C302.2,-237.71 304.62,-186.36 305.58,-165.82"/>
<polygon fill="#9a32cd" stroke="#9a32cd" points="297.39,-265.58 300.41,-275.74 304.38,-265.91 297.39,-265.58"/>
<text text-anchor="middle" x="326.5" y="-215.5" font-family="Helvetica,sans-Serif" font-size="10.00"> children</text>
</g>
<!-- Node7 -->
<g id="node7" class="node">
<title>Node7</title>
<g id="a_node7"><a xlink:title=" ">
<polygon fill="white" stroke="#bfbfbf" points="257.5,-371.5 257.5,-401.5 410.5,-401.5 410.5,-371.5 257.5,-371.5"/>
<text text-anchor="start" x="265.5" y="-389.5" font-family="Helvetica,sans-Serif" font-size="10.00">character(len=:), dimension</text>
<text text-anchor="middle" x="334" y="-378.5" font-family="Helvetica,sans-Serif" font-size="10.00">(:), allocatable</text>
</a>
</g>
</g>
<!-- Node7&#45;&gt;Node5 -->
<g id="edge11" class="edge">
<title>Node7&#45;&gt;Node5</title>
<path fill="none" stroke="#9a32cd" stroke-dasharray="5,2" d="M346.99,-362.25C348.23,-359.22 349.28,-356.09 350,-353 365.82,-285.04 378.63,-259.63 350,-196 344.14,-182.97 331.53,-172.53 321.3,-165.74"/>
<polygon fill="#9a32cd" stroke="#9a32cd" points="343.75,-360.93 342.66,-371.47 350.08,-363.91 343.75,-360.93"/>
<text text-anchor="middle" x="384.5" y="-288.5" font-family="Helvetica,sans-Serif" font-size="10.00"> keys</text>
<text text-anchor="middle" x="384.5" y="-277.5" font-family="Helvetica,sans-Serif" font-size="10.00">values</text>
</g>
<!-- Node7&#45;&gt;Node6 -->
<g id="edge7" class="edge">
<title>Node7&#45;&gt;Node6</title>
<path fill="none" stroke="#9a32cd" stroke-dasharray="5,2" d="M321.08,-362.37C319.59,-359.27 318.19,-356.09 317,-353 309.32,-332.97 304.04,-308.23 301.58,-295.31"/>
<polygon fill="#9a32cd" stroke="#9a32cd" points="317.97,-363.97 325.64,-371.27 324.2,-360.78 317.97,-363.97"/>
<text text-anchor="middle" x="333.5" y="-345" font-family="Helvetica,sans-Serif" font-size="10.00"> keys</text>
<text text-anchor="middle" x="333.5" y="-334" font-family="Helvetica,sans-Serif" font-size="10.00">values</text>
</g>
<!-- Node8 -->
<g id="node8" class="node">
<title>Node8</title>
<g id="a_node8"><a xlink:title=" ">
<polygon fill="white" stroke="#bfbfbf" points="463.5,-377 463.5,-396 514.5,-396 514.5,-377 463.5,-377"/>
<text text-anchor="middle" x="489" y="-384" font-family="Helvetica,sans-Serif" font-size="10.00">integer</text>
</a>
</g>
</g>
<!-- Node8&#45;&gt;Node1 -->
<g id="edge16" class="edge">
<title>Node8&#45;&gt;Node1</title>
<path fill="none" stroke="#9a32cd" stroke-dasharray="5,2" d="M513.8,-371.66C539.83,-355.11 577,-324.76 577,-286.5 577,-286.5 577,-286.5 577,-76 577,-37.13 526.59,-21.24 492.52,-14.93"/>
<polygon fill="#9a32cd" stroke="#9a32cd" points="511.86,-368.75 505.14,-376.94 515.5,-374.73 511.86,-368.75"/>
<text text-anchor="middle" x="600" y="-170" font-family="Helvetica,sans-Serif" font-size="10.00"> child_ids</text>
<text text-anchor="middle" x="600" y="-159" font-family="Helvetica,sans-Serif" font-size="10.00">id</text>
<text text-anchor="middle" x="600" y="-148" font-family="Helvetica,sans-Serif" font-size="10.00">nchildren</text>
<text text-anchor="middle" x="600" y="-137" font-family="Helvetica,sans-Serif" font-size="10.00">yfid</text>
</g>
<!-- Node8&#45;&gt;Node2 -->
<g id="edge13" class="edge">
<title>Node8&#45;&gt;Node2</title>
<path fill="none" stroke="#9a32cd" stroke-dasharray="5,2" d="M493.79,-367.01C499.45,-341.57 506.51,-294.76 493,-258 476.9,-214.2 449.09,-217.96 425,-178 406.08,-146.61 392.68,-104.67 387.44,-86.73"/>
<polygon fill="#9a32cd" stroke="#9a32cd" points="490.37,-366.25 491.44,-376.79 497.18,-367.89 490.37,-366.25"/>
<text text-anchor="middle" x="507" y="-232" font-family="Helvetica,sans-Serif" font-size="10.00"> child_ids</text>
<text text-anchor="middle" x="507" y="-221" font-family="Helvetica,sans-Serif" font-size="10.00">id</text>
<text text-anchor="middle" x="507" y="-210" font-family="Helvetica,sans-Serif" font-size="10.00">nchildren</text>
<text text-anchor="middle" x="507" y="-199" font-family="Helvetica,sans-Serif" font-size="10.00">yfid</text>
</g>
<!-- Node8&#45;&gt;Node5 -->
<g id="edge12" class="edge">
<title>Node8&#45;&gt;Node5</title>
<path fill="none" stroke="#9a32cd" stroke-dasharray="5,2" d="M478.78,-367.89C452.96,-323.55 386.18,-209.91 372,-196 358.6,-182.86 339.94,-172.36 325.88,-165.58"/>
<polygon fill="#9a32cd" stroke="#9a32cd" points="475.84,-369.8 483.89,-376.68 481.89,-366.28 475.84,-369.8"/>
<text text-anchor="middle" x="470" y="-305" font-family="Helvetica,sans-Serif" font-size="10.00"> child_ids</text>
<text text-anchor="middle" x="470" y="-294" font-family="Helvetica,sans-Serif" font-size="10.00">id</text>
<text text-anchor="middle" x="470" y="-283" font-family="Helvetica,sans-Serif" font-size="10.00">key_ids</text>
<text text-anchor="middle" x="470" y="-272" font-family="Helvetica,sans-Serif" font-size="10.00">nchildren</text>
<text text-anchor="middle" x="470" y="-261" font-family="Helvetica,sans-Serif" font-size="10.00">yfid</text>
</g>
<!-- Node8&#45;&gt;Node6 -->
<g id="edge8" class="edge">
<title>Node8&#45;&gt;Node6</title>
<path fill="none" stroke="#9a32cd" stroke-dasharray="5,2" d="M453.51,-374.69C436.87,-369.09 417.02,-361.61 400,-353 365.77,-335.68 329.09,-308.9 311.16,-295.21"/>
<polygon fill="#9a32cd" stroke="#9a32cd" points="452.8,-378.14 463.4,-377.93 454.98,-371.49 452.8,-378.14"/>
<text text-anchor="middle" x="409.5" y="-345" font-family="Helvetica,sans-Serif" font-size="10.00"> id</text>
<text text-anchor="middle" x="409.5" y="-334" font-family="Helvetica,sans-Serif" font-size="10.00">yfid</text>
</g>
<!-- Node9 -->
<g id="node9" class="node">
<title>Node9</title>
<g id="a_node9"><a xlink:title=" ">
<polygon fill="white" stroke="#bfbfbf" points="87.5,-276 87.5,-295 186.5,-295 186.5,-276 87.5,-276"/>
<text text-anchor="middle" x="137" y="-283" font-family="Helvetica,sans-Serif" font-size="10.00">character(len=9)</text>
</a>
</g>
</g>
<!-- Node9&#45;&gt;Node5 -->
<g id="edge9" class="edge">
<title>Node9&#45;&gt;Node5</title>
<path fill="none" stroke="#9a32cd" stroke-dasharray="5,2" d="M134.47,-265.94C132.88,-246.08 133.72,-214.9 151,-196 167.94,-177.47 238.41,-165.64 278.25,-160.31"/>
<polygon fill="#9a32cd" stroke="#9a32cd" points="131,-266.34 135.56,-275.9 137.95,-265.58 131,-266.34"/>
<text text-anchor="middle" x="180" y="-215.5" font-family="Helvetica,sans-Serif" font-size="10.00"> blockname</text>
</g>
</g>
</svg>
        <g id="navigator" transform="translate(0 0)" fill="#404254">
                <rect fill="#f2f5e9" fill-opacity="0.5" stroke="#606060" stroke-width=".5" x="0" y="0" width="60" height="60"/>
                <use id="zoomplus" xlink:href="#zoomPlus" x="17" y="9" onmousedown="handleZoom(evt,'in')"/>
                <use id="zoomminus" xlink:href="#zoomMin" x="42" y="9" onmousedown="handleZoom(evt,'out')"/>
                <use id="reset" xlink:href="#resetDef" x="30" y="36" onmousedown="handleReset()"/>
                <g id="arrowUp" xlink:href="#dirArrow" transform="translate(30 24)" onmousedown="handlePan(0,-1)">
                  <use xlink:href="#rim" fill="#404040">
                        <set attributeName="fill" to="#808080" begin="arrowUp.mouseover" end="arrowUp.mouseout"/>
                  </use>
                  <path fill="none" stroke="white" stroke-width="1.5" d="M0,-3.0v7 M-2.5,-0.5L0,-3.0L2.5,-0.5"/>
                </g>
                <g id="arrowRight" xlink:href="#dirArrow" transform="rotate(90) translate(36 -43)" onmousedown="handlePan(1,0)">
                  <use xlink:href="#rim" fill="#404040">
                        <set attributeName="fill" to="#808080" begin="arrowRight.mouseover" end="arrowRight.mouseout"/>
                  </use>
                  <path fill="none" stroke="white" stroke-width="1.5" d="M0,-3.0v7 M-2.5,-0.5L0,-3.0L2.5,-0.5"/>
                </g>
                <g id="arrowDown" xlink:href="#dirArrow" transform="rotate(180) translate(-30 -48)" onmousedown="handlePan(0,1)">
                  <use xlink:href="#rim" fill="#404040">
                        <set attributeName="fill" to="#808080" begin="arrowDown.mouseover" end="arrowDown.mouseout"/>
                  </use>
                  <path fill="none" stroke="white" stroke-width="1.5" d="M0,-3.0v7 M-2.5,-0.5L0,-3.0L2.5,-0.5"/>
                </g>
                <g id="arrowLeft" xlink:href="#dirArrow" transform="rotate(270) translate(-36 17)" onmousedown="handlePan(-1,0)">
                  <use xlink:href="#rim" fill="#404040">
                        <set attributeName="fill" to="#808080" begin="arrowLeft.mouseover" end="arrowLeft.mouseout"/>
                  </use>
                  <path fill="none" stroke="white" stroke-width="1.5" d="M0,-3.0v7 M-2.5,-0.5L0,-3.0L2.5,-0.5"/>
                </g>
        </g>
        <svg viewBox="0 0 15 15" width="100%" height="30px" preserveAspectRatio="xMaxYMin meet">
         <g id="arrow_out" transform="scale(0.3 0.3)">
          <a xlink:href="structfm__yaml__mod_1_1fmtype__t__coll__graph_org.svg" target="_base">
           <rect id="button" ry="5" rx="5" y="6" x="6" height="38" width="38"
                fill="#f2f5e9" fill-opacity="0.5" stroke="#606060" stroke-width="1.0"/>
           <path id="arrow"
             d="M 11.500037,31.436501 C 11.940474,20.09759 22.043105,11.32322 32.158766,21.979434 L 37.068811,17.246167 C 37.068811,17.246167 37.088388,32 37.088388,32 L 22.160133,31.978069 C 22.160133,31.978069 26.997745,27.140456 26.997745,27.140456 C 18.528582,18.264221 13.291696,25.230495 11.500037,31.436501 z"
             style="fill:#404040;"/>
          </a>
         </g>
        </svg>
</svg>
