<?xml version="1.0" encoding="UTF-8" standalone="no"?>
<!DOCTYPE svg PUBLIC "-//W3C//DTD SVG 1.1//EN"
 "http://www.w3.org/Graphics/SVG/1.1/DTD/svg11.dtd">
<!-- Generated by graphviz version 2.43.0 (0)
 -->
<!-- Title: amip_interp_type Pages: 1 -->
<svg width="380pt" height="217pt"
 viewBox="0.00 0.00 380.00 217.00" xmlns="http://www.w3.org/2000/svg" xmlns:xlink="http://www.w3.org/1999/xlink">
<g id="graph0" class="graph" transform="scale(1 1) rotate(0) translate(4 213)">
<title>amip_interp_type</title>
<polygon fill="white" stroke="transparent" points="-4,4 -4,-213 376,-213 376,4 -4,4"/>
<!-- Node1 -->
<g id="node1" class="node">
<title>Node1</title>
<g id="a_node1"><a xlink:title="Contains information needed by the interpolation module (exchange_mod) and buffers data.">
<polygon fill="#bfbfbf" stroke="black" points="118.5,-0.5 118.5,-19.5 220.5,-19.5 220.5,-0.5 118.5,-0.5"/>
<text text-anchor="middle" x="169.5" y="-7.5" font-family="Helvetica,sans-Serif" font-size="10.00">amip_interp_type</text>
</a>
</g>
</g>
<!-- Node2 -->
<g id="node2" class="node">
<title>Node2</title>
<g id="a_node2"><a xlink:title=" ">
<polygon fill="white" stroke="#bfbfbf" points="0,-95 0,-114 49,-114 49,-95 0,-95"/>
<text text-anchor="middle" x="24.5" y="-102" font-family="Helvetica,sans-Serif" font-size="10.00">logical</text>
</a>
</g>
</g>
<!-- Node2&#45;&gt;Node1 -->
<g id="edge1" class="edge">
<title>Node2&#45;&gt;Node1</title>
<path fill="none" stroke="#9a32cd" stroke-dasharray="5,2" d="M22.7,-84.52C22.42,-69.86 24.62,-50.11 36.5,-38 47.93,-26.35 85.92,-19.41 118.39,-15.48"/>
<polygon fill="#9a32cd" stroke="#9a32cd" points="19.23,-85.16 23.32,-94.93 26.22,-84.74 19.23,-85.16"/>
<text text-anchor="middle" x="77" y="-63" font-family="Helvetica,sans-Serif" font-size="10.00"> i_am_initialized</text>
<text text-anchor="middle" x="77" y="-52" font-family="Helvetica,sans-Serif" font-size="10.00">use_annual</text>
<text text-anchor="middle" x="77" y="-41" font-family="Helvetica,sans-Serif" font-size="10.00">use_climo</text>
</g>
<!-- Node3 -->
<g id="node3" class="node">
<title>Node3</title>
<g id="a_node3"><a xlink:href="group__amip__interp__mod.html#structamip__interp__mod_1_1date__type" target="_top" xlink:title="Private data type for representing a calendar date.">
<polygon fill="white" stroke="black" points="67,-95 67,-114 132,-114 132,-95 67,-95"/>
<text text-anchor="middle" x="99.5" y="-102" font-family="Helvetica,sans-Serif" font-size="10.00">date_type</text>
</a>
</g>
</g>
<!-- Node3&#45;&gt;Node1 -->
<g id="edge2" class="edge">
<title>Node3&#45;&gt;Node1</title>
<path fill="none" stroke="#9a32cd" stroke-dasharray="5,2" d="M110.53,-86.01C119.26,-72.52 132.02,-53.61 144.5,-38 149.61,-31.61 155.86,-24.86 160.83,-19.71"/>
<polygon fill="#9a32cd" stroke="#9a32cd" points="107.38,-84.43 104.94,-94.74 113.28,-88.2 107.38,-84.43"/>
<text text-anchor="middle" x="160" y="-57.5" font-family="Helvetica,sans-Serif" font-size="10.00"> date1</text>
<text text-anchor="middle" x="160" y="-46.5" font-family="Helvetica,sans-Serif" font-size="10.00">date2</text>
</g>
<!-- Node4 -->
<g id="node4" class="node">
<title>Node4</title>
<g id="a_node4"><a xlink:title=" ">
<polygon fill="white" stroke="#bfbfbf" points="74,-189.5 74,-208.5 125,-208.5 125,-189.5 74,-189.5"/>
<text text-anchor="middle" x="99.5" y="-196.5" font-family="Helvetica,sans-Serif" font-size="10.00">integer</text>
</a>
</g>
</g>
<!-- Node4&#45;&gt;Node3 -->
<g id="edge3" class="edge">
<title>Node4&#45;&gt;Node3</title>
<path fill="none" stroke="#9a32cd" stroke-dasharray="5,2" d="M99.5,-179.44C99.5,-159.54 99.5,-128.8 99.5,-114.02"/>
<polygon fill="#9a32cd" stroke="#9a32cd" points="96,-179.46 99.5,-189.46 103,-179.46 96,-179.46"/>
<text text-anchor="middle" x="115.5" y="-163" font-family="Helvetica,sans-Serif" font-size="10.00"> day</text>
<text text-anchor="middle" x="115.5" y="-152" font-family="Helvetica,sans-Serif" font-size="10.00">month</text>
<text text-anchor="middle" x="115.5" y="-141" font-family="Helvetica,sans-Serif" font-size="10.00">year</text>
</g>
<!-- Node5 -->
<g id="node5" class="node">
<title>Node5</title>
<g id="a_node5"><a xlink:title=" ">
<polygon fill="white" stroke="#bfbfbf" points="150.5,-89.5 150.5,-119.5 252.5,-119.5 252.5,-89.5 150.5,-89.5"/>
<text text-anchor="start" x="158.5" y="-107.5" font-family="Helvetica,sans-Serif" font-size="10.00">real, dimension(:,</text>
<text text-anchor="middle" x="201.5" y="-96.5" font-family="Helvetica,sans-Serif" font-size="10.00">:), allocatable</text>
</a>
</g>
</g>
<!-- Node5&#45;&gt;Node1 -->
<g id="edge4" class="edge">
<title>Node5&#45;&gt;Node1</title>
<path fill="none" stroke="#9a32cd" stroke-dasharray="5,2" d="M193.34,-79.93C186.53,-60.23 177.2,-33.24 172.48,-19.62"/>
<polygon fill="#9a32cd" stroke="#9a32cd" points="190.06,-81.15 196.64,-89.45 196.68,-78.86 190.06,-81.15"/>
<text text-anchor="middle" x="205" y="-57.5" font-family="Helvetica,sans-Serif" font-size="10.00"> data1</text>
<text text-anchor="middle" x="205" y="-46.5" font-family="Helvetica,sans-Serif" font-size="10.00">data2</text>
</g>
<!-- Node6 -->
<g id="node6" class="node">
<title>Node6</title>
<g id="a_node6"><a xlink:title=" ">
<polygon fill="white" stroke="#bfbfbf" points="271,-95 271,-114 372,-114 372,-95 271,-95"/>
<text text-anchor="middle" x="321.5" y="-102" font-family="Helvetica,sans-Serif" font-size="10.00">horiz_interp_type</text>
</a>
</g>
</g>
<!-- Node6&#45;&gt;Node1 -->
<g id="edge5" class="edge">
<title>Node6&#45;&gt;Node1</title>
<path fill="none" stroke="#9a32cd" stroke-dasharray="5,2" d="M301.63,-88.9C282.38,-75.04 252.12,-54.01 224.5,-38 212.9,-31.28 199.4,-24.64 188.67,-19.62"/>
<polygon fill="#9a32cd" stroke="#9a32cd" points="299.74,-91.85 309.89,-94.89 303.85,-86.19 299.74,-91.85"/>
<text text-anchor="middle" x="293" y="-57.5" font-family="Helvetica,sans-Serif" font-size="10.00"> hintrp</text>
<text text-anchor="middle" x="293" y="-46.5" font-family="Helvetica,sans-Serif" font-size="10.00">hintrp2</text>
</g>
</g>
</svg>
