<?xml version="1.0" encoding="UTF-8" standalone="no"?>
<!DOCTYPE svg PUBLIC "-//W3C//DTD SVG 1.1//EN"
 "http://www.w3.org/Graphics/SVG/1.1/DTD/svg11.dtd">
<!-- Generated by graphviz version 2.43.0 (0)
 -->
<!-- Title: ax_type Pages: 1 -->
<!--zoomable 932 -->
<svg id="main" version="1.1" xmlns="http://www.w3.org/2000/svg" xmlns:xlink="http://www.w3.org/1999/xlink" xml:space="preserve" onload="init(evt)">
<style type="text/css"><![CDATA[
.edge:hover path { stroke: red; }
.edge:hover polygon { stroke: red; fill: red; }
]]></style>
<script type="text/javascript"><![CDATA[
var edges = document.getElementsByTagName('g');
if (edges && edges.length) {
  for (var i=0;i<edges.length;i++) {
    if (edges[i].id.substr(0,4)=='edge') {
      edges[i].setAttribute('class','edge');
    }
  }
}
]]></script>
        <defs>
                <circle id="rim" cx="0" cy="0" r="7"/>
                <circle id="rim2" cx="0" cy="0" r="3.5"/>
                <g id="zoomPlus">
                        <use xlink:href="#rim" fill="#404040">
                                <set attributeName="fill" to="#808080" begin="zoomplus.mouseover" end="zoomplus.mouseout"/>
                        </use>
                        <path d="M-4,0h8M0,-4v8" fill="none" stroke="white" stroke-width="1.5" pointer-events="none"/>
                </g>
                <g id="zoomMin">
                        <use xlink:href="#rim" fill="#404040">
                                <set attributeName="fill" to="#808080" begin="zoomminus.mouseover" end="zoomminus.mouseout"/>
                        </use>
                        <path d="M-4,0h8" fill="none" stroke="white" stroke-width="1.5" pointer-events="none"/>
                </g>
                <g id="dirArrow">
                        <path fill="none" stroke="white" stroke-width="1.5" d="M0,-3.0v7 M-2.5,-0.5L0,-3.0L2.5,-0.5"/>
                </g>
               <g id="resetDef">
                       <use xlink:href="#rim2" fill="#404040">
                               <set attributeName="fill" to="#808080" begin="reset.mouseover" end="reset.mouseout"/>
                       </use>
               </g>
        </defs>

<script type="text/javascript">
var viewWidth = 1067;
var viewHeight = 932;
var sectionId = 'dynsection-0';
</script>
<script xlink:href="svgpan.js"/>
<svg id="graph" class="graph">
<g id="viewport">
<title>ax_type</title>
<polygon fill="white" stroke="transparent" points="-4,4 -4,-927.85 1063,-927.85 1063,4 -4,4"/>
<!-- Node1 -->
<g id="node1" class="node">
<title>Node1</title>
<g id="a_node1"><a xlink:title=" ">
<polygon fill="#bfbfbf" stroke="black" points="1003,-199.85 1003,-218.85 1059,-218.85 1059,-199.85 1003,-199.85"/>
<text text-anchor="middle" x="1031" y="-206.85" font-family="Helvetica,sans-Serif" font-size="10.00">ax_type</text>
</a>
</g>
</g>
<!-- Node2 -->
<g id="node2" class="node">
<title>Node2</title>
<g id="a_node2"><a xlink:title=" ">
<polygon fill="white" stroke="#bfbfbf" points="707,-661.85 707,-680.85 842,-680.85 842,-661.85 707,-661.85"/>
<text text-anchor="middle" x="774.5" y="-668.85" font-family="Helvetica,sans-Serif" font-size="10.00">type(domainug), pointer</text>
</a>
</g>
</g>
<!-- Node2&#45;&gt;Node1 -->
<g id="edge1" class="edge">
<title>Node2&#45;&gt;Node1</title>
<path fill="none" stroke="#9a32cd" stroke-dasharray="5,2" d="M831.43,-658.04C835.11,-656.36 838.68,-654.47 842,-652.35 923.83,-600.19 943.9,-575.26 985,-487.35 1030.34,-390.35 1031.04,-255.87 1030.29,-219.02"/>
<polygon fill="#9a32cd" stroke="#9a32cd" points="830.04,-654.82 822.07,-661.8 832.65,-661.32 830.04,-654.82"/>
<text text-anchor="middle" x="922.5" y="-642.35" font-family="Helvetica,sans-Serif" font-size="10.00"> domain_ug</text>
</g>
<!-- Node3 -->
<g id="node3" class="node">
<title>Node3</title>
<g id="a_node3"><a xlink:href="group__mpp__domains__mod.html#structmpp__domains__mod_1_1domain2d" target="_top" xlink:title="The domain2D type contains all the necessary information to define the global, compute and data domai...">
<polygon fill="white" stroke="black" points="742,-594.85 742,-613.85 807,-613.85 807,-594.85 742,-594.85"/>
<text text-anchor="middle" x="774.5" y="-601.85" font-family="Helvetica,sans-Serif" font-size="10.00">domain2d</text>
</a>
</g>
</g>
<!-- Node3&#45;&gt;Node1 -->
<g id="edge2" class="edge">
<title>Node3&#45;&gt;Node1</title>
<path fill="none" stroke="#9a32cd" stroke-dasharray="5,2" d="M787.28,-586.26C819.24,-537.15 910.17,-397.24 985,-280.35 999.01,-258.48 1015.29,-232.7 1023.91,-219.02"/>
<polygon fill="#9a32cd" stroke="#9a32cd" points="784.22,-584.54 781.7,-594.83 790.09,-588.36 784.22,-584.54"/>
<text text-anchor="middle" x="922.5" y="-475.35" font-family="Helvetica,sans-Serif" font-size="10.00"> domain</text>
</g>
<!-- Node3&#45;&gt;Node3 -->
<g id="edge12" class="edge">
<title>Node3&#45;&gt;Node3</title>
<path fill="none" stroke="#9a32cd" stroke-dasharray="5,2" d="M755.98,-623.75C757.22,-628.67 763.39,-632.35 774.5,-632.35 792.27,-632.35 797.41,-622.92 789.91,-614.11"/>
<polygon fill="#9a32cd" stroke="#9a32cd" points="759.35,-624.7 759.09,-614.11 752.69,-622.56 759.35,-624.7"/>
<text text-anchor="middle" x="774.5" y="-635.35" font-family="Helvetica,sans-Serif" font-size="10.00"> io_domain</text>
</g>
<!-- Node4 -->
<g id="node4" class="node">
<title>Node4</title>
<g id="a_node4"><a xlink:title=" ">
<polygon fill="white" stroke="#bfbfbf" points="1,-803.85 1,-822.85 50,-822.85 50,-803.85 1,-803.85"/>
<text text-anchor="middle" x="25.5" y="-810.85" font-family="Helvetica,sans-Serif" font-size="10.00">logical</text>
</a>
</g>
</g>
<!-- Node4&#45;&gt;Node3 -->
<g id="edge3" class="edge">
<title>Node4&#45;&gt;Node3</title>
<path fill="none" stroke="#9a32cd" stroke-dasharray="5,2" d="M48.71,-828.37C55.05,-832.1 62.11,-835.77 69,-838.35 127.65,-860.34 144.87,-864.35 207.5,-864.35 207.5,-864.35 207.5,-864.35 582.5,-864.35 659.62,-864.35 655.58,-796.86 689,-727.35 703.85,-696.46 687.91,-680.83 707,-652.35 718.5,-635.2 738.3,-622.08 753.32,-613.93"/>
<polygon fill="#9a32cd" stroke="#9a32cd" points="50.39,-825.29 40.05,-822.97 46.69,-831.23 50.39,-825.29"/>
<text text-anchor="middle" x="403.5" y="-889.35" font-family="Helvetica,sans-Serif" font-size="10.00"> rotated_ninety</text>
<text text-anchor="middle" x="403.5" y="-878.35" font-family="Helvetica,sans-Serif" font-size="10.00">symmetry</text>
<text text-anchor="middle" x="403.5" y="-867.35" font-family="Helvetica,sans-Serif" font-size="10.00">initialized</text>
</g>
<!-- Node5 -->
<g id="node5" class="node">
<title>Node5</title>
<g id="a_node5"><a xlink:href="group__mpp__domains__mod.html#structmpp__domains__mod_1_1domain1d" target="_top" xlink:title="One dimensional domain used to manage shared data access between pes.">
<polygon fill="white" stroke="black" points="371,-755.85 371,-774.85 436,-774.85 436,-755.85 371,-755.85"/>
<text text-anchor="middle" x="403.5" y="-762.85" font-family="Helvetica,sans-Serif" font-size="10.00">domain1d</text>
</a>
</g>
</g>
<!-- Node4&#45;&gt;Node5 -->
<g id="edge5" class="edge">
<title>Node4&#45;&gt;Node5</title>
<path fill="none" stroke="#9a32cd" stroke-dasharray="5,2" d="M60.15,-819.68C118.61,-829.26 241.93,-843.16 339,-811.35 360.99,-804.15 381.78,-786.23 393.26,-775"/>
<polygon fill="#9a32cd" stroke="#9a32cd" points="60.46,-816.19 50.02,-817.96 59.29,-823.09 60.46,-816.19"/>
<text text-anchor="middle" x="208.5" y="-833.35" font-family="Helvetica,sans-Serif" font-size="10.00"> cyclic</text>
</g>
<!-- Node6 -->
<g id="node6" class="node">
<title>Node6</title>
<g id="a_node6"><a xlink:href="group__mpp__domains__mod.html#structmpp__domains__mod_1_1domain__axis__spec" target="_top" xlink:title="Used to specify index limits along an axis of a domain.">
<polygon fill="white" stroke="black" points="155,-753.85 155,-772.85 262,-772.85 262,-753.85 155,-753.85"/>
<text text-anchor="middle" x="208.5" y="-760.85" font-family="Helvetica,sans-Serif" font-size="10.00">domain_axis_spec</text>
</a>
</g>
</g>
<!-- Node4&#45;&gt;Node6 -->
<g id="edge8" class="edge">
<title>Node4&#45;&gt;Node6</title>
<path fill="none" stroke="#9a32cd" stroke-dasharray="5,2" d="M59.97,-803.88C63.02,-803.02 66.07,-802.17 69,-801.35 104.19,-791.56 144.46,-780.53 172.47,-772.89"/>
<polygon fill="#9a32cd" stroke="#9a32cd" points="59,-800.52 50.32,-806.59 60.89,-807.25 59,-800.52"/>
<text text-anchor="middle" x="103" y="-804.35" font-family="Helvetica,sans-Serif" font-size="10.00"> is_global</text>
</g>
<!-- Node10 -->
<g id="node10" class="node">
<title>Node10</title>
<g id="a_node10"><a xlink:href="group__mpp__domains__mod.html#structmpp__domains__mod_1_1overlap__type" target="_top" xlink:title="Type for overlapping data.">
<polygon fill="white" stroke="black" points="168.5,-547.85 168.5,-566.85 248.5,-566.85 248.5,-547.85 168.5,-547.85"/>
<text text-anchor="middle" x="208.5" y="-554.85" font-family="Helvetica,sans-Serif" font-size="10.00">overlap_type</text>
</a>
</g>
</g>
<!-- Node4&#45;&gt;Node10 -->
<g id="edge15" class="edge">
<title>Node4&#45;&gt;Node10</title>
<path fill="none" stroke="#9a32cd" stroke-dasharray="5,2" d="M39.55,-795.94C47.25,-786.68 57.69,-775.71 69,-768.35 95.87,-750.88 116.67,-769.13 137,-744.35 172.61,-700.97 131.97,-670.54 155,-619.35 164.61,-598 183.83,-578.27 196.16,-567.04"/>
<polygon fill="#9a32cd" stroke="#9a32cd" points="36.77,-793.81 33.3,-803.82 42.25,-798.16 36.77,-793.81"/>
<text text-anchor="middle" x="103" y="-771.35" font-family="Helvetica,sans-Serif" font-size="10.00"> from_contact</text>
</g>
<!-- Node5&#45;&gt;Node3 -->
<g id="edge4" class="edge">
<title>Node5&#45;&gt;Node3</title>
<path fill="none" stroke="#9a32cd" stroke-dasharray="5,2" d="M446.37,-766.63C494.77,-766.68 575.97,-762.27 640,-736.35 665.3,-726.11 672.6,-721.16 689,-699.35 702.45,-681.48 693.36,-670.08 707,-652.35 719.85,-635.65 740.07,-622.22 754.84,-613.86"/>
<polygon fill="#9a32cd" stroke="#9a32cd" points="446.3,-763.13 436.27,-766.56 446.24,-770.13 446.3,-763.13"/>
<text text-anchor="middle" x="581.5" y="-776.35" font-family="Helvetica,sans-Serif" font-size="10.00"> x</text>
<text text-anchor="middle" x="581.5" y="-765.35" font-family="Helvetica,sans-Serif" font-size="10.00">y</text>
</g>
<!-- Node5&#45;&gt;Node5 -->
<g id="edge6" class="edge">
<title>Node5&#45;&gt;Node5</title>
<path fill="none" stroke="#9a32cd" stroke-dasharray="5,2" d="M388.4,-785.12C389.59,-789.85 394.62,-793.35 403.5,-793.35 418.07,-793.35 422.29,-783.92 416.14,-775.11"/>
<polygon fill="#9a32cd" stroke="#9a32cd" points="391.87,-785.66 390.86,-775.11 385.07,-783.98 391.87,-785.66"/>
<text text-anchor="middle" x="403.5" y="-796.35" font-family="Helvetica,sans-Serif" font-size="10.00"> list</text>
</g>
<!-- Node6&#45;&gt;Node5 -->
<g id="edge7" class="edge">
<title>Node6&#45;&gt;Node5</title>
<path fill="none" stroke="#9a32cd" stroke-dasharray="5,2" d="M272.27,-764C305.27,-764.35 344.29,-764.75 370.95,-765.03"/>
<polygon fill="#9a32cd" stroke="#9a32cd" points="272.27,-760.5 262.24,-763.9 272.2,-767.5 272.27,-760.5"/>
<text text-anchor="middle" x="309.5" y="-800.35" font-family="Helvetica,sans-Serif" font-size="10.00"> memory</text>
<text text-anchor="middle" x="309.5" y="-789.35" font-family="Helvetica,sans-Serif" font-size="10.00">global</text>
<text text-anchor="middle" x="309.5" y="-778.35" font-family="Helvetica,sans-Serif" font-size="10.00">compute</text>
<text text-anchor="middle" x="309.5" y="-767.35" font-family="Helvetica,sans-Serif" font-size="10.00">data</text>
</g>
<!-- Node12 -->
<g id="node12" class="node">
<title>Node12</title>
<g id="a_node12"><a xlink:href="group__mpp__domains__mod.html#structmpp__domains__mod_1_1domain1d__spec" target="_top" xlink:title="A private type used to specify index limits for a domain decomposition.">
<polygon fill="white" stroke="black" points="357,-707.85 357,-726.85 450,-726.85 450,-707.85 357,-707.85"/>
<text text-anchor="middle" x="403.5" y="-714.85" font-family="Helvetica,sans-Serif" font-size="10.00">domain1d_spec</text>
</a>
</g>
</g>
<!-- Node6&#45;&gt;Node12 -->
<g id="edge21" class="edge">
<title>Node6&#45;&gt;Node12</title>
<path fill="none" stroke="#9a32cd" stroke-dasharray="5,2" d="M241.53,-750.07C253.45,-745.52 267.19,-740.73 280,-737.35 305.11,-730.74 333.72,-725.92 356.98,-722.67"/>
<polygon fill="#9a32cd" stroke="#9a32cd" points="240.04,-746.89 232.01,-753.8 242.59,-753.41 240.04,-746.89"/>
<text text-anchor="middle" x="309.5" y="-751.35" font-family="Helvetica,sans-Serif" font-size="10.00"> global</text>
<text text-anchor="middle" x="309.5" y="-740.35" font-family="Helvetica,sans-Serif" font-size="10.00">compute</text>
</g>
<!-- Node7 -->
<g id="node7" class="node">
<title>Node7</title>
<g id="a_node7"><a xlink:title=" ">
<polygon fill="white" stroke="#bfbfbf" points="0,-449.85 0,-468.85 51,-468.85 51,-449.85 0,-449.85"/>
<text text-anchor="middle" x="25.5" y="-456.85" font-family="Helvetica,sans-Serif" font-size="10.00">integer</text>
</a>
</g>
</g>
<!-- Node7&#45;&gt;Node1 -->
<g id="edge33" class="edge">
<title>Node7&#45;&gt;Node1</title>
<path fill="none" stroke="#9a32cd" stroke-dasharray="5,2" d="M26.35,-439.38C27.23,-407.34 33.69,-344.38 69,-308.35 114.02,-262.42 143.18,-266.35 207.5,-266.35 207.5,-266.35 207.5,-266.35 775.5,-266.35 869.56,-266.35 896.37,-267.84 985,-236.35 996.68,-232.21 1008.65,-224.84 1017.3,-218.85"/>
<polygon fill="#9a32cd" stroke="#9a32cd" points="22.85,-439.65 26.24,-449.68 29.85,-439.72 22.85,-439.65"/>
<text text-anchor="middle" x="486.5" y="-313.35" font-family="Helvetica,sans-Serif" font-size="10.00"> idx</text>
<text text-anchor="middle" x="486.5" y="-302.35" font-family="Helvetica,sans-Serif" font-size="10.00">nelems</text>
<text text-anchor="middle" x="486.5" y="-291.35" font-family="Helvetica,sans-Serif" font-size="10.00">sense</text>
<text text-anchor="middle" x="486.5" y="-280.35" font-family="Helvetica,sans-Serif" font-size="10.00">imin</text>
<text text-anchor="middle" x="486.5" y="-269.35" font-family="Helvetica,sans-Serif" font-size="10.00">dimlen</text>
</g>
<!-- Node7&#45;&gt;Node3 -->
<g id="edge26" class="edge">
<title>Node7&#45;&gt;Node3</title>
<path fill="none" stroke="#9a32cd" stroke-dasharray="5,2" d="M27.04,-439.7C28.98,-412.01 37,-362.22 69,-338.35 136.92,-287.7 370.3,-295.63 450,-324.35 606.18,-380.64 736.23,-552.06 766.73,-594.68"/>
<polygon fill="#9a32cd" stroke="#9a32cd" points="23.54,-439.6 26.54,-449.76 30.53,-439.95 23.54,-439.6"/>
<text text-anchor="middle" x="403.5" y="-448.35" font-family="Helvetica,sans-Serif" font-size="10.00"> fold</text>
<text text-anchor="middle" x="403.5" y="-437.35" font-family="Helvetica,sans-Serif" font-size="10.00">tile_id</text>
<text text-anchor="middle" x="403.5" y="-426.35" font-family="Helvetica,sans-Serif" font-size="10.00">tile_id_all</text>
<text text-anchor="middle" x="403.5" y="-415.35" font-family="Helvetica,sans-Serif" font-size="10.00">io_layout</text>
<text text-anchor="middle" x="403.5" y="-404.35" font-family="Helvetica,sans-Serif" font-size="10.00">nhalo</text>
<text text-anchor="middle" x="403.5" y="-393.35" font-family="Helvetica,sans-Serif" font-size="10.00">ntiles</text>
<text text-anchor="middle" x="403.5" y="-382.35" font-family="Helvetica,sans-Serif" font-size="10.00">pe</text>
<text text-anchor="start" x="379" y="-371.35" font-family="Helvetica,sans-Serif" font-size="10.00">max_ntile</text>
<text text-anchor="middle" x="403.5" y="-360.35" font-family="Helvetica,sans-Serif" font-size="10.00">_pe</text>
<text text-anchor="middle" x="403.5" y="-349.35" font-family="Helvetica,sans-Serif" font-size="10.00">shalo</text>
<text text-anchor="middle" x="403.5" y="-338.35" font-family="Helvetica,sans-Serif" font-size="10.00">ncontacts</text>
<text text-anchor="middle" x="403.5" y="-327.35" font-family="Helvetica,sans-Serif" font-size="10.00">...</text>
</g>
<!-- Node7&#45;&gt;Node5 -->
<g id="edge10" class="edge">
<title>Node7&#45;&gt;Node5</title>
<path fill="none" stroke="#9a32cd" stroke-dasharray="5,2" d="M28.58,-479.17C33.42,-521.49 46.73,-618.79 69,-642.35 111.94,-687.79 283.83,-691.95 339,-721.35 348.19,-726.25 348.59,-730.21 357,-736.35 366.38,-743.21 377.35,-750.22 386.16,-755.64"/>
<polygon fill="#9a32cd" stroke="#9a32cd" points="32.04,-478.57 27.47,-469.01 25.08,-479.33 32.04,-478.57"/>
<text text-anchor="middle" x="208.5" y="-734.35" font-family="Helvetica,sans-Serif" font-size="10.00"> pe</text>
<text text-anchor="middle" x="208.5" y="-723.35" font-family="Helvetica,sans-Serif" font-size="10.00">goffset</text>
<text text-anchor="middle" x="208.5" y="-712.35" font-family="Helvetica,sans-Serif" font-size="10.00">pos</text>
<text text-anchor="middle" x="208.5" y="-701.35" font-family="Helvetica,sans-Serif" font-size="10.00">loffset</text>
</g>
<!-- Node7&#45;&gt;Node6 -->
<g id="edge9" class="edge">
<title>Node7&#45;&gt;Node6</title>
<path fill="none" stroke="#9a32cd" stroke-dasharray="5,2" d="M27.74,-479.01C31.16,-527.02 42.3,-648.43 69,-677.35 90.28,-700.41 113.21,-675.89 137,-696.35 151.78,-709.06 141.58,-722.21 155,-736.35 162.06,-743.79 171.61,-749.53 180.63,-753.78"/>
<polygon fill="#9a32cd" stroke="#9a32cd" points="31.23,-478.71 27.06,-468.96 24.24,-479.18 31.23,-478.71"/>
<text text-anchor="middle" x="103" y="-732.35" font-family="Helvetica,sans-Serif" font-size="10.00"> max_size</text>
<text text-anchor="middle" x="103" y="-721.35" font-family="Helvetica,sans-Serif" font-size="10.00">size</text>
<text text-anchor="middle" x="103" y="-710.35" font-family="Helvetica,sans-Serif" font-size="10.00">begin</text>
<text text-anchor="middle" x="103" y="-699.35" font-family="Helvetica,sans-Serif" font-size="10.00">end</text>
</g>
<!-- Node9 -->
<g id="node9" class="node">
<title>Node9</title>
<g id="a_node9"><a xlink:href="group__mpp__domains__mod.html#structmpp__domains__mod_1_1overlapspec" target="_top" xlink:title="Private type for overlap specifications.">
<polygon fill="white" stroke="black" points="365.5,-518.85 365.5,-537.85 441.5,-537.85 441.5,-518.85 365.5,-518.85"/>
<text text-anchor="middle" x="403.5" y="-525.85" font-family="Helvetica,sans-Serif" font-size="10.00">overlapspec</text>
</a>
</g>
</g>
<!-- Node7&#45;&gt;Node9 -->
<g id="edge18" class="edge">
<title>Node7&#45;&gt;Node9</title>
<path fill="none" stroke="#9a32cd" stroke-dasharray="5,2" d="M53.87,-445.46C98.64,-424.7 189.75,-390.73 262,-417.35 314.06,-436.54 312.64,-465.02 357,-498.35 366.68,-505.63 378.06,-513.13 387.01,-518.81"/>
<polygon fill="#9a32cd" stroke="#9a32cd" points="52.31,-442.32 44.79,-449.78 55.33,-448.64 52.31,-442.32"/>
<text text-anchor="middle" x="208.5" y="-530.35" font-family="Helvetica,sans-Serif" font-size="10.00"> nsend</text>
<text text-anchor="middle" x="208.5" y="-519.35" font-family="Helvetica,sans-Serif" font-size="10.00">ybegin</text>
<text text-anchor="middle" x="208.5" y="-508.35" font-family="Helvetica,sans-Serif" font-size="10.00">xbegin</text>
<text text-anchor="middle" x="208.5" y="-497.35" font-family="Helvetica,sans-Serif" font-size="10.00">yend</text>
<text text-anchor="middle" x="208.5" y="-486.35" font-family="Helvetica,sans-Serif" font-size="10.00">nhalo</text>
<text text-anchor="middle" x="208.5" y="-475.35" font-family="Helvetica,sans-Serif" font-size="10.00">xend</text>
<text text-anchor="middle" x="208.5" y="-464.35" font-family="Helvetica,sans-Serif" font-size="10.00">recvsize</text>
<text text-anchor="middle" x="208.5" y="-453.35" font-family="Helvetica,sans-Serif" font-size="10.00">shalo</text>
<text text-anchor="middle" x="208.5" y="-442.35" font-family="Helvetica,sans-Serif" font-size="10.00">ehalo</text>
<text text-anchor="middle" x="208.5" y="-431.35" font-family="Helvetica,sans-Serif" font-size="10.00">sendsize</text>
<text text-anchor="middle" x="208.5" y="-420.35" font-family="Helvetica,sans-Serif" font-size="10.00">...</text>
</g>
<!-- Node7&#45;&gt;Node10 -->
<g id="edge16" class="edge">
<title>Node7&#45;&gt;Node10</title>
<path fill="none" stroke="#9a32cd" stroke-dasharray="5,2" d="M61.35,-449.46C85.14,-444.95 116.03,-443.77 137,-460.35 163.21,-481.08 133.68,-507.62 155,-533.35 160.18,-539.6 167.34,-544.3 174.7,-547.8"/>
<polygon fill="#9a32cd" stroke="#9a32cd" points="60.34,-446.1 51.3,-451.64 61.82,-452.94 60.34,-446.1"/>
<text text-anchor="middle" x="103" y="-573.35" font-family="Helvetica,sans-Serif" font-size="10.00"> rotation</text>
<text text-anchor="middle" x="103" y="-562.35" font-family="Helvetica,sans-Serif" font-size="10.00">totsize</text>
<text text-anchor="middle" x="103" y="-551.35" font-family="Helvetica,sans-Serif" font-size="10.00">pe</text>
<text text-anchor="middle" x="103" y="-540.35" font-family="Helvetica,sans-Serif" font-size="10.00">dir</text>
<text text-anchor="middle" x="103" y="-529.35" font-family="Helvetica,sans-Serif" font-size="10.00">tileme</text>
<text text-anchor="middle" x="103" y="-518.35" font-family="Helvetica,sans-Serif" font-size="10.00">js</text>
<text text-anchor="middle" x="103" y="-507.35" font-family="Helvetica,sans-Serif" font-size="10.00">count</text>
<text text-anchor="middle" x="103" y="-496.35" font-family="Helvetica,sans-Serif" font-size="10.00">is</text>
<text text-anchor="middle" x="103" y="-485.35" font-family="Helvetica,sans-Serif" font-size="10.00">tilenbr</text>
<text text-anchor="middle" x="103" y="-474.35" font-family="Helvetica,sans-Serif" font-size="10.00">index</text>
<text text-anchor="middle" x="103" y="-463.35" font-family="Helvetica,sans-Serif" font-size="10.00">...</text>
</g>
<!-- Node11 -->
<g id="node11" class="node">
<title>Node11</title>
<g id="a_node11"><a xlink:href="group__mpp__domains__mod.html#structmpp__domains__mod_1_1domain2d__spec" target="_top" xlink:title="Private type to specify multiple index limits and pe information for a 2D domain.">
<polygon fill="white" stroke="black" points="535,-707.85 535,-726.85 628,-726.85 628,-707.85 535,-707.85"/>
<text text-anchor="middle" x="581.5" y="-714.85" font-family="Helvetica,sans-Serif" font-size="10.00">domain2d_spec</text>
</a>
</g>
</g>
<!-- Node7&#45;&gt;Node11 -->
<g id="edge23" class="edge">
<title>Node7&#45;&gt;Node11</title>
<path fill="none" stroke="#9a32cd" stroke-dasharray="5,2" d="M27.17,-478.93C29.26,-506.55 37.47,-556.4 69,-581.35 116.3,-618.79 280.98,-592.86 339,-609.35 426.38,-634.19 438.8,-664.25 523,-698.35 531.38,-701.75 540.62,-705.01 549.19,-707.84"/>
<polygon fill="#9a32cd" stroke="#9a32cd" points="30.66,-478.68 26.61,-468.89 23.67,-479.07 30.66,-478.68"/>
<text text-anchor="middle" x="309.5" y="-645.35" font-family="Helvetica,sans-Serif" font-size="10.00"> tile_id</text>
<text text-anchor="middle" x="309.5" y="-634.35" font-family="Helvetica,sans-Serif" font-size="10.00">pe</text>
<text text-anchor="middle" x="309.5" y="-623.35" font-family="Helvetica,sans-Serif" font-size="10.00">tile_root_pe</text>
<text text-anchor="middle" x="309.5" y="-612.35" font-family="Helvetica,sans-Serif" font-size="10.00">pos</text>
</g>
<!-- Node7&#45;&gt;Node12 -->
<g id="edge22" class="edge">
<title>Node7&#45;&gt;Node12</title>
<path fill="none" stroke="#9a32cd" stroke-dasharray="5,2" d="M26.15,-479.44C26.74,-511.63 32.81,-574.65 69,-609.35 158.1,-694.77 226.23,-624.18 339,-674.35 358.71,-683.12 378.9,-698.01 391.07,-707.76"/>
<polygon fill="#9a32cd" stroke="#9a32cd" points="29.65,-479.08 26.14,-469.09 22.65,-479.09 29.65,-479.08"/>
<text text-anchor="middle" x="208.5" y="-657.35" font-family="Helvetica,sans-Serif" font-size="10.00"> pos</text>
</g>
<!-- Node13 -->
<g id="node13" class="node">
<title>Node13</title>
<g id="a_node13"><a xlink:href="group__mpp__domains__mod.html#structmpp__domains__mod_1_1tile__type" target="_top" xlink:title="Upper and lower x and y bounds for a tile.">
<polygon fill="white" stroke="black" points="280,-363.85 280,-382.85 339,-382.85 339,-363.85 280,-363.85"/>
<text text-anchor="middle" x="309.5" y="-370.85" font-family="Helvetica,sans-Serif" font-size="10.00">tile_type</text>
</a>
</g>
</g>
<!-- Node7&#45;&gt;Node13 -->
<g id="edge25" class="edge">
<title>Node7&#45;&gt;Node13</title>
<path fill="none" stroke="#9a32cd" stroke-dasharray="5,2" d="M28.86,-439.92C32.79,-417.11 43.01,-380.27 69,-363.35 136.14,-319.65 237.73,-347.33 284,-363.75"/>
<polygon fill="#9a32cd" stroke="#9a32cd" points="25.4,-439.43 27.4,-449.83 32.32,-440.45 25.4,-439.43"/>
<text text-anchor="middle" x="103" y="-399.35" font-family="Helvetica,sans-Serif" font-size="10.00"> ybegin</text>
<text text-anchor="middle" x="103" y="-388.35" font-family="Helvetica,sans-Serif" font-size="10.00">xbegin</text>
<text text-anchor="middle" x="103" y="-377.35" font-family="Helvetica,sans-Serif" font-size="10.00">yend</text>
<text text-anchor="middle" x="103" y="-366.35" font-family="Helvetica,sans-Serif" font-size="10.00">xend</text>
</g>
<!-- Node8 -->
<g id="node8" class="node">
<title>Node8</title>
<g id="a_node8"><a xlink:title=" ">
<polygon fill="white" stroke="#bfbfbf" points="534.5,-669.85 534.5,-688.85 628.5,-688.85 628.5,-669.85 534.5,-669.85"/>
<text text-anchor="middle" x="581.5" y="-676.85" font-family="Helvetica,sans-Serif" font-size="10.00">integer(i8_kind)</text>
</a>
</g>
</g>
<!-- Node8&#45;&gt;Node3 -->
<g id="edge11" class="edge">
<title>Node8&#45;&gt;Node3</title>
<path fill="none" stroke="#9a32cd" stroke-dasharray="5,2" d="M616.71,-665.92C654.8,-650.96 715.4,-627.17 749.02,-613.97"/>
<polygon fill="#9a32cd" stroke="#9a32cd" points="615.11,-662.79 607.08,-669.7 617.67,-669.3 615.11,-662.79"/>
<text text-anchor="middle" x="673.5" y="-651.35" font-family="Helvetica,sans-Serif" font-size="10.00"> id</text>
</g>
<!-- Node9&#45;&gt;Node3 -->
<g id="edge13" class="edge">
<title>Node9&#45;&gt;Node3</title>
<path fill="none" stroke="#9a32cd" stroke-dasharray="5,2" d="M452.03,-525.01C500.19,-522.91 576.45,-523.13 640,-539.35 686.21,-551.15 735.35,-579.84 759.05,-594.85"/>
<polygon fill="#9a32cd" stroke="#9a32cd" points="451.71,-521.52 441.89,-525.51 452.05,-528.51 451.71,-521.52"/>
<text text-anchor="middle" x="581.5" y="-652.35" font-family="Helvetica,sans-Serif" font-size="10.00"> update_c</text>
<text text-anchor="middle" x="581.5" y="-641.35" font-family="Helvetica,sans-Serif" font-size="10.00">update_t</text>
<text text-anchor="middle" x="581.5" y="-630.35" font-family="Helvetica,sans-Serif" font-size="10.00">update_e</text>
<text text-anchor="middle" x="581.5" y="-619.35" font-family="Helvetica,sans-Serif" font-size="10.00">bound_c</text>
<text text-anchor="middle" x="581.5" y="-608.35" font-family="Helvetica,sans-Serif" font-size="10.00">bound_e</text>
<text text-anchor="middle" x="581.5" y="-597.35" font-family="Helvetica,sans-Serif" font-size="10.00">check_n</text>
<text text-anchor="middle" x="581.5" y="-586.35" font-family="Helvetica,sans-Serif" font-size="10.00">update_n</text>
<text text-anchor="middle" x="581.5" y="-575.35" font-family="Helvetica,sans-Serif" font-size="10.00">check_c</text>
<text text-anchor="middle" x="581.5" y="-564.35" font-family="Helvetica,sans-Serif" font-size="10.00">bound_n</text>
<text text-anchor="middle" x="581.5" y="-553.35" font-family="Helvetica,sans-Serif" font-size="10.00">check_e</text>
<text text-anchor="middle" x="581.5" y="-542.35" font-family="Helvetica,sans-Serif" font-size="10.00">...</text>
</g>
<!-- Node9&#45;&gt;Node9 -->
<g id="edge17" class="edge">
<title>Node9&#45;&gt;Node9</title>
<path fill="none" stroke="#9a32cd" stroke-dasharray="5,2" d="M388.4,-548.12C389.59,-552.85 394.62,-556.35 403.5,-556.35 418.07,-556.35 422.29,-546.92 416.14,-538.11"/>
<polygon fill="#9a32cd" stroke="#9a32cd" points="391.87,-548.66 390.86,-538.11 385.07,-546.98 391.87,-548.66"/>
<text text-anchor="middle" x="403.5" y="-559.35" font-family="Helvetica,sans-Serif" font-size="10.00"> next</text>
</g>
<!-- Node10&#45;&gt;Node9 -->
<g id="edge14" class="edge">
<title>Node10&#45;&gt;Node9</title>
<path fill="none" stroke="#9a32cd" stroke-dasharray="5,2" d="M258.53,-549.99C291.79,-544.99 335.08,-538.48 365.47,-533.92"/>
<polygon fill="#9a32cd" stroke="#9a32cd" points="257.93,-546.54 248.56,-551.48 258.97,-553.46 257.93,-546.54"/>
<text text-anchor="middle" x="309.5" y="-559.35" font-family="Helvetica,sans-Serif" font-size="10.00"> recv</text>
<text text-anchor="middle" x="309.5" y="-548.35" font-family="Helvetica,sans-Serif" font-size="10.00">send</text>
</g>
<!-- Node11&#45;&gt;Node3 -->
<g id="edge19" class="edge">
<title>Node11&#45;&gt;Node3</title>
<path fill="none" stroke="#9a32cd" stroke-dasharray="5,2" d="M626.46,-704.33C631.11,-702.51 635.71,-700.51 640,-698.35 646.46,-695.1 727.4,-637.34 760.01,-614.01"/>
<polygon fill="#9a32cd" stroke="#9a32cd" points="625.11,-701.1 616.92,-707.81 627.51,-707.67 625.11,-701.1"/>
<text text-anchor="middle" x="673.5" y="-687.35" font-family="Helvetica,sans-Serif" font-size="10.00"> list</text>
</g>
<!-- Node12&#45;&gt;Node11 -->
<g id="edge20" class="edge">
<title>Node12&#45;&gt;Node11</title>
<path fill="none" stroke="#9a32cd" stroke-dasharray="5,2" d="M460.34,-717.35C484.39,-717.35 512.17,-717.35 534.95,-717.35"/>
<polygon fill="#9a32cd" stroke="#9a32cd" points="460.28,-713.85 450.28,-717.35 460.28,-720.85 460.28,-713.85"/>
<text text-anchor="middle" x="486.5" y="-731.35" font-family="Helvetica,sans-Serif" font-size="10.00"> x</text>
<text text-anchor="middle" x="486.5" y="-720.35" font-family="Helvetica,sans-Serif" font-size="10.00">y</text>
</g>
<!-- Node13&#45;&gt;Node3 -->
<g id="edge24" class="edge">
<title>Node13&#45;&gt;Node3</title>
<path fill="none" stroke="#9a32cd" stroke-dasharray="5,2" d="M322.05,-391.78C327.42,-400.61 333.77,-411.4 339,-421.35 347.89,-438.25 342.08,-448.44 357,-460.35 475.62,-555.04 557.12,-465.22 689,-540.35 717.46,-556.57 747.2,-581.18 762.67,-594.67"/>
<polygon fill="#9a32cd" stroke="#9a32cd" points="324.93,-389.78 316.7,-383.11 318.97,-393.46 324.93,-389.78"/>
<text text-anchor="middle" x="486.5" y="-510.35" font-family="Helvetica,sans-Serif" font-size="10.00"> tilelist</text>
</g>
<!-- Node14 -->
<g id="node14" class="node">
<title>Node14</title>
<g id="a_node14"><a xlink:title=" ">
<polygon fill="white" stroke="#bfbfbf" points="523,-893.35 523,-923.35 640,-923.35 640,-893.35 523,-893.35"/>
<text text-anchor="start" x="531" y="-911.35" font-family="Helvetica,sans-Serif" font-size="10.00">character(len=name</text>
<text text-anchor="middle" x="581.5" y="-900.35" font-family="Helvetica,sans-Serif" font-size="10.00">_length)</text>
</a>
</g>
</g>
<!-- Node14&#45;&gt;Node3 -->
<g id="edge27" class="edge">
<title>Node14&#45;&gt;Node3</title>
<path fill="none" stroke="#9a32cd" stroke-dasharray="5,2" d="M650.02,-902.28C664.9,-897.76 679.15,-890.34 689,-878.35 720.99,-839.43 682.29,-696.26 707,-652.35 716.91,-634.73 736.29,-621.89 751.58,-613.95"/>
<polygon fill="#9a32cd" stroke="#9a32cd" points="648.98,-898.94 640.19,-904.86 650.75,-905.71 648.98,-898.94"/>
<text text-anchor="middle" x="673.5" y="-901.35" font-family="Helvetica,sans-Serif" font-size="10.00"> name</text>
</g>
<!-- Node15 -->
<g id="node15" class="node">
<title>Node15</title>
<g id="a_node15"><a xlink:title=" ">
<polygon fill="white" stroke="#bfbfbf" points="719,-218.85 719,-237.85 830,-237.85 830,-218.85 719,-218.85"/>
<text text-anchor="middle" x="774.5" y="-225.85" font-family="Helvetica,sans-Serif" font-size="10.00">character(len=256)</text>
</a>
</g>
</g>
<!-- Node15&#45;&gt;Node1 -->
<g id="edge28" class="edge">
<title>Node15&#45;&gt;Node1</title>
<path fill="none" stroke="#9a32cd" stroke-dasharray="5,2" d="M840.35,-223.51C892.94,-219.59 964.43,-214.25 1002.87,-211.38"/>
<polygon fill="#9a32cd" stroke="#9a32cd" points="839.81,-220.04 830.1,-224.28 840.33,-227.02 839.81,-220.04"/>
<text text-anchor="middle" x="922.5" y="-224.35" font-family="Helvetica,sans-Serif" font-size="10.00"> compressed</text>
</g>
<!-- Node16 -->
<g id="node16" class="node">
<title>Node16</title>
<g id="a_node16"><a xlink:title=" ">
<polygon fill="white" stroke="#bfbfbf" points="725.5,-180.85 725.5,-199.85 823.5,-199.85 823.5,-180.85 725.5,-180.85"/>
<text text-anchor="middle" x="774.5" y="-187.85" font-family="Helvetica,sans-Serif" font-size="10.00">integer(int_kind)</text>
</a>
</g>
</g>
<!-- Node16&#45;&gt;Node1 -->
<g id="edge29" class="edge">
<title>Node16&#45;&gt;Node1</title>
<path fill="none" stroke="#9a32cd" stroke-dasharray="5,2" d="M833.72,-188.77C875.94,-188.48 934.28,-189.84 985,-197.35 990.76,-198.21 996.84,-199.53 1002.6,-200.99"/>
<polygon fill="#9a32cd" stroke="#9a32cd" points="833.59,-185.27 823.62,-188.87 833.66,-192.27 833.59,-185.27"/>
<text text-anchor="middle" x="922.5" y="-200.35" font-family="Helvetica,sans-Serif" font-size="10.00"> nelems_for_current_rank</text>
</g>
<!-- Node17 -->
<g id="node17" class="node">
<title>Node17</title>
<g id="a_node17"><a xlink:title=" ">
<polygon fill="white" stroke="#bfbfbf" points="725,-142.85 725,-161.85 824,-161.85 824,-142.85 725,-142.85"/>
<text text-anchor="middle" x="774.5" y="-149.85" font-family="Helvetica,sans-Serif" font-size="10.00">character(len=8)</text>
</a>
</g>
</g>
<!-- Node17&#45;&gt;Node1 -->
<g id="edge30" class="edge">
<title>Node17&#45;&gt;Node1</title>
<path fill="none" stroke="#9a32cd" stroke-dasharray="5,2" d="M834.44,-149.47C877.65,-149.42 936.9,-153.73 985,-173.35 999.27,-179.17 1012.65,-191.02 1021.06,-199.53"/>
<polygon fill="#9a32cd" stroke="#9a32cd" points="834.34,-145.97 824.38,-149.56 834.41,-152.97 834.34,-145.97"/>
<text text-anchor="middle" x="922.5" y="-176.35" font-family="Helvetica,sans-Serif" font-size="10.00"> cartesian</text>
</g>
<!-- Node18 -->
<g id="node18" class="node">
<title>Node18</title>
<g id="a_node18"><a xlink:title=" ">
<polygon fill="white" stroke="#bfbfbf" points="719,-59.85 719,-78.85 830,-78.85 830,-59.85 719,-59.85"/>
<text text-anchor="middle" x="774.5" y="-66.85" font-family="Helvetica,sans-Serif" font-size="10.00">character(len=128)</text>
</a>
</g>
</g>
<!-- Node18&#45;&gt;Node1 -->
<g id="edge31" class="edge">
<title>Node18&#45;&gt;Node1</title>
<path fill="none" stroke="#9a32cd" stroke-dasharray="5,2" d="M821.79,-57.85C867.86,-49.28 938.25,-44.36 985,-79.35 1024.39,-108.84 1029.52,-175.05 1030.03,-199.79"/>
<polygon fill="#9a32cd" stroke="#9a32cd" points="820.9,-54.45 811.78,-59.84 822.27,-61.32 820.9,-54.45"/>
<text text-anchor="middle" x="922.5" y="-137.35" font-family="Helvetica,sans-Serif" font-size="10.00"> longname</text>
<text text-anchor="middle" x="922.5" y="-126.35" font-family="Helvetica,sans-Serif" font-size="10.00">dimlen_lname</text>
<text text-anchor="middle" x="922.5" y="-115.35" font-family="Helvetica,sans-Serif" font-size="10.00">dimlen_name</text>
<text text-anchor="middle" x="922.5" y="-104.35" font-family="Helvetica,sans-Serif" font-size="10.00">units</text>
<text text-anchor="middle" x="922.5" y="-93.35" font-family="Helvetica,sans-Serif" font-size="10.00">calendar</text>
<text text-anchor="middle" x="922.5" y="-82.35" font-family="Helvetica,sans-Serif" font-size="10.00">name</text>
</g>
<!-- Node19 -->
<g id="node19" class="node">
<title>Node19</title>
<g id="a_node19"><a xlink:title=" ">
<polygon fill="white" stroke="#bfbfbf" points="757,-14.85 757,-33.85 792,-33.85 792,-14.85 757,-14.85"/>
<text text-anchor="middle" x="774.5" y="-21.85" font-family="Helvetica,sans-Serif" font-size="10.00">real</text>
</a>
</g>
</g>
<!-- Node19&#45;&gt;Node1 -->
<g id="edge32" class="edge">
<title>Node19&#45;&gt;Node1</title>
<path fill="none" stroke="#9a32cd" stroke-dasharray="5,2" d="M801.92,-15.33C845.26,-2.36 931.91,15.67 985,-26.35 1012.83,-48.39 1025.81,-164.56 1029.12,-199.44"/>
<polygon fill="#9a32cd" stroke="#9a32cd" points="800.62,-12.07 792.13,-18.4 802.72,-18.75 800.62,-12.07"/>
<text text-anchor="middle" x="922.5" y="-40.35" font-family="Helvetica,sans-Serif" font-size="10.00"> data</text>
<text text-anchor="middle" x="922.5" y="-29.35" font-family="Helvetica,sans-Serif" font-size="10.00">min</text>
</g>
</g>
</svg>
        <g id="navigator" transform="translate(0 0)" fill="#404254">
                <rect fill="#f2f5e9" fill-opacity="0.5" stroke="#606060" stroke-width=".5" x="0" y="0" width="60" height="60"/>
                <use id="zoomplus" xlink:href="#zoomPlus" x="17" y="9" onmousedown="handleZoom(evt,'in')"/>
                <use id="zoomminus" xlink:href="#zoomMin" x="42" y="9" onmousedown="handleZoom(evt,'out')"/>
                <use id="reset" xlink:href="#resetDef" x="30" y="36" onmousedown="handleReset()"/>
                <g id="arrowUp" xlink:href="#dirArrow" transform="translate(30 24)" onmousedown="handlePan(0,-1)">
                  <use xlink:href="#rim" fill="#404040">
                        <set attributeName="fill" to="#808080" begin="arrowUp.mouseover" end="arrowUp.mouseout"/>
                  </use>
                  <path fill="none" stroke="white" stroke-width="1.5" d="M0,-3.0v7 M-2.5,-0.5L0,-3.0L2.5,-0.5"/>
                </g>
                <g id="arrowRight" xlink:href="#dirArrow" transform="rotate(90) translate(36 -43)" onmousedown="handlePan(1,0)">
                  <use xlink:href="#rim" fill="#404040">
                        <set attributeName="fill" to="#808080" begin="arrowRight.mouseover" end="arrowRight.mouseout"/>
                  </use>
                  <path fill="none" stroke="white" stroke-width="1.5" d="M0,-3.0v7 M-2.5,-0.5L0,-3.0L2.5,-0.5"/>
                </g>
                <g id="arrowDown" xlink:href="#dirArrow" transform="rotate(180) translate(-30 -48)" onmousedown="handlePan(0,1)">
                  <use xlink:href="#rim" fill="#404040">
                        <set attributeName="fill" to="#808080" begin="arrowDown.mouseover" end="arrowDown.mouseout"/>
                  </use>
                  <path fill="none" stroke="white" stroke-width="1.5" d="M0,-3.0v7 M-2.5,-0.5L0,-3.0L2.5,-0.5"/>
                </g>
                <g id="arrowLeft" xlink:href="#dirArrow" transform="rotate(270) translate(-36 17)" onmousedown="handlePan(-1,0)">
                  <use xlink:href="#rim" fill="#404040">
                        <set attributeName="fill" to="#808080" begin="arrowLeft.mouseover" end="arrowLeft.mouseout"/>
                  </use>
                  <path fill="none" stroke="white" stroke-width="1.5" d="M0,-3.0v7 M-2.5,-0.5L0,-3.0L2.5,-0.5"/>
                </g>
        </g>
        <svg viewBox="0 0 15 15" width="100%" height="30px" preserveAspectRatio="xMaxYMin meet">
         <g id="arrow_out" transform="scale(0.3 0.3)">
          <a xlink:href="structfms__io__mod_1_1ax__type__coll__graph_org.svg" target="_base">
           <rect id="button" ry="5" rx="5" y="6" x="6" height="38" width="38"
                fill="#f2f5e9" fill-opacity="0.5" stroke="#606060" stroke-width="1.0"/>
           <path id="arrow"
             d="M 11.500037,31.436501 C 11.940474,20.09759 22.043105,11.32322 32.158766,21.979434 L 37.068811,17.246167 C 37.068811,17.246167 37.088388,32 37.088388,32 L 22.160133,31.978069 C 22.160133,31.978069 26.997745,27.140456 26.997745,27.140456 C 18.528582,18.264221 13.291696,25.230495 11.500037,31.436501 z"
             style="fill:#404040;"/>
          </a>
         </g>
        </svg>
</svg>
