<?xml version="1.0" encoding="UTF-8" standalone="no"?>
<!DOCTYPE svg PUBLIC "-//W3C//DTD SVG 1.1//EN"
 "http://www.w3.org/Graphics/SVG/1.1/DTD/svg11.dtd">
<!-- Generated by graphviz version 2.43.0 (0)
 -->
<!-- Title: domain1d_spec Pages: 1 -->
<svg width="187pt" height="206pt"
 viewBox="0.00 0.00 186.50 206.00" xmlns="http://www.w3.org/2000/svg" xmlns:xlink="http://www.w3.org/1999/xlink">
<g id="graph0" class="graph" transform="scale(1 1) rotate(0) translate(4 202)">
<title>domain1d_spec</title>
<polygon fill="white" stroke="transparent" points="-4,4 -4,-202 182.5,-202 182.5,4 -4,4"/>
<!-- Node1 -->
<g id="node1" class="node">
<title>Node1</title>
<g id="a_node1"><a xlink:title="A private type used to specify index limits for a domain decomposition.">
<polygon fill="#bfbfbf" stroke="black" points="65,-0.5 65,-19.5 158,-19.5 158,-0.5 65,-0.5"/>
<text text-anchor="middle" x="111.5" y="-7.5" font-family="Helvetica,sans-Serif" font-size="10.00">domain1d_spec</text>
</a>
</g>
</g>
<!-- Node2 -->
<g id="node2" class="node">
<title>Node2</title>
<g id="a_node2"><a xlink:href="group__mpp__domains__mod.html#structmpp__domains__mod_1_1domain__axis__spec" target="_top" xlink:title="Used to specify index limits along an axis of a domain.">
<polygon fill="white" stroke="black" points="13,-78.5 13,-97.5 120,-97.5 120,-78.5 13,-78.5"/>
<text text-anchor="middle" x="66.5" y="-85.5" font-family="Helvetica,sans-Serif" font-size="10.00">domain_axis_spec</text>
</a>
</g>
</g>
<!-- Node2&#45;&gt;Node1 -->
<g id="edge1" class="edge">
<title>Node2&#45;&gt;Node1</title>
<path fill="none" stroke="#9a32cd" stroke-dasharray="5,2" d="M76.82,-69.57C86.07,-53.95 99.24,-31.7 106.4,-19.62"/>
<polygon fill="#9a32cd" stroke="#9a32cd" points="73.75,-67.89 71.66,-78.28 79.77,-71.46 73.75,-67.89"/>
<text text-anchor="middle" x="117.5" y="-52" font-family="Helvetica,sans-Serif" font-size="10.00"> compute</text>
<text text-anchor="middle" x="117.5" y="-41" font-family="Helvetica,sans-Serif" font-size="10.00">global</text>
</g>
<!-- Node3 -->
<g id="node3" class="node">
<title>Node3</title>
<g id="a_node3"><a xlink:title=" ">
<polygon fill="white" stroke="#bfbfbf" points="0,-178.5 0,-197.5 49,-197.5 49,-178.5 0,-178.5"/>
<text text-anchor="middle" x="24.5" y="-185.5" font-family="Helvetica,sans-Serif" font-size="10.00">logical</text>
</a>
</g>
</g>
<!-- Node3&#45;&gt;Node2 -->
<g id="edge2" class="edge">
<title>Node3&#45;&gt;Node2</title>
<path fill="none" stroke="#9a32cd" stroke-dasharray="5,2" d="M20.21,-168.36C17.77,-153.29 16.72,-132.02 25.5,-116 29.92,-107.93 37.91,-101.86 45.67,-97.54"/>
<polygon fill="#9a32cd" stroke="#9a32cd" points="16.84,-169.35 22.21,-178.49 23.71,-168 16.84,-169.35"/>
<text text-anchor="middle" x="49" y="-135.5" font-family="Helvetica,sans-Serif" font-size="10.00"> is_global</text>
</g>
<!-- Node4 -->
<g id="node4" class="node">
<title>Node4</title>
<g id="a_node4"><a xlink:title=" ">
<polygon fill="white" stroke="#bfbfbf" points="100,-178.5 100,-197.5 151,-197.5 151,-178.5 100,-178.5"/>
<text text-anchor="middle" x="125.5" y="-185.5" font-family="Helvetica,sans-Serif" font-size="10.00">integer</text>
</a>
</g>
</g>
<!-- Node4&#45;&gt;Node1 -->
<g id="edge4" class="edge">
<title>Node4&#45;&gt;Node1</title>
<path fill="none" stroke="#9a32cd" stroke-dasharray="5,2" d="M138.35,-169.67C140.06,-166.58 141.55,-163.3 142.5,-160 157.53,-107.9 164.96,-87.35 142.5,-38 139.07,-30.46 132.38,-24.21 126.1,-19.63"/>
<polygon fill="#9a32cd" stroke="#9a32cd" points="135.37,-167.83 132.88,-178.13 141.25,-171.63 135.37,-167.83"/>
<text text-anchor="middle" x="168" y="-85.5" font-family="Helvetica,sans-Serif" font-size="10.00"> pos</text>
</g>
<!-- Node4&#45;&gt;Node2 -->
<g id="edge3" class="edge">
<title>Node4&#45;&gt;Node2</title>
<path fill="none" stroke="#9a32cd" stroke-dasharray="5,2" d="M105.85,-171.67C102.09,-168.12 98.42,-164.15 95.5,-160 81.41,-139.96 72.59,-112.05 68.75,-97.93"/>
<polygon fill="#9a32cd" stroke="#9a32cd" points="103.64,-174.38 113.49,-178.3 108.23,-169.1 103.64,-174.38"/>
<text text-anchor="middle" x="119" y="-152" font-family="Helvetica,sans-Serif" font-size="10.00"> begin</text>
<text text-anchor="middle" x="119" y="-141" font-family="Helvetica,sans-Serif" font-size="10.00">end</text>
<text text-anchor="middle" x="119" y="-130" font-family="Helvetica,sans-Serif" font-size="10.00">max_size</text>
<text text-anchor="middle" x="119" y="-119" font-family="Helvetica,sans-Serif" font-size="10.00">size</text>
</g>
</g>
</svg>
