<?xml version="1.0" encoding="UTF-8" standalone="no"?>
<!DOCTYPE svg PUBLIC "-//W3C//DTD SVG 1.1//EN"
 "http://www.w3.org/Graphics/SVG/1.1/DTD/svg11.dtd">
<!-- Generated by graphviz version 2.43.0 (0)
 -->
<!-- Title: event Pages: 1 -->
<svg width="295pt" height="106pt"
 viewBox="0.00 0.00 295.00 106.00" xmlns="http://www.w3.org/2000/svg" xmlns:xlink="http://www.w3.org/1999/xlink">
<g id="graph0" class="graph" transform="scale(1 1) rotate(0) translate(4 102)">
<title>event</title>
<polygon fill="white" stroke="transparent" points="-4,4 -4,-102 291,-102 291,4 -4,4"/>
<!-- Node1 -->
<g id="node1" class="node">
<title>Node1</title>
<g id="a_node1"><a xlink:title="Communication event profile.">
<polygon fill="#bfbfbf" stroke="black" points="148.5,-0.5 148.5,-19.5 192.5,-19.5 192.5,-0.5 148.5,-0.5"/>
<text text-anchor="middle" x="170.5" y="-7.5" font-family="Helvetica,sans-Serif" font-size="10.00">event</text>
</a>
</g>
</g>
<!-- Node2 -->
<g id="node2" class="node">
<title>Node2</title>
<g id="a_node2"><a xlink:title=" ">
<polygon fill="white" stroke="#bfbfbf" points="0,-78.5 0,-97.5 105,-97.5 105,-78.5 0,-78.5"/>
<text text-anchor="middle" x="52.5" y="-85.5" font-family="Helvetica,sans-Serif" font-size="10.00">character(len=16)</text>
</a>
</g>
</g>
<!-- Node2&#45;&gt;Node1 -->
<g id="edge1" class="edge">
<title>Node2&#45;&gt;Node1</title>
<path fill="none" stroke="#9a32cd" stroke-dasharray="5,2" d="M74.59,-72.77C98.85,-57.15 137.03,-32.56 157.12,-19.62"/>
<polygon fill="#9a32cd" stroke="#9a32cd" points="72.55,-69.92 66.04,-78.28 76.34,-75.81 72.55,-69.92"/>
<text text-anchor="middle" x="142" y="-46.5" font-family="Helvetica,sans-Serif" font-size="10.00"> name</text>
</g>
<!-- Node3 -->
<g id="node3" class="node">
<title>Node3</title>
<g id="a_node3"><a xlink:title=" ">
<polygon fill="white" stroke="#bfbfbf" points="123.5,-78.5 123.5,-97.5 217.5,-97.5 217.5,-78.5 123.5,-78.5"/>
<text text-anchor="middle" x="170.5" y="-85.5" font-family="Helvetica,sans-Serif" font-size="10.00">integer(i8_kind)</text>
</a>
</g>
</g>
<!-- Node3&#45;&gt;Node1 -->
<g id="edge2" class="edge">
<title>Node3&#45;&gt;Node1</title>
<path fill="none" stroke="#9a32cd" stroke-dasharray="5,2" d="M170.5,-68.22C170.5,-52.7 170.5,-31.36 170.5,-19.62"/>
<polygon fill="#9a32cd" stroke="#9a32cd" points="167,-68.28 170.5,-78.28 174,-68.28 167,-68.28"/>
<text text-anchor="middle" x="186" y="-52" font-family="Helvetica,sans-Serif" font-size="10.00"> bytes</text>
<text text-anchor="middle" x="186" y="-41" font-family="Helvetica,sans-Serif" font-size="10.00">ticks</text>
</g>
<!-- Node4 -->
<g id="node4" class="node">
<title>Node4</title>
<g id="a_node4"><a xlink:title=" ">
<polygon fill="white" stroke="#bfbfbf" points="236,-78.5 236,-97.5 287,-97.5 287,-78.5 236,-78.5"/>
<text text-anchor="middle" x="261.5" y="-85.5" font-family="Helvetica,sans-Serif" font-size="10.00">integer</text>
</a>
</g>
</g>
<!-- Node4&#45;&gt;Node1 -->
<g id="edge3" class="edge">
<title>Node4&#45;&gt;Node1</title>
<path fill="none" stroke="#9a32cd" stroke-dasharray="5,2" d="M244.55,-71.68C233.56,-61.88 218.86,-48.98 205.5,-38 197.79,-31.67 188.89,-24.8 181.99,-19.58"/>
<polygon fill="#9a32cd" stroke="#9a32cd" points="242.36,-74.42 252.14,-78.5 247.04,-69.21 242.36,-74.42"/>
<text text-anchor="middle" x="242.5" y="-46.5" font-family="Helvetica,sans-Serif" font-size="10.00"> calls</text>
</g>
</g>
</svg>
