<?xml version="1.0" encoding="UTF-8" standalone="no"?>
<!DOCTYPE svg PUBLIC "-//W3C//DTD SVG 1.1//EN"
 "http://www.w3.org/Graphics/SVG/1.1/DTD/svg11.dtd">
<!-- Generated by graphviz version 2.43.0 (0)
 -->
<!-- Title: overlap_type Pages: 1 -->
<svg width="178pt" height="172pt"
 viewBox="0.00 0.00 177.50 172.00" xmlns="http://www.w3.org/2000/svg" xmlns:xlink="http://www.w3.org/1999/xlink">
<g id="graph0" class="graph" transform="scale(1 1) rotate(0) translate(4 168)">
<title>overlap_type</title>
<polygon fill="white" stroke="transparent" points="-4,4 -4,-168 173.5,-168 173.5,4 -4,4"/>
<!-- Node1 -->
<g id="node1" class="node">
<title>Node1</title>
<g id="a_node1"><a xlink:title="Private type for overlap exchange grid data.">
<polygon fill="#bfbfbf" stroke="black" points="40.5,-0.5 40.5,-19.5 120.5,-19.5 120.5,-0.5 40.5,-0.5"/>
<text text-anchor="middle" x="80.5" y="-7.5" font-family="Helvetica,sans-Serif" font-size="10.00">overlap_type</text>
</a>
</g>
</g>
<!-- Node2 -->
<g id="node2" class="node">
<title>Node2</title>
<g id="a_node2"><a xlink:title=" ">
<polygon fill="white" stroke="#bfbfbf" points="0,-144.5 0,-163.5 79,-163.5 79,-144.5 0,-144.5"/>
<text text-anchor="middle" x="39.5" y="-151.5" font-family="Helvetica,sans-Serif" font-size="10.00">real(r8_kind)</text>
</a>
</g>
</g>
<!-- Node2&#45;&gt;Node1 -->
<g id="edge1" class="edge">
<title>Node2&#45;&gt;Node1</title>
<path fill="none" stroke="#9a32cd" stroke-dasharray="5,2" d="M44.96,-134.11C53.96,-102.93 71.57,-41.93 78.04,-19.52"/>
<polygon fill="#9a32cd" stroke="#9a32cd" points="41.48,-133.54 42.06,-144.12 48.2,-135.48 41.48,-133.54"/>
<text text-anchor="middle" x="80" y="-85" font-family="Helvetica,sans-Serif" font-size="10.00"> di</text>
<text text-anchor="middle" x="80" y="-74" font-family="Helvetica,sans-Serif" font-size="10.00">dj</text>
</g>
<!-- Node3 -->
<g id="node3" class="node">
<title>Node3</title>
<g id="a_node3"><a xlink:title=" ">
<polygon fill="white" stroke="#bfbfbf" points="97,-144.5 97,-163.5 148,-163.5 148,-144.5 97,-144.5"/>
<text text-anchor="middle" x="122.5" y="-151.5" font-family="Helvetica,sans-Serif" font-size="10.00">integer</text>
</a>
</g>
</g>
<!-- Node3&#45;&gt;Node1 -->
<g id="edge2" class="edge">
<title>Node3&#45;&gt;Node1</title>
<path fill="none" stroke="#9a32cd" stroke-dasharray="5,2" d="M117.87,-134.54C112.03,-111.71 101.41,-71.72 90.5,-38 88.53,-31.91 86.03,-25.16 84.02,-19.93"/>
<polygon fill="#9a32cd" stroke="#9a32cd" points="114.49,-135.44 120.34,-144.27 121.27,-133.72 114.49,-135.44"/>
<text text-anchor="middle" x="142" y="-118" font-family="Helvetica,sans-Serif" font-size="10.00"> buffer_pos</text>
<text text-anchor="middle" x="142" y="-107" font-family="Helvetica,sans-Serif" font-size="10.00">count</text>
<text text-anchor="middle" x="142" y="-96" font-family="Helvetica,sans-Serif" font-size="10.00">g</text>
<text text-anchor="middle" x="142" y="-85" font-family="Helvetica,sans-Serif" font-size="10.00">i</text>
<text text-anchor="middle" x="142" y="-74" font-family="Helvetica,sans-Serif" font-size="10.00">j</text>
<text text-anchor="middle" x="142" y="-63" font-family="Helvetica,sans-Serif" font-size="10.00">pe</text>
<text text-anchor="middle" x="142" y="-52" font-family="Helvetica,sans-Serif" font-size="10.00">tile</text>
<text text-anchor="middle" x="142" y="-41" font-family="Helvetica,sans-Serif" font-size="10.00">xloc</text>
</g>
</g>
</svg>
