<?xml version="1.0" encoding="UTF-8" standalone="no"?>
<!DOCTYPE svg PUBLIC "-//W3C//DTD SVG 1.1//EN"
 "http://www.w3.org/Graphics/SVG/1.1/DTD/svg11.dtd">
<!-- Generated by graphviz version 2.43.0 (0)
 -->
<!-- Title: domain_axis_spec Pages: 1 -->
<svg width="142pt" height="128pt"
 viewBox="0.00 0.00 141.50 128.00" xmlns="http://www.w3.org/2000/svg" xmlns:xlink="http://www.w3.org/1999/xlink">
<g id="graph0" class="graph" transform="scale(1 1) rotate(0) translate(4 124)">
<title>domain_axis_spec</title>
<polygon fill="white" stroke="transparent" points="-4,4 -4,-124 137.5,-124 137.5,4 -4,4"/>
<!-- Node1 -->
<g id="node1" class="node">
<title>Node1</title>
<g id="a_node1"><a xlink:title="Used to specify index limits along an axis of a domain.">
<polygon fill="#bfbfbf" stroke="black" points="6,-0.5 6,-19.5 113,-19.5 113,-0.5 6,-0.5"/>
<text text-anchor="middle" x="59.5" y="-7.5" font-family="Helvetica,sans-Serif" font-size="10.00">domain_axis_spec</text>
</a>
</g>
</g>
<!-- Node2 -->
<g id="node2" class="node">
<title>Node2</title>
<g id="a_node2"><a xlink:title=" ">
<polygon fill="white" stroke="#bfbfbf" points="0,-100.5 0,-119.5 49,-119.5 49,-100.5 0,-100.5"/>
<text text-anchor="middle" x="24.5" y="-107.5" font-family="Helvetica,sans-Serif" font-size="10.00">logical</text>
</a>
</g>
</g>
<!-- Node2&#45;&gt;Node1 -->
<g id="edge1" class="edge">
<title>Node2&#45;&gt;Node1</title>
<path fill="none" stroke="#9a32cd" stroke-dasharray="5,2" d="M20.53,-90.08C18.36,-75.15 17.53,-54.22 25.5,-38 29.29,-30.29 36.45,-24.09 43.22,-19.59"/>
<polygon fill="#9a32cd" stroke="#9a32cd" points="17.12,-90.91 22.32,-100.14 24.01,-89.68 17.12,-90.91"/>
<text text-anchor="middle" x="49" y="-57.5" font-family="Helvetica,sans-Serif" font-size="10.00"> is_global</text>
</g>
<!-- Node3 -->
<g id="node3" class="node">
<title>Node3</title>
<g id="a_node3"><a xlink:title=" ">
<polygon fill="white" stroke="#bfbfbf" points="69,-100.5 69,-119.5 120,-119.5 120,-100.5 69,-100.5"/>
<text text-anchor="middle" x="94.5" y="-107.5" font-family="Helvetica,sans-Serif" font-size="10.00">integer</text>
</a>
</g>
</g>
<!-- Node3&#45;&gt;Node1 -->
<g id="edge2" class="edge">
<title>Node3&#45;&gt;Node1</title>
<path fill="none" stroke="#9a32cd" stroke-dasharray="5,2" d="M89.54,-90.36C85.5,-75.89 79.35,-55.42 72.5,-38 70.06,-31.8 66.81,-25.05 64.17,-19.85"/>
<polygon fill="#9a32cd" stroke="#9a32cd" points="86.19,-91.38 92.2,-100.11 92.95,-89.54 86.19,-91.38"/>
<text text-anchor="middle" x="110" y="-74" font-family="Helvetica,sans-Serif" font-size="10.00"> begin</text>
<text text-anchor="middle" x="110" y="-63" font-family="Helvetica,sans-Serif" font-size="10.00">end</text>
<text text-anchor="middle" x="110" y="-52" font-family="Helvetica,sans-Serif" font-size="10.00">max_size</text>
<text text-anchor="middle" x="110" y="-41" font-family="Helvetica,sans-Serif" font-size="10.00">size</text>
</g>
</g>
</svg>
