<?xml version="1.0" encoding="UTF-8" standalone="no"?>
<!DOCTYPE svg PUBLIC "-//W3C//DTD SVG 1.1//EN"
 "http://www.w3.org/Graphics/SVG/1.1/DTD/svg11.dtd">
<!-- Generated by graphviz version 2.43.0 (0)
 -->
<!-- Title: interpolate_type Pages: 1 -->
<svg width="1122pt" height="1305pt"
 viewBox="0.00 0.00 1122.00 1305.15" xmlns="http://www.w3.org/2000/svg" xmlns:xlink="http://www.w3.org/1999/xlink">
<g id="graph0" class="graph" transform="scale(1 1) rotate(0) translate(4 1301.15)">
<title>interpolate_type</title>
<polygon fill="white" stroke="transparent" points="-4,4 -4,-1301.15 1118,-1301.15 1118,4 -4,4"/>
<!-- Node1 -->
<g id="node1" class="node">
<title>Node1</title>
<g id="a_node1"><a xlink:title="Redundant climatology data between fields.">
<polygon fill="#bfbfbf" stroke="black" points="1017,-246.65 1017,-265.65 1114,-265.65 1114,-246.65 1017,-246.65"/>
<text text-anchor="middle" x="1065.5" y="-253.65" font-family="Helvetica,sans-Serif" font-size="10.00">interpolate_type</text>
</a>
</g>
</g>
<!-- Node2 -->
<g id="node2" class="node">
<title>Node2</title>
<g id="a_node2"><a xlink:title=" ">
<polygon fill="white" stroke="#bfbfbf" points="52,-413.65 52,-432.65 101,-432.65 101,-413.65 52,-413.65"/>
<text text-anchor="middle" x="76.5" y="-420.65" font-family="Helvetica,sans-Serif" font-size="10.00">logical</text>
</a>
</g>
</g>
<!-- Node2&#45;&gt;Node1 -->
<g id="edge1" class="edge">
<title>Node2&#45;&gt;Node1</title>
<path fill="none" stroke="#9a32cd" stroke-dasharray="5,2" d="M93.89,-406.1C125.75,-374.21 199.69,-306.06 277,-276.15 357.43,-245.03 383.76,-256.15 470,-256.15 470,-256.15 470,-256.15 871.5,-256.15 921.09,-256.15 977.85,-256.15 1016.91,-256.15"/>
<polygon fill="#9a32cd" stroke="#9a32cd" points="91.25,-403.8 86.72,-413.38 96.23,-408.71 91.25,-403.8"/>
<text text-anchor="middle" x="622" y="-281.15" font-family="Helvetica,sans-Serif" font-size="10.00"> climatological_year</text>
<text text-anchor="middle" x="622" y="-270.15" font-family="Helvetica,sans-Serif" font-size="10.00">has_level</text>
<text text-anchor="middle" x="622" y="-259.15" font-family="Helvetica,sans-Serif" font-size="10.00">separate_time_vary_calc</text>
</g>
<!-- Node5 -->
<g id="node5" class="node">
<title>Node5</title>
<g id="a_node5"><a xlink:href="group__netcdf__io__mod.html#structnetcdf__io__mod_1_1fmsnetcdffile__t" target="_top" xlink:title="Netcdf file type.">
<polygon fill="white" stroke="black" points="825.5,-817.65 825.5,-836.65 915.5,-836.65 915.5,-817.65 825.5,-817.65"/>
<text text-anchor="middle" x="870.5" y="-824.65" font-family="Helvetica,sans-Serif" font-size="10.00">fmsnetcdffile_t</text>
</a>
</g>
</g>
<!-- Node2&#45;&gt;Node5 -->
<g id="edge5" class="edge">
<title>Node2&#45;&gt;Node5</title>
<path fill="none" stroke="#9a32cd" stroke-dasharray="5,2" d="M111.34,-428.25C161.07,-436.07 249.12,-451.26 259,-462.15 306.18,-514.17 226.05,-570.8 277,-619.15 297.92,-638.99 508.39,-626.85 536,-635.15 674.2,-676.69 816.61,-784.82 857.74,-817.59"/>
<polygon fill="#9a32cd" stroke="#9a32cd" points="111.77,-424.78 101.35,-426.7 110.69,-431.69 111.77,-424.78"/>
<text text-anchor="middle" x="471" y="-704.15" font-family="Helvetica,sans-Serif" font-size="10.00"> is_diskless</text>
<text text-anchor="middle" x="471" y="-693.15" font-family="Helvetica,sans-Serif" font-size="10.00">is_netcdf4</text>
<text text-anchor="middle" x="471" y="-682.15" font-family="Helvetica,sans-Serif" font-size="10.00">is_open</text>
<text text-anchor="middle" x="471" y="-671.15" font-family="Helvetica,sans-Serif" font-size="10.00">is_readonly</text>
<text text-anchor="middle" x="471" y="-660.15" font-family="Helvetica,sans-Serif" font-size="10.00">is_restart</text>
<text text-anchor="middle" x="471" y="-649.15" font-family="Helvetica,sans-Serif" font-size="10.00">is_root</text>
<text text-anchor="middle" x="471" y="-638.15" font-family="Helvetica,sans-Serif" font-size="10.00">mode_is_append</text>
</g>
<!-- Node10 -->
<g id="node10" class="node">
<title>Node10</title>
<g id="a_node10"><a xlink:href="group__netcdf__io__mod.html#structnetcdf__io__mod_1_1restartvariable__t" target="_top" xlink:title="Restart variable.">
<polygon fill="white" stroke="black" points="573,-502.65 573,-521.65 671,-521.65 671,-502.65 573,-502.65"/>
<text text-anchor="middle" x="622" y="-509.65" font-family="Helvetica,sans-Serif" font-size="10.00">restartvariable_t</text>
</a>
</g>
</g>
<!-- Node2&#45;&gt;Node10 -->
<g id="edge14" class="edge">
<title>Node2&#45;&gt;Node10</title>
<path fill="none" stroke="#9a32cd" stroke-dasharray="5,2" d="M110.87,-415.13C150.95,-407.63 217.91,-402.22 259,-437.15 284.79,-459.07 250.96,-489.52 277,-511.15 321.17,-547.84 348.6,-516.59 406,-518.15 463.76,-519.71 478.26,-520.18 536,-518.15 547.98,-517.73 560.88,-516.97 572.93,-516.13"/>
<polygon fill="#9a32cd" stroke="#9a32cd" points="110.16,-411.7 101.05,-417.11 111.55,-418.56 110.16,-411.7"/>
<text text-anchor="middle" x="332.5" y="-542.15" font-family="Helvetica,sans-Serif" font-size="10.00"> is_bc_variable</text>
<text text-anchor="middle" x="332.5" y="-531.15" font-family="Helvetica,sans-Serif" font-size="10.00">was_read</text>
</g>
<!-- Node17 -->
<g id="node17" class="node">
<title>Node17</title>
<g id="a_node17"><a xlink:href="group__netcdf__io__mod.html#structnetcdf__io__mod_1_1bc__information" target="_top" xlink:title="information needed fr regional restart variables">
<polygon fill="white" stroke="black" points="287.5,-728.65 287.5,-747.65 377.5,-747.65 377.5,-728.65 287.5,-728.65"/>
<text text-anchor="middle" x="332.5" y="-735.65" font-family="Helvetica,sans-Serif" font-size="10.00">bc_information</text>
</a>
</g>
</g>
<!-- Node2&#45;&gt;Node17 -->
<g id="edge23" class="edge">
<title>Node2&#45;&gt;Node17</title>
<path fill="none" stroke="#9a32cd" stroke-dasharray="5,2" d="M109.69,-436.57C127.57,-443.76 150.32,-452.49 171,-459.15 209.48,-471.54 232.64,-451.5 259,-482.15 283.77,-510.95 264.5,-616.27 277,-652.15 287.64,-682.7 310.92,-713.52 323.33,-728.61"/>
<polygon fill="#9a32cd" stroke="#9a32cd" points="110.88,-433.27 100.3,-432.75 108.25,-439.76 110.88,-433.27"/>
<text text-anchor="middle" x="215" y="-496.15" font-family="Helvetica,sans-Serif" font-size="10.00"> data_on_file_root</text>
<text text-anchor="middle" x="215" y="-485.15" font-family="Helvetica,sans-Serif" font-size="10.00">is_root_pe</text>
</g>
<!-- Node23 -->
<g id="node23" class="node">
<title>Node23</title>
<g id="a_node23"><a xlink:href="group__horiz__interp__type__mod.html#structhoriz__interp__type__mod_1_1horiz__interp__type" target="_top" xlink:title=" ">
<polygon fill="white" stroke="black" points="282,-204.65 282,-223.65 383,-223.65 383,-204.65 282,-204.65"/>
<text text-anchor="middle" x="332.5" y="-211.65" font-family="Helvetica,sans-Serif" font-size="10.00">horiz_interp_type</text>
</a>
</g>
</g>
<!-- Node2&#45;&gt;Node23 -->
<g id="edge32" class="edge">
<title>Node2&#45;&gt;Node23</title>
<path fill="none" stroke="#9a32cd" stroke-dasharray="5,2" d="M80.58,-403.52C88.02,-363.35 111.01,-272.04 171,-230.15 188.39,-218.01 241.41,-214.63 281.8,-213.9"/>
<polygon fill="#9a32cd" stroke="#9a32cd" points="77.13,-402.96 78.88,-413.41 84.02,-404.15 77.13,-402.96"/>
<text text-anchor="middle" x="215" y="-244.15" font-family="Helvetica,sans-Serif" font-size="10.00"> found_neighbors</text>
<text text-anchor="middle" x="215" y="-233.15" font-family="Helvetica,sans-Serif" font-size="10.00">i_am_initialized</text>
</g>
<!-- Node3 -->
<g id="node3" class="node">
<title>Node3</title>
<g id="a_node3"><a xlink:href="group__time__manager__mod.html#structtime__manager__mod_1_1time__type" target="_top" xlink:title="Type to represent amounts of time. Implemented as seconds and days to allow for larger intervals.">
<polygon fill="white" stroke="black" points="438,-1238.65 438,-1257.65 504,-1257.65 504,-1238.65 438,-1238.65"/>
<text text-anchor="middle" x="471" y="-1245.65" font-family="Helvetica,sans-Serif" font-size="10.00">time_type</text>
</a>
</g>
</g>
<!-- Node3&#45;&gt;Node1 -->
<g id="edge2" class="edge">
<title>Node3&#45;&gt;Node1</title>
<path fill="none" stroke="#9a32cd" stroke-dasharray="5,2" d="M500.78,-1261.96C516.18,-1268.59 535.7,-1275.8 554,-1279.15 613.46,-1290.01 630.45,-1289.52 690,-1279.15 833.76,-1254.11 910.83,-1284.42 999,-1168.15 1056.49,-1092.34 1063.75,-358.63 1064.44,-265.79"/>
<polygon fill="#9a32cd" stroke="#9a32cd" points="501.87,-1258.61 491.31,-1257.73 499.02,-1265 501.87,-1258.61"/>
<text text-anchor="middle" x="754" y="-1289.15" font-family="Helvetica,sans-Serif" font-size="10.00"> clim_times</text>
<text text-anchor="middle" x="754" y="-1278.15" font-family="Helvetica,sans-Serif" font-size="10.00">time_slice</text>
</g>
<!-- Node4 -->
<g id="node4" class="node">
<title>Node4</title>
<g id="a_node4"><a xlink:title=" ">
<polygon fill="white" stroke="#bfbfbf" points="51,-1066.65 51,-1085.65 102,-1085.65 102,-1066.65 51,-1066.65"/>
<text text-anchor="middle" x="76.5" y="-1073.65" font-family="Helvetica,sans-Serif" font-size="10.00">integer</text>
</a>
</g>
</g>
<!-- Node4&#45;&gt;Node1 -->
<g id="edge36" class="edge">
<title>Node4&#45;&gt;Node1</title>
<path fill="none" stroke="#9a32cd" stroke-dasharray="5,2" d="M104.6,-1090.34C150.16,-1112.83 245.55,-1154.15 331.5,-1154.15 331.5,-1154.15 331.5,-1154.15 871.5,-1154.15 1063.05,-1154.15 1065.05,-363.25 1064.57,-265.93"/>
<polygon fill="#9a32cd" stroke="#9a32cd" points="105.91,-1087.08 95.4,-1085.71 102.76,-1093.33 105.91,-1087.08"/>
<text text-anchor="middle" x="622" y="-1267.15" font-family="Helvetica,sans-Serif" font-size="10.00"> climatology</text>
<text text-anchor="middle" x="622" y="-1256.15" font-family="Helvetica,sans-Serif" font-size="10.00">ie</text>
<text text-anchor="middle" x="622" y="-1245.15" font-family="Helvetica,sans-Serif" font-size="10.00">indexm</text>
<text text-anchor="middle" x="622" y="-1234.15" font-family="Helvetica,sans-Serif" font-size="10.00">indexp</text>
<text text-anchor="middle" x="622" y="-1223.15" font-family="Helvetica,sans-Serif" font-size="10.00">is</text>
<text text-anchor="middle" x="622" y="-1212.15" font-family="Helvetica,sans-Serif" font-size="10.00">itaum</text>
<text text-anchor="middle" x="622" y="-1201.15" font-family="Helvetica,sans-Serif" font-size="10.00">itaup</text>
<text text-anchor="middle" x="622" y="-1190.15" font-family="Helvetica,sans-Serif" font-size="10.00">je</text>
<text text-anchor="middle" x="622" y="-1179.15" font-family="Helvetica,sans-Serif" font-size="10.00">js</text>
<text text-anchor="middle" x="622" y="-1168.15" font-family="Helvetica,sans-Serif" font-size="10.00">level_type</text>
<text text-anchor="middle" x="622" y="-1157.15" font-family="Helvetica,sans-Serif" font-size="10.00">...</text>
</g>
<!-- Node4&#45;&gt;Node3 -->
<g id="edge3" class="edge">
<title>Node4&#45;&gt;Node3</title>
<path fill="none" stroke="#9a32cd" stroke-dasharray="5,2" d="M90.76,-1093.91C107.28,-1114.77 137.44,-1148.96 171,-1168.15 259.4,-1218.69 380.76,-1238.24 437.85,-1244.99"/>
<polygon fill="#9a32cd" stroke="#9a32cd" points="93.43,-1091.64 84.55,-1085.86 87.89,-1095.92 93.43,-1091.64"/>
<text text-anchor="middle" x="215" y="-1229.15" font-family="Helvetica,sans-Serif" font-size="10.00"> days</text>
<text text-anchor="middle" x="215" y="-1218.15" font-family="Helvetica,sans-Serif" font-size="10.00">seconds</text>
<text text-anchor="middle" x="215" y="-1207.15" font-family="Helvetica,sans-Serif" font-size="10.00">ticks</text>
</g>
<!-- Node4&#45;&gt;Node5 -->
<g id="edge30" class="edge">
<title>Node4&#45;&gt;Node5</title>
<path fill="none" stroke="#9a32cd" stroke-dasharray="5,2" d="M111.85,-1084.82C170.25,-1097.95 291.89,-1118.22 388,-1087.15 397.39,-1084.11 397.21,-1078.63 406,-1074.15 570.2,-990.54 656.43,-1060.64 800,-945.15 837.42,-915.04 859.06,-858.98 866.52,-836.67"/>
<polygon fill="#9a32cd" stroke="#9a32cd" points="112.57,-1081.4 102.04,-1082.55 110.99,-1088.22 112.57,-1081.4"/>
<text text-anchor="middle" x="471" y="-1132.15" font-family="Helvetica,sans-Serif" font-size="10.00"> io_root</text>
<text text-anchor="middle" x="471" y="-1121.15" font-family="Helvetica,sans-Serif" font-size="10.00">ncid</text>
<text text-anchor="start" x="427.5" y="-1110.15" font-family="Helvetica,sans-Serif" font-size="10.00">num_compressed</text>
<text text-anchor="middle" x="471" y="-1099.15" font-family="Helvetica,sans-Serif" font-size="10.00">_dims</text>
<text text-anchor="middle" x="471" y="-1088.15" font-family="Helvetica,sans-Serif" font-size="10.00">num_restart_vars</text>
<text text-anchor="middle" x="471" y="-1077.15" font-family="Helvetica,sans-Serif" font-size="10.00">pelist</text>
</g>
<!-- Node8 -->
<g id="node8" class="node">
<title>Node8</title>
<g id="a_node8"><a xlink:href="group__netcdf__io__mod.html#structnetcdf__io__mod_1_1compresseddimension__t" target="_top" xlink:title="Compressed dimension.">
<polygon fill="white" stroke="black" points="554,-923.65 554,-942.65 690,-942.65 690,-923.65 554,-923.65"/>
<text text-anchor="middle" x="622" y="-930.65" font-family="Helvetica,sans-Serif" font-size="10.00">compresseddimension_t</text>
</a>
</g>
</g>
<!-- Node4&#45;&gt;Node8 -->
<g id="edge10" class="edge">
<title>Node4&#45;&gt;Node8</title>
<path fill="none" stroke="#9a32cd" stroke-dasharray="5,2" d="M112.55,-1076.95C149.53,-1076.98 209.22,-1074.73 259,-1062.15 267.49,-1060 268.86,-1057.38 277,-1054.15 391.73,-1008.56 531.27,-962.22 591.26,-942.72"/>
<polygon fill="#9a32cd" stroke="#9a32cd" points="112.32,-1073.45 102.29,-1076.88 112.27,-1080.45 112.32,-1073.45"/>
<text text-anchor="middle" x="332.5" y="-1079.15" font-family="Helvetica,sans-Serif" font-size="10.00"> nelems</text>
<text text-anchor="middle" x="332.5" y="-1068.15" font-family="Helvetica,sans-Serif" font-size="10.00">npes_corner</text>
<text text-anchor="middle" x="332.5" y="-1057.15" font-family="Helvetica,sans-Serif" font-size="10.00">npes_nelems</text>
</g>
<!-- Node9 -->
<g id="node9" class="node">
<title>Node9</title>
<g id="a_node9"><a xlink:href="group__netcdf__io__mod.html#structnetcdf__io__mod_1_1dimension__information" target="_top" xlink:title="information about the current dimensions for regional restart variables">
<polygon fill="white" stroke="black" points="406,-857.65 406,-876.65 536,-876.65 536,-857.65 406,-857.65"/>
<text text-anchor="middle" x="471" y="-864.65" font-family="Helvetica,sans-Serif" font-size="10.00">dimension_information</text>
</a>
</g>
</g>
<!-- Node4&#45;&gt;Node9 -->
<g id="edge12" class="edge">
<title>Node4&#45;&gt;Node9</title>
<path fill="none" stroke="#9a32cd" stroke-dasharray="5,2" d="M85.23,-1057.34C98.35,-1027.85 127.8,-971.05 171,-941.15 173.77,-939.23 402.73,-882.94 406,-882.15 413.43,-880.34 421.36,-878.46 429.01,-876.65"/>
<polygon fill="#9a32cd" stroke="#9a32cd" points="82.01,-1055.97 81.28,-1066.54 88.44,-1058.73 82.01,-1055.97"/>
<text text-anchor="middle" x="215" y="-1054.15" font-family="Helvetica,sans-Serif" font-size="10.00"> cur_dim_len</text>
<text text-anchor="middle" x="215" y="-1043.15" font-family="Helvetica,sans-Serif" font-size="10.00">dimension</text>
<text text-anchor="middle" x="215" y="-1032.15" font-family="Helvetica,sans-Serif" font-size="10.00">each</text>
<text text-anchor="middle" x="215" y="-1021.15" font-family="Helvetica,sans-Serif" font-size="10.00">number</text>
<text text-anchor="middle" x="215" y="-1010.15" font-family="Helvetica,sans-Serif" font-size="10.00">of</text>
<text text-anchor="middle" x="215" y="-999.15" font-family="Helvetica,sans-Serif" font-size="10.00">size</text>
<text text-anchor="middle" x="215" y="-988.15" font-family="Helvetica,sans-Serif" font-size="10.00">the</text>
<text text-anchor="middle" x="215" y="-977.15" font-family="Helvetica,sans-Serif" font-size="10.00">unique</text>
<text text-anchor="middle" x="215" y="-966.15" font-family="Helvetica,sans-Serif" font-size="10.00">x</text>
<text text-anchor="middle" x="215" y="-955.15" font-family="Helvetica,sans-Serif" font-size="10.00">xlen</text>
<text text-anchor="middle" x="215" y="-944.15" font-family="Helvetica,sans-Serif" font-size="10.00">...</text>
</g>
<!-- Node4&#45;&gt;Node17 -->
<g id="edge27" class="edge">
<title>Node4&#45;&gt;Node17</title>
<path fill="none" stroke="#9a32cd" stroke-dasharray="5,2" d="M79.44,-1056.34C84.95,-1011.1 104.88,-899.59 171,-841.15 201.29,-814.37 228,-844.1 259,-818.15 273.64,-805.89 265.01,-794 277,-779.15 287.49,-766.16 302.95,-755.04 314.74,-747.67"/>
<polygon fill="#9a32cd" stroke="#9a32cd" points="75.95,-1056.02 78.33,-1066.34 82.91,-1056.79 75.95,-1056.02"/>
<text text-anchor="middle" x="215" y="-910.15" font-family="Helvetica,sans-Serif" font-size="10.00"> global_size</text>
<text text-anchor="middle" x="215" y="-899.15" font-family="Helvetica,sans-Serif" font-size="10.00">indices</text>
<text text-anchor="middle" x="215" y="-888.15" font-family="Helvetica,sans-Serif" font-size="10.00">ishift</text>
<text text-anchor="middle" x="215" y="-877.15" font-family="Helvetica,sans-Serif" font-size="10.00">jshift</text>
<text text-anchor="middle" x="215" y="-866.15" font-family="Helvetica,sans-Serif" font-size="10.00">pelist</text>
<text text-anchor="middle" x="215" y="-855.15" font-family="Helvetica,sans-Serif" font-size="10.00">x_halo</text>
<text text-anchor="middle" x="215" y="-844.15" font-family="Helvetica,sans-Serif" font-size="10.00">y_halo</text>
</g>
<!-- Node4&#45;&gt;Node23 -->
<g id="edge33" class="edge">
<title>Node4&#45;&gt;Node23</title>
<path fill="none" stroke="#9a32cd" stroke-dasharray="5,2" d="M86.04,-1057.09C102.42,-1019.53 137.94,-932.94 153,-856.15 159.79,-821.53 150.37,-567.77 171,-539.15 195.61,-505 234.02,-538.02 259,-504.15 289.17,-463.25 257.21,-322.96 277,-276.15 286.15,-254.5 305.94,-235.14 318.99,-224.03"/>
<polygon fill="#9a32cd" stroke="#9a32cd" points="82.8,-1055.77 81.96,-1066.33 89.2,-1058.59 82.8,-1055.77"/>
<text text-anchor="middle" x="215" y="-652.15" font-family="Helvetica,sans-Serif" font-size="10.00"> i_dst</text>
<text text-anchor="middle" x="215" y="-641.15" font-family="Helvetica,sans-Serif" font-size="10.00">i_lon</text>
<text text-anchor="middle" x="215" y="-630.15" font-family="Helvetica,sans-Serif" font-size="10.00">i_src</text>
<text text-anchor="middle" x="215" y="-619.15" font-family="Helvetica,sans-Serif" font-size="10.00">ilon</text>
<text text-anchor="middle" x="215" y="-608.15" font-family="Helvetica,sans-Serif" font-size="10.00">interp_method</text>
<text text-anchor="middle" x="215" y="-597.15" font-family="Helvetica,sans-Serif" font-size="10.00">j_dst</text>
<text text-anchor="middle" x="215" y="-586.15" font-family="Helvetica,sans-Serif" font-size="10.00">j_lat</text>
<text text-anchor="middle" x="215" y="-575.15" font-family="Helvetica,sans-Serif" font-size="10.00">j_src</text>
<text text-anchor="middle" x="215" y="-564.15" font-family="Helvetica,sans-Serif" font-size="10.00">jlat</text>
<text text-anchor="middle" x="215" y="-553.15" font-family="Helvetica,sans-Serif" font-size="10.00">nlat_dst</text>
<text text-anchor="middle" x="215" y="-542.15" font-family="Helvetica,sans-Serif" font-size="10.00">...</text>
</g>
<!-- Node5&#45;&gt;Node1 -->
<g id="edge4" class="edge">
<title>Node5&#45;&gt;Node1</title>
<path fill="none" stroke="#9a32cd" stroke-dasharray="5,2" d="M878.12,-807.57C909.05,-716.04 1038.84,-332.08 1061.21,-265.89"/>
<polygon fill="#9a32cd" stroke="#9a32cd" points="874.74,-806.64 874.85,-817.24 881.37,-808.88 874.74,-806.64"/>
<text text-anchor="middle" x="970" y="-612.15" font-family="Helvetica,sans-Serif" font-size="10.00"> fileobj</text>
</g>
<!-- Node6 -->
<g id="node6" class="node">
<title>Node6</title>
<g id="a_node6"><a xlink:title=" ">
<polygon fill="white" stroke="#bfbfbf" points="277,-788.65 277,-807.65 388,-807.65 388,-788.65 277,-788.65"/>
<text text-anchor="middle" x="332.5" y="-795.65" font-family="Helvetica,sans-Serif" font-size="10.00">character(len=256)</text>
</a>
</g>
</g>
<!-- Node6&#45;&gt;Node5 -->
<g id="edge6" class="edge">
<title>Node6&#45;&gt;Node5</title>
<path fill="none" stroke="#9a32cd" stroke-dasharray="5,2" d="M398.36,-801.66C508.93,-807.64 731.07,-819.66 825.46,-824.77"/>
<polygon fill="#9a32cd" stroke="#9a32cd" points="398.52,-798.16 388.34,-801.12 398.14,-805.15 398.52,-798.16"/>
<text text-anchor="middle" x="622" y="-831.15" font-family="Helvetica,sans-Serif" font-size="10.00"> nc_format</text>
<text text-anchor="middle" x="622" y="-820.15" font-family="Helvetica,sans-Serif" font-size="10.00">path</text>
</g>
<!-- Node6&#45;&gt;Node8 -->
<g id="edge9" class="edge">
<title>Node6&#45;&gt;Node8</title>
<path fill="none" stroke="#9a32cd" stroke-dasharray="5,2" d="M343.72,-816.83C355.84,-837.16 377.98,-869.03 406,-886.15 450.67,-913.44 509.1,-924.98 553.77,-929.81"/>
<polygon fill="#9a32cd" stroke="#9a32cd" points="346.6,-814.83 338.59,-807.89 340.53,-818.31 346.6,-814.83"/>
<text text-anchor="middle" x="471" y="-930.15" font-family="Helvetica,sans-Serif" font-size="10.00"> dimname</text>
</g>
<!-- Node6&#45;&gt;Node10 -->
<g id="edge19" class="edge">
<title>Node6&#45;&gt;Node10</title>
<path fill="none" stroke="#9a32cd" stroke-dasharray="5,2" d="M367.67,-785.13C379.66,-780.89 393.31,-776.44 406,-773.15 462.8,-758.43 491.18,-788.01 536,-750.15 609.4,-688.14 619.42,-558.05 620.79,-521.74"/>
<polygon fill="#9a32cd" stroke="#9a32cd" points="366.25,-781.92 358.04,-788.61 368.63,-788.5 366.25,-781.92"/>
<text text-anchor="middle" x="471" y="-776.15" font-family="Helvetica,sans-Serif" font-size="10.00"> varname</text>
</g>
<!-- Node7 -->
<g id="node7" class="node">
<title>Node7</title>
<g id="a_node7"><a xlink:title=" ">
<polygon fill="white" stroke="#bfbfbf" points="569.5,-885.65 569.5,-904.65 674.5,-904.65 674.5,-885.65 569.5,-885.65"/>
<text text-anchor="middle" x="622" y="-892.65" font-family="Helvetica,sans-Serif" font-size="10.00">character(len=20)</text>
</a>
</g>
</g>
<!-- Node7&#45;&gt;Node5 -->
<g id="edge7" class="edge">
<title>Node7&#45;&gt;Node5</title>
<path fill="none" stroke="#9a32cd" stroke-dasharray="5,2" d="M684.71,-892.68C719.42,-889.77 763.08,-883.51 800,-870.15 821.88,-862.23 844.25,-846.81 857.5,-836.75"/>
<polygon fill="#9a32cd" stroke="#9a32cd" points="684.4,-889.2 674.7,-893.45 684.94,-896.18 684.4,-889.2"/>
<text text-anchor="middle" x="754" y="-892.15" font-family="Helvetica,sans-Serif" font-size="10.00"> time_name</text>
</g>
<!-- Node8&#45;&gt;Node5 -->
<g id="edge8" class="edge">
<title>Node8&#45;&gt;Node5</title>
<path fill="none" stroke="#9a32cd" stroke-dasharray="5,2" d="M700.63,-931.63C732.97,-928.23 769.91,-920.57 800,-904.15 829.88,-887.85 853.52,-853.65 863.85,-836.86"/>
<polygon fill="#9a32cd" stroke="#9a32cd" points="699.94,-928.18 690.31,-932.59 700.59,-935.14 699.94,-928.18"/>
<text text-anchor="middle" x="754" y="-933.15" font-family="Helvetica,sans-Serif" font-size="10.00"> compressed_dims</text>
</g>
<!-- Node9&#45;&gt;Node5 -->
<g id="edge11" class="edge">
<title>Node9&#45;&gt;Node5</title>
<path fill="none" stroke="#9a32cd" stroke-dasharray="5,2" d="M546.32,-859.67C628.4,-851.41 757.85,-838.38 825.3,-831.6"/>
<polygon fill="#9a32cd" stroke="#9a32cd" points="545.91,-856.19 536.31,-860.68 546.61,-863.16 545.91,-856.19"/>
<text text-anchor="middle" x="622" y="-861.15" font-family="Helvetica,sans-Serif" font-size="10.00"> bc_dimensions</text>
</g>
<!-- Node10&#45;&gt;Node5 -->
<g id="edge13" class="edge">
<title>Node10&#45;&gt;Node5</title>
<path fill="none" stroke="#9a32cd" stroke-dasharray="5,2" d="M662.68,-525.11C702.8,-540.17 763.89,-568.79 800,-613.15 853.01,-678.29 866,-784.96 868.8,-817.45"/>
<polygon fill="#9a32cd" stroke="#9a32cd" points="663.8,-521.8 653.21,-521.66 661.41,-528.37 663.8,-521.8"/>
<text text-anchor="middle" x="754" y="-616.15" font-family="Helvetica,sans-Serif" font-size="10.00"> restart_vars</text>
</g>
<!-- Node11 -->
<g id="node11" class="node">
<title>Node11</title>
<g id="a_node11"><a xlink:title=" ">
<polygon fill="white" stroke="#bfbfbf" points="277,-471.15 277,-501.15 388,-501.15 388,-471.15 277,-471.15"/>
<text text-anchor="start" x="285" y="-489.15" font-family="Helvetica,sans-Serif" font-size="10.00">class(*), dimension</text>
<text text-anchor="middle" x="332.5" y="-478.15" font-family="Helvetica,sans-Serif" font-size="10.00">(:,:,:), pointer</text>
</a>
</g>
</g>
<!-- Node11&#45;&gt;Node10 -->
<g id="edge15" class="edge">
<title>Node11&#45;&gt;Node10</title>
<path fill="none" stroke="#9a32cd" stroke-dasharray="5,2" d="M398.21,-492C451.13,-496.79 524.78,-503.45 572.66,-507.78"/>
<polygon fill="#9a32cd" stroke="#9a32cd" points="398.53,-488.51 388.25,-491.1 397.9,-495.49 398.53,-488.51"/>
<text text-anchor="middle" x="471" y="-506.15" font-family="Helvetica,sans-Serif" font-size="10.00"> data3d</text>
</g>
<!-- Node12 -->
<g id="node12" class="node">
<title>Node12</title>
<g id="a_node12"><a xlink:title=" ">
<polygon fill="white" stroke="#bfbfbf" points="277,-422.15 277,-452.15 388,-452.15 388,-422.15 277,-422.15"/>
<text text-anchor="start" x="285" y="-440.15" font-family="Helvetica,sans-Serif" font-size="10.00">class(*), dimension</text>
<text text-anchor="middle" x="332.5" y="-429.15" font-family="Helvetica,sans-Serif" font-size="10.00">(:,:), pointer</text>
</a>
</g>
</g>
<!-- Node12&#45;&gt;Node10 -->
<g id="edge16" class="edge">
<title>Node12&#45;&gt;Node10</title>
<path fill="none" stroke="#9a32cd" stroke-dasharray="5,2" d="M398.29,-446.63C438.42,-453.31 490.77,-463.51 536,-477.15 558.77,-484.01 583.83,-494.74 600.8,-502.51"/>
<polygon fill="#9a32cd" stroke="#9a32cd" points="398.79,-443.16 388.36,-445 397.66,-450.07 398.79,-443.16"/>
<text text-anchor="middle" x="471" y="-480.15" font-family="Helvetica,sans-Serif" font-size="10.00"> data2d</text>
</g>
<!-- Node13 -->
<g id="node13" class="node">
<title>Node13</title>
<g id="a_node13"><a xlink:title=" ">
<polygon fill="white" stroke="#bfbfbf" points="277,-373.15 277,-403.15 388,-403.15 388,-373.15 277,-373.15"/>
<text text-anchor="start" x="285" y="-391.15" font-family="Helvetica,sans-Serif" font-size="10.00">class(*), dimension</text>
<text text-anchor="middle" x="332.5" y="-380.15" font-family="Helvetica,sans-Serif" font-size="10.00">(:,:,:,:,:), pointer</text>
</a>
</g>
</g>
<!-- Node13&#45;&gt;Node10 -->
<g id="edge17" class="edge">
<title>Node13&#45;&gt;Node10</title>
<path fill="none" stroke="#9a32cd" stroke-dasharray="5,2" d="M398.19,-393.25C439.52,-398.62 493.21,-409.62 536,-432.15 570.07,-450.08 600.39,-485.46 613.76,-502.51"/>
<polygon fill="#9a32cd" stroke="#9a32cd" points="398.58,-389.77 388.22,-392.04 397.73,-396.72 398.58,-389.77"/>
<text text-anchor="middle" x="471" y="-435.15" font-family="Helvetica,sans-Serif" font-size="10.00"> data5d</text>
</g>
<!-- Node14 -->
<g id="node14" class="node">
<title>Node14</title>
<g id="a_node14"><a xlink:title=" ">
<polygon fill="white" stroke="#bfbfbf" points="285,-334.65 285,-353.65 380,-353.65 380,-334.65 285,-334.65"/>
<text text-anchor="middle" x="332.5" y="-341.65" font-family="Helvetica,sans-Serif" font-size="10.00">class(*), pointer</text>
</a>
</g>
</g>
<!-- Node14&#45;&gt;Node10 -->
<g id="edge18" class="edge">
<title>Node14&#45;&gt;Node10</title>
<path fill="none" stroke="#9a32cd" stroke-dasharray="5,2" d="M390.09,-342.02C433.39,-343.05 492.81,-350.44 536,-379.15 583.01,-410.4 609.4,-477.48 617.92,-502.49"/>
<polygon fill="#9a32cd" stroke="#9a32cd" points="390.05,-338.52 380,-341.89 389.95,-345.52 390.05,-338.52"/>
<text text-anchor="middle" x="471" y="-382.15" font-family="Helvetica,sans-Serif" font-size="10.00"> data0d</text>
</g>
<!-- Node15 -->
<g id="node15" class="node">
<title>Node15</title>
<g id="a_node15"><a xlink:title=" ">
<polygon fill="white" stroke="#bfbfbf" points="277,-285.15 277,-315.15 388,-315.15 388,-285.15 277,-285.15"/>
<text text-anchor="start" x="285" y="-303.15" font-family="Helvetica,sans-Serif" font-size="10.00">class(*), dimension</text>
<text text-anchor="middle" x="332.5" y="-292.15" font-family="Helvetica,sans-Serif" font-size="10.00">(:,:,:,:), pointer</text>
</a>
</g>
</g>
<!-- Node15&#45;&gt;Node10 -->
<g id="edge20" class="edge">
<title>Node15&#45;&gt;Node10</title>
<path fill="none" stroke="#9a32cd" stroke-dasharray="5,2" d="M398.31,-293.52C441.29,-292.53 496.78,-298.17 536,-327.15 596.84,-372.1 615.36,-471.17 619.8,-502.47"/>
<polygon fill="#9a32cd" stroke="#9a32cd" points="398.1,-290.02 388.23,-293.88 398.34,-297.02 398.1,-290.02"/>
<text text-anchor="middle" x="471" y="-330.15" font-family="Helvetica,sans-Serif" font-size="10.00"> data4d</text>
</g>
<!-- Node16 -->
<g id="node16" class="node">
<title>Node16</title>
<g id="a_node16"><a xlink:title=" ">
<polygon fill="white" stroke="#bfbfbf" points="277,-579.15 277,-609.15 388,-609.15 388,-579.15 277,-579.15"/>
<text text-anchor="start" x="285" y="-597.15" font-family="Helvetica,sans-Serif" font-size="10.00">class(*), dimension</text>
<text text-anchor="middle" x="332.5" y="-586.15" font-family="Helvetica,sans-Serif" font-size="10.00">(:), pointer</text>
</a>
</g>
</g>
<!-- Node16&#45;&gt;Node10 -->
<g id="edge21" class="edge">
<title>Node16&#45;&gt;Node10</title>
<path fill="none" stroke="#9a32cd" stroke-dasharray="5,2" d="M398.1,-584.74C438.38,-577.9 490.95,-567.19 536,-552.15 560.44,-543.99 587.09,-530.66 603.91,-521.66"/>
<polygon fill="#9a32cd" stroke="#9a32cd" points="397.43,-581.3 388.13,-586.4 398.57,-588.21 397.43,-581.3"/>
<text text-anchor="middle" x="471" y="-586.15" font-family="Helvetica,sans-Serif" font-size="10.00"> data1d</text>
</g>
<!-- Node17&#45;&gt;Node10 -->
<g id="edge22" class="edge">
<title>Node17&#45;&gt;Node10</title>
<path fill="none" stroke="#9a32cd" stroke-dasharray="5,2" d="M387.71,-738.34C439.62,-737.47 513.3,-733.12 536,-716.15 602.37,-666.52 617.25,-555.41 620.28,-521.9"/>
<polygon fill="#9a32cd" stroke="#9a32cd" points="387.59,-734.84 377.64,-738.47 387.69,-741.84 387.59,-734.84"/>
<text text-anchor="middle" x="471" y="-740.15" font-family="Helvetica,sans-Serif" font-size="10.00"> bc_info</text>
</g>
<!-- Node18 -->
<g id="node18" class="node">
<title>Node18</title>
<g id="a_node18"><a xlink:title=" ">
<polygon fill="white" stroke="#bfbfbf" points="3,-816.15 3,-846.15 150,-846.15 150,-816.15 3,-816.15"/>
<text text-anchor="start" x="11" y="-834.15" font-family="Helvetica,sans-Serif" font-size="10.00">real(kind=r8_kind),</text>
<text text-anchor="middle" x="76.5" y="-823.15" font-family="Helvetica,sans-Serif" font-size="10.00"> dimension(:,:), allocatable</text>
</a>
</g>
</g>
<!-- Node18&#45;&gt;Node17 -->
<g id="edge24" class="edge">
<title>Node18&#45;&gt;Node17</title>
<path fill="none" stroke="#9a32cd" stroke-dasharray="5,2" d="M143.94,-813.35C191.16,-800.55 248.06,-784.77 259,-780.15 280.31,-771.15 303.11,-757.13 317.34,-747.79"/>
<polygon fill="#9a32cd" stroke="#9a32cd" points="142.77,-810.04 134.03,-816.03 144.6,-816.79 142.77,-810.04"/>
<text text-anchor="middle" x="215" y="-808.15" font-family="Helvetica,sans-Serif" font-size="10.00"> globaldata2d_r8</text>
</g>
<!-- Node19 -->
<g id="node19" class="node">
<title>Node19</title>
<g id="a_node19"><a xlink:title=" ">
<polygon fill="white" stroke="#bfbfbf" points="0,-767.15 0,-797.15 153,-797.15 153,-767.15 0,-767.15"/>
<text text-anchor="start" x="8" y="-785.15" font-family="Helvetica,sans-Serif" font-size="10.00">real(kind=r8_kind),</text>
<text text-anchor="middle" x="76.5" y="-774.15" font-family="Helvetica,sans-Serif" font-size="10.00"> dimension(:,:,:), allocatable</text>
</a>
</g>
</g>
<!-- Node19&#45;&gt;Node17 -->
<g id="edge25" class="edge">
<title>Node19&#45;&gt;Node17</title>
<path fill="none" stroke="#9a32cd" stroke-dasharray="5,2" d="M162.91,-767.35C204.6,-760.13 253.01,-751.74 287.24,-745.82"/>
<polygon fill="#9a32cd" stroke="#9a32cd" points="162.28,-763.91 153.02,-769.07 163.47,-770.81 162.28,-763.91"/>
<text text-anchor="middle" x="215" y="-768.15" font-family="Helvetica,sans-Serif" font-size="10.00"> globaldata3d_r8</text>
</g>
<!-- Node20 -->
<g id="node20" class="node">
<title>Node20</title>
<g id="a_node20"><a xlink:title=" ">
<polygon fill="white" stroke="#bfbfbf" points="24,-728.65 24,-747.65 129,-747.65 129,-728.65 24,-728.65"/>
<text text-anchor="middle" x="76.5" y="-735.65" font-family="Helvetica,sans-Serif" font-size="10.00">character(len=32)</text>
</a>
</g>
</g>
<!-- Node20&#45;&gt;Node17 -->
<g id="edge26" class="edge">
<title>Node20&#45;&gt;Node17</title>
<path fill="none" stroke="#9a32cd" stroke-dasharray="5,2" d="M139.33,-738.15C185.17,-738.15 246.56,-738.15 287.49,-738.15"/>
<polygon fill="#9a32cd" stroke="#9a32cd" points="139.21,-734.65 129.21,-738.15 139.21,-741.65 139.21,-734.65"/>
<text text-anchor="middle" x="215" y="-741.15" font-family="Helvetica,sans-Serif" font-size="10.00"> chksum</text>
</g>
<!-- Node21 -->
<g id="node21" class="node">
<title>Node21</title>
<g id="a_node21"><a xlink:title=" ">
<polygon fill="white" stroke="#bfbfbf" points="0,-679.15 0,-709.15 153,-709.15 153,-679.15 0,-679.15"/>
<text text-anchor="start" x="8" y="-697.15" font-family="Helvetica,sans-Serif" font-size="10.00">real(kind=r4_kind),</text>
<text text-anchor="middle" x="76.5" y="-686.15" font-family="Helvetica,sans-Serif" font-size="10.00"> dimension(:,:,:), allocatable</text>
</a>
</g>
</g>
<!-- Node21&#45;&gt;Node17 -->
<g id="edge28" class="edge">
<title>Node21&#45;&gt;Node17</title>
<path fill="none" stroke="#9a32cd" stroke-dasharray="5,2" d="M163.25,-707.03C193.55,-711.8 227.84,-717.44 259,-723.15 268.23,-724.84 278.09,-726.79 287.47,-728.7"/>
<polygon fill="#9a32cd" stroke="#9a32cd" points="163.55,-703.53 153.13,-705.44 162.47,-710.45 163.55,-703.53"/>
<text text-anchor="middle" x="215" y="-726.15" font-family="Helvetica,sans-Serif" font-size="10.00"> globaldata3d_r4</text>
</g>
<!-- Node22 -->
<g id="node22" class="node">
<title>Node22</title>
<g id="a_node22"><a xlink:title=" ">
<polygon fill="white" stroke="#bfbfbf" points="3,-630.15 3,-660.15 150,-660.15 150,-630.15 3,-630.15"/>
<text text-anchor="start" x="11" y="-648.15" font-family="Helvetica,sans-Serif" font-size="10.00">real(kind=r4_kind),</text>
<text text-anchor="middle" x="76.5" y="-637.15" font-family="Helvetica,sans-Serif" font-size="10.00"> dimension(:,:), allocatable</text>
</a>
</g>
</g>
<!-- Node22&#45;&gt;Node17 -->
<g id="edge29" class="edge">
<title>Node22&#45;&gt;Node17</title>
<path fill="none" stroke="#9a32cd" stroke-dasharray="5,2" d="M160.35,-661.58C191.93,-669.25 227.81,-679.7 259,-693.15 281.31,-702.77 304.79,-718.53 318.78,-728.62"/>
<polygon fill="#9a32cd" stroke="#9a32cd" points="160.8,-658.09 150.26,-659.19 159.18,-664.9 160.8,-658.09"/>
<text text-anchor="middle" x="215" y="-696.15" font-family="Helvetica,sans-Serif" font-size="10.00"> globaldata2d_r4</text>
</g>
<!-- Node23&#45;&gt;Node1 -->
<g id="edge31" class="edge">
<title>Node23&#45;&gt;Node1</title>
<path fill="none" stroke="#9a32cd" stroke-dasharray="5,2" d="M393.19,-213.04C510.06,-211.67 777.03,-212.47 999,-242.15 1007.41,-243.27 1016.36,-244.89 1024.84,-246.64"/>
<polygon fill="#9a32cd" stroke="#9a32cd" points="392.98,-209.54 383.03,-213.17 393.07,-216.54 392.98,-209.54"/>
<text text-anchor="middle" x="754" y="-226.15" font-family="Helvetica,sans-Serif" font-size="10.00"> interph</text>
</g>
<!-- Node24 -->
<g id="node24" class="node">
<title>Node24</title>
<g id="a_node24"><a xlink:title=" ">
<polygon fill="white" stroke="#bfbfbf" points="59,-59.65 59,-78.65 94,-78.65 94,-59.65 59,-59.65"/>
<text text-anchor="middle" x="76.5" y="-66.65" font-family="Helvetica,sans-Serif" font-size="10.00">real</text>
</a>
</g>
</g>
<!-- Node24&#45;&gt;Node1 -->
<g id="edge37" class="edge">
<title>Node24&#45;&gt;Node1</title>
<path fill="none" stroke="#9a32cd" stroke-dasharray="5,2" d="M104.21,-66.18C150.44,-61.31 248.44,-52.15 331.5,-52.15 331.5,-52.15 331.5,-52.15 871.5,-52.15 979.98,-52.15 1045.68,-206.25 1061.02,-246.58"/>
<polygon fill="#9a32cd" stroke="#9a32cd" points="103.69,-62.72 94.12,-67.26 104.43,-69.68 103.69,-62.72"/>
<text text-anchor="middle" x="622" y="-165.15" font-family="Helvetica,sans-Serif" font-size="10.00"> data</text>
<text text-anchor="middle" x="622" y="-154.15" font-family="Helvetica,sans-Serif" font-size="10.00">halflevs</text>
<text text-anchor="middle" x="622" y="-143.15" font-family="Helvetica,sans-Serif" font-size="10.00">lat</text>
<text text-anchor="middle" x="622" y="-132.15" font-family="Helvetica,sans-Serif" font-size="10.00">latb</text>
<text text-anchor="middle" x="622" y="-121.15" font-family="Helvetica,sans-Serif" font-size="10.00">levs</text>
<text text-anchor="middle" x="622" y="-110.15" font-family="Helvetica,sans-Serif" font-size="10.00">lon</text>
<text text-anchor="middle" x="622" y="-99.15" font-family="Helvetica,sans-Serif" font-size="10.00">lonb</text>
<text text-anchor="middle" x="622" y="-88.15" font-family="Helvetica,sans-Serif" font-size="10.00">nmon_nyear</text>
<text text-anchor="middle" x="622" y="-77.15" font-family="Helvetica,sans-Serif" font-size="10.00">nmon_pyear</text>
<text text-anchor="middle" x="622" y="-66.15" font-family="Helvetica,sans-Serif" font-size="10.00">pmon_nyear</text>
<text text-anchor="middle" x="622" y="-55.15" font-family="Helvetica,sans-Serif" font-size="10.00">...</text>
</g>
<!-- Node24&#45;&gt;Node23 -->
<g id="edge34" class="edge">
<title>Node24&#45;&gt;Node23</title>
<path fill="none" stroke="#9a32cd" stroke-dasharray="5,2" d="M104.15,-68.69C148.27,-68.4 234.09,-70.02 259,-86.15 302.95,-114.6 323,-179.56 329.25,-204.32"/>
<polygon fill="#9a32cd" stroke="#9a32cd" points="104.11,-65.19 94.15,-68.79 104.18,-72.19 104.11,-65.19"/>
<text text-anchor="middle" x="215" y="-199.15" font-family="Helvetica,sans-Serif" font-size="10.00"> area_dst</text>
<text text-anchor="middle" x="215" y="-188.15" font-family="Helvetica,sans-Serif" font-size="10.00">area_frac_dst</text>
<text text-anchor="middle" x="215" y="-177.15" font-family="Helvetica,sans-Serif" font-size="10.00">area_src</text>
<text text-anchor="middle" x="215" y="-166.15" font-family="Helvetica,sans-Serif" font-size="10.00">faci</text>
<text text-anchor="middle" x="215" y="-155.15" font-family="Helvetica,sans-Serif" font-size="10.00">facj</text>
<text text-anchor="middle" x="215" y="-144.15" font-family="Helvetica,sans-Serif" font-size="10.00">lat_in</text>
<text text-anchor="middle" x="215" y="-133.15" font-family="Helvetica,sans-Serif" font-size="10.00">lon_in</text>
<text text-anchor="middle" x="215" y="-122.15" font-family="Helvetica,sans-Serif" font-size="10.00">mask_in</text>
<text text-anchor="middle" x="215" y="-111.15" font-family="Helvetica,sans-Serif" font-size="10.00">max_src_dist</text>
<text text-anchor="middle" x="215" y="-100.15" font-family="Helvetica,sans-Serif" font-size="10.00">rat_x</text>
<text text-anchor="middle" x="215" y="-89.15" font-family="Helvetica,sans-Serif" font-size="10.00">...</text>
</g>
<!-- Node25 -->
<g id="node25" class="node">
<title>Node25</title>
<g id="a_node25"><a xlink:title=" ">
<polygon fill="white" stroke="#bfbfbf" points="818,-4.65 818,-23.65 923,-23.65 923,-4.65 818,-4.65"/>
<text text-anchor="middle" x="870.5" y="-11.65" font-family="Helvetica,sans-Serif" font-size="10.00">character(len=64)</text>
</a>
</g>
</g>
<!-- Node25&#45;&gt;Node1 -->
<g id="edge35" class="edge">
<title>Node25&#45;&gt;Node1</title>
<path fill="none" stroke="#9a32cd" stroke-dasharray="5,2" d="M914.6,-2.72C941.56,1.73 975.51,2.09 999,-16.15 1036.96,-45.61 1058.41,-205.16 1063.38,-246.41"/>
<polygon fill="#9a32cd" stroke="#9a32cd" points="913.82,0.7 904.65,-4.6 915.12,-6.18 913.82,0.7"/>
<text text-anchor="middle" x="970" y="-30.15" font-family="Helvetica,sans-Serif" font-size="10.00"> field_name</text>
<text text-anchor="middle" x="970" y="-19.15" font-family="Helvetica,sans-Serif" font-size="10.00">file_name</text>
</g>
</g>
</svg>
