<?xml version="1.0" encoding="UTF-8" standalone="no"?>
<!DOCTYPE svg PUBLIC "-//W3C//DTD SVG 1.1//EN"
 "http://www.w3.org/Graphics/SVG/1.1/DTD/svg11.dtd">
<!-- Generated by graphviz version 2.43.0 (0)
 -->
<!-- Title: fmtype_t Pages: 1 -->
<svg width="633pt" height="410pt"
 viewBox="0.00 0.00 633.00 410.00" xmlns="http://www.w3.org/2000/svg" xmlns:xlink="http://www.w3.org/1999/xlink">
<g id="graph0" class="graph" transform="scale(1 1) rotate(0) translate(4 406)">
<title>fmtype_t</title>
<polygon fill="white" stroke="transparent" points="-4,4 -4,-406 629,-406 629,4 -4,4"/>
<!-- Node1 -->
<g id="node1" class="node">
<title>Node1</title>
<g id="a_node1"><a xlink:title="This type represents the entries for a specific field type, e.g. a tracer. This type contains the nam...">
<polygon fill="#bfbfbf" stroke="black" points="433.5,-0.5 433.5,-19.5 494.5,-19.5 494.5,-0.5 433.5,-0.5"/>
<text text-anchor="middle" x="464" y="-7.5" font-family="Helvetica,sans-Serif" font-size="10.00">fmtype_t</text>
</a>
</g>
</g>
<!-- Node2 -->
<g id="node2" class="node">
<title>Node2</title>
<g id="a_node2"><a xlink:href="group__fm__yaml__mod.html#structfm__yaml__mod_1_1fmmodel__t" target="_top" xlink:title="This type represents the entries for a given model, e.g. land, ocean, atmosphere. This type contains ...">
<polygon fill="white" stroke="black" points="352,-67.5 352,-86.5 422,-86.5 422,-67.5 352,-67.5"/>
<text text-anchor="middle" x="387" y="-74.5" font-family="Helvetica,sans-Serif" font-size="10.00">fmmodel_t</text>
</a>
</g>
</g>
<!-- Node2&#45;&gt;Node1 -->
<g id="edge1" class="edge">
<title>Node2&#45;&gt;Node1</title>
<path fill="none" stroke="#9a32cd" stroke-dasharray="5,2" d="M405.11,-60.71C420.28,-47.91 441.39,-30.09 453.78,-19.63"/>
<polygon fill="#9a32cd" stroke="#9a32cd" points="402.77,-58.11 397.38,-67.23 407.28,-63.46 402.77,-58.11"/>
<text text-anchor="middle" x="452.5" y="-41" font-family="Helvetica,sans-Serif" font-size="10.00"> children</text>
</g>
<!-- Node3 -->
<g id="node3" class="node">
<title>Node3</title>
<g id="a_node3"><a xlink:title=" ">
<polygon fill="white" stroke="#bfbfbf" points="46,-377 46,-396 202,-396 202,-377 46,-377"/>
<text text-anchor="middle" x="124" y="-384" font-family="Helvetica,sans-Serif" font-size="10.00">character(len=:), allocatable</text>
</a>
</g>
</g>
<!-- Node3&#45;&gt;Node1 -->
<g id="edge14" class="edge">
<title>Node3&#45;&gt;Node1</title>
<path fill="none" stroke="#9a32cd" stroke-dasharray="5,2" d="M86.45,-373.44C49.95,-359.08 0,-331.26 0,-286.5 0,-286.5 0,-286.5 0,-76 0,-32.13 329.56,-16.04 433.2,-12.06"/>
<polygon fill="#9a32cd" stroke="#9a32cd" points="85.27,-376.73 95.86,-376.97 87.73,-370.18 85.27,-376.73"/>
<text text-anchor="middle" x="15.5" y="-153.5" font-family="Helvetica,sans-Serif" font-size="10.00"> name</text>
</g>
<!-- Node3&#45;&gt;Node2 -->
<g id="edge2" class="edge">
<title>Node3&#45;&gt;Node2</title>
<path fill="none" stroke="#9a32cd" stroke-dasharray="5,2" d="M109.56,-368.89C98.5,-355.01 84.14,-334.14 78,-313 63.24,-262.19 63.62,-234.42 100,-196 169.64,-122.46 291.78,-93.29 351.75,-82.99"/>
<polygon fill="#9a32cd" stroke="#9a32cd" points="107.15,-371.47 116.22,-376.94 112.54,-367 107.15,-371.47"/>
<text text-anchor="middle" x="115.5" y="-215.5" font-family="Helvetica,sans-Serif" font-size="10.00"> name</text>
</g>
<!-- Node5 -->
<g id="node5" class="node">
<title>Node5</title>
<g id="a_node5"><a xlink:href="group__fm__yaml__mod.html#structfm__yaml__mod_1_1fmvar__t" target="_top" xlink:title="This type represents the entries for a given variable, e.g. dust. This type contains the name of the ...">
<polygon fill="white" stroke="black" points="278.5,-146.5 278.5,-165.5 333.5,-165.5 333.5,-146.5 278.5,-146.5"/>
<text text-anchor="middle" x="306" y="-153.5" font-family="Helvetica,sans-Serif" font-size="10.00">fmvar_t</text>
</a>
</g>
</g>
<!-- Node3&#45;&gt;Node5 -->
<g id="edge10" class="edge">
<title>Node3&#45;&gt;Node5</title>
<path fill="none" stroke="#9a32cd" stroke-dasharray="5,2" d="M141.3,-369.57C156.26,-355.39 178.1,-333.74 195,-313 213.61,-290.16 215.07,-282.11 232,-258 256.36,-223.31 286.55,-182.87 299.55,-165.56"/>
<polygon fill="#9a32cd" stroke="#9a32cd" points="138.67,-367.24 133.76,-376.63 143.45,-372.35 138.67,-367.24"/>
<text text-anchor="middle" x="247.5" y="-283" font-family="Helvetica,sans-Serif" font-size="10.00"> name</text>
</g>
<!-- Node6 -->
<g id="node6" class="node">
<title>Node6</title>
<g id="a_node6"><a xlink:href="group__fm__yaml__mod.html#structfm__yaml__mod_1_1fmattr__t" target="_top" xlink:title="This type represents the subparameters for a given variable parameter. This type contains the name of...">
<polygon fill="white" stroke="black" points="272,-276 272,-295 328,-295 328,-276 272,-276"/>
<text text-anchor="middle" x="300" y="-283" font-family="Helvetica,sans-Serif" font-size="10.00">fmattr_t</text>
</a>
</g>
</g>
<!-- Node3&#45;&gt;Node6 -->
<g id="edge6" class="edge">
<title>Node3&#45;&gt;Node6</title>
<path fill="none" stroke="#9a32cd" stroke-dasharray="5,2" d="M159.13,-373.42C173.67,-367.91 190.49,-360.85 205,-353 222,-343.8 266.94,-310.99 288.34,-295.17"/>
<polygon fill="#9a32cd" stroke="#9a32cd" points="157.66,-370.23 149.49,-376.98 160.08,-376.8 157.66,-370.23"/>
<text text-anchor="middle" x="270.5" y="-339.5" font-family="Helvetica,sans-Serif" font-size="10.00"> paramname</text>
</g>
<!-- Node4 -->
<g id="node4" class="node">
<title>Node4</title>
<g id="a_node4"><a xlink:title=" ">
<polygon fill="white" stroke="#bfbfbf" points="436.5,-146.5 436.5,-165.5 535.5,-165.5 535.5,-146.5 436.5,-146.5"/>
<text text-anchor="middle" x="486" y="-153.5" font-family="Helvetica,sans-Serif" font-size="10.00">character(len=7)</text>
</a>
</g>
</g>
<!-- Node4&#45;&gt;Node1 -->
<g id="edge15" class="edge">
<title>Node4&#45;&gt;Node1</title>
<path fill="none" stroke="#9a32cd" stroke-dasharray="5,2" d="M487.05,-136C487.81,-112.51 487.4,-71.54 478,-38 476.18,-31.49 472.68,-24.74 469.63,-19.62"/>
<polygon fill="#9a32cd" stroke="#9a32cd" points="483.54,-136.14 486.6,-146.28 490.53,-136.44 483.54,-136.14"/>
<text text-anchor="middle" x="515" y="-74.5" font-family="Helvetica,sans-Serif" font-size="10.00"> blockname</text>
</g>
<!-- Node4&#45;&gt;Node2 -->
<g id="edge3" class="edge">
<title>Node4&#45;&gt;Node2</title>
<path fill="none" stroke="#9a32cd" stroke-dasharray="5,2" d="M459.61,-141.55C447.3,-134.7 432.8,-125.75 421,-116 410.22,-107.09 399.79,-94.7 393.39,-86.53"/>
<polygon fill="#9a32cd" stroke="#9a32cd" points="458.05,-144.69 468.51,-146.37 461.38,-138.53 458.05,-144.69"/>
<text text-anchor="middle" x="450" y="-108" font-family="Helvetica,sans-Serif" font-size="10.00"> blockname</text>
</g>
<!-- Node5&#45;&gt;Node2 -->
<g id="edge4" class="edge">
<title>Node5&#45;&gt;Node2</title>
<path fill="none" stroke="#9a32cd" stroke-dasharray="5,2" d="M311.48,-136.44C315.29,-126.13 321.29,-113.67 330,-105 338.23,-96.81 349.42,-90.78 359.7,-86.51"/>
<polygon fill="#9a32cd" stroke="#9a32cd" points="308.08,-135.56 308.26,-146.16 314.73,-137.76 308.08,-135.56"/>
<text text-anchor="middle" x="351.5" y="-108" font-family="Helvetica,sans-Serif" font-size="10.00"> children</text>
</g>
<!-- Node6&#45;&gt;Node5 -->
<g id="edge5" class="edge">
<title>Node6&#45;&gt;Node5</title>
<path fill="none" stroke="#9a32cd" stroke-dasharray="5,2" d="M300.89,-265.66C302.2,-237.71 304.62,-186.36 305.58,-165.82"/>
<polygon fill="#9a32cd" stroke="#9a32cd" points="297.39,-265.58 300.41,-275.74 304.38,-265.91 297.39,-265.58"/>
<text text-anchor="middle" x="326.5" y="-215.5" font-family="Helvetica,sans-Serif" font-size="10.00"> children</text>
</g>
<!-- Node7 -->
<g id="node7" class="node">
<title>Node7</title>
<g id="a_node7"><a xlink:title=" ">
<polygon fill="white" stroke="#bfbfbf" points="262.5,-371.5 262.5,-401.5 415.5,-401.5 415.5,-371.5 262.5,-371.5"/>
<text text-anchor="start" x="270.5" y="-389.5" font-family="Helvetica,sans-Serif" font-size="10.00">character(len=:), dimension</text>
<text text-anchor="middle" x="339" y="-378.5" font-family="Helvetica,sans-Serif" font-size="10.00">(:), allocatable</text>
</a>
</g>
</g>
<!-- Node7&#45;&gt;Node5 -->
<g id="edge11" class="edge">
<title>Node7&#45;&gt;Node5</title>
<path fill="none" stroke="#9a32cd" stroke-dasharray="5,2" d="M348.11,-361.43C348.88,-358.62 349.54,-355.77 350,-353 361.34,-284.15 378.63,-259.63 350,-196 344.14,-182.97 331.53,-172.53 321.3,-165.74"/>
<polygon fill="#9a32cd" stroke="#9a32cd" points="344.7,-360.61 344.96,-371.2 351.36,-362.75 344.7,-360.61"/>
<text text-anchor="middle" x="384" y="-288.5" font-family="Helvetica,sans-Serif" font-size="10.00"> values</text>
<text text-anchor="middle" x="384" y="-277.5" font-family="Helvetica,sans-Serif" font-size="10.00">keys</text>
</g>
<!-- Node7&#45;&gt;Node6 -->
<g id="edge7" class="edge">
<title>Node7&#45;&gt;Node6</title>
<path fill="none" stroke="#9a32cd" stroke-dasharray="5,2" d="M319.76,-363.09C317.58,-359.84 315.58,-356.43 314,-353 305.02,-333.5 301.73,-308.11 300.58,-295.07"/>
<polygon fill="#9a32cd" stroke="#9a32cd" points="317.01,-365.26 325.78,-371.21 322.64,-361.09 317.01,-365.26"/>
<text text-anchor="middle" x="332" y="-345" font-family="Helvetica,sans-Serif" font-size="10.00"> values</text>
<text text-anchor="middle" x="332" y="-334" font-family="Helvetica,sans-Serif" font-size="10.00">keys</text>
</g>
<!-- Node8 -->
<g id="node8" class="node">
<title>Node8</title>
<g id="a_node8"><a xlink:title=" ">
<polygon fill="white" stroke="#bfbfbf" points="434.5,-377 434.5,-396 485.5,-396 485.5,-377 434.5,-377"/>
<text text-anchor="middle" x="460" y="-384" font-family="Helvetica,sans-Serif" font-size="10.00">integer</text>
</a>
</g>
</g>
<!-- Node8&#45;&gt;Node1 -->
<g id="edge16" class="edge">
<title>Node8&#45;&gt;Node1</title>
<path fill="none" stroke="#9a32cd" stroke-dasharray="5,2" d="M495.01,-373.43C530.12,-358.83 579,-330.59 579,-286.5 579,-286.5 579,-286.5 579,-76 579,-37.13 528.59,-21.24 494.52,-14.93"/>
<polygon fill="#9a32cd" stroke="#9a32cd" points="493.54,-370.25 485.53,-377.19 496.11,-376.76 493.54,-370.25"/>
<text text-anchor="middle" x="602" y="-170" font-family="Helvetica,sans-Serif" font-size="10.00"> child_ids</text>
<text text-anchor="middle" x="602" y="-159" font-family="Helvetica,sans-Serif" font-size="10.00">yfid</text>
<text text-anchor="middle" x="602" y="-148" font-family="Helvetica,sans-Serif" font-size="10.00">nchildren</text>
<text text-anchor="middle" x="602" y="-137" font-family="Helvetica,sans-Serif" font-size="10.00">id</text>
</g>
<!-- Node8&#45;&gt;Node2 -->
<g id="edge13" class="edge">
<title>Node8&#45;&gt;Node2</title>
<path fill="none" stroke="#9a32cd" stroke-dasharray="5,2" d="M469.72,-368.02C482.24,-343.15 500.94,-296.31 488,-258 473.69,-215.64 449.06,-216.89 427,-178 408.92,-146.12 395.08,-104.44 389.58,-86.65"/>
<polygon fill="#9a32cd" stroke="#9a32cd" points="466.57,-366.5 465,-376.97 472.76,-369.76 466.57,-366.5"/>
<text text-anchor="middle" x="503" y="-232" font-family="Helvetica,sans-Serif" font-size="10.00"> child_ids</text>
<text text-anchor="middle" x="503" y="-221" font-family="Helvetica,sans-Serif" font-size="10.00">yfid</text>
<text text-anchor="middle" x="503" y="-210" font-family="Helvetica,sans-Serif" font-size="10.00">nchildren</text>
<text text-anchor="middle" x="503" y="-199" font-family="Helvetica,sans-Serif" font-size="10.00">id</text>
</g>
<!-- Node8&#45;&gt;Node5 -->
<g id="edge12" class="edge">
<title>Node8&#45;&gt;Node5</title>
<path fill="none" stroke="#9a32cd" stroke-dasharray="5,2" d="M455.65,-366.91C446.16,-330.02 420.41,-246.74 371,-196 358.15,-182.8 339.91,-172.37 326.03,-165.64"/>
<polygon fill="#9a32cd" stroke="#9a32cd" points="452.29,-367.91 458.08,-376.78 459.09,-366.24 452.29,-367.91"/>
<text text-anchor="middle" x="461" y="-305" font-family="Helvetica,sans-Serif" font-size="10.00"> key_ids</text>
<text text-anchor="middle" x="461" y="-294" font-family="Helvetica,sans-Serif" font-size="10.00">child_ids</text>
<text text-anchor="middle" x="461" y="-283" font-family="Helvetica,sans-Serif" font-size="10.00">yfid</text>
<text text-anchor="middle" x="461" y="-272" font-family="Helvetica,sans-Serif" font-size="10.00">nchildren</text>
<text text-anchor="middle" x="461" y="-261" font-family="Helvetica,sans-Serif" font-size="10.00">id</text>
</g>
<!-- Node8&#45;&gt;Node6 -->
<g id="edge8" class="edge">
<title>Node8&#45;&gt;Node6</title>
<path fill="none" stroke="#9a32cd" stroke-dasharray="5,2" d="M434.33,-372.25C423.6,-366.54 411.07,-359.66 400,-353 367.49,-333.44 330.66,-308.08 312.09,-295.05"/>
<polygon fill="#9a32cd" stroke="#9a32cd" points="432.74,-375.37 443.22,-376.93 436,-369.18 432.74,-375.37"/>
<text text-anchor="middle" x="411" y="-345" font-family="Helvetica,sans-Serif" font-size="10.00"> yfid</text>
<text text-anchor="middle" x="411" y="-334" font-family="Helvetica,sans-Serif" font-size="10.00">id</text>
</g>
<!-- Node9 -->
<g id="node9" class="node">
<title>Node9</title>
<g id="a_node9"><a xlink:title=" ">
<polygon fill="white" stroke="#bfbfbf" points="87.5,-276 87.5,-295 186.5,-295 186.5,-276 87.5,-276"/>
<text text-anchor="middle" x="137" y="-283" font-family="Helvetica,sans-Serif" font-size="10.00">character(len=9)</text>
</a>
</g>
</g>
<!-- Node9&#45;&gt;Node5 -->
<g id="edge9" class="edge">
<title>Node9&#45;&gt;Node5</title>
<path fill="none" stroke="#9a32cd" stroke-dasharray="5,2" d="M134.47,-265.94C132.88,-246.08 133.72,-214.9 151,-196 167.94,-177.47 238.41,-165.64 278.25,-160.31"/>
<polygon fill="#9a32cd" stroke="#9a32cd" points="131,-266.34 135.56,-275.9 137.95,-265.58 131,-266.34"/>
<text text-anchor="middle" x="180" y="-215.5" font-family="Helvetica,sans-Serif" font-size="10.00"> blockname</text>
</g>
</g>
</svg>
