<?xml version="1.0" encoding="UTF-8" standalone="no"?>
<!DOCTYPE svg PUBLIC "-//W3C//DTD SVG 1.1//EN"
 "http://www.w3.org/Graphics/SVG/1.1/DTD/svg11.dtd">
<!-- Generated by graphviz version 2.43.0 (0)
 -->
<!-- Title: summary_struct Pages: 1 -->
<svg width="492pt" height="206pt"
 viewBox="0.00 0.00 492.00 206.00" xmlns="http://www.w3.org/2000/svg" xmlns:xlink="http://www.w3.org/1999/xlink">
<g id="graph0" class="graph" transform="scale(1 1) rotate(0) translate(4 202)">
<title>summary_struct</title>
<polygon fill="white" stroke="transparent" points="-4,4 -4,-202 488,-202 488,4 -4,4"/>
<!-- Node1 -->
<g id="node1" class="node">
<title>Node1</title>
<g id="a_node1"><a xlink:title="holds name and clock data for use in mpp_util.h">
<polygon fill="#bfbfbf" stroke="black" points="44.5,-0.5 44.5,-19.5 140.5,-19.5 140.5,-0.5 44.5,-0.5"/>
<text text-anchor="middle" x="92.5" y="-7.5" font-family="Helvetica,sans-Serif" font-size="10.00">summary_struct</text>
</a>
</g>
</g>
<!-- Node2 -->
<g id="node2" class="node">
<title>Node2</title>
<g id="a_node2"><a xlink:href="group__mpp__mod.html#structmpp__mod_1_1clock__data__summary" target="_top" xlink:title="Summary of information from a clock run.">
<polygon fill="white" stroke="black" points="110,-67.5 110,-86.5 231,-86.5 231,-67.5 110,-67.5"/>
<text text-anchor="middle" x="170.5" y="-74.5" font-family="Helvetica,sans-Serif" font-size="10.00">clock_data_summary</text>
</a>
</g>
</g>
<!-- Node2&#45;&gt;Node1 -->
<g id="edge1" class="edge">
<title>Node2&#45;&gt;Node1</title>
<path fill="none" stroke="#9a32cd" stroke-dasharray="5,2" d="M152.16,-60.71C136.79,-47.91 115.41,-30.09 102.85,-19.63"/>
<polygon fill="#9a32cd" stroke="#9a32cd" points="150.06,-63.52 159.98,-67.23 154.54,-58.14 150.06,-63.52"/>
<text text-anchor="middle" x="152" y="-41" font-family="Helvetica,sans-Serif" font-size="10.00"> event</text>
</g>
<!-- Node3 -->
<g id="node3" class="node">
<title>Node3</title>
<g id="a_node3"><a xlink:title=" ">
<polygon fill="white" stroke="#bfbfbf" points="0,-173 0,-192 105,-192 105,-173 0,-173"/>
<text text-anchor="middle" x="52.5" y="-180" font-family="Helvetica,sans-Serif" font-size="10.00">character(len=16)</text>
</a>
</g>
</g>
<!-- Node3&#45;&gt;Node1 -->
<g id="edge6" class="edge">
<title>Node3&#45;&gt;Node1</title>
<path fill="none" stroke="#9a32cd" stroke-dasharray="5,2" d="M53.89,-162.66C55.9,-139.73 60.42,-99.99 69.5,-67 74.3,-49.57 83.03,-30.28 88.25,-19.5"/>
<polygon fill="#9a32cd" stroke="#9a32cd" points="50.39,-162.48 53.07,-172.73 57.37,-163.05 50.39,-162.48"/>
<text text-anchor="middle" x="85" y="-74.5" font-family="Helvetica,sans-Serif" font-size="10.00"> name</text>
</g>
<!-- Node3&#45;&gt;Node2 -->
<g id="edge2" class="edge">
<title>Node3&#45;&gt;Node2</title>
<path fill="none" stroke="#9a32cd" stroke-dasharray="5,2" d="M68.7,-165.78C85.16,-150 111.56,-125.2 135.5,-105 143.12,-98.57 152.03,-91.7 158.95,-86.51"/>
<polygon fill="#9a32cd" stroke="#9a32cd" points="66.25,-163.28 61.47,-172.74 71.1,-168.32 66.25,-163.28"/>
<text text-anchor="middle" x="151" y="-124.5" font-family="Helvetica,sans-Serif" font-size="10.00"> name</text>
</g>
<!-- Node4 -->
<g id="node4" class="node">
<title>Node4</title>
<g id="a_node4"><a xlink:title=" ">
<polygon fill="white" stroke="#bfbfbf" points="123.5,-173 123.5,-192 217.5,-192 217.5,-173 123.5,-173"/>
<text text-anchor="middle" x="170.5" y="-180" font-family="Helvetica,sans-Serif" font-size="10.00">integer(i8_kind)</text>
</a>
</g>
</g>
<!-- Node4&#45;&gt;Node2 -->
<g id="edge3" class="edge">
<title>Node4&#45;&gt;Node2</title>
<path fill="none" stroke="#9a32cd" stroke-dasharray="5,2" d="M170.5,-162.6C170.5,-139.97 170.5,-103.07 170.5,-86.51"/>
<polygon fill="#9a32cd" stroke="#9a32cd" points="167,-162.68 170.5,-172.68 174,-162.68 167,-162.68"/>
<text text-anchor="middle" x="196.5" y="-124.5" font-family="Helvetica,sans-Serif" font-size="10.00"> total_cnts</text>
</g>
<!-- Node5 -->
<g id="node5" class="node">
<title>Node5</title>
<g id="a_node5"><a xlink:title=" ">
<polygon fill="white" stroke="#bfbfbf" points="236,-173 236,-192 315,-192 315,-173 236,-173"/>
<text text-anchor="middle" x="275.5" y="-180" font-family="Helvetica,sans-Serif" font-size="10.00">real(r8_kind)</text>
</a>
</g>
</g>
<!-- Node5&#45;&gt;Node2 -->
<g id="edge4" class="edge">
<title>Node5&#45;&gt;Node2</title>
<path fill="none" stroke="#9a32cd" stroke-dasharray="5,2" d="M267.55,-163.51C259.32,-146.59 245.07,-121.46 226.5,-105 217.53,-97.05 205.82,-90.92 195.42,-86.53"/>
<polygon fill="#9a32cd" stroke="#9a32cd" points="264.5,-165.23 271.88,-172.83 270.84,-162.29 264.5,-165.23"/>
<text text-anchor="middle" x="299" y="-141" font-family="Helvetica,sans-Serif" font-size="10.00"> total_data</text>
<text text-anchor="middle" x="299" y="-130" font-family="Helvetica,sans-Serif" font-size="10.00">msg_size_sums</text>
<text text-anchor="middle" x="299" y="-119" font-family="Helvetica,sans-Serif" font-size="10.00">msg_time_sums</text>
<text text-anchor="middle" x="299" y="-108" font-family="Helvetica,sans-Serif" font-size="10.00">total_time</text>
</g>
<!-- Node6 -->
<g id="node6" class="node">
<title>Node6</title>
<g id="a_node6"><a xlink:title=" ">
<polygon fill="white" stroke="#bfbfbf" points="333,-167.5 333,-197.5 484,-197.5 484,-167.5 333,-167.5"/>
<text text-anchor="start" x="341" y="-185.5" font-family="Helvetica,sans-Serif" font-size="10.00">integer(i8_kind), dimension</text>
<text text-anchor="middle" x="408.5" y="-174.5" font-family="Helvetica,sans-Serif" font-size="10.00">(max_bins)</text>
</a>
</g>
</g>
<!-- Node6&#45;&gt;Node2 -->
<g id="edge5" class="edge">
<title>Node6&#45;&gt;Node2</title>
<path fill="none" stroke="#9a32cd" stroke-dasharray="5,2" d="M395.41,-158.63C384.04,-140.99 365.9,-117.55 343.5,-105 324.6,-94.41 273.14,-87.25 231.22,-82.97"/>
<polygon fill="#9a32cd" stroke="#9a32cd" points="392.5,-160.57 400.73,-167.24 398.45,-156.89 392.5,-160.57"/>
<text text-anchor="middle" x="425" y="-124.5" font-family="Helvetica,sans-Serif" font-size="10.00"> msg_size_cnts</text>
</g>
</g>
</svg>
