<?xml version="1.0" encoding="UTF-8" standalone="no"?>
<!DOCTYPE svg PUBLIC "-//W3C//DTD SVG 1.1//EN"
 "http://www.w3.org/Graphics/SVG/1.1/DTD/svg11.dtd">
<!-- Generated by graphviz version 2.43.0 (0)
 -->
<!-- Title: restartvariable_t Pages: 1 -->
<svg width="577pt" height="459pt"
 viewBox="0.00 0.00 577.00 458.50" xmlns="http://www.w3.org/2000/svg" xmlns:xlink="http://www.w3.org/1999/xlink">
<g id="graph0" class="graph" transform="scale(1 1) rotate(0) translate(4 454.5)">
<title>restartvariable_t</title>
<polygon fill="white" stroke="transparent" points="-4,4 -4,-454.5 573,-454.5 573,4 -4,4"/>
<!-- Node1 -->
<g id="node1" class="node">
<title>Node1</title>
<g id="a_node1"><a xlink:title="Restart variable.">
<polygon fill="#bfbfbf" stroke="black" points="471,-181 471,-200 569,-200 569,-181 471,-181"/>
<text text-anchor="middle" x="520" y="-188" font-family="Helvetica,sans-Serif" font-size="10.00">restartvariable_t</text>
</a>
</g>
</g>
<!-- Node2 -->
<g id="node2" class="node">
<title>Node2</title>
<g id="a_node2"><a xlink:title=" ">
<polygon fill="white" stroke="#bfbfbf" points="52,-420 52,-439 101,-439 101,-420 52,-420"/>
<text text-anchor="middle" x="76.5" y="-427" font-family="Helvetica,sans-Serif" font-size="10.00">logical</text>
</a>
</g>
</g>
<!-- Node2&#45;&gt;Node1 -->
<g id="edge1" class="edge">
<title>Node2&#45;&gt;Node1</title>
<path fill="none" stroke="#9a32cd" stroke-dasharray="5,2" d="M111.48,-436.27C148.49,-442.32 209.08,-448.29 259,-434.5 355.84,-407.76 384.23,-391.73 453,-318.5 487.57,-281.68 508.68,-223.27 516.04,-200.27"/>
<polygon fill="#9a32cd" stroke="#9a32cd" points="111.69,-432.76 101.24,-434.5 110.49,-439.66 111.69,-432.76"/>
<text text-anchor="middle" x="332.5" y="-442.5" font-family="Helvetica,sans-Serif" font-size="10.00"> was_read</text>
<text text-anchor="middle" x="332.5" y="-431.5" font-family="Helvetica,sans-Serif" font-size="10.00">is_bc_variable</text>
</g>
<!-- Node10 -->
<g id="node10" class="node">
<title>Node10</title>
<g id="a_node10"><a xlink:href="group__netcdf__io__mod.html#structnetcdf__io__mod_1_1bc__information" target="_top" xlink:title="information needed fr regional restart variables">
<polygon fill="white" stroke="black" points="287.5,-323 287.5,-342 377.5,-342 377.5,-323 287.5,-323"/>
<text text-anchor="middle" x="332.5" y="-330" font-family="Helvetica,sans-Serif" font-size="10.00">bc_information</text>
</a>
</g>
</g>
<!-- Node2&#45;&gt;Node10 -->
<g id="edge10" class="edge">
<title>Node2&#45;&gt;Node10</title>
<path fill="none" stroke="#9a32cd" stroke-dasharray="5,2" d="M111.13,-424.1C148.46,-417.33 209.9,-403.81 259,-381.5 282.24,-370.94 306.2,-353.14 319.93,-342.15"/>
<polygon fill="#9a32cd" stroke="#9a32cd" points="110.52,-420.66 101.28,-425.84 111.73,-427.55 110.52,-420.66"/>
<text text-anchor="middle" x="215" y="-424.5" font-family="Helvetica,sans-Serif" font-size="10.00"> data_on_file_root</text>
<text text-anchor="middle" x="215" y="-413.5" font-family="Helvetica,sans-Serif" font-size="10.00">is_root_pe</text>
</g>
<!-- Node3 -->
<g id="node3" class="node">
<title>Node3</title>
<g id="a_node3"><a xlink:title=" ">
<polygon fill="white" stroke="#bfbfbf" points="277,-273.5 277,-303.5 388,-303.5 388,-273.5 277,-273.5"/>
<text text-anchor="start" x="285" y="-291.5" font-family="Helvetica,sans-Serif" font-size="10.00">class(*), dimension</text>
<text text-anchor="middle" x="332.5" y="-280.5" font-family="Helvetica,sans-Serif" font-size="10.00">(:,:,:), pointer</text>
</a>
</g>
</g>
<!-- Node3&#45;&gt;Node1 -->
<g id="edge2" class="edge">
<title>Node3&#45;&gt;Node1</title>
<path fill="none" stroke="#9a32cd" stroke-dasharray="5,2" d="M377.54,-269.24C381.08,-267.65 384.61,-266.06 388,-264.5 417.09,-251.16 425.09,-249.16 453,-233.5 471.73,-223 492.31,-209.2 505.42,-200.11"/>
<polygon fill="#9a32cd" stroke="#9a32cd" points="375.88,-266.15 368.17,-273.42 378.73,-272.55 375.88,-266.15"/>
<text text-anchor="middle" x="429.5" y="-258.5" font-family="Helvetica,sans-Serif" font-size="10.00"> data3d</text>
</g>
<!-- Node4 -->
<g id="node4" class="node">
<title>Node4</title>
<g id="a_node4"><a xlink:title=" ">
<polygon fill="white" stroke="#bfbfbf" points="277,-224.5 277,-254.5 388,-254.5 388,-224.5 277,-224.5"/>
<text text-anchor="start" x="285" y="-242.5" font-family="Helvetica,sans-Serif" font-size="10.00">class(*), dimension</text>
<text text-anchor="middle" x="332.5" y="-231.5" font-family="Helvetica,sans-Serif" font-size="10.00">(:,:), pointer</text>
</a>
</g>
</g>
<!-- Node4&#45;&gt;Node1 -->
<g id="edge3" class="edge">
<title>Node4&#45;&gt;Node1</title>
<path fill="none" stroke="#9a32cd" stroke-dasharray="5,2" d="M398.03,-222.46C426.46,-214.94 458.8,-206.4 482.89,-200.04"/>
<polygon fill="#9a32cd" stroke="#9a32cd" points="396.93,-219.13 388.15,-225.06 398.72,-225.89 396.93,-219.13"/>
<text text-anchor="middle" x="429.5" y="-221.5" font-family="Helvetica,sans-Serif" font-size="10.00"> data2d</text>
</g>
<!-- Node5 -->
<g id="node5" class="node">
<title>Node5</title>
<g id="a_node5"><a xlink:title=" ">
<polygon fill="white" stroke="#bfbfbf" points="277,-175.5 277,-205.5 388,-205.5 388,-175.5 277,-175.5"/>
<text text-anchor="start" x="285" y="-193.5" font-family="Helvetica,sans-Serif" font-size="10.00">class(*), dimension</text>
<text text-anchor="middle" x="332.5" y="-182.5" font-family="Helvetica,sans-Serif" font-size="10.00">(:,:,:,:,:), pointer</text>
</a>
</g>
</g>
<!-- Node5&#45;&gt;Node1 -->
<g id="edge4" class="edge">
<title>Node5&#45;&gt;Node1</title>
<path fill="none" stroke="#9a32cd" stroke-dasharray="5,2" d="M398.18,-190.5C422.02,-190.5 448.58,-190.5 470.72,-190.5"/>
<polygon fill="#9a32cd" stroke="#9a32cd" points="398.15,-187 388.15,-190.5 398.15,-194 398.15,-187"/>
<text text-anchor="middle" x="429.5" y="-193.5" font-family="Helvetica,sans-Serif" font-size="10.00"> data5d</text>
</g>
<!-- Node6 -->
<g id="node6" class="node">
<title>Node6</title>
<g id="a_node6"><a xlink:title=" ">
<polygon fill="white" stroke="#bfbfbf" points="285,-137 285,-156 380,-156 380,-137 285,-137"/>
<text text-anchor="middle" x="332.5" y="-144" font-family="Helvetica,sans-Serif" font-size="10.00">class(*), pointer</text>
</a>
</g>
</g>
<!-- Node6&#45;&gt;Node1 -->
<g id="edge5" class="edge">
<title>Node6&#45;&gt;Node1</title>
<path fill="none" stroke="#9a32cd" stroke-dasharray="5,2" d="M383.57,-158.38C413.45,-165.46 450.89,-174.34 478.83,-180.97"/>
<polygon fill="#9a32cd" stroke="#9a32cd" points="384.29,-154.95 373.75,-156.05 382.67,-161.76 384.29,-154.95"/>
<text text-anchor="middle" x="429.5" y="-176.5" font-family="Helvetica,sans-Serif" font-size="10.00"> data0d</text>
</g>
<!-- Node7 -->
<g id="node7" class="node">
<title>Node7</title>
<g id="a_node7"><a xlink:title=" ">
<polygon fill="white" stroke="#bfbfbf" points="277,-99 277,-118 388,-118 388,-99 277,-99"/>
<text text-anchor="middle" x="332.5" y="-106" font-family="Helvetica,sans-Serif" font-size="10.00">character(len=256)</text>
</a>
</g>
</g>
<!-- Node7&#45;&gt;Node1 -->
<g id="edge6" class="edge">
<title>Node7&#45;&gt;Node1</title>
<path fill="none" stroke="#9a32cd" stroke-dasharray="5,2" d="M377.6,-121.02C400.57,-128.18 428.84,-138.03 453,-149.5 472.01,-158.52 492.36,-171.77 505.36,-180.75"/>
<polygon fill="#9a32cd" stroke="#9a32cd" points="378.37,-117.59 367.79,-118.01 376.32,-124.29 378.37,-117.59"/>
<text text-anchor="middle" x="429.5" y="-152.5" font-family="Helvetica,sans-Serif" font-size="10.00"> varname</text>
</g>
<!-- Node8 -->
<g id="node8" class="node">
<title>Node8</title>
<g id="a_node8"><a xlink:title=" ">
<polygon fill="white" stroke="#bfbfbf" points="277,-49.5 277,-79.5 388,-79.5 388,-49.5 277,-49.5"/>
<text text-anchor="start" x="285" y="-67.5" font-family="Helvetica,sans-Serif" font-size="10.00">class(*), dimension</text>
<text text-anchor="middle" x="332.5" y="-56.5" font-family="Helvetica,sans-Serif" font-size="10.00">(:,:,:,:), pointer</text>
</a>
</g>
</g>
<!-- Node8&#45;&gt;Node1 -->
<g id="edge7" class="edge">
<title>Node8&#45;&gt;Node1</title>
<path fill="none" stroke="#9a32cd" stroke-dasharray="5,2" d="M391.57,-83.26C412.04,-91.39 434.54,-102.15 453,-115.5 479.14,-134.41 502.14,-165.43 512.76,-180.99"/>
<polygon fill="#9a32cd" stroke="#9a32cd" points="392.61,-79.91 382.02,-79.6 390.1,-86.45 392.61,-79.91"/>
<text text-anchor="middle" x="429.5" y="-118.5" font-family="Helvetica,sans-Serif" font-size="10.00"> data4d</text>
</g>
<!-- Node9 -->
<g id="node9" class="node">
<title>Node9</title>
<g id="a_node9"><a xlink:title=" ">
<polygon fill="white" stroke="#bfbfbf" points="277,-0.5 277,-30.5 388,-30.5 388,-0.5 277,-0.5"/>
<text text-anchor="start" x="285" y="-18.5" font-family="Helvetica,sans-Serif" font-size="10.00">class(*), dimension</text>
<text text-anchor="middle" x="332.5" y="-7.5" font-family="Helvetica,sans-Serif" font-size="10.00">(:), pointer</text>
</a>
</g>
</g>
<!-- Node9&#45;&gt;Node1 -->
<g id="edge8" class="edge">
<title>Node9&#45;&gt;Node1</title>
<path fill="none" stroke="#9a32cd" stroke-dasharray="5,2" d="M389.37,-34.57C411.13,-44.04 435.09,-57.21 453,-74.5 486.34,-106.68 507.87,-159.38 515.69,-180.9"/>
<polygon fill="#9a32cd" stroke="#9a32cd" points="390.45,-31.23 379.88,-30.61 387.76,-37.69 390.45,-31.23"/>
<text text-anchor="middle" x="429.5" y="-77.5" font-family="Helvetica,sans-Serif" font-size="10.00"> data1d</text>
</g>
<!-- Node10&#45;&gt;Node1 -->
<g id="edge9" class="edge">
<title>Node10&#45;&gt;Node1</title>
<path fill="none" stroke="#9a32cd" stroke-dasharray="5,2" d="M374.58,-319.42C379.18,-317.6 383.73,-315.61 388,-313.5 419.04,-298.12 427.25,-293.67 453,-270.5 477.9,-248.1 501.46,-216.02 512.48,-200.15"/>
<polygon fill="#9a32cd" stroke="#9a32cd" points="373.31,-316.16 365.17,-322.95 375.77,-322.72 373.31,-316.16"/>
<text text-anchor="middle" x="429.5" y="-306.5" font-family="Helvetica,sans-Serif" font-size="10.00"> bc_info</text>
</g>
<!-- Node11 -->
<g id="node11" class="node">
<title>Node11</title>
<g id="a_node11"><a xlink:title=" ">
<polygon fill="white" stroke="#bfbfbf" points="22.5,-359 22.5,-378 130.5,-378 130.5,-359 22.5,-359"/>
<text text-anchor="middle" x="76.5" y="-366" font-family="Helvetica,sans-Serif" font-size="10.00">real(kind=r8_kind)</text>
</a>
</g>
</g>
<!-- Node11&#45;&gt;Node10 -->
<g id="edge11" class="edge">
<title>Node11&#45;&gt;Node10</title>
<path fill="none" stroke="#9a32cd" stroke-dasharray="5,2" d="M140.83,-360.64C175.73,-356.18 219.8,-350.33 259,-344.5 268.21,-343.13 278.07,-341.56 287.45,-340.03"/>
<polygon fill="#9a32cd" stroke="#9a32cd" points="140.25,-357.18 130.77,-361.92 141.14,-364.13 140.25,-357.18"/>
<text text-anchor="middle" x="215" y="-369.5" font-family="Helvetica,sans-Serif" font-size="10.00"> globaldata2d_r8</text>
<text text-anchor="middle" x="215" y="-358.5" font-family="Helvetica,sans-Serif" font-size="10.00">globaldata3d_r8</text>
</g>
<!-- Node12 -->
<g id="node12" class="node">
<title>Node12</title>
<g id="a_node12"><a xlink:title=" ">
<polygon fill="white" stroke="#bfbfbf" points="24,-321 24,-340 129,-340 129,-321 24,-321"/>
<text text-anchor="middle" x="76.5" y="-328" font-family="Helvetica,sans-Serif" font-size="10.00">character(len=32)</text>
</a>
</g>
</g>
<!-- Node12&#45;&gt;Node10 -->
<g id="edge12" class="edge">
<title>Node12&#45;&gt;Node10</title>
<path fill="none" stroke="#9a32cd" stroke-dasharray="5,2" d="M139.33,-330.99C185.17,-331.35 246.56,-331.83 287.49,-332.15"/>
<polygon fill="#9a32cd" stroke="#9a32cd" points="139.23,-327.49 129.21,-330.91 139.18,-334.49 139.23,-327.49"/>
<text text-anchor="middle" x="215" y="-334.5" font-family="Helvetica,sans-Serif" font-size="10.00"> chksum</text>
</g>
<!-- Node13 -->
<g id="node13" class="node">
<title>Node13</title>
<g id="a_node13"><a xlink:title=" ">
<polygon fill="white" stroke="#bfbfbf" points="51,-228 51,-247 102,-247 102,-228 51,-228"/>
<text text-anchor="middle" x="76.5" y="-235" font-family="Helvetica,sans-Serif" font-size="10.00">integer</text>
</a>
</g>
</g>
<!-- Node13&#45;&gt;Node10 -->
<g id="edge13" class="edge">
<title>Node13&#45;&gt;Node10</title>
<path fill="none" stroke="#9a32cd" stroke-dasharray="5,2" d="M111.91,-229.04C151.88,-221.41 217.59,-215.93 259,-249.5 281.95,-268.11 256.76,-291.98 277,-313.5 280.64,-317.37 285.11,-320.45 289.9,-322.9"/>
<polygon fill="#9a32cd" stroke="#9a32cd" points="111.19,-225.62 102.1,-231.06 112.6,-232.48 111.19,-225.62"/>
<text text-anchor="middle" x="215" y="-318.5" font-family="Helvetica,sans-Serif" font-size="10.00"> global_size</text>
<text text-anchor="middle" x="215" y="-307.5" font-family="Helvetica,sans-Serif" font-size="10.00">y_halo</text>
<text text-anchor="middle" x="215" y="-296.5" font-family="Helvetica,sans-Serif" font-size="10.00">pelist</text>
<text text-anchor="middle" x="215" y="-285.5" font-family="Helvetica,sans-Serif" font-size="10.00">x_halo</text>
<text text-anchor="middle" x="215" y="-274.5" font-family="Helvetica,sans-Serif" font-size="10.00">jshift</text>
<text text-anchor="middle" x="215" y="-263.5" font-family="Helvetica,sans-Serif" font-size="10.00">ishift</text>
<text text-anchor="middle" x="215" y="-252.5" font-family="Helvetica,sans-Serif" font-size="10.00">indices</text>
</g>
<!-- Node14 -->
<g id="node14" class="node">
<title>Node14</title>
<g id="a_node14"><a xlink:title=" ">
<polygon fill="white" stroke="#bfbfbf" points="0,-178.5 0,-208.5 153,-208.5 153,-178.5 0,-178.5"/>
<text text-anchor="start" x="8" y="-196.5" font-family="Helvetica,sans-Serif" font-size="10.00">real(kind=r4_kind),</text>
<text text-anchor="middle" x="76.5" y="-185.5" font-family="Helvetica,sans-Serif" font-size="10.00"> dimension(:,:,:), allocatable</text>
</a>
</g>
</g>
<!-- Node14&#45;&gt;Node10 -->
<g id="edge14" class="edge">
<title>Node14&#45;&gt;Node10</title>
<path fill="none" stroke="#9a32cd" stroke-dasharray="5,2" d="M163.37,-179.07C197.04,-178.32 233.61,-184.33 259,-207.5 294.3,-239.71 246.15,-277.01 277,-313.5 280.3,-317.4 284.45,-320.5 288.97,-322.97"/>
<polygon fill="#9a32cd" stroke="#9a32cd" points="162.87,-175.59 153.03,-179.51 163.17,-182.58 162.87,-175.59"/>
<text text-anchor="middle" x="215" y="-210.5" font-family="Helvetica,sans-Serif" font-size="10.00"> globaldata3d_r4</text>
</g>
<!-- Node15 -->
<g id="node15" class="node">
<title>Node15</title>
<g id="a_node15"><a xlink:title=" ">
<polygon fill="white" stroke="#bfbfbf" points="3,-129.5 3,-159.5 150,-159.5 150,-129.5 3,-129.5"/>
<text text-anchor="start" x="11" y="-147.5" font-family="Helvetica,sans-Serif" font-size="10.00">real(kind=r4_kind),</text>
<text text-anchor="middle" x="76.5" y="-136.5" font-family="Helvetica,sans-Serif" font-size="10.00"> dimension(:,:), allocatable</text>
</a>
</g>
</g>
<!-- Node15&#45;&gt;Node10 -->
<g id="edge15" class="edge">
<title>Node15&#45;&gt;Node10</title>
<path fill="none" stroke="#9a32cd" stroke-dasharray="5,2" d="M160.38,-132.14C195.24,-131.75 233.53,-138.41 259,-163.5 306.84,-210.62 234.92,-261.18 277,-313.5 280.14,-317.4 284.13,-320.51 288.52,-322.97"/>
<polygon fill="#9a32cd" stroke="#9a32cd" points="160.07,-128.65 150.18,-132.46 160.28,-135.65 160.07,-128.65"/>
<text text-anchor="middle" x="215" y="-166.5" font-family="Helvetica,sans-Serif" font-size="10.00"> globaldata2d_r4</text>
</g>
</g>
</svg>
