<?xml version="1.0" encoding="UTF-8" standalone="no"?>
<!DOCTYPE svg PUBLIC "-//W3C//DTD SVG 1.1//EN"
 "http://www.w3.org/Graphics/SVG/1.1/DTD/svg11.dtd">
<!-- Generated by graphviz version 2.43.0 (0)
 -->
<!-- Title: amip_interp_type Pages: 1 -->
<svg width="312pt" height="206pt"
 viewBox="0.00 0.00 312.00 206.00" xmlns="http://www.w3.org/2000/svg" xmlns:xlink="http://www.w3.org/1999/xlink">
<g id="graph0" class="graph" transform="scale(1 1) rotate(0) translate(4 202)">
<title>amip_interp_type</title>
<polygon fill="white" stroke="transparent" points="-4,4 -4,-202 308,-202 308,4 -4,4"/>
<!-- Node1 -->
<g id="node1" class="node">
<title>Node1</title>
<g id="a_node1"><a xlink:title="Contains information needed by the interpolation module (exchange_mod) and buffers data.">
<polygon fill="#bfbfbf" stroke="black" points="116.5,-0.5 116.5,-19.5 218.5,-19.5 218.5,-0.5 116.5,-0.5"/>
<text text-anchor="middle" x="167.5" y="-7.5" font-family="Helvetica,sans-Serif" font-size="10.00">amip_interp_type</text>
</a>
</g>
</g>
<!-- Node2 -->
<g id="node2" class="node">
<title>Node2</title>
<g id="a_node2"><a xlink:title=" ">
<polygon fill="white" stroke="#bfbfbf" points="0,-89.5 0,-108.5 49,-108.5 49,-89.5 0,-89.5"/>
<text text-anchor="middle" x="24.5" y="-96.5" font-family="Helvetica,sans-Serif" font-size="10.00">logical</text>
</a>
</g>
</g>
<!-- Node2&#45;&gt;Node1 -->
<g id="edge1" class="edge">
<title>Node2&#45;&gt;Node1</title>
<path fill="none" stroke="#9a32cd" stroke-dasharray="5,2" d="M23.2,-78.92C23.38,-65.69 25.96,-48.6 36.5,-38 47.71,-26.72 84.44,-19.78 116.17,-15.77"/>
<polygon fill="#9a32cd" stroke="#9a32cd" points="19.71,-79.41 23.51,-89.3 26.71,-79.19 19.71,-79.41"/>
<text text-anchor="middle" x="75.5" y="-63" font-family="Helvetica,sans-Serif" font-size="10.00"> use_climo</text>
<text text-anchor="middle" x="75.5" y="-52" font-family="Helvetica,sans-Serif" font-size="10.00">i_am_initialized</text>
<text text-anchor="middle" x="75.5" y="-41" font-family="Helvetica,sans-Serif" font-size="10.00">use_annual</text>
</g>
<!-- Node3 -->
<g id="node3" class="node">
<title>Node3</title>
<g id="a_node3"><a xlink:href="group__amip__interp__mod.html#structamip__interp__mod_1_1date__type" target="_top" xlink:title="Private data type for representing a calendar date.">
<polygon fill="white" stroke="black" points="67,-89.5 67,-108.5 132,-108.5 132,-89.5 67,-89.5"/>
<text text-anchor="middle" x="99.5" y="-96.5" font-family="Helvetica,sans-Serif" font-size="10.00">date_type</text>
</a>
</g>
</g>
<!-- Node3&#45;&gt;Node1 -->
<g id="edge2" class="edge">
<title>Node3&#45;&gt;Node1</title>
<path fill="none" stroke="#9a32cd" stroke-dasharray="5,2" d="M110.95,-80.83C119.32,-68.6 131.14,-51.93 142.5,-38 147.67,-31.66 153.92,-24.91 158.88,-19.75"/>
<polygon fill="#9a32cd" stroke="#9a32cd" points="108,-78.96 105.3,-89.2 113.8,-82.88 108,-78.96"/>
<text text-anchor="middle" x="158" y="-57.5" font-family="Helvetica,sans-Serif" font-size="10.00"> date2</text>
<text text-anchor="middle" x="158" y="-46.5" font-family="Helvetica,sans-Serif" font-size="10.00">date1</text>
</g>
<!-- Node4 -->
<g id="node4" class="node">
<title>Node4</title>
<g id="a_node4"><a xlink:title=" ">
<polygon fill="white" stroke="#bfbfbf" points="74,-178.5 74,-197.5 125,-197.5 125,-178.5 74,-178.5"/>
<text text-anchor="middle" x="99.5" y="-185.5" font-family="Helvetica,sans-Serif" font-size="10.00">integer</text>
</a>
</g>
</g>
<!-- Node4&#45;&gt;Node3 -->
<g id="edge3" class="edge">
<title>Node4&#45;&gt;Node3</title>
<path fill="none" stroke="#9a32cd" stroke-dasharray="5,2" d="M99.5,-168.19C99.5,-149.74 99.5,-122.41 99.5,-108.62"/>
<polygon fill="#9a32cd" stroke="#9a32cd" points="96,-168.34 99.5,-178.34 103,-168.34 96,-168.34"/>
<text text-anchor="middle" x="115.5" y="-152" font-family="Helvetica,sans-Serif" font-size="10.00"> day</text>
<text text-anchor="middle" x="115.5" y="-141" font-family="Helvetica,sans-Serif" font-size="10.00">month</text>
<text text-anchor="middle" x="115.5" y="-130" font-family="Helvetica,sans-Serif" font-size="10.00">year</text>
</g>
<!-- Node5 -->
<g id="node5" class="node">
<title>Node5</title>
<g id="a_node5"><a xlink:title=" ">
<polygon fill="white" stroke="#bfbfbf" points="150,-89.5 150,-108.5 251,-108.5 251,-89.5 150,-89.5"/>
<text text-anchor="middle" x="200.5" y="-96.5" font-family="Helvetica,sans-Serif" font-size="10.00">horiz_interp_type</text>
</a>
</g>
</g>
<!-- Node5&#45;&gt;Node1 -->
<g id="edge4" class="edge">
<title>Node5&#45;&gt;Node1</title>
<path fill="none" stroke="#9a32cd" stroke-dasharray="5,2" d="M193.66,-79.97C186.66,-61.51 176.08,-33.61 170.77,-19.62"/>
<polygon fill="#9a32cd" stroke="#9a32cd" points="190.4,-81.23 197.22,-89.34 196.94,-78.75 190.4,-81.23"/>
<text text-anchor="middle" x="207" y="-57.5" font-family="Helvetica,sans-Serif" font-size="10.00"> hintrp</text>
<text text-anchor="middle" x="207" y="-46.5" font-family="Helvetica,sans-Serif" font-size="10.00">hintrp2</text>
</g>
<!-- Node6 -->
<g id="node6" class="node">
<title>Node6</title>
<g id="a_node6"><a xlink:title=" ">
<polygon fill="white" stroke="#bfbfbf" points="269,-89.5 269,-108.5 304,-108.5 304,-89.5 269,-89.5"/>
<text text-anchor="middle" x="286.5" y="-96.5" font-family="Helvetica,sans-Serif" font-size="10.00">real</text>
</a>
</g>
</g>
<!-- Node6&#45;&gt;Node1 -->
<g id="edge5" class="edge">
<title>Node6&#45;&gt;Node1</title>
<path fill="none" stroke="#9a32cd" stroke-dasharray="5,2" d="M273.55,-81.44C262.64,-68.33 246.04,-50.25 228.5,-38 217.58,-30.38 204.16,-24.15 192.69,-19.61"/>
<polygon fill="#9a32cd" stroke="#9a32cd" points="270.84,-83.65 279.85,-89.22 276.28,-79.25 270.84,-83.65"/>
<text text-anchor="middle" x="278" y="-57.5" font-family="Helvetica,sans-Serif" font-size="10.00"> data1</text>
<text text-anchor="middle" x="278" y="-46.5" font-family="Helvetica,sans-Serif" font-size="10.00">data2</text>
</g>
</g>
</svg>
