<?xml version="1.0" encoding="UTF-8" standalone="no"?>
<!DOCTYPE svg PUBLIC "-//W3C//DTD SVG 1.1//EN"
 "http://www.w3.org/Graphics/SVG/1.1/DTD/svg11.dtd">
<!-- Generated by graphviz version 2.43.0 (0)
 -->
<!-- Title: grid_type Pages: 1 -->
<svg width="454pt" height="573pt"
 viewBox="0.00 0.00 454.00 572.51" xmlns="http://www.w3.org/2000/svg" xmlns:xlink="http://www.w3.org/1999/xlink">
<g id="graph0" class="graph" transform="scale(1 1) rotate(0) translate(4 568.51)">
<title>grid_type</title>
<polygon fill="white" stroke="transparent" points="-4,4 -4,-568.51 450,-568.51 450,4 -4,4"/>
<!-- Node1 -->
<g id="node1" class="node">
<title>Node1</title>
<g id="a_node1"><a xlink:title="Private type to hold all data needed from given grid for an exchange grid.">
<polygon fill="#bfbfbf" stroke="black" points="384,-254.01 384,-273.01 446,-273.01 446,-254.01 384,-254.01"/>
<text text-anchor="middle" x="415" y="-261.01" font-family="Helvetica,sans-Serif" font-size="10.00">grid_type</text>
</a>
</g>
</g>
<!-- Node2 -->
<g id="node2" class="node">
<title>Node2</title>
<g id="a_node2"><a xlink:title=" ">
<polygon fill="white" stroke="#bfbfbf" points="184,-545.01 184,-564.01 233,-564.01 233,-545.01 184,-545.01"/>
<text text-anchor="middle" x="208.5" y="-552.01" font-family="Helvetica,sans-Serif" font-size="10.00">logical</text>
</a>
</g>
</g>
<!-- Node2&#45;&gt;Node1 -->
<g id="edge1" class="edge">
<title>Node2&#45;&gt;Node1</title>
<path fill="none" stroke="#9a32cd" stroke-dasharray="5,2" d="M242.66,-544.33C278.78,-531.48 335.47,-505.78 366,-463.51 410.53,-401.85 414.19,-304.34 414.16,-273.32"/>
<polygon fill="#9a32cd" stroke="#9a32cd" points="241.39,-541.07 233.06,-547.62 243.66,-547.69 241.39,-541.07"/>
<text text-anchor="middle" x="321" y="-554.51" font-family="Helvetica,sans-Serif" font-size="10.00"> is_ug</text>
<text text-anchor="middle" x="321" y="-543.51" font-family="Helvetica,sans-Serif" font-size="10.00">is_latlon</text>
<text text-anchor="middle" x="321" y="-532.51" font-family="Helvetica,sans-Serif" font-size="10.00">on_this_pe</text>
</g>
<!-- Node3 -->
<g id="node3" class="node">
<title>Node3</title>
<g id="a_node3"><a xlink:href="group__xgrid__mod.html#structxgrid__mod_1_1xcell__type" target="_top" xlink:title="Private type for cell indices and data in the exchange grid.">
<polygon fill="white" stroke="black" points="175,-275.01 175,-294.01 242,-294.01 242,-275.01 175,-275.01"/>
<text text-anchor="middle" x="208.5" y="-282.01" font-family="Helvetica,sans-Serif" font-size="10.00">xcell_type</text>
</a>
</g>
</g>
<!-- Node3&#45;&gt;Node1 -->
<g id="edge2" class="edge">
<title>Node3&#45;&gt;Node1</title>
<path fill="none" stroke="#9a32cd" stroke-dasharray="5,2" d="M252.46,-280.1C291.85,-276.05 349.18,-270.17 383.89,-266.6"/>
<polygon fill="#9a32cd" stroke="#9a32cd" points="251.95,-276.63 242.36,-281.13 252.66,-283.59 251.95,-276.63"/>
<text text-anchor="middle" x="321" y="-290.51" font-family="Helvetica,sans-Serif" font-size="10.00"> x</text>
<text text-anchor="middle" x="321" y="-279.51" font-family="Helvetica,sans-Serif" font-size="10.00">x_repro</text>
</g>
<!-- Node4 -->
<g id="node4" class="node">
<title>Node4</title>
<g id="a_node4"><a xlink:title=" ">
<polygon fill="white" stroke="#bfbfbf" points="0,-304.01 0,-323.01 79,-323.01 79,-304.01 0,-304.01"/>
<text text-anchor="middle" x="39.5" y="-311.01" font-family="Helvetica,sans-Serif" font-size="10.00">real(r8_kind)</text>
</a>
</g>
</g>
<!-- Node4&#45;&gt;Node1 -->
<g id="edge9" class="edge">
<title>Node4&#45;&gt;Node1</title>
<path fill="none" stroke="#9a32cd" stroke-dasharray="5,2" d="M43.04,-332.94C47.9,-361.21 61.4,-412.76 97,-435.51 113.48,-446.04 121.86,-439.5 141,-435.51 247.78,-413.26 282.79,-408.03 366,-337.51 387.49,-319.29 402.89,-289.03 409.85,-273.45"/>
<polygon fill="#9a32cd" stroke="#9a32cd" points="46.5,-332.4 41.53,-323.04 39.58,-333.45 46.5,-332.4"/>
<text text-anchor="middle" x="208.5" y="-499.51" font-family="Helvetica,sans-Serif" font-size="10.00"> area_inv</text>
<text text-anchor="middle" x="208.5" y="-488.51" font-family="Helvetica,sans-Serif" font-size="10.00">lon</text>
<text text-anchor="middle" x="208.5" y="-477.51" font-family="Helvetica,sans-Serif" font-size="10.00">lat</text>
<text text-anchor="middle" x="208.5" y="-466.51" font-family="Helvetica,sans-Serif" font-size="10.00">frac_area</text>
<text text-anchor="middle" x="208.5" y="-455.51" font-family="Helvetica,sans-Serif" font-size="10.00">geolon</text>
<text text-anchor="middle" x="208.5" y="-444.51" font-family="Helvetica,sans-Serif" font-size="10.00">area</text>
<text text-anchor="middle" x="208.5" y="-433.51" font-family="Helvetica,sans-Serif" font-size="10.00">geolat</text>
</g>
<!-- Node4&#45;&gt;Node3 -->
<g id="edge3" class="edge">
<title>Node4&#45;&gt;Node3</title>
<path fill="none" stroke="#9a32cd" stroke-dasharray="5,2" d="M54.66,-295.97C65.02,-284.6 80.16,-270.79 97,-264.51 115.32,-257.67 121.65,-261.66 141,-264.51 154.84,-266.54 169.79,-270.84 182,-274.93"/>
<polygon fill="#9a32cd" stroke="#9a32cd" points="51.89,-293.81 48,-303.67 57.19,-298.39 51.89,-293.81"/>
<text text-anchor="middle" x="119" y="-300.51" font-family="Helvetica,sans-Serif" font-size="10.00"> scale</text>
<text text-anchor="middle" x="119" y="-289.51" font-family="Helvetica,sans-Serif" font-size="10.00">di</text>
<text text-anchor="middle" x="119" y="-278.51" font-family="Helvetica,sans-Serif" font-size="10.00">dj</text>
<text text-anchor="middle" x="119" y="-267.51" font-family="Helvetica,sans-Serif" font-size="10.00">area</text>
</g>
<!-- Node8 -->
<g id="node8" class="node">
<title>Node8</title>
<g id="a_node8"><a xlink:href="group__xgrid__mod.html#structxgrid__mod_1_1grid__box__type" target="_top" xlink:title="Type to hold pointers for grid boxes.">
<polygon fill="white" stroke="black" points="165.5,-315.01 165.5,-334.01 251.5,-334.01 251.5,-315.01 165.5,-315.01"/>
<text text-anchor="middle" x="208.5" y="-322.01" font-family="Helvetica,sans-Serif" font-size="10.00">grid_box_type</text>
</a>
</g>
</g>
<!-- Node4&#45;&gt;Node8 -->
<g id="edge8" class="edge">
<title>Node4&#45;&gt;Node8</title>
<path fill="none" stroke="#9a32cd" stroke-dasharray="5,2" d="M89.65,-312.63C106,-312.7 124.31,-313.18 141,-314.51 148.91,-315.14 157.32,-316.14 165.39,-317.27"/>
<polygon fill="#9a32cd" stroke="#9a32cd" points="89.21,-309.13 79.21,-312.64 89.21,-316.13 89.21,-309.13"/>
<text text-anchor="middle" x="119" y="-427.51" font-family="Helvetica,sans-Serif" font-size="10.00"> edge_s</text>
<text text-anchor="middle" x="119" y="-416.51" font-family="Helvetica,sans-Serif" font-size="10.00">edge_e</text>
<text text-anchor="middle" x="119" y="-405.51" font-family="Helvetica,sans-Serif" font-size="10.00">dx</text>
<text text-anchor="middle" x="119" y="-394.51" font-family="Helvetica,sans-Serif" font-size="10.00">edge_w</text>
<text text-anchor="middle" x="119" y="-383.51" font-family="Helvetica,sans-Serif" font-size="10.00">dy</text>
<text text-anchor="middle" x="119" y="-372.51" font-family="Helvetica,sans-Serif" font-size="10.00">vlon</text>
<text text-anchor="middle" x="119" y="-361.51" font-family="Helvetica,sans-Serif" font-size="10.00">en1</text>
<text text-anchor="middle" x="119" y="-350.51" font-family="Helvetica,sans-Serif" font-size="10.00">en2</text>
<text text-anchor="middle" x="119" y="-339.51" font-family="Helvetica,sans-Serif" font-size="10.00">vlat</text>
<text text-anchor="middle" x="119" y="-328.51" font-family="Helvetica,sans-Serif" font-size="10.00">edge_n</text>
<text text-anchor="middle" x="119" y="-317.51" font-family="Helvetica,sans-Serif" font-size="10.00">...</text>
</g>
<!-- Node5 -->
<g id="node5" class="node">
<title>Node5</title>
<g id="a_node5"><a xlink:title=" ">
<polygon fill="white" stroke="#bfbfbf" points="14,-88.01 14,-107.01 65,-107.01 65,-88.01 14,-88.01"/>
<text text-anchor="middle" x="39.5" y="-95.01" font-family="Helvetica,sans-Serif" font-size="10.00">integer</text>
</a>
</g>
</g>
<!-- Node5&#45;&gt;Node1 -->
<g id="edge10" class="edge">
<title>Node5&#45;&gt;Node1</title>
<path fill="none" stroke="#9a32cd" stroke-dasharray="5,2" d="M69.63,-83.78C112.94,-65.48 195.89,-38.65 258,-68.51 342.4,-109.07 395.43,-220.01 409.95,-253.69"/>
<polygon fill="#9a32cd" stroke="#9a32cd" points="68.02,-80.66 60.26,-87.87 70.82,-87.08 68.02,-80.66"/>
<text text-anchor="middle" x="208.5" y="-181.51" font-family="Helvetica,sans-Serif" font-size="10.00"> ied_me</text>
<text text-anchor="middle" x="208.5" y="-170.51" font-family="Helvetica,sans-Serif" font-size="10.00">km</text>
<text text-anchor="middle" x="208.5" y="-159.51" font-family="Helvetica,sans-Serif" font-size="10.00">size</text>
<text text-anchor="middle" x="208.5" y="-148.51" font-family="Helvetica,sans-Serif" font-size="10.00">last_get</text>
<text text-anchor="middle" x="208.5" y="-137.51" font-family="Helvetica,sans-Serif" font-size="10.00">jm</text>
<text text-anchor="middle" x="208.5" y="-126.51" font-family="Helvetica,sans-Serif" font-size="10.00">ge_me</text>
<text text-anchor="middle" x="208.5" y="-115.51" font-family="Helvetica,sans-Serif" font-size="10.00">im</text>
<text text-anchor="middle" x="208.5" y="-104.51" font-family="Helvetica,sans-Serif" font-size="10.00">pelist</text>
<text text-anchor="middle" x="208.5" y="-93.51" font-family="Helvetica,sans-Serif" font-size="10.00">nxl_me</text>
<text text-anchor="middle" x="208.5" y="-82.51" font-family="Helvetica,sans-Serif" font-size="10.00">ie_me</text>
<text text-anchor="middle" x="208.5" y="-71.51" font-family="Helvetica,sans-Serif" font-size="10.00">...</text>
</g>
<!-- Node5&#45;&gt;Node3 -->
<g id="edge4" class="edge">
<title>Node5&#45;&gt;Node3</title>
<path fill="none" stroke="#9a32cd" stroke-dasharray="5,2" d="M74.55,-109.13C97.02,-118.61 125.13,-134.26 141,-157.51 168.43,-197.7 128.35,-227.71 159,-265.51 163.16,-270.64 168.89,-274.38 174.96,-277.12"/>
<polygon fill="#9a32cd" stroke="#9a32cd" points="75.59,-105.78 65.01,-105.33 73,-112.28 75.59,-105.78"/>
<text text-anchor="middle" x="119" y="-248.51" font-family="Helvetica,sans-Serif" font-size="10.00"> pe</text>
<text text-anchor="middle" x="119" y="-237.51" font-family="Helvetica,sans-Serif" font-size="10.00">l1</text>
<text text-anchor="middle" x="119" y="-226.51" font-family="Helvetica,sans-Serif" font-size="10.00">l2</text>
<text text-anchor="middle" x="119" y="-215.51" font-family="Helvetica,sans-Serif" font-size="10.00">j1</text>
<text text-anchor="middle" x="119" y="-204.51" font-family="Helvetica,sans-Serif" font-size="10.00">j2</text>
<text text-anchor="middle" x="119" y="-193.51" font-family="Helvetica,sans-Serif" font-size="10.00">i1</text>
<text text-anchor="middle" x="119" y="-182.51" font-family="Helvetica,sans-Serif" font-size="10.00">i2</text>
<text text-anchor="middle" x="119" y="-171.51" font-family="Helvetica,sans-Serif" font-size="10.00">recv_pos</text>
<text text-anchor="middle" x="119" y="-160.51" font-family="Helvetica,sans-Serif" font-size="10.00">tile</text>
</g>
<!-- Node6 -->
<g id="node6" class="node">
<title>Node6</title>
<g id="a_node6"><a xlink:title=" ">
<polygon fill="white" stroke="#bfbfbf" points="159,-237.01 159,-256.01 258,-256.01 258,-237.01 159,-237.01"/>
<text text-anchor="middle" x="208.5" y="-244.01" font-family="Helvetica,sans-Serif" font-size="10.00">character(len=3)</text>
</a>
</g>
</g>
<!-- Node6&#45;&gt;Node1 -->
<g id="edge5" class="edge">
<title>Node6&#45;&gt;Node1</title>
<path fill="none" stroke="#9a32cd" stroke-dasharray="5,2" d="M268.27,-242.53C297.79,-241.64 333.99,-242.21 366,-247.51 373.97,-248.83 382.41,-251.27 389.96,-253.85"/>
<polygon fill="#9a32cd" stroke="#9a32cd" points="267.99,-239.04 258.13,-242.91 268.25,-246.04 267.99,-239.04"/>
<text text-anchor="middle" x="321" y="-250.51" font-family="Helvetica,sans-Serif" font-size="10.00"> id</text>
</g>
<!-- Node7 -->
<g id="node7" class="node">
<title>Node7</title>
<g id="a_node7"><a xlink:title=" ">
<polygon fill="white" stroke="#bfbfbf" points="161,-199.01 161,-218.01 256,-218.01 256,-199.01 161,-199.01"/>
<text text-anchor="middle" x="208.5" y="-206.01" font-family="Helvetica,sans-Serif" font-size="10.00">type(domainug)</text>
</a>
</g>
</g>
<!-- Node7&#45;&gt;Node1 -->
<g id="edge6" class="edge">
<title>Node7&#45;&gt;Node1</title>
<path fill="none" stroke="#9a32cd" stroke-dasharray="5,2" d="M266.37,-207.76C296.89,-209.13 334.58,-213.75 366,-226.51 381.21,-232.68 395.71,-245.07 404.71,-253.81"/>
<polygon fill="#9a32cd" stroke="#9a32cd" points="266.42,-204.26 256.31,-207.41 266.18,-211.25 266.42,-204.26"/>
<text text-anchor="middle" x="321" y="-229.51" font-family="Helvetica,sans-Serif" font-size="10.00"> ug_domain</text>
</g>
<!-- Node8&#45;&gt;Node1 -->
<g id="edge7" class="edge">
<title>Node8&#45;&gt;Node1</title>
<path fill="none" stroke="#9a32cd" stroke-dasharray="5,2" d="M261.96,-324.13C293.29,-322.23 333.23,-316.79 366,-302.51 381.55,-295.73 396.19,-282.46 405.12,-273.3"/>
<polygon fill="#9a32cd" stroke="#9a32cd" points="261.49,-320.65 251.68,-324.65 261.85,-327.64 261.49,-320.65"/>
<text text-anchor="middle" x="321" y="-325.51" font-family="Helvetica,sans-Serif" font-size="10.00"> box</text>
</g>
<!-- Node9 -->
<g id="node9" class="node">
<title>Node9</title>
<g id="a_node9"><a xlink:title=" ">
<polygon fill="white" stroke="#bfbfbf" points="161,-4.01 161,-23.01 256,-23.01 256,-4.01 161,-4.01"/>
<text text-anchor="middle" x="208.5" y="-11.01" font-family="Helvetica,sans-Serif" font-size="10.00">type(domain2d)</text>
</a>
</g>
</g>
<!-- Node9&#45;&gt;Node1 -->
<g id="edge11" class="edge">
<title>Node9&#45;&gt;Node1</title>
<path fill="none" stroke="#9a32cd" stroke-dasharray="5,2" d="M258.76,-2.4C292.9,2.23 337.21,1.67 366,-23.51 401.58,-54.63 411.57,-212.95 413.58,-253.85"/>
<polygon fill="#9a32cd" stroke="#9a32cd" points="257.87,1.01 248.53,-3.98 258.94,-5.91 257.87,1.01"/>
<text text-anchor="middle" x="321" y="-37.51" font-family="Helvetica,sans-Serif" font-size="10.00"> domain</text>
<text text-anchor="middle" x="321" y="-26.51" font-family="Helvetica,sans-Serif" font-size="10.00">domain_with_halo</text>
</g>
</g>
</svg>
