<?xml version="1.0" encoding="UTF-8" standalone="no"?>
<!DOCTYPE svg PUBLIC "-//W3C//DTD SVG 1.1//EN"
 "http://www.w3.org/Graphics/SVG/1.1/DTD/svg11.dtd">
<!-- Generated by graphviz version 2.43.0 (0)
 -->
<!-- Title: nestspec Pages: 1 -->
<svg width="324pt" height="418pt"
 viewBox="0.00 0.00 324.00 417.55" xmlns="http://www.w3.org/2000/svg" xmlns:xlink="http://www.w3.org/1999/xlink">
<g id="graph0" class="graph" transform="scale(1 1) rotate(0) translate(4 413.55)">
<title>nestspec</title>
<polygon fill="white" stroke="transparent" points="-4,4 -4,-413.55 320,-413.55 320,4 -4,4"/>
<!-- Node1 -->
<g id="node1" class="node">
<title>Node1</title>
<g id="a_node1"><a xlink:title="Used to specify bounds and index information for nested tiles as a linked list.">
<polygon fill="#bfbfbf" stroke="black" points="141.5,-1.05 141.5,-20.05 201.5,-20.05 201.5,-1.05 141.5,-1.05"/>
<text text-anchor="middle" x="171.5" y="-8.05" font-family="Helvetica,sans-Serif" font-size="10.00">nestspec</text>
</a>
</g>
</g>
<!-- Node1&#45;&gt;Node1 -->
<g id="edge6" class="edge">
<title>Node1&#45;&gt;Node1</title>
<path fill="none" stroke="#9a32cd" stroke-dasharray="5,2" d="M204.25,-20.58C212.93,-20.01 219.5,-16.66 219.5,-10.55 219.5,-2.21 207.31,0.98 194.22,-0.98"/>
<polygon fill="#9a32cd" stroke="#9a32cd" points="204.37,-17.08 194.22,-20.11 204.04,-24.08 204.37,-17.08"/>
<text text-anchor="middle" x="232" y="-8.05" font-family="Helvetica,sans-Serif" font-size="10.00"> next</text>
</g>
<!-- Node2 -->
<g id="node2" class="node">
<title>Node2</title>
<g id="a_node2"><a xlink:href="group__mpp__domains__mod.html#structmpp__domains__mod_1_1overlap__type" target="_top" xlink:title="Type for overlapping data.">
<polygon fill="white" stroke="black" points="55.5,-162.55 55.5,-181.55 135.5,-181.55 135.5,-162.55 55.5,-162.55"/>
<text text-anchor="middle" x="95.5" y="-169.55" font-family="Helvetica,sans-Serif" font-size="10.00">overlap_type</text>
</a>
</g>
</g>
<!-- Node2&#45;&gt;Node1 -->
<g id="edge1" class="edge">
<title>Node2&#45;&gt;Node1</title>
<path fill="none" stroke="#9a32cd" stroke-dasharray="5,2" d="M96.74,-152.32C99.38,-124.99 107.53,-73.61 132.5,-38.55 137.95,-30.9 146.27,-24.71 153.84,-20.19"/>
<polygon fill="#9a32cd" stroke="#9a32cd" points="93.24,-152.19 95.92,-162.44 100.22,-152.76 93.24,-152.19"/>
<text text-anchor="middle" x="145" y="-69.05" font-family="Helvetica,sans-Serif" font-size="10.00"> recv</text>
<text text-anchor="middle" x="145" y="-58.05" font-family="Helvetica,sans-Serif" font-size="10.00">send</text>
</g>
<!-- Node3 -->
<g id="node3" class="node">
<title>Node3</title>
<g id="a_node3"><a xlink:title=" ">
<polygon fill="white" stroke="#bfbfbf" points="0,-390.05 0,-409.05 49,-409.05 49,-390.05 0,-390.05"/>
<text text-anchor="middle" x="24.5" y="-397.05" font-family="Helvetica,sans-Serif" font-size="10.00">logical</text>
</a>
</g>
</g>
<!-- Node3&#45;&gt;Node2 -->
<g id="edge2" class="edge">
<title>Node3&#45;&gt;Node2</title>
<path fill="none" stroke="#9a32cd" stroke-dasharray="5,2" d="M20.52,-379.87C15.26,-351.01 8.49,-294.31 25.5,-250.55 37.26,-220.3 66.8,-194.46 83.5,-181.65"/>
<polygon fill="#9a32cd" stroke="#9a32cd" points="17.11,-380.67 22.48,-389.8 23.98,-379.31 17.11,-380.67"/>
<text text-anchor="middle" x="59.5" y="-308.55" font-family="Helvetica,sans-Serif" font-size="10.00"> from_contact</text>
</g>
<!-- Node4 -->
<g id="node4" class="node">
<title>Node4</title>
<g id="a_node4"><a xlink:title=" ">
<polygon fill="white" stroke="#bfbfbf" points="146,-390.05 146,-409.05 197,-409.05 197,-390.05 146,-390.05"/>
<text text-anchor="middle" x="171.5" y="-397.05" font-family="Helvetica,sans-Serif" font-size="10.00">integer</text>
</a>
</g>
</g>
<!-- Node4&#45;&gt;Node1 -->
<g id="edge7" class="edge">
<title>Node4&#45;&gt;Node1</title>
<path fill="none" stroke="#9a32cd" stroke-dasharray="5,2" d="M171.5,-379.36C171.5,-309.29 171.5,-68.84 171.5,-20.17"/>
<polygon fill="#9a32cd" stroke="#9a32cd" points="168,-379.74 171.5,-389.74 175,-379.74 168,-379.74"/>
<text text-anchor="middle" x="199" y="-224.55" font-family="Helvetica,sans-Serif" font-size="10.00"> extra_halo</text>
<text text-anchor="middle" x="199" y="-213.55" font-family="Helvetica,sans-Serif" font-size="10.00">nrecv</text>
<text text-anchor="middle" x="199" y="-202.55" font-family="Helvetica,sans-Serif" font-size="10.00">nsend</text>
<text text-anchor="middle" x="199" y="-191.55" font-family="Helvetica,sans-Serif" font-size="10.00">xbegin</text>
<text text-anchor="middle" x="199" y="-180.55" font-family="Helvetica,sans-Serif" font-size="10.00">xbegin_c</text>
<text text-anchor="middle" x="199" y="-169.55" font-family="Helvetica,sans-Serif" font-size="10.00">xbegin_f</text>
<text text-anchor="middle" x="199" y="-158.55" font-family="Helvetica,sans-Serif" font-size="10.00">xend</text>
<text text-anchor="middle" x="199" y="-147.55" font-family="Helvetica,sans-Serif" font-size="10.00">xend_c</text>
<text text-anchor="middle" x="199" y="-136.55" font-family="Helvetica,sans-Serif" font-size="10.00">xend_f</text>
<text text-anchor="middle" x="199" y="-125.55" font-family="Helvetica,sans-Serif" font-size="10.00">xsize_c</text>
<text text-anchor="middle" x="199" y="-114.55" font-family="Helvetica,sans-Serif" font-size="10.00">...</text>
</g>
<!-- Node4&#45;&gt;Node2 -->
<g id="edge3" class="edge">
<title>Node4&#45;&gt;Node2</title>
<path fill="none" stroke="#9a32cd" stroke-dasharray="5,2" d="M136.72,-387.98C128.92,-384.03 121.49,-378.69 116.5,-371.55 94.66,-340.3 94.85,-216.16 95.33,-181.86"/>
<polygon fill="#9a32cd" stroke="#9a32cd" points="135.35,-391.2 145.92,-392.01 138.17,-384.79 135.35,-391.2"/>
<text text-anchor="middle" x="137" y="-363.55" font-family="Helvetica,sans-Serif" font-size="10.00"> count</text>
<text text-anchor="middle" x="137" y="-352.55" font-family="Helvetica,sans-Serif" font-size="10.00">dir</text>
<text text-anchor="middle" x="137" y="-341.55" font-family="Helvetica,sans-Serif" font-size="10.00">ie</text>
<text text-anchor="middle" x="137" y="-330.55" font-family="Helvetica,sans-Serif" font-size="10.00">index</text>
<text text-anchor="middle" x="137" y="-319.55" font-family="Helvetica,sans-Serif" font-size="10.00">is</text>
<text text-anchor="middle" x="137" y="-308.55" font-family="Helvetica,sans-Serif" font-size="10.00">je</text>
<text text-anchor="middle" x="137" y="-297.55" font-family="Helvetica,sans-Serif" font-size="10.00">js</text>
<text text-anchor="middle" x="137" y="-286.55" font-family="Helvetica,sans-Serif" font-size="10.00">msgsize</text>
<text text-anchor="middle" x="137" y="-275.55" font-family="Helvetica,sans-Serif" font-size="10.00">pe</text>
<text text-anchor="middle" x="137" y="-264.55" font-family="Helvetica,sans-Serif" font-size="10.00">rotation</text>
<text text-anchor="middle" x="137" y="-253.55" font-family="Helvetica,sans-Serif" font-size="10.00">...</text>
</g>
<!-- Node5 -->
<g id="node5" class="node">
<title>Node5</title>
<g id="a_node5"><a xlink:href="group__mpp__domains__mod.html#structmpp__domains__mod_1_1index__type" target="_top" xlink:title="index bounds for use in nestSpec">
<polygon fill="white" stroke="black" points="245,-162.55 245,-181.55 316,-181.55 316,-162.55 245,-162.55"/>
<text text-anchor="middle" x="280.5" y="-169.55" font-family="Helvetica,sans-Serif" font-size="10.00">index_type</text>
</a>
</g>
</g>
<!-- Node4&#45;&gt;Node5 -->
<g id="edge5" class="edge">
<title>Node4&#45;&gt;Node5</title>
<path fill="none" stroke="#9a32cd" stroke-dasharray="5,2" d="M180.92,-380.58C182.47,-377.57 184.04,-374.48 185.5,-371.55 221.8,-298.71 263.46,-209.66 276.43,-181.8"/>
<polygon fill="#9a32cd" stroke="#9a32cd" points="177.74,-379.09 176.24,-389.58 183.96,-382.32 177.74,-379.09"/>
<text text-anchor="middle" x="260.5" y="-347.05" font-family="Helvetica,sans-Serif" font-size="10.00"> ie_me</text>
<text text-anchor="middle" x="260.5" y="-336.05" font-family="Helvetica,sans-Serif" font-size="10.00">ie_you</text>
<text text-anchor="middle" x="260.5" y="-325.05" font-family="Helvetica,sans-Serif" font-size="10.00">is_me</text>
<text text-anchor="middle" x="260.5" y="-314.05" font-family="Helvetica,sans-Serif" font-size="10.00">is_you</text>
<text text-anchor="middle" x="260.5" y="-303.05" font-family="Helvetica,sans-Serif" font-size="10.00">je_me</text>
<text text-anchor="middle" x="260.5" y="-292.05" font-family="Helvetica,sans-Serif" font-size="10.00">je_you</text>
<text text-anchor="middle" x="260.5" y="-281.05" font-family="Helvetica,sans-Serif" font-size="10.00">js_me</text>
<text text-anchor="middle" x="260.5" y="-270.05" font-family="Helvetica,sans-Serif" font-size="10.00">js_you</text>
</g>
<!-- Node5&#45;&gt;Node1 -->
<g id="edge4" class="edge">
<title>Node5&#45;&gt;Node1</title>
<path fill="none" stroke="#9a32cd" stroke-dasharray="5,2" d="M268.92,-154.09C245.81,-120.28 194.73,-45.53 177.39,-20.16"/>
<polygon fill="#9a32cd" stroke="#9a32cd" points="266.11,-156.19 274.64,-162.47 271.89,-152.24 266.11,-156.19"/>
<text text-anchor="middle" x="243.5" y="-85.55" font-family="Helvetica,sans-Serif" font-size="10.00"> center</text>
<text text-anchor="middle" x="243.5" y="-74.55" font-family="Helvetica,sans-Serif" font-size="10.00">east</text>
<text text-anchor="middle" x="243.5" y="-63.55" font-family="Helvetica,sans-Serif" font-size="10.00">north</text>
<text text-anchor="middle" x="243.5" y="-52.55" font-family="Helvetica,sans-Serif" font-size="10.00">south</text>
<text text-anchor="middle" x="243.5" y="-41.55" font-family="Helvetica,sans-Serif" font-size="10.00">west</text>
</g>
</g>
</svg>
