<?xml version="1.0" encoding="UTF-8" standalone="no"?>
<!DOCTYPE svg PUBLIC "-//W3C//DTD SVG 1.1//EN"
 "http://www.w3.org/Graphics/SVG/1.1/DTD/svg11.dtd">
<!-- Generated by graphviz version 2.43.0 (0)
 -->
<!-- Title: unstruct_pass_type Pages: 1 -->
<svg width="204pt" height="208pt"
 viewBox="0.00 0.00 204.00 208.00" xmlns="http://www.w3.org/2000/svg" xmlns:xlink="http://www.w3.org/1999/xlink">
<g id="graph0" class="graph" transform="scale(1 1) rotate(0) translate(4 204)">
<title>unstruct_pass_type</title>
<polygon fill="white" stroke="transparent" points="-4,4 -4,-204 200,-204 200,4 -4,4"/>
<!-- Node1 -->
<g id="node1" class="node">
<title>Node1</title>
<g id="a_node1"><a xlink:title="Private type.">
<polygon fill="#bfbfbf" stroke="black" points="0,-0.5 0,-19.5 111,-19.5 111,-0.5 0,-0.5"/>
<text text-anchor="middle" x="55.5" y="-7.5" font-family="Helvetica,sans-Serif" font-size="10.00">unstruct_pass_type</text>
</a>
</g>
</g>
<!-- Node2 -->
<g id="node2" class="node">
<title>Node2</title>
<g id="a_node2"><a xlink:href="group__mpp__domains__mod.html#structmpp__domains__mod_1_1unstruct__overlap__type" target="_top" xlink:title="Private type.">
<polygon fill="white" stroke="black" points="71,-79.5 71,-98.5 196,-98.5 196,-79.5 71,-79.5"/>
<text text-anchor="middle" x="133.5" y="-86.5" font-family="Helvetica,sans-Serif" font-size="10.00">unstruct_overlap_type</text>
</a>
</g>
</g>
<!-- Node2&#45;&gt;Node1 -->
<g id="edge1" class="edge">
<title>Node2&#45;&gt;Node1</title>
<path fill="none" stroke="#9a32cd" stroke-dasharray="5,2" d="M117.73,-72.43C101.69,-56.6 77.4,-32.62 64.42,-19.81"/>
<polygon fill="#9a32cd" stroke="#9a32cd" points="115.28,-74.93 124.85,-79.47 120.2,-69.95 115.28,-74.93"/>
<text text-anchor="middle" x="116" y="-52" font-family="Helvetica,sans-Serif" font-size="10.00"> recv</text>
<text text-anchor="middle" x="116" y="-41" font-family="Helvetica,sans-Serif" font-size="10.00">send</text>
</g>
<!-- Node3 -->
<g id="node3" class="node">
<title>Node3</title>
<g id="a_node3"><a xlink:title=" ">
<polygon fill="white" stroke="#bfbfbf" points="10,-180.5 10,-199.5 61,-199.5 61,-180.5 10,-180.5"/>
<text text-anchor="middle" x="35.5" y="-187.5" font-family="Helvetica,sans-Serif" font-size="10.00">integer</text>
</a>
</g>
</g>
<!-- Node3&#45;&gt;Node1 -->
<g id="edge3" class="edge">
<title>Node3&#45;&gt;Node1</title>
<path fill="none" stroke="#9a32cd" stroke-dasharray="5,2" d="M31.79,-170.21C28.01,-147.99 23.51,-109.98 29.5,-78 33.59,-56.17 44.56,-32.31 50.87,-19.79"/>
<polygon fill="#9a32cd" stroke="#9a32cd" points="28.39,-171.07 33.63,-180.27 35.27,-169.81 28.39,-171.07"/>
<text text-anchor="middle" x="46" y="-92" font-family="Helvetica,sans-Serif" font-size="10.00"> nsend</text>
<text text-anchor="middle" x="46" y="-81" font-family="Helvetica,sans-Serif" font-size="10.00">nrecv</text>
</g>
<!-- Node3&#45;&gt;Node2 -->
<g id="edge2" class="edge">
<title>Node3&#45;&gt;Node2</title>
<path fill="none" stroke="#9a32cd" stroke-dasharray="5,2" d="M51.42,-172.92C72.4,-151.72 108.56,-115.2 124.96,-98.62"/>
<polygon fill="#9a32cd" stroke="#9a32cd" points="48.74,-170.65 44.2,-180.21 53.72,-175.57 48.74,-170.65"/>
<text text-anchor="middle" x="118.5" y="-154" font-family="Helvetica,sans-Serif" font-size="10.00"> i</text>
<text text-anchor="middle" x="118.5" y="-143" font-family="Helvetica,sans-Serif" font-size="10.00">j</text>
<text text-anchor="middle" x="118.5" y="-132" font-family="Helvetica,sans-Serif" font-size="10.00">pe</text>
<text text-anchor="middle" x="118.5" y="-121" font-family="Helvetica,sans-Serif" font-size="10.00">count</text>
</g>
</g>
</svg>
