<?xml version="1.0" encoding="UTF-8" standalone="no"?>
<!DOCTYPE svg PUBLIC "-//W3C//DTD SVG 1.1//EN"
 "http://www.w3.org/Graphics/SVG/1.1/DTD/svg11.dtd">
<!-- Generated by graphviz version 2.43.0 (0)
 -->
<!-- Title: unstruct_domain_spec Pages: 1 -->
<svg width="198pt" height="230pt"
 viewBox="0.00 0.00 198.00 230.00" xmlns="http://www.w3.org/2000/svg" xmlns:xlink="http://www.w3.org/1999/xlink">
<g id="graph0" class="graph" transform="scale(1 1) rotate(0) translate(4 226)">
<title>unstruct_domain_spec</title>
<polygon fill="white" stroke="transparent" points="-4,4 -4,-226 194,-226 194,4 -4,4"/>
<!-- Node1 -->
<g id="node1" class="node">
<title>Node1</title>
<g id="a_node1"><a xlink:title="Private type for axis specification data for an unstructured domain.">
<polygon fill="#bfbfbf" stroke="black" points="0,-0.5 0,-19.5 126,-19.5 126,-0.5 0,-0.5"/>
<text text-anchor="middle" x="63" y="-7.5" font-family="Helvetica,sans-Serif" font-size="10.00">unstruct_domain_spec</text>
</a>
</g>
</g>
<!-- Node2 -->
<g id="node2" class="node">
<title>Node2</title>
<g id="a_node2"><a xlink:href="group__mpp__domains__mod.html#structmpp__domains__mod_1_1unstruct__axis__spec" target="_top" xlink:title="Private type for axis specification data for an unstructured grid.">
<polygon fill="white" stroke="black" points="80,-74 80,-93 190,-93 190,-74 80,-74"/>
<text text-anchor="middle" x="135" y="-81" font-family="Helvetica,sans-Serif" font-size="10.00">unstruct_axis_spec</text>
</a>
</g>
</g>
<!-- Node2&#45;&gt;Node1 -->
<g id="edge1" class="edge">
<title>Node2&#45;&gt;Node1</title>
<path fill="none" stroke="#9a32cd" stroke-dasharray="5,2" d="M118.86,-66.47C104.35,-52.07 83.6,-31.45 71.9,-19.84"/>
<polygon fill="#9a32cd" stroke="#9a32cd" points="116.61,-69.17 126.17,-73.73 121.54,-64.2 116.61,-69.17"/>
<text text-anchor="middle" x="124" y="-41" font-family="Helvetica,sans-Serif" font-size="10.00"> compute</text>
</g>
<!-- Node3 -->
<g id="node3" class="node">
<title>Node3</title>
<g id="a_node3"><a xlink:title=" ">
<polygon fill="white" stroke="#bfbfbf" points="18.5,-202.5 18.5,-221.5 69.5,-221.5 69.5,-202.5 18.5,-202.5"/>
<text text-anchor="middle" x="44" y="-209.5" font-family="Helvetica,sans-Serif" font-size="10.00">integer</text>
</a>
</g>
</g>
<!-- Node3&#45;&gt;Node1 -->
<g id="edge3" class="edge">
<title>Node3&#45;&gt;Node1</title>
<path fill="none" stroke="#9a32cd" stroke-dasharray="5,2" d="M40.04,-192.58C34.78,-164.94 27.23,-111.25 37,-67 40.93,-49.21 51.11,-30.35 57.5,-19.69"/>
<polygon fill="#9a32cd" stroke="#9a32cd" points="36.62,-193.32 42.03,-202.43 43.48,-191.93 36.62,-193.32"/>
<text text-anchor="middle" x="54" y="-92" font-family="Helvetica,sans-Serif" font-size="10.00"> tile_id</text>
<text text-anchor="middle" x="54" y="-81" font-family="Helvetica,sans-Serif" font-size="10.00">pe</text>
<text text-anchor="middle" x="54" y="-70" font-family="Helvetica,sans-Serif" font-size="10.00">pos</text>
</g>
<!-- Node3&#45;&gt;Node2 -->
<g id="edge2" class="edge">
<title>Node3&#45;&gt;Node2</title>
<path fill="none" stroke="#9a32cd" stroke-dasharray="5,2" d="M56.14,-194.12C75.76,-166.86 113.72,-114.08 128.7,-93.26"/>
<polygon fill="#9a32cd" stroke="#9a32cd" points="53.25,-192.14 50.25,-202.31 58.94,-196.23 53.25,-192.14"/>
<text text-anchor="middle" x="140" y="-176" font-family="Helvetica,sans-Serif" font-size="10.00"> max_size</text>
<text text-anchor="middle" x="140" y="-165" font-family="Helvetica,sans-Serif" font-size="10.00">size</text>
<text text-anchor="middle" x="140" y="-154" font-family="Helvetica,sans-Serif" font-size="10.00">begin</text>
<text text-anchor="middle" x="140" y="-143" font-family="Helvetica,sans-Serif" font-size="10.00">end</text>
<text text-anchor="middle" x="140" y="-132" font-family="Helvetica,sans-Serif" font-size="10.00">end_index</text>
<text text-anchor="middle" x="140" y="-121" font-family="Helvetica,sans-Serif" font-size="10.00">begin_index</text>
</g>
</g>
</svg>
