<?xml version="1.0" encoding="UTF-8" standalone="no"?>
<!DOCTYPE svg PUBLIC "-//W3C//DTD SVG 1.1//EN"
 "http://www.w3.org/Graphics/SVG/1.1/DTD/svg11.dtd">
<!-- Generated by graphviz version 2.43.0 (0)
 -->
<!-- Title: drifters_comm_type Pages: 1 -->
<svg width="206pt" height="205pt"
 viewBox="0.00 0.00 205.50 205.00" xmlns="http://www.w3.org/2000/svg" xmlns:xlink="http://www.w3.org/1999/xlink">
<g id="graph0" class="graph" transform="scale(1 1) rotate(0) translate(4 201)">
<title>drifters_comm_type</title>
<polygon fill="white" stroke="transparent" points="-4,4 -4,-201 201.5,-201 201.5,4 -4,4"/>
<!-- Node1 -->
<g id="node1" class="node">
<title>Node1</title>
<g id="a_node1"><a xlink:title="Type for drifter communication between PE&#39;s.">
<polygon fill="#bfbfbf" stroke="black" points="39.5,-0.5 39.5,-19.5 153.5,-19.5 153.5,-0.5 39.5,-0.5"/>
<text text-anchor="middle" x="96.5" y="-7.5" font-family="Helvetica,sans-Serif" font-size="10.00">drifters_comm_type</text>
</a>
</g>
</g>
<!-- Node2 -->
<g id="node2" class="node">
<title>Node2</title>
<g id="a_node2"><a xlink:title=" ">
<polygon fill="white" stroke="#bfbfbf" points="0,-177.5 0,-196.5 49,-196.5 49,-177.5 0,-177.5"/>
<text text-anchor="middle" x="24.5" y="-184.5" font-family="Helvetica,sans-Serif" font-size="10.00">logical</text>
</a>
</g>
</g>
<!-- Node2&#45;&gt;Node1 -->
<g id="edge1" class="edge">
<title>Node2&#45;&gt;Node1</title>
<path fill="none" stroke="#9a32cd" stroke-dasharray="5,2" d="M21.72,-167.36C18.28,-137.23 15.85,-77.25 43.5,-38 49.39,-29.64 58.65,-23.71 67.79,-19.58"/>
<polygon fill="#9a32cd" stroke="#9a32cd" points="18.26,-167.88 23.03,-177.34 25.2,-166.97 18.26,-167.88"/>
<text text-anchor="middle" x="68" y="-101.5" font-family="Helvetica,sans-Serif" font-size="10.00"> xperiodic</text>
<text text-anchor="middle" x="68" y="-90.5" font-family="Helvetica,sans-Serif" font-size="10.00">yperiodic</text>
</g>
<!-- Node3 -->
<g id="node3" class="node">
<title>Node3</title>
<g id="a_node3"><a xlink:title=" ">
<polygon fill="white" stroke="#bfbfbf" points="71,-177.5 71,-196.5 122,-196.5 122,-177.5 71,-177.5"/>
<text text-anchor="middle" x="96.5" y="-184.5" font-family="Helvetica,sans-Serif" font-size="10.00">integer</text>
</a>
</g>
</g>
<!-- Node3&#45;&gt;Node1 -->
<g id="edge2" class="edge">
<title>Node3&#45;&gt;Node1</title>
<path fill="none" stroke="#9a32cd" stroke-dasharray="5,2" d="M96.5,-166.95C96.5,-129.3 96.5,-46.65 96.5,-19.69"/>
<polygon fill="#9a32cd" stroke="#9a32cd" points="93,-167.08 96.5,-177.08 100,-167.08 93,-167.08"/>
<text text-anchor="middle" x="116" y="-151" font-family="Helvetica,sans-Serif" font-size="10.00"> pe_beg</text>
<text text-anchor="middle" x="116" y="-140" font-family="Helvetica,sans-Serif" font-size="10.00">pe_e</text>
<text text-anchor="middle" x="116" y="-129" font-family="Helvetica,sans-Serif" font-size="10.00">pe_end</text>
<text text-anchor="middle" x="116" y="-118" font-family="Helvetica,sans-Serif" font-size="10.00">pe_n</text>
<text text-anchor="middle" x="116" y="-107" font-family="Helvetica,sans-Serif" font-size="10.00">pe_ne</text>
<text text-anchor="middle" x="116" y="-96" font-family="Helvetica,sans-Serif" font-size="10.00">pe_nw</text>
<text text-anchor="middle" x="116" y="-85" font-family="Helvetica,sans-Serif" font-size="10.00">pe_s</text>
<text text-anchor="middle" x="116" y="-74" font-family="Helvetica,sans-Serif" font-size="10.00">pe_se</text>
<text text-anchor="middle" x="116" y="-63" font-family="Helvetica,sans-Serif" font-size="10.00">pe_sw</text>
<text text-anchor="middle" x="116" y="-52" font-family="Helvetica,sans-Serif" font-size="10.00">pe_w</text>
<text text-anchor="middle" x="116" y="-41" font-family="Helvetica,sans-Serif" font-size="10.00">...</text>
</g>
<!-- Node4 -->
<g id="node4" class="node">
<title>Node4</title>
<g id="a_node4"><a xlink:title=" ">
<polygon fill="white" stroke="#bfbfbf" points="141,-177.5 141,-196.5 176,-196.5 176,-177.5 141,-177.5"/>
<text text-anchor="middle" x="158.5" y="-184.5" font-family="Helvetica,sans-Serif" font-size="10.00">real</text>
</a>
</g>
</g>
<!-- Node4&#45;&gt;Node1 -->
<g id="edge3" class="edge">
<title>Node4&#45;&gt;Node1</title>
<path fill="none" stroke="#9a32cd" stroke-dasharray="5,2" d="M160.32,-166.88C162.2,-136.96 161.93,-78.36 136.5,-38 131.59,-30.2 123.51,-24.12 115.9,-19.72"/>
<polygon fill="#9a32cd" stroke="#9a32cd" points="156.8,-166.92 159.51,-177.16 163.78,-167.47 156.8,-166.92"/>
<text text-anchor="middle" x="179" y="-151" font-family="Helvetica,sans-Serif" font-size="10.00"> xcmax</text>
<text text-anchor="middle" x="179" y="-140" font-family="Helvetica,sans-Serif" font-size="10.00">xcmin</text>
<text text-anchor="middle" x="179" y="-129" font-family="Helvetica,sans-Serif" font-size="10.00">xdmax</text>
<text text-anchor="middle" x="179" y="-118" font-family="Helvetica,sans-Serif" font-size="10.00">xdmin</text>
<text text-anchor="middle" x="179" y="-107" font-family="Helvetica,sans-Serif" font-size="10.00">xgmax</text>
<text text-anchor="middle" x="179" y="-96" font-family="Helvetica,sans-Serif" font-size="10.00">xgmin</text>
<text text-anchor="middle" x="179" y="-85" font-family="Helvetica,sans-Serif" font-size="10.00">ycmax</text>
<text text-anchor="middle" x="179" y="-74" font-family="Helvetica,sans-Serif" font-size="10.00">ycmin</text>
<text text-anchor="middle" x="179" y="-63" font-family="Helvetica,sans-Serif" font-size="10.00">ydmax</text>
<text text-anchor="middle" x="179" y="-52" font-family="Helvetica,sans-Serif" font-size="10.00">ydmin</text>
<text text-anchor="middle" x="179" y="-41" font-family="Helvetica,sans-Serif" font-size="10.00">...</text>
</g>
</g>
</svg>
