<?xml version="1.0" encoding="UTF-8" standalone="no"?>
<!DOCTYPE svg PUBLIC "-//W3C//DTD SVG 1.1//EN"
 "http://www.w3.org/Graphics/SVG/1.1/DTD/svg11.dtd">
<!-- Generated by graphviz version 2.43.0 (0)
 -->
<!-- Title: data_type Pages: 1 -->
<!--zoomable 139 -->
<svg id="main" version="1.1" xmlns="http://www.w3.org/2000/svg" xmlns:xlink="http://www.w3.org/1999/xlink" xml:space="preserve" onload="init(evt)">
<style type="text/css"><![CDATA[
.edge:hover path { stroke: red; }
.edge:hover polygon { stroke: red; fill: red; }
]]></style>
<script type="text/javascript"><![CDATA[
var edges = document.getElementsByTagName('g');
if (edges && edges.length) {
  for (var i=0;i<edges.length;i++) {
    if (edges[i].id.substr(0,4)=='edge') {
      edges[i].setAttribute('class','edge');
    }
  }
}
]]></script>
        <defs>
                <circle id="rim" cx="0" cy="0" r="7"/>
                <circle id="rim2" cx="0" cy="0" r="3.5"/>
                <g id="zoomPlus">
                        <use xlink:href="#rim" fill="#404040">
                                <set attributeName="fill" to="#808080" begin="zoomplus.mouseover" end="zoomplus.mouseout"/>
                        </use>
                        <path d="M-4,0h8M0,-4v8" fill="none" stroke="white" stroke-width="1.5" pointer-events="none"/>
                </g>
                <g id="zoomMin">
                        <use xlink:href="#rim" fill="#404040">
                                <set attributeName="fill" to="#808080" begin="zoomminus.mouseover" end="zoomminus.mouseout"/>
                        </use>
                        <path d="M-4,0h8" fill="none" stroke="white" stroke-width="1.5" pointer-events="none"/>
                </g>
                <g id="dirArrow">
                        <path fill="none" stroke="white" stroke-width="1.5" d="M0,-3.0v7 M-2.5,-0.5L0,-3.0L2.5,-0.5"/>
                </g>
               <g id="resetDef">
                       <use xlink:href="#rim2" fill="#404040">
                               <set attributeName="fill" to="#808080" begin="reset.mouseover" end="reset.mouseout"/>
                       </use>
               </g>
        </defs>

<script type="text/javascript">
var viewWidth = 523;
var viewHeight = 139;
var sectionId = 'dynsection-0';
</script>
<script xlink:href="svgpan.js"/>
<svg id="graph" class="graph">
<g id="viewport">
<title>data_type</title>
<polygon fill="white" stroke="transparent" points="-4,4 -4,-135 518.5,-135 518.5,4 -4,4"/>
<!-- Node1 -->
<g id="node1" class="node">
<title>Node1</title>
<g id="a_node1"><a xlink:title="Private type for holding field and grid information from a data table.">
<polygon fill="#bfbfbf" stroke="black" points="269,-0.5 269,-19.5 334,-19.5 334,-0.5 269,-0.5"/>
<text text-anchor="middle" x="301.5" y="-7.5" font-family="Helvetica,sans-Serif" font-size="10.00">data_type</text>
</a>
</g>
</g>
<!-- Node2 -->
<g id="node2" class="node">
<title>Node2</title>
<g id="a_node2"><a xlink:title=" ">
<polygon fill="white" stroke="#bfbfbf" points="0,-111.5 0,-130.5 99,-130.5 99,-111.5 0,-111.5"/>
<text text-anchor="middle" x="49.5" y="-118.5" font-family="Helvetica,sans-Serif" font-size="10.00">character(len=3)</text>
</a>
</g>
</g>
<!-- Node2&#45;&gt;Node1 -->
<g id="edge1" class="edge">
<title>Node2&#45;&gt;Node1</title>
<path fill="none" stroke="#9a32cd" stroke-dasharray="5,2" d="M60.35,-102.87C73.5,-83.68 97.55,-53.26 126.5,-38 150.57,-25.32 225.01,-17.27 268.67,-13.5"/>
<polygon fill="#9a32cd" stroke="#9a32cd" points="57.39,-101 54.79,-111.28 63.23,-104.86 57.39,-101"/>
<text text-anchor="middle" x="151.5" y="-63" font-family="Helvetica,sans-Serif" font-size="10.00"> gridname</text>
</g>
<!-- Node3 -->
<g id="node3" class="node">
<title>Node3</title>
<g id="a_node3"><a xlink:title=" ">
<polygon fill="white" stroke="#bfbfbf" points="117,-111.5 117,-130.5 228,-130.5 228,-111.5 117,-111.5"/>
<text text-anchor="middle" x="172.5" y="-118.5" font-family="Helvetica,sans-Serif" font-size="10.00">character(len=128)</text>
</a>
</g>
</g>
<!-- Node3&#45;&gt;Node1 -->
<g id="edge2" class="edge">
<title>Node3&#45;&gt;Node1</title>
<path fill="none" stroke="#9a32cd" stroke-dasharray="5,2" d="M177.78,-101.77C184.07,-83.18 196.34,-54.74 216.5,-38 231.27,-25.74 251.68,-19.02 268.79,-15.35"/>
<polygon fill="#9a32cd" stroke="#9a32cd" points="174.4,-100.83 174.75,-111.42 181.08,-102.93 174.4,-100.83"/>
<text text-anchor="middle" x="257" y="-74" font-family="Helvetica,sans-Serif" font-size="10.00"> fieldname_code</text>
<text text-anchor="middle" x="257" y="-63" font-family="Helvetica,sans-Serif" font-size="10.00">fieldname_file</text>
<text text-anchor="middle" x="257" y="-52" font-family="Helvetica,sans-Serif" font-size="10.00">interpol_method</text>
</g>
<!-- Node4 -->
<g id="node4" class="node">
<title>Node4</title>
<g id="a_node4"><a xlink:title=" ">
<polygon fill="white" stroke="#bfbfbf" points="246,-111.5 246,-130.5 357,-130.5 357,-111.5 246,-111.5"/>
<text text-anchor="middle" x="301.5" y="-118.5" font-family="Helvetica,sans-Serif" font-size="10.00">character(len=512)</text>
</a>
</g>
</g>
<!-- Node4&#45;&gt;Node1 -->
<g id="edge3" class="edge">
<title>Node4&#45;&gt;Node1</title>
<path fill="none" stroke="#9a32cd" stroke-dasharray="5,2" d="M301.5,-101.19C301.5,-77.28 301.5,-36.99 301.5,-19.51"/>
<polygon fill="#9a32cd" stroke="#9a32cd" points="298,-101.45 301.5,-111.45 305,-101.45 298,-101.45"/>
<text text-anchor="middle" x="327.5" y="-63" font-family="Helvetica,sans-Serif" font-size="10.00"> file_name</text>
</g>
<!-- Node5 -->
<g id="node5" class="node">
<title>Node5</title>
<g id="a_node5"><a xlink:title=" ">
<polygon fill="white" stroke="#bfbfbf" points="375,-111.5 375,-130.5 426,-130.5 426,-111.5 375,-111.5"/>
<text text-anchor="middle" x="400.5" y="-118.5" font-family="Helvetica,sans-Serif" font-size="10.00">integer</text>
</a>
</g>
</g>
<!-- Node5&#45;&gt;Node1 -->
<g id="edge4" class="edge">
<title>Node5&#45;&gt;Node1</title>
<path fill="none" stroke="#9a32cd" stroke-dasharray="5,2" d="M392.7,-102.05C383.25,-80.94 367.38,-47.55 357.5,-38 349.12,-29.9 337.84,-23.83 327.61,-19.51"/>
<polygon fill="#9a32cd" stroke="#9a32cd" points="389.53,-103.53 396.76,-111.27 395.93,-100.71 389.53,-103.53"/>
<text text-anchor="middle" x="418" y="-63" font-family="Helvetica,sans-Serif" font-size="10.00"> region_type</text>
</g>
<!-- Node6 -->
<g id="node6" class="node">
<title>Node6</title>
<g id="a_node6"><a xlink:title=" ">
<polygon fill="white" stroke="#bfbfbf" points="455,-111.5 455,-130.5 490,-130.5 490,-111.5 455,-111.5"/>
<text text-anchor="middle" x="472.5" y="-118.5" font-family="Helvetica,sans-Serif" font-size="10.00">real</text>
</a>
</g>
</g>
<!-- Node6&#45;&gt;Node1 -->
<g id="edge5" class="edge">
<title>Node6&#45;&gt;Node1</title>
<path fill="none" stroke="#9a32cd" stroke-dasharray="5,2" d="M472.88,-101.29C472.18,-82.51 468.01,-54.11 450.5,-38 433.91,-22.73 372.68,-15.8 334.06,-12.89"/>
<polygon fill="#9a32cd" stroke="#9a32cd" points="469.38,-101.34 472.96,-111.31 476.38,-101.28 469.38,-101.34"/>
<text text-anchor="middle" x="493" y="-85" font-family="Helvetica,sans-Serif" font-size="10.00"> factor</text>
<text text-anchor="middle" x="493" y="-74" font-family="Helvetica,sans-Serif" font-size="10.00">lat_end</text>
<text text-anchor="middle" x="493" y="-63" font-family="Helvetica,sans-Serif" font-size="10.00">lat_start</text>
<text text-anchor="middle" x="493" y="-52" font-family="Helvetica,sans-Serif" font-size="10.00">lon_end</text>
<text text-anchor="middle" x="493" y="-41" font-family="Helvetica,sans-Serif" font-size="10.00">lon_start</text>
</g>
</g>
</svg>
        <g id="navigator" transform="translate(0 0)" fill="#404254">
                <rect fill="#f2f5e9" fill-opacity="0.5" stroke="#606060" stroke-width=".5" x="0" y="0" width="60" height="60"/>
                <use id="zoomplus" xlink:href="#zoomPlus" x="17" y="9" onmousedown="handleZoom(evt,'in')"/>
                <use id="zoomminus" xlink:href="#zoomMin" x="42" y="9" onmousedown="handleZoom(evt,'out')"/>
                <use id="reset" xlink:href="#resetDef" x="30" y="36" onmousedown="handleReset()"/>
                <g id="arrowUp" xlink:href="#dirArrow" transform="translate(30 24)" onmousedown="handlePan(0,-1)">
                  <use xlink:href="#rim" fill="#404040">
                        <set attributeName="fill" to="#808080" begin="arrowUp.mouseover" end="arrowUp.mouseout"/>
                  </use>
                  <path fill="none" stroke="white" stroke-width="1.5" d="M0,-3.0v7 M-2.5,-0.5L0,-3.0L2.5,-0.5"/>
                </g>
                <g id="arrowRight" xlink:href="#dirArrow" transform="rotate(90) translate(36 -43)" onmousedown="handlePan(1,0)">
                  <use xlink:href="#rim" fill="#404040">
                        <set attributeName="fill" to="#808080" begin="arrowRight.mouseover" end="arrowRight.mouseout"/>
                  </use>
                  <path fill="none" stroke="white" stroke-width="1.5" d="M0,-3.0v7 M-2.5,-0.5L0,-3.0L2.5,-0.5"/>
                </g>
                <g id="arrowDown" xlink:href="#dirArrow" transform="rotate(180) translate(-30 -48)" onmousedown="handlePan(0,1)">
                  <use xlink:href="#rim" fill="#404040">
                        <set attributeName="fill" to="#808080" begin="arrowDown.mouseover" end="arrowDown.mouseout"/>
                  </use>
                  <path fill="none" stroke="white" stroke-width="1.5" d="M0,-3.0v7 M-2.5,-0.5L0,-3.0L2.5,-0.5"/>
                </g>
                <g id="arrowLeft" xlink:href="#dirArrow" transform="rotate(270) translate(-36 17)" onmousedown="handlePan(-1,0)">
                  <use xlink:href="#rim" fill="#404040">
                        <set attributeName="fill" to="#808080" begin="arrowLeft.mouseover" end="arrowLeft.mouseout"/>
                  </use>
                  <path fill="none" stroke="white" stroke-width="1.5" d="M0,-3.0v7 M-2.5,-0.5L0,-3.0L2.5,-0.5"/>
                </g>
        </g>
        <svg viewBox="0 0 15 15" width="100%" height="30px" preserveAspectRatio="xMaxYMin meet">
         <g id="arrow_out" transform="scale(0.3 0.3)">
          <a xlink:href="structdata__override__mod_1_1data__type__coll__graph_org.svg" target="_base">
           <rect id="button" ry="5" rx="5" y="6" x="6" height="38" width="38"
                fill="#f2f5e9" fill-opacity="0.5" stroke="#606060" stroke-width="1.0"/>
           <path id="arrow"
             d="M 11.500037,31.436501 C 11.940474,20.09759 22.043105,11.32322 32.158766,21.979434 L 37.068811,17.246167 C 37.068811,17.246167 37.088388,32 37.088388,32 L 22.160133,31.978069 C 22.160133,31.978069 26.997745,27.140456 26.997745,27.140456 C 18.528582,18.264221 13.291696,25.230495 11.500037,31.436501 z"
             style="fill:#404040;"/>
          </a>
         </g>
        </svg>
</svg>
