<?xml version="1.0" encoding="UTF-8" standalone="no"?>
<!DOCTYPE svg PUBLIC "-//W3C//DTD SVG 1.1//EN"
 "http://www.w3.org/Graphics/SVG/1.1/DTD/svg11.dtd">
<!-- Generated by graphviz version 2.43.0 (0)
 -->
<!-- Title: x1_type Pages: 1 -->
<svg width="156pt" height="128pt"
 viewBox="0.00 0.00 156.00 128.00" xmlns="http://www.w3.org/2000/svg" xmlns:xlink="http://www.w3.org/1999/xlink">
<g id="graph0" class="graph" transform="scale(1 1) rotate(0) translate(4 124)">
<title>x1_type</title>
<polygon fill="white" stroke="transparent" points="-4,4 -4,-124 152,-124 152,4 -4,4"/>
<!-- Node1 -->
<g id="node1" class="node">
<title>Node1</title>
<g id="a_node1"><a xlink:title="Private type for exchange grid data.">
<polygon fill="#bfbfbf" stroke="black" points="52.5,-0.5 52.5,-19.5 108.5,-19.5 108.5,-0.5 52.5,-0.5"/>
<text text-anchor="middle" x="80.5" y="-7.5" font-family="Helvetica,sans-Serif" font-size="10.00">x1_type</text>
</a>
</g>
</g>
<!-- Node2 -->
<g id="node2" class="node">
<title>Node2</title>
<g id="a_node2"><a xlink:title=" ">
<polygon fill="white" stroke="#bfbfbf" points="0,-100.5 0,-119.5 79,-119.5 79,-100.5 0,-100.5"/>
<text text-anchor="middle" x="39.5" y="-107.5" font-family="Helvetica,sans-Serif" font-size="10.00">real(r8_kind)</text>
</a>
</g>
</g>
<!-- Node2&#45;&gt;Node1 -->
<g id="edge1" class="edge">
<title>Node2&#45;&gt;Node1</title>
<path fill="none" stroke="#9a32cd" stroke-dasharray="5,2" d="M47.11,-90.81C55.99,-69.57 70.31,-35.36 76.93,-19.54"/>
<polygon fill="#9a32cd" stroke="#9a32cd" points="43.77,-89.73 43.14,-100.3 50.23,-92.43 43.77,-89.73"/>
<text text-anchor="middle" x="79.5" y="-68.5" font-family="Helvetica,sans-Serif" font-size="10.00"> di</text>
<text text-anchor="middle" x="79.5" y="-57.5" font-family="Helvetica,sans-Serif" font-size="10.00">dj</text>
<text text-anchor="middle" x="79.5" y="-46.5" font-family="Helvetica,sans-Serif" font-size="10.00">area</text>
</g>
<!-- Node3 -->
<g id="node3" class="node">
<title>Node3</title>
<g id="a_node3"><a xlink:title=" ">
<polygon fill="white" stroke="#bfbfbf" points="97,-100.5 97,-119.5 148,-119.5 148,-100.5 97,-100.5"/>
<text text-anchor="middle" x="122.5" y="-107.5" font-family="Helvetica,sans-Serif" font-size="10.00">integer</text>
</a>
</g>
</g>
<!-- Node3&#45;&gt;Node1 -->
<g id="edge2" class="edge">
<title>Node3&#45;&gt;Node1</title>
<path fill="none" stroke="#9a32cd" stroke-dasharray="5,2" d="M115.76,-90.4C110.39,-75.95 102.46,-55.49 94.5,-38 91.7,-31.85 88.2,-25.1 85.4,-19.89"/>
<polygon fill="#9a32cd" stroke="#9a32cd" points="112.6,-91.95 119.34,-100.13 119.18,-89.54 112.6,-91.95"/>
<text text-anchor="middle" x="120.5" y="-74" font-family="Helvetica,sans-Serif" font-size="10.00"> i</text>
<text text-anchor="middle" x="120.5" y="-63" font-family="Helvetica,sans-Serif" font-size="10.00">j</text>
<text text-anchor="middle" x="120.5" y="-52" font-family="Helvetica,sans-Serif" font-size="10.00">pos</text>
<text text-anchor="middle" x="120.5" y="-41" font-family="Helvetica,sans-Serif" font-size="10.00">tile</text>
</g>
</g>
</svg>
