<?xml version="1.0" encoding="UTF-8" standalone="no"?>
<!DOCTYPE svg PUBLIC "-//W3C//DTD SVG 1.1//EN"
 "http://www.w3.org/Graphics/SVG/1.1/DTD/svg11.dtd">
<!-- Generated by graphviz version 2.43.0 (0)
 -->
<!-- Title: overlapspec Pages: 1 -->
<svg width="224pt" height="384pt"
 viewBox="0.00 0.00 223.50 384.00" xmlns="http://www.w3.org/2000/svg" xmlns:xlink="http://www.w3.org/1999/xlink">
<g id="graph0" class="graph" transform="scale(1 1) rotate(0) translate(4 380)">
<title>overlapspec</title>
<polygon fill="white" stroke="transparent" points="-4,4 -4,-380 219.5,-380 219.5,4 -4,4"/>
<!-- Node1 -->
<g id="node1" class="node">
<title>Node1</title>
<g id="a_node1"><a xlink:title="Private type for overlap specifications.">
<polygon fill="#bfbfbf" stroke="black" points="96.5,-0.5 96.5,-19.5 172.5,-19.5 172.5,-0.5 96.5,-0.5"/>
<text text-anchor="middle" x="134.5" y="-7.5" font-family="Helvetica,sans-Serif" font-size="10.00">overlapspec</text>
</a>
</g>
</g>
<!-- Node1&#45;&gt;Node1 -->
<g id="edge4" class="edge">
<title>Node1&#45;&gt;Node1</title>
<path fill="none" stroke="#9a32cd" stroke-dasharray="5,2" d="M182.79,-15.79C187.51,-14.62 190.5,-12.69 190.5,-10 190.5,-5.7 182.83,-3.34 172.71,-2.94"/>
<polygon fill="#9a32cd" stroke="#9a32cd" points="182.19,-12.33 172.71,-17.06 183.07,-19.28 182.19,-12.33"/>
<text text-anchor="middle" x="203" y="-7.5" font-family="Helvetica,sans-Serif" font-size="10.00"> next</text>
</g>
<!-- Node2 -->
<g id="node2" class="node">
<title>Node2</title>
<g id="a_node2"><a xlink:href="group__mpp__domains__mod.html#structmpp__domains__mod_1_1overlap__type" target="_top" xlink:title="Type for overlapping data.">
<polygon fill="white" stroke="black" points="56.5,-129 56.5,-148 136.5,-148 136.5,-129 56.5,-129"/>
<text text-anchor="middle" x="96.5" y="-136" font-family="Helvetica,sans-Serif" font-size="10.00">overlap_type</text>
</a>
</g>
</g>
<!-- Node2&#45;&gt;Node1 -->
<g id="edge1" class="edge">
<title>Node2&#45;&gt;Node1</title>
<path fill="none" stroke="#9a32cd" stroke-dasharray="5,2" d="M102,-119.17C110.31,-91.53 125.72,-40.22 131.87,-19.76"/>
<polygon fill="#9a32cd" stroke="#9a32cd" points="98.64,-118.22 99.11,-128.81 105.34,-120.23 98.64,-118.22"/>
<text text-anchor="middle" x="139" y="-52" font-family="Helvetica,sans-Serif" font-size="10.00"> recv</text>
<text text-anchor="middle" x="139" y="-41" font-family="Helvetica,sans-Serif" font-size="10.00">send</text>
</g>
<!-- Node3 -->
<g id="node3" class="node">
<title>Node3</title>
<g id="a_node3"><a xlink:title=" ">
<polygon fill="white" stroke="#bfbfbf" points="0,-356.5 0,-375.5 49,-375.5 49,-356.5 0,-356.5"/>
<text text-anchor="middle" x="24.5" y="-363.5" font-family="Helvetica,sans-Serif" font-size="10.00">logical</text>
</a>
</g>
</g>
<!-- Node3&#45;&gt;Node2 -->
<g id="edge2" class="edge">
<title>Node3&#45;&gt;Node2</title>
<path fill="none" stroke="#9a32cd" stroke-dasharray="5,2" d="M20.88,-346.32C16.15,-317.44 10.35,-260.72 27.5,-217 39.28,-186.98 68.32,-161.05 84.72,-148.17"/>
<polygon fill="#9a32cd" stroke="#9a32cd" points="17.45,-347.02 22.65,-356.25 24.34,-345.79 17.45,-347.02"/>
<text text-anchor="middle" x="61.5" y="-275" font-family="Helvetica,sans-Serif" font-size="10.00"> from_contact</text>
</g>
<!-- Node4 -->
<g id="node4" class="node">
<title>Node4</title>
<g id="a_node4"><a xlink:title=" ">
<polygon fill="white" stroke="#bfbfbf" points="118,-356.5 118,-375.5 169,-375.5 169,-356.5 118,-356.5"/>
<text text-anchor="middle" x="143.5" y="-363.5" font-family="Helvetica,sans-Serif" font-size="10.00">integer</text>
</a>
</g>
</g>
<!-- Node4&#45;&gt;Node1 -->
<g id="edge5" class="edge">
<title>Node4&#45;&gt;Node1</title>
<path fill="none" stroke="#9a32cd" stroke-dasharray="5,2" d="M154.85,-347.53C156.36,-344.46 157.67,-341.22 158.5,-338 166.36,-307.66 162.23,-57.1 155.5,-38 153.05,-31.06 148.05,-24.5 143.54,-19.59"/>
<polygon fill="#9a32cd" stroke="#9a32cd" points="151.65,-346.07 149.71,-356.48 157.72,-349.55 151.65,-346.07"/>
<text text-anchor="middle" x="184" y="-191" font-family="Helvetica,sans-Serif" font-size="10.00"> nsend</text>
<text text-anchor="middle" x="184" y="-180" font-family="Helvetica,sans-Serif" font-size="10.00">ybegin</text>
<text text-anchor="middle" x="184" y="-169" font-family="Helvetica,sans-Serif" font-size="10.00">xbegin</text>
<text text-anchor="middle" x="184" y="-158" font-family="Helvetica,sans-Serif" font-size="10.00">yend</text>
<text text-anchor="middle" x="184" y="-147" font-family="Helvetica,sans-Serif" font-size="10.00">nhalo</text>
<text text-anchor="middle" x="184" y="-136" font-family="Helvetica,sans-Serif" font-size="10.00">xend</text>
<text text-anchor="middle" x="184" y="-125" font-family="Helvetica,sans-Serif" font-size="10.00">recvsize</text>
<text text-anchor="middle" x="184" y="-114" font-family="Helvetica,sans-Serif" font-size="10.00">shalo</text>
<text text-anchor="middle" x="184" y="-103" font-family="Helvetica,sans-Serif" font-size="10.00">ehalo</text>
<text text-anchor="middle" x="184" y="-92" font-family="Helvetica,sans-Serif" font-size="10.00">sendsize</text>
<text text-anchor="middle" x="184" y="-81" font-family="Helvetica,sans-Serif" font-size="10.00">...</text>
</g>
<!-- Node4&#45;&gt;Node2 -->
<g id="edge3" class="edge">
<title>Node4&#45;&gt;Node2</title>
<path fill="none" stroke="#9a32cd" stroke-dasharray="5,2" d="M124.26,-349.22C121.2,-345.83 118.42,-342.04 116.5,-338 100.17,-303.58 97.14,-181.72 96.61,-148.13"/>
<polygon fill="#9a32cd" stroke="#9a32cd" points="122,-351.9 131.62,-356.32 126.86,-346.86 122,-351.9"/>
<text text-anchor="middle" x="137.5" y="-330" font-family="Helvetica,sans-Serif" font-size="10.00"> rotation</text>
<text text-anchor="middle" x="137.5" y="-319" font-family="Helvetica,sans-Serif" font-size="10.00">totsize</text>
<text text-anchor="middle" x="137.5" y="-308" font-family="Helvetica,sans-Serif" font-size="10.00">pe</text>
<text text-anchor="middle" x="137.5" y="-297" font-family="Helvetica,sans-Serif" font-size="10.00">dir</text>
<text text-anchor="middle" x="137.5" y="-286" font-family="Helvetica,sans-Serif" font-size="10.00">tileme</text>
<text text-anchor="middle" x="137.5" y="-275" font-family="Helvetica,sans-Serif" font-size="10.00">js</text>
<text text-anchor="middle" x="137.5" y="-264" font-family="Helvetica,sans-Serif" font-size="10.00">count</text>
<text text-anchor="middle" x="137.5" y="-253" font-family="Helvetica,sans-Serif" font-size="10.00">is</text>
<text text-anchor="middle" x="137.5" y="-242" font-family="Helvetica,sans-Serif" font-size="10.00">tilenbr</text>
<text text-anchor="middle" x="137.5" y="-231" font-family="Helvetica,sans-Serif" font-size="10.00">index</text>
<text text-anchor="middle" x="137.5" y="-220" font-family="Helvetica,sans-Serif" font-size="10.00">...</text>
</g>
</g>
</svg>
