<?xml version="1.0" encoding="UTF-8" standalone="no"?>
<!DOCTYPE svg PUBLIC "-//W3C//DTD SVG 1.1//EN"
 "http://www.w3.org/Graphics/SVG/1.1/DTD/svg11.dtd">
<!-- Generated by graphviz version 2.43.0 (0)
 -->
<!-- Title: grid_type Pages: 1 -->
<svg width="1244pt" height="1371pt"
 viewBox="0.00 0.00 1244.00 1371.00" xmlns="http://www.w3.org/2000/svg" xmlns:xlink="http://www.w3.org/1999/xlink">
<g id="graph0" class="graph" transform="scale(1 1) rotate(0) translate(4 1367)">
<title>grid_type</title>
<polygon fill="white" stroke="transparent" points="-4,4 -4,-1367 1240,-1367 1240,4 -4,4"/>
<!-- Node1 -->
<g id="node1" class="node">
<title>Node1</title>
<g id="a_node1"><a xlink:title="Private type to hold all data needed from given grid for an exchange grid.">
<polygon fill="#bfbfbf" stroke="black" points="1174,-848.5 1174,-867.5 1236,-867.5 1236,-848.5 1174,-848.5"/>
<text text-anchor="middle" x="1205" y="-855.5" font-family="Helvetica,sans-Serif" font-size="10.00">grid_type</text>
</a>
</g>
</g>
<!-- Node2 -->
<g id="node2" class="node">
<title>Node2</title>
<g id="a_node2"><a xlink:title=" ">
<polygon fill="white" stroke="#bfbfbf" points="1,-97.5 1,-116.5 50,-116.5 50,-97.5 1,-97.5"/>
<text text-anchor="middle" x="25.5" y="-104.5" font-family="Helvetica,sans-Serif" font-size="10.00">logical</text>
</a>
</g>
</g>
<!-- Node2&#45;&gt;Node1 -->
<g id="edge1" class="edge">
<title>Node2&#45;&gt;Node1</title>
<path fill="none" stroke="#9a32cd" stroke-dasharray="5,2" d="M43.07,-89.78C74.06,-59.52 144.22,0 216.5,0 216.5,0 216.5,0 1031.5,0 1213.83,0 1205.9,-754.1 1204.2,-848.36"/>
<polygon fill="#9a32cd" stroke="#9a32cd" points="40.32,-87.58 35.73,-97.13 45.27,-92.53 40.32,-87.58"/>
<text text-anchor="middle" x="666.5" y="-25" font-family="Helvetica,sans-Serif" font-size="10.00"> is_latlon</text>
<text text-anchor="middle" x="666.5" y="-14" font-family="Helvetica,sans-Serif" font-size="10.00">is_ug</text>
<text text-anchor="middle" x="666.5" y="-3" font-family="Helvetica,sans-Serif" font-size="10.00">on_this_pe</text>
</g>
<!-- Node9 -->
<g id="node9" class="node">
<title>Node9</title>
<g id="a_node9"><a xlink:href="group__mpp__domains__mod.html#structmpp__domains__mod_1_1domain2d" target="_top" xlink:title="The domain2D type contains all the necessary information to define the global, compute and data domai...">
<polygon fill="white" stroke="black" points="808.5,-495.5 808.5,-514.5 873.5,-514.5 873.5,-495.5 808.5,-495.5"/>
<text text-anchor="middle" x="841" y="-502.5" font-family="Helvetica,sans-Serif" font-size="10.00">domain2d</text>
</a>
</g>
</g>
<!-- Node2&#45;&gt;Node9 -->
<g id="edge12" class="edge">
<title>Node2&#45;&gt;Node9</title>
<path fill="none" stroke="#9a32cd" stroke-dasharray="5,2" d="M59.45,-93.98C96.88,-80.38 160.11,-61 216.5,-61 216.5,-61 216.5,-61 667.5,-61 764.05,-61 827.98,-430.38 838.47,-495.31"/>
<polygon fill="#9a32cd" stroke="#9a32cd" points="58.21,-90.71 50.05,-97.47 60.64,-97.27 58.21,-90.71"/>
<text text-anchor="middle" x="438" y="-86" font-family="Helvetica,sans-Serif" font-size="10.00"> initialized</text>
<text text-anchor="middle" x="438" y="-75" font-family="Helvetica,sans-Serif" font-size="10.00">rotated_ninety</text>
<text text-anchor="middle" x="438" y="-64" font-family="Helvetica,sans-Serif" font-size="10.00">symmetry</text>
</g>
<!-- Node10 -->
<g id="node10" class="node">
<title>Node10</title>
<g id="a_node10"><a xlink:href="group__mpp__domains__mod.html#structmpp__domains__mod_1_1domain1d" target="_top" xlink:title="One dimensional domain used to manage shared data access between pes.">
<polygon fill="white" stroke="black" points="405.5,-159.5 405.5,-178.5 470.5,-178.5 470.5,-159.5 405.5,-159.5"/>
<text text-anchor="middle" x="438" y="-166.5" font-family="Helvetica,sans-Serif" font-size="10.00">domain1d</text>
</a>
</g>
</g>
<!-- Node2&#45;&gt;Node10 -->
<g id="edge14" class="edge">
<title>Node2&#45;&gt;Node10</title>
<path fill="none" stroke="#9a32cd" stroke-dasharray="5,2" d="M60.29,-104.58C121.31,-101.33 253.16,-99.47 357,-134 378.29,-141.08 401.7,-151.67 417.67,-159.35"/>
<polygon fill="#9a32cd" stroke="#9a32cd" points="59.87,-101.1 50.09,-105.17 60.28,-108.09 59.87,-101.1"/>
<text text-anchor="middle" x="217.5" y="-118" font-family="Helvetica,sans-Serif" font-size="10.00"> cyclic</text>
</g>
<!-- Node11 -->
<g id="node11" class="node">
<title>Node11</title>
<g id="a_node11"><a xlink:href="group__mpp__domains__mod.html#structmpp__domains__mod_1_1domain__axis__spec" target="_top" xlink:title="Used to specify index limits along an axis of a domain.">
<polygon fill="white" stroke="black" points="164,-136.5 164,-155.5 271,-155.5 271,-136.5 164,-136.5"/>
<text text-anchor="middle" x="217.5" y="-143.5" font-family="Helvetica,sans-Serif" font-size="10.00">domain_axis_spec</text>
</a>
</g>
</g>
<!-- Node2&#45;&gt;Node11 -->
<g id="edge17" class="edge">
<title>Node2&#45;&gt;Node11</title>
<path fill="none" stroke="#9a32cd" stroke-dasharray="5,2" d="M59.84,-118.5C62.92,-119.41 66.01,-120.26 69,-121 100.13,-128.72 135.56,-134.81 163.88,-139.05"/>
<polygon fill="#9a32cd" stroke="#9a32cd" points="60.73,-115.12 50.14,-115.49 58.65,-121.8 60.73,-115.12"/>
<text text-anchor="middle" x="103" y="-138" font-family="Helvetica,sans-Serif" font-size="10.00"> is_global</text>
</g>
<!-- Node14 -->
<g id="node14" class="node">
<title>Node14</title>
<g id="a_node14"><a xlink:href="group__mpp__domains__mod.html#structmpp__domains__mod_1_1overlap__type" target="_top" xlink:title="Type for overlapping data.">
<polygon fill="white" stroke="black" points="177.5,-254.5 177.5,-273.5 257.5,-273.5 257.5,-254.5 177.5,-254.5"/>
<text text-anchor="middle" x="217.5" y="-261.5" font-family="Helvetica,sans-Serif" font-size="10.00">overlap_type</text>
</a>
</g>
</g>
<!-- Node2&#45;&gt;Node14 -->
<g id="edge24" class="edge">
<title>Node2&#45;&gt;Node14</title>
<path fill="none" stroke="#9a32cd" stroke-dasharray="5,2" d="M42.89,-124.12C50.68,-132.11 60.19,-141.67 69,-150 98.29,-177.68 111.22,-179.02 137,-210 146.95,-221.95 143.12,-229.97 155,-240 162.36,-246.21 171.51,-250.93 180.48,-254.47"/>
<polygon fill="#9a32cd" stroke="#9a32cd" points="45.24,-121.51 35.77,-116.75 40.21,-126.37 45.24,-121.51"/>
<text text-anchor="middle" x="103" y="-213" font-family="Helvetica,sans-Serif" font-size="10.00"> from_contact</text>
</g>
<!-- Node3 -->
<g id="node3" class="node">
<title>Node3</title>
<g id="a_node3"><a xlink:href="group__xgrid__mod.html#structxgrid__mod_1_1xcell__type" target="_top" xlink:title="Private type for cell indices and data in the exchange grid.">
<polygon fill="white" stroke="black" points="997,-1143.5 997,-1162.5 1064,-1162.5 1064,-1143.5 997,-1143.5"/>
<text text-anchor="middle" x="1030.5" y="-1150.5" font-family="Helvetica,sans-Serif" font-size="10.00">xcell_type</text>
</a>
</g>
</g>
<!-- Node3&#45;&gt;Node1 -->
<g id="edge2" class="edge">
<title>Node3&#45;&gt;Node1</title>
<path fill="none" stroke="#9a32cd" stroke-dasharray="5,2" d="M1074.04,-1155.8C1101.15,-1155.16 1135.02,-1149.45 1156,-1128 1193.37,-1089.79 1202.11,-910.95 1203.7,-867.52"/>
<polygon fill="#9a32cd" stroke="#9a32cd" points="1074.01,-1152.3 1064.01,-1155.82 1074.02,-1159.3 1074.01,-1152.3"/>
<text text-anchor="middle" x="1127" y="-1167" font-family="Helvetica,sans-Serif" font-size="10.00"> x</text>
<text text-anchor="middle" x="1127" y="-1156" font-family="Helvetica,sans-Serif" font-size="10.00">x_repro</text>
</g>
<!-- Node4 -->
<g id="node4" class="node">
<title>Node4</title>
<g id="a_node4"><a xlink:title=" ">
<polygon fill="white" stroke="#bfbfbf" points="801.5,-902.5 801.5,-921.5 880.5,-921.5 880.5,-902.5 801.5,-902.5"/>
<text text-anchor="middle" x="841" y="-909.5" font-family="Helvetica,sans-Serif" font-size="10.00">real(r8_kind)</text>
</a>
</g>
</g>
<!-- Node4&#45;&gt;Node1 -->
<g id="edge48" class="edge">
<title>Node4&#45;&gt;Node1</title>
<path fill="none" stroke="#9a32cd" stroke-dasharray="5,2" d="M884.07,-899.96C891.34,-898.12 898.86,-896.38 906,-895 1002.99,-876.19 1119.68,-864.95 1173.75,-860.38"/>
<polygon fill="#9a32cd" stroke="#9a32cd" points="883.15,-896.58 874.36,-902.49 884.92,-903.35 883.15,-896.58"/>
<text text-anchor="middle" x="1030.5" y="-951" font-family="Helvetica,sans-Serif" font-size="10.00"> area</text>
<text text-anchor="middle" x="1030.5" y="-940" font-family="Helvetica,sans-Serif" font-size="10.00">area_inv</text>
<text text-anchor="middle" x="1030.5" y="-929" font-family="Helvetica,sans-Serif" font-size="10.00">frac_area</text>
<text text-anchor="middle" x="1030.5" y="-918" font-family="Helvetica,sans-Serif" font-size="10.00">geolat</text>
<text text-anchor="middle" x="1030.5" y="-907" font-family="Helvetica,sans-Serif" font-size="10.00">geolon</text>
<text text-anchor="middle" x="1030.5" y="-896" font-family="Helvetica,sans-Serif" font-size="10.00">lat</text>
<text text-anchor="middle" x="1030.5" y="-885" font-family="Helvetica,sans-Serif" font-size="10.00">lon</text>
</g>
<!-- Node4&#45;&gt;Node3 -->
<g id="edge3" class="edge">
<title>Node4&#45;&gt;Node3</title>
<path fill="none" stroke="#9a32cd" stroke-dasharray="5,2" d="M849.78,-931.23C860.41,-956.25 881.01,-1000.68 906,-1034 940.48,-1079.97 993.17,-1124.26 1017.01,-1143.28"/>
<polygon fill="#9a32cd" stroke="#9a32cd" points="852.93,-929.68 845.86,-921.79 846.46,-932.37 852.93,-929.68"/>
<text text-anchor="middle" x="934.5" y="-1132" font-family="Helvetica,sans-Serif" font-size="10.00"> area</text>
<text text-anchor="middle" x="934.5" y="-1121" font-family="Helvetica,sans-Serif" font-size="10.00">di</text>
<text text-anchor="middle" x="934.5" y="-1110" font-family="Helvetica,sans-Serif" font-size="10.00">dj</text>
<text text-anchor="middle" x="934.5" y="-1099" font-family="Helvetica,sans-Serif" font-size="10.00">scale</text>
</g>
<!-- Node23 -->
<g id="node23" class="node">
<title>Node23</title>
<g id="a_node23"><a xlink:href="group__xgrid__mod.html#structxgrid__mod_1_1grid__box__type" target="_top" xlink:title="Type to hold pointers for grid boxes.">
<polygon fill="white" stroke="black" points="987.5,-974.5 987.5,-993.5 1073.5,-993.5 1073.5,-974.5 987.5,-974.5"/>
<text text-anchor="middle" x="1030.5" y="-981.5" font-family="Helvetica,sans-Serif" font-size="10.00">grid_box_type</text>
</a>
</g>
</g>
<!-- Node4&#45;&gt;Node23 -->
<g id="edge47" class="edge">
<title>Node4&#45;&gt;Node23</title>
<path fill="none" stroke="#9a32cd" stroke-dasharray="5,2" d="M887.35,-900.8C911.81,-897.43 941.33,-897.96 963,-913 981.38,-925.75 965.94,-943.46 981,-960 986.57,-966.11 994.04,-970.86 1001.44,-974.46"/>
<polygon fill="#9a32cd" stroke="#9a32cd" points="886.52,-897.39 877.22,-902.45 887.65,-904.3 886.52,-897.39"/>
<text text-anchor="middle" x="934.5" y="-1026" font-family="Helvetica,sans-Serif" font-size="10.00"> area</text>
<text text-anchor="middle" x="934.5" y="-1015" font-family="Helvetica,sans-Serif" font-size="10.00">dx</text>
<text text-anchor="middle" x="934.5" y="-1004" font-family="Helvetica,sans-Serif" font-size="10.00">dy</text>
<text text-anchor="middle" x="934.5" y="-993" font-family="Helvetica,sans-Serif" font-size="10.00">edge_e</text>
<text text-anchor="middle" x="934.5" y="-982" font-family="Helvetica,sans-Serif" font-size="10.00">edge_n</text>
<text text-anchor="middle" x="934.5" y="-971" font-family="Helvetica,sans-Serif" font-size="10.00">edge_s</text>
<text text-anchor="middle" x="934.5" y="-960" font-family="Helvetica,sans-Serif" font-size="10.00">edge_w</text>
<text text-anchor="middle" x="934.5" y="-949" font-family="Helvetica,sans-Serif" font-size="10.00">en1</text>
<text text-anchor="middle" x="934.5" y="-938" font-family="Helvetica,sans-Serif" font-size="10.00">en2</text>
<text text-anchor="middle" x="934.5" y="-927" font-family="Helvetica,sans-Serif" font-size="10.00">vlat</text>
<text text-anchor="middle" x="934.5" y="-916" font-family="Helvetica,sans-Serif" font-size="10.00">...</text>
</g>
<!-- Node5 -->
<g id="node5" class="node">
<title>Node5</title>
<g id="a_node5"><a xlink:title=" ">
<polygon fill="white" stroke="#bfbfbf" points="0,-594.5 0,-613.5 51,-613.5 51,-594.5 0,-594.5"/>
<text text-anchor="middle" x="25.5" y="-601.5" font-family="Helvetica,sans-Serif" font-size="10.00">integer</text>
</a>
</g>
</g>
<!-- Node5&#45;&gt;Node1 -->
<g id="edge49" class="edge">
<title>Node5&#45;&gt;Node1</title>
<path fill="none" stroke="#9a32cd" stroke-dasharray="5,2" d="M27.48,-624.1C30.12,-667.72 39.31,-773.83 69,-857 113.41,-981.39 84.42,-1115 216.5,-1115 216.5,-1115 216.5,-1115 1031.5,-1115 1152.95,-1115 1194.4,-914.71 1202.45,-867.76"/>
<polygon fill="#9a32cd" stroke="#9a32cd" points="30.97,-623.76 26.92,-613.96 23.98,-624.14 30.97,-623.76"/>
<text text-anchor="middle" x="666.5" y="-1228" font-family="Helvetica,sans-Serif" font-size="10.00"> first</text>
<text text-anchor="middle" x="666.5" y="-1217" font-family="Helvetica,sans-Serif" font-size="10.00">first_get</text>
<text text-anchor="middle" x="666.5" y="-1206" font-family="Helvetica,sans-Serif" font-size="10.00">ge</text>
<text text-anchor="middle" x="666.5" y="-1195" font-family="Helvetica,sans-Serif" font-size="10.00">ge_me</text>
<text text-anchor="middle" x="666.5" y="-1184" font-family="Helvetica,sans-Serif" font-size="10.00">gs</text>
<text text-anchor="middle" x="666.5" y="-1173" font-family="Helvetica,sans-Serif" font-size="10.00">gs_me</text>
<text text-anchor="middle" x="666.5" y="-1162" font-family="Helvetica,sans-Serif" font-size="10.00">ie</text>
<text text-anchor="middle" x="666.5" y="-1151" font-family="Helvetica,sans-Serif" font-size="10.00">ie_me</text>
<text text-anchor="middle" x="666.5" y="-1140" font-family="Helvetica,sans-Serif" font-size="10.00">ied_me</text>
<text text-anchor="middle" x="666.5" y="-1129" font-family="Helvetica,sans-Serif" font-size="10.00">im</text>
<text text-anchor="middle" x="666.5" y="-1118" font-family="Helvetica,sans-Serif" font-size="10.00">...</text>
</g>
<!-- Node5&#45;&gt;Node3 -->
<g id="edge4" class="edge">
<title>Node5&#45;&gt;Node3</title>
<path fill="none" stroke="#9a32cd" stroke-dasharray="5,2" d="M26.2,-623.89C25.19,-708.4 24.27,-1037.61 69,-1129 108.07,-1208.82 127.63,-1264 216.5,-1264 216.5,-1264 216.5,-1264 842,-1264 921.06,-1264 996,-1190.02 1020.86,-1162.85"/>
<polygon fill="#9a32cd" stroke="#9a32cd" points="29.7,-623.68 26.33,-613.63 22.7,-623.59 29.7,-623.68"/>
<text text-anchor="middle" x="554.5" y="-1355" font-family="Helvetica,sans-Serif" font-size="10.00"> i1</text>
<text text-anchor="middle" x="554.5" y="-1344" font-family="Helvetica,sans-Serif" font-size="10.00">i2</text>
<text text-anchor="middle" x="554.5" y="-1333" font-family="Helvetica,sans-Serif" font-size="10.00">j1</text>
<text text-anchor="middle" x="554.5" y="-1322" font-family="Helvetica,sans-Serif" font-size="10.00">j2</text>
<text text-anchor="middle" x="554.5" y="-1311" font-family="Helvetica,sans-Serif" font-size="10.00">l1</text>
<text text-anchor="middle" x="554.5" y="-1300" font-family="Helvetica,sans-Serif" font-size="10.00">l2</text>
<text text-anchor="middle" x="554.5" y="-1289" font-family="Helvetica,sans-Serif" font-size="10.00">pe</text>
<text text-anchor="middle" x="554.5" y="-1278" font-family="Helvetica,sans-Serif" font-size="10.00">recv_pos</text>
<text text-anchor="middle" x="554.5" y="-1267" font-family="Helvetica,sans-Serif" font-size="10.00">tile</text>
</g>
<!-- Node6 -->
<g id="node6" class="node">
<title>Node6</title>
<g id="a_node6"><a xlink:href="group__mpp__domains__mod.html#structmpp__domains__mod_1_1domainug" target="_top" xlink:title="Domain information for managing data on unstructured grids.">
<polygon fill="white" stroke="black" points="998,-785.5 998,-804.5 1063,-804.5 1063,-785.5 998,-785.5"/>
<text text-anchor="middle" x="1030.5" y="-792.5" font-family="Helvetica,sans-Serif" font-size="10.00">domainug</text>
</a>
</g>
</g>
<!-- Node5&#45;&gt;Node6 -->
<g id="edge42" class="edge">
<title>Node5&#45;&gt;Node6</title>
<path fill="none" stroke="#9a32cd" stroke-dasharray="5,2" d="M28.06,-623.89C32.15,-671.4 44.6,-789.79 69,-820 112.58,-873.96 147.14,-871 216.5,-871 216.5,-871 216.5,-871 760.5,-871 851.99,-871 878.14,-868.19 963,-834 982.37,-826.2 1002.82,-813.42 1015.85,-804.63"/>
<polygon fill="#9a32cd" stroke="#9a32cd" points="31.53,-623.35 27.22,-613.67 24.55,-623.93 31.53,-623.35"/>
<text text-anchor="middle" x="554.5" y="-951" font-family="Helvetica,sans-Serif" font-size="10.00"> grid_index</text>
<text text-anchor="middle" x="554.5" y="-940" font-family="Helvetica,sans-Serif" font-size="10.00">npes_io_group</text>
<text text-anchor="middle" x="554.5" y="-929" font-family="Helvetica,sans-Serif" font-size="10.00">ntiles</text>
<text text-anchor="middle" x="554.5" y="-918" font-family="Helvetica,sans-Serif" font-size="10.00">pe</text>
<text text-anchor="middle" x="554.5" y="-907" font-family="Helvetica,sans-Serif" font-size="10.00">pos</text>
<text text-anchor="middle" x="554.5" y="-896" font-family="Helvetica,sans-Serif" font-size="10.00">tile_id</text>
<text text-anchor="middle" x="554.5" y="-885" font-family="Helvetica,sans-Serif" font-size="10.00">tile_npes</text>
<text text-anchor="middle" x="554.5" y="-874" font-family="Helvetica,sans-Serif" font-size="10.00">tile_root_pe</text>
</g>
<!-- Node7 -->
<g id="node7" class="node">
<title>Node7</title>
<g id="a_node7"><a xlink:href="group__mpp__domains__mod.html#structmpp__domains__mod_1_1unstruct__domain__spec" target="_top" xlink:title="Private type for axis specification data for an unstructured domain.">
<polygon fill="white" stroke="black" points="375,-797.5 375,-816.5 501,-816.5 501,-797.5 375,-797.5"/>
<text text-anchor="middle" x="438" y="-804.5" font-family="Helvetica,sans-Serif" font-size="10.00">unstruct_domain_spec</text>
</a>
</g>
</g>
<!-- Node5&#45;&gt;Node7 -->
<g id="edge9" class="edge">
<title>Node5&#45;&gt;Node7</title>
<path fill="none" stroke="#9a32cd" stroke-dasharray="5,2" d="M27.91,-624.05C31.49,-668.72 42.63,-774.17 69,-796 113.99,-833.24 282.28,-822.92 374.91,-813.96"/>
<polygon fill="#9a32cd" stroke="#9a32cd" points="31.38,-623.57 27.14,-613.87 24.4,-624.1 31.38,-623.57"/>
<text text-anchor="middle" x="217.5" y="-847" font-family="Helvetica,sans-Serif" font-size="10.00"> pe</text>
<text text-anchor="middle" x="217.5" y="-836" font-family="Helvetica,sans-Serif" font-size="10.00">pos</text>
<text text-anchor="middle" x="217.5" y="-825" font-family="Helvetica,sans-Serif" font-size="10.00">tile_id</text>
</g>
<!-- Node8 -->
<g id="node8" class="node">
<title>Node8</title>
<g id="a_node8"><a xlink:href="group__mpp__domains__mod.html#structmpp__domains__mod_1_1unstruct__axis__spec" target="_top" xlink:title="Private type for axis specification data for an unstructured grid.">
<polygon fill="white" stroke="black" points="162.5,-741.5 162.5,-760.5 272.5,-760.5 272.5,-741.5 162.5,-741.5"/>
<text text-anchor="middle" x="217.5" y="-748.5" font-family="Helvetica,sans-Serif" font-size="10.00">unstruct_axis_spec</text>
</a>
</g>
</g>
<!-- Node5&#45;&gt;Node8 -->
<g id="edge8" class="edge">
<title>Node5&#45;&gt;Node8</title>
<path fill="none" stroke="#9a32cd" stroke-dasharray="5,2" d="M29.39,-623.53C33.84,-646.7 44.58,-684.93 69,-707 73.3,-710.89 139.52,-729.71 181.76,-741.45"/>
<polygon fill="#9a32cd" stroke="#9a32cd" points="32.81,-622.78 27.68,-613.51 25.91,-623.96 32.81,-622.78"/>
<text text-anchor="middle" x="103" y="-786" font-family="Helvetica,sans-Serif" font-size="10.00"> begin</text>
<text text-anchor="middle" x="103" y="-775" font-family="Helvetica,sans-Serif" font-size="10.00">begin_index</text>
<text text-anchor="middle" x="103" y="-764" font-family="Helvetica,sans-Serif" font-size="10.00">end</text>
<text text-anchor="middle" x="103" y="-753" font-family="Helvetica,sans-Serif" font-size="10.00">end_index</text>
<text text-anchor="middle" x="103" y="-742" font-family="Helvetica,sans-Serif" font-size="10.00">max_size</text>
<text text-anchor="middle" x="103" y="-731" font-family="Helvetica,sans-Serif" font-size="10.00">size</text>
</g>
<!-- Node5&#45;&gt;Node9 -->
<g id="edge35" class="edge">
<title>Node5&#45;&gt;Node9</title>
<path fill="none" stroke="#9a32cd" stroke-dasharray="5,2" d="M61.54,-600.65C124.31,-594.84 260.1,-583.12 375,-579 430.96,-577 445.12,-575.36 501,-579 548.86,-582.12 560.14,-589.88 608,-593 659.89,-596.38 674.63,-605.92 725,-593 773.22,-580.63 815.64,-534.75 832.39,-514.6"/>
<polygon fill="#9a32cd" stroke="#9a32cd" points="61.03,-597.18 51.4,-601.6 61.68,-604.15 61.03,-597.18"/>
<text text-anchor="middle" x="438" y="-692" font-family="Helvetica,sans-Serif" font-size="10.00"> ehalo</text>
<text text-anchor="middle" x="438" y="-681" font-family="Helvetica,sans-Serif" font-size="10.00">fold</text>
<text text-anchor="middle" x="438" y="-670" font-family="Helvetica,sans-Serif" font-size="10.00">io_layout</text>
<text text-anchor="middle" x="438" y="-659" font-family="Helvetica,sans-Serif" font-size="10.00">max_ntile_pe</text>
<text text-anchor="middle" x="438" y="-648" font-family="Helvetica,sans-Serif" font-size="10.00">ncontacts</text>
<text text-anchor="middle" x="438" y="-637" font-family="Helvetica,sans-Serif" font-size="10.00">nhalo</text>
<text text-anchor="middle" x="438" y="-626" font-family="Helvetica,sans-Serif" font-size="10.00">ntiles</text>
<text text-anchor="middle" x="438" y="-615" font-family="Helvetica,sans-Serif" font-size="10.00">pe</text>
<text text-anchor="middle" x="438" y="-604" font-family="Helvetica,sans-Serif" font-size="10.00">pearray</text>
<text text-anchor="middle" x="438" y="-593" font-family="Helvetica,sans-Serif" font-size="10.00">pos</text>
<text text-anchor="middle" x="438" y="-582" font-family="Helvetica,sans-Serif" font-size="10.00">...</text>
</g>
<!-- Node5&#45;&gt;Node10 -->
<g id="edge19" class="edge">
<title>Node5&#45;&gt;Node10</title>
<path fill="none" stroke="#9a32cd" stroke-dasharray="5,2" d="M27.03,-584.04C29.32,-505 39.65,-216.96 69,-190 74.89,-184.59 349.04,-185.86 357,-185 373.05,-183.27 390.67,-179.91 405.28,-176.71"/>
<polygon fill="#9a32cd" stroke="#9a32cd" points="23.53,-584.03 26.75,-594.13 30.52,-584.23 23.53,-584.03"/>
<text text-anchor="middle" x="217.5" y="-223" font-family="Helvetica,sans-Serif" font-size="10.00"> goffset</text>
<text text-anchor="middle" x="217.5" y="-212" font-family="Helvetica,sans-Serif" font-size="10.00">loffset</text>
<text text-anchor="middle" x="217.5" y="-201" font-family="Helvetica,sans-Serif" font-size="10.00">pe</text>
<text text-anchor="middle" x="217.5" y="-190" font-family="Helvetica,sans-Serif" font-size="10.00">pos</text>
</g>
<!-- Node5&#45;&gt;Node11 -->
<g id="edge18" class="edge">
<title>Node5&#45;&gt;Node11</title>
<path fill="none" stroke="#9a32cd" stroke-dasharray="5,2" d="M26.05,-584.02C24.94,-515.8 24.82,-293.39 69,-241 89.31,-216.92 114.14,-242.67 137,-221 154.44,-204.46 138.28,-187.27 155,-170 161.06,-163.74 168.94,-159.08 177.03,-155.63"/>
<polygon fill="#9a32cd" stroke="#9a32cd" points="22.56,-584.32 26.25,-594.25 29.56,-584.19 22.56,-584.32"/>
<text text-anchor="middle" x="103" y="-277" font-family="Helvetica,sans-Serif" font-size="10.00"> begin</text>
<text text-anchor="middle" x="103" y="-266" font-family="Helvetica,sans-Serif" font-size="10.00">end</text>
<text text-anchor="middle" x="103" y="-255" font-family="Helvetica,sans-Serif" font-size="10.00">max_size</text>
<text text-anchor="middle" x="103" y="-244" font-family="Helvetica,sans-Serif" font-size="10.00">size</text>
</g>
<!-- Node13 -->
<g id="node13" class="node">
<title>Node13</title>
<g id="a_node13"><a xlink:href="group__mpp__domains__mod.html#structmpp__domains__mod_1_1overlapspec" target="_top" xlink:title="Private type for overlap specifications.">
<polygon fill="white" stroke="black" points="400,-289.5 400,-308.5 476,-308.5 476,-289.5 400,-289.5"/>
<text text-anchor="middle" x="438" y="-296.5" font-family="Helvetica,sans-Serif" font-size="10.00">overlapspec</text>
</a>
</g>
</g>
<!-- Node5&#45;&gt;Node13 -->
<g id="edge27" class="edge">
<title>Node5&#45;&gt;Node13</title>
<path fill="none" stroke="#9a32cd" stroke-dasharray="5,2" d="M27.89,-584.07C30.87,-555.18 40.17,-501.36 69,-467 90.85,-440.96 116.88,-459.4 137,-432 164.77,-394.19 120.71,-360.01 155,-328 172.56,-311.61 327.38,-303.35 399.86,-300.35"/>
<polygon fill="#9a32cd" stroke="#9a32cd" points="24.39,-583.89 27.01,-594.16 31.37,-584.5 24.39,-583.89"/>
<text text-anchor="middle" x="217.5" y="-441" font-family="Helvetica,sans-Serif" font-size="10.00"> ehalo</text>
<text text-anchor="middle" x="217.5" y="-430" font-family="Helvetica,sans-Serif" font-size="10.00">nhalo</text>
<text text-anchor="middle" x="217.5" y="-419" font-family="Helvetica,sans-Serif" font-size="10.00">nrecv</text>
<text text-anchor="middle" x="217.5" y="-408" font-family="Helvetica,sans-Serif" font-size="10.00">nsend</text>
<text text-anchor="middle" x="217.5" y="-397" font-family="Helvetica,sans-Serif" font-size="10.00">recvsize</text>
<text text-anchor="middle" x="217.5" y="-386" font-family="Helvetica,sans-Serif" font-size="10.00">sendsize</text>
<text text-anchor="middle" x="217.5" y="-375" font-family="Helvetica,sans-Serif" font-size="10.00">shalo</text>
<text text-anchor="middle" x="217.5" y="-364" font-family="Helvetica,sans-Serif" font-size="10.00">whalo</text>
<text text-anchor="middle" x="217.5" y="-353" font-family="Helvetica,sans-Serif" font-size="10.00">xbegin</text>
<text text-anchor="middle" x="217.5" y="-342" font-family="Helvetica,sans-Serif" font-size="10.00">xend</text>
<text text-anchor="middle" x="217.5" y="-331" font-family="Helvetica,sans-Serif" font-size="10.00">...</text>
</g>
<!-- Node5&#45;&gt;Node14 -->
<g id="edge25" class="edge">
<title>Node5&#45;&gt;Node14</title>
<path fill="none" stroke="#9a32cd" stroke-dasharray="5,2" d="M26.72,-584.2C27.78,-525.25 33.87,-352.44 69,-311 70.94,-308.71 142.28,-286.64 185.02,-273.58"/>
<polygon fill="#9a32cd" stroke="#9a32cd" points="23.22,-584.35 26.57,-594.4 30.22,-584.45 23.22,-584.35"/>
<text text-anchor="middle" x="103" y="-424" font-family="Helvetica,sans-Serif" font-size="10.00"> count</text>
<text text-anchor="middle" x="103" y="-413" font-family="Helvetica,sans-Serif" font-size="10.00">dir</text>
<text text-anchor="middle" x="103" y="-402" font-family="Helvetica,sans-Serif" font-size="10.00">ie</text>
<text text-anchor="middle" x="103" y="-391" font-family="Helvetica,sans-Serif" font-size="10.00">index</text>
<text text-anchor="middle" x="103" y="-380" font-family="Helvetica,sans-Serif" font-size="10.00">is</text>
<text text-anchor="middle" x="103" y="-369" font-family="Helvetica,sans-Serif" font-size="10.00">je</text>
<text text-anchor="middle" x="103" y="-358" font-family="Helvetica,sans-Serif" font-size="10.00">js</text>
<text text-anchor="middle" x="103" y="-347" font-family="Helvetica,sans-Serif" font-size="10.00">msgsize</text>
<text text-anchor="middle" x="103" y="-336" font-family="Helvetica,sans-Serif" font-size="10.00">pe</text>
<text text-anchor="middle" x="103" y="-325" font-family="Helvetica,sans-Serif" font-size="10.00">rotation</text>
<text text-anchor="middle" x="103" y="-314" font-family="Helvetica,sans-Serif" font-size="10.00">...</text>
</g>
<!-- Node15 -->
<g id="node15" class="node">
<title>Node15</title>
<g id="a_node15"><a xlink:href="group__mpp__domains__mod.html#structmpp__domains__mod_1_1domain2d__spec" target="_top" xlink:title="Private type to specify multiple index limits and pe information for a 2D domain.">
<polygon fill="white" stroke="black" points="620,-438.5 620,-457.5 713,-457.5 713,-438.5 620,-438.5"/>
<text text-anchor="middle" x="666.5" y="-445.5" font-family="Helvetica,sans-Serif" font-size="10.00">domain2d_spec</text>
</a>
</g>
</g>
<!-- Node5&#45;&gt;Node15 -->
<g id="edge32" class="edge">
<title>Node5&#45;&gt;Node15</title>
<path fill="none" stroke="#9a32cd" stroke-dasharray="5,2" d="M31.18,-584.51C36.8,-565.69 48.18,-538.04 69,-524 165.46,-458.93 476.01,-495.31 590,-472 594.75,-471.03 617.17,-463.85 636.36,-457.59"/>
<polygon fill="#9a32cd" stroke="#9a32cd" points="27.74,-583.83 28.51,-594.4 34.5,-585.65 27.74,-583.83"/>
<text text-anchor="middle" x="327.5" y="-519" font-family="Helvetica,sans-Serif" font-size="10.00"> pe</text>
<text text-anchor="middle" x="327.5" y="-508" font-family="Helvetica,sans-Serif" font-size="10.00">pos</text>
<text text-anchor="middle" x="327.5" y="-497" font-family="Helvetica,sans-Serif" font-size="10.00">tile_id</text>
<text text-anchor="middle" x="327.5" y="-486" font-family="Helvetica,sans-Serif" font-size="10.00">tile_root_pe</text>
</g>
<!-- Node16 -->
<g id="node16" class="node">
<title>Node16</title>
<g id="a_node16"><a xlink:href="group__mpp__domains__mod.html#structmpp__domains__mod_1_1domain1d__spec" target="_top" xlink:title="A private type used to specify index limits for a domain decomposition.">
<polygon fill="white" stroke="black" points="391.5,-438.5 391.5,-457.5 484.5,-457.5 484.5,-438.5 391.5,-438.5"/>
<text text-anchor="middle" x="438" y="-445.5" font-family="Helvetica,sans-Serif" font-size="10.00">domain1d_spec</text>
</a>
</g>
</g>
<!-- Node5&#45;&gt;Node16 -->
<g id="edge31" class="edge">
<title>Node5&#45;&gt;Node16</title>
<path fill="none" stroke="#9a32cd" stroke-dasharray="5,2" d="M28.31,-584.26C31.72,-559.44 41.45,-517.5 69,-496 118.26,-457.54 304.2,-449.81 391.37,-448.32"/>
<polygon fill="#9a32cd" stroke="#9a32cd" points="24.82,-583.98 27.15,-594.32 31.78,-584.79 24.82,-583.98"/>
<text text-anchor="middle" x="217.5" y="-470" font-family="Helvetica,sans-Serif" font-size="10.00"> pos</text>
</g>
<!-- Node17 -->
<g id="node17" class="node">
<title>Node17</title>
<g id="a_node17"><a xlink:href="group__mpp__domains__mod.html#structmpp__domains__mod_1_1tile__type" target="_top" xlink:title="Upper and lower x and y bounds for a tile.">
<polygon fill="white" stroke="black" points="298,-553.5 298,-572.5 357,-572.5 357,-553.5 298,-553.5"/>
<text text-anchor="middle" x="327.5" y="-560.5" font-family="Helvetica,sans-Serif" font-size="10.00">tile_type</text>
</a>
</g>
</g>
<!-- Node5&#45;&gt;Node17 -->
<g id="edge34" class="edge">
<title>Node5&#45;&gt;Node17</title>
<path fill="none" stroke="#9a32cd" stroke-dasharray="5,2" d="M34.46,-585.32C41.39,-571.67 52.87,-554.18 69,-546 146.32,-506.8 253.87,-536.57 301.78,-553.45"/>
<polygon fill="#9a32cd" stroke="#9a32cd" points="31.28,-583.85 30.21,-594.39 37.62,-586.81 31.28,-583.85"/>
<text text-anchor="middle" x="103" y="-582" font-family="Helvetica,sans-Serif" font-size="10.00"> xbegin</text>
<text text-anchor="middle" x="103" y="-571" font-family="Helvetica,sans-Serif" font-size="10.00">xend</text>
<text text-anchor="middle" x="103" y="-560" font-family="Helvetica,sans-Serif" font-size="10.00">ybegin</text>
<text text-anchor="middle" x="103" y="-549" font-family="Helvetica,sans-Serif" font-size="10.00">yend</text>
</g>
<!-- Node19 -->
<g id="node19" class="node">
<title>Node19</title>
<g id="a_node19"><a xlink:href="group__mpp__domains__mod.html#structmpp__domains__mod_1_1unstruct__pass__type" target="_top" xlink:title="Private type.">
<polygon fill="white" stroke="black" points="382.5,-709.5 382.5,-728.5 493.5,-728.5 493.5,-709.5 382.5,-709.5"/>
<text text-anchor="middle" x="438" y="-716.5" font-family="Helvetica,sans-Serif" font-size="10.00">unstruct_pass_type</text>
</a>
</g>
</g>
<!-- Node5&#45;&gt;Node19 -->
<g id="edge41" class="edge">
<title>Node5&#45;&gt;Node19</title>
<path fill="none" stroke="#9a32cd" stroke-dasharray="5,2" d="M32.16,-623.09C38.3,-640.22 49.88,-664.51 69,-677 94.67,-693.77 286.4,-708.87 382.47,-715.47"/>
<polygon fill="#9a32cd" stroke="#9a32cd" points="35.46,-621.93 29.02,-613.52 28.81,-624.12 35.46,-621.93"/>
<text text-anchor="middle" x="217.5" y="-721" font-family="Helvetica,sans-Serif" font-size="10.00"> nrecv</text>
<text text-anchor="middle" x="217.5" y="-710" font-family="Helvetica,sans-Serif" font-size="10.00">nsend</text>
</g>
<!-- Node20 -->
<g id="node20" class="node">
<title>Node20</title>
<g id="a_node20"><a xlink:href="group__mpp__domains__mod.html#structmpp__domains__mod_1_1unstruct__overlap__type" target="_top" xlink:title="Private type.">
<polygon fill="white" stroke="black" points="155,-636.5 155,-655.5 280,-655.5 280,-636.5 155,-636.5"/>
<text text-anchor="middle" x="217.5" y="-643.5" font-family="Helvetica,sans-Serif" font-size="10.00">unstruct_overlap_type</text>
</a>
</g>
</g>
<!-- Node5&#45;&gt;Node20 -->
<g id="edge40" class="edge">
<title>Node5&#45;&gt;Node20</title>
<path fill="none" stroke="#9a32cd" stroke-dasharray="5,2" d="M60.95,-613.06C63.67,-613.73 66.38,-614.39 69,-615 101.99,-622.73 139.35,-630.57 168.21,-636.44"/>
<polygon fill="#9a32cd" stroke="#9a32cd" points="61.73,-609.65 51.17,-610.59 60.01,-616.43 61.73,-609.65"/>
<text text-anchor="middle" x="103" y="-665" font-family="Helvetica,sans-Serif" font-size="10.00"> count</text>
<text text-anchor="middle" x="103" y="-654" font-family="Helvetica,sans-Serif" font-size="10.00">i</text>
<text text-anchor="middle" x="103" y="-643" font-family="Helvetica,sans-Serif" font-size="10.00">j</text>
<text text-anchor="middle" x="103" y="-632" font-family="Helvetica,sans-Serif" font-size="10.00">pe</text>
</g>
<!-- Node6&#45;&gt;Node1 -->
<g id="edge5" class="edge">
<title>Node6&#45;&gt;Node1</title>
<path fill="none" stroke="#9a32cd" stroke-dasharray="5,2" d="M1067.4,-808.11C1100.35,-820.15 1148.38,-837.69 1177.84,-848.45"/>
<polygon fill="#9a32cd" stroke="#9a32cd" points="1068.29,-804.71 1057.7,-804.57 1065.89,-811.29 1068.29,-804.71"/>
<text text-anchor="middle" x="1127" y="-842" font-family="Helvetica,sans-Serif" font-size="10.00"> ug_domain</text>
</g>
<!-- Node6&#45;&gt;Node6 -->
<g id="edge37" class="edge">
<title>Node6&#45;&gt;Node6</title>
<path fill="none" stroke="#9a32cd" stroke-dasharray="5,2" d="M1012.72,-814.4C1013.91,-819.31 1019.84,-823 1030.5,-823 1047.56,-823 1052.49,-813.57 1045.3,-804.76"/>
<polygon fill="#9a32cd" stroke="#9a32cd" points="1016.09,-815.34 1015.7,-804.76 1009.41,-813.28 1016.09,-815.34"/>
<text text-anchor="middle" x="1030.5" y="-826" font-family="Helvetica,sans-Serif" font-size="10.00"> io_domain</text>
</g>
<!-- Node7&#45;&gt;Node6 -->
<g id="edge6" class="edge">
<title>Node7&#45;&gt;Node6</title>
<path fill="none" stroke="#9a32cd" stroke-dasharray="5,2" d="M511.28,-805.53C640.57,-802.9 906.46,-797.5 997.84,-795.64"/>
<polygon fill="#9a32cd" stroke="#9a32cd" points="511,-802.04 501.08,-805.74 511.15,-809.03 511,-802.04"/>
<text text-anchor="middle" x="759.5" y="-803" font-family="Helvetica,sans-Serif" font-size="10.00"> list</text>
</g>
<!-- Node8&#45;&gt;Node6 -->
<g id="edge10" class="edge">
<title>Node8&#45;&gt;Node6</title>
<path fill="none" stroke="#9a32cd" stroke-dasharray="5,2" d="M282.79,-752.83C350.23,-754.6 459.3,-757 553.5,-757 553.5,-757 553.5,-757 842,-757 899.13,-757 964.13,-774.15 1000.64,-785.41"/>
<polygon fill="#9a32cd" stroke="#9a32cd" points="282.83,-749.33 272.75,-752.57 282.65,-756.33 282.83,-749.33"/>
<text text-anchor="middle" x="666.5" y="-771" font-family="Helvetica,sans-Serif" font-size="10.00"> compute</text>
<text text-anchor="middle" x="666.5" y="-760" font-family="Helvetica,sans-Serif" font-size="10.00">global</text>
</g>
<!-- Node8&#45;&gt;Node7 -->
<g id="edge7" class="edge">
<title>Node8&#45;&gt;Node7</title>
<path fill="none" stroke="#9a32cd" stroke-dasharray="5,2" d="M268.35,-762.89C294.74,-769.27 327.68,-777.37 357,-785 372.19,-788.95 388.95,-793.53 403.19,-797.48"/>
<polygon fill="#9a32cd" stroke="#9a32cd" points="269.12,-759.47 258.57,-760.53 267.48,-766.27 269.12,-759.47"/>
<text text-anchor="middle" x="327.5" y="-788" font-family="Helvetica,sans-Serif" font-size="10.00"> compute</text>
</g>
<!-- Node9&#45;&gt;Node1 -->
<g id="edge44" class="edge">
<title>Node9&#45;&gt;Node1</title>
<path fill="none" stroke="#9a32cd" stroke-dasharray="5,2" d="M859.38,-521.95C923.38,-584.36 1144.73,-800.2 1194.16,-848.4"/>
<polygon fill="#9a32cd" stroke="#9a32cd" points="861.66,-519.29 852.06,-514.81 856.78,-524.3 861.66,-519.29"/>
<text text-anchor="middle" x="1030.5" y="-747" font-family="Helvetica,sans-Serif" font-size="10.00"> domain</text>
<text text-anchor="middle" x="1030.5" y="-736" font-family="Helvetica,sans-Serif" font-size="10.00">domain_with_halo</text>
</g>
<!-- Node9&#45;&gt;Node6 -->
<g id="edge11" class="edge">
<title>Node9&#45;&gt;Node6</title>
<path fill="none" stroke="#9a32cd" stroke-dasharray="5,2" d="M844.91,-524.75C850.75,-557.64 866.85,-623.9 906,-663 925.33,-682.3 942.16,-668.33 963,-686 996.65,-714.53 1018.17,-764.57 1026.08,-785.44"/>
<polygon fill="#9a32cd" stroke="#9a32cd" points="848.32,-523.91 843.25,-514.6 841.41,-525.04 848.32,-523.91"/>
<text text-anchor="middle" x="934.5" y="-689" font-family="Helvetica,sans-Serif" font-size="10.00"> sg_domain</text>
</g>
<!-- Node9&#45;&gt;Node9 -->
<g id="edge21" class="edge">
<title>Node9&#45;&gt;Node9</title>
<path fill="none" stroke="#9a32cd" stroke-dasharray="5,2" d="M826.27,-524.77C827.42,-529.5 832.34,-533 841,-533 855.22,-533 859.33,-523.57 853.33,-514.76"/>
<polygon fill="#9a32cd" stroke="#9a32cd" points="829.74,-525.3 828.67,-514.76 822.93,-523.66 829.74,-525.3"/>
<text text-anchor="middle" x="841" y="-536" font-family="Helvetica,sans-Serif" font-size="10.00"> io_domain</text>
</g>
<!-- Node10&#45;&gt;Node9 -->
<g id="edge13" class="edge">
<title>Node10&#45;&gt;Node9</title>
<path fill="none" stroke="#9a32cd" stroke-dasharray="5,2" d="M480.99,-172.96C540.01,-180.25 648.8,-200.13 725,-252 813.14,-312 834.81,-456.96 839.08,-495.47"/>
<polygon fill="#9a32cd" stroke="#9a32cd" points="481.26,-169.47 470.92,-171.78 480.44,-176.42 481.26,-169.47"/>
<text text-anchor="middle" x="666.5" y="-266" font-family="Helvetica,sans-Serif" font-size="10.00"> x</text>
<text text-anchor="middle" x="666.5" y="-255" font-family="Helvetica,sans-Serif" font-size="10.00">y</text>
</g>
<!-- Node10&#45;&gt;Node10 -->
<g id="edge15" class="edge">
<title>Node10&#45;&gt;Node10</title>
<path fill="none" stroke="#9a32cd" stroke-dasharray="5,2" d="M417.63,-188.4C418.99,-193.31 425.78,-197 438,-197 457.55,-197 463.2,-187.57 454.95,-178.76"/>
<polygon fill="#9a32cd" stroke="#9a32cd" points="421.01,-189.35 421.05,-178.76 414.41,-187.01 421.01,-189.35"/>
<text text-anchor="middle" x="438" y="-200" font-family="Helvetica,sans-Serif" font-size="10.00"> list</text>
</g>
<!-- Node11&#45;&gt;Node10 -->
<g id="edge16" class="edge">
<title>Node11&#45;&gt;Node10</title>
<path fill="none" stroke="#9a32cd" stroke-dasharray="5,2" d="M281.12,-138.36C305.01,-136.85 332.4,-136.82 357,-141 377.6,-144.5 399.96,-152.73 415.79,-159.37"/>
<polygon fill="#9a32cd" stroke="#9a32cd" points="280.84,-134.87 271.12,-139.09 281.35,-141.85 280.84,-134.87"/>
<text text-anchor="middle" x="327.5" y="-177" font-family="Helvetica,sans-Serif" font-size="10.00"> compute</text>
<text text-anchor="middle" x="327.5" y="-166" font-family="Helvetica,sans-Serif" font-size="10.00">data</text>
<text text-anchor="middle" x="327.5" y="-155" font-family="Helvetica,sans-Serif" font-size="10.00">global</text>
<text text-anchor="middle" x="327.5" y="-144" font-family="Helvetica,sans-Serif" font-size="10.00">memory</text>
</g>
<!-- Node11&#45;&gt;Node16 -->
<g id="edge30" class="edge">
<title>Node11&#45;&gt;Node16</title>
<path fill="none" stroke="#9a32cd" stroke-dasharray="5,2" d="M268.83,-160.44C273,-163.11 276.83,-166.26 280,-170 304.99,-199.44 282.38,-219.68 298,-255 332.74,-333.55 402.79,-411.87 427.84,-438.47"/>
<polygon fill="#9a32cd" stroke="#9a32cd" points="270.33,-157.27 259.87,-155.62 267.02,-163.44 270.33,-157.27"/>
<text text-anchor="middle" x="327.5" y="-364" font-family="Helvetica,sans-Serif" font-size="10.00"> compute</text>
<text text-anchor="middle" x="327.5" y="-353" font-family="Helvetica,sans-Serif" font-size="10.00">global</text>
</g>
<!-- Node12 -->
<g id="node12" class="node">
<title>Node12</title>
<g id="a_node12"><a xlink:title=" ">
<polygon fill="white" stroke="#bfbfbf" points="619.5,-476.5 619.5,-495.5 713.5,-495.5 713.5,-476.5 619.5,-476.5"/>
<text text-anchor="middle" x="666.5" y="-483.5" font-family="Helvetica,sans-Serif" font-size="10.00">integer(i8_kind)</text>
</a>
</g>
</g>
<!-- Node12&#45;&gt;Node9 -->
<g id="edge20" class="edge">
<title>Node12&#45;&gt;Node9</title>
<path fill="none" stroke="#9a32cd" stroke-dasharray="5,2" d="M723.82,-492.2C751.88,-495.29 784.77,-498.92 808.38,-501.52"/>
<polygon fill="#9a32cd" stroke="#9a32cd" points="724.05,-488.71 713.73,-491.09 723.28,-495.67 724.05,-488.71"/>
<text text-anchor="middle" x="759.5" y="-501" font-family="Helvetica,sans-Serif" font-size="10.00"> id</text>
</g>
<!-- Node13&#45;&gt;Node9 -->
<g id="edge22" class="edge">
<title>Node13&#45;&gt;Node9</title>
<path fill="none" stroke="#9a32cd" stroke-dasharray="5,2" d="M486.42,-287.36C546.51,-275.38 651.16,-264.04 725,-308 798.5,-351.75 829.84,-461.92 837.84,-495.28"/>
<polygon fill="#9a32cd" stroke="#9a32cd" points="485.53,-283.97 476.45,-289.43 486.95,-290.82 485.53,-283.97"/>
<text text-anchor="middle" x="666.5" y="-421" font-family="Helvetica,sans-Serif" font-size="10.00"> bound_c</text>
<text text-anchor="middle" x="666.5" y="-410" font-family="Helvetica,sans-Serif" font-size="10.00">bound_e</text>
<text text-anchor="middle" x="666.5" y="-399" font-family="Helvetica,sans-Serif" font-size="10.00">bound_n</text>
<text text-anchor="middle" x="666.5" y="-388" font-family="Helvetica,sans-Serif" font-size="10.00">check_c</text>
<text text-anchor="middle" x="666.5" y="-377" font-family="Helvetica,sans-Serif" font-size="10.00">check_e</text>
<text text-anchor="middle" x="666.5" y="-366" font-family="Helvetica,sans-Serif" font-size="10.00">check_n</text>
<text text-anchor="middle" x="666.5" y="-355" font-family="Helvetica,sans-Serif" font-size="10.00">update_c</text>
<text text-anchor="middle" x="666.5" y="-344" font-family="Helvetica,sans-Serif" font-size="10.00">update_e</text>
<text text-anchor="middle" x="666.5" y="-333" font-family="Helvetica,sans-Serif" font-size="10.00">update_n</text>
<text text-anchor="middle" x="666.5" y="-322" font-family="Helvetica,sans-Serif" font-size="10.00">update_t</text>
<text text-anchor="middle" x="666.5" y="-311" font-family="Helvetica,sans-Serif" font-size="10.00">...</text>
</g>
<!-- Node13&#45;&gt;Node13 -->
<g id="edge26" class="edge">
<title>Node13&#45;&gt;Node13</title>
<path fill="none" stroke="#9a32cd" stroke-dasharray="5,2" d="M417.63,-318.4C418.99,-323.31 425.78,-327 438,-327 457.55,-327 463.2,-317.57 454.95,-308.76"/>
<polygon fill="#9a32cd" stroke="#9a32cd" points="421.01,-319.35 421.05,-308.76 414.41,-317.01 421.01,-319.35"/>
<text text-anchor="middle" x="438" y="-330" font-family="Helvetica,sans-Serif" font-size="10.00"> next</text>
</g>
<!-- Node14&#45;&gt;Node13 -->
<g id="edge23" class="edge">
<title>Node14&#45;&gt;Node13</title>
<path fill="none" stroke="#9a32cd" stroke-dasharray="5,2" d="M252.47,-250.74C274,-242.33 297.84,-233.03 298,-233 323.77,-228.15 332.32,-224.13 357,-233 388.52,-244.32 416.47,-274.03 429.4,-289.43"/>
<polygon fill="#9a32cd" stroke="#9a32cd" points="251.19,-247.48 243.14,-254.38 253.73,-254 251.19,-247.48"/>
<text text-anchor="middle" x="327.5" y="-247" font-family="Helvetica,sans-Serif" font-size="10.00"> recv</text>
<text text-anchor="middle" x="327.5" y="-236" font-family="Helvetica,sans-Serif" font-size="10.00">send</text>
</g>
<!-- Node15&#45;&gt;Node9 -->
<g id="edge28" class="edge">
<title>Node15&#45;&gt;Node9</title>
<path fill="none" stroke="#9a32cd" stroke-dasharray="5,2" d="M712.8,-460.42C732.36,-466.03 755.43,-472.96 776,-480 789.77,-484.71 804.95,-490.61 817.07,-495.49"/>
<polygon fill="#9a32cd" stroke="#9a32cd" points="713.5,-456.98 702.92,-457.62 711.59,-463.72 713.5,-456.98"/>
<text text-anchor="middle" x="759.5" y="-483" font-family="Helvetica,sans-Serif" font-size="10.00"> list</text>
</g>
<!-- Node16&#45;&gt;Node15 -->
<g id="edge29" class="edge">
<title>Node16&#45;&gt;Node15</title>
<path fill="none" stroke="#9a32cd" stroke-dasharray="5,2" d="M495.05,-448C533.41,-448 583.64,-448 619.62,-448"/>
<polygon fill="#9a32cd" stroke="#9a32cd" points="494.56,-444.5 484.56,-448 494.56,-451.5 494.56,-444.5"/>
<text text-anchor="middle" x="554.5" y="-462" font-family="Helvetica,sans-Serif" font-size="10.00"> x</text>
<text text-anchor="middle" x="554.5" y="-451" font-family="Helvetica,sans-Serif" font-size="10.00">y</text>
</g>
<!-- Node17&#45;&gt;Node9 -->
<g id="edge33" class="edge">
<title>Node17&#45;&gt;Node9</title>
<path fill="none" stroke="#9a32cd" stroke-dasharray="5,2" d="M364.53,-550.53C368.04,-549.57 371.57,-548.7 375,-548 417.24,-539.34 710.43,-515.38 808.28,-507.53"/>
<polygon fill="#9a32cd" stroke="#9a32cd" points="363.38,-547.22 354.79,-553.41 365.37,-553.93 363.38,-547.22"/>
<text text-anchor="middle" x="554.5" y="-536" font-family="Helvetica,sans-Serif" font-size="10.00"> tilelist</text>
</g>
<!-- Node18 -->
<g id="node18" class="node">
<title>Node18</title>
<g id="a_node18"><a xlink:title=" ">
<polygon fill="white" stroke="#bfbfbf" points="608,-553 608,-583 725,-583 725,-553 608,-553"/>
<text text-anchor="start" x="616" y="-571" font-family="Helvetica,sans-Serif" font-size="10.00">character(len=name</text>
<text text-anchor="middle" x="666.5" y="-560" font-family="Helvetica,sans-Serif" font-size="10.00">_length)</text>
</a>
</g>
</g>
<!-- Node18&#45;&gt;Node9 -->
<g id="edge36" class="edge">
<title>Node18&#45;&gt;Node9</title>
<path fill="none" stroke="#9a32cd" stroke-dasharray="5,2" d="M734.99,-551.67C748.73,-547.69 762.97,-543.1 776,-538 792.88,-531.4 811.17,-521.69 823.86,-514.51"/>
<polygon fill="#9a32cd" stroke="#9a32cd" points="733.78,-548.37 725.1,-554.45 735.67,-555.11 733.78,-548.37"/>
<text text-anchor="middle" x="759.5" y="-553" font-family="Helvetica,sans-Serif" font-size="10.00"> name</text>
</g>
<!-- Node19&#45;&gt;Node6 -->
<g id="edge38" class="edge">
<title>Node19&#45;&gt;Node6</title>
<path fill="none" stroke="#9a32cd" stroke-dasharray="5,2" d="M500.27,-707.87C601.63,-692.42 808.38,-673.6 963,-743 972.77,-747.38 972.69,-752.25 981,-759 992.39,-768.26 1005.83,-778.16 1015.67,-785.23"/>
<polygon fill="#9a32cd" stroke="#9a32cd" points="499.54,-704.44 490.21,-709.45 500.63,-711.36 499.54,-704.44"/>
<text text-anchor="middle" x="759.5" y="-711" font-family="Helvetica,sans-Serif" font-size="10.00"> sg2ug</text>
<text text-anchor="middle" x="759.5" y="-700" font-family="Helvetica,sans-Serif" font-size="10.00">ug2sg</text>
</g>
<!-- Node20&#45;&gt;Node19 -->
<g id="edge39" class="edge">
<title>Node20&#45;&gt;Node19</title>
<path fill="none" stroke="#9a32cd" stroke-dasharray="5,2" d="M290.22,-640.23C313.21,-641.62 337.69,-646.84 357,-660 371.45,-669.85 362,-683.3 375,-695 381.95,-701.25 390.71,-705.95 399.44,-709.45"/>
<polygon fill="#9a32cd" stroke="#9a32cd" points="290.26,-636.73 280.13,-639.85 289.99,-643.72 290.26,-636.73"/>
<text text-anchor="middle" x="327.5" y="-674" font-family="Helvetica,sans-Serif" font-size="10.00"> recv</text>
<text text-anchor="middle" x="327.5" y="-663" font-family="Helvetica,sans-Serif" font-size="10.00">send</text>
</g>
<!-- Node21 -->
<g id="node21" class="node">
<title>Node21</title>
<g id="a_node21"><a xlink:title=" ">
<polygon fill="white" stroke="#bfbfbf" points="794,-823.5 794,-842.5 888,-842.5 888,-823.5 794,-823.5"/>
<text text-anchor="middle" x="841" y="-830.5" font-family="Helvetica,sans-Serif" font-size="10.00">integer(i4_kind)</text>
</a>
</g>
</g>
<!-- Node21&#45;&gt;Node6 -->
<g id="edge43" class="edge">
<title>Node21&#45;&gt;Node6</title>
<path fill="none" stroke="#9a32cd" stroke-dasharray="5,2" d="M898.2,-821.61C930.77,-815.01 970.59,-806.94 997.78,-801.43"/>
<polygon fill="#9a32cd" stroke="#9a32cd" points="897.45,-818.19 888.35,-823.61 898.84,-825.05 897.45,-818.19"/>
<text text-anchor="middle" x="934.5" y="-822" font-family="Helvetica,sans-Serif" font-size="10.00"> io_layout</text>
</g>
<!-- Node22 -->
<g id="node22" class="node">
<title>Node22</title>
<g id="a_node22"><a xlink:title=" ">
<polygon fill="white" stroke="#bfbfbf" points="981,-596.5 981,-615.5 1080,-615.5 1080,-596.5 981,-596.5"/>
<text text-anchor="middle" x="1030.5" y="-603.5" font-family="Helvetica,sans-Serif" font-size="10.00">character(len=3)</text>
</a>
</g>
</g>
<!-- Node22&#45;&gt;Node1 -->
<g id="edge45" class="edge">
<title>Node22&#45;&gt;Node1</title>
<path fill="none" stroke="#9a32cd" stroke-dasharray="5,2" d="M1090.28,-602.41C1113.52,-604.12 1138.74,-610.38 1156,-627 1188.68,-658.47 1200.74,-808.41 1203.4,-848.26"/>
<polygon fill="#9a32cd" stroke="#9a32cd" points="1090.28,-598.91 1080.13,-601.93 1089.95,-605.9 1090.28,-598.91"/>
<text text-anchor="middle" x="1127" y="-630" font-family="Helvetica,sans-Serif" font-size="10.00"> id</text>
</g>
<!-- Node23&#45;&gt;Node1 -->
<g id="edge46" class="edge">
<title>Node23&#45;&gt;Node1</title>
<path fill="none" stroke="#9a32cd" stroke-dasharray="5,2" d="M1062.81,-969.83C1068.65,-966.81 1074.62,-963.48 1080,-960 1125.65,-930.49 1173.7,-886.75 1194.01,-867.59"/>
<polygon fill="#9a32cd" stroke="#9a32cd" points="1061.22,-966.7 1053.81,-974.27 1064.33,-972.98 1061.22,-966.7"/>
<text text-anchor="middle" x="1127" y="-950" font-family="Helvetica,sans-Serif" font-size="10.00"> box</text>
</g>
</g>
</svg>
