<?xml version="1.0" encoding="UTF-8" standalone="no"?>
<!DOCTYPE svg PUBLIC "-//W3C//DTD SVG 1.1//EN"
 "http://www.w3.org/Graphics/SVG/1.1/DTD/svg11.dtd">
<!-- Generated by graphviz version 2.43.0 (0)
 -->
<!-- Title: pk_type Pages: 1 -->
<svg width="64pt" height="106pt"
 viewBox="0.00 0.00 64.00 106.00" xmlns="http://www.w3.org/2000/svg" xmlns:xlink="http://www.w3.org/1999/xlink">
<g id="graph0" class="graph" transform="scale(1 1) rotate(0) translate(4 102)">
<title>pk_type</title>
<polygon fill="white" stroke="transparent" points="-4,4 -4,-102 60,-102 60,4 -4,4"/>
<!-- Node1 -->
<g id="node1" class="node">
<title>Node1</title>
<g id="a_node1"><a xlink:title="Type to dereference packed index from global indices.">
<polygon fill="#bfbfbf" stroke="black" points="0,-0.5 0,-19.5 56,-19.5 56,-0.5 0,-0.5"/>
<text text-anchor="middle" x="28" y="-7.5" font-family="Helvetica,sans-Serif" font-size="10.00">pk_type</text>
</a>
</g>
</g>
<!-- Node2 -->
<g id="node2" class="node">
<title>Node2</title>
<g id="a_node2"><a xlink:title=" ">
<polygon fill="white" stroke="#bfbfbf" points="2.5,-78.5 2.5,-97.5 53.5,-97.5 53.5,-78.5 2.5,-78.5"/>
<text text-anchor="middle" x="28" y="-85.5" font-family="Helvetica,sans-Serif" font-size="10.00">integer</text>
</a>
</g>
</g>
<!-- Node2&#45;&gt;Node1 -->
<g id="edge1" class="edge">
<title>Node2&#45;&gt;Node1</title>
<path fill="none" stroke="#9a32cd" stroke-dasharray="5,2" d="M28,-68.22C28,-52.7 28,-31.36 28,-19.62"/>
<polygon fill="#9a32cd" stroke="#9a32cd" points="24.5,-68.28 28,-78.28 31.5,-68.28 24.5,-68.28"/>
<text text-anchor="middle" x="33" y="-52" font-family="Helvetica,sans-Serif" font-size="10.00"> ii</text>
<text text-anchor="middle" x="33" y="-41" font-family="Helvetica,sans-Serif" font-size="10.00">jj</text>
</g>
</g>
</svg>
