<?xml version="1.0" encoding="UTF-8" standalone="no"?>
<!DOCTYPE svg PUBLIC "-//W3C//DTD SVG 1.1//EN"
 "http://www.w3.org/Graphics/SVG/1.1/DTD/svg11.dtd">
<!-- Generated by graphviz version 2.43.0 (0)
 -->
<!-- Title: nest_domain_type Pages: 1 -->
<svg width="1113pt" height="1096pt"
 viewBox="0.00 0.00 1112.68 1096.00" xmlns="http://www.w3.org/2000/svg" xmlns:xlink="http://www.w3.org/1999/xlink">
<g id="graph0" class="graph" transform="scale(1 1) rotate(0) translate(4 1092)">
<title>nest_domain_type</title>
<polygon fill="white" stroke="transparent" points="-4,4 -4,-1092 1108.68,-1092 1108.68,4 -4,4"/>
<!-- Node1 -->
<g id="node1" class="node">
<title>Node1</title>
<g id="a_node1"><a xlink:title="domain with nested fine and course tiles">
<polygon fill="#bfbfbf" stroke="black" points="831.18,-0.5 831.18,-19.5 938.18,-19.5 938.18,-0.5 831.18,-0.5"/>
<text text-anchor="middle" x="884.68" y="-7.5" font-family="Helvetica,sans-Serif" font-size="10.00">nest_domain_type</text>
</a>
</g>
</g>
<!-- Node2 -->
<g id="node2" class="node">
<title>Node2</title>
<g id="a_node2"><a xlink:href="group__mpp__domains__mod.html#structmpp__domains__mod_1_1nest__level__type" target="_top" xlink:title="Private type to hold data for each level of nesting.">
<polygon fill="white" stroke="black" points="525.68,-67.5 525.68,-86.5 619.68,-86.5 619.68,-67.5 525.68,-67.5"/>
<text text-anchor="middle" x="572.68" y="-74.5" font-family="Helvetica,sans-Serif" font-size="10.00">nest_level_type</text>
</a>
</g>
</g>
<!-- Node2&#45;&gt;Node1 -->
<g id="edge1" class="edge">
<title>Node2&#45;&gt;Node1</title>
<path fill="none" stroke="#9a32cd" stroke-dasharray="5,2" d="M623.64,-65.38C685,-52.6 786.84,-31.38 843.48,-19.58"/>
<polygon fill="#9a32cd" stroke="#9a32cd" points="622.86,-61.97 613.79,-67.44 624.29,-68.82 622.86,-61.97"/>
<text text-anchor="middle" x="760.18" y="-41" font-family="Helvetica,sans-Serif" font-size="10.00"> nest</text>
</g>
<!-- Node3 -->
<g id="node3" class="node">
<title>Node3</title>
<g id="a_node3"><a xlink:title=" ">
<polygon fill="white" stroke="#bfbfbf" points="127.18,-1068.5 127.18,-1087.5 176.18,-1087.5 176.18,-1068.5 127.18,-1068.5"/>
<text text-anchor="middle" x="151.68" y="-1075.5" font-family="Helvetica,sans-Serif" font-size="10.00">logical</text>
</a>
</g>
</g>
<!-- Node3&#45;&gt;Node2 -->
<g id="edge2" class="edge">
<title>Node3&#45;&gt;Node2</title>
<path fill="none" stroke="#9a32cd" stroke-dasharray="5,2" d="M117.03,-1073.07C87.54,-1068.98 48.3,-1061.54 37.68,-1050 -22.76,-984.36 7.68,-940.72 7.68,-851.5 7.68,-851.5 7.68,-851.5 7.68,-154 7.68,-101.92 389.68,-84.1 525.48,-79.41"/>
<polygon fill="#9a32cd" stroke="#9a32cd" points="116.63,-1076.54 127,-1074.38 117.54,-1069.6 116.63,-1076.54"/>
<text text-anchor="middle" x="39.68" y="-508" font-family="Helvetica,sans-Serif" font-size="10.00"> is_fine</text>
<text text-anchor="middle" x="39.68" y="-497" font-family="Helvetica,sans-Serif" font-size="10.00">is_coarse_pe</text>
<text text-anchor="middle" x="39.68" y="-486" font-family="Helvetica,sans-Serif" font-size="10.00">is_fine_pe</text>
<text text-anchor="middle" x="39.68" y="-475" font-family="Helvetica,sans-Serif" font-size="10.00">on_level</text>
<text text-anchor="middle" x="39.68" y="-464" font-family="Helvetica,sans-Serif" font-size="10.00">is_coarse</text>
</g>
<!-- Node4 -->
<g id="node4" class="node">
<title>Node4</title>
<g id="a_node4"><a xlink:href="group__mpp__domains__mod.html#structmpp__domains__mod_1_1domain2d" target="_top" xlink:title="The domain2D type contains all the necessary information to define the global, compute and data domai...">
<polygon fill="white" stroke="black" points="540.18,-145.5 540.18,-164.5 605.18,-164.5 605.18,-145.5 540.18,-145.5"/>
<text text-anchor="middle" x="572.68" y="-152.5" font-family="Helvetica,sans-Serif" font-size="10.00">domain2d</text>
</a>
</g>
</g>
<!-- Node3&#45;&gt;Node4 -->
<g id="edge4" class="edge">
<title>Node3&#45;&gt;Node4</title>
<path fill="none" stroke="#9a32cd" stroke-dasharray="5,2" d="M117.14,-1072.89C102.38,-1069.29 86.34,-1062.57 76.68,-1050 11.23,-964.92 40.4,-665.67 82.68,-567 172.8,-356.66 226.15,-295.05 425.68,-183 461.31,-162.99 508.74,-157.38 539.96,-156.03"/>
<polygon fill="#9a32cd" stroke="#9a32cd" points="116.57,-1076.35 127.07,-1074.91 117.97,-1069.49 116.57,-1076.35"/>
<text text-anchor="middle" x="120.18" y="-641.5" font-family="Helvetica,sans-Serif" font-size="10.00"> rotated_ninety</text>
<text text-anchor="middle" x="120.18" y="-630.5" font-family="Helvetica,sans-Serif" font-size="10.00">symmetry</text>
<text text-anchor="middle" x="120.18" y="-619.5" font-family="Helvetica,sans-Serif" font-size="10.00">initialized</text>
</g>
<!-- Node5 -->
<g id="node5" class="node">
<title>Node5</title>
<g id="a_node5"><a xlink:href="group__mpp__domains__mod.html#structmpp__domains__mod_1_1domain1d" target="_top" xlink:title="One dimensional domain used to manage shared data access between pes.">
<polygon fill="white" stroke="black" points="529.18,-623.5 529.18,-642.5 594.18,-642.5 594.18,-623.5 529.18,-623.5"/>
<text text-anchor="middle" x="561.68" y="-630.5" font-family="Helvetica,sans-Serif" font-size="10.00">domain1d</text>
</a>
</g>
</g>
<!-- Node3&#45;&gt;Node5 -->
<g id="edge6" class="edge">
<title>Node3&#45;&gt;Node5</title>
<path fill="none" stroke="#9a32cd" stroke-dasharray="5,2" d="M186.41,-1075.83C215.52,-1073.58 257.37,-1067.28 289.68,-1050 366.44,-1008.95 387.27,-988.11 427.68,-911 468.38,-833.32 419.66,-792.85 463.68,-717 483.71,-682.48 523.64,-655.66 545.85,-642.64"/>
<polygon fill="#9a32cd" stroke="#9a32cd" points="186.06,-1072.35 176.31,-1076.49 186.52,-1079.33 186.06,-1072.35"/>
<text text-anchor="middle" x="461.18" y="-848" font-family="Helvetica,sans-Serif" font-size="10.00"> cyclic</text>
</g>
<!-- Node6 -->
<g id="node6" class="node">
<title>Node6</title>
<g id="a_node6"><a xlink:href="group__mpp__domains__mod.html#structmpp__domains__mod_1_1domain__axis__spec" target="_top" xlink:title="Used to specify index limits along an axis of a domain.">
<polygon fill="white" stroke="black" points="537.18,-841 537.18,-860 644.18,-860 644.18,-841 537.18,-841"/>
<text text-anchor="middle" x="590.68" y="-848" font-family="Helvetica,sans-Serif" font-size="10.00">domain_axis_spec</text>
</a>
</g>
</g>
<!-- Node3&#45;&gt;Node6 -->
<g id="edge9" class="edge">
<title>Node3&#45;&gt;Node6</title>
<path fill="none" stroke="#9a32cd" stroke-dasharray="5,2" d="M186.42,-1076.96C275.94,-1076.52 509.25,-1073.15 534.68,-1050 574.98,-1013.3 538.6,-981.08 554.68,-929 562.73,-902.92 577.8,-874.29 585.65,-860.25"/>
<polygon fill="#9a32cd" stroke="#9a32cd" points="186.23,-1073.46 176.24,-1077 186.26,-1080.46 186.23,-1073.46"/>
<text text-anchor="middle" x="578.18" y="-987" font-family="Helvetica,sans-Serif" font-size="10.00"> is_global</text>
</g>
<!-- Node10 -->
<g id="node10" class="node">
<title>Node10</title>
<g id="a_node10"><a xlink:href="group__mpp__domains__mod.html#structmpp__domains__mod_1_1overlap__type" target="_top" xlink:title="Type for overlapping data.">
<polygon fill="white" stroke="black" points="163.68,-841 163.68,-860 243.68,-860 243.68,-841 163.68,-841"/>
<text text-anchor="middle" x="203.68" y="-848" font-family="Helvetica,sans-Serif" font-size="10.00">overlap_type</text>
</a>
</g>
</g>
<!-- Node3&#45;&gt;Node10 -->
<g id="edge16" class="edge">
<title>Node3&#45;&gt;Node10</title>
<path fill="none" stroke="#9a32cd" stroke-dasharray="5,2" d="M148.47,-1058.24C144.32,-1029.64 139.11,-973.74 152.68,-929 161.18,-900.95 183.37,-873.61 195.49,-860.15"/>
<polygon fill="#9a32cd" stroke="#9a32cd" points="145.06,-1059.07 150.08,-1068.4 151.98,-1057.98 145.06,-1059.07"/>
<text text-anchor="middle" x="186.68" y="-987" font-family="Helvetica,sans-Serif" font-size="10.00"> from_contact</text>
</g>
<!-- Node4&#45;&gt;Node2 -->
<g id="edge3" class="edge">
<title>Node4&#45;&gt;Node2</title>
<path fill="none" stroke="#9a32cd" stroke-dasharray="5,2" d="M572.68,-135.22C572.68,-119.7 572.68,-98.36 572.68,-86.62"/>
<polygon fill="#9a32cd" stroke="#9a32cd" points="569.18,-135.28 572.68,-145.28 576.18,-135.28 569.18,-135.28"/>
<text text-anchor="middle" x="611.68" y="-119" font-family="Helvetica,sans-Serif" font-size="10.00"> domain_coarse</text>
<text text-anchor="middle" x="611.68" y="-108" font-family="Helvetica,sans-Serif" font-size="10.00">domain_fine</text>
</g>
<!-- Node4&#45;&gt;Node4 -->
<g id="edge13" class="edge">
<title>Node4&#45;&gt;Node4</title>
<path fill="none" stroke="#9a32cd" stroke-dasharray="5,2" d="M615.32,-161.02C620.09,-159.88 623.18,-157.88 623.18,-155 623.18,-150.4 615.28,-148.03 605.22,-147.88"/>
<polygon fill="#9a32cd" stroke="#9a32cd" points="614.78,-157.55 605.22,-162.12 615.54,-164.51 614.78,-157.55"/>
<text text-anchor="middle" x="650.68" y="-152.5" font-family="Helvetica,sans-Serif" font-size="10.00"> io_domain</text>
</g>
<!-- Node5&#45;&gt;Node4 -->
<g id="edge5" class="edge">
<title>Node5&#45;&gt;Node4</title>
<path fill="none" stroke="#9a32cd" stroke-dasharray="5,2" d="M558.78,-613.54C551.13,-562.05 531.82,-412.49 544.68,-289 549.64,-241.36 564.34,-185.64 570.21,-164.62"/>
<polygon fill="#9a32cd" stroke="#9a32cd" points="555.33,-614.13 560.3,-623.49 562.25,-613.07 555.33,-614.13"/>
<text text-anchor="middle" x="549.68" y="-352.5" font-family="Helvetica,sans-Serif" font-size="10.00"> x</text>
<text text-anchor="middle" x="549.68" y="-341.5" font-family="Helvetica,sans-Serif" font-size="10.00">y</text>
</g>
<!-- Node5&#45;&gt;Node5 -->
<g id="edge7" class="edge">
<title>Node5&#45;&gt;Node5</title>
<path fill="none" stroke="#9a32cd" stroke-dasharray="5,2" d="M577.43,-648.93C593.82,-658.62 612.18,-653.31 612.18,-633 612.18,-609.15 586.86,-605.99 569.16,-623.5"/>
<polygon fill="#9a32cd" stroke="#9a32cd" points="579.2,-645.87 569.16,-642.5 574.91,-651.4 579.2,-645.87"/>
<text text-anchor="middle" x="621.68" y="-630.5" font-family="Helvetica,sans-Serif" font-size="10.00"> list</text>
</g>
<!-- Node6&#45;&gt;Node5 -->
<g id="edge8" class="edge">
<title>Node6&#45;&gt;Node5</title>
<path fill="none" stroke="#9a32cd" stroke-dasharray="5,2" d="M588.15,-830.71C582.12,-785.95 567.11,-674.39 562.83,-642.59"/>
<polygon fill="#9a32cd" stroke="#9a32cd" points="584.7,-831.34 589.5,-840.79 591.64,-830.41 584.7,-831.34"/>
<text text-anchor="middle" x="602.18" y="-758.5" font-family="Helvetica,sans-Serif" font-size="10.00"> memory</text>
<text text-anchor="middle" x="602.18" y="-747.5" font-family="Helvetica,sans-Serif" font-size="10.00">global</text>
<text text-anchor="middle" x="602.18" y="-736.5" font-family="Helvetica,sans-Serif" font-size="10.00">compute</text>
<text text-anchor="middle" x="602.18" y="-725.5" font-family="Helvetica,sans-Serif" font-size="10.00">data</text>
</g>
<!-- Node12 -->
<g id="node12" class="node">
<title>Node12</title>
<g id="a_node12"><a xlink:href="group__mpp__domains__mod.html#structmpp__domains__mod_1_1domain1d__spec" target="_top" xlink:title="A private type used to specify index limits for a domain decomposition.">
<polygon fill="white" stroke="black" points="662.18,-623.5 662.18,-642.5 755.18,-642.5 755.18,-623.5 662.18,-623.5"/>
<text text-anchor="middle" x="708.68" y="-630.5" font-family="Helvetica,sans-Serif" font-size="10.00">domain1d_spec</text>
</a>
</g>
</g>
<!-- Node6&#45;&gt;Node12 -->
<g id="edge22" class="edge">
<title>Node6&#45;&gt;Node12</title>
<path fill="none" stroke="#9a32cd" stroke-dasharray="5,2" d="M600.35,-831.84C624.43,-787.85 686.41,-674.66 703.97,-642.59"/>
<polygon fill="#9a32cd" stroke="#9a32cd" points="597.18,-830.33 595.45,-840.79 603.32,-833.7 597.18,-830.33"/>
<text text-anchor="middle" x="682.18" y="-747.5" font-family="Helvetica,sans-Serif" font-size="10.00"> global</text>
<text text-anchor="middle" x="682.18" y="-736.5" font-family="Helvetica,sans-Serif" font-size="10.00">compute</text>
</g>
<!-- Node7 -->
<g id="node7" class="node">
<title>Node7</title>
<g id="a_node7"><a xlink:title=" ">
<polygon fill="white" stroke="#bfbfbf" points="633.18,-1068.5 633.18,-1087.5 684.18,-1087.5 684.18,-1068.5 633.18,-1068.5"/>
<text text-anchor="middle" x="658.68" y="-1075.5" font-family="Helvetica,sans-Serif" font-size="10.00">integer</text>
</a>
</g>
</g>
<!-- Node7&#45;&gt;Node1 -->
<g id="edge36" class="edge">
<title>Node7&#45;&gt;Node1</title>
<path fill="none" stroke="#9a32cd" stroke-dasharray="5,2" d="M694.41,-1076.62C753.84,-1075.42 869.91,-1070.43 904.68,-1050 997.98,-995.18 1045.68,-959.71 1045.68,-851.5 1045.68,-851.5 1045.68,-851.5 1045.68,-76 1045.68,-28.67 985.12,-14.95 938.29,-11.41"/>
<polygon fill="#9a32cd" stroke="#9a32cd" points="694.29,-1073.12 684.35,-1076.8 694.41,-1080.12 694.29,-1073.12"/>
<text text-anchor="middle" x="1075.18" y="-402" font-family="Helvetica,sans-Serif" font-size="10.00"> jend_fine</text>
<text text-anchor="middle" x="1075.18" y="-391" font-family="Helvetica,sans-Serif" font-size="10.00">num_level</text>
<text text-anchor="middle" x="1075.18" y="-380" font-family="Helvetica,sans-Serif" font-size="10.00">iend_fine</text>
<text text-anchor="middle" x="1075.18" y="-369" font-family="Helvetica,sans-Serif" font-size="10.00">jend_coarse</text>
<text text-anchor="middle" x="1075.18" y="-358" font-family="Helvetica,sans-Serif" font-size="10.00">jstart_fine</text>
<text text-anchor="middle" x="1075.18" y="-347" font-family="Helvetica,sans-Serif" font-size="10.00">tile_fine</text>
<text text-anchor="middle" x="1075.18" y="-336" font-family="Helvetica,sans-Serif" font-size="10.00">istart_fine</text>
<text text-anchor="middle" x="1075.18" y="-325" font-family="Helvetica,sans-Serif" font-size="10.00">iend_coarse</text>
<text text-anchor="middle" x="1075.18" y="-314" font-family="Helvetica,sans-Serif" font-size="10.00">tile_coarse</text>
<text text-anchor="middle" x="1075.18" y="-303" font-family="Helvetica,sans-Serif" font-size="10.00">num_nest</text>
<text text-anchor="middle" x="1075.18" y="-292" font-family="Helvetica,sans-Serif" font-size="10.00">...</text>
</g>
<!-- Node7&#45;&gt;Node2 -->
<g id="edge35" class="edge">
<title>Node7&#45;&gt;Node2</title>
<path fill="none" stroke="#9a32cd" stroke-dasharray="5,2" d="M694.26,-1074.25C735.84,-1070.5 801.64,-1062.76 822.68,-1050 917,-992.81 971.68,-961.81 971.68,-851.5 971.68,-851.5 971.68,-851.5 971.68,-154 971.68,-122.24 948.71,-117.85 919.68,-105 867.25,-81.8 701.9,-78.16 619.83,-77.83"/>
<polygon fill="#9a32cd" stroke="#9a32cd" points="693.92,-1070.76 684.26,-1075.11 694.52,-1077.74 693.92,-1070.76"/>
<text text-anchor="middle" x="1001.18" y="-541" font-family="Helvetica,sans-Serif" font-size="10.00"> y_refine</text>
<text text-anchor="middle" x="1001.18" y="-530" font-family="Helvetica,sans-Serif" font-size="10.00">x_refine</text>
<text text-anchor="middle" x="1001.18" y="-519" font-family="Helvetica,sans-Serif" font-size="10.00">jend_fine</text>
<text text-anchor="middle" x="1001.18" y="-508" font-family="Helvetica,sans-Serif" font-size="10.00">pelist</text>
<text text-anchor="middle" x="1001.18" y="-497" font-family="Helvetica,sans-Serif" font-size="10.00">iend_fine</text>
<text text-anchor="middle" x="1001.18" y="-486" font-family="Helvetica,sans-Serif" font-size="10.00">jend_coarse</text>
<text text-anchor="middle" x="1001.18" y="-475" font-family="Helvetica,sans-Serif" font-size="10.00">jstart_fine</text>
<text text-anchor="middle" x="1001.18" y="-464" font-family="Helvetica,sans-Serif" font-size="10.00">tile_fine</text>
<text text-anchor="middle" x="1001.18" y="-453" font-family="Helvetica,sans-Serif" font-size="10.00">istart_fine</text>
<text text-anchor="middle" x="1001.18" y="-442" font-family="Helvetica,sans-Serif" font-size="10.00">iend_coarse</text>
<text text-anchor="middle" x="1001.18" y="-431" font-family="Helvetica,sans-Serif" font-size="10.00">...</text>
</g>
<!-- Node7&#45;&gt;Node4 -->
<g id="edge27" class="edge">
<title>Node7&#45;&gt;Node4</title>
<path fill="none" stroke="#9a32cd" stroke-dasharray="5,2" d="M694.55,-1077.51C719.12,-1075.9 750.74,-1069.67 770.68,-1050 878.4,-943.72 852.9,-867.91 841.68,-717 834.55,-621.1 813.81,-378.12 777.68,-289 755.89,-235.28 750.24,-214.65 701.68,-183 672.73,-164.14 633.05,-158.13 605.37,-156.38"/>
<polygon fill="#9a32cd" stroke="#9a32cd" points="694.34,-1074.01 684.5,-1077.94 694.64,-1081.01 694.34,-1074.01"/>
<text text-anchor="middle" x="865.18" y="-691" font-family="Helvetica,sans-Serif" font-size="10.00"> fold</text>
<text text-anchor="middle" x="865.18" y="-680" font-family="Helvetica,sans-Serif" font-size="10.00">tile_id</text>
<text text-anchor="middle" x="865.18" y="-669" font-family="Helvetica,sans-Serif" font-size="10.00">tile_id_all</text>
<text text-anchor="middle" x="865.18" y="-658" font-family="Helvetica,sans-Serif" font-size="10.00">io_layout</text>
<text text-anchor="middle" x="865.18" y="-647" font-family="Helvetica,sans-Serif" font-size="10.00">nhalo</text>
<text text-anchor="middle" x="865.18" y="-636" font-family="Helvetica,sans-Serif" font-size="10.00">ntiles</text>
<text text-anchor="middle" x="865.18" y="-625" font-family="Helvetica,sans-Serif" font-size="10.00">pe</text>
<text text-anchor="start" x="840.68" y="-614" font-family="Helvetica,sans-Serif" font-size="10.00">max_ntile</text>
<text text-anchor="middle" x="865.18" y="-603" font-family="Helvetica,sans-Serif" font-size="10.00">_pe</text>
<text text-anchor="middle" x="865.18" y="-592" font-family="Helvetica,sans-Serif" font-size="10.00">shalo</text>
<text text-anchor="middle" x="865.18" y="-581" font-family="Helvetica,sans-Serif" font-size="10.00">ncontacts</text>
<text text-anchor="middle" x="865.18" y="-570" font-family="Helvetica,sans-Serif" font-size="10.00">...</text>
</g>
<!-- Node7&#45;&gt;Node5 -->
<g id="edge11" class="edge">
<title>Node7&#45;&gt;Node5</title>
<path fill="none" stroke="#9a32cd" stroke-dasharray="5,2" d="M672.84,-1060.11C674.83,-1056.93 676.57,-1053.49 677.68,-1050 693.91,-998.73 682.45,-982.57 677.68,-929 669.08,-832.68 674.9,-801.94 628.68,-717 612.39,-687.07 584.9,-657.29 570.73,-642.9"/>
<polygon fill="#9a32cd" stroke="#9a32cd" points="669.96,-1058.13 666.91,-1068.27 675.62,-1062.24 669.96,-1058.13"/>
<text text-anchor="middle" x="693.68" y="-864.5" font-family="Helvetica,sans-Serif" font-size="10.00"> pe</text>
<text text-anchor="middle" x="693.68" y="-853.5" font-family="Helvetica,sans-Serif" font-size="10.00">goffset</text>
<text text-anchor="middle" x="693.68" y="-842.5" font-family="Helvetica,sans-Serif" font-size="10.00">pos</text>
<text text-anchor="middle" x="693.68" y="-831.5" font-family="Helvetica,sans-Serif" font-size="10.00">loffset</text>
</g>
<!-- Node7&#45;&gt;Node6 -->
<g id="edge10" class="edge">
<title>Node7&#45;&gt;Node6</title>
<path fill="none" stroke="#9a32cd" stroke-dasharray="5,2" d="M637.3,-1061.83C633.6,-1058.33 630.16,-1054.34 627.68,-1050 626.46,-1047.87 599.17,-898.16 592.25,-860.18"/>
<polygon fill="#9a32cd" stroke="#9a32cd" points="635.1,-1064.55 645.01,-1068.3 639.59,-1059.19 635.1,-1064.55"/>
<text text-anchor="middle" x="652.68" y="-1003.5" font-family="Helvetica,sans-Serif" font-size="10.00"> max_size</text>
<text text-anchor="middle" x="652.68" y="-992.5" font-family="Helvetica,sans-Serif" font-size="10.00">size</text>
<text text-anchor="middle" x="652.68" y="-981.5" font-family="Helvetica,sans-Serif" font-size="10.00">begin</text>
<text text-anchor="middle" x="652.68" y="-970.5" font-family="Helvetica,sans-Serif" font-size="10.00">end</text>
</g>
<!-- Node9 -->
<g id="node9" class="node">
<title>Node9</title>
<g id="a_node9"><a xlink:href="group__mpp__domains__mod.html#structmpp__domains__mod_1_1overlapspec" target="_top" xlink:title="Private type for overlap specifications.">
<polygon fill="white" stroke="black" points="332.68,-623.5 332.68,-642.5 408.68,-642.5 408.68,-623.5 332.68,-623.5"/>
<text text-anchor="middle" x="370.68" y="-630.5" font-family="Helvetica,sans-Serif" font-size="10.00">overlapspec</text>
</a>
</g>
</g>
<!-- Node7&#45;&gt;Node9 -->
<g id="edge19" class="edge">
<title>Node7&#45;&gt;Node9</title>
<path fill="none" stroke="#9a32cd" stroke-dasharray="5,2" d="M622.93,-1074.86C578.2,-1071.63 504.65,-1064.29 481.68,-1050 417.71,-1010.21 409.08,-982.27 384.68,-911 350.36,-810.78 364.69,-678.24 369.39,-642.95"/>
<polygon fill="#9a32cd" stroke="#9a32cd" points="622.88,-1078.37 633.1,-1075.56 623.36,-1071.38 622.88,-1078.37"/>
<text text-anchor="middle" x="406.18" y="-903" font-family="Helvetica,sans-Serif" font-size="10.00"> nsend</text>
<text text-anchor="middle" x="406.18" y="-892" font-family="Helvetica,sans-Serif" font-size="10.00">ybegin</text>
<text text-anchor="middle" x="406.18" y="-881" font-family="Helvetica,sans-Serif" font-size="10.00">xbegin</text>
<text text-anchor="middle" x="406.18" y="-870" font-family="Helvetica,sans-Serif" font-size="10.00">yend</text>
<text text-anchor="middle" x="406.18" y="-859" font-family="Helvetica,sans-Serif" font-size="10.00">nhalo</text>
<text text-anchor="middle" x="406.18" y="-848" font-family="Helvetica,sans-Serif" font-size="10.00">xend</text>
<text text-anchor="middle" x="406.18" y="-837" font-family="Helvetica,sans-Serif" font-size="10.00">recvsize</text>
<text text-anchor="middle" x="406.18" y="-826" font-family="Helvetica,sans-Serif" font-size="10.00">shalo</text>
<text text-anchor="middle" x="406.18" y="-815" font-family="Helvetica,sans-Serif" font-size="10.00">ehalo</text>
<text text-anchor="middle" x="406.18" y="-804" font-family="Helvetica,sans-Serif" font-size="10.00">sendsize</text>
<text text-anchor="middle" x="406.18" y="-793" font-family="Helvetica,sans-Serif" font-size="10.00">...</text>
</g>
<!-- Node7&#45;&gt;Node10 -->
<g id="edge17" class="edge">
<title>Node7&#45;&gt;Node10</title>
<path fill="none" stroke="#9a32cd" stroke-dasharray="5,2" d="M622.95,-1077.13C527.48,-1077.14 271.77,-1074.83 243.68,-1050 202.67,-1013.74 231.65,-982.63 220.68,-929 215.54,-903.9 208.89,-874.36 205.64,-860.08"/>
<polygon fill="#9a32cd" stroke="#9a32cd" points="622.99,-1080.63 632.99,-1077.12 622.99,-1073.63 622.99,-1080.63"/>
<text text-anchor="middle" x="264.68" y="-1042" font-family="Helvetica,sans-Serif" font-size="10.00"> rotation</text>
<text text-anchor="middle" x="264.68" y="-1031" font-family="Helvetica,sans-Serif" font-size="10.00">totsize</text>
<text text-anchor="middle" x="264.68" y="-1020" font-family="Helvetica,sans-Serif" font-size="10.00">pe</text>
<text text-anchor="middle" x="264.68" y="-1009" font-family="Helvetica,sans-Serif" font-size="10.00">dir</text>
<text text-anchor="middle" x="264.68" y="-998" font-family="Helvetica,sans-Serif" font-size="10.00">tileme</text>
<text text-anchor="middle" x="264.68" y="-987" font-family="Helvetica,sans-Serif" font-size="10.00">js</text>
<text text-anchor="middle" x="264.68" y="-976" font-family="Helvetica,sans-Serif" font-size="10.00">count</text>
<text text-anchor="middle" x="264.68" y="-965" font-family="Helvetica,sans-Serif" font-size="10.00">is</text>
<text text-anchor="middle" x="264.68" y="-954" font-family="Helvetica,sans-Serif" font-size="10.00">tilenbr</text>
<text text-anchor="middle" x="264.68" y="-943" font-family="Helvetica,sans-Serif" font-size="10.00">index</text>
<text text-anchor="middle" x="264.68" y="-932" font-family="Helvetica,sans-Serif" font-size="10.00">...</text>
</g>
<!-- Node11 -->
<g id="node11" class="node">
<title>Node11</title>
<g id="a_node11"><a xlink:href="group__mpp__domains__mod.html#structmpp__domains__mod_1_1domain2d__spec" target="_top" xlink:title="Private type to specify multiple index limits and pe information for a 2D domain.">
<polygon fill="white" stroke="black" points="676.18,-340 676.18,-359 769.18,-359 769.18,-340 676.18,-340"/>
<text text-anchor="middle" x="722.68" y="-347" font-family="Helvetica,sans-Serif" font-size="10.00">domain2d_spec</text>
</a>
</g>
</g>
<!-- Node7&#45;&gt;Node11 -->
<g id="edge24" class="edge">
<title>Node7&#45;&gt;Node11</title>
<path fill="none" stroke="#9a32cd" stroke-dasharray="5,2" d="M694.43,-1072.8C709.6,-1069.18 726.17,-1062.46 736.68,-1050 805.99,-967.83 773.72,-674.03 763.68,-567 755.99,-485.11 732.3,-388.06 724.9,-359.08"/>
<polygon fill="#9a32cd" stroke="#9a32cd" points="693.36,-1069.44 684.24,-1074.84 694.73,-1076.3 693.36,-1069.44"/>
<text text-anchor="middle" x="808.68" y="-758.5" font-family="Helvetica,sans-Serif" font-size="10.00"> tile_id</text>
<text text-anchor="middle" x="808.68" y="-747.5" font-family="Helvetica,sans-Serif" font-size="10.00">pe</text>
<text text-anchor="middle" x="808.68" y="-736.5" font-family="Helvetica,sans-Serif" font-size="10.00">tile_root_pe</text>
<text text-anchor="middle" x="808.68" y="-725.5" font-family="Helvetica,sans-Serif" font-size="10.00">pos</text>
</g>
<!-- Node7&#45;&gt;Node12 -->
<g id="edge23" class="edge">
<title>Node7&#45;&gt;Node12</title>
<path fill="none" stroke="#9a32cd" stroke-dasharray="5,2" d="M691.83,-1063.45C697.24,-1059.84 702.2,-1055.4 705.68,-1050 768.24,-952.67 722.38,-905.64 718.68,-790 716.88,-733.85 711.45,-666.51 709.44,-642.79"/>
<polygon fill="#9a32cd" stroke="#9a32cd" points="690.04,-1060.44 683.11,-1068.45 693.53,-1066.51 690.04,-1060.44"/>
<text text-anchor="middle" x="745.18" y="-848" font-family="Helvetica,sans-Serif" font-size="10.00"> pos</text>
</g>
<!-- Node13 -->
<g id="node13" class="node">
<title>Node13</title>
<g id="a_node13"><a xlink:href="group__mpp__domains__mod.html#structmpp__domains__mod_1_1tile__type" target="_top" xlink:title="Upper and lower x and y bounds for a tile.">
<polygon fill="white" stroke="black" points="472.18,-735 472.18,-754 531.18,-754 531.18,-735 472.18,-735"/>
<text text-anchor="middle" x="501.68" y="-742" font-family="Helvetica,sans-Serif" font-size="10.00">tile_type</text>
</a>
</g>
</g>
<!-- Node7&#45;&gt;Node13 -->
<g id="edge26" class="edge">
<title>Node7&#45;&gt;Node13</title>
<path fill="none" stroke="#9a32cd" stroke-dasharray="5,2" d="M622.83,-1076.35C579.37,-1074.72 509.91,-1069.11 493.68,-1050 474.07,-1026.93 495.94,-801.48 500.77,-754.18"/>
<polygon fill="#9a32cd" stroke="#9a32cd" points="622.9,-1079.86 633.01,-1076.68 623.13,-1072.86 622.9,-1079.86"/>
<text text-anchor="middle" x="512.18" y="-1003.5" font-family="Helvetica,sans-Serif" font-size="10.00"> ybegin</text>
<text text-anchor="middle" x="512.18" y="-992.5" font-family="Helvetica,sans-Serif" font-size="10.00">xbegin</text>
<text text-anchor="middle" x="512.18" y="-981.5" font-family="Helvetica,sans-Serif" font-size="10.00">yend</text>
<text text-anchor="middle" x="512.18" y="-970.5" font-family="Helvetica,sans-Serif" font-size="10.00">xend</text>
</g>
<!-- Node15 -->
<g id="node15" class="node">
<title>Node15</title>
<g id="a_node15"><a xlink:href="group__mpp__domains__mod.html#structmpp__domains__mod_1_1nestspec" target="_top" xlink:title="Used to specify bounds and index information for nested tiles as a linked list.">
<polygon fill="white" stroke="black" points="166.68,-623.5 166.68,-642.5 226.68,-642.5 226.68,-623.5 166.68,-623.5"/>
<text text-anchor="middle" x="196.68" y="-630.5" font-family="Helvetica,sans-Serif" font-size="10.00">nestspec</text>
</a>
</g>
</g>
<!-- Node7&#45;&gt;Node15 -->
<g id="edge34" class="edge">
<title>Node7&#45;&gt;Node15</title>
<path fill="none" stroke="#9a32cd" stroke-dasharray="5,2" d="M622.86,-1077.34C558.37,-1077.34 425.86,-1074.25 387.68,-1050 249.56,-962.27 290.85,-869.16 230.68,-717 219.91,-689.78 206.62,-657.78 200.32,-642.7"/>
<polygon fill="#9a32cd" stroke="#9a32cd" points="622.98,-1080.84 632.97,-1077.32 622.96,-1073.84 622.98,-1080.84"/>
<text text-anchor="middle" x="308.18" y="-903" font-family="Helvetica,sans-Serif" font-size="10.00"> extra_halo</text>
<text text-anchor="middle" x="308.18" y="-892" font-family="Helvetica,sans-Serif" font-size="10.00">nsend</text>
<text text-anchor="middle" x="308.18" y="-881" font-family="Helvetica,sans-Serif" font-size="10.00">xsize_c</text>
<text text-anchor="middle" x="308.18" y="-870" font-family="Helvetica,sans-Serif" font-size="10.00">ybegin</text>
<text text-anchor="middle" x="308.18" y="-859" font-family="Helvetica,sans-Serif" font-size="10.00">xbegin</text>
<text text-anchor="middle" x="308.18" y="-848" font-family="Helvetica,sans-Serif" font-size="10.00">yend</text>
<text text-anchor="middle" x="308.18" y="-837" font-family="Helvetica,sans-Serif" font-size="10.00">xend</text>
<text text-anchor="middle" x="308.18" y="-826" font-family="Helvetica,sans-Serif" font-size="10.00">yend_c</text>
<text text-anchor="middle" x="308.18" y="-815" font-family="Helvetica,sans-Serif" font-size="10.00">xbegin_c</text>
<text text-anchor="middle" x="308.18" y="-804" font-family="Helvetica,sans-Serif" font-size="10.00">ysize_c</text>
<text text-anchor="middle" x="308.18" y="-793" font-family="Helvetica,sans-Serif" font-size="10.00">...</text>
</g>
<!-- Node16 -->
<g id="node16" class="node">
<title>Node16</title>
<g id="a_node16"><a xlink:href="group__mpp__domains__mod.html#structmpp__domains__mod_1_1index__type" target="_top" xlink:title="index bounds for use in nestSpec">
<polygon fill="white" stroke="black" points="74.18,-841 74.18,-860 145.18,-860 145.18,-841 74.18,-841"/>
<text text-anchor="middle" x="109.68" y="-848" font-family="Helvetica,sans-Serif" font-size="10.00">index_type</text>
</a>
</g>
</g>
<!-- Node7&#45;&gt;Node16 -->
<g id="edge32" class="edge">
<title>Node7&#45;&gt;Node16</title>
<path fill="none" stroke="#9a32cd" stroke-dasharray="5,2" d="M622.93,-1076.59C503.46,-1075.05 124.5,-1068.72 106.68,-1050 55.1,-995.84 93.12,-890.87 105.9,-860.15"/>
<polygon fill="#9a32cd" stroke="#9a32cd" points="622.98,-1080.09 633.02,-1076.72 623.07,-1073.09 622.98,-1080.09"/>
<text text-anchor="middle" x="123.68" y="-1025.5" font-family="Helvetica,sans-Serif" font-size="10.00"> ie_me</text>
<text text-anchor="middle" x="123.68" y="-1014.5" font-family="Helvetica,sans-Serif" font-size="10.00">js_you</text>
<text text-anchor="middle" x="123.68" y="-1003.5" font-family="Helvetica,sans-Serif" font-size="10.00">je_me</text>
<text text-anchor="middle" x="123.68" y="-992.5" font-family="Helvetica,sans-Serif" font-size="10.00">is_you</text>
<text text-anchor="middle" x="123.68" y="-981.5" font-family="Helvetica,sans-Serif" font-size="10.00">is_me</text>
<text text-anchor="middle" x="123.68" y="-970.5" font-family="Helvetica,sans-Serif" font-size="10.00">je_you</text>
<text text-anchor="middle" x="123.68" y="-959.5" font-family="Helvetica,sans-Serif" font-size="10.00">js_me</text>
<text text-anchor="middle" x="123.68" y="-948.5" font-family="Helvetica,sans-Serif" font-size="10.00">ie_you</text>
</g>
<!-- Node8 -->
<g id="node8" class="node">
<title>Node8</title>
<g id="a_node8"><a xlink:title=" ">
<polygon fill="white" stroke="#bfbfbf" points="563.68,-340 563.68,-359 657.68,-359 657.68,-340 563.68,-340"/>
<text text-anchor="middle" x="610.68" y="-347" font-family="Helvetica,sans-Serif" font-size="10.00">integer(i8_kind)</text>
</a>
</g>
</g>
<!-- Node8&#45;&gt;Node4 -->
<g id="edge12" class="edge">
<title>Node8&#45;&gt;Node4</title>
<path fill="none" stroke="#9a32cd" stroke-dasharray="5,2" d="M607.05,-330.14C599.08,-289.74 580.25,-194.37 574.43,-164.86"/>
<polygon fill="#9a32cd" stroke="#9a32cd" points="603.62,-330.85 608.99,-339.98 610.49,-329.49 603.62,-330.85"/>
<text text-anchor="middle" x="602.18" y="-224.5" font-family="Helvetica,sans-Serif" font-size="10.00"> id</text>
</g>
<!-- Node9&#45;&gt;Node4 -->
<g id="edge14" class="edge">
<title>Node9&#45;&gt;Node4</title>
<path fill="none" stroke="#9a32cd" stroke-dasharray="5,2" d="M371.86,-613.2C375.52,-560.84 388.7,-409.27 424.68,-289 439.5,-239.45 433.28,-216.5 472.68,-183 491.45,-167.04 518.76,-160.43 540.11,-157.73"/>
<polygon fill="#9a32cd" stroke="#9a32cd" points="368.35,-613.12 371.18,-623.33 375.34,-613.58 368.35,-613.12"/>
<text text-anchor="middle" x="448.68" y="-402" font-family="Helvetica,sans-Serif" font-size="10.00"> update_c</text>
<text text-anchor="middle" x="448.68" y="-391" font-family="Helvetica,sans-Serif" font-size="10.00">update_t</text>
<text text-anchor="middle" x="448.68" y="-380" font-family="Helvetica,sans-Serif" font-size="10.00">update_e</text>
<text text-anchor="middle" x="448.68" y="-369" font-family="Helvetica,sans-Serif" font-size="10.00">bound_c</text>
<text text-anchor="middle" x="448.68" y="-358" font-family="Helvetica,sans-Serif" font-size="10.00">bound_e</text>
<text text-anchor="middle" x="448.68" y="-347" font-family="Helvetica,sans-Serif" font-size="10.00">check_n</text>
<text text-anchor="middle" x="448.68" y="-336" font-family="Helvetica,sans-Serif" font-size="10.00">update_n</text>
<text text-anchor="middle" x="448.68" y="-325" font-family="Helvetica,sans-Serif" font-size="10.00">check_c</text>
<text text-anchor="middle" x="448.68" y="-314" font-family="Helvetica,sans-Serif" font-size="10.00">bound_n</text>
<text text-anchor="middle" x="448.68" y="-303" font-family="Helvetica,sans-Serif" font-size="10.00">check_e</text>
<text text-anchor="middle" x="448.68" y="-292" font-family="Helvetica,sans-Serif" font-size="10.00">...</text>
</g>
<!-- Node9&#45;&gt;Node9 -->
<g id="edge18" class="edge">
<title>Node9&#45;&gt;Node9</title>
<path fill="none" stroke="#9a32cd" stroke-dasharray="5,2" d="M387.15,-648.39C405.56,-658.81 426.68,-653.68 426.68,-633 426.68,-609.15 398.6,-605.99 378.97,-623.5"/>
<polygon fill="#9a32cd" stroke="#9a32cd" points="389.13,-645.5 378.97,-642.5 385.05,-651.18 389.13,-645.5"/>
<text text-anchor="middle" x="439.18" y="-630.5" font-family="Helvetica,sans-Serif" font-size="10.00"> next</text>
</g>
<!-- Node10&#45;&gt;Node9 -->
<g id="edge15" class="edge">
<title>Node10&#45;&gt;Node9</title>
<path fill="none" stroke="#9a32cd" stroke-dasharray="5,2" d="M216.72,-832.66C250.34,-789.29 339.01,-674.86 364.02,-642.59"/>
<polygon fill="#9a32cd" stroke="#9a32cd" points="213.79,-830.74 210.43,-840.79 219.32,-835.02 213.79,-830.74"/>
<text text-anchor="middle" x="315.18" y="-747.5" font-family="Helvetica,sans-Serif" font-size="10.00"> recv</text>
<text text-anchor="middle" x="315.18" y="-736.5" font-family="Helvetica,sans-Serif" font-size="10.00">send</text>
</g>
<!-- Node10&#45;&gt;Node15 -->
<g id="edge30" class="edge">
<title>Node10&#45;&gt;Node15</title>
<path fill="none" stroke="#9a32cd" stroke-dasharray="5,2" d="M203.07,-830.71C201.61,-785.95 197.99,-674.39 196.96,-642.59"/>
<polygon fill="#9a32cd" stroke="#9a32cd" points="199.57,-830.9 203.39,-840.79 206.57,-830.68 199.57,-830.9"/>
<text text-anchor="middle" x="214.18" y="-747.5" font-family="Helvetica,sans-Serif" font-size="10.00"> recv</text>
<text text-anchor="middle" x="214.18" y="-736.5" font-family="Helvetica,sans-Serif" font-size="10.00">send</text>
</g>
<!-- Node11&#45;&gt;Node4 -->
<g id="edge20" class="edge">
<title>Node11&#45;&gt;Node4</title>
<path fill="none" stroke="#9a32cd" stroke-dasharray="5,2" d="M713.82,-330.65C697.24,-298.43 658.96,-229.61 612.68,-183 605.59,-175.87 596.36,-169.49 588.55,-164.72"/>
<polygon fill="#9a32cd" stroke="#9a32cd" points="710.79,-332.4 718.43,-339.74 717.04,-329.24 710.79,-332.4"/>
<text text-anchor="middle" x="688.18" y="-224.5" font-family="Helvetica,sans-Serif" font-size="10.00"> list</text>
</g>
<!-- Node12&#45;&gt;Node11 -->
<g id="edge21" class="edge">
<title>Node12&#45;&gt;Node11</title>
<path fill="none" stroke="#9a32cd" stroke-dasharray="5,2" d="M709.61,-613.16C712.36,-557.96 720.31,-398.08 722.25,-359.13"/>
<polygon fill="#9a32cd" stroke="#9a32cd" points="706.11,-613.11 709.11,-623.27 713.1,-613.45 706.11,-613.11"/>
<text text-anchor="middle" x="723.68" y="-491.5" font-family="Helvetica,sans-Serif" font-size="10.00"> x</text>
<text text-anchor="middle" x="723.68" y="-480.5" font-family="Helvetica,sans-Serif" font-size="10.00">y</text>
</g>
<!-- Node13&#45;&gt;Node4 -->
<g id="edge25" class="edge">
<title>Node13&#45;&gt;Node4</title>
<path fill="none" stroke="#9a32cd" stroke-dasharray="5,2" d="M500.78,-724.62C498.66,-675.59 494.22,-540.18 503.68,-428 512.94,-318.06 491.61,-280.27 543.68,-183 547.57,-175.72 554.19,-169.33 560.12,-164.6"/>
<polygon fill="#9a32cd" stroke="#9a32cd" points="497.28,-724.86 501.23,-734.69 504.28,-724.55 497.28,-724.86"/>
<text text-anchor="middle" x="520.68" y="-486" font-family="Helvetica,sans-Serif" font-size="10.00"> tilelist</text>
</g>
<!-- Node14 -->
<g id="node14" class="node">
<title>Node14</title>
<g id="a_node14"><a xlink:title=" ">
<polygon fill="white" stroke="#bfbfbf" points="826.18,-334.5 826.18,-364.5 943.18,-364.5 943.18,-334.5 826.18,-334.5"/>
<text text-anchor="start" x="834.18" y="-352.5" font-family="Helvetica,sans-Serif" font-size="10.00">character(len=name</text>
<text text-anchor="middle" x="884.68" y="-341.5" font-family="Helvetica,sans-Serif" font-size="10.00">_length)</text>
</a>
</g>
</g>
<!-- Node14&#45;&gt;Node1 -->
<g id="edge37" class="edge">
<title>Node14&#45;&gt;Node1</title>
<path fill="none" stroke="#9a32cd" stroke-dasharray="5,2" d="M884.68,-324.18C884.68,-255.63 884.68,-63.03 884.68,-19.72"/>
<polygon fill="#9a32cd" stroke="#9a32cd" points="881.18,-324.43 884.68,-334.43 888.18,-324.43 881.18,-324.43"/>
<text text-anchor="middle" x="900.18" y="-113.5" font-family="Helvetica,sans-Serif" font-size="10.00"> name</text>
</g>
<!-- Node14&#45;&gt;Node4 -->
<g id="edge28" class="edge">
<title>Node14&#45;&gt;Node4</title>
<path fill="none" stroke="#9a32cd" stroke-dasharray="5,2" d="M869.72,-325.79C860.23,-310.7 848.18,-290.2 839.68,-271 823.05,-233.47 843.39,-209.05 811.68,-183 780.94,-157.76 663.6,-155.13 605.57,-155.44"/>
<polygon fill="#9a32cd" stroke="#9a32cd" points="866.91,-327.89 875.24,-334.43 872.8,-324.12 866.91,-327.89"/>
<text text-anchor="middle" x="855.18" y="-224.5" font-family="Helvetica,sans-Serif" font-size="10.00"> name</text>
</g>
<!-- Node15&#45;&gt;Node2 -->
<g id="edge29" class="edge">
<title>Node15&#45;&gt;Node2</title>
<path fill="none" stroke="#9a32cd" stroke-dasharray="5,2" d="M200.73,-613.1C215.78,-546.77 274.03,-321.17 396.68,-183 440.26,-133.91 512.44,-101.04 549.36,-86.51"/>
<polygon fill="#9a32cd" stroke="#9a32cd" points="197.22,-612.75 198.48,-623.27 204.06,-614.26 197.22,-612.75"/>
<text text-anchor="middle" x="411.18" y="-263" font-family="Helvetica,sans-Serif" font-size="10.00"> f2c_c</text>
<text text-anchor="middle" x="411.18" y="-252" font-family="Helvetica,sans-Serif" font-size="10.00">f2c_t</text>
<text text-anchor="middle" x="411.18" y="-241" font-family="Helvetica,sans-Serif" font-size="10.00">c2f_c</text>
<text text-anchor="middle" x="411.18" y="-230" font-family="Helvetica,sans-Serif" font-size="10.00">c2f_t</text>
<text text-anchor="middle" x="411.18" y="-219" font-family="Helvetica,sans-Serif" font-size="10.00">f2c_e</text>
<text text-anchor="middle" x="411.18" y="-208" font-family="Helvetica,sans-Serif" font-size="10.00">c2f_e</text>
<text text-anchor="middle" x="411.18" y="-197" font-family="Helvetica,sans-Serif" font-size="10.00">f2c_n</text>
<text text-anchor="middle" x="411.18" y="-186" font-family="Helvetica,sans-Serif" font-size="10.00">c2f_n</text>
</g>
<!-- Node15&#45;&gt;Node15 -->
<g id="edge33" class="edge">
<title>Node15&#45;&gt;Node15</title>
<path fill="none" stroke="#9a32cd" stroke-dasharray="5,2" d="M211.65,-648.93C227.23,-658.62 244.68,-653.31 244.68,-633 244.68,-609.15 220.61,-605.99 203.79,-623.5"/>
<polygon fill="#9a32cd" stroke="#9a32cd" points="213.74,-646.12 203.79,-642.5 209.31,-651.54 213.74,-646.12"/>
<text text-anchor="middle" x="257.18" y="-630.5" font-family="Helvetica,sans-Serif" font-size="10.00"> next</text>
</g>
<!-- Node16&#45;&gt;Node15 -->
<g id="edge31" class="edge">
<title>Node16&#45;&gt;Node15</title>
<path fill="none" stroke="#9a32cd" stroke-dasharray="5,2" d="M117.03,-831.28C134.95,-786.9 180.31,-674.53 193.21,-642.59"/>
<polygon fill="#9a32cd" stroke="#9a32cd" points="113.69,-830.2 113.19,-840.79 120.18,-832.82 113.69,-830.2"/>
<text text-anchor="middle" x="177.18" y="-764" font-family="Helvetica,sans-Serif" font-size="10.00"> west</text>
<text text-anchor="middle" x="177.18" y="-753" font-family="Helvetica,sans-Serif" font-size="10.00">center</text>
<text text-anchor="middle" x="177.18" y="-742" font-family="Helvetica,sans-Serif" font-size="10.00">south</text>
<text text-anchor="middle" x="177.18" y="-731" font-family="Helvetica,sans-Serif" font-size="10.00">east</text>
<text text-anchor="middle" x="177.18" y="-720" font-family="Helvetica,sans-Serif" font-size="10.00">north</text>
</g>
</g>
</svg>
