<?xml version="1.0" encoding="UTF-8" standalone="no"?>
<!DOCTYPE svg PUBLIC "-//W3C//DTD SVG 1.1//EN"
 "http://www.w3.org/Graphics/SVG/1.1/DTD/svg11.dtd">
<!-- Generated by graphviz version 2.43.0 (0)
 -->
<!-- Title: diag_fieldtype Pages: 1 -->
<!--zoomable 916 -->
<svg id="main" version="1.1" xmlns="http://www.w3.org/2000/svg" xmlns:xlink="http://www.w3.org/1999/xlink" xml:space="preserve" onload="init(evt)">
<style type="text/css"><![CDATA[
.edge:hover path { stroke: red; }
.edge:hover polygon { stroke: red; fill: red; }
]]></style>
<script type="text/javascript"><![CDATA[
var edges = document.getElementsByTagName('g');
if (edges && edges.length) {
  for (var i=0;i<edges.length;i++) {
    if (edges[i].id.substr(0,4)=='edge') {
      edges[i].setAttribute('class','edge');
    }
  }
}
]]></script>
        <defs>
                <circle id="rim" cx="0" cy="0" r="7"/>
                <circle id="rim2" cx="0" cy="0" r="3.5"/>
                <g id="zoomPlus">
                        <use xlink:href="#rim" fill="#404040">
                                <set attributeName="fill" to="#808080" begin="zoomplus.mouseover" end="zoomplus.mouseout"/>
                        </use>
                        <path d="M-4,0h8M0,-4v8" fill="none" stroke="white" stroke-width="1.5" pointer-events="none"/>
                </g>
                <g id="zoomMin">
                        <use xlink:href="#rim" fill="#404040">
                                <set attributeName="fill" to="#808080" begin="zoomminus.mouseover" end="zoomminus.mouseout"/>
                        </use>
                        <path d="M-4,0h8" fill="none" stroke="white" stroke-width="1.5" pointer-events="none"/>
                </g>
                <g id="dirArrow">
                        <path fill="none" stroke="white" stroke-width="1.5" d="M0,-3.0v7 M-2.5,-0.5L0,-3.0L2.5,-0.5"/>
                </g>
               <g id="resetDef">
                       <use xlink:href="#rim2" fill="#404040">
                               <set attributeName="fill" to="#808080" begin="reset.mouseover" end="reset.mouseout"/>
                       </use>
               </g>
        </defs>

<script type="text/javascript">
var viewWidth = 1274;
var viewHeight = 916;
var sectionId = 'dynsection-3';
</script>
<script xlink:href="svgpan.js"/>
<svg id="graph" class="graph">
<g id="viewport">
<title>diag_fieldtype</title>
<polygon fill="white" stroke="transparent" points="-4,4 -4,-912.36 1270,-912.36 1270,4 -4,4"/>
<!-- Node1 -->
<g id="node1" class="node">
<title>Node1</title>
<g id="a_node1"><a xlink:title="Diagnostic field type.">
<polygon fill="#bfbfbf" stroke="black" points="1180,-308.86 1180,-327.86 1266,-327.86 1266,-308.86 1180,-308.86"/>
<text text-anchor="middle" x="1223" y="-315.86" font-family="Helvetica,sans-Serif" font-size="10.00">diag_fieldtype</text>
</a>
</g>
</g>
<!-- Node2 -->
<g id="node2" class="node">
<title>Node2</title>
<g id="a_node2"><a xlink:title=" ">
<polygon fill="white" stroke="#bfbfbf" points="1,-745.86 1,-764.86 50,-764.86 50,-745.86 1,-745.86"/>
<text text-anchor="middle" x="25.5" y="-752.86" font-family="Helvetica,sans-Serif" font-size="10.00">logical</text>
</a>
</g>
</g>
<!-- Node2&#45;&gt;Node1 -->
<g id="edge1" class="edge">
<title>Node2&#45;&gt;Node1</title>
<path fill="none" stroke="#9a32cd" stroke-dasharray="5,2" d="M33.78,-774.29C40.72,-790.1 52.54,-812.25 69,-826.36 122.72,-872.43 145.73,-886.36 216.5,-886.36 216.5,-886.36 216.5,-886.36 1037.5,-886.36 1159.85,-886.36 1213.41,-403.65 1221.04,-328.22"/>
<polygon fill="#9a32cd" stroke="#9a32cd" points="36.98,-772.88 29.93,-764.97 30.51,-775.55 36.98,-772.88"/>
<text text-anchor="middle" x="666.5" y="-900.36" font-family="Helvetica,sans-Serif" font-size="10.00"> miss_pack_present</text>
<text text-anchor="middle" x="666.5" y="-889.36" font-family="Helvetica,sans-Serif" font-size="10.00">miss_present</text>
</g>
<!-- Node7 -->
<g id="node7" class="node">
<title>Node7</title>
<g id="a_node7"><a xlink:href="group__mpp__domains__mod.html#structmpp__domains__mod_1_1domain2d" target="_top" xlink:title="The domain2D type contains all the necessary information to define the global, compute and data domai...">
<polygon fill="white" stroke="black" points="808.5,-405.86 808.5,-424.86 873.5,-424.86 873.5,-405.86 808.5,-405.86"/>
<text text-anchor="middle" x="841" y="-412.86" font-family="Helvetica,sans-Serif" font-size="10.00">domain2d</text>
</a>
</g>
</g>
<!-- Node2&#45;&gt;Node7 -->
<g id="edge9" class="edge">
<title>Node2&#45;&gt;Node7</title>
<path fill="none" stroke="#9a32cd" stroke-dasharray="5,2" d="M38.45,-773.28C46.01,-783.16 56.68,-794.74 69,-801.36 127.5,-832.8 150.08,-825.36 216.5,-825.36 216.5,-825.36 216.5,-825.36 667.5,-825.36 696.53,-825.36 705.86,-816.19 725,-794.36 827.47,-677.53 838.64,-471.6 839.85,-424.94"/>
<polygon fill="#9a32cd" stroke="#9a32cd" points="41.08,-770.95 32.41,-764.87 35.4,-775.03 41.08,-770.95"/>
<text text-anchor="middle" x="438" y="-850.36" font-family="Helvetica,sans-Serif" font-size="10.00"> initialized</text>
<text text-anchor="middle" x="438" y="-839.36" font-family="Helvetica,sans-Serif" font-size="10.00">rotated_ninety</text>
<text text-anchor="middle" x="438" y="-828.36" font-family="Helvetica,sans-Serif" font-size="10.00">symmetry</text>
</g>
<!-- Node8 -->
<g id="node8" class="node">
<title>Node8</title>
<g id="a_node8"><a xlink:href="group__mpp__domains__mod.html#structmpp__domains__mod_1_1domain1d" target="_top" xlink:title="One dimensional domain used to manage shared data access between pes.">
<polygon fill="white" stroke="black" points="405.5,-528.86 405.5,-547.86 470.5,-547.86 470.5,-528.86 405.5,-528.86"/>
<text text-anchor="middle" x="438" y="-535.86" font-family="Helvetica,sans-Serif" font-size="10.00">domain1d</text>
</a>
</g>
</g>
<!-- Node2&#45;&gt;Node8 -->
<g id="edge11" class="edge">
<title>Node2&#45;&gt;Node8</title>
<path fill="none" stroke="#9a32cd" stroke-dasharray="5,2" d="M59.94,-746.16C124.28,-728.3 260.72,-689.72 280,-678.36 330.65,-648.54 330.58,-624.86 375,-586.36 391.25,-572.28 411.06,-557.29 423.84,-547.89"/>
<polygon fill="#9a32cd" stroke="#9a32cd" points="58.96,-742.79 50.26,-748.84 60.83,-749.54 58.96,-742.79"/>
<text text-anchor="middle" x="217.5" y="-721.36" font-family="Helvetica,sans-Serif" font-size="10.00"> cyclic</text>
</g>
<!-- Node9 -->
<g id="node9" class="node">
<title>Node9</title>
<g id="a_node9"><a xlink:href="group__mpp__domains__mod.html#structmpp__domains__mod_1_1domain__axis__spec" target="_top" xlink:title="Used to specify index limits along an axis of a domain.">
<polygon fill="white" stroke="black" points="164,-497.86 164,-516.86 271,-516.86 271,-497.86 164,-497.86"/>
<text text-anchor="middle" x="217.5" y="-504.86" font-family="Helvetica,sans-Serif" font-size="10.00">domain_axis_spec</text>
</a>
</g>
</g>
<!-- Node2&#45;&gt;Node9 -->
<g id="edge14" class="edge">
<title>Node2&#45;&gt;Node9</title>
<path fill="none" stroke="#9a32cd" stroke-dasharray="5,2" d="M28.13,-735.69C32.28,-690.31 44.66,-580.13 69,-553.36 93,-526.97 131.88,-515.58 163.69,-510.74"/>
<polygon fill="#9a32cd" stroke="#9a32cd" points="24.64,-735.48 27.25,-745.74 31.61,-736.09 24.64,-735.48"/>
<text text-anchor="middle" x="103" y="-556.36" font-family="Helvetica,sans-Serif" font-size="10.00"> is_global</text>
</g>
<!-- Node12 -->
<g id="node12" class="node">
<title>Node12</title>
<g id="a_node12"><a xlink:href="group__mpp__domains__mod.html#structmpp__domains__mod_1_1overlap__type" target="_top" xlink:title="Type for overlapping data.">
<polygon fill="white" stroke="black" points="177.5,-739.86 177.5,-758.86 257.5,-758.86 257.5,-739.86 177.5,-739.86"/>
<text text-anchor="middle" x="217.5" y="-746.86" font-family="Helvetica,sans-Serif" font-size="10.00">overlap_type</text>
</a>
</g>
</g>
<!-- Node2&#45;&gt;Node12 -->
<g id="edge21" class="edge">
<title>Node2&#45;&gt;Node12</title>
<path fill="none" stroke="#9a32cd" stroke-dasharray="5,2" d="M60.18,-754.3C92.97,-753.26 142.76,-751.69 177.3,-750.6"/>
<polygon fill="#9a32cd" stroke="#9a32cd" points="60.06,-750.8 50.18,-754.62 60.28,-757.8 60.06,-750.8"/>
<text text-anchor="middle" x="103" y="-756.36" font-family="Helvetica,sans-Serif" font-size="10.00"> from_contact</text>
</g>
<!-- Node3 -->
<g id="node3" class="node">
<title>Node3</title>
<g id="a_node3"><a xlink:href="group__mpp__domains__mod.html#structmpp__domains__mod_1_1domainug" target="_top" xlink:title="Domain information for managing data on unstructured grids.">
<polygon fill="white" stroke="black" points="1004,-193.86 1004,-212.86 1069,-212.86 1069,-193.86 1004,-193.86"/>
<text text-anchor="middle" x="1036.5" y="-200.86" font-family="Helvetica,sans-Serif" font-size="10.00">domainug</text>
</a>
</g>
</g>
<!-- Node3&#45;&gt;Node1 -->
<g id="edge2" class="edge">
<title>Node3&#45;&gt;Node1</title>
<path fill="none" stroke="#9a32cd" stroke-dasharray="5,2" d="M1061.42,-218.27C1099.85,-242.22 1174.27,-288.62 1206.5,-308.7"/>
<polygon fill="#9a32cd" stroke="#9a32cd" points="1063.25,-215.29 1052.91,-212.97 1059.55,-221.23 1063.25,-215.29"/>
<text text-anchor="middle" x="1136" y="-280.36" font-family="Helvetica,sans-Serif" font-size="10.00"> domainu</text>
</g>
<!-- Node3&#45;&gt;Node3 -->
<g id="edge34" class="edge">
<title>Node3&#45;&gt;Node3</title>
<path fill="none" stroke="#9a32cd" stroke-dasharray="5,2" d="M1018.35,-222.76C1019.56,-227.68 1025.61,-231.36 1036.5,-231.36 1053.92,-231.36 1058.95,-221.93 1051.6,-213.12"/>
<polygon fill="#9a32cd" stroke="#9a32cd" points="1021.72,-223.71 1021.4,-213.12 1015.05,-221.6 1021.72,-223.71"/>
<text text-anchor="middle" x="1036.5" y="-234.36" font-family="Helvetica,sans-Serif" font-size="10.00"> io_domain</text>
</g>
<!-- Node4 -->
<g id="node4" class="node">
<title>Node4</title>
<g id="a_node4"><a xlink:href="group__mpp__domains__mod.html#structmpp__domains__mod_1_1unstruct__domain__spec" target="_top" xlink:title="Private type for axis specification data for an unstructured domain.">
<polygon fill="white" stroke="black" points="375,-193.86 375,-212.86 501,-212.86 501,-193.86 375,-193.86"/>
<text text-anchor="middle" x="438" y="-200.86" font-family="Helvetica,sans-Serif" font-size="10.00">unstruct_domain_spec</text>
</a>
</g>
</g>
<!-- Node4&#45;&gt;Node3 -->
<g id="edge3" class="edge">
<title>Node4&#45;&gt;Node3</title>
<path fill="none" stroke="#9a32cd" stroke-dasharray="5,2" d="M511.44,-203.36C641.95,-203.36 911.59,-203.36 1003.78,-203.36"/>
<polygon fill="#9a32cd" stroke="#9a32cd" points="511.15,-199.86 501.15,-203.36 511.15,-206.86 511.15,-199.86"/>
<text text-anchor="middle" x="759.5" y="-206.36" font-family="Helvetica,sans-Serif" font-size="10.00"> list</text>
</g>
<!-- Node5 -->
<g id="node5" class="node">
<title>Node5</title>
<g id="a_node5"><a xlink:href="group__mpp__domains__mod.html#structmpp__domains__mod_1_1unstruct__axis__spec" target="_top" xlink:title="Private type for axis specification data for an unstructured grid.">
<polygon fill="white" stroke="black" points="162.5,-142.86 162.5,-161.86 272.5,-161.86 272.5,-142.86 162.5,-142.86"/>
<text text-anchor="middle" x="217.5" y="-149.86" font-family="Helvetica,sans-Serif" font-size="10.00">unstruct_axis_spec</text>
</a>
</g>
</g>
<!-- Node5&#45;&gt;Node3 -->
<g id="edge7" class="edge">
<title>Node5&#45;&gt;Node3</title>
<path fill="none" stroke="#9a32cd" stroke-dasharray="5,2" d="M282.65,-154.83C378.83,-158.68 566.08,-166.79 725,-177.36 827.01,-184.15 947.64,-195.09 1003.79,-200.35"/>
<polygon fill="#9a32cd" stroke="#9a32cd" points="282.64,-151.32 272.51,-154.42 282.36,-158.32 282.64,-151.32"/>
<text text-anchor="middle" x="666.5" y="-191.36" font-family="Helvetica,sans-Serif" font-size="10.00"> compute</text>
<text text-anchor="middle" x="666.5" y="-180.36" font-family="Helvetica,sans-Serif" font-size="10.00">global</text>
</g>
<!-- Node5&#45;&gt;Node4 -->
<g id="edge4" class="edge">
<title>Node5&#45;&gt;Node4</title>
<path fill="none" stroke="#9a32cd" stroke-dasharray="5,2" d="M277.62,-163.9C302.24,-168.93 331.08,-175.09 357,-181.36 372.54,-185.12 389.64,-189.76 404.04,-193.8"/>
<polygon fill="#9a32cd" stroke="#9a32cd" points="278.2,-160.45 267.7,-161.89 276.81,-167.31 278.2,-160.45"/>
<text text-anchor="middle" x="327.5" y="-184.36" font-family="Helvetica,sans-Serif" font-size="10.00"> compute</text>
</g>
<!-- Node6 -->
<g id="node6" class="node">
<title>Node6</title>
<g id="a_node6"><a xlink:title=" ">
<polygon fill="white" stroke="#bfbfbf" points="0,-328.86 0,-347.86 51,-347.86 51,-328.86 0,-328.86"/>
<text text-anchor="middle" x="25.5" y="-335.86" font-family="Helvetica,sans-Serif" font-size="10.00">integer</text>
</a>
</g>
</g>
<!-- Node6&#45;&gt;Node1 -->
<g id="edge43" class="edge">
<title>Node6&#45;&gt;Node1</title>
<path fill="none" stroke="#9a32cd" stroke-dasharray="5,2" d="M26.96,-358.56C29,-439.86 38.59,-740.17 69,-768.36 147.98,-841.57 445.81,-779.36 553.5,-779.36 553.5,-779.36 553.5,-779.36 1037.5,-779.36 1138.36,-779.36 1208.99,-394.19 1220.38,-327.99"/>
<polygon fill="#9a32cd" stroke="#9a32cd" points="30.45,-358.13 26.71,-348.21 23.45,-358.29 30.45,-358.13"/>
<text text-anchor="middle" x="666.5" y="-782.36" font-family="Helvetica,sans-Serif" font-size="10.00"> tile_count</text>
</g>
<!-- Node6&#45;&gt;Node3 -->
<g id="edge39" class="edge">
<title>Node6&#45;&gt;Node3</title>
<path fill="none" stroke="#9a32cd" stroke-dasharray="5,2" d="M26.44,-318.52C26.67,-257.88 30.63,-76.69 69,-35.36 114.64,13.8 149.42,-3.36 216.5,-3.36 216.5,-3.36 216.5,-3.36 842,-3.36 900.89,-3.36 927.55,-10.34 963,-57.36 997.32,-102.89 944.8,-140.33 981,-184.36 986.79,-191.41 995.35,-195.84 1003.98,-198.64"/>
<polygon fill="#9a32cd" stroke="#9a32cd" points="22.94,-318.66 26.43,-328.67 29.94,-318.67 22.94,-318.66"/>
<text text-anchor="middle" x="554.5" y="-83.36" font-family="Helvetica,sans-Serif" font-size="10.00"> grid_index</text>
<text text-anchor="middle" x="554.5" y="-72.36" font-family="Helvetica,sans-Serif" font-size="10.00">npes_io_group</text>
<text text-anchor="middle" x="554.5" y="-61.36" font-family="Helvetica,sans-Serif" font-size="10.00">ntiles</text>
<text text-anchor="middle" x="554.5" y="-50.36" font-family="Helvetica,sans-Serif" font-size="10.00">pe</text>
<text text-anchor="middle" x="554.5" y="-39.36" font-family="Helvetica,sans-Serif" font-size="10.00">pos</text>
<text text-anchor="middle" x="554.5" y="-28.36" font-family="Helvetica,sans-Serif" font-size="10.00">tile_id</text>
<text text-anchor="middle" x="554.5" y="-17.36" font-family="Helvetica,sans-Serif" font-size="10.00">tile_npes</text>
<text text-anchor="middle" x="554.5" y="-6.36" font-family="Helvetica,sans-Serif" font-size="10.00">tile_root_pe</text>
</g>
<!-- Node6&#45;&gt;Node4 -->
<g id="edge6" class="edge">
<title>Node6&#45;&gt;Node4</title>
<path fill="none" stroke="#9a32cd" stroke-dasharray="5,2" d="M31.3,-319.01C37.12,-299.27 48.77,-268.97 69,-250.36 99.13,-222.65 114.94,-225.82 155,-217.36 229.46,-201.65 317.32,-199.84 374.94,-200.86"/>
<polygon fill="#9a32cd" stroke="#9a32cd" points="27.9,-318.18 28.65,-328.75 34.65,-320.02 27.9,-318.18"/>
<text text-anchor="middle" x="217.5" y="-242.36" font-family="Helvetica,sans-Serif" font-size="10.00"> pe</text>
<text text-anchor="middle" x="217.5" y="-231.36" font-family="Helvetica,sans-Serif" font-size="10.00">pos</text>
<text text-anchor="middle" x="217.5" y="-220.36" font-family="Helvetica,sans-Serif" font-size="10.00">tile_id</text>
</g>
<!-- Node6&#45;&gt;Node5 -->
<g id="edge5" class="edge">
<title>Node6&#45;&gt;Node5</title>
<path fill="none" stroke="#9a32cd" stroke-dasharray="5,2" d="M28.01,-318.71C31.8,-275.42 43.28,-173.99 69,-153.36 102.16,-126.77 154.34,-134.24 186.92,-142.79"/>
<polygon fill="#9a32cd" stroke="#9a32cd" points="24.51,-318.58 27.18,-328.83 31.49,-319.15 24.51,-318.58"/>
<text text-anchor="middle" x="103" y="-211.36" font-family="Helvetica,sans-Serif" font-size="10.00"> begin</text>
<text text-anchor="middle" x="103" y="-200.36" font-family="Helvetica,sans-Serif" font-size="10.00">begin_index</text>
<text text-anchor="middle" x="103" y="-189.36" font-family="Helvetica,sans-Serif" font-size="10.00">end</text>
<text text-anchor="middle" x="103" y="-178.36" font-family="Helvetica,sans-Serif" font-size="10.00">end_index</text>
<text text-anchor="middle" x="103" y="-167.36" font-family="Helvetica,sans-Serif" font-size="10.00">max_size</text>
<text text-anchor="middle" x="103" y="-156.36" font-family="Helvetica,sans-Serif" font-size="10.00">size</text>
</g>
<!-- Node6&#45;&gt;Node7 -->
<g id="edge32" class="edge">
<title>Node6&#45;&gt;Node7</title>
<path fill="none" stroke="#9a32cd" stroke-dasharray="5,2" d="M54.86,-352.01C59.52,-353.97 64.35,-355.84 69,-357.36 132.74,-378.27 149.42,-389.36 216.5,-389.36 216.5,-389.36 216.5,-389.36 667.5,-389.36 717.17,-389.36 773.99,-400.03 808.42,-407.7"/>
<polygon fill="#9a32cd" stroke="#9a32cd" points="56.19,-348.77 45.63,-347.93 53.36,-355.17 56.19,-348.77"/>
<text text-anchor="middle" x="438" y="-502.36" font-family="Helvetica,sans-Serif" font-size="10.00"> ehalo</text>
<text text-anchor="middle" x="438" y="-491.36" font-family="Helvetica,sans-Serif" font-size="10.00">fold</text>
<text text-anchor="middle" x="438" y="-480.36" font-family="Helvetica,sans-Serif" font-size="10.00">io_layout</text>
<text text-anchor="middle" x="438" y="-469.36" font-family="Helvetica,sans-Serif" font-size="10.00">max_ntile_pe</text>
<text text-anchor="middle" x="438" y="-458.36" font-family="Helvetica,sans-Serif" font-size="10.00">ncontacts</text>
<text text-anchor="middle" x="438" y="-447.36" font-family="Helvetica,sans-Serif" font-size="10.00">nhalo</text>
<text text-anchor="middle" x="438" y="-436.36" font-family="Helvetica,sans-Serif" font-size="10.00">ntiles</text>
<text text-anchor="middle" x="438" y="-425.36" font-family="Helvetica,sans-Serif" font-size="10.00">pe</text>
<text text-anchor="middle" x="438" y="-414.36" font-family="Helvetica,sans-Serif" font-size="10.00">pearray</text>
<text text-anchor="middle" x="438" y="-403.36" font-family="Helvetica,sans-Serif" font-size="10.00">pos</text>
<text text-anchor="middle" x="438" y="-392.36" font-family="Helvetica,sans-Serif" font-size="10.00">...</text>
</g>
<!-- Node6&#45;&gt;Node8 -->
<g id="edge16" class="edge">
<title>Node6&#45;&gt;Node8</title>
<path fill="none" stroke="#9a32cd" stroke-dasharray="5,2" d="M33.89,-357.55C40.69,-372.51 52.27,-392.52 69,-403.36 177.77,-473.86 260.37,-362.97 357,-449.36 379.35,-469.34 354.88,-492.14 375,-514.36 382.9,-523.09 394.35,-528.67 405.26,-532.23"/>
<polygon fill="#9a32cd" stroke="#9a32cd" points="37.04,-356.03 29.94,-348.17 30.59,-358.75 37.04,-356.03"/>
<text text-anchor="middle" x="217.5" y="-463.36" font-family="Helvetica,sans-Serif" font-size="10.00"> goffset</text>
<text text-anchor="middle" x="217.5" y="-452.36" font-family="Helvetica,sans-Serif" font-size="10.00">loffset</text>
<text text-anchor="middle" x="217.5" y="-441.36" font-family="Helvetica,sans-Serif" font-size="10.00">pe</text>
<text text-anchor="middle" x="217.5" y="-430.36" font-family="Helvetica,sans-Serif" font-size="10.00">pos</text>
</g>
<!-- Node6&#45;&gt;Node9 -->
<g id="edge15" class="edge">
<title>Node6&#45;&gt;Node9</title>
<path fill="none" stroke="#9a32cd" stroke-dasharray="5,2" d="M29.9,-358.18C34.76,-380.63 45.8,-416.86 69,-438.36 92.4,-460.05 110.77,-443.2 137,-461.36 147.39,-468.55 144.78,-475.93 155,-483.36 163.34,-489.43 173.42,-494.2 182.98,-497.83"/>
<polygon fill="#9a32cd" stroke="#9a32cd" points="33.29,-357.27 27.94,-348.13 26.42,-358.61 33.29,-357.27"/>
<text text-anchor="middle" x="103" y="-497.36" font-family="Helvetica,sans-Serif" font-size="10.00"> begin</text>
<text text-anchor="middle" x="103" y="-486.36" font-family="Helvetica,sans-Serif" font-size="10.00">end</text>
<text text-anchor="middle" x="103" y="-475.36" font-family="Helvetica,sans-Serif" font-size="10.00">max_size</text>
<text text-anchor="middle" x="103" y="-464.36" font-family="Helvetica,sans-Serif" font-size="10.00">size</text>
</g>
<!-- Node11 -->
<g id="node11" class="node">
<title>Node11</title>
<g id="a_node11"><a xlink:href="group__mpp__domains__mod.html#structmpp__domains__mod_1_1overlapspec" target="_top" xlink:title="Private type for overlap specifications.">
<polygon fill="white" stroke="black" points="400,-595.86 400,-614.86 476,-614.86 476,-595.86 400,-595.86"/>
<text text-anchor="middle" x="438" y="-602.86" font-family="Helvetica,sans-Serif" font-size="10.00">overlapspec</text>
</a>
</g>
</g>
<!-- Node6&#45;&gt;Node11 -->
<g id="edge24" class="edge">
<title>Node6&#45;&gt;Node11</title>
<path fill="none" stroke="#9a32cd" stroke-dasharray="5,2" d="M27.73,-358.03C31.02,-403.87 41.74,-515.72 69,-539.36 86.75,-554.76 256.97,-548.69 280,-553.36 301.9,-557.81 353.76,-579.42 375,-586.36 384.74,-589.55 395.39,-592.87 405.07,-595.82"/>
<polygon fill="#9a32cd" stroke="#9a32cd" points="31.21,-357.63 27.04,-347.89 24.22,-358.1 31.21,-357.63"/>
<text text-anchor="middle" x="217.5" y="-666.36" font-family="Helvetica,sans-Serif" font-size="10.00"> ehalo</text>
<text text-anchor="middle" x="217.5" y="-655.36" font-family="Helvetica,sans-Serif" font-size="10.00">nhalo</text>
<text text-anchor="middle" x="217.5" y="-644.36" font-family="Helvetica,sans-Serif" font-size="10.00">nrecv</text>
<text text-anchor="middle" x="217.5" y="-633.36" font-family="Helvetica,sans-Serif" font-size="10.00">nsend</text>
<text text-anchor="middle" x="217.5" y="-622.36" font-family="Helvetica,sans-Serif" font-size="10.00">recvsize</text>
<text text-anchor="middle" x="217.5" y="-611.36" font-family="Helvetica,sans-Serif" font-size="10.00">sendsize</text>
<text text-anchor="middle" x="217.5" y="-600.36" font-family="Helvetica,sans-Serif" font-size="10.00">shalo</text>
<text text-anchor="middle" x="217.5" y="-589.36" font-family="Helvetica,sans-Serif" font-size="10.00">whalo</text>
<text text-anchor="middle" x="217.5" y="-578.36" font-family="Helvetica,sans-Serif" font-size="10.00">xbegin</text>
<text text-anchor="middle" x="217.5" y="-567.36" font-family="Helvetica,sans-Serif" font-size="10.00">xend</text>
<text text-anchor="middle" x="217.5" y="-556.36" font-family="Helvetica,sans-Serif" font-size="10.00">...</text>
</g>
<!-- Node6&#45;&gt;Node12 -->
<g id="edge22" class="edge">
<title>Node6&#45;&gt;Node12</title>
<path fill="none" stroke="#9a32cd" stroke-dasharray="5,2" d="M26.13,-358.19C26.2,-399.34 30.79,-495.84 69,-564.36 88.92,-600.08 117.19,-590.58 137,-626.36 158.66,-665.49 126.56,-690.85 155,-725.36 160.76,-732.35 168.82,-737.31 177.21,-740.83"/>
<polygon fill="#9a32cd" stroke="#9a32cd" points="29.63,-358.15 26.2,-348.13 22.63,-358.1 29.63,-358.15"/>
<text text-anchor="middle" x="103" y="-739.36" font-family="Helvetica,sans-Serif" font-size="10.00"> count</text>
<text text-anchor="middle" x="103" y="-728.36" font-family="Helvetica,sans-Serif" font-size="10.00">dir</text>
<text text-anchor="middle" x="103" y="-717.36" font-family="Helvetica,sans-Serif" font-size="10.00">ie</text>
<text text-anchor="middle" x="103" y="-706.36" font-family="Helvetica,sans-Serif" font-size="10.00">index</text>
<text text-anchor="middle" x="103" y="-695.36" font-family="Helvetica,sans-Serif" font-size="10.00">is</text>
<text text-anchor="middle" x="103" y="-684.36" font-family="Helvetica,sans-Serif" font-size="10.00">je</text>
<text text-anchor="middle" x="103" y="-673.36" font-family="Helvetica,sans-Serif" font-size="10.00">js</text>
<text text-anchor="middle" x="103" y="-662.36" font-family="Helvetica,sans-Serif" font-size="10.00">msgsize</text>
<text text-anchor="middle" x="103" y="-651.36" font-family="Helvetica,sans-Serif" font-size="10.00">pe</text>
<text text-anchor="middle" x="103" y="-640.36" font-family="Helvetica,sans-Serif" font-size="10.00">rotation</text>
<text text-anchor="middle" x="103" y="-629.36" font-family="Helvetica,sans-Serif" font-size="10.00">...</text>
</g>
<!-- Node13 -->
<g id="node13" class="node">
<title>Node13</title>
<g id="a_node13"><a xlink:href="group__mpp__domains__mod.html#structmpp__domains__mod_1_1domain2d__spec" target="_top" xlink:title="Private type to specify multiple index limits and pe information for a 2D domain.">
<polygon fill="white" stroke="black" points="620,-333.86 620,-352.86 713,-352.86 713,-333.86 620,-333.86"/>
<text text-anchor="middle" x="666.5" y="-340.86" font-family="Helvetica,sans-Serif" font-size="10.00">domain2d_spec</text>
</a>
</g>
</g>
<!-- Node6&#45;&gt;Node13 -->
<g id="edge29" class="edge">
<title>Node6&#45;&gt;Node13</title>
<path fill="none" stroke="#9a32cd" stroke-dasharray="5,2" d="M61.01,-332.13C112.43,-323.2 212.3,-307.18 298,-301.36 417.17,-293.28 557.17,-319.11 624.83,-333.85"/>
<polygon fill="#9a32cd" stroke="#9a32cd" points="60.34,-328.7 51.09,-333.87 61.55,-335.59 60.34,-328.7"/>
<text text-anchor="middle" x="327.5" y="-337.36" font-family="Helvetica,sans-Serif" font-size="10.00"> pe</text>
<text text-anchor="middle" x="327.5" y="-326.36" font-family="Helvetica,sans-Serif" font-size="10.00">pos</text>
<text text-anchor="middle" x="327.5" y="-315.36" font-family="Helvetica,sans-Serif" font-size="10.00">tile_id</text>
<text text-anchor="middle" x="327.5" y="-304.36" font-family="Helvetica,sans-Serif" font-size="10.00">tile_root_pe</text>
</g>
<!-- Node14 -->
<g id="node14" class="node">
<title>Node14</title>
<g id="a_node14"><a xlink:href="group__mpp__domains__mod.html#structmpp__domains__mod_1_1domain1d__spec" target="_top" xlink:title="A private type used to specify index limits for a domain decomposition.">
<polygon fill="white" stroke="black" points="391.5,-333.86 391.5,-352.86 484.5,-352.86 484.5,-333.86 391.5,-333.86"/>
<text text-anchor="middle" x="438" y="-340.86" font-family="Helvetica,sans-Serif" font-size="10.00">domain1d_spec</text>
</a>
</g>
</g>
<!-- Node6&#45;&gt;Node14 -->
<g id="edge28" class="edge">
<title>Node6&#45;&gt;Node14</title>
<path fill="none" stroke="#9a32cd" stroke-dasharray="5,2" d="M61.5,-341.15C121.83,-345.6 249.3,-353.4 357,-349.36 368.13,-348.95 380.12,-348.2 391.34,-347.38"/>
<polygon fill="#9a32cd" stroke="#9a32cd" points="61.61,-337.65 51.38,-340.39 61.09,-344.63 61.61,-337.65"/>
<text text-anchor="middle" x="217.5" y="-353.36" font-family="Helvetica,sans-Serif" font-size="10.00"> pos</text>
</g>
<!-- Node15 -->
<g id="node15" class="node">
<title>Node15</title>
<g id="a_node15"><a xlink:href="group__mpp__domains__mod.html#structmpp__domains__mod_1_1tile__type" target="_top" xlink:title="Upper and lower x and y bounds for a tile.">
<polygon fill="white" stroke="black" points="298,-256.86 298,-275.86 357,-275.86 357,-256.86 298,-256.86"/>
<text text-anchor="middle" x="327.5" y="-263.86" font-family="Helvetica,sans-Serif" font-size="10.00">tile_type</text>
</a>
</g>
</g>
<!-- Node6&#45;&gt;Node15 -->
<g id="edge31" class="edge">
<title>Node6&#45;&gt;Node15</title>
<path fill="none" stroke="#9a32cd" stroke-dasharray="5,2" d="M32.01,-319.3C38.05,-302.3 49.56,-278.43 69,-267.36 107.27,-245.57 239.12,-256.73 297.87,-263.03"/>
<polygon fill="#9a32cd" stroke="#9a32cd" points="28.68,-318.23 28.94,-328.82 35.34,-320.38 28.68,-318.23"/>
<text text-anchor="middle" x="103" y="-303.36" font-family="Helvetica,sans-Serif" font-size="10.00"> xbegin</text>
<text text-anchor="middle" x="103" y="-292.36" font-family="Helvetica,sans-Serif" font-size="10.00">xend</text>
<text text-anchor="middle" x="103" y="-281.36" font-family="Helvetica,sans-Serif" font-size="10.00">ybegin</text>
<text text-anchor="middle" x="103" y="-270.36" font-family="Helvetica,sans-Serif" font-size="10.00">yend</text>
</g>
<!-- Node17 -->
<g id="node17" class="node">
<title>Node17</title>
<g id="a_node17"><a xlink:href="group__mpp__domains__mod.html#structmpp__domains__mod_1_1unstruct__pass__type" target="_top" xlink:title="Private type.">
<polygon fill="white" stroke="black" points="382.5,-92.86 382.5,-111.86 493.5,-111.86 493.5,-92.86 382.5,-92.86"/>
<text text-anchor="middle" x="438" y="-99.86" font-family="Helvetica,sans-Serif" font-size="10.00">unstruct_pass_type</text>
</a>
</g>
</g>
<!-- Node6&#45;&gt;Node17 -->
<g id="edge38" class="edge">
<title>Node6&#45;&gt;Node17</title>
<path fill="none" stroke="#9a32cd" stroke-dasharray="5,2" d="M26.89,-318.4C28.38,-263.42 35.52,-111.61 69,-77.36 165.03,20.85 358.49,-63.07 418.69,-92.86"/>
<polygon fill="#9a32cd" stroke="#9a32cd" points="23.38,-318.51 26.65,-328.59 30.38,-318.67 23.38,-318.51"/>
<text text-anchor="middle" x="217.5" y="-55.36" font-family="Helvetica,sans-Serif" font-size="10.00"> nrecv</text>
<text text-anchor="middle" x="217.5" y="-44.36" font-family="Helvetica,sans-Serif" font-size="10.00">nsend</text>
</g>
<!-- Node18 -->
<g id="node18" class="node">
<title>Node18</title>
<g id="a_node18"><a xlink:href="group__mpp__domains__mod.html#structmpp__domains__mod_1_1unstruct__overlap__type" target="_top" xlink:title="Private type.">
<polygon fill="white" stroke="black" points="155,-92.86 155,-111.86 280,-111.86 280,-92.86 155,-92.86"/>
<text text-anchor="middle" x="217.5" y="-99.86" font-family="Helvetica,sans-Serif" font-size="10.00">unstruct_overlap_type</text>
</a>
</g>
</g>
<!-- Node6&#45;&gt;Node18 -->
<g id="edge37" class="edge">
<title>Node6&#45;&gt;Node18</title>
<path fill="none" stroke="#9a32cd" stroke-dasharray="5,2" d="M26.72,-318.5C27.76,-264.5 33.85,-117.06 69,-87.36 85.22,-73.66 141.81,-83.85 179.99,-92.83"/>
<polygon fill="#9a32cd" stroke="#9a32cd" points="23.21,-318.74 26.56,-328.8 30.21,-318.85 23.21,-318.74"/>
<text text-anchor="middle" x="103" y="-123.36" font-family="Helvetica,sans-Serif" font-size="10.00"> count</text>
<text text-anchor="middle" x="103" y="-112.36" font-family="Helvetica,sans-Serif" font-size="10.00">i</text>
<text text-anchor="middle" x="103" y="-101.36" font-family="Helvetica,sans-Serif" font-size="10.00">j</text>
<text text-anchor="middle" x="103" y="-90.36" font-family="Helvetica,sans-Serif" font-size="10.00">pe</text>
</g>
<!-- Node7&#45;&gt;Node1 -->
<g id="edge41" class="edge">
<title>Node7&#45;&gt;Node1</title>
<path fill="none" stroke="#9a32cd" stroke-dasharray="5,2" d="M883.71,-404.72C958.25,-385.69 1113.17,-346.14 1184.53,-327.93"/>
<polygon fill="#9a32cd" stroke="#9a32cd" points="882.57,-401.4 873.74,-407.26 884.3,-408.18 882.57,-401.4"/>
<text text-anchor="middle" x="1036.5" y="-382.36" font-family="Helvetica,sans-Serif" font-size="10.00"> domain</text>
</g>
<!-- Node7&#45;&gt;Node3 -->
<g id="edge8" class="edge">
<title>Node7&#45;&gt;Node3</title>
<path fill="none" stroke="#9a32cd" stroke-dasharray="5,2" d="M851.45,-396.7C862.76,-375.32 883.09,-339.83 906,-313.36 942.68,-270.99 996.25,-230.92 1021.43,-213.08"/>
<polygon fill="#9a32cd" stroke="#9a32cd" points="848.27,-395.22 846.77,-405.71 854.49,-398.44 848.27,-395.22"/>
<text text-anchor="middle" x="934.5" y="-316.36" font-family="Helvetica,sans-Serif" font-size="10.00"> sg_domain</text>
</g>
<!-- Node7&#45;&gt;Node7 -->
<g id="edge18" class="edge">
<title>Node7&#45;&gt;Node7</title>
<path fill="none" stroke="#9a32cd" stroke-dasharray="5,2" d="M826.27,-435.13C827.42,-439.86 832.34,-443.36 841,-443.36 855.22,-443.36 859.33,-433.93 853.33,-425.12"/>
<polygon fill="#9a32cd" stroke="#9a32cd" points="829.74,-435.66 828.67,-425.12 822.93,-434.03 829.74,-435.66"/>
<text text-anchor="middle" x="841" y="-446.36" font-family="Helvetica,sans-Serif" font-size="10.00"> io_domain</text>
</g>
<!-- Node8&#45;&gt;Node7 -->
<g id="edge10" class="edge">
<title>Node8&#45;&gt;Node7</title>
<path fill="none" stroke="#9a32cd" stroke-dasharray="5,2" d="M476.67,-525.19C484.83,-521.95 493.31,-518.28 501,-514.36 551.42,-488.68 554.86,-464.8 608,-445.36 676.27,-420.39 762.5,-415.67 808.19,-415.09"/>
<polygon fill="#9a32cd" stroke="#9a32cd" points="475.39,-521.94 467.3,-528.79 477.89,-528.47 475.39,-521.94"/>
<text text-anchor="middle" x="666.5" y="-459.36" font-family="Helvetica,sans-Serif" font-size="10.00"> x</text>
<text text-anchor="middle" x="666.5" y="-448.36" font-family="Helvetica,sans-Serif" font-size="10.00">y</text>
</g>
<!-- Node8&#45;&gt;Node8 -->
<g id="edge12" class="edge">
<title>Node8&#45;&gt;Node8</title>
<path fill="none" stroke="#9a32cd" stroke-dasharray="5,2" d="M417.63,-557.76C418.99,-562.68 425.78,-566.36 438,-566.36 457.55,-566.36 463.2,-556.93 454.95,-548.12"/>
<polygon fill="#9a32cd" stroke="#9a32cd" points="421.01,-558.71 421.05,-548.12 414.41,-556.38 421.01,-558.71"/>
<text text-anchor="middle" x="438" y="-569.36" font-family="Helvetica,sans-Serif" font-size="10.00"> list</text>
</g>
<!-- Node9&#45;&gt;Node8 -->
<g id="edge13" class="edge">
<title>Node9&#45;&gt;Node8</title>
<path fill="none" stroke="#9a32cd" stroke-dasharray="5,2" d="M281.12,-507.34C305.01,-508.16 332.4,-510.12 357,-514.36 375.43,-517.55 395.6,-523.61 411.08,-528.85"/>
<polygon fill="#9a32cd" stroke="#9a32cd" points="281.21,-503.84 271.11,-507.05 281.01,-510.84 281.21,-503.84"/>
<text text-anchor="middle" x="327.5" y="-550.36" font-family="Helvetica,sans-Serif" font-size="10.00"> compute</text>
<text text-anchor="middle" x="327.5" y="-539.36" font-family="Helvetica,sans-Serif" font-size="10.00">data</text>
<text text-anchor="middle" x="327.5" y="-528.36" font-family="Helvetica,sans-Serif" font-size="10.00">global</text>
<text text-anchor="middle" x="327.5" y="-517.36" font-family="Helvetica,sans-Serif" font-size="10.00">memory</text>
</g>
<!-- Node9&#45;&gt;Node14 -->
<g id="edge27" class="edge">
<title>Node9&#45;&gt;Node14</title>
<path fill="none" stroke="#9a32cd" stroke-dasharray="5,2" d="M261.51,-493.88C268,-490.93 274.39,-487.44 280,-483.36 333.91,-444.19 321.04,-406.46 375,-367.36 383.32,-361.34 393.35,-356.6 402.89,-352.98"/>
<polygon fill="#9a32cd" stroke="#9a32cd" points="259.91,-490.76 252.01,-497.82 262.59,-497.22 259.91,-490.76"/>
<text text-anchor="middle" x="327.5" y="-480.36" font-family="Helvetica,sans-Serif" font-size="10.00"> compute</text>
<text text-anchor="middle" x="327.5" y="-469.36" font-family="Helvetica,sans-Serif" font-size="10.00">global</text>
</g>
<!-- Node10 -->
<g id="node10" class="node">
<title>Node10</title>
<g id="a_node10"><a xlink:title=" ">
<polygon fill="white" stroke="#bfbfbf" points="619.5,-682.86 619.5,-701.86 713.5,-701.86 713.5,-682.86 619.5,-682.86"/>
<text text-anchor="middle" x="666.5" y="-689.86" font-family="Helvetica,sans-Serif" font-size="10.00">integer(i8_kind)</text>
</a>
</g>
</g>
<!-- Node10&#45;&gt;Node7 -->
<g id="edge17" class="edge">
<title>Node10&#45;&gt;Node7</title>
<path fill="none" stroke="#9a32cd" stroke-dasharray="5,2" d="M711.17,-678.35C716.2,-675.56 720.96,-672.26 725,-668.36 801.02,-594.98 831.14,-462 838.25,-425.09"/>
<polygon fill="#9a32cd" stroke="#9a32cd" points="709.4,-675.32 701.94,-682.84 712.46,-681.62 709.4,-675.32"/>
<text text-anchor="middle" x="759.5" y="-648.36" font-family="Helvetica,sans-Serif" font-size="10.00"> id</text>
</g>
<!-- Node11&#45;&gt;Node7 -->
<g id="edge19" class="edge">
<title>Node11&#45;&gt;Node7</title>
<path fill="none" stroke="#9a32cd" stroke-dasharray="5,2" d="M480.21,-592.8C487.15,-590.66 494.28,-588.46 501,-586.36 548.63,-571.5 560.38,-567.26 608,-552.36 659.93,-536.12 676.63,-541.28 725,-516.36 771.54,-492.39 814.55,-445.5 831.91,-425.16"/>
<polygon fill="#9a32cd" stroke="#9a32cd" points="478.78,-589.58 470.24,-595.86 480.83,-596.27 478.78,-589.58"/>
<text text-anchor="middle" x="666.5" y="-665.36" font-family="Helvetica,sans-Serif" font-size="10.00"> bound_c</text>
<text text-anchor="middle" x="666.5" y="-654.36" font-family="Helvetica,sans-Serif" font-size="10.00">bound_e</text>
<text text-anchor="middle" x="666.5" y="-643.36" font-family="Helvetica,sans-Serif" font-size="10.00">bound_n</text>
<text text-anchor="middle" x="666.5" y="-632.36" font-family="Helvetica,sans-Serif" font-size="10.00">check_c</text>
<text text-anchor="middle" x="666.5" y="-621.36" font-family="Helvetica,sans-Serif" font-size="10.00">check_e</text>
<text text-anchor="middle" x="666.5" y="-610.36" font-family="Helvetica,sans-Serif" font-size="10.00">check_n</text>
<text text-anchor="middle" x="666.5" y="-599.36" font-family="Helvetica,sans-Serif" font-size="10.00">update_c</text>
<text text-anchor="middle" x="666.5" y="-588.36" font-family="Helvetica,sans-Serif" font-size="10.00">update_e</text>
<text text-anchor="middle" x="666.5" y="-577.36" font-family="Helvetica,sans-Serif" font-size="10.00">update_n</text>
<text text-anchor="middle" x="666.5" y="-566.36" font-family="Helvetica,sans-Serif" font-size="10.00">update_t</text>
<text text-anchor="middle" x="666.5" y="-555.36" font-family="Helvetica,sans-Serif" font-size="10.00">...</text>
</g>
<!-- Node11&#45;&gt;Node11 -->
<g id="edge23" class="edge">
<title>Node11&#45;&gt;Node11</title>
<path fill="none" stroke="#9a32cd" stroke-dasharray="5,2" d="M417.63,-624.76C418.99,-629.68 425.78,-633.36 438,-633.36 457.55,-633.36 463.2,-623.93 454.95,-615.12"/>
<polygon fill="#9a32cd" stroke="#9a32cd" points="421.01,-625.71 421.05,-615.12 414.41,-623.38 421.01,-625.71"/>
<text text-anchor="middle" x="438" y="-636.36" font-family="Helvetica,sans-Serif" font-size="10.00"> next</text>
</g>
<!-- Node12&#45;&gt;Node11 -->
<g id="edge20" class="edge">
<title>Node12&#45;&gt;Node11</title>
<path fill="none" stroke="#9a32cd" stroke-dasharray="5,2" d="M267.66,-749.73C295.82,-747.79 330.68,-741.56 357,-724.36 399.31,-696.72 424.82,-638.09 433.57,-615"/>
<polygon fill="#9a32cd" stroke="#9a32cd" points="267.41,-746.23 257.61,-750.26 267.78,-753.22 267.41,-746.23"/>
<text text-anchor="middle" x="327.5" y="-759.36" font-family="Helvetica,sans-Serif" font-size="10.00"> recv</text>
<text text-anchor="middle" x="327.5" y="-748.36" font-family="Helvetica,sans-Serif" font-size="10.00">send</text>
</g>
<!-- Node13&#45;&gt;Node7 -->
<g id="edge25" class="edge">
<title>Node13&#45;&gt;Node7</title>
<path fill="none" stroke="#9a32cd" stroke-dasharray="5,2" d="M723.16,-348.87C740.63,-351.97 759.61,-356.81 776,-364.36 798.19,-374.59 819.45,-394.1 831.02,-405.8"/>
<polygon fill="#9a32cd" stroke="#9a32cd" points="723.51,-345.38 713.08,-347.24 722.39,-352.29 723.51,-345.38"/>
<text text-anchor="middle" x="759.5" y="-367.36" font-family="Helvetica,sans-Serif" font-size="10.00"> list</text>
</g>
<!-- Node14&#45;&gt;Node13 -->
<g id="edge26" class="edge">
<title>Node14&#45;&gt;Node13</title>
<path fill="none" stroke="#9a32cd" stroke-dasharray="5,2" d="M495.05,-343.36C533.41,-343.36 583.64,-343.36 619.62,-343.36"/>
<polygon fill="#9a32cd" stroke="#9a32cd" points="494.56,-339.86 484.56,-343.36 494.56,-346.86 494.56,-339.86"/>
<text text-anchor="middle" x="554.5" y="-357.36" font-family="Helvetica,sans-Serif" font-size="10.00"> x</text>
<text text-anchor="middle" x="554.5" y="-346.36" font-family="Helvetica,sans-Serif" font-size="10.00">y</text>
</g>
<!-- Node15&#45;&gt;Node7 -->
<g id="edge30" class="edge">
<title>Node15&#45;&gt;Node7</title>
<path fill="none" stroke="#9a32cd" stroke-dasharray="5,2" d="M367.36,-265.03C418.77,-264 512.01,-264.71 590,-279.36 652.16,-291.04 666.47,-300.39 725,-324.36 748.36,-333.93 755.58,-334.53 776,-349.36 799.24,-366.25 821.44,-392.02 832.57,-405.83"/>
<polygon fill="#9a32cd" stroke="#9a32cd" points="366.96,-261.53 357.04,-265.27 367.12,-268.53 366.96,-261.53"/>
<text text-anchor="middle" x="554.5" y="-282.36" font-family="Helvetica,sans-Serif" font-size="10.00"> tilelist</text>
</g>
<!-- Node16 -->
<g id="node16" class="node">
<title>Node16</title>
<g id="a_node16"><a xlink:title=" ">
<polygon fill="white" stroke="#bfbfbf" points="608,-476.36 608,-506.36 725,-506.36 725,-476.36 608,-476.36"/>
<text text-anchor="start" x="616" y="-494.36" font-family="Helvetica,sans-Serif" font-size="10.00">character(len=name</text>
<text text-anchor="middle" x="666.5" y="-483.36" font-family="Helvetica,sans-Serif" font-size="10.00">_length)</text>
</a>
</g>
</g>
<!-- Node16&#45;&gt;Node7 -->
<g id="edge33" class="edge">
<title>Node16&#45;&gt;Node7</title>
<path fill="none" stroke="#9a32cd" stroke-dasharray="5,2" d="M719.25,-472.77C737.39,-465.87 757.78,-457.69 776,-449.36 792.48,-441.83 810.67,-432.01 823.43,-424.87"/>
<polygon fill="#9a32cd" stroke="#9a32cd" points="717.84,-469.56 709.72,-476.35 720.31,-476.11 717.84,-469.56"/>
<text text-anchor="middle" x="759.5" y="-465.36" font-family="Helvetica,sans-Serif" font-size="10.00"> name</text>
</g>
<!-- Node17&#45;&gt;Node3 -->
<g id="edge35" class="edge">
<title>Node17&#45;&gt;Node3</title>
<path fill="none" stroke="#9a32cd" stroke-dasharray="5,2" d="M503.91,-98.17C628.04,-91.51 892.97,-84.3 963,-138.36 980.38,-151.78 965.19,-169.13 981,-184.36 987.28,-190.41 995.58,-194.54 1003.81,-197.36"/>
<polygon fill="#9a32cd" stroke="#9a32cd" points="503.58,-94.68 493.78,-98.73 503.96,-101.67 503.58,-94.68"/>
<text text-anchor="middle" x="759.5" y="-111.36" font-family="Helvetica,sans-Serif" font-size="10.00"> sg2ug</text>
<text text-anchor="middle" x="759.5" y="-100.36" font-family="Helvetica,sans-Serif" font-size="10.00">ug2sg</text>
</g>
<!-- Node18&#45;&gt;Node17 -->
<g id="edge36" class="edge">
<title>Node18&#45;&gt;Node17</title>
<path fill="none" stroke="#9a32cd" stroke-dasharray="5,2" d="M290.24,-102.36C320.26,-102.36 354.58,-102.36 382.48,-102.36"/>
<polygon fill="#9a32cd" stroke="#9a32cd" points="290.24,-98.86 280.24,-102.36 290.24,-105.86 290.24,-98.86"/>
<text text-anchor="middle" x="327.5" y="-116.36" font-family="Helvetica,sans-Serif" font-size="10.00"> recv</text>
<text text-anchor="middle" x="327.5" y="-105.36" font-family="Helvetica,sans-Serif" font-size="10.00">send</text>
</g>
<!-- Node19 -->
<g id="node19" class="node">
<title>Node19</title>
<g id="a_node19"><a xlink:title=" ">
<polygon fill="white" stroke="#bfbfbf" points="794,-58.86 794,-77.86 888,-77.86 888,-58.86 794,-58.86"/>
<text text-anchor="middle" x="841" y="-65.86" font-family="Helvetica,sans-Serif" font-size="10.00">integer(i4_kind)</text>
</a>
</g>
</g>
<!-- Node19&#45;&gt;Node3 -->
<g id="edge40" class="edge">
<title>Node19&#45;&gt;Node3</title>
<path fill="none" stroke="#9a32cd" stroke-dasharray="5,2" d="M898.54,-60.73C921.25,-60.84 946.01,-65.46 963,-81.36 996.93,-113.12 950.91,-148.95 981,-184.36 986.84,-191.24 995.31,-195.63 1003.84,-198.43"/>
<polygon fill="#9a32cd" stroke="#9a32cd" points="898.2,-57.23 888.29,-60.97 898.37,-64.23 898.2,-57.23"/>
<text text-anchor="middle" x="934.5" y="-84.36" font-family="Helvetica,sans-Serif" font-size="10.00"> io_layout</text>
</g>
<!-- Node20 -->
<g id="node20" class="node">
<title>Node20</title>
<g id="a_node20"><a xlink:title=" ">
<polygon fill="white" stroke="#bfbfbf" points="981,-155.86 981,-174.86 1092,-174.86 1092,-155.86 981,-155.86"/>
<text text-anchor="middle" x="1036.5" y="-162.86" font-family="Helvetica,sans-Serif" font-size="10.00">character(len=128)</text>
</a>
</g>
</g>
<!-- Node20&#45;&gt;Node1 -->
<g id="edge42" class="edge">
<title>Node20&#45;&gt;Node1</title>
<path fill="none" stroke="#9a32cd" stroke-dasharray="5,2" d="M1079.37,-178.53C1083.71,-180.32 1088,-182.27 1092,-184.36 1126.1,-202.23 1134.83,-208.09 1162,-235.36 1185.47,-258.92 1206.67,-292.35 1216.39,-308.66"/>
<polygon fill="#9a32cd" stroke="#9a32cd" points="1080.45,-175.2 1069.86,-174.89 1077.95,-181.73 1080.45,-175.2"/>
<text text-anchor="middle" x="1136" y="-238.36" font-family="Helvetica,sans-Serif" font-size="10.00"> fieldname</text>
</g>
<!-- Node21 -->
<g id="node21" class="node">
<title>Node21</title>
<g id="a_node21"><a xlink:title=" ">
<polygon fill="white" stroke="#bfbfbf" points="1019,-116.86 1019,-135.86 1054,-135.86 1054,-116.86 1019,-116.86"/>
<text text-anchor="middle" x="1036.5" y="-123.86" font-family="Helvetica,sans-Serif" font-size="10.00">real</text>
</a>
</g>
</g>
<!-- Node21&#45;&gt;Node1 -->
<g id="edge44" class="edge">
<title>Node21&#45;&gt;Node1</title>
<path fill="none" stroke="#9a32cd" stroke-dasharray="5,2" d="M1064.45,-128.89C1092.2,-132.84 1135.09,-142.89 1162,-168.36 1204.37,-208.46 1217.5,-282.42 1220.93,-308.75"/>
<polygon fill="#9a32cd" stroke="#9a32cd" points="1064.63,-125.38 1054.27,-127.61 1063.76,-132.33 1064.63,-125.38"/>
<text text-anchor="middle" x="1136" y="-182.36" font-family="Helvetica,sans-Serif" font-size="10.00"> miss</text>
<text text-anchor="middle" x="1136" y="-171.36" font-family="Helvetica,sans-Serif" font-size="10.00">miss_pack</text>
</g>
</g>
</svg>
        <g id="navigator" transform="translate(0 0)" fill="#404254">
                <rect fill="#f2f5e9" fill-opacity="0.5" stroke="#606060" stroke-width=".5" x="0" y="0" width="60" height="60"/>
                <use id="zoomplus" xlink:href="#zoomPlus" x="17" y="9" onmousedown="handleZoom(evt,'in')"/>
                <use id="zoomminus" xlink:href="#zoomMin" x="42" y="9" onmousedown="handleZoom(evt,'out')"/>
                <use id="reset" xlink:href="#resetDef" x="30" y="36" onmousedown="handleReset()"/>
                <g id="arrowUp" xlink:href="#dirArrow" transform="translate(30 24)" onmousedown="handlePan(0,-1)">
                  <use xlink:href="#rim" fill="#404040">
                        <set attributeName="fill" to="#808080" begin="arrowUp.mouseover" end="arrowUp.mouseout"/>
                  </use>
                  <path fill="none" stroke="white" stroke-width="1.5" d="M0,-3.0v7 M-2.5,-0.5L0,-3.0L2.5,-0.5"/>
                </g>
                <g id="arrowRight" xlink:href="#dirArrow" transform="rotate(90) translate(36 -43)" onmousedown="handlePan(1,0)">
                  <use xlink:href="#rim" fill="#404040">
                        <set attributeName="fill" to="#808080" begin="arrowRight.mouseover" end="arrowRight.mouseout"/>
                  </use>
                  <path fill="none" stroke="white" stroke-width="1.5" d="M0,-3.0v7 M-2.5,-0.5L0,-3.0L2.5,-0.5"/>
                </g>
                <g id="arrowDown" xlink:href="#dirArrow" transform="rotate(180) translate(-30 -48)" onmousedown="handlePan(0,1)">
                  <use xlink:href="#rim" fill="#404040">
                        <set attributeName="fill" to="#808080" begin="arrowDown.mouseover" end="arrowDown.mouseout"/>
                  </use>
                  <path fill="none" stroke="white" stroke-width="1.5" d="M0,-3.0v7 M-2.5,-0.5L0,-3.0L2.5,-0.5"/>
                </g>
                <g id="arrowLeft" xlink:href="#dirArrow" transform="rotate(270) translate(-36 17)" onmousedown="handlePan(-1,0)">
                  <use xlink:href="#rim" fill="#404040">
                        <set attributeName="fill" to="#808080" begin="arrowLeft.mouseover" end="arrowLeft.mouseout"/>
                  </use>
                  <path fill="none" stroke="white" stroke-width="1.5" d="M0,-3.0v7 M-2.5,-0.5L0,-3.0L2.5,-0.5"/>
                </g>
        </g>
        <svg viewBox="0 0 15 15" width="100%" height="30px" preserveAspectRatio="xMaxYMin meet">
         <g id="arrow_out" transform="scale(0.3 0.3)">
          <a xlink:href="structdiag__data__mod_1_1diag__fieldtype__coll__graph_org.svg" target="_base">
           <rect id="button" ry="5" rx="5" y="6" x="6" height="38" width="38"
                fill="#f2f5e9" fill-opacity="0.5" stroke="#606060" stroke-width="1.0"/>
           <path id="arrow"
             d="M 11.500037,31.436501 C 11.940474,20.09759 22.043105,11.32322 32.158766,21.979434 L 37.068811,17.246167 C 37.068811,17.246167 37.088388,32 37.088388,32 L 22.160133,31.978069 C 22.160133,31.978069 26.997745,27.140456 26.997745,27.140456 C 18.528582,18.264221 13.291696,25.230495 11.500037,31.436501 z"
             style="fill:#404040;"/>
          </a>
         </g>
        </svg>
</svg>
