<?xml version="1.0" encoding="UTF-8" standalone="no"?>
<!DOCTYPE svg PUBLIC "-//W3C//DTD SVG 1.1//EN"
 "http://www.w3.org/Graphics/SVG/1.1/DTD/svg11.dtd">
<!-- Generated by graphviz version 2.43.0 (0)
 -->
<!-- Title: nest_level_type Pages: 1 -->
<svg width="1015pt" height="970pt"
 viewBox="0.00 0.00 1015.00 970.09" xmlns="http://www.w3.org/2000/svg" xmlns:xlink="http://www.w3.org/1999/xlink">
<g id="graph0" class="graph" transform="scale(1 1) rotate(0) translate(4 966.09)">
<title>nest_level_type</title>
<polygon fill="white" stroke="transparent" points="-4,4 -4,-966.09 1011,-966.09 1011,4 -4,4"/>
<!-- Node1 -->
<g id="node1" class="node">
<title>Node1</title>
<g id="a_node1"><a xlink:title="Private type to hold data for each level of nesting.">
<polygon fill="#bfbfbf" stroke="black" points="913,-428.59 913,-447.59 1007,-447.59 1007,-428.59 913,-428.59"/>
<text text-anchor="middle" x="960" y="-435.59" font-family="Helvetica,sans-Serif" font-size="10.00">nest_level_type</text>
</a>
</g>
</g>
<!-- Node2 -->
<g id="node2" class="node">
<title>Node2</title>
<g id="a_node2"><a xlink:title=" ">
<polygon fill="white" stroke="#bfbfbf" points="1,-775.59 1,-794.59 50,-794.59 50,-775.59 1,-775.59"/>
<text text-anchor="middle" x="25.5" y="-782.59" font-family="Helvetica,sans-Serif" font-size="10.00">logical</text>
</a>
</g>
</g>
<!-- Node2&#45;&gt;Node1 -->
<g id="edge1" class="edge">
<title>Node2&#45;&gt;Node1</title>
<path fill="none" stroke="#9a32cd" stroke-dasharray="5,2" d="M39.13,-803.18C46.91,-813.42 57.56,-825.97 69,-835.09 123.26,-878.32 138.12,-907.09 207.5,-907.09 207.5,-907.09 207.5,-907.09 767.5,-907.09 870.4,-907.09 945.19,-515.23 957.28,-447.88"/>
<polygon fill="#9a32cd" stroke="#9a32cd" points="41.81,-800.92 33.08,-794.91 36.16,-805.05 41.81,-800.92"/>
<text text-anchor="middle" x="500" y="-954.09" font-family="Helvetica,sans-Serif" font-size="10.00"> is_fine</text>
<text text-anchor="middle" x="500" y="-943.09" font-family="Helvetica,sans-Serif" font-size="10.00">is_coarse_pe</text>
<text text-anchor="middle" x="500" y="-932.09" font-family="Helvetica,sans-Serif" font-size="10.00">is_fine_pe</text>
<text text-anchor="middle" x="500" y="-921.09" font-family="Helvetica,sans-Serif" font-size="10.00">on_level</text>
<text text-anchor="middle" x="500" y="-910.09" font-family="Helvetica,sans-Serif" font-size="10.00">is_coarse</text>
</g>
<!-- Node3 -->
<g id="node3" class="node">
<title>Node3</title>
<g id="a_node3"><a xlink:href="group__mpp__domains__mod.html#structmpp__domains__mod_1_1domain2d" target="_top" xlink:title="The domain2D type contains all the necessary information to define the global, compute and data domai...">
<polygon fill="white" stroke="black" points="734,-601.59 734,-620.59 799,-620.59 799,-601.59 734,-601.59"/>
<text text-anchor="middle" x="766.5" y="-608.59" font-family="Helvetica,sans-Serif" font-size="10.00">domain2d</text>
</a>
</g>
</g>
<!-- Node2&#45;&gt;Node3 -->
<g id="edge3" class="edge">
<title>Node2&#45;&gt;Node3</title>
<path fill="none" stroke="#9a32cd" stroke-dasharray="5,2" d="M51.67,-799.39C85.83,-817.42 149.3,-846.09 207.5,-846.09 207.5,-846.09 207.5,-846.09 609.5,-846.09 719.68,-846.09 756.69,-664.55 764.04,-620.59"/>
<polygon fill="#9a32cd" stroke="#9a32cd" points="53.31,-796.29 42.84,-794.62 49.98,-802.45 53.31,-796.29"/>
<text text-anchor="middle" x="403.5" y="-871.09" font-family="Helvetica,sans-Serif" font-size="10.00"> rotated_ninety</text>
<text text-anchor="middle" x="403.5" y="-860.09" font-family="Helvetica,sans-Serif" font-size="10.00">symmetry</text>
<text text-anchor="middle" x="403.5" y="-849.09" font-family="Helvetica,sans-Serif" font-size="10.00">initialized</text>
</g>
<!-- Node4 -->
<g id="node4" class="node">
<title>Node4</title>
<g id="a_node4"><a xlink:href="group__mpp__domains__mod.html#structmpp__domains__mod_1_1domain1d" target="_top" xlink:title="One dimensional domain used to manage shared data access between pes.">
<polygon fill="white" stroke="black" points="371,-593.59 371,-612.59 436,-612.59 436,-593.59 371,-593.59"/>
<text text-anchor="middle" x="403.5" y="-600.59" font-family="Helvetica,sans-Serif" font-size="10.00">domain1d</text>
</a>
</g>
</g>
<!-- Node2&#45;&gt;Node4 -->
<g id="edge5" class="edge">
<title>Node2&#45;&gt;Node4</title>
<path fill="none" stroke="#9a32cd" stroke-dasharray="5,2" d="M60.41,-788.82C123.88,-793.8 261.23,-794.79 339,-722.09 361.21,-701.32 342.75,-682.94 357,-656.09 366.09,-638.95 381.59,-622.53 391.94,-612.62"/>
<polygon fill="#9a32cd" stroke="#9a32cd" points="60.42,-785.31 50.16,-787.93 59.82,-792.28 60.42,-785.31"/>
<text text-anchor="middle" x="208.5" y="-791.09" font-family="Helvetica,sans-Serif" font-size="10.00"> cyclic</text>
</g>
<!-- Node5 -->
<g id="node5" class="node">
<title>Node5</title>
<g id="a_node5"><a xlink:href="group__mpp__domains__mod.html#structmpp__domains__mod_1_1domain__axis__spec" target="_top" xlink:title="Used to specify index limits along an axis of a domain.">
<polygon fill="white" stroke="black" points="155,-668.59 155,-687.59 262,-687.59 262,-668.59 155,-668.59"/>
<text text-anchor="middle" x="208.5" y="-675.59" font-family="Helvetica,sans-Serif" font-size="10.00">domain_axis_spec</text>
</a>
</g>
</g>
<!-- Node2&#45;&gt;Node5 -->
<g id="edge8" class="edge">
<title>Node2&#45;&gt;Node5</title>
<path fill="none" stroke="#9a32cd" stroke-dasharray="5,2" d="M51.74,-770.16C89.51,-747.84 159.65,-706.37 191.29,-687.67"/>
<polygon fill="#9a32cd" stroke="#9a32cd" points="49.71,-767.3 42.88,-775.4 53.27,-773.33 49.71,-767.3"/>
<text text-anchor="middle" x="103" y="-762.09" font-family="Helvetica,sans-Serif" font-size="10.00"> is_global</text>
</g>
<!-- Node9 -->
<g id="node9" class="node">
<title>Node9</title>
<g id="a_node9"><a xlink:href="group__mpp__domains__mod.html#structmpp__domains__mod_1_1overlap__type" target="_top" xlink:title="Type for overlapping data.">
<polygon fill="white" stroke="black" points="168.5,-414.59 168.5,-433.59 248.5,-433.59 248.5,-414.59 168.5,-414.59"/>
<text text-anchor="middle" x="208.5" y="-421.59" font-family="Helvetica,sans-Serif" font-size="10.00">overlap_type</text>
</a>
</g>
</g>
<!-- Node2&#45;&gt;Node9 -->
<g id="edge15" class="edge">
<title>Node2&#45;&gt;Node9</title>
<path fill="none" stroke="#9a32cd" stroke-dasharray="5,2" d="M34.99,-766.24C42.81,-749.73 55.24,-725.42 69,-706.09 94.89,-669.69 118.26,-672.63 137,-632.09 164.43,-572.74 128.78,-545.98 155,-486.09 164.39,-464.64 183.68,-444.94 196.08,-433.73"/>
<polygon fill="#9a32cd" stroke="#9a32cd" points="31.78,-764.85 30.75,-775.39 38.13,-767.79 31.78,-764.85"/>
<text text-anchor="middle" x="103" y="-709.09" font-family="Helvetica,sans-Serif" font-size="10.00"> from_contact</text>
</g>
<!-- Node3&#45;&gt;Node1 -->
<g id="edge2" class="edge">
<title>Node3&#45;&gt;Node1</title>
<path fill="none" stroke="#9a32cd" stroke-dasharray="5,2" d="M785.6,-594.73C824.85,-559.27 916.78,-476.23 948.23,-447.82"/>
<polygon fill="#9a32cd" stroke="#9a32cd" points="783.14,-592.24 778.07,-601.54 787.84,-597.43 783.14,-592.24"/>
<text text-anchor="middle" x="856" y="-578.09" font-family="Helvetica,sans-Serif" font-size="10.00"> domain_coarse</text>
<text text-anchor="middle" x="856" y="-567.09" font-family="Helvetica,sans-Serif" font-size="10.00">domain_fine</text>
</g>
<!-- Node3&#45;&gt;Node3 -->
<g id="edge12" class="edge">
<title>Node3&#45;&gt;Node3</title>
<path fill="none" stroke="#9a32cd" stroke-dasharray="5,2" d="M754.35,-630.85C755.3,-635.58 759.35,-639.09 766.5,-639.09 778.23,-639.09 781.62,-629.65 776.67,-620.84"/>
<polygon fill="#9a32cd" stroke="#9a32cd" points="757.82,-631.33 756.33,-620.84 750.95,-629.97 757.82,-631.33"/>
<text text-anchor="middle" x="766.5" y="-642.09" font-family="Helvetica,sans-Serif" font-size="10.00"> io_domain</text>
</g>
<!-- Node4&#45;&gt;Node3 -->
<g id="edge4" class="edge">
<title>Node4&#45;&gt;Node3</title>
<path fill="none" stroke="#9a32cd" stroke-dasharray="5,2" d="M446.44,-604.02C519.59,-605.64 668.89,-608.94 733.98,-610.39"/>
<polygon fill="#9a32cd" stroke="#9a32cd" points="446.3,-600.51 436.22,-603.79 446.14,-607.51 446.3,-600.51"/>
<text text-anchor="middle" x="608.5" y="-622.09" font-family="Helvetica,sans-Serif" font-size="10.00"> x</text>
<text text-anchor="middle" x="608.5" y="-611.09" font-family="Helvetica,sans-Serif" font-size="10.00">y</text>
</g>
<!-- Node4&#45;&gt;Node4 -->
<g id="edge6" class="edge">
<title>Node4&#45;&gt;Node4</title>
<path fill="none" stroke="#9a32cd" stroke-dasharray="5,2" d="M386.09,-622.49C387.26,-627.4 393.06,-631.09 403.5,-631.09 420.21,-631.09 425.04,-621.65 417.99,-612.84"/>
<polygon fill="#9a32cd" stroke="#9a32cd" points="389.47,-623.43 389.01,-612.84 382.77,-621.4 389.47,-623.43"/>
<text text-anchor="middle" x="403.5" y="-634.09" font-family="Helvetica,sans-Serif" font-size="10.00"> list</text>
</g>
<!-- Node5&#45;&gt;Node4 -->
<g id="edge7" class="edge">
<title>Node5&#45;&gt;Node4</title>
<path fill="none" stroke="#9a32cd" stroke-dasharray="5,2" d="M272.35,-675.48C294.22,-672.75 318.42,-667.61 339,-658.09 362.29,-647.3 383.57,-625.35 394.6,-612.68"/>
<polygon fill="#9a32cd" stroke="#9a32cd" points="271.72,-672.03 262.16,-676.6 272.48,-678.99 271.72,-672.03"/>
<text text-anchor="middle" x="309.5" y="-710.09" font-family="Helvetica,sans-Serif" font-size="10.00"> memory</text>
<text text-anchor="middle" x="309.5" y="-699.09" font-family="Helvetica,sans-Serif" font-size="10.00">global</text>
<text text-anchor="middle" x="309.5" y="-688.09" font-family="Helvetica,sans-Serif" font-size="10.00">compute</text>
<text text-anchor="middle" x="309.5" y="-677.09" font-family="Helvetica,sans-Serif" font-size="10.00">data</text>
</g>
<!-- Node11 -->
<g id="node11" class="node">
<title>Node11</title>
<g id="a_node11"><a xlink:href="group__mpp__domains__mod.html#structmpp__domains__mod_1_1domain1d__spec" target="_top" xlink:title="A private type used to specify index limits for a domain decomposition.">
<polygon fill="white" stroke="black" points="357,-511.59 357,-530.59 450,-530.59 450,-511.59 357,-511.59"/>
<text text-anchor="middle" x="403.5" y="-518.59" font-family="Helvetica,sans-Serif" font-size="10.00">domain1d_spec</text>
</a>
</g>
</g>
<!-- Node5&#45;&gt;Node11 -->
<g id="edge21" class="edge">
<title>Node5&#45;&gt;Node11</title>
<path fill="none" stroke="#9a32cd" stroke-dasharray="5,2" d="M241.54,-663.79C248.55,-660.07 255.74,-655.78 262,-651.09 271.3,-644.1 271.68,-640.22 280,-632.09 319.8,-593.16 369.63,-549.48 391.43,-530.61"/>
<polygon fill="#9a32cd" stroke="#9a32cd" points="239.56,-660.87 232.19,-668.48 242.7,-667.13 239.56,-660.87"/>
<text text-anchor="middle" x="309.5" y="-646.09" font-family="Helvetica,sans-Serif" font-size="10.00"> global</text>
<text text-anchor="middle" x="309.5" y="-635.09" font-family="Helvetica,sans-Serif" font-size="10.00">compute</text>
</g>
<!-- Node6 -->
<g id="node6" class="node">
<title>Node6</title>
<g id="a_node6"><a xlink:title=" ">
<polygon fill="white" stroke="#bfbfbf" points="0,-452.59 0,-471.59 51,-471.59 51,-452.59 0,-452.59"/>
<text text-anchor="middle" x="25.5" y="-459.59" font-family="Helvetica,sans-Serif" font-size="10.00">integer</text>
</a>
</g>
</g>
<!-- Node6&#45;&gt;Node1 -->
<g id="edge34" class="edge">
<title>Node6&#45;&gt;Node1</title>
<path fill="none" stroke="#9a32cd" stroke-dasharray="5,2" d="M26.98,-442.11C29.13,-360.35 39.13,-54.07 69,-24.09 112.66,19.75 145.63,-10.09 207.5,-10.09 207.5,-10.09 207.5,-10.09 767.5,-10.09 957.17,-10.09 960.22,-364.63 959.23,-428.34"/>
<polygon fill="#9a32cd" stroke="#9a32cd" points="23.47,-442.4 26.72,-452.49 30.47,-442.58 23.47,-442.4"/>
<text text-anchor="middle" x="500" y="-123.09" font-family="Helvetica,sans-Serif" font-size="10.00"> y_refine</text>
<text text-anchor="middle" x="500" y="-112.09" font-family="Helvetica,sans-Serif" font-size="10.00">x_refine</text>
<text text-anchor="middle" x="500" y="-101.09" font-family="Helvetica,sans-Serif" font-size="10.00">jend_fine</text>
<text text-anchor="middle" x="500" y="-90.09" font-family="Helvetica,sans-Serif" font-size="10.00">pelist</text>
<text text-anchor="middle" x="500" y="-79.09" font-family="Helvetica,sans-Serif" font-size="10.00">iend_fine</text>
<text text-anchor="middle" x="500" y="-68.09" font-family="Helvetica,sans-Serif" font-size="10.00">jend_coarse</text>
<text text-anchor="middle" x="500" y="-57.09" font-family="Helvetica,sans-Serif" font-size="10.00">jstart_fine</text>
<text text-anchor="middle" x="500" y="-46.09" font-family="Helvetica,sans-Serif" font-size="10.00">tile_fine</text>
<text text-anchor="middle" x="500" y="-35.09" font-family="Helvetica,sans-Serif" font-size="10.00">istart_fine</text>
<text text-anchor="middle" x="500" y="-24.09" font-family="Helvetica,sans-Serif" font-size="10.00">iend_coarse</text>
<text text-anchor="middle" x="500" y="-13.09" font-family="Helvetica,sans-Serif" font-size="10.00">...</text>
</g>
<!-- Node6&#45;&gt;Node3 -->
<g id="edge26" class="edge">
<title>Node6&#45;&gt;Node3</title>
<path fill="none" stroke="#9a32cd" stroke-dasharray="5,2" d="M26.55,-482.16C27.15,-538.1 32.18,-693.73 69,-725.09 92.01,-744.68 106.78,-725.31 137,-725.09 226.79,-724.42 261.2,-766.9 339,-722.09 352.47,-714.32 344.23,-700.96 357,-692.09 414.54,-652.07 598.35,-648.21 667,-634.09 689.36,-629.49 714.41,-623.63 733.65,-618.97"/>
<polygon fill="#9a32cd" stroke="#9a32cd" points="30.05,-481.79 26.48,-471.81 23.05,-481.84 30.05,-481.79"/>
<text text-anchor="middle" x="403.5" y="-816.09" font-family="Helvetica,sans-Serif" font-size="10.00"> fold</text>
<text text-anchor="middle" x="403.5" y="-805.09" font-family="Helvetica,sans-Serif" font-size="10.00">tile_id</text>
<text text-anchor="middle" x="403.5" y="-794.09" font-family="Helvetica,sans-Serif" font-size="10.00">tile_id_all</text>
<text text-anchor="middle" x="403.5" y="-783.09" font-family="Helvetica,sans-Serif" font-size="10.00">io_layout</text>
<text text-anchor="middle" x="403.5" y="-772.09" font-family="Helvetica,sans-Serif" font-size="10.00">nhalo</text>
<text text-anchor="middle" x="403.5" y="-761.09" font-family="Helvetica,sans-Serif" font-size="10.00">ntiles</text>
<text text-anchor="middle" x="403.5" y="-750.09" font-family="Helvetica,sans-Serif" font-size="10.00">pe</text>
<text text-anchor="start" x="379" y="-739.09" font-family="Helvetica,sans-Serif" font-size="10.00">max_ntile</text>
<text text-anchor="middle" x="403.5" y="-728.09" font-family="Helvetica,sans-Serif" font-size="10.00">_pe</text>
<text text-anchor="middle" x="403.5" y="-717.09" font-family="Helvetica,sans-Serif" font-size="10.00">shalo</text>
<text text-anchor="middle" x="403.5" y="-706.09" font-family="Helvetica,sans-Serif" font-size="10.00">ncontacts</text>
<text text-anchor="middle" x="403.5" y="-695.09" font-family="Helvetica,sans-Serif" font-size="10.00">...</text>
</g>
<!-- Node6&#45;&gt;Node4 -->
<g id="edge10" class="edge">
<title>Node6&#45;&gt;Node4</title>
<path fill="none" stroke="#9a32cd" stroke-dasharray="5,2" d="M27.56,-481.87C30.5,-528.47 40.54,-642.94 69,-666.09 92.45,-685.15 112.33,-683.54 137,-666.09 156.62,-652.2 135.72,-629.44 155,-615.09 218.84,-567.56 319.66,-582.46 370.68,-594.38"/>
<polygon fill="#9a32cd" stroke="#9a32cd" points="31.05,-481.59 26.97,-471.82 24.06,-482 31.05,-481.59"/>
<text text-anchor="middle" x="208.5" y="-651.09" font-family="Helvetica,sans-Serif" font-size="10.00"> pe</text>
<text text-anchor="middle" x="208.5" y="-640.09" font-family="Helvetica,sans-Serif" font-size="10.00">goffset</text>
<text text-anchor="middle" x="208.5" y="-629.09" font-family="Helvetica,sans-Serif" font-size="10.00">pos</text>
<text text-anchor="middle" x="208.5" y="-618.09" font-family="Helvetica,sans-Serif" font-size="10.00">loffset</text>
</g>
<!-- Node6&#45;&gt;Node5 -->
<g id="edge9" class="edge">
<title>Node6&#45;&gt;Node5</title>
<path fill="none" stroke="#9a32cd" stroke-dasharray="5,2" d="M29.6,-481.82C34.22,-504.87 45.1,-542.7 69,-565.09 92.28,-586.9 114.99,-564.99 137,-588.09 157.09,-609.16 136.53,-628.57 155,-651.09 161.24,-658.69 170.18,-664.39 178.92,-668.54"/>
<polygon fill="#9a32cd" stroke="#9a32cd" points="33.02,-481.05 27.8,-471.83 26.13,-482.29 33.02,-481.05"/>
<text text-anchor="middle" x="103" y="-624.09" font-family="Helvetica,sans-Serif" font-size="10.00"> max_size</text>
<text text-anchor="middle" x="103" y="-613.09" font-family="Helvetica,sans-Serif" font-size="10.00">size</text>
<text text-anchor="middle" x="103" y="-602.09" font-family="Helvetica,sans-Serif" font-size="10.00">begin</text>
<text text-anchor="middle" x="103" y="-591.09" font-family="Helvetica,sans-Serif" font-size="10.00">end</text>
</g>
<!-- Node8 -->
<g id="node8" class="node">
<title>Node8</title>
<g id="a_node8"><a xlink:href="group__mpp__domains__mod.html#structmpp__domains__mod_1_1overlapspec" target="_top" xlink:title="Private type for overlap specifications.">
<polygon fill="white" stroke="black" points="365.5,-364.59 365.5,-383.59 441.5,-383.59 441.5,-364.59 365.5,-364.59"/>
<text text-anchor="middle" x="403.5" y="-371.59" font-family="Helvetica,sans-Serif" font-size="10.00">overlapspec</text>
</a>
</g>
</g>
<!-- Node6&#45;&gt;Node8 -->
<g id="edge18" class="edge">
<title>Node6&#45;&gt;Node8</title>
<path fill="none" stroke="#9a32cd" stroke-dasharray="5,2" d="M26.31,-441.98C27.11,-409.73 33.48,-346.35 69,-310.09 96.94,-281.56 115.5,-289.93 155,-284.09 235.93,-272.12 267.09,-250.08 339,-289.09 370.41,-306.12 390.68,-346.15 398.66,-364.54"/>
<polygon fill="#9a32cd" stroke="#9a32cd" points="22.8,-442.32 26.22,-452.35 29.8,-442.38 22.8,-442.32"/>
<text text-anchor="middle" x="208.5" y="-397.09" font-family="Helvetica,sans-Serif" font-size="10.00"> nsend</text>
<text text-anchor="middle" x="208.5" y="-386.09" font-family="Helvetica,sans-Serif" font-size="10.00">ybegin</text>
<text text-anchor="middle" x="208.5" y="-375.09" font-family="Helvetica,sans-Serif" font-size="10.00">xbegin</text>
<text text-anchor="middle" x="208.5" y="-364.09" font-family="Helvetica,sans-Serif" font-size="10.00">yend</text>
<text text-anchor="middle" x="208.5" y="-353.09" font-family="Helvetica,sans-Serif" font-size="10.00">nhalo</text>
<text text-anchor="middle" x="208.5" y="-342.09" font-family="Helvetica,sans-Serif" font-size="10.00">xend</text>
<text text-anchor="middle" x="208.5" y="-331.09" font-family="Helvetica,sans-Serif" font-size="10.00">recvsize</text>
<text text-anchor="middle" x="208.5" y="-320.09" font-family="Helvetica,sans-Serif" font-size="10.00">shalo</text>
<text text-anchor="middle" x="208.5" y="-309.09" font-family="Helvetica,sans-Serif" font-size="10.00">ehalo</text>
<text text-anchor="middle" x="208.5" y="-298.09" font-family="Helvetica,sans-Serif" font-size="10.00">sendsize</text>
<text text-anchor="middle" x="208.5" y="-287.09" font-family="Helvetica,sans-Serif" font-size="10.00">...</text>
</g>
<!-- Node6&#45;&gt;Node9 -->
<g id="edge16" class="edge">
<title>Node6&#45;&gt;Node9</title>
<path fill="none" stroke="#9a32cd" stroke-dasharray="5,2" d="M26.05,-442.18C26.57,-411.59 32.63,-353.76 69,-327.09 93.37,-309.21 113.21,-308.45 137,-327.09 163.31,-347.69 133.68,-374.35 155,-400.09 160.18,-406.34 167.34,-411.03 174.7,-414.54"/>
<polygon fill="#9a32cd" stroke="#9a32cd" points="22.55,-442.45 26.07,-452.45 29.55,-442.44 22.55,-442.45"/>
<text text-anchor="middle" x="103" y="-440.09" font-family="Helvetica,sans-Serif" font-size="10.00"> rotation</text>
<text text-anchor="middle" x="103" y="-429.09" font-family="Helvetica,sans-Serif" font-size="10.00">totsize</text>
<text text-anchor="middle" x="103" y="-418.09" font-family="Helvetica,sans-Serif" font-size="10.00">pe</text>
<text text-anchor="middle" x="103" y="-407.09" font-family="Helvetica,sans-Serif" font-size="10.00">dir</text>
<text text-anchor="middle" x="103" y="-396.09" font-family="Helvetica,sans-Serif" font-size="10.00">tileme</text>
<text text-anchor="middle" x="103" y="-385.09" font-family="Helvetica,sans-Serif" font-size="10.00">js</text>
<text text-anchor="middle" x="103" y="-374.09" font-family="Helvetica,sans-Serif" font-size="10.00">count</text>
<text text-anchor="middle" x="103" y="-363.09" font-family="Helvetica,sans-Serif" font-size="10.00">is</text>
<text text-anchor="middle" x="103" y="-352.09" font-family="Helvetica,sans-Serif" font-size="10.00">tilenbr</text>
<text text-anchor="middle" x="103" y="-341.09" font-family="Helvetica,sans-Serif" font-size="10.00">index</text>
<text text-anchor="middle" x="103" y="-330.09" font-family="Helvetica,sans-Serif" font-size="10.00">...</text>
</g>
<!-- Node10 -->
<g id="node10" class="node">
<title>Node10</title>
<g id="a_node10"><a xlink:href="group__mpp__domains__mod.html#structmpp__domains__mod_1_1domain2d__spec" target="_top" xlink:title="Private type to specify multiple index limits and pe information for a 2D domain.">
<polygon fill="white" stroke="black" points="562,-513.59 562,-532.59 655,-532.59 655,-513.59 562,-513.59"/>
<text text-anchor="middle" x="608.5" y="-520.59" font-family="Helvetica,sans-Serif" font-size="10.00">domain2d_spec</text>
</a>
</g>
</g>
<!-- Node6&#45;&gt;Node10 -->
<g id="edge23" class="edge">
<title>Node6&#45;&gt;Node10</title>
<path fill="none" stroke="#9a32cd" stroke-dasharray="5,2" d="M61.4,-459.11C119.31,-454.79 238.79,-448.49 339,-460.09 361.74,-462.72 500.36,-496.58 569.02,-513.54"/>
<polygon fill="#9a32cd" stroke="#9a32cd" points="61.02,-455.63 51.32,-459.89 61.56,-462.61 61.02,-455.63"/>
<text text-anchor="middle" x="309.5" y="-496.09" font-family="Helvetica,sans-Serif" font-size="10.00"> tile_id</text>
<text text-anchor="middle" x="309.5" y="-485.09" font-family="Helvetica,sans-Serif" font-size="10.00">pe</text>
<text text-anchor="middle" x="309.5" y="-474.09" font-family="Helvetica,sans-Serif" font-size="10.00">tile_root_pe</text>
<text text-anchor="middle" x="309.5" y="-463.09" font-family="Helvetica,sans-Serif" font-size="10.00">pos</text>
</g>
<!-- Node6&#45;&gt;Node11 -->
<g id="edge22" class="edge">
<title>Node6&#45;&gt;Node11</title>
<path fill="none" stroke="#9a32cd" stroke-dasharray="5,2" d="M60.92,-471.28C63.64,-471.92 66.36,-472.53 69,-473.09 170.91,-494.44 292.34,-509.3 356.87,-516.38"/>
<polygon fill="#9a32cd" stroke="#9a32cd" points="61.68,-467.87 51.13,-468.88 60,-474.66 61.68,-467.87"/>
<text text-anchor="middle" x="208.5" y="-508.09" font-family="Helvetica,sans-Serif" font-size="10.00"> pos</text>
</g>
<!-- Node12 -->
<g id="node12" class="node">
<title>Node12</title>
<g id="a_node12"><a xlink:href="group__mpp__domains__mod.html#structmpp__domains__mod_1_1tile__type" target="_top" xlink:title="Upper and lower x and y bounds for a tile.">
<polygon fill="white" stroke="black" points="280,-546.59 280,-565.59 339,-565.59 339,-546.59 280,-546.59"/>
<text text-anchor="middle" x="309.5" y="-553.59" font-family="Helvetica,sans-Serif" font-size="10.00">tile_type</text>
</a>
</g>
</g>
<!-- Node6&#45;&gt;Node12 -->
<g id="edge25" class="edge">
<title>Node6&#45;&gt;Node12</title>
<path fill="none" stroke="#9a32cd" stroke-dasharray="5,2" d="M42.71,-478.7C50.16,-485.54 59.46,-493.03 69,-498.09 96.72,-512.79 107,-507.9 137,-517.09 145.06,-519.55 146.87,-520.86 155,-523.09 198.12,-534.87 248.99,-545.1 279.98,-550.93"/>
<polygon fill="#9a32cd" stroke="#9a32cd" points="45.05,-476.09 35.41,-471.67 40.19,-481.13 45.05,-476.09"/>
<text text-anchor="middle" x="103" y="-553.09" font-family="Helvetica,sans-Serif" font-size="10.00"> ybegin</text>
<text text-anchor="middle" x="103" y="-542.09" font-family="Helvetica,sans-Serif" font-size="10.00">xbegin</text>
<text text-anchor="middle" x="103" y="-531.09" font-family="Helvetica,sans-Serif" font-size="10.00">yend</text>
<text text-anchor="middle" x="103" y="-520.09" font-family="Helvetica,sans-Serif" font-size="10.00">xend</text>
</g>
<!-- Node14 -->
<g id="node14" class="node">
<title>Node14</title>
<g id="a_node14"><a xlink:href="group__mpp__domains__mod.html#structmpp__domains__mod_1_1nestspec" target="_top" xlink:title="Used to specify bounds and index information for nested tiles as a linked list.">
<polygon fill="white" stroke="black" points="373.5,-152.59 373.5,-171.59 433.5,-171.59 433.5,-152.59 373.5,-152.59"/>
<text text-anchor="middle" x="403.5" y="-159.59" font-family="Helvetica,sans-Serif" font-size="10.00">nestspec</text>
</a>
</g>
</g>
<!-- Node6&#45;&gt;Node14 -->
<g id="edge33" class="edge">
<title>Node6&#45;&gt;Node14</title>
<path fill="none" stroke="#9a32cd" stroke-dasharray="5,2" d="M26.77,-442.34C28.82,-382.58 44.31,-204 155,-142.09 228.74,-100.84 334.65,-134.48 380.24,-152.51"/>
<polygon fill="#9a32cd" stroke="#9a32cd" points="23.27,-442.26 26.52,-452.35 30.27,-442.44 23.27,-442.26"/>
<text text-anchor="middle" x="208.5" y="-255.09" font-family="Helvetica,sans-Serif" font-size="10.00"> extra_halo</text>
<text text-anchor="middle" x="208.5" y="-244.09" font-family="Helvetica,sans-Serif" font-size="10.00">nsend</text>
<text text-anchor="middle" x="208.5" y="-233.09" font-family="Helvetica,sans-Serif" font-size="10.00">xsize_c</text>
<text text-anchor="middle" x="208.5" y="-222.09" font-family="Helvetica,sans-Serif" font-size="10.00">ybegin</text>
<text text-anchor="middle" x="208.5" y="-211.09" font-family="Helvetica,sans-Serif" font-size="10.00">xbegin</text>
<text text-anchor="middle" x="208.5" y="-200.09" font-family="Helvetica,sans-Serif" font-size="10.00">yend</text>
<text text-anchor="middle" x="208.5" y="-189.09" font-family="Helvetica,sans-Serif" font-size="10.00">xend</text>
<text text-anchor="middle" x="208.5" y="-178.09" font-family="Helvetica,sans-Serif" font-size="10.00">yend_c</text>
<text text-anchor="middle" x="208.5" y="-167.09" font-family="Helvetica,sans-Serif" font-size="10.00">xbegin_c</text>
<text text-anchor="middle" x="208.5" y="-156.09" font-family="Helvetica,sans-Serif" font-size="10.00">ysize_c</text>
<text text-anchor="middle" x="208.5" y="-145.09" font-family="Helvetica,sans-Serif" font-size="10.00">...</text>
</g>
<!-- Node15 -->
<g id="node15" class="node">
<title>Node15</title>
<g id="a_node15"><a xlink:href="group__mpp__domains__mod.html#structmpp__domains__mod_1_1index__type" target="_top" xlink:title="index bounds for use in nestSpec">
<polygon fill="white" stroke="black" points="173,-38.59 173,-57.59 244,-57.59 244,-38.59 173,-38.59"/>
<text text-anchor="middle" x="208.5" y="-45.59" font-family="Helvetica,sans-Serif" font-size="10.00">index_type</text>
</a>
</g>
</g>
<!-- Node6&#45;&gt;Node15 -->
<g id="edge31" class="edge">
<title>Node6&#45;&gt;Node15</title>
<path fill="none" stroke="#9a32cd" stroke-dasharray="5,2" d="M26.99,-442.43C29.14,-363.32 39.08,-71.12 69,-44.09 100.15,-15.95 153.18,-28.03 183.8,-38.57"/>
<polygon fill="#9a32cd" stroke="#9a32cd" points="23.48,-442.41 26.72,-452.5 30.48,-442.6 23.48,-442.41"/>
<text text-anchor="middle" x="103" y="-124.09" font-family="Helvetica,sans-Serif" font-size="10.00"> ie_me</text>
<text text-anchor="middle" x="103" y="-113.09" font-family="Helvetica,sans-Serif" font-size="10.00">js_you</text>
<text text-anchor="middle" x="103" y="-102.09" font-family="Helvetica,sans-Serif" font-size="10.00">je_me</text>
<text text-anchor="middle" x="103" y="-91.09" font-family="Helvetica,sans-Serif" font-size="10.00">is_you</text>
<text text-anchor="middle" x="103" y="-80.09" font-family="Helvetica,sans-Serif" font-size="10.00">is_me</text>
<text text-anchor="middle" x="103" y="-69.09" font-family="Helvetica,sans-Serif" font-size="10.00">je_you</text>
<text text-anchor="middle" x="103" y="-58.09" font-family="Helvetica,sans-Serif" font-size="10.00">js_me</text>
<text text-anchor="middle" x="103" y="-47.09" font-family="Helvetica,sans-Serif" font-size="10.00">ie_you</text>
</g>
<!-- Node7 -->
<g id="node7" class="node">
<title>Node7</title>
<g id="a_node7"><a xlink:title=" ">
<polygon fill="white" stroke="#bfbfbf" points="561.5,-756.59 561.5,-775.59 655.5,-775.59 655.5,-756.59 561.5,-756.59"/>
<text text-anchor="middle" x="608.5" y="-763.59" font-family="Helvetica,sans-Serif" font-size="10.00">integer(i8_kind)</text>
</a>
</g>
</g>
<!-- Node7&#45;&gt;Node3 -->
<g id="edge11" class="edge">
<title>Node7&#45;&gt;Node3</title>
<path fill="none" stroke="#9a32cd" stroke-dasharray="5,2" d="M664.1,-753.33C682.61,-746.66 702.1,-736.73 716,-722.09 744.9,-691.63 758.78,-641.45 763.53,-620.61"/>
<polygon fill="#9a32cd" stroke="#9a32cd" points="662.92,-750.03 654.54,-756.52 665.14,-756.67 662.92,-750.03"/>
<text text-anchor="middle" x="700.5" y="-746.09" font-family="Helvetica,sans-Serif" font-size="10.00"> id</text>
</g>
<!-- Node8&#45;&gt;Node3 -->
<g id="edge13" class="edge">
<title>Node8&#45;&gt;Node3</title>
<path fill="none" stroke="#9a32cd" stroke-dasharray="5,2" d="M449.08,-362.24C505.15,-350.12 601.93,-338.7 667,-383.09 745.01,-436.3 761.63,-565.32 764.81,-601.51"/>
<polygon fill="#9a32cd" stroke="#9a32cd" points="448.08,-358.88 439.1,-364.5 449.63,-365.7 448.08,-358.88"/>
<text text-anchor="middle" x="608.5" y="-496.09" font-family="Helvetica,sans-Serif" font-size="10.00"> update_c</text>
<text text-anchor="middle" x="608.5" y="-485.09" font-family="Helvetica,sans-Serif" font-size="10.00">update_t</text>
<text text-anchor="middle" x="608.5" y="-474.09" font-family="Helvetica,sans-Serif" font-size="10.00">update_e</text>
<text text-anchor="middle" x="608.5" y="-463.09" font-family="Helvetica,sans-Serif" font-size="10.00">bound_c</text>
<text text-anchor="middle" x="608.5" y="-452.09" font-family="Helvetica,sans-Serif" font-size="10.00">bound_e</text>
<text text-anchor="middle" x="608.5" y="-441.09" font-family="Helvetica,sans-Serif" font-size="10.00">check_n</text>
<text text-anchor="middle" x="608.5" y="-430.09" font-family="Helvetica,sans-Serif" font-size="10.00">update_n</text>
<text text-anchor="middle" x="608.5" y="-419.09" font-family="Helvetica,sans-Serif" font-size="10.00">check_c</text>
<text text-anchor="middle" x="608.5" y="-408.09" font-family="Helvetica,sans-Serif" font-size="10.00">bound_n</text>
<text text-anchor="middle" x="608.5" y="-397.09" font-family="Helvetica,sans-Serif" font-size="10.00">check_e</text>
<text text-anchor="middle" x="608.5" y="-386.09" font-family="Helvetica,sans-Serif" font-size="10.00">...</text>
</g>
<!-- Node8&#45;&gt;Node8 -->
<g id="edge17" class="edge">
<title>Node8&#45;&gt;Node8</title>
<path fill="none" stroke="#9a32cd" stroke-dasharray="5,2" d="M386.09,-393.49C387.26,-398.4 393.06,-402.09 403.5,-402.09 420.21,-402.09 425.04,-392.65 417.99,-383.84"/>
<polygon fill="#9a32cd" stroke="#9a32cd" points="389.47,-394.43 389.01,-383.84 382.77,-392.4 389.47,-394.43"/>
<text text-anchor="middle" x="403.5" y="-405.09" font-family="Helvetica,sans-Serif" font-size="10.00"> next</text>
</g>
<!-- Node9&#45;&gt;Node8 -->
<g id="edge14" class="edge">
<title>Node9&#45;&gt;Node8</title>
<path fill="none" stroke="#9a32cd" stroke-dasharray="5,2" d="M256.29,-411.96C289.86,-403.27 334.47,-391.71 365.55,-383.66"/>
<polygon fill="#9a32cd" stroke="#9a32cd" points="255.06,-408.67 246.26,-414.56 256.81,-415.44 255.06,-408.67"/>
<text text-anchor="middle" x="309.5" y="-419.09" font-family="Helvetica,sans-Serif" font-size="10.00"> recv</text>
<text text-anchor="middle" x="309.5" y="-408.09" font-family="Helvetica,sans-Serif" font-size="10.00">send</text>
</g>
<!-- Node9&#45;&gt;Node14 -->
<g id="edge29" class="edge">
<title>Node9&#45;&gt;Node14</title>
<path fill="none" stroke="#9a32cd" stroke-dasharray="5,2" d="M248.19,-410.02C253.17,-407.21 257.95,-403.91 262,-400.09 274.44,-388.35 271.6,-380.98 280,-366.09 322.84,-290.17 378.28,-200.81 396.45,-171.74"/>
<polygon fill="#9a32cd" stroke="#9a32cd" points="246.46,-406.97 239.09,-414.59 249.6,-413.23 246.46,-406.97"/>
<text text-anchor="middle" x="309.5" y="-380.09" font-family="Helvetica,sans-Serif" font-size="10.00"> recv</text>
<text text-anchor="middle" x="309.5" y="-369.09" font-family="Helvetica,sans-Serif" font-size="10.00">send</text>
</g>
<!-- Node10&#45;&gt;Node3 -->
<g id="edge19" class="edge">
<title>Node10&#45;&gt;Node3</title>
<path fill="none" stroke="#9a32cd" stroke-dasharray="5,2" d="M665.07,-523.6C682.43,-525.87 700.95,-530.65 716,-540.09 739.68,-554.93 755.08,-585.69 761.73,-601.39"/>
<polygon fill="#9a32cd" stroke="#9a32cd" points="665.34,-520.1 655.02,-522.53 664.6,-527.06 665.34,-520.1"/>
<text text-anchor="middle" x="700.5" y="-543.09" font-family="Helvetica,sans-Serif" font-size="10.00"> list</text>
</g>
<!-- Node11&#45;&gt;Node10 -->
<g id="edge20" class="edge">
<title>Node11&#45;&gt;Node10</title>
<path fill="none" stroke="#9a32cd" stroke-dasharray="5,2" d="M460.52,-520.77C482.77,-520.72 508.59,-520.78 532,-521.09 541.7,-521.21 552.1,-521.44 561.99,-521.69"/>
<polygon fill="#9a32cd" stroke="#9a32cd" points="460.23,-517.27 450.24,-520.79 460.25,-524.27 460.23,-517.27"/>
<text text-anchor="middle" x="500" y="-535.09" font-family="Helvetica,sans-Serif" font-size="10.00"> x</text>
<text text-anchor="middle" x="500" y="-524.09" font-family="Helvetica,sans-Serif" font-size="10.00">y</text>
</g>
<!-- Node12&#45;&gt;Node3 -->
<g id="edge24" class="edge">
<title>Node12&#45;&gt;Node3</title>
<path fill="none" stroke="#9a32cd" stroke-dasharray="5,2" d="M348.99,-560.73C421.03,-569.43 581.13,-588.76 716,-605.09 721.76,-605.78 727.89,-606.53 733.81,-607.24"/>
<polygon fill="#9a32cd" stroke="#9a32cd" points="349.36,-557.25 339.01,-559.53 348.52,-564.2 349.36,-557.25"/>
<text text-anchor="middle" x="500" y="-585.09" font-family="Helvetica,sans-Serif" font-size="10.00"> tilelist</text>
</g>
<!-- Node13 -->
<g id="node13" class="node">
<title>Node13</title>
<g id="a_node13"><a xlink:title=" ">
<polygon fill="white" stroke="#bfbfbf" points="550,-707.09 550,-737.09 667,-737.09 667,-707.09 550,-707.09"/>
<text text-anchor="start" x="558" y="-725.09" font-family="Helvetica,sans-Serif" font-size="10.00">character(len=name</text>
<text text-anchor="middle" x="608.5" y="-714.09" font-family="Helvetica,sans-Serif" font-size="10.00">_length)</text>
</a>
</g>
</g>
<!-- Node13&#45;&gt;Node3 -->
<g id="edge27" class="edge">
<title>Node13&#45;&gt;Node3</title>
<path fill="none" stroke="#9a32cd" stroke-dasharray="5,2" d="M676.63,-711.38C690.56,-706.99 704.49,-700.8 716,-692.09 740.96,-673.18 756.14,-637.72 762.3,-620.69"/>
<polygon fill="#9a32cd" stroke="#9a32cd" points="675.65,-708.02 667,-714.14 677.58,-714.74 675.65,-708.02"/>
<text text-anchor="middle" x="700.5" y="-710.09" font-family="Helvetica,sans-Serif" font-size="10.00"> name</text>
</g>
<!-- Node14&#45;&gt;Node1 -->
<g id="edge28" class="edge">
<title>Node14&#45;&gt;Node1</title>
<path fill="none" stroke="#9a32cd" stroke-dasharray="5,2" d="M435.21,-175.83C491.39,-201.11 614.26,-257.07 716,-308.09 801.75,-351.08 902.24,-406.47 941.78,-428.47"/>
<polygon fill="#9a32cd" stroke="#9a32cd" points="436.39,-172.52 425.84,-171.62 433.52,-178.91 436.39,-172.52"/>
<text text-anchor="middle" x="700.5" y="-388.09" font-family="Helvetica,sans-Serif" font-size="10.00"> f2c_c</text>
<text text-anchor="middle" x="700.5" y="-377.09" font-family="Helvetica,sans-Serif" font-size="10.00">f2c_t</text>
<text text-anchor="middle" x="700.5" y="-366.09" font-family="Helvetica,sans-Serif" font-size="10.00">c2f_c</text>
<text text-anchor="middle" x="700.5" y="-355.09" font-family="Helvetica,sans-Serif" font-size="10.00">c2f_t</text>
<text text-anchor="middle" x="700.5" y="-344.09" font-family="Helvetica,sans-Serif" font-size="10.00">f2c_e</text>
<text text-anchor="middle" x="700.5" y="-333.09" font-family="Helvetica,sans-Serif" font-size="10.00">c2f_e</text>
<text text-anchor="middle" x="700.5" y="-322.09" font-family="Helvetica,sans-Serif" font-size="10.00">f2c_n</text>
<text text-anchor="middle" x="700.5" y="-311.09" font-family="Helvetica,sans-Serif" font-size="10.00">c2f_n</text>
</g>
<!-- Node14&#45;&gt;Node14 -->
<g id="edge32" class="edge">
<title>Node14&#45;&gt;Node14</title>
<path fill="none" stroke="#9a32cd" stroke-dasharray="5,2" d="M386.09,-181.49C387.26,-186.4 393.06,-190.09 403.5,-190.09 420.21,-190.09 425.04,-180.65 417.99,-171.84"/>
<polygon fill="#9a32cd" stroke="#9a32cd" points="389.47,-182.43 389.01,-171.84 382.77,-180.4 389.47,-182.43"/>
<text text-anchor="middle" x="403.5" y="-193.09" font-family="Helvetica,sans-Serif" font-size="10.00"> next</text>
</g>
<!-- Node15&#45;&gt;Node14 -->
<g id="edge30" class="edge">
<title>Node15&#45;&gt;Node14</title>
<path fill="none" stroke="#9a32cd" stroke-dasharray="5,2" d="M254.31,-37.79C280.72,-34.2 313.79,-34.2 339,-49.09 378.34,-72.31 395.22,-129.76 400.52,-152.55"/>
<polygon fill="#9a32cd" stroke="#9a32cd" points="253.51,-34.38 244.18,-39.39 254.6,-41.29 253.51,-34.38"/>
<text text-anchor="middle" x="309.5" y="-96.09" font-family="Helvetica,sans-Serif" font-size="10.00"> west</text>
<text text-anchor="middle" x="309.5" y="-85.09" font-family="Helvetica,sans-Serif" font-size="10.00">center</text>
<text text-anchor="middle" x="309.5" y="-74.09" font-family="Helvetica,sans-Serif" font-size="10.00">south</text>
<text text-anchor="middle" x="309.5" y="-63.09" font-family="Helvetica,sans-Serif" font-size="10.00">east</text>
<text text-anchor="middle" x="309.5" y="-52.09" font-family="Helvetica,sans-Serif" font-size="10.00">north</text>
</g>
</g>
</svg>
