<?xml version="1.0" encoding="UTF-8" standalone="no"?>
<!DOCTYPE svg PUBLIC "-//W3C//DTD SVG 1.1//EN"
 "http://www.w3.org/Graphics/SVG/1.1/DTD/svg11.dtd">
<!-- Generated by graphviz version 2.43.0 (0)
 -->
<!-- Title: domain2d Pages: 1 -->
<!--zoomable 650 -->
<svg id="main" version="1.1" xmlns="http://www.w3.org/2000/svg" xmlns:xlink="http://www.w3.org/1999/xlink" xml:space="preserve" onload="init(evt)">
<style type="text/css"><![CDATA[
.edge:hover path { stroke: red; }
.edge:hover polygon { stroke: red; fill: red; }
]]></style>
<script type="text/javascript"><![CDATA[
var edges = document.getElementsByTagName('g');
if (edges && edges.length) {
  for (var i=0;i<edges.length;i++) {
    if (edges[i].id.substr(0,4)=='edge') {
      edges[i].setAttribute('class','edge');
    }
  }
}
]]></script>
        <defs>
                <circle id="rim" cx="0" cy="0" r="7"/>
                <circle id="rim2" cx="0" cy="0" r="3.5"/>
                <g id="zoomPlus">
                        <use xlink:href="#rim" fill="#404040">
                                <set attributeName="fill" to="#808080" begin="zoomplus.mouseover" end="zoomplus.mouseout"/>
                        </use>
                        <path d="M-4,0h8M0,-4v8" fill="none" stroke="white" stroke-width="1.5" pointer-events="none"/>
                </g>
                <g id="zoomMin">
                        <use xlink:href="#rim" fill="#404040">
                                <set attributeName="fill" to="#808080" begin="zoomminus.mouseover" end="zoomminus.mouseout"/>
                        </use>
                        <path d="M-4,0h8" fill="none" stroke="white" stroke-width="1.5" pointer-events="none"/>
                </g>
                <g id="dirArrow">
                        <path fill="none" stroke="white" stroke-width="1.5" d="M0,-3.0v7 M-2.5,-0.5L0,-3.0L2.5,-0.5"/>
                </g>
               <g id="resetDef">
                       <use xlink:href="#rim2" fill="#404040">
                               <set attributeName="fill" to="#808080" begin="reset.mouseover" end="reset.mouseout"/>
                       </use>
               </g>
        </defs>

<script type="text/javascript">
var viewWidth = 777;
var viewHeight = 650;
var sectionId = 'dynsection-3';
</script>
<script xlink:href="svgpan.js"/>
<svg id="graph" class="graph">
<g id="viewport">
<title>domain2d</title>
<polygon fill="white" stroke="transparent" points="-4,4 -4,-645.5 773,-645.5 773,4 -4,4"/>
<!-- Node1 -->
<g id="node1" class="node">
<title>Node1</title>
<g id="a_node1"><a xlink:title="The domain2D type contains all the necessary information to define the global, compute and data domai...">
<polygon fill="#bfbfbf" stroke="black" points="704,-228 704,-247 769,-247 769,-228 704,-228"/>
<text text-anchor="middle" x="736.5" y="-235" font-family="Helvetica,sans-Serif" font-size="10.00">domain2d</text>
</a>
</g>
</g>
<!-- Node1&#45;&gt;Node1 -->
<g id="edge10" class="edge">
<title>Node1&#45;&gt;Node1</title>
<path fill="none" stroke="#9a32cd" stroke-dasharray="5,2" d="M724.35,-257.27C725.3,-262 729.35,-265.5 736.5,-265.5 748.23,-265.5 751.62,-256.07 746.67,-247.26"/>
<polygon fill="#9a32cd" stroke="#9a32cd" points="727.82,-257.75 726.33,-247.26 720.95,-256.39 727.82,-257.75"/>
<text text-anchor="middle" x="736.5" y="-268.5" font-family="Helvetica,sans-Serif" font-size="10.00"> io_domain</text>
</g>
<!-- Node2 -->
<g id="node2" class="node">
<title>Node2</title>
<g id="a_node2"><a xlink:title=" ">
<polygon fill="white" stroke="#bfbfbf" points="1,-547 1,-566 50,-566 50,-547 1,-547"/>
<text text-anchor="middle" x="25.5" y="-554" font-family="Helvetica,sans-Serif" font-size="10.00">logical</text>
</a>
</g>
</g>
<!-- Node2&#45;&gt;Node1 -->
<g id="edge1" class="edge">
<title>Node2&#45;&gt;Node1</title>
<path fill="none" stroke="#9a32cd" stroke-dasharray="5,2" d="M48.73,-571.48C55.06,-575.21 62.12,-578.89 69,-581.5 127.65,-603.72 144.79,-608.5 207.5,-608.5 207.5,-608.5 207.5,-608.5 579.5,-608.5 741.25,-608.5 738.03,-305.11 735.93,-247.04"/>
<polygon fill="#9a32cd" stroke="#9a32cd" points="50.4,-568.4 40.07,-566.09 46.7,-574.35 50.4,-568.4"/>
<text text-anchor="middle" x="403.5" y="-633.5" font-family="Helvetica,sans-Serif" font-size="10.00"> initialized</text>
<text text-anchor="middle" x="403.5" y="-622.5" font-family="Helvetica,sans-Serif" font-size="10.00">rotated_ninety</text>
<text text-anchor="middle" x="403.5" y="-611.5" font-family="Helvetica,sans-Serif" font-size="10.00">symmetry</text>
</g>
<!-- Node3 -->
<g id="node3" class="node">
<title>Node3</title>
<g id="a_node3"><a xlink:href="group__mpp__domains__mod.html#structmpp__domains__mod_1_1domain1d" target="_top" xlink:title="One dimensional domain used to manage shared data access between pes.">
<polygon fill="white" stroke="black" points="371,-478 371,-497 436,-497 436,-478 371,-478"/>
<text text-anchor="middle" x="403.5" y="-485" font-family="Helvetica,sans-Serif" font-size="10.00">domain1d</text>
</a>
</g>
</g>
<!-- Node2&#45;&gt;Node3 -->
<g id="edge3" class="edge">
<title>Node2&#45;&gt;Node3</title>
<path fill="none" stroke="#9a32cd" stroke-dasharray="5,2" d="M59.93,-562.92C118.95,-572.67 244.3,-586.16 339,-546.5 363.98,-536.04 385.23,-511.12 395.64,-497.25"/>
<polygon fill="#9a32cd" stroke="#9a32cd" points="60.49,-559.47 50.04,-561.22 59.3,-566.37 60.49,-559.47"/>
<text text-anchor="middle" x="208.5" y="-575.5" font-family="Helvetica,sans-Serif" font-size="10.00"> cyclic</text>
</g>
<!-- Node4 -->
<g id="node4" class="node">
<title>Node4</title>
<g id="a_node4"><a xlink:href="group__mpp__domains__mod.html#structmpp__domains__mod_1_1domain__axis__spec" target="_top" xlink:title="Used to specify index limits along an axis of a domain.">
<polygon fill="white" stroke="black" points="155,-497 155,-516 262,-516 262,-497 155,-497"/>
<text text-anchor="middle" x="208.5" y="-504" font-family="Helvetica,sans-Serif" font-size="10.00">domain_axis_spec</text>
</a>
</g>
</g>
<!-- Node2&#45;&gt;Node4 -->
<g id="edge6" class="edge">
<title>Node2&#45;&gt;Node4</title>
<path fill="none" stroke="#9a32cd" stroke-dasharray="5,2" d="M59.97,-547.03C63.02,-546.17 66.07,-545.32 69,-544.5 104.19,-534.7 144.46,-523.68 172.47,-516.03"/>
<polygon fill="#9a32cd" stroke="#9a32cd" points="59,-543.66 50.32,-549.74 60.89,-550.4 59,-543.66"/>
<text text-anchor="middle" x="103" y="-547.5" font-family="Helvetica,sans-Serif" font-size="10.00"> is_global</text>
</g>
<!-- Node8 -->
<g id="node8" class="node">
<title>Node8</title>
<g id="a_node8"><a xlink:href="group__mpp__domains__mod.html#structmpp__domains__mod_1_1overlap__type" target="_top" xlink:title="Type for overlapping data.">
<polygon fill="white" stroke="black" points="168.5,-291 168.5,-310 248.5,-310 248.5,-291 168.5,-291"/>
<text text-anchor="middle" x="208.5" y="-298" font-family="Helvetica,sans-Serif" font-size="10.00">overlap_type</text>
</a>
</g>
</g>
<!-- Node2&#45;&gt;Node8 -->
<g id="edge13" class="edge">
<title>Node2&#45;&gt;Node8</title>
<path fill="none" stroke="#9a32cd" stroke-dasharray="5,2" d="M39.55,-539.09C47.25,-529.82 57.69,-518.86 69,-511.5 95.87,-494.03 116.67,-512.27 137,-487.5 172.61,-444.11 131.97,-413.69 155,-362.5 164.61,-341.15 183.83,-321.42 196.16,-310.18"/>
<polygon fill="#9a32cd" stroke="#9a32cd" points="36.77,-536.96 33.3,-546.96 42.25,-541.31 36.77,-536.96"/>
<text text-anchor="middle" x="103" y="-514.5" font-family="Helvetica,sans-Serif" font-size="10.00"> from_contact</text>
</g>
<!-- Node3&#45;&gt;Node1 -->
<g id="edge2" class="edge">
<title>Node3&#45;&gt;Node1</title>
<path fill="none" stroke="#9a32cd" stroke-dasharray="5,2" d="M445.98,-475.41C506.86,-455.64 620.31,-410.74 686,-334.5 709.82,-306.86 725.86,-265.76 732.31,-247.21"/>
<polygon fill="#9a32cd" stroke="#9a32cd" points="444.79,-472.12 436.32,-478.48 446.91,-478.79 444.79,-472.12"/>
<text text-anchor="middle" x="578.5" y="-459.5" font-family="Helvetica,sans-Serif" font-size="10.00"> x</text>
<text text-anchor="middle" x="578.5" y="-448.5" font-family="Helvetica,sans-Serif" font-size="10.00">y</text>
</g>
<!-- Node3&#45;&gt;Node3 -->
<g id="edge4" class="edge">
<title>Node3&#45;&gt;Node3</title>
<path fill="none" stroke="#9a32cd" stroke-dasharray="5,2" d="M388.77,-507.27C389.92,-512 394.84,-515.5 403.5,-515.5 417.72,-515.5 421.83,-506.07 415.83,-497.26"/>
<polygon fill="#9a32cd" stroke="#9a32cd" points="392.24,-507.8 391.17,-497.26 385.43,-506.16 392.24,-507.8"/>
<text text-anchor="middle" x="403.5" y="-518.5" font-family="Helvetica,sans-Serif" font-size="10.00"> list</text>
</g>
<!-- Node4&#45;&gt;Node3 -->
<g id="edge5" class="edge">
<title>Node4&#45;&gt;Node3</title>
<path fill="none" stroke="#9a32cd" stroke-dasharray="5,2" d="M272.27,-500.32C305.27,-497.07 344.29,-493.23 370.95,-490.61"/>
<polygon fill="#9a32cd" stroke="#9a32cd" points="271.85,-496.85 262.24,-501.31 272.53,-503.81 271.85,-496.85"/>
<text text-anchor="middle" x="309.5" y="-534.5" font-family="Helvetica,sans-Serif" font-size="10.00"> compute</text>
<text text-anchor="middle" x="309.5" y="-523.5" font-family="Helvetica,sans-Serif" font-size="10.00">data</text>
<text text-anchor="middle" x="309.5" y="-512.5" font-family="Helvetica,sans-Serif" font-size="10.00">global</text>
<text text-anchor="middle" x="309.5" y="-501.5" font-family="Helvetica,sans-Serif" font-size="10.00">memory</text>
</g>
<!-- Node10 -->
<g id="node10" class="node">
<title>Node10</title>
<g id="a_node10"><a xlink:href="group__mpp__domains__mod.html#structmpp__domains__mod_1_1domain1d__spec" target="_top" xlink:title="A private type used to specify index limits for a domain decomposition.">
<polygon fill="white" stroke="black" points="357,-388 357,-407 450,-407 450,-388 357,-388"/>
<text text-anchor="middle" x="403.5" y="-395" font-family="Helvetica,sans-Serif" font-size="10.00">domain1d_spec</text>
</a>
</g>
</g>
<!-- Node4&#45;&gt;Node10 -->
<g id="edge19" class="edge">
<title>Node4&#45;&gt;Node10</title>
<path fill="none" stroke="#9a32cd" stroke-dasharray="5,2" d="M238.54,-492.31C246.26,-488.33 254.53,-483.89 262,-479.5 270.29,-474.63 271.82,-472.55 280,-467.5 316.67,-444.84 360.82,-420.25 384.83,-407.1"/>
<polygon fill="#9a32cd" stroke="#9a32cd" points="236.82,-489.25 229.48,-496.89 239.98,-495.5 236.82,-489.25"/>
<text text-anchor="middle" x="309.5" y="-481.5" font-family="Helvetica,sans-Serif" font-size="10.00"> compute</text>
<text text-anchor="middle" x="309.5" y="-470.5" font-family="Helvetica,sans-Serif" font-size="10.00">global</text>
</g>
<!-- Node5 -->
<g id="node5" class="node">
<title>Node5</title>
<g id="a_node5"><a xlink:title=" ">
<polygon fill="white" stroke="#bfbfbf" points="0,-261 0,-280 51,-280 51,-261 0,-261"/>
<text text-anchor="middle" x="25.5" y="-268" font-family="Helvetica,sans-Serif" font-size="10.00">integer</text>
</a>
</g>
</g>
<!-- Node5&#45;&gt;Node1 -->
<g id="edge24" class="edge">
<title>Node5&#45;&gt;Node1</title>
<path fill="none" stroke="#9a32cd" stroke-dasharray="5,2" d="M28.96,-251.04C33.06,-226.38 43.53,-184.04 69,-158.5 115.54,-111.83 141.59,-105.5 207.5,-105.5 207.5,-105.5 207.5,-105.5 579.5,-105.5 655.07,-105.5 712.88,-196.88 730.17,-227.58"/>
<polygon fill="#9a32cd" stroke="#9a32cd" points="25.49,-250.59 27.5,-260.99 32.42,-251.61 25.49,-250.59"/>
<text text-anchor="middle" x="403.5" y="-218.5" font-family="Helvetica,sans-Serif" font-size="10.00"> ehalo</text>
<text text-anchor="middle" x="403.5" y="-207.5" font-family="Helvetica,sans-Serif" font-size="10.00">fold</text>
<text text-anchor="middle" x="403.5" y="-196.5" font-family="Helvetica,sans-Serif" font-size="10.00">io_layout</text>
<text text-anchor="middle" x="403.5" y="-185.5" font-family="Helvetica,sans-Serif" font-size="10.00">max_ntile_pe</text>
<text text-anchor="middle" x="403.5" y="-174.5" font-family="Helvetica,sans-Serif" font-size="10.00">ncontacts</text>
<text text-anchor="middle" x="403.5" y="-163.5" font-family="Helvetica,sans-Serif" font-size="10.00">nhalo</text>
<text text-anchor="middle" x="403.5" y="-152.5" font-family="Helvetica,sans-Serif" font-size="10.00">ntiles</text>
<text text-anchor="middle" x="403.5" y="-141.5" font-family="Helvetica,sans-Serif" font-size="10.00">pe</text>
<text text-anchor="middle" x="403.5" y="-130.5" font-family="Helvetica,sans-Serif" font-size="10.00">pearray</text>
<text text-anchor="middle" x="403.5" y="-119.5" font-family="Helvetica,sans-Serif" font-size="10.00">pos</text>
<text text-anchor="middle" x="403.5" y="-108.5" font-family="Helvetica,sans-Serif" font-size="10.00">...</text>
</g>
<!-- Node5&#45;&gt;Node3 -->
<g id="edge8" class="edge">
<title>Node5&#45;&gt;Node3</title>
<path fill="none" stroke="#9a32cd" stroke-dasharray="5,2" d="M29.14,-289.99C33.39,-313.85 43.96,-354 69,-377.5 98.31,-405.01 116.2,-394.99 155,-405.5 235.78,-427.37 261.89,-412.97 339,-445.5 358.49,-453.72 378.42,-468.07 390.63,-477.68"/>
<polygon fill="#9a32cd" stroke="#9a32cd" points="32.58,-289.34 27.57,-280 25.67,-290.43 32.58,-289.34"/>
<text text-anchor="middle" x="208.5" y="-458.5" font-family="Helvetica,sans-Serif" font-size="10.00"> goffset</text>
<text text-anchor="middle" x="208.5" y="-447.5" font-family="Helvetica,sans-Serif" font-size="10.00">loffset</text>
<text text-anchor="middle" x="208.5" y="-436.5" font-family="Helvetica,sans-Serif" font-size="10.00">pe</text>
<text text-anchor="middle" x="208.5" y="-425.5" font-family="Helvetica,sans-Serif" font-size="10.00">pos</text>
</g>
<!-- Node5&#45;&gt;Node4 -->
<g id="edge7" class="edge">
<title>Node5&#45;&gt;Node4</title>
<path fill="none" stroke="#9a32cd" stroke-dasharray="5,2" d="M26.53,-290.21C27.64,-321.87 34.44,-384.17 69,-420.5 90.99,-443.62 112.94,-422.54 137,-443.5 150.49,-455.25 142.42,-466.78 155,-479.5 162.28,-486.86 171.99,-492.62 181.07,-496.89"/>
<polygon fill="#9a32cd" stroke="#9a32cd" points="30.02,-289.97 26.33,-280.04 23.02,-290.11 30.02,-289.97"/>
<text text-anchor="middle" x="103" y="-479.5" font-family="Helvetica,sans-Serif" font-size="10.00"> begin</text>
<text text-anchor="middle" x="103" y="-468.5" font-family="Helvetica,sans-Serif" font-size="10.00">end</text>
<text text-anchor="middle" x="103" y="-457.5" font-family="Helvetica,sans-Serif" font-size="10.00">max_size</text>
<text text-anchor="middle" x="103" y="-446.5" font-family="Helvetica,sans-Serif" font-size="10.00">size</text>
</g>
<!-- Node7 -->
<g id="node7" class="node">
<title>Node7</title>
<g id="a_node7"><a xlink:href="group__mpp__domains__mod.html#structmpp__domains__mod_1_1overlapspec" target="_top" xlink:title="Private type for overlap specifications.">
<polygon fill="white" stroke="black" points="365.5,-245 365.5,-264 441.5,-264 441.5,-245 365.5,-245"/>
<text text-anchor="middle" x="403.5" y="-252" font-family="Helvetica,sans-Serif" font-size="10.00">overlapspec</text>
</a>
</g>
</g>
<!-- Node5&#45;&gt;Node7 -->
<g id="edge16" class="edge">
<title>Node5&#45;&gt;Node7</title>
<path fill="none" stroke="#9a32cd" stroke-dasharray="5,2" d="M31.45,-251.16C37.31,-232.06 48.91,-203.35 69,-186.5 99.59,-160.84 115.5,-166.34 155,-160.5 202.04,-153.54 216.82,-145.65 262,-160.5 311.82,-176.87 312.57,-202.63 357,-230.5 365.17,-235.63 374.55,-240.7 382.65,-244.85"/>
<polygon fill="#9a32cd" stroke="#9a32cd" points="28.05,-250.31 28.7,-260.88 34.79,-252.21 28.05,-250.31"/>
<text text-anchor="middle" x="208.5" y="-273.5" font-family="Helvetica,sans-Serif" font-size="10.00"> ehalo</text>
<text text-anchor="middle" x="208.5" y="-262.5" font-family="Helvetica,sans-Serif" font-size="10.00">nhalo</text>
<text text-anchor="middle" x="208.5" y="-251.5" font-family="Helvetica,sans-Serif" font-size="10.00">nrecv</text>
<text text-anchor="middle" x="208.5" y="-240.5" font-family="Helvetica,sans-Serif" font-size="10.00">nsend</text>
<text text-anchor="middle" x="208.5" y="-229.5" font-family="Helvetica,sans-Serif" font-size="10.00">recvsize</text>
<text text-anchor="middle" x="208.5" y="-218.5" font-family="Helvetica,sans-Serif" font-size="10.00">sendsize</text>
<text text-anchor="middle" x="208.5" y="-207.5" font-family="Helvetica,sans-Serif" font-size="10.00">shalo</text>
<text text-anchor="middle" x="208.5" y="-196.5" font-family="Helvetica,sans-Serif" font-size="10.00">whalo</text>
<text text-anchor="middle" x="208.5" y="-185.5" font-family="Helvetica,sans-Serif" font-size="10.00">xbegin</text>
<text text-anchor="middle" x="208.5" y="-174.5" font-family="Helvetica,sans-Serif" font-size="10.00">xend</text>
<text text-anchor="middle" x="208.5" y="-163.5" font-family="Helvetica,sans-Serif" font-size="10.00">...</text>
</g>
<!-- Node5&#45;&gt;Node8 -->
<g id="edge14" class="edge">
<title>Node5&#45;&gt;Node8</title>
<path fill="none" stroke="#9a32cd" stroke-dasharray="5,2" d="M32.69,-251.49C39.02,-235.48 50.58,-213.63 69,-203.5 95.48,-188.94 113.21,-184.86 137,-203.5 163.31,-224.11 133.68,-250.77 155,-276.5 160.18,-282.75 167.34,-287.45 174.7,-290.95"/>
<polygon fill="#9a32cd" stroke="#9a32cd" points="29.36,-250.39 29.26,-260.98 35.95,-252.76 29.36,-250.39"/>
<text text-anchor="middle" x="103" y="-316.5" font-family="Helvetica,sans-Serif" font-size="10.00"> count</text>
<text text-anchor="middle" x="103" y="-305.5" font-family="Helvetica,sans-Serif" font-size="10.00">dir</text>
<text text-anchor="middle" x="103" y="-294.5" font-family="Helvetica,sans-Serif" font-size="10.00">ie</text>
<text text-anchor="middle" x="103" y="-283.5" font-family="Helvetica,sans-Serif" font-size="10.00">index</text>
<text text-anchor="middle" x="103" y="-272.5" font-family="Helvetica,sans-Serif" font-size="10.00">is</text>
<text text-anchor="middle" x="103" y="-261.5" font-family="Helvetica,sans-Serif" font-size="10.00">je</text>
<text text-anchor="middle" x="103" y="-250.5" font-family="Helvetica,sans-Serif" font-size="10.00">js</text>
<text text-anchor="middle" x="103" y="-239.5" font-family="Helvetica,sans-Serif" font-size="10.00">msgsize</text>
<text text-anchor="middle" x="103" y="-228.5" font-family="Helvetica,sans-Serif" font-size="10.00">pe</text>
<text text-anchor="middle" x="103" y="-217.5" font-family="Helvetica,sans-Serif" font-size="10.00">rotation</text>
<text text-anchor="middle" x="103" y="-206.5" font-family="Helvetica,sans-Serif" font-size="10.00">...</text>
</g>
<!-- Node9 -->
<g id="node9" class="node">
<title>Node9</title>
<g id="a_node9"><a xlink:href="group__mpp__domains__mod.html#structmpp__domains__mod_1_1domain2d__spec" target="_top" xlink:title="Private type to specify multiple index limits and pe information for a 2D domain.">
<polygon fill="white" stroke="black" points="532,-341 532,-360 625,-360 625,-341 532,-341"/>
<text text-anchor="middle" x="578.5" y="-348" font-family="Helvetica,sans-Serif" font-size="10.00">domain2d_spec</text>
</a>
</g>
</g>
<!-- Node5&#45;&gt;Node9 -->
<g id="edge21" class="edge">
<title>Node5&#45;&gt;Node9</title>
<path fill="none" stroke="#9a32cd" stroke-dasharray="5,2" d="M35.81,-289.29C43.03,-301.64 54.29,-316.89 69,-324.5 89.36,-335.04 410.79,-345.57 531.85,-349.19"/>
<polygon fill="#9a32cd" stroke="#9a32cd" points="38.73,-287.33 30.89,-280.2 32.57,-290.66 38.73,-287.33"/>
<text text-anchor="middle" x="309.5" y="-378.5" font-family="Helvetica,sans-Serif" font-size="10.00"> pe</text>
<text text-anchor="middle" x="309.5" y="-367.5" font-family="Helvetica,sans-Serif" font-size="10.00">pos</text>
<text text-anchor="middle" x="309.5" y="-356.5" font-family="Helvetica,sans-Serif" font-size="10.00">tile_id</text>
<text text-anchor="middle" x="309.5" y="-345.5" font-family="Helvetica,sans-Serif" font-size="10.00">tile_root_pe</text>
</g>
<!-- Node5&#45;&gt;Node10 -->
<g id="edge20" class="edge">
<title>Node5&#45;&gt;Node10</title>
<path fill="none" stroke="#9a32cd" stroke-dasharray="5,2" d="M31.09,-290.02C36.67,-309.16 48.05,-337.57 69,-352.5 114.26,-384.76 276.44,-393.92 356.76,-396.5"/>
<polygon fill="#9a32cd" stroke="#9a32cd" points="34.44,-289.01 28.5,-280.24 27.68,-290.8 34.44,-289.01"/>
<text text-anchor="middle" x="208.5" y="-393.5" font-family="Helvetica,sans-Serif" font-size="10.00"> pos</text>
</g>
<!-- Node11 -->
<g id="node11" class="node">
<title>Node11</title>
<g id="a_node11"><a xlink:href="group__mpp__domains__mod.html#structmpp__domains__mod_1_1tile__type" target="_top" xlink:title="Upper and lower x and y bounds for a tile.">
<polygon fill="white" stroke="black" points="280,-43 280,-62 339,-62 339,-43 280,-43"/>
<text text-anchor="middle" x="309.5" y="-50" font-family="Helvetica,sans-Serif" font-size="10.00">tile_type</text>
</a>
</g>
</g>
<!-- Node5&#45;&gt;Node11 -->
<g id="edge23" class="edge">
<title>Node5&#45;&gt;Node11</title>
<path fill="none" stroke="#9a32cd" stroke-dasharray="5,2" d="M27.17,-250.9C29.3,-201.37 37.8,-73.31 69,-47.5 131.48,4.2 237.74,-25.76 284.83,-42.98"/>
<polygon fill="#9a32cd" stroke="#9a32cd" points="23.67,-250.83 26.78,-260.96 30.66,-251.1 23.67,-250.83"/>
<text text-anchor="middle" x="103" y="-83.5" font-family="Helvetica,sans-Serif" font-size="10.00"> xbegin</text>
<text text-anchor="middle" x="103" y="-72.5" font-family="Helvetica,sans-Serif" font-size="10.00">xend</text>
<text text-anchor="middle" x="103" y="-61.5" font-family="Helvetica,sans-Serif" font-size="10.00">ybegin</text>
<text text-anchor="middle" x="103" y="-50.5" font-family="Helvetica,sans-Serif" font-size="10.00">yend</text>
</g>
<!-- Node6 -->
<g id="node6" class="node">
<title>Node6</title>
<g id="a_node6"><a xlink:title=" ">
<polygon fill="white" stroke="#bfbfbf" points="531.5,-303 531.5,-322 625.5,-322 625.5,-303 531.5,-303"/>
<text text-anchor="middle" x="578.5" y="-310" font-family="Helvetica,sans-Serif" font-size="10.00">integer(i8_kind)</text>
</a>
</g>
</g>
<!-- Node6&#45;&gt;Node1 -->
<g id="edge9" class="edge">
<title>Node6&#45;&gt;Node1</title>
<path fill="none" stroke="#9a32cd" stroke-dasharray="5,2" d="M613.09,-299.03C620.99,-295.71 629.33,-292.08 637,-288.5 665.79,-275.06 698.39,-257.76 717.92,-247.16"/>
<polygon fill="#9a32cd" stroke="#9a32cd" points="611.65,-295.83 603.75,-302.89 614.33,-302.3 611.65,-295.83"/>
<text text-anchor="middle" x="670.5" y="-281.5" font-family="Helvetica,sans-Serif" font-size="10.00"> id</text>
</g>
<!-- Node7&#45;&gt;Node1 -->
<g id="edge11" class="edge">
<title>Node7&#45;&gt;Node1</title>
<path fill="none" stroke="#9a32cd" stroke-dasharray="5,2" d="M433.93,-240.12C439.39,-237.14 444.96,-233.87 450,-230.5 483.6,-208.07 481.99,-186.2 520,-172.5 568.92,-154.87 587.2,-157.55 637,-172.5 673.3,-183.4 708.58,-212.49 725.35,-227.79"/>
<polygon fill="#9a32cd" stroke="#9a32cd" points="432.17,-237.09 424.95,-244.85 435.43,-243.29 432.17,-237.09"/>
<text text-anchor="middle" x="578.5" y="-285.5" font-family="Helvetica,sans-Serif" font-size="10.00"> bound_c</text>
<text text-anchor="middle" x="578.5" y="-274.5" font-family="Helvetica,sans-Serif" font-size="10.00">bound_e</text>
<text text-anchor="middle" x="578.5" y="-263.5" font-family="Helvetica,sans-Serif" font-size="10.00">bound_n</text>
<text text-anchor="middle" x="578.5" y="-252.5" font-family="Helvetica,sans-Serif" font-size="10.00">check_c</text>
<text text-anchor="middle" x="578.5" y="-241.5" font-family="Helvetica,sans-Serif" font-size="10.00">check_e</text>
<text text-anchor="middle" x="578.5" y="-230.5" font-family="Helvetica,sans-Serif" font-size="10.00">check_n</text>
<text text-anchor="middle" x="578.5" y="-219.5" font-family="Helvetica,sans-Serif" font-size="10.00">update_c</text>
<text text-anchor="middle" x="578.5" y="-208.5" font-family="Helvetica,sans-Serif" font-size="10.00">update_e</text>
<text text-anchor="middle" x="578.5" y="-197.5" font-family="Helvetica,sans-Serif" font-size="10.00">update_n</text>
<text text-anchor="middle" x="578.5" y="-186.5" font-family="Helvetica,sans-Serif" font-size="10.00">update_t</text>
<text text-anchor="middle" x="578.5" y="-175.5" font-family="Helvetica,sans-Serif" font-size="10.00">...</text>
</g>
<!-- Node7&#45;&gt;Node7 -->
<g id="edge15" class="edge">
<title>Node7&#45;&gt;Node7</title>
<path fill="none" stroke="#9a32cd" stroke-dasharray="5,2" d="M388.77,-274.27C389.92,-279 394.84,-282.5 403.5,-282.5 417.72,-282.5 421.83,-273.07 415.83,-264.26"/>
<polygon fill="#9a32cd" stroke="#9a32cd" points="392.24,-274.8 391.17,-264.26 385.43,-273.16 392.24,-274.8"/>
<text text-anchor="middle" x="403.5" y="-285.5" font-family="Helvetica,sans-Serif" font-size="10.00"> next</text>
</g>
<!-- Node8&#45;&gt;Node7 -->
<g id="edge12" class="edge">
<title>Node8&#45;&gt;Node7</title>
<path fill="none" stroke="#9a32cd" stroke-dasharray="5,2" d="M258.53,-288.81C291.79,-280.89 335.08,-270.57 365.47,-263.33"/>
<polygon fill="#9a32cd" stroke="#9a32cd" points="257.47,-285.47 248.56,-291.19 259.1,-292.28 257.47,-285.47"/>
<text text-anchor="middle" x="309.5" y="-296.5" font-family="Helvetica,sans-Serif" font-size="10.00"> recv</text>
<text text-anchor="middle" x="309.5" y="-285.5" font-family="Helvetica,sans-Serif" font-size="10.00">send</text>
</g>
<!-- Node9&#45;&gt;Node1 -->
<g id="edge17" class="edge">
<title>Node9&#45;&gt;Node1</title>
<path fill="none" stroke="#9a32cd" stroke-dasharray="5,2" d="M624.28,-337.39C628.67,-335.6 632.98,-333.64 637,-331.5 677.68,-309.83 713.54,-266.63 728.32,-247.28"/>
<polygon fill="#9a32cd" stroke="#9a32cd" points="622.78,-334.21 614.65,-341 625.24,-340.76 622.78,-334.21"/>
<text text-anchor="middle" x="670.5" y="-322.5" font-family="Helvetica,sans-Serif" font-size="10.00"> list</text>
</g>
<!-- Node10&#45;&gt;Node9 -->
<g id="edge18" class="edge">
<title>Node10&#45;&gt;Node9</title>
<path fill="none" stroke="#9a32cd" stroke-dasharray="5,2" d="M449.38,-385.31C478.32,-377.45 515.42,-367.36 542.25,-360.08"/>
<polygon fill="#9a32cd" stroke="#9a32cd" points="448.24,-381.99 439.51,-387.99 450.08,-388.74 448.24,-381.99"/>
<text text-anchor="middle" x="485" y="-393.5" font-family="Helvetica,sans-Serif" font-size="10.00"> x</text>
<text text-anchor="middle" x="485" y="-382.5" font-family="Helvetica,sans-Serif" font-size="10.00">y</text>
</g>
<!-- Node11&#45;&gt;Node1 -->
<g id="edge22" class="edge">
<title>Node11&#45;&gt;Node1</title>
<path fill="none" stroke="#9a32cd" stroke-dasharray="5,2" d="M349.3,-51.41C434.58,-49.81 634.8,-50.63 686,-91.5 729.51,-126.23 734.99,-200.91 735.52,-227.69"/>
<polygon fill="#9a32cd" stroke="#9a32cd" points="349.18,-47.91 339.25,-51.62 349.32,-54.91 349.18,-47.91"/>
<text text-anchor="middle" x="485" y="-57.5" font-family="Helvetica,sans-Serif" font-size="10.00"> tilelist</text>
</g>
<!-- Node12 -->
<g id="node12" class="node">
<title>Node12</title>
<g id="a_node12"><a xlink:title=" ">
<polygon fill="white" stroke="#bfbfbf" points="520,-0.5 520,-30.5 637,-30.5 637,-0.5 520,-0.5"/>
<text text-anchor="start" x="528" y="-18.5" font-family="Helvetica,sans-Serif" font-size="10.00">character(len=name</text>
<text text-anchor="middle" x="578.5" y="-7.5" font-family="Helvetica,sans-Serif" font-size="10.00">_length)</text>
</a>
</g>
</g>
<!-- Node12&#45;&gt;Node1 -->
<g id="edge25" class="edge">
<title>Node12&#45;&gt;Node1</title>
<path fill="none" stroke="#9a32cd" stroke-dasharray="5,2" d="M647.1,-15.78C661.41,-18.85 675.38,-24.52 686,-34.5 715.02,-61.76 730.67,-191.51 734.54,-227.96"/>
<polygon fill="#9a32cd" stroke="#9a32cd" points="647.63,-12.32 637.18,-14.06 646.43,-19.22 647.63,-12.32"/>
<text text-anchor="middle" x="670.5" y="-37.5" font-family="Helvetica,sans-Serif" font-size="10.00"> name</text>
</g>
</g>
</svg>
        <g id="navigator" transform="translate(0 0)" fill="#404254">
                <rect fill="#f2f5e9" fill-opacity="0.5" stroke="#606060" stroke-width=".5" x="0" y="0" width="60" height="60"/>
                <use id="zoomplus" xlink:href="#zoomPlus" x="17" y="9" onmousedown="handleZoom(evt,'in')"/>
                <use id="zoomminus" xlink:href="#zoomMin" x="42" y="9" onmousedown="handleZoom(evt,'out')"/>
                <use id="reset" xlink:href="#resetDef" x="30" y="36" onmousedown="handleReset()"/>
                <g id="arrowUp" xlink:href="#dirArrow" transform="translate(30 24)" onmousedown="handlePan(0,-1)">
                  <use xlink:href="#rim" fill="#404040">
                        <set attributeName="fill" to="#808080" begin="arrowUp.mouseover" end="arrowUp.mouseout"/>
                  </use>
                  <path fill="none" stroke="white" stroke-width="1.5" d="M0,-3.0v7 M-2.5,-0.5L0,-3.0L2.5,-0.5"/>
                </g>
                <g id="arrowRight" xlink:href="#dirArrow" transform="rotate(90) translate(36 -43)" onmousedown="handlePan(1,0)">
                  <use xlink:href="#rim" fill="#404040">
                        <set attributeName="fill" to="#808080" begin="arrowRight.mouseover" end="arrowRight.mouseout"/>
                  </use>
                  <path fill="none" stroke="white" stroke-width="1.5" d="M0,-3.0v7 M-2.5,-0.5L0,-3.0L2.5,-0.5"/>
                </g>
                <g id="arrowDown" xlink:href="#dirArrow" transform="rotate(180) translate(-30 -48)" onmousedown="handlePan(0,1)">
                  <use xlink:href="#rim" fill="#404040">
                        <set attributeName="fill" to="#808080" begin="arrowDown.mouseover" end="arrowDown.mouseout"/>
                  </use>
                  <path fill="none" stroke="white" stroke-width="1.5" d="M0,-3.0v7 M-2.5,-0.5L0,-3.0L2.5,-0.5"/>
                </g>
                <g id="arrowLeft" xlink:href="#dirArrow" transform="rotate(270) translate(-36 17)" onmousedown="handlePan(-1,0)">
                  <use xlink:href="#rim" fill="#404040">
                        <set attributeName="fill" to="#808080" begin="arrowLeft.mouseover" end="arrowLeft.mouseout"/>
                  </use>
                  <path fill="none" stroke="white" stroke-width="1.5" d="M0,-3.0v7 M-2.5,-0.5L0,-3.0L2.5,-0.5"/>
                </g>
        </g>
        <svg viewBox="0 0 15 15" width="100%" height="30px" preserveAspectRatio="xMaxYMin meet">
         <g id="arrow_out" transform="scale(0.3 0.3)">
          <a xlink:href="structmpp__domains__mod_1_1domain2d__coll__graph_org.svg" target="_base">
           <rect id="button" ry="5" rx="5" y="6" x="6" height="38" width="38"
                fill="#f2f5e9" fill-opacity="0.5" stroke="#606060" stroke-width="1.0"/>
           <path id="arrow"
             d="M 11.500037,31.436501 C 11.940474,20.09759 22.043105,11.32322 32.158766,21.979434 L 37.068811,17.246167 C 37.068811,17.246167 37.088388,32 37.088388,32 L 22.160133,31.978069 C 22.160133,31.978069 26.997745,27.140456 26.997745,27.140456 C 18.528582,18.264221 13.291696,25.230495 11.500037,31.436501 z"
             style="fill:#404040;"/>
          </a>
         </g>
        </svg>
</svg>
