<?xml version="1.0" encoding="UTF-8" standalone="no"?>
<!DOCTYPE svg PUBLIC "-//W3C//DTD SVG 1.1//EN"
 "http://www.w3.org/Graphics/SVG/1.1/DTD/svg11.dtd">
<!-- Generated by graphviz version 2.43.0 (0)
 -->
<!-- Title: meta_type Pages: 1 -->
<svg width="241pt" height="108pt"
 viewBox="0.00 0.00 241.00 108.00" xmlns="http://www.w3.org/2000/svg" xmlns:xlink="http://www.w3.org/1999/xlink">
<g id="graph0" class="graph" transform="scale(1 1) rotate(0) translate(4 104)">
<title>meta_type</title>
<polygon fill="white" stroke="transparent" points="-4,4 -4,-104 237,-104 237,4 -4,4"/>
<!-- Node1 -->
<g id="node1" class="node">
<title>Node1</title>
<g id="a_node1"><a xlink:title=" ">
<polygon fill="#bfbfbf" stroke="black" points="120,-1.5 120,-20.5 189,-20.5 189,-1.5 120,-1.5"/>
<text text-anchor="middle" x="154.5" y="-8.5" font-family="Helvetica,sans-Serif" font-size="10.00">meta_type</text>
</a>
</g>
</g>
<!-- Node1&#45;&gt;Node1 -->
<g id="edge1" class="edge">
<title>Node1&#45;&gt;Node1</title>
<path fill="none" stroke="#9a32cd" stroke-dasharray="5,2" d="M199.19,-17.24C203.95,-16.04 207,-13.95 207,-11 207,-6.27 199.18,-3.78 189.09,-3.52"/>
<polygon fill="#9a32cd" stroke="#9a32cd" points="198.59,-13.79 189.09,-18.48 199.44,-20.74 198.59,-13.79"/>
<text text-anchor="middle" x="219.5" y="-14" font-family="Helvetica,sans-Serif" font-size="10.00"> next</text>
<text text-anchor="middle" x="219.5" y="-3" font-family="Helvetica,sans-Serif" font-size="10.00">prev</text>
</g>
<!-- Node2 -->
<g id="node2" class="node">
<title>Node2</title>
<g id="a_node2"><a xlink:title=" ">
<polygon fill="white" stroke="#bfbfbf" points="0,-80.5 0,-99.5 111,-99.5 111,-80.5 0,-80.5"/>
<text text-anchor="middle" x="55.5" y="-87.5" font-family="Helvetica,sans-Serif" font-size="10.00">character(len=256)</text>
</a>
</g>
</g>
<!-- Node2&#45;&gt;Node1 -->
<g id="edge2" class="edge">
<title>Node2&#45;&gt;Node1</title>
<path fill="none" stroke="#9a32cd" stroke-dasharray="5,2" d="M74.46,-74.25C94.92,-58.34 126.8,-33.55 143.48,-20.57"/>
<polygon fill="#9a32cd" stroke="#9a32cd" points="72.22,-71.56 66.47,-80.47 76.52,-77.09 72.22,-71.56"/>
<text text-anchor="middle" x="131.5" y="-54" font-family="Helvetica,sans-Serif" font-size="10.00"> cval</text>
<text text-anchor="middle" x="131.5" y="-43" font-family="Helvetica,sans-Serif" font-size="10.00">name</text>
</g>
<!-- Node3 -->
<g id="node3" class="node">
<title>Node3</title>
<g id="a_node3"><a xlink:title=" ">
<polygon fill="white" stroke="#bfbfbf" points="129,-80.5 129,-99.5 180,-99.5 180,-80.5 129,-80.5"/>
<text text-anchor="middle" x="154.5" y="-87.5" font-family="Helvetica,sans-Serif" font-size="10.00">integer</text>
</a>
</g>
</g>
<!-- Node3&#45;&gt;Node1 -->
<g id="edge3" class="edge">
<title>Node3&#45;&gt;Node1</title>
<path fill="none" stroke="#9a32cd" stroke-dasharray="5,2" d="M154.5,-70.31C154.5,-54.59 154.5,-32.81 154.5,-20.81"/>
<polygon fill="#9a32cd" stroke="#9a32cd" points="151,-70.47 154.5,-80.47 158,-70.47 151,-70.47"/>
<text text-anchor="middle" x="165.5" y="-48.5" font-family="Helvetica,sans-Serif" font-size="10.00"> ival</text>
</g>
<!-- Node4 -->
<g id="node4" class="node">
<title>Node4</title>
<g id="a_node4"><a xlink:title=" ">
<polygon fill="white" stroke="#bfbfbf" points="198,-80.5 198,-99.5 233,-99.5 233,-80.5 198,-80.5"/>
<text text-anchor="middle" x="215.5" y="-87.5" font-family="Helvetica,sans-Serif" font-size="10.00">real</text>
</a>
</g>
</g>
<!-- Node4&#45;&gt;Node1 -->
<g id="edge4" class="edge">
<title>Node4&#45;&gt;Node1</title>
<path fill="none" stroke="#9a32cd" stroke-dasharray="5,2" d="M204.24,-72.12C197.61,-62.49 188.91,-50.31 180.5,-40 174.96,-33.22 168.23,-25.98 162.99,-20.57"/>
<polygon fill="#9a32cd" stroke="#9a32cd" points="201.36,-74.12 209.87,-80.43 207.16,-70.19 201.36,-74.12"/>
<text text-anchor="middle" x="206.5" y="-48.5" font-family="Helvetica,sans-Serif" font-size="10.00"> rval</text>
</g>
</g>
</svg>
