<?xml version="1.0" encoding="UTF-8" standalone="no"?>
<!DOCTYPE svg PUBLIC "-//W3C//DTD SVG 1.1//EN"
 "http://www.w3.org/Graphics/SVG/1.1/DTD/svg11.dtd">
<!-- Generated by graphviz version 2.43.0 (0)
 -->
<!-- Title: drifters_type Pages: 1 -->
<svg width="537pt" height="919pt"
 viewBox="0.00 0.00 537.00 919.00" xmlns="http://www.w3.org/2000/svg" xmlns:xlink="http://www.w3.org/1999/xlink">
<g id="graph0" class="graph" transform="scale(1 1) rotate(0) translate(4 915)">
<title>drifters_type</title>
<polygon fill="white" stroke="transparent" points="-4,4 -4,-915 533,-915 533,4 -4,4"/>
<!-- Node1 -->
<g id="node1" class="node">
<title>Node1</title>
<g id="a_node1"><a xlink:title="Holds all data needed for drifters communication, io, and input.">
<polygon fill="#bfbfbf" stroke="black" points="451,-409.5 451,-428.5 529,-428.5 529,-409.5 451,-409.5"/>
<text text-anchor="middle" x="490" y="-416.5" font-family="Helvetica,sans-Serif" font-size="10.00">drifters_type</text>
</a>
</g>
</g>
<!-- Node2 -->
<g id="node2" class="node">
<title>Node2</title>
<g id="a_node2"><a xlink:title=" ">
<polygon fill="white" stroke="#bfbfbf" points="52,-878.5 52,-897.5 101,-897.5 101,-878.5 52,-878.5"/>
<text text-anchor="middle" x="76.5" y="-885.5" font-family="Helvetica,sans-Serif" font-size="10.00">logical</text>
</a>
</g>
</g>
<!-- Node2&#45;&gt;Node1 -->
<g id="edge1" class="edge">
<title>Node2&#45;&gt;Node1</title>
<path fill="none" stroke="#9a32cd" stroke-dasharray="5,2" d="M110.92,-897.26C146.33,-905.38 203.33,-913.54 249,-897 320.81,-871 330.61,-844.38 381,-787 409.48,-754.57 417.02,-745.09 433,-705 474.02,-602.07 485.84,-465.94 488.4,-428.75"/>
<polygon fill="#9a32cd" stroke="#9a32cd" points="111.64,-893.84 101.09,-894.88 109.99,-900.64 111.64,-893.84"/>
<text text-anchor="middle" x="324" y="-903" font-family="Helvetica,sans-Serif" font-size="10.00"> remove</text>
<text text-anchor="middle" x="324" y="-892" font-family="Helvetica,sans-Serif" font-size="10.00">rk4_completed</text>
</g>
<!-- Node4 -->
<g id="node4" class="node">
<title>Node4</title>
<g id="a_node4"><a xlink:href="group__drifters__input__mod.html#structdrifters__io__mod_1_1drifters__io__type" target="_top" xlink:title="IO data for drifters.">
<polygon fill="white" stroke="black" points="278,-758.5 278,-777.5 370,-777.5 370,-758.5 278,-758.5"/>
<text text-anchor="middle" x="324" y="-765.5" font-family="Helvetica,sans-Serif" font-size="10.00">drifters_io_type</text>
</a>
</g>
</g>
<!-- Node2&#45;&gt;Node4 -->
<g id="edge4" class="edge">
<title>Node2&#45;&gt;Node4</title>
<path fill="none" stroke="#9a32cd" stroke-dasharray="5,2" d="M111.27,-886.75C154.43,-884.63 226.27,-879.19 249,-866 285.51,-844.81 309.81,-797.78 318.95,-777.55"/>
<polygon fill="#9a32cd" stroke="#9a32cd" points="111.05,-883.25 101.23,-887.21 111.37,-890.25 111.05,-883.25"/>
<text text-anchor="middle" x="210" y="-885" font-family="Helvetica,sans-Serif" font-size="10.00"> enddef</text>
</g>
<!-- Node7 -->
<g id="node7" class="node">
<title>Node7</title>
<g id="a_node7"><a xlink:href="group__drifters__comm__mod.html#structdrifters__comm__mod_1_1drifters__comm__type" target="_top" xlink:title="Type for drifter communication between PE&#39;s.">
<polygon fill="white" stroke="black" points="267,-660.5 267,-679.5 381,-679.5 381,-660.5 267,-660.5"/>
<text text-anchor="middle" x="324" y="-667.5" font-family="Helvetica,sans-Serif" font-size="10.00">drifters_comm_type</text>
</a>
</g>
</g>
<!-- Node2&#45;&gt;Node7 -->
<g id="edge8" class="edge">
<title>Node2&#45;&gt;Node7</title>
<path fill="none" stroke="#9a32cd" stroke-dasharray="5,2" d="M102.08,-873.35C120.53,-862.87 146.68,-849.06 171,-840 204.44,-827.54 223.69,-846.15 249,-821 272.39,-797.75 253.23,-778.97 267,-749 279.5,-721.81 301.69,-694.24 314.05,-679.96"/>
<polygon fill="#9a32cd" stroke="#9a32cd" points="100.1,-870.45 93.19,-878.49 103.6,-876.52 100.1,-870.45"/>
<text text-anchor="middle" x="210" y="-854" font-family="Helvetica,sans-Serif" font-size="10.00"> xperiodic</text>
<text text-anchor="middle" x="210" y="-843" font-family="Helvetica,sans-Serif" font-size="10.00">yperiodic</text>
</g>
<!-- Node3 -->
<g id="node3" class="node">
<title>Node3</title>
<g id="a_node3"><a xlink:title=" ">
<polygon fill="white" stroke="#bfbfbf" points="0,-0.5 0,-19.5 153,-19.5 153,-0.5 0,-0.5"/>
<text text-anchor="middle" x="76.5" y="-7.5" font-family="Helvetica,sans-Serif" font-size="10.00">character(len=max_str_len)</text>
</a>
</g>
</g>
<!-- Node3&#45;&gt;Node1 -->
<g id="edge2" class="edge">
<title>Node3&#45;&gt;Node1</title>
<path fill="none" stroke="#9a32cd" stroke-dasharray="5,2" d="M163.48,-10.85C191.34,-13.13 222,-17.83 249,-27 314.4,-49.21 334.37,-58.05 381,-109 466.62,-202.54 484.99,-367.66 488.33,-409.27"/>
<polygon fill="#9a32cd" stroke="#9a32cd" points="163.58,-7.35 153.35,-10.11 163.07,-14.33 163.58,-7.35"/>
<text text-anchor="middle" x="324" y="-123" font-family="Helvetica,sans-Serif" font-size="10.00"> input_file</text>
<text text-anchor="middle" x="324" y="-112" font-family="Helvetica,sans-Serif" font-size="10.00">output_file</text>
</g>
<!-- Node8 -->
<g id="node8" class="node">
<title>Node8</title>
<g id="a_node8"><a xlink:href="group__drifters__input__mod.html#structdrifters__input__mod_1_1drifters__input__type" target="_top" xlink:title="Input data type for drifters.">
<polygon fill="white" stroke="black" points="270,-255.5 270,-274.5 378,-274.5 378,-255.5 270,-255.5"/>
<text text-anchor="middle" x="324" y="-262.5" font-family="Helvetica,sans-Serif" font-size="10.00">drifters_input_type</text>
</a>
</g>
</g>
<!-- Node3&#45;&gt;Node8 -->
<g id="edge12" class="edge">
<title>Node3&#45;&gt;Node8</title>
<path fill="none" stroke="#9a32cd" stroke-dasharray="5,2" d="M149.06,-25.29C150.44,-26.45 151.76,-27.68 153,-29 182.74,-60.62 143.96,-91.04 171,-125 194.56,-154.58 219.74,-135.04 249,-159 283.38,-187.16 308.85,-235.17 318.62,-255.48"/>
<polygon fill="#9a32cd" stroke="#9a32cd" points="150.74,-22.21 140.49,-19.53 146.84,-28.02 150.74,-22.21"/>
<text text-anchor="middle" x="210" y="-239" font-family="Helvetica,sans-Serif" font-size="10.00"> title</text>
<text text-anchor="middle" x="210" y="-228" font-family="Helvetica,sans-Serif" font-size="10.00">field_names</text>
<text text-anchor="middle" x="210" y="-217" font-family="Helvetica,sans-Serif" font-size="10.00">version</text>
<text text-anchor="middle" x="210" y="-206" font-family="Helvetica,sans-Serif" font-size="10.00">field_units</text>
<text text-anchor="middle" x="210" y="-195" font-family="Helvetica,sans-Serif" font-size="10.00">position_units</text>
<text text-anchor="middle" x="210" y="-184" font-family="Helvetica,sans-Serif" font-size="10.00">position_names</text>
<text text-anchor="middle" x="210" y="-173" font-family="Helvetica,sans-Serif" font-size="10.00">velocity_names</text>
<text text-anchor="middle" x="210" y="-162" font-family="Helvetica,sans-Serif" font-size="10.00">time_units</text>
</g>
<!-- Node4&#45;&gt;Node1 -->
<g id="edge3" class="edge">
<title>Node4&#45;&gt;Node1</title>
<path fill="none" stroke="#9a32cd" stroke-dasharray="5,2" d="M343.54,-751.5C367.75,-728.93 409.77,-686.07 433,-641 471.97,-565.39 484.92,-461.06 488.12,-428.86"/>
<polygon fill="#9a32cd" stroke="#9a32cd" points="341.08,-749.01 336.07,-758.35 345.81,-754.17 341.08,-749.01"/>
<text text-anchor="middle" x="416" y="-693" font-family="Helvetica,sans-Serif" font-size="10.00"> io</text>
</g>
<!-- Node5 -->
<g id="node5" class="node">
<title>Node5</title>
<g id="a_node5"><a xlink:title=" ">
<polygon fill="white" stroke="#bfbfbf" points="51,-308.5 51,-327.5 102,-327.5 102,-308.5 51,-308.5"/>
<text text-anchor="middle" x="76.5" y="-315.5" font-family="Helvetica,sans-Serif" font-size="10.00">integer</text>
</a>
</g>
</g>
<!-- Node5&#45;&gt;Node1 -->
<g id="edge19" class="edge">
<title>Node5&#45;&gt;Node1</title>
<path fill="none" stroke="#9a32cd" stroke-dasharray="5,2" d="M112.39,-318.14C147.33,-318.92 202.45,-321.85 249,-332 333.01,-350.31 427.52,-390.83 468.37,-409.38"/>
<polygon fill="#9a32cd" stroke="#9a32cd" points="112.29,-314.64 102.23,-317.97 112.16,-321.64 112.29,-314.64"/>
<text text-anchor="middle" x="324" y="-396" font-family="Helvetica,sans-Serif" font-size="10.00"> rk4_step</text>
<text text-anchor="middle" x="324" y="-385" font-family="Helvetica,sans-Serif" font-size="10.00">nx</text>
<text text-anchor="middle" x="324" y="-374" font-family="Helvetica,sans-Serif" font-size="10.00">ny</text>
</g>
<!-- Node5&#45;&gt;Node4 -->
<g id="edge5" class="edge">
<title>Node5&#45;&gt;Node4</title>
<path fill="none" stroke="#9a32cd" stroke-dasharray="5,2" d="M87.38,-336.89C103.99,-369.55 137.2,-439.15 153,-502 162.48,-539.7 145.44,-646.71 171,-676 194.46,-702.88 217.84,-677.62 249,-695 278.31,-711.35 304.1,-742.48 316,-758.28"/>
<polygon fill="#9a32cd" stroke="#9a32cd" points="90.31,-334.92 82.62,-327.63 84.09,-338.13 90.31,-334.92"/>
<text text-anchor="middle" x="210" y="-775" font-family="Helvetica,sans-Serif" font-size="10.00"> ncid</text>
<text text-anchor="middle" x="210" y="-764" font-family="Helvetica,sans-Serif" font-size="10.00">nc_fields</text>
<text text-anchor="middle" x="210" y="-753" font-family="Helvetica,sans-Serif" font-size="10.00">nc_positions</text>
<text text-anchor="middle" x="210" y="-742" font-family="Helvetica,sans-Serif" font-size="10.00">nc_time</text>
<text text-anchor="middle" x="210" y="-731" font-family="Helvetica,sans-Serif" font-size="10.00">it_id</text>
<text text-anchor="middle" x="210" y="-720" font-family="Helvetica,sans-Serif" font-size="10.00">it</text>
<text text-anchor="middle" x="210" y="-709" font-family="Helvetica,sans-Serif" font-size="10.00">nc_index_time</text>
<text text-anchor="middle" x="210" y="-698" font-family="Helvetica,sans-Serif" font-size="10.00">nc_ids</text>
</g>
<!-- Node5&#45;&gt;Node7 -->
<g id="edge9" class="edge">
<title>Node5&#45;&gt;Node7</title>
<path fill="none" stroke="#9a32cd" stroke-dasharray="5,2" d="M106.9,-331.86C153.62,-354.15 240.42,-396.82 249,-410 277.7,-454.07 236.4,-603.22 267,-646 271.49,-652.28 277.98,-656.93 284.95,-660.37"/>
<polygon fill="#9a32cd" stroke="#9a32cd" points="108.39,-328.69 97.86,-327.56 105.38,-335.01 108.39,-328.69"/>
<text text-anchor="middle" x="210" y="-523" font-family="Helvetica,sans-Serif" font-size="10.00"> pe_end</text>
<text text-anchor="middle" x="210" y="-512" font-family="Helvetica,sans-Serif" font-size="10.00">pe_n</text>
<text text-anchor="middle" x="210" y="-501" font-family="Helvetica,sans-Serif" font-size="10.00">pe_se</text>
<text text-anchor="middle" x="210" y="-490" font-family="Helvetica,sans-Serif" font-size="10.00">pe_sw</text>
<text text-anchor="middle" x="210" y="-479" font-family="Helvetica,sans-Serif" font-size="10.00">pe_s</text>
<text text-anchor="middle" x="210" y="-468" font-family="Helvetica,sans-Serif" font-size="10.00">pe_beg</text>
<text text-anchor="middle" x="210" y="-457" font-family="Helvetica,sans-Serif" font-size="10.00">pe_ne</text>
<text text-anchor="middle" x="210" y="-446" font-family="Helvetica,sans-Serif" font-size="10.00">pe_e</text>
<text text-anchor="middle" x="210" y="-435" font-family="Helvetica,sans-Serif" font-size="10.00">pe_nw</text>
<text text-anchor="middle" x="210" y="-424" font-family="Helvetica,sans-Serif" font-size="10.00">pe_w</text>
<text text-anchor="middle" x="210" y="-413" font-family="Helvetica,sans-Serif" font-size="10.00">...</text>
</g>
<!-- Node5&#45;&gt;Node8 -->
<g id="edge13" class="edge">
<title>Node5&#45;&gt;Node8</title>
<path fill="none" stroke="#9a32cd" stroke-dasharray="5,2" d="M95.85,-301.95C113.66,-287.51 142.16,-267.34 171,-259 204.87,-249.21 244.75,-251.26 275.16,-255.47"/>
<polygon fill="#9a32cd" stroke="#9a32cd" points="93.44,-299.4 88.01,-308.49 97.93,-304.77 93.44,-299.4"/>
<text text-anchor="middle" x="210" y="-262" font-family="Helvetica,sans-Serif" font-size="10.00"> ids</text>
</g>
<!-- Node9 -->
<g id="node9" class="node">
<title>Node9</title>
<g id="a_node9"><a xlink:href="group__drifters__core__mod.html#structdrifters__core__mod_1_1drifters__core__type" target="_top" xlink:title="Core data needed for drifters. Be sure to update drifters_core_new, drifters_core_del and drifters_co...">
<polygon fill="white" stroke="black" points="272,-140.5 272,-159.5 376,-159.5 376,-140.5 272,-140.5"/>
<text text-anchor="middle" x="324" y="-147.5" font-family="Helvetica,sans-Serif" font-size="10.00">drifters_core_type</text>
</a>
</g>
</g>
<!-- Node5&#45;&gt;Node9 -->
<g id="edge18" class="edge">
<title>Node5&#45;&gt;Node9</title>
<path fill="none" stroke="#9a32cd" stroke-dasharray="5,2" d="M78.33,-298.07C81.5,-250.68 96.85,-131.46 171,-81 199.66,-61.5 216.75,-68.3 249,-81 279.56,-93.04 304.96,-124.31 316.43,-140.29"/>
<polygon fill="#9a32cd" stroke="#9a32cd" points="74.82,-298.07 77.76,-308.25 81.81,-298.46 74.82,-298.07"/>
<text text-anchor="middle" x="210" y="-117" font-family="Helvetica,sans-Serif" font-size="10.00"> npdim</text>
<text text-anchor="middle" x="210" y="-106" font-family="Helvetica,sans-Serif" font-size="10.00">ids</text>
<text text-anchor="middle" x="210" y="-95" font-family="Helvetica,sans-Serif" font-size="10.00">np</text>
<text text-anchor="middle" x="210" y="-84" font-family="Helvetica,sans-Serif" font-size="10.00">nd</text>
</g>
<!-- Node6 -->
<g id="node6" class="node">
<title>Node6</title>
<g id="a_node6"><a xlink:title=" ">
<polygon fill="white" stroke="#bfbfbf" points="59,-511.5 59,-530.5 94,-530.5 94,-511.5 59,-511.5"/>
<text text-anchor="middle" x="76.5" y="-518.5" font-family="Helvetica,sans-Serif" font-size="10.00">real</text>
</a>
</g>
</g>
<!-- Node6&#45;&gt;Node1 -->
<g id="edge20" class="edge">
<title>Node6&#45;&gt;Node1</title>
<path fill="none" stroke="#9a32cd" stroke-dasharray="5,2" d="M104.36,-521.03C138.41,-520.57 198.72,-518.06 249,-507 333.3,-488.46 428.04,-447.3 468.7,-428.59"/>
<polygon fill="#9a32cd" stroke="#9a32cd" points="104.25,-517.54 94.28,-521.12 104.31,-524.53 104.25,-517.54"/>
<text text-anchor="middle" x="324" y="-615" font-family="Helvetica,sans-Serif" font-size="10.00"> temp_pos</text>
<text text-anchor="middle" x="324" y="-604" font-family="Helvetica,sans-Serif" font-size="10.00">fields</text>
<text text-anchor="middle" x="324" y="-593" font-family="Helvetica,sans-Serif" font-size="10.00">rk4_k1</text>
<text text-anchor="middle" x="324" y="-582" font-family="Helvetica,sans-Serif" font-size="10.00">zu</text>
<text text-anchor="middle" x="324" y="-571" font-family="Helvetica,sans-Serif" font-size="10.00">rk4_k2</text>
<text text-anchor="middle" x="324" y="-560" font-family="Helvetica,sans-Serif" font-size="10.00">zv</text>
<text text-anchor="middle" x="324" y="-549" font-family="Helvetica,sans-Serif" font-size="10.00">yu</text>
<text text-anchor="middle" x="324" y="-538" font-family="Helvetica,sans-Serif" font-size="10.00">rk4_k3</text>
<text text-anchor="middle" x="324" y="-527" font-family="Helvetica,sans-Serif" font-size="10.00">zw</text>
<text text-anchor="middle" x="324" y="-516" font-family="Helvetica,sans-Serif" font-size="10.00">yv</text>
<text text-anchor="middle" x="324" y="-505" font-family="Helvetica,sans-Serif" font-size="10.00">...</text>
</g>
<!-- Node6&#45;&gt;Node4 -->
<g id="edge6" class="edge">
<title>Node6&#45;&gt;Node4</title>
<path fill="none" stroke="#9a32cd" stroke-dasharray="5,2" d="M77.39,-540.52C78.28,-591.47 88.56,-728.6 171,-787 211.58,-815.75 273.98,-792.36 304.67,-777.66"/>
<polygon fill="#9a32cd" stroke="#9a32cd" points="80.89,-540.48 77.32,-530.51 73.89,-540.53 80.89,-540.48"/>
<text text-anchor="middle" x="210" y="-803" font-family="Helvetica,sans-Serif" font-size="10.00"> time</text>
</g>
<!-- Node6&#45;&gt;Node7 -->
<g id="edge10" class="edge">
<title>Node6&#45;&gt;Node7</title>
<path fill="none" stroke="#9a32cd" stroke-dasharray="5,2" d="M104.28,-524.65C149.91,-531.11 238.84,-544.84 249,-555 278.15,-584.16 241.06,-613.96 267,-646 272.13,-652.33 279.23,-657.02 286.67,-660.49"/>
<polygon fill="#9a32cd" stroke="#9a32cd" points="104.59,-521.16 94.2,-523.24 103.62,-528.09 104.59,-521.16"/>
<text text-anchor="middle" x="210" y="-668" font-family="Helvetica,sans-Serif" font-size="10.00"> ydmax</text>
<text text-anchor="middle" x="210" y="-657" font-family="Helvetica,sans-Serif" font-size="10.00">ycmin</text>
<text text-anchor="middle" x="210" y="-646" font-family="Helvetica,sans-Serif" font-size="10.00">xcmax</text>
<text text-anchor="middle" x="210" y="-635" font-family="Helvetica,sans-Serif" font-size="10.00">ycmax</text>
<text text-anchor="middle" x="210" y="-624" font-family="Helvetica,sans-Serif" font-size="10.00">xgmin</text>
<text text-anchor="middle" x="210" y="-613" font-family="Helvetica,sans-Serif" font-size="10.00">ygmin</text>
<text text-anchor="middle" x="210" y="-602" font-family="Helvetica,sans-Serif" font-size="10.00">xgmax</text>
<text text-anchor="middle" x="210" y="-591" font-family="Helvetica,sans-Serif" font-size="10.00">ygmax</text>
<text text-anchor="middle" x="210" y="-580" font-family="Helvetica,sans-Serif" font-size="10.00">xdmin</text>
<text text-anchor="middle" x="210" y="-569" font-family="Helvetica,sans-Serif" font-size="10.00">ydmin</text>
<text text-anchor="middle" x="210" y="-558" font-family="Helvetica,sans-Serif" font-size="10.00">...</text>
</g>
<!-- Node6&#45;&gt;Node8 -->
<g id="edge14" class="edge">
<title>Node6&#45;&gt;Node8</title>
<path fill="none" stroke="#9a32cd" stroke-dasharray="5,2" d="M84.14,-501.89C96.64,-468.15 126.48,-397.33 171,-352 199.04,-323.45 214.59,-327.44 249,-307 257.06,-302.21 258.9,-300.72 267,-296 279.68,-288.62 294.17,-280.61 305.24,-274.58"/>
<polygon fill="#9a32cd" stroke="#9a32cd" points="80.79,-500.86 80.69,-511.46 87.37,-503.23 80.79,-500.86"/>
<text text-anchor="middle" x="210" y="-355" font-family="Helvetica,sans-Serif" font-size="10.00"> positions</text>
</g>
<!-- Node6&#45;&gt;Node9 -->
<g id="edge17" class="edge">
<title>Node6&#45;&gt;Node9</title>
<path fill="none" stroke="#9a32cd" stroke-dasharray="5,2" d="M85.36,-502C99.15,-468.64 128.55,-397.35 153,-337 161.09,-317.04 154.99,-306.41 171,-292 197.78,-267.91 220.25,-291.7 249,-270 259.21,-262.3 302.07,-187.19 317.47,-159.87"/>
<polygon fill="#9a32cd" stroke="#9a32cd" points="82.05,-500.86 81.46,-511.43 88.52,-503.53 82.05,-500.86"/>
<text text-anchor="middle" x="210" y="-295" font-family="Helvetica,sans-Serif" font-size="10.00"> positions</text>
</g>
<!-- Node7&#45;&gt;Node1 -->
<g id="edge7" class="edge">
<title>Node7&#45;&gt;Node1</title>
<path fill="none" stroke="#9a32cd" stroke-dasharray="5,2" d="M367.31,-655.91C372.28,-653.13 377,-649.85 381,-646 449.27,-580.36 479.4,-462.9 487,-428.63"/>
<polygon fill="#9a32cd" stroke="#9a32cd" points="365.62,-652.84 358.2,-660.4 368.71,-659.12 365.62,-652.84"/>
<text text-anchor="middle" x="416" y="-629" font-family="Helvetica,sans-Serif" font-size="10.00"> comm</text>
</g>
<!-- Node8&#45;&gt;Node1 -->
<g id="edge11" class="edge">
<title>Node8&#45;&gt;Node1</title>
<path fill="none" stroke="#9a32cd" stroke-dasharray="5,2" d="M387.98,-271.44C404.04,-275.58 420.34,-282.27 433,-293 470.25,-324.58 483.69,-385.84 487.62,-409.42"/>
<polygon fill="#9a32cd" stroke="#9a32cd" points="388.56,-267.98 378.03,-269.17 387.01,-274.8 388.56,-267.98"/>
<text text-anchor="middle" x="416" y="-296" font-family="Helvetica,sans-Serif" font-size="10.00"> input</text>
</g>
<!-- Node9&#45;&gt;Node1 -->
<g id="edge15" class="edge">
<title>Node9&#45;&gt;Node1</title>
<path fill="none" stroke="#9a32cd" stroke-dasharray="5,2" d="M345.56,-166.1C369.57,-185.88 409.04,-221.57 433,-260 465.05,-311.41 481.88,-383.64 487.15,-409.4"/>
<polygon fill="#9a32cd" stroke="#9a32cd" points="347.45,-163.13 337.47,-159.56 343.04,-168.57 347.45,-163.13"/>
<text text-anchor="middle" x="416" y="-263" font-family="Helvetica,sans-Serif" font-size="10.00"> core</text>
</g>
<!-- Node10 -->
<g id="node10" class="node">
<title>Node10</title>
<g id="a_node10"><a xlink:title=" ">
<polygon fill="white" stroke="#bfbfbf" points="15,-38.5 15,-57.5 138,-57.5 138,-38.5 15,-38.5"/>
<text text-anchor="middle" x="76.5" y="-45.5" font-family="Helvetica,sans-Serif" font-size="10.00">integer(kind=i8_kind)</text>
</a>
</g>
</g>
<!-- Node10&#45;&gt;Node9 -->
<g id="edge16" class="edge">
<title>Node10&#45;&gt;Node9</title>
<path fill="none" stroke="#9a32cd" stroke-dasharray="5,2" d="M124.47,-36.51C160.55,-30.24 210.54,-27.27 249,-47 288.18,-67.1 311.31,-118.66 319.55,-140.26"/>
<polygon fill="#9a32cd" stroke="#9a32cd" points="123.4,-33.15 114.22,-38.44 124.7,-40.03 123.4,-33.15"/>
<text text-anchor="middle" x="210" y="-50" font-family="Helvetica,sans-Serif" font-size="10.00"> it</text>
</g>
</g>
</svg>
