<?xml version="1.0" encoding="UTF-8" standalone="no"?>
<!DOCTYPE svg PUBLIC "-//W3C//DTD SVG 1.1//EN"
 "http://www.w3.org/Graphics/SVG/1.1/DTD/svg11.dtd">
<!-- Generated by graphviz version 2.43.0 (0)
 -->
<!-- Title: mpp_pset_type Pages: 1 -->
<svg width="479pt" height="205pt"
 viewBox="0.00 0.00 478.50 205.00" xmlns="http://www.w3.org/2000/svg" xmlns:xlink="http://www.w3.org/1999/xlink">
<g id="graph0" class="graph" transform="scale(1 1) rotate(0) translate(4 201)">
<title>mpp_pset_type</title>
<polygon fill="white" stroke="transparent" points="-4,4 -4,-201 474.5,-201 474.5,4 -4,4"/>
<!-- Node1 -->
<g id="node1" class="node">
<title>Node1</title>
<g id="a_node1"><a xlink:title=" ">
<polygon fill="#bfbfbf" stroke="black" points="210.5,-0.5 210.5,-19.5 302.5,-19.5 302.5,-0.5 210.5,-0.5"/>
<text text-anchor="middle" x="256.5" y="-7.5" font-family="Helvetica,sans-Serif" font-size="10.00">mpp_pset_type</text>
</a>
</g>
</g>
<!-- Node2 -->
<g id="node2" class="node">
<title>Node2</title>
<g id="a_node2"><a xlink:title=" ">
<polygon fill="white" stroke="#bfbfbf" points="0,-177.5 0,-196.5 49,-196.5 49,-177.5 0,-177.5"/>
<text text-anchor="middle" x="24.5" y="-184.5" font-family="Helvetica,sans-Serif" font-size="10.00">logical</text>
</a>
</g>
</g>
<!-- Node2&#45;&gt;Node1 -->
<g id="edge1" class="edge">
<title>Node2&#45;&gt;Node1</title>
<path fill="none" stroke="#9a32cd" stroke-dasharray="5,2" d="M25.9,-167.05C29.35,-135.02 41.21,-70.46 81.5,-38 100.83,-22.43 165.42,-15.76 210.47,-12.96"/>
<polygon fill="#9a32cd" stroke="#9a32cd" points="22.39,-166.99 24.97,-177.27 29.36,-167.63 22.39,-166.99"/>
<text text-anchor="middle" x="107.5" y="-101.5" font-family="Helvetica,sans-Serif" font-size="10.00"> initialized</text>
<text text-anchor="middle" x="107.5" y="-90.5" font-family="Helvetica,sans-Serif" font-size="10.00">root</text>
</g>
<!-- Node3 -->
<g id="node3" class="node">
<title>Node3</title>
<g id="a_node3"><a xlink:title=" ">
<polygon fill="white" stroke="#bfbfbf" points="67,-177.5 67,-196.5 186,-196.5 186,-177.5 67,-177.5"/>
<text text-anchor="middle" x="126.5" y="-184.5" font-family="Helvetica,sans-Serif" font-size="10.00">integer(pointer_kind)</text>
</a>
</g>
</g>
<!-- Node3&#45;&gt;Node1 -->
<g id="edge2" class="edge">
<title>Node3&#45;&gt;Node1</title>
<path fill="none" stroke="#9a32cd" stroke-dasharray="5,2" d="M133.41,-167.75C145.48,-137.73 172.87,-77.37 211.5,-38 218.9,-30.46 228.83,-24.2 237.49,-19.62"/>
<polygon fill="#9a32cd" stroke="#9a32cd" points="130.04,-166.75 129.66,-177.34 136.56,-169.3 130.04,-166.75"/>
<text text-anchor="middle" x="232" y="-96" font-family="Helvetica,sans-Serif" font-size="10.00"> p_stack</text>
</g>
<!-- Node4 -->
<g id="node4" class="node">
<title>Node4</title>
<g id="a_node4"><a xlink:title=" ">
<polygon fill="white" stroke="#bfbfbf" points="204,-177.5 204,-196.5 309,-196.5 309,-177.5 204,-177.5"/>
<text text-anchor="middle" x="256.5" y="-184.5" font-family="Helvetica,sans-Serif" font-size="10.00">character(len=32)</text>
</a>
</g>
</g>
<!-- Node4&#45;&gt;Node1 -->
<g id="edge3" class="edge">
<title>Node4&#45;&gt;Node1</title>
<path fill="none" stroke="#9a32cd" stroke-dasharray="5,2" d="M256.5,-166.95C256.5,-129.3 256.5,-46.65 256.5,-19.69"/>
<polygon fill="#9a32cd" stroke="#9a32cd" points="253,-167.08 256.5,-177.08 260,-167.08 253,-167.08"/>
<text text-anchor="middle" x="272" y="-96" font-family="Helvetica,sans-Serif" font-size="10.00"> name</text>
</g>
<!-- Node5 -->
<g id="node5" class="node">
<title>Node5</title>
<g id="a_node5"><a xlink:title=" ">
<polygon fill="white" stroke="#bfbfbf" points="327,-177.5 327,-196.5 362,-196.5 362,-177.5 327,-177.5"/>
<text text-anchor="middle" x="344.5" y="-184.5" font-family="Helvetica,sans-Serif" font-size="10.00">real</text>
</a>
</g>
</g>
<!-- Node5&#45;&gt;Node1 -->
<g id="edge4" class="edge">
<title>Node5&#45;&gt;Node1</title>
<path fill="none" stroke="#9a32cd" stroke-dasharray="5,2" d="M341.33,-167.31C335.56,-137.58 321.11,-78.71 291.5,-38 286.17,-30.68 278.32,-24.37 271.4,-19.69"/>
<polygon fill="#9a32cd" stroke="#9a32cd" points="337.89,-167.97 343.13,-177.18 344.78,-166.72 337.89,-167.97"/>
<text text-anchor="middle" x="353.5" y="-96" font-family="Helvetica,sans-Serif" font-size="10.00"> stack</text>
</g>
<!-- Node6 -->
<g id="node6" class="node">
<title>Node6</title>
<g id="a_node6"><a xlink:title=" ">
<polygon fill="white" stroke="#bfbfbf" points="380,-177.5 380,-196.5 431,-196.5 431,-177.5 380,-177.5"/>
<text text-anchor="middle" x="405.5" y="-184.5" font-family="Helvetica,sans-Serif" font-size="10.00">integer</text>
</a>
</g>
</g>
<!-- Node6&#45;&gt;Node1 -->
<g id="edge5" class="edge">
<title>Node6&#45;&gt;Node1</title>
<path fill="none" stroke="#9a32cd" stroke-dasharray="5,2" d="M407.15,-167.18C408.79,-135.84 407.15,-72.98 372.5,-38 362.6,-28.01 330.48,-21.02 302.55,-16.65"/>
<polygon fill="#9a32cd" stroke="#9a32cd" points="403.66,-166.97 406.46,-177.19 410.64,-167.45 403.66,-166.97"/>
<text text-anchor="middle" x="439" y="-151" font-family="Helvetica,sans-Serif" font-size="10.00"> commid</text>
<text text-anchor="middle" x="439" y="-140" font-family="Helvetica,sans-Serif" font-size="10.00">hiwm</text>
<text text-anchor="middle" x="439" y="-129" font-family="Helvetica,sans-Serif" font-size="10.00">lstack</text>
<text text-anchor="middle" x="439" y="-118" font-family="Helvetica,sans-Serif" font-size="10.00">maxstack</text>
<text text-anchor="middle" x="439" y="-107" font-family="Helvetica,sans-Serif" font-size="10.00">next_in_pset</text>
<text text-anchor="middle" x="439" y="-96" font-family="Helvetica,sans-Serif" font-size="10.00">npset</text>
<text text-anchor="middle" x="439" y="-85" font-family="Helvetica,sans-Serif" font-size="10.00">pelist</text>
<text text-anchor="middle" x="439" y="-74" font-family="Helvetica,sans-Serif" font-size="10.00">pos</text>
<text text-anchor="middle" x="439" y="-63" font-family="Helvetica,sans-Serif" font-size="10.00">prev_in_pset</text>
<text text-anchor="middle" x="439" y="-52" font-family="Helvetica,sans-Serif" font-size="10.00">pset</text>
<text text-anchor="middle" x="439" y="-41" font-family="Helvetica,sans-Serif" font-size="10.00">...</text>
</g>
</g>
</svg>
