<?xml version="1.0" encoding="UTF-8" standalone="no"?>
<!DOCTYPE svg PUBLIC "-//W3C//DTD SVG 1.1//EN"
 "http://www.w3.org/Graphics/SVG/1.1/DTD/svg11.dtd">
<!-- Generated by graphviz version 2.43.0 (0)
 -->
<!-- Title: axistype Pages: 1 -->
<!--zoomable 591 -->
<svg id="main" version="1.1" xmlns="http://www.w3.org/2000/svg" xmlns:xlink="http://www.w3.org/1999/xlink" xml:space="preserve" onload="init(evt)">
<style type="text/css"><![CDATA[
.edge:hover path { stroke: red; }
.edge:hover polygon { stroke: red; fill: red; }
]]></style>
<script type="text/javascript"><![CDATA[
var edges = document.getElementsByTagName('g');
if (edges && edges.length) {
  for (var i=0;i<edges.length;i++) {
    if (edges[i].id.substr(0,4)=='edge') {
      edges[i].setAttribute('class','edge');
    }
  }
}
]]></script>
        <defs>
                <circle id="rim" cx="0" cy="0" r="7"/>
                <circle id="rim2" cx="0" cy="0" r="3.5"/>
                <g id="zoomPlus">
                        <use xlink:href="#rim" fill="#404040">
                                <set attributeName="fill" to="#808080" begin="zoomplus.mouseover" end="zoomplus.mouseout"/>
                        </use>
                        <path d="M-4,0h8M0,-4v8" fill="none" stroke="white" stroke-width="1.5" pointer-events="none"/>
                </g>
                <g id="zoomMin">
                        <use xlink:href="#rim" fill="#404040">
                                <set attributeName="fill" to="#808080" begin="zoomminus.mouseover" end="zoomminus.mouseout"/>
                        </use>
                        <path d="M-4,0h8" fill="none" stroke="white" stroke-width="1.5" pointer-events="none"/>
                </g>
                <g id="dirArrow">
                        <path fill="none" stroke="white" stroke-width="1.5" d="M0,-3.0v7 M-2.5,-0.5L0,-3.0L2.5,-0.5"/>
                </g>
               <g id="resetDef">
                       <use xlink:href="#rim2" fill="#404040">
                               <set attributeName="fill" to="#808080" begin="reset.mouseover" end="reset.mouseout"/>
                       </use>
               </g>
        </defs>

<script type="text/javascript">
var viewWidth = 623;
var viewHeight = 591;
var sectionId = 'dynsection-1';
</script>
<script xlink:href="svgpan.js"/>
<svg id="graph" class="graph">
<g id="viewport">
<title>axistype</title>
<polygon fill="white" stroke="transparent" points="-4,4 -4,-587 619,-587 619,4 -4,4"/>
<!-- Node1 -->
<g id="node1" class="node">
<title>Node1</title>
<g id="a_node1"><a xlink:title=" ">
<polygon fill="#bfbfbf" stroke="black" points="556,-156.5 556,-175.5 615,-175.5 615,-156.5 556,-156.5"/>
<text text-anchor="middle" x="585.5" y="-163.5" font-family="Helvetica,sans-Serif" font-size="10.00">axistype</text>
</a>
</g>
</g>
<!-- Node2 -->
<g id="node2" class="node">
<title>Node2</title>
<g id="a_node2"><a xlink:href="group__mpp__domains__mod.html#structmpp__domains__mod_1_1domain1d" target="_top" xlink:title="One dimensional domain used to manage shared data access between pes.">
<polygon fill="white" stroke="black" points="369,-468.5 369,-487.5 434,-487.5 434,-468.5 369,-468.5"/>
<text text-anchor="middle" x="401.5" y="-475.5" font-family="Helvetica,sans-Serif" font-size="10.00">domain1d</text>
</a>
</g>
</g>
<!-- Node2&#45;&gt;Node1 -->
<g id="edge1" class="edge">
<title>Node2&#45;&gt;Node1</title>
<path fill="none" stroke="#9a32cd" stroke-dasharray="5,2" d="M426.16,-462.59C456.75,-441.4 509.46,-400.34 538,-352 573.71,-291.52 582.14,-204.38 584,-175.62"/>
<polygon fill="#9a32cd" stroke="#9a32cd" points="424.1,-459.76 417.79,-468.27 428.03,-465.55 424.1,-459.76"/>
<text text-anchor="middle" x="506.5" y="-426" font-family="Helvetica,sans-Serif" font-size="10.00"> domain</text>
</g>
<!-- Node2&#45;&gt;Node2 -->
<g id="edge3" class="edge">
<title>Node2&#45;&gt;Node2</title>
<path fill="none" stroke="#9a32cd" stroke-dasharray="5,2" d="M383.72,-497.4C384.91,-502.31 390.84,-506 401.5,-506 418.56,-506 423.49,-496.57 416.3,-487.76"/>
<polygon fill="#9a32cd" stroke="#9a32cd" points="387.09,-498.34 386.7,-487.76 380.41,-496.28 387.09,-498.34"/>
<text text-anchor="middle" x="401.5" y="-509" font-family="Helvetica,sans-Serif" font-size="10.00"> list</text>
</g>
<!-- Node3 -->
<g id="node3" class="node">
<title>Node3</title>
<g id="a_node3"><a xlink:title=" ">
<polygon fill="white" stroke="#bfbfbf" points="1,-559.5 1,-578.5 50,-578.5 50,-559.5 1,-559.5"/>
<text text-anchor="middle" x="25.5" y="-566.5" font-family="Helvetica,sans-Serif" font-size="10.00">logical</text>
</a>
</g>
</g>
<!-- Node3&#45;&gt;Node2 -->
<g id="edge2" class="edge">
<title>Node3&#45;&gt;Node2</title>
<path fill="none" stroke="#9a32cd" stroke-dasharray="5,2" d="M60.49,-571.66C107.27,-574.32 193.69,-575.57 264,-556 314.48,-541.95 366.02,-505.1 388.64,-487.55"/>
<polygon fill="#9a32cd" stroke="#9a32cd" points="60.5,-568.16 50.3,-571.03 60.07,-575.14 60.5,-568.16"/>
<text text-anchor="middle" x="199" y="-575" font-family="Helvetica,sans-Serif" font-size="10.00"> cyclic</text>
</g>
<!-- Node4 -->
<g id="node4" class="node">
<title>Node4</title>
<g id="a_node4"><a xlink:href="group__mpp__domains__mod.html#structmpp__domains__mod_1_1domain__axis__spec" target="_top" xlink:title="Used to specify index limits along an axis of a domain.">
<polygon fill="white" stroke="black" points="145.5,-439.5 145.5,-458.5 252.5,-458.5 252.5,-439.5 145.5,-439.5"/>
<text text-anchor="middle" x="199" y="-446.5" font-family="Helvetica,sans-Serif" font-size="10.00">domain_axis_spec</text>
</a>
</g>
</g>
<!-- Node3&#45;&gt;Node4 -->
<g id="edge5" class="edge">
<title>Node3&#45;&gt;Node4</title>
<path fill="none" stroke="#9a32cd" stroke-dasharray="5,2" d="M45.93,-552.73C67.02,-535.37 101.99,-507.47 134,-486 149.03,-475.92 166.92,-465.72 179.96,-458.59"/>
<polygon fill="#9a32cd" stroke="#9a32cd" points="43.52,-550.18 38.05,-559.26 47.98,-555.57 43.52,-550.18"/>
<text text-anchor="middle" x="92.5" y="-536" font-family="Helvetica,sans-Serif" font-size="10.00"> is_global</text>
</g>
<!-- Node4&#45;&gt;Node2 -->
<g id="edge4" class="edge">
<title>Node4&#45;&gt;Node2</title>
<path fill="none" stroke="#9a32cd" stroke-dasharray="5,2" d="M262.78,-445.01C283.68,-444.86 306.99,-446 328,-450 346.82,-453.58 367.07,-461.81 381.37,-468.42"/>
<polygon fill="#9a32cd" stroke="#9a32cd" points="262.67,-441.51 252.73,-445.17 262.79,-448.51 262.67,-441.51"/>
<text text-anchor="middle" x="305" y="-486" font-family="Helvetica,sans-Serif" font-size="10.00"> compute</text>
<text text-anchor="middle" x="305" y="-475" font-family="Helvetica,sans-Serif" font-size="10.00">data</text>
<text text-anchor="middle" x="305" y="-464" font-family="Helvetica,sans-Serif" font-size="10.00">global</text>
<text text-anchor="middle" x="305" y="-453" font-family="Helvetica,sans-Serif" font-size="10.00">memory</text>
</g>
<!-- Node5 -->
<g id="node5" class="node">
<title>Node5</title>
<g id="a_node5"><a xlink:title=" ">
<polygon fill="white" stroke="#bfbfbf" points="0,-363.5 0,-382.5 51,-382.5 51,-363.5 0,-363.5"/>
<text text-anchor="middle" x="25.5" y="-370.5" font-family="Helvetica,sans-Serif" font-size="10.00">integer</text>
</a>
</g>
</g>
<!-- Node5&#45;&gt;Node1 -->
<g id="edge17" class="edge">
<title>Node5&#45;&gt;Node1</title>
<path fill="none" stroke="#9a32cd" stroke-dasharray="5,2" d="M61.38,-368.8C164.13,-355.81 463.18,-313.54 538,-253 563.56,-232.32 576.94,-193.72 582.03,-175.72"/>
<polygon fill="#9a32cd" stroke="#9a32cd" points="60.71,-365.35 51.22,-370.06 61.58,-372.3 60.71,-365.35"/>
<text text-anchor="middle" x="305" y="-413" font-family="Helvetica,sans-Serif" font-size="10.00"> did</text>
<text text-anchor="middle" x="305" y="-402" font-family="Helvetica,sans-Serif" font-size="10.00">id</text>
<text text-anchor="middle" x="305" y="-391" font-family="Helvetica,sans-Serif" font-size="10.00">idata</text>
<text text-anchor="middle" x="305" y="-380" font-family="Helvetica,sans-Serif" font-size="10.00">len</text>
<text text-anchor="middle" x="305" y="-369" font-family="Helvetica,sans-Serif" font-size="10.00">natt</text>
<text text-anchor="middle" x="305" y="-358" font-family="Helvetica,sans-Serif" font-size="10.00">sense</text>
<text text-anchor="middle" x="305" y="-347" font-family="Helvetica,sans-Serif" font-size="10.00">shift</text>
<text text-anchor="middle" x="305" y="-336" font-family="Helvetica,sans-Serif" font-size="10.00">type</text>
</g>
<!-- Node5&#45;&gt;Node2 -->
<g id="edge7" class="edge">
<title>Node5&#45;&gt;Node2</title>
<path fill="none" stroke="#9a32cd" stroke-dasharray="5,2" d="M30.63,-392.46C35.94,-412.46 47.2,-442.86 69,-459 159.57,-526.06 305.14,-501.78 368.88,-486.55"/>
<polygon fill="#9a32cd" stroke="#9a32cd" points="34,-391.5 28.26,-382.59 27.19,-393.13 34,-391.5"/>
<text text-anchor="middle" x="199" y="-539" font-family="Helvetica,sans-Serif" font-size="10.00"> goffset</text>
<text text-anchor="middle" x="199" y="-528" font-family="Helvetica,sans-Serif" font-size="10.00">loffset</text>
<text text-anchor="middle" x="199" y="-517" font-family="Helvetica,sans-Serif" font-size="10.00">pe</text>
<text text-anchor="middle" x="199" y="-506" font-family="Helvetica,sans-Serif" font-size="10.00">pos</text>
</g>
<!-- Node5&#45;&gt;Node4 -->
<g id="edge6" class="edge">
<title>Node5&#45;&gt;Node4</title>
<path fill="none" stroke="#9a32cd" stroke-dasharray="5,2" d="M57.78,-386.86C92.18,-402.1 146.53,-426.19 176.46,-439.45"/>
<polygon fill="#9a32cd" stroke="#9a32cd" points="58.78,-383.48 48.22,-382.63 55.95,-389.88 58.78,-383.48"/>
<text text-anchor="middle" x="92.5" y="-447" font-family="Helvetica,sans-Serif" font-size="10.00"> begin</text>
<text text-anchor="middle" x="92.5" y="-436" font-family="Helvetica,sans-Serif" font-size="10.00">end</text>
<text text-anchor="middle" x="92.5" y="-425" font-family="Helvetica,sans-Serif" font-size="10.00">max_size</text>
<text text-anchor="middle" x="92.5" y="-414" font-family="Helvetica,sans-Serif" font-size="10.00">size</text>
</g>
<!-- Node7 -->
<g id="node7" class="node">
<title>Node7</title>
<g id="a_node7"><a xlink:href="group__mpp__io__mod.html#structmpp__io__mod_1_1atttype" target="_top" xlink:title=" ">
<polygon fill="white" stroke="black" points="375.5,-241.5 375.5,-260.5 427.5,-260.5 427.5,-241.5 375.5,-241.5"/>
<text text-anchor="middle" x="401.5" y="-248.5" font-family="Helvetica,sans-Serif" font-size="10.00">atttype</text>
</a>
</g>
</g>
<!-- Node5&#45;&gt;Node7 -->
<g id="edge12" class="edge">
<title>Node5&#45;&gt;Node7</title>
<path fill="none" stroke="#9a32cd" stroke-dasharray="5,2" d="M41.49,-355.83C49.09,-347.98 58.84,-339.1 69,-333 121.86,-301.26 307.66,-266.96 375.48,-255.22"/>
<polygon fill="#9a32cd" stroke="#9a32cd" points="38.91,-353.47 34.69,-363.18 44.05,-358.22 38.91,-353.47"/>
<text text-anchor="middle" x="199" y="-320" font-family="Helvetica,sans-Serif" font-size="10.00"> len</text>
<text text-anchor="middle" x="199" y="-309" font-family="Helvetica,sans-Serif" font-size="10.00">type</text>
</g>
<!-- Node6 -->
<g id="node6" class="node">
<title>Node6</title>
<g id="a_node6"><a xlink:title=" ">
<polygon fill="white" stroke="#bfbfbf" points="346,-76.5 346,-95.5 457,-95.5 457,-76.5 346,-76.5"/>
<text text-anchor="middle" x="401.5" y="-83.5" font-family="Helvetica,sans-Serif" font-size="10.00">character(len=256)</text>
</a>
</g>
</g>
<!-- Node6&#45;&gt;Node1 -->
<g id="edge8" class="edge">
<title>Node6&#45;&gt;Node1</title>
<path fill="none" stroke="#9a32cd" stroke-dasharray="5,2" d="M467.52,-79.31C491.1,-79.74 517.07,-83.76 538,-96 561.55,-109.77 575.51,-140.77 581.32,-156.49"/>
<polygon fill="#9a32cd" stroke="#9a32cd" points="467.22,-75.81 457.23,-79.34 467.24,-82.81 467.22,-75.81"/>
<text text-anchor="middle" x="506.5" y="-110" font-family="Helvetica,sans-Serif" font-size="10.00"> compressed</text>
<text text-anchor="middle" x="506.5" y="-99" font-family="Helvetica,sans-Serif" font-size="10.00">longname</text>
</g>
<!-- Node7&#45;&gt;Node1 -->
<g id="edge9" class="edge">
<title>Node7&#45;&gt;Node1</title>
<path fill="none" stroke="#9a32cd" stroke-dasharray="5,2" d="M437.53,-247.07C466.17,-242.64 506.87,-233.48 538,-215 554.94,-204.94 569.67,-186.98 577.8,-175.82"/>
<polygon fill="#9a32cd" stroke="#9a32cd" points="436.97,-243.61 427.57,-248.49 437.96,-250.54 436.97,-243.61"/>
<text text-anchor="middle" x="506.5" y="-241" font-family="Helvetica,sans-Serif" font-size="10.00"> att</text>
</g>
<!-- Node8 -->
<g id="node8" class="node">
<title>Node8</title>
<g id="a_node8"><a xlink:title=" ">
<polygon fill="white" stroke="#bfbfbf" points="143.5,-138.5 143.5,-157.5 254.5,-157.5 254.5,-138.5 143.5,-138.5"/>
<text text-anchor="middle" x="199" y="-145.5" font-family="Helvetica,sans-Serif" font-size="10.00">character(len=128)</text>
</a>
</g>
</g>
<!-- Node8&#45;&gt;Node1 -->
<g id="edge15" class="edge">
<title>Node8&#45;&gt;Node1</title>
<path fill="none" stroke="#9a32cd" stroke-dasharray="5,2" d="M264.83,-144.44C316.86,-142.31 391.73,-140.91 457,-146 491.18,-148.66 530.04,-155.29 555.79,-160.19"/>
<polygon fill="#9a32cd" stroke="#9a32cd" points="264.58,-140.94 254.74,-144.87 264.88,-147.94 264.58,-140.94"/>
<text text-anchor="middle" x="401.5" y="-171" font-family="Helvetica,sans-Serif" font-size="10.00"> name</text>
<text text-anchor="middle" x="401.5" y="-160" font-family="Helvetica,sans-Serif" font-size="10.00">name_bounds</text>
<text text-anchor="middle" x="401.5" y="-149" font-family="Helvetica,sans-Serif" font-size="10.00">units</text>
</g>
<!-- Node8&#45;&gt;Node7 -->
<g id="edge10" class="edge">
<title>Node8&#45;&gt;Node7</title>
<path fill="none" stroke="#9a32cd" stroke-dasharray="5,2" d="M240.19,-161.04C266.71,-170.84 301.35,-186 328,-206 337.83,-213.38 336.13,-219.67 346,-227 354.8,-233.53 365.66,-238.77 375.36,-242.66"/>
<polygon fill="#9a32cd" stroke="#9a32cd" points="241.05,-157.63 230.46,-157.54 238.69,-164.22 241.05,-157.63"/>
<text text-anchor="middle" x="305" y="-209" font-family="Helvetica,sans-Serif" font-size="10.00"> name</text>
</g>
<!-- Node9 -->
<g id="node9" class="node">
<title>Node9</title>
<g id="a_node9"><a xlink:title=" ">
<polygon fill="white" stroke="#bfbfbf" points="181.5,-191.5 181.5,-210.5 216.5,-210.5 216.5,-191.5 181.5,-191.5"/>
<text text-anchor="middle" x="199" y="-198.5" font-family="Helvetica,sans-Serif" font-size="10.00">real</text>
</a>
</g>
</g>
<!-- Node9&#45;&gt;Node1 -->
<g id="edge16" class="edge">
<title>Node9&#45;&gt;Node1</title>
<path fill="none" stroke="#9a32cd" stroke-dasharray="5,2" d="M226.73,-198.86C273.45,-195.08 373,-186.88 457,-179 491,-175.81 530.07,-171.77 555.9,-169.05"/>
<polygon fill="#9a32cd" stroke="#9a32cd" points="226.23,-195.38 216.55,-199.68 226.79,-202.36 226.23,-195.38"/>
<text text-anchor="middle" x="401.5" y="-202" font-family="Helvetica,sans-Serif" font-size="10.00"> data</text>
<text text-anchor="middle" x="401.5" y="-191" font-family="Helvetica,sans-Serif" font-size="10.00">data_bounds</text>
</g>
<!-- Node9&#45;&gt;Node7 -->
<g id="edge11" class="edge">
<title>Node9&#45;&gt;Node7</title>
<path fill="none" stroke="#9a32cd" stroke-dasharray="5,2" d="M226.8,-207.68C265.72,-217.39 337.34,-235.25 375.32,-244.72"/>
<polygon fill="#9a32cd" stroke="#9a32cd" points="227.3,-204.2 216.75,-205.18 225.61,-210.99 227.3,-204.2"/>
<text text-anchor="middle" x="305" y="-234" font-family="Helvetica,sans-Serif" font-size="10.00"> fatt</text>
</g>
<!-- Node10 -->
<g id="node10" class="node">
<title>Node10</title>
<g id="a_node10"><a xlink:title=" ">
<polygon fill="white" stroke="#bfbfbf" points="134,-230 134,-260 264,-260 264,-230 134,-230"/>
<text text-anchor="start" x="142" y="-248" font-family="Helvetica,sans-Serif" font-size="10.00">character(len=max_att</text>
<text text-anchor="middle" x="199" y="-237" font-family="Helvetica,sans-Serif" font-size="10.00">_length)</text>
</a>
</g>
</g>
<!-- Node10&#45;&gt;Node7 -->
<g id="edge13" class="edge">
<title>Node10&#45;&gt;Node7</title>
<path fill="none" stroke="#9a32cd" stroke-dasharray="5,2" d="M274.63,-247.23C310.13,-248.3 350.22,-249.5 375.42,-250.25"/>
<polygon fill="#9a32cd" stroke="#9a32cd" points="274.37,-243.72 264.27,-246.92 274.16,-250.72 274.37,-243.72"/>
<text text-anchor="middle" x="305" y="-251" font-family="Helvetica,sans-Serif" font-size="10.00"> catt</text>
</g>
<!-- Node11 -->
<g id="node11" class="node">
<title>Node11</title>
<g id="a_node11"><a xlink:title=" ">
<polygon fill="white" stroke="#bfbfbf" points="352,-38.5 352,-57.5 451,-57.5 451,-38.5 352,-38.5"/>
<text text-anchor="middle" x="401.5" y="-45.5" font-family="Helvetica,sans-Serif" font-size="10.00">character(len=8)</text>
</a>
</g>
</g>
<!-- Node11&#45;&gt;Node1 -->
<g id="edge14" class="edge">
<title>Node11&#45;&gt;Node1</title>
<path fill="none" stroke="#9a32cd" stroke-dasharray="5,2" d="M461.26,-42.62C486.99,-43.18 516.21,-48.1 538,-64 569.29,-86.83 580.03,-135.8 583.26,-156.48"/>
<polygon fill="#9a32cd" stroke="#9a32cd" points="461.23,-39.12 451.23,-42.61 461.23,-46.12 461.23,-39.12"/>
<text text-anchor="middle" x="506.5" y="-67" font-family="Helvetica,sans-Serif" font-size="10.00"> cartesian</text>
</g>
<!-- Node12 -->
<g id="node12" class="node">
<title>Node12</title>
<g id="a_node12"><a xlink:title=" ">
<polygon fill="white" stroke="#bfbfbf" points="349,-0.5 349,-19.5 454,-19.5 454,-0.5 349,-0.5"/>
<text text-anchor="middle" x="401.5" y="-7.5" font-family="Helvetica,sans-Serif" font-size="10.00">character(len=24)</text>
</a>
</g>
</g>
<!-- Node12&#45;&gt;Node1 -->
<g id="edge18" class="edge">
<title>Node12&#45;&gt;Node1</title>
<path fill="none" stroke="#9a32cd" stroke-dasharray="5,2" d="M464.58,-4.68C489.84,-5.72 517.79,-11.36 538,-28 578.4,-61.27 583.87,-130.96 584.48,-156.42"/>
<polygon fill="#9a32cd" stroke="#9a32cd" points="464.37,-1.18 454.31,-4.5 464.25,-8.18 464.37,-1.18"/>
<text text-anchor="middle" x="506.5" y="-31" font-family="Helvetica,sans-Serif" font-size="10.00"> calendar</text>
</g>
</g>
</svg>
        <g id="navigator" transform="translate(0 0)" fill="#404254">
                <rect fill="#f2f5e9" fill-opacity="0.5" stroke="#606060" stroke-width=".5" x="0" y="0" width="60" height="60"/>
                <use id="zoomplus" xlink:href="#zoomPlus" x="17" y="9" onmousedown="handleZoom(evt,'in')"/>
                <use id="zoomminus" xlink:href="#zoomMin" x="42" y="9" onmousedown="handleZoom(evt,'out')"/>
                <use id="reset" xlink:href="#resetDef" x="30" y="36" onmousedown="handleReset()"/>
                <g id="arrowUp" xlink:href="#dirArrow" transform="translate(30 24)" onmousedown="handlePan(0,-1)">
                  <use xlink:href="#rim" fill="#404040">
                        <set attributeName="fill" to="#808080" begin="arrowUp.mouseover" end="arrowUp.mouseout"/>
                  </use>
                  <path fill="none" stroke="white" stroke-width="1.5" d="M0,-3.0v7 M-2.5,-0.5L0,-3.0L2.5,-0.5"/>
                </g>
                <g id="arrowRight" xlink:href="#dirArrow" transform="rotate(90) translate(36 -43)" onmousedown="handlePan(1,0)">
                  <use xlink:href="#rim" fill="#404040">
                        <set attributeName="fill" to="#808080" begin="arrowRight.mouseover" end="arrowRight.mouseout"/>
                  </use>
                  <path fill="none" stroke="white" stroke-width="1.5" d="M0,-3.0v7 M-2.5,-0.5L0,-3.0L2.5,-0.5"/>
                </g>
                <g id="arrowDown" xlink:href="#dirArrow" transform="rotate(180) translate(-30 -48)" onmousedown="handlePan(0,1)">
                  <use xlink:href="#rim" fill="#404040">
                        <set attributeName="fill" to="#808080" begin="arrowDown.mouseover" end="arrowDown.mouseout"/>
                  </use>
                  <path fill="none" stroke="white" stroke-width="1.5" d="M0,-3.0v7 M-2.5,-0.5L0,-3.0L2.5,-0.5"/>
                </g>
                <g id="arrowLeft" xlink:href="#dirArrow" transform="rotate(270) translate(-36 17)" onmousedown="handlePan(-1,0)">
                  <use xlink:href="#rim" fill="#404040">
                        <set attributeName="fill" to="#808080" begin="arrowLeft.mouseover" end="arrowLeft.mouseout"/>
                  </use>
                  <path fill="none" stroke="white" stroke-width="1.5" d="M0,-3.0v7 M-2.5,-0.5L0,-3.0L2.5,-0.5"/>
                </g>
        </g>
        <svg viewBox="0 0 15 15" width="100%" height="30px" preserveAspectRatio="xMaxYMin meet">
         <g id="arrow_out" transform="scale(0.3 0.3)">
          <a xlink:href="structmpp__io__mod_1_1axistype__coll__graph_org.svg" target="_base">
           <rect id="button" ry="5" rx="5" y="6" x="6" height="38" width="38"
                fill="#f2f5e9" fill-opacity="0.5" stroke="#606060" stroke-width="1.0"/>
           <path id="arrow"
             d="M 11.500037,31.436501 C 11.940474,20.09759 22.043105,11.32322 32.158766,21.979434 L 37.068811,17.246167 C 37.068811,17.246167 37.088388,32 37.088388,32 L 22.160133,31.978069 C 22.160133,31.978069 26.997745,27.140456 26.997745,27.140456 C 18.528582,18.264221 13.291696,25.230495 11.500037,31.436501 z"
             style="fill:#404040;"/>
          </a>
         </g>
        </svg>
</svg>
