<?xml version="1.0" encoding="UTF-8" standalone="no"?>
<!DOCTYPE svg PUBLIC "-//W3C//DTD SVG 1.1//EN"
 "http://www.w3.org/Graphics/SVG/1.1/DTD/svg11.dtd">
<!-- Generated by graphviz version 2.43.0 (0)
 -->
<!-- Title: drifters_input_type Pages: 1 -->
<svg width="383pt" height="205pt"
 viewBox="0.00 0.00 383.00 205.00" xmlns="http://www.w3.org/2000/svg" xmlns:xlink="http://www.w3.org/1999/xlink">
<g id="graph0" class="graph" transform="scale(1 1) rotate(0) translate(4 201)">
<title>drifters_input_type</title>
<polygon fill="white" stroke="transparent" points="-4,4 -4,-201 379,-201 379,4 -4,4"/>
<!-- Node1 -->
<g id="node1" class="node">
<title>Node1</title>
<g id="a_node1"><a xlink:title="Input data type for drifters.">
<polygon fill="#bfbfbf" stroke="black" points="267,-55.5 267,-74.5 375,-74.5 375,-55.5 267,-55.5"/>
<text text-anchor="middle" x="321" y="-62.5" font-family="Helvetica,sans-Serif" font-size="10.00">drifters_input_type</text>
</a>
</g>
</g>
<!-- Node2 -->
<g id="node2" class="node">
<title>Node2</title>
<g id="a_node2"><a xlink:title=" ">
<polygon fill="white" stroke="#bfbfbf" points="0,-157.5 0,-176.5 153,-176.5 153,-157.5 0,-157.5"/>
<text text-anchor="middle" x="76.5" y="-164.5" font-family="Helvetica,sans-Serif" font-size="10.00">character(len=max_str_len)</text>
</a>
</g>
</g>
<!-- Node2&#45;&gt;Node1 -->
<g id="edge1" class="edge">
<title>Node2&#45;&gt;Node1</title>
<path fill="none" stroke="#9a32cd" stroke-dasharray="5,2" d="M163.08,-165.9C191.7,-162.64 222.93,-155.75 249,-142 279.56,-125.88 303.87,-91.27 314.37,-74.5"/>
<polygon fill="#9a32cd" stroke="#9a32cd" points="162.68,-162.42 153.08,-166.91 163.38,-169.39 162.68,-162.42"/>
<text text-anchor="middle" x="210" y="-189" font-family="Helvetica,sans-Serif" font-size="10.00"> time_units</text>
<text text-anchor="middle" x="210" y="-178" font-family="Helvetica,sans-Serif" font-size="10.00">title</text>
<text text-anchor="middle" x="210" y="-167" font-family="Helvetica,sans-Serif" font-size="10.00">version</text>
</g>
<!-- Node3 -->
<g id="node3" class="node">
<title>Node3</title>
<g id="a_node3"><a xlink:title=" ">
<polygon fill="white" stroke="#bfbfbf" points="12,-76.5 12,-117.5 141,-117.5 141,-76.5 12,-76.5"/>
<text text-anchor="start" x="20" y="-105.5" font-family="Helvetica,sans-Serif" font-size="10.00">character(len=max_str</text>
<text text-anchor="start" x="20" y="-94.5" font-family="Helvetica,sans-Serif" font-size="10.00">_len), dimension(:),</text>
<text text-anchor="middle" x="76.5" y="-83.5" font-family="Helvetica,sans-Serif" font-size="10.00"> allocatable</text>
</a>
</g>
</g>
<!-- Node3&#45;&gt;Node1 -->
<g id="edge2" class="edge">
<title>Node3&#45;&gt;Node1</title>
<path fill="none" stroke="#9a32cd" stroke-dasharray="5,2" d="M151.52,-87.23C188.79,-82.31 233.12,-76.46 266.95,-72"/>
<polygon fill="#9a32cd" stroke="#9a32cd" points="150.67,-83.81 141.21,-88.59 151.59,-90.75 150.67,-83.81"/>
<text text-anchor="middle" x="210" y="-130" font-family="Helvetica,sans-Serif" font-size="10.00"> field_names</text>
<text text-anchor="middle" x="210" y="-119" font-family="Helvetica,sans-Serif" font-size="10.00">field_units</text>
<text text-anchor="middle" x="210" y="-108" font-family="Helvetica,sans-Serif" font-size="10.00">position_names</text>
<text text-anchor="middle" x="210" y="-97" font-family="Helvetica,sans-Serif" font-size="10.00">position_units</text>
<text text-anchor="middle" x="210" y="-86" font-family="Helvetica,sans-Serif" font-size="10.00">velocity_names</text>
</g>
<!-- Node4 -->
<g id="node4" class="node">
<title>Node4</title>
<g id="a_node4"><a xlink:title=" ">
<polygon fill="white" stroke="#bfbfbf" points="51,-38.5 51,-57.5 102,-57.5 102,-38.5 51,-38.5"/>
<text text-anchor="middle" x="76.5" y="-45.5" font-family="Helvetica,sans-Serif" font-size="10.00">integer</text>
</a>
</g>
</g>
<!-- Node4&#45;&gt;Node1 -->
<g id="edge3" class="edge">
<title>Node4&#45;&gt;Node1</title>
<path fill="none" stroke="#9a32cd" stroke-dasharray="5,2" d="M112.34,-48.81C147.03,-49.82 201.77,-51.91 249,-56 254.82,-56.5 260.89,-57.13 266.93,-57.81"/>
<polygon fill="#9a32cd" stroke="#9a32cd" points="112.34,-45.31 102.25,-48.54 112.15,-52.31 112.34,-45.31"/>
<text text-anchor="middle" x="210" y="-59" font-family="Helvetica,sans-Serif" font-size="10.00"> ids</text>
</g>
<!-- Node5 -->
<g id="node5" class="node">
<title>Node5</title>
<g id="a_node5"><a xlink:title=" ">
<polygon fill="white" stroke="#bfbfbf" points="59,-0.5 59,-19.5 94,-19.5 94,-0.5 59,-0.5"/>
<text text-anchor="middle" x="76.5" y="-7.5" font-family="Helvetica,sans-Serif" font-size="10.00">real</text>
</a>
</g>
</g>
<!-- Node5&#45;&gt;Node1 -->
<g id="edge4" class="edge">
<title>Node5&#45;&gt;Node1</title>
<path fill="none" stroke="#9a32cd" stroke-dasharray="5,2" d="M104.44,-12.09C138.57,-15.2 198.97,-22.2 249,-36 266.84,-40.92 286.24,-49.05 300.25,-55.45"/>
<polygon fill="#9a32cd" stroke="#9a32cd" points="104.59,-8.59 94.33,-11.22 103.99,-15.57 104.59,-8.59"/>
<text text-anchor="middle" x="210" y="-39" font-family="Helvetica,sans-Serif" font-size="10.00"> positions</text>
</g>
</g>
</svg>
