<?xml version="1.0" encoding="UTF-8" standalone="no"?>
<!DOCTYPE svg PUBLIC "-//W3C//DTD SVG 1.1//EN"
 "http://www.w3.org/Graphics/SVG/1.1/DTD/svg11.dtd">
<!-- Generated by graphviz version 2.43.0 (0)
 -->
<!-- Title: tracer_type Pages: 1 -->
<svg width="444pt" height="139pt"
 viewBox="0.00 0.00 443.50 139.00" xmlns="http://www.w3.org/2000/svg" xmlns:xlink="http://www.w3.org/1999/xlink">
<g id="graph0" class="graph" transform="scale(1 1) rotate(0) translate(4 135)">
<title>tracer_type</title>
<polygon fill="white" stroke="transparent" points="-4,4 -4,-135 439.5,-135 439.5,4 -4,4"/>
<!-- Node1 -->
<g id="node1" class="node">
<title>Node1</title>
<g id="a_node1"><a xlink:title="Private type to hold metadata for a tracer.">
<polygon fill="#bfbfbf" stroke="black" points="174.5,-0.5 174.5,-19.5 246.5,-19.5 246.5,-0.5 174.5,-0.5"/>
<text text-anchor="middle" x="210.5" y="-7.5" font-family="Helvetica,sans-Serif" font-size="10.00">tracer_type</text>
</a>
</g>
</g>
<!-- Node2 -->
<g id="node2" class="node">
<title>Node2</title>
<g id="a_node2"><a xlink:title=" ">
<polygon fill="white" stroke="#bfbfbf" points="0,-111.5 0,-130.5 49,-130.5 49,-111.5 0,-111.5"/>
<text text-anchor="middle" x="24.5" y="-118.5" font-family="Helvetica,sans-Serif" font-size="10.00">logical</text>
</a>
</g>
</g>
<!-- Node2&#45;&gt;Node1 -->
<g id="edge1" class="edge">
<title>Node2&#45;&gt;Node1</title>
<path fill="none" stroke="#9a32cd" stroke-dasharray="5,2" d="M20.99,-101.5C18.62,-82.88 18.39,-54.62 34.5,-38 53.33,-18.58 128.66,-13.09 174.45,-11.57"/>
<polygon fill="#9a32cd" stroke="#9a32cd" points="17.54,-102.09 22.57,-111.42 24.45,-100.99 17.54,-102.09"/>
<text text-anchor="middle" x="89" y="-85" font-family="Helvetica,sans-Serif" font-size="10.00"> instances_set</text>
<text text-anchor="middle" x="89" y="-74" font-family="Helvetica,sans-Serif" font-size="10.00">is_prognostic</text>
<text text-anchor="middle" x="89" y="-63" font-family="Helvetica,sans-Serif" font-size="10.00">needs_init</text>
<text text-anchor="middle" x="89" y="-52" font-family="Helvetica,sans-Serif" font-size="10.00">needs_mass_adjust</text>
<text text-anchor="middle" x="89" y="-41" font-family="Helvetica,sans-Serif" font-size="10.00">needs_positive_adjust</text>
</g>
<!-- Node3 -->
<g id="node3" class="node">
<title>Node3</title>
<g id="a_node3"><a xlink:title=" ">
<polygon fill="white" stroke="#bfbfbf" points="92,-111.5 92,-130.5 203,-130.5 203,-111.5 92,-111.5"/>
<text text-anchor="middle" x="147.5" y="-118.5" font-family="Helvetica,sans-Serif" font-size="10.00">character(len=128)</text>
</a>
</g>
</g>
<!-- Node3&#45;&gt;Node1 -->
<g id="edge2" class="edge">
<title>Node3&#45;&gt;Node1</title>
<path fill="none" stroke="#9a32cd" stroke-dasharray="5,2" d="M147.49,-101.2C148.38,-83.38 152.1,-56.64 165.5,-38 171.24,-30.01 180.15,-23.96 188.53,-19.63"/>
<polygon fill="#9a32cd" stroke="#9a32cd" points="143.99,-101.37 147.25,-111.45 150.99,-101.53 143.99,-101.37"/>
<text text-anchor="middle" x="208.5" y="-63" font-family="Helvetica,sans-Serif" font-size="10.00"> tracer_longname</text>
</g>
<!-- Node4 -->
<g id="node4" class="node">
<title>Node4</title>
<g id="a_node4"><a xlink:title=" ">
<polygon fill="white" stroke="#bfbfbf" points="221,-111.5 221,-130.5 326,-130.5 326,-111.5 221,-111.5"/>
<text text-anchor="middle" x="273.5" y="-118.5" font-family="Helvetica,sans-Serif" font-size="10.00">character(len=32)</text>
</a>
</g>
</g>
<!-- Node4&#45;&gt;Node1 -->
<g id="edge3" class="edge">
<title>Node4&#45;&gt;Node1</title>
<path fill="none" stroke="#9a32cd" stroke-dasharray="5,2" d="M272.27,-101.28C270.28,-83.52 265.09,-56.82 251.5,-38 245.91,-30.26 237.37,-24.13 229.52,-19.67"/>
<polygon fill="#9a32cd" stroke="#9a32cd" points="268.81,-101.84 273.17,-111.49 275.78,-101.22 268.81,-101.84"/>
<text text-anchor="middle" x="303" y="-68.5" font-family="Helvetica,sans-Serif" font-size="10.00"> tracer_name</text>
<text text-anchor="middle" x="303" y="-57.5" font-family="Helvetica,sans-Serif" font-size="10.00">tracer_units</text>
</g>
<!-- Node5 -->
<g id="node5" class="node">
<title>Node5</title>
<g id="a_node5"><a xlink:title=" ">
<polygon fill="white" stroke="#bfbfbf" points="344,-111.5 344,-130.5 395,-130.5 395,-111.5 344,-111.5"/>
<text text-anchor="middle" x="369.5" y="-118.5" font-family="Helvetica,sans-Serif" font-size="10.00">integer</text>
</a>
</g>
</g>
<!-- Node5&#45;&gt;Node1 -->
<g id="edge4" class="edge">
<title>Node5&#45;&gt;Node1</title>
<path fill="none" stroke="#9a32cd" stroke-dasharray="5,2" d="M367.82,-101.25C365.1,-82.43 358.01,-54.01 339.5,-38 325.83,-26.17 279.89,-18.66 246.73,-14.64"/>
<polygon fill="#9a32cd" stroke="#9a32cd" points="364.35,-101.76 368.99,-111.29 371.31,-100.95 364.35,-101.76"/>
<text text-anchor="middle" x="400.5" y="-74" font-family="Helvetica,sans-Serif" font-size="10.00"> instances</text>
<text text-anchor="middle" x="400.5" y="-63" font-family="Helvetica,sans-Serif" font-size="10.00">model</text>
<text text-anchor="middle" x="400.5" y="-52" font-family="Helvetica,sans-Serif" font-size="10.00">num_methods</text>
</g>
</g>
</svg>
