<?xml version="1.0" encoding="UTF-8" standalone="no"?>
<!DOCTYPE svg PUBLIC "-//W3C//DTD SVG 1.1//EN"
 "http://www.w3.org/Graphics/SVG/1.1/DTD/svg11.dtd">
<!-- Generated by graphviz version 2.43.0 (0)
 -->
<!-- Title: fmsyamloutkeys_type Pages: 1 -->
<svg width="133pt" height="227pt"
 viewBox="0.00 0.00 133.00 227.00" xmlns="http://www.w3.org/2000/svg" xmlns:xlink="http://www.w3.org/1999/xlink">
<g id="graph0" class="graph" transform="scale(1 1) rotate(0) translate(4 223)">
<title>fmsyamloutkeys_type</title>
<polygon fill="white" stroke="transparent" points="-4,4 -4,-223 129,-223 129,4 -4,4"/>
<!-- Node1 -->
<g id="node1" class="node">
<title>Node1</title>
<g id="a_node1"><a xlink:title="Keys for the output yaml on a given level corresponding to the struct in yaml_output_functions....">
<polygon fill="#bfbfbf" stroke="black" points="0,-0.5 0,-19.5 125,-19.5 125,-0.5 0,-0.5"/>
<text text-anchor="middle" x="62.5" y="-7.5" font-family="Helvetica,sans-Serif" font-size="10.00">fmsyamloutkeys_type</text>
</a>
</g>
</g>
<!-- Node2 -->
<g id="node2" class="node">
<title>Node2</title>
<g id="a_node2"><a xlink:title=" ">
<polygon fill="white" stroke="#bfbfbf" points="1.5,-177.5 1.5,-218.5 123.5,-218.5 123.5,-177.5 1.5,-177.5"/>
<text text-anchor="start" x="9.5" y="-206.5" font-family="Helvetica,sans-Serif" font-size="10.00">character(c_char),</text>
<text text-anchor="start" x="9.5" y="-195.5" font-family="Helvetica,sans-Serif" font-size="10.00"> dimension(string_len</text>
<text text-anchor="middle" x="62.5" y="-184.5" font-family="Helvetica,sans-Serif" font-size="10.00">_parameter)</text>
</a>
</g>
</g>
<!-- Node2&#45;&gt;Node1 -->
<g id="edge1" class="edge">
<title>Node2&#45;&gt;Node1</title>
<path fill="none" stroke="#9a32cd" stroke-dasharray="5,2" d="M62.5,-167.24C62.5,-123.92 62.5,-45.83 62.5,-19.75"/>
<polygon fill="#9a32cd" stroke="#9a32cd" points="59,-167.45 62.5,-177.45 66,-167.45 59,-167.45"/>
<text text-anchor="middle" x="79" y="-151" font-family="Helvetica,sans-Serif" font-size="10.00"> key10</text>
<text text-anchor="middle" x="79" y="-140" font-family="Helvetica,sans-Serif" font-size="10.00">key1</text>
<text text-anchor="middle" x="79" y="-129" font-family="Helvetica,sans-Serif" font-size="10.00">key11</text>
<text text-anchor="middle" x="79" y="-118" font-family="Helvetica,sans-Serif" font-size="10.00">key2</text>
<text text-anchor="middle" x="79" y="-107" font-family="Helvetica,sans-Serif" font-size="10.00">key12</text>
<text text-anchor="middle" x="79" y="-96" font-family="Helvetica,sans-Serif" font-size="10.00">key3</text>
<text text-anchor="middle" x="79" y="-85" font-family="Helvetica,sans-Serif" font-size="10.00">key13</text>
<text text-anchor="middle" x="79" y="-74" font-family="Helvetica,sans-Serif" font-size="10.00">key4</text>
<text text-anchor="middle" x="79" y="-63" font-family="Helvetica,sans-Serif" font-size="10.00">key14</text>
<text text-anchor="middle" x="79" y="-52" font-family="Helvetica,sans-Serif" font-size="10.00">key5</text>
<text text-anchor="middle" x="79" y="-41" font-family="Helvetica,sans-Serif" font-size="10.00">...</text>
</g>
</g>
</svg>
