<?xml version="1.0" encoding="UTF-8" standalone="no"?>
<!DOCTYPE svg PUBLIC "-//W3C//DTD SVG 1.1//EN"
 "http://www.w3.org/Graphics/SVG/1.1/DTD/svg11.dtd">
<!-- Generated by graphviz version 2.43.0 (0)
 -->
<!-- Title: domaincommunicator2d Pages: 1 -->
<!--zoomable 1064 -->
<svg id="main" version="1.1" xmlns="http://www.w3.org/2000/svg" xmlns:xlink="http://www.w3.org/1999/xlink" xml:space="preserve" onload="init(evt)">
<style type="text/css"><![CDATA[
.edge:hover path { stroke: red; }
.edge:hover polygon { stroke: red; fill: red; }
]]></style>
<script type="text/javascript"><![CDATA[
var edges = document.getElementsByTagName('g');
if (edges && edges.length) {
  for (var i=0;i<edges.length;i++) {
    if (edges[i].id.substr(0,4)=='edge') {
      edges[i].setAttribute('class','edge');
    }
  }
}
]]></script>
        <defs>
                <circle id="rim" cx="0" cy="0" r="7"/>
                <circle id="rim2" cx="0" cy="0" r="3.5"/>
                <g id="zoomPlus">
                        <use xlink:href="#rim" fill="#404040">
                                <set attributeName="fill" to="#808080" begin="zoomplus.mouseover" end="zoomplus.mouseout"/>
                        </use>
                        <path d="M-4,0h8M0,-4v8" fill="none" stroke="white" stroke-width="1.5" pointer-events="none"/>
                </g>
                <g id="zoomMin">
                        <use xlink:href="#rim" fill="#404040">
                                <set attributeName="fill" to="#808080" begin="zoomminus.mouseover" end="zoomminus.mouseout"/>
                        </use>
                        <path d="M-4,0h8" fill="none" stroke="white" stroke-width="1.5" pointer-events="none"/>
                </g>
                <g id="dirArrow">
                        <path fill="none" stroke="white" stroke-width="1.5" d="M0,-3.0v7 M-2.5,-0.5L0,-3.0L2.5,-0.5"/>
                </g>
               <g id="resetDef">
                       <use xlink:href="#rim2" fill="#404040">
                               <set attributeName="fill" to="#808080" begin="reset.mouseover" end="reset.mouseout"/>
                       </use>
               </g>
        </defs>

<script type="text/javascript">
var viewWidth = 840;
var viewHeight = 1064;
var sectionId = 'dynsection-6';
</script>
<script xlink:href="svgpan.js"/>
<svg id="graph" class="graph">
<g id="viewport">
<title>domaincommunicator2d</title>
<polygon fill="white" stroke="transparent" points="-4,4 -4,-1060 836.12,-1060 836.12,4 -4,4"/>
<!-- Node1 -->
<g id="node1" class="node">
<title>Node1</title>
<g id="a_node1"><a xlink:title="Used for sending domain data between pe&#39;s.">
<polygon fill="#bfbfbf" stroke="black" points="317.12,-0.5 317.12,-19.5 453.12,-19.5 453.12,-0.5 317.12,-0.5"/>
<text text-anchor="middle" x="385.12" y="-7.5" font-family="Helvetica,sans-Serif" font-size="10.00">domaincommunicator2d</text>
</a>
</g>
</g>
<!-- Node2 -->
<g id="node2" class="node">
<title>Node2</title>
<g id="a_node2"><a xlink:title=" ">
<polygon fill="white" stroke="#bfbfbf" points="59.62,-1036.5 59.62,-1055.5 108.62,-1055.5 108.62,-1036.5 59.62,-1036.5"/>
<text text-anchor="middle" x="84.12" y="-1043.5" font-family="Helvetica,sans-Serif" font-size="10.00">logical</text>
</a>
</g>
</g>
<!-- Node2&#45;&gt;Node1 -->
<g id="edge1" class="edge">
<title>Node2&#45;&gt;Node1</title>
<path fill="none" stroke="#9a32cd" stroke-dasharray="5,2" d="M59.61,-1030.29C55.26,-1026.74 51.16,-1022.61 48.12,-1018 -1.79,-942.19 0.12,-910.26 0.12,-819.5 0.12,-819.5 0.12,-819.5 0.12,-148.5 0.12,-80.1 218.38,-36.75 326.23,-19.51"/>
<polygon fill="#9a32cd" stroke="#9a32cd" points="57.91,-1033.38 68.07,-1036.4 62.01,-1027.7 57.91,-1033.38"/>
<text text-anchor="middle" x="24.62" y="-476" font-family="Helvetica,sans-Serif" font-size="10.00"> r_do_buf</text>
<text text-anchor="middle" x="24.62" y="-465" font-family="Helvetica,sans-Serif" font-size="10.00">s_do_buf</text>
<text text-anchor="middle" x="24.62" y="-454" font-family="Helvetica,sans-Serif" font-size="10.00">initialized</text>
</g>
<!-- Node4 -->
<g id="node4" class="node">
<title>Node4</title>
<g id="a_node4"><a xlink:href="group__mpp__domains__mod.html#structmpp__domains__mod_1_1domain2d" target="_top" xlink:title="The domain2D type contains all the necessary information to define the global, compute and data domai...">
<polygon fill="white" stroke="black" points="352.62,-140 352.62,-159 417.62,-159 417.62,-140 352.62,-140"/>
<text text-anchor="middle" x="385.12" y="-147" font-family="Helvetica,sans-Serif" font-size="10.00">domain2d</text>
</a>
</g>
</g>
<!-- Node2&#45;&gt;Node4 -->
<g id="edge4" class="edge">
<title>Node2&#45;&gt;Node4</title>
<path fill="none" stroke="#9a32cd" stroke-dasharray="5,2" d="M76.41,-1026.64C75.48,-1023.79 74.66,-1020.85 74.12,-1018 34.68,-811.93 15.88,-749.7 66.12,-546 82.83,-478.25 165.42,-319.85 212.12,-268 244.47,-232.08 263.5,-236.2 304.12,-210 330.22,-193.16 359.18,-170.97 374.41,-159.02"/>
<polygon fill="#9a32cd" stroke="#9a32cd" points="73.21,-1028.1 80.02,-1036.21 79.76,-1025.62 73.21,-1028.1"/>
<text text-anchor="middle" x="103.62" y="-620.5" font-family="Helvetica,sans-Serif" font-size="10.00"> rotated_ninety</text>
<text text-anchor="middle" x="103.62" y="-609.5" font-family="Helvetica,sans-Serif" font-size="10.00">symmetry</text>
<text text-anchor="middle" x="103.62" y="-598.5" font-family="Helvetica,sans-Serif" font-size="10.00">initialized</text>
</g>
<!-- Node5 -->
<g id="node5" class="node">
<title>Node5</title>
<g id="a_node5"><a xlink:href="group__mpp__domains__mod.html#structmpp__domains__mod_1_1domain1d" target="_top" xlink:title="One dimensional domain used to manage shared data access between pes.">
<polygon fill="white" stroke="black" points="150.62,-602.5 150.62,-621.5 215.62,-621.5 215.62,-602.5 150.62,-602.5"/>
<text text-anchor="middle" x="183.12" y="-609.5" font-family="Helvetica,sans-Serif" font-size="10.00">domain1d</text>
</a>
</g>
</g>
<!-- Node2&#45;&gt;Node5 -->
<g id="edge6" class="edge">
<title>Node2&#45;&gt;Node5</title>
<path fill="none" stroke="#9a32cd" stroke-dasharray="5,2" d="M82,-1026.18C77.41,-979.55 69.11,-855.41 98.12,-758 115.03,-701.23 158.57,-643.32 175.87,-621.77"/>
<polygon fill="#9a32cd" stroke="#9a32cd" points="78.54,-1026.72 83.07,-1036.3 85.5,-1025.99 78.54,-1026.72"/>
<text text-anchor="middle" x="113.62" y="-816" font-family="Helvetica,sans-Serif" font-size="10.00"> cyclic</text>
</g>
<!-- Node6 -->
<g id="node6" class="node">
<title>Node6</title>
<g id="a_node6"><a xlink:href="group__mpp__domains__mod.html#structmpp__domains__mod_1_1domain__axis__spec" target="_top" xlink:title="Used to specify index limits along an axis of a domain.">
<polygon fill="white" stroke="black" points="203.62,-809 203.62,-828 310.62,-828 310.62,-809 203.62,-809"/>
<text text-anchor="middle" x="257.12" y="-816" font-family="Helvetica,sans-Serif" font-size="10.00">domain_axis_spec</text>
</a>
</g>
</g>
<!-- Node2&#45;&gt;Node6 -->
<g id="edge9" class="edge">
<title>Node2&#45;&gt;Node6</title>
<path fill="none" stroke="#9a32cd" stroke-dasharray="5,2" d="M96.91,-1028.32C131.31,-983.49 224.89,-861.51 250.54,-828.07"/>
<polygon fill="#9a32cd" stroke="#9a32cd" points="94,-1026.37 90.69,-1036.44 99.55,-1030.63 94,-1026.37"/>
<text text-anchor="middle" x="220.62" y="-955" font-family="Helvetica,sans-Serif" font-size="10.00"> is_global</text>
</g>
<!-- Node9 -->
<g id="node9" class="node">
<title>Node9</title>
<g id="a_node9"><a xlink:href="group__mpp__domains__mod.html#structmpp__domains__mod_1_1overlap__type" target="_top" xlink:title="Type for overlapping data.">
<polygon fill="white" stroke="black" points="515.12,-809 515.12,-828 595.12,-828 595.12,-809 515.12,-809"/>
<text text-anchor="middle" x="555.12" y="-816" font-family="Helvetica,sans-Serif" font-size="10.00">overlap_type</text>
</a>
</g>
</g>
<!-- Node2&#45;&gt;Node9 -->
<g id="edge16" class="edge">
<title>Node2&#45;&gt;Node9</title>
<path fill="none" stroke="#9a32cd" stroke-dasharray="5,2" d="M119.27,-1045.12C180.15,-1044.71 302.08,-1040.93 337.12,-1018 388.92,-984.1 361.51,-939.92 406.12,-897 442.05,-862.43 496.46,-839.46 528.63,-828.03"/>
<polygon fill="#9a32cd" stroke="#9a32cd" points="118.98,-1041.62 108.99,-1045.16 119.01,-1048.62 118.98,-1041.62"/>
<text text-anchor="middle" x="440.12" y="-955" font-family="Helvetica,sans-Serif" font-size="10.00"> from_contact</text>
</g>
<!-- Node3 -->
<g id="node3" class="node">
<title>Node3</title>
<g id="a_node3"><a xlink:title=" ">
<polygon fill="white" stroke="#bfbfbf" points="28.12,-319 28.12,-338 122.12,-338 122.12,-319 28.12,-319"/>
<text text-anchor="middle" x="75.12" y="-326" font-family="Helvetica,sans-Serif" font-size="10.00">integer(i8_kind)</text>
</a>
</g>
</g>
<!-- Node3&#45;&gt;Node1 -->
<g id="edge2" class="edge">
<title>Node3&#45;&gt;Node1</title>
<path fill="none" stroke="#9a32cd" stroke-dasharray="5,2" d="M76.6,-308.78C79.05,-287.6 85.47,-252.82 102.12,-228 174.03,-120.79 316.53,-44.27 366.93,-19.57"/>
<polygon fill="#9a32cd" stroke="#9a32cd" points="73.12,-308.45 75.63,-318.75 80.09,-309.13 73.12,-308.45"/>
<text text-anchor="middle" x="272.12" y="-202" font-family="Helvetica,sans-Serif" font-size="10.00"> l_addry</text>
<text text-anchor="middle" x="272.12" y="-191" font-family="Helvetica,sans-Serif" font-size="10.00">rem_addr</text>
<text text-anchor="middle" x="272.12" y="-180" font-family="Helvetica,sans-Serif" font-size="10.00">rem_addrl</text>
<text text-anchor="middle" x="272.12" y="-169" font-family="Helvetica,sans-Serif" font-size="10.00">rem_addrlx</text>
<text text-anchor="middle" x="272.12" y="-158" font-family="Helvetica,sans-Serif" font-size="10.00">l_addr</text>
<text text-anchor="middle" x="272.12" y="-147" font-family="Helvetica,sans-Serif" font-size="10.00">rem_addrly</text>
<text text-anchor="middle" x="272.12" y="-136" font-family="Helvetica,sans-Serif" font-size="10.00">id</text>
<text text-anchor="middle" x="272.12" y="-125" font-family="Helvetica,sans-Serif" font-size="10.00">rem_addrx</text>
<text text-anchor="middle" x="272.12" y="-114" font-family="Helvetica,sans-Serif" font-size="10.00">rem_addry</text>
<text text-anchor="middle" x="272.12" y="-103" font-family="Helvetica,sans-Serif" font-size="10.00">l_addrx</text>
<text text-anchor="middle" x="272.12" y="-92" font-family="Helvetica,sans-Serif" font-size="10.00">...</text>
</g>
<!-- Node3&#45;&gt;Node4 -->
<g id="edge12" class="edge">
<title>Node3&#45;&gt;Node4</title>
<path fill="none" stroke="#9a32cd" stroke-dasharray="5,2" d="M79.21,-308.94C85.09,-286.54 98.12,-249.25 123.12,-228 190.53,-170.71 298.77,-155.76 352.58,-151.87"/>
<polygon fill="#9a32cd" stroke="#9a32cd" points="75.75,-308.32 76.81,-318.87 82.56,-309.97 75.75,-308.32"/>
<text text-anchor="middle" x="129.62" y="-236.5" font-family="Helvetica,sans-Serif" font-size="10.00"> id</text>
</g>
<!-- Node4&#45;&gt;Node1 -->
<g id="edge3" class="edge">
<title>Node4&#45;&gt;Node1</title>
<path fill="none" stroke="#9a32cd" stroke-dasharray="5,2" d="M385.12,-129.86C385.12,-99.73 385.12,-41.49 385.12,-19.6"/>
<polygon fill="#9a32cd" stroke="#9a32cd" points="381.62,-129.9 385.12,-139.9 388.62,-129.9 381.62,-129.9"/>
<text text-anchor="middle" x="414.12" y="-63" font-family="Helvetica,sans-Serif" font-size="10.00"> domain</text>
<text text-anchor="middle" x="414.12" y="-52" font-family="Helvetica,sans-Serif" font-size="10.00">domain_out</text>
<text text-anchor="middle" x="414.12" y="-41" font-family="Helvetica,sans-Serif" font-size="10.00">domain_in</text>
</g>
<!-- Node4&#45;&gt;Node4 -->
<g id="edge13" class="edge">
<title>Node4&#45;&gt;Node4</title>
<path fill="none" stroke="#9a32cd" stroke-dasharray="5,2" d="M404.84,-163.88C420.08,-169.24 435.62,-164.45 435.62,-149.5 435.62,-131.45 412.96,-128.21 395.53,-139.77"/>
<polygon fill="#9a32cd" stroke="#9a32cd" points="406.04,-160.56 395.53,-159.23 402.91,-166.83 406.04,-160.56"/>
<text text-anchor="middle" x="463.12" y="-147" font-family="Helvetica,sans-Serif" font-size="10.00"> io_domain</text>
</g>
<!-- Node5&#45;&gt;Node4 -->
<g id="edge5" class="edge">
<title>Node5&#45;&gt;Node4</title>
<path fill="none" stroke="#9a32cd" stroke-dasharray="5,2" d="M183.81,-592.28C186.54,-538.35 199.8,-379.45 263.12,-268 291.3,-218.4 346.83,-176.5 372.08,-159.11"/>
<polygon fill="#9a32cd" stroke="#9a32cd" points="180.31,-592.25 183.37,-602.39 187.3,-592.56 180.31,-592.25"/>
<text text-anchor="middle" x="268.12" y="-331.5" font-family="Helvetica,sans-Serif" font-size="10.00"> x</text>
<text text-anchor="middle" x="268.12" y="-320.5" font-family="Helvetica,sans-Serif" font-size="10.00">y</text>
</g>
<!-- Node5&#45;&gt;Node5 -->
<g id="edge7" class="edge">
<title>Node5&#45;&gt;Node5</title>
<path fill="none" stroke="#9a32cd" stroke-dasharray="5,2" d="M199.32,-627.6C215.59,-636.59 233.62,-631.39 233.62,-612 233.62,-589.23 208.76,-586.02 191.08,-602.39"/>
<polygon fill="#9a32cd" stroke="#9a32cd" points="201.23,-624.66 191.08,-621.61 197.11,-630.32 201.23,-624.66"/>
<text text-anchor="middle" x="243.12" y="-609.5" font-family="Helvetica,sans-Serif" font-size="10.00"> list</text>
</g>
<!-- Node6&#45;&gt;Node5 -->
<g id="edge8" class="edge">
<title>Node6&#45;&gt;Node5</title>
<path fill="none" stroke="#9a32cd" stroke-dasharray="5,2" d="M250.57,-799.39C235.2,-756.92 197.31,-652.22 186.22,-621.56"/>
<polygon fill="#9a32cd" stroke="#9a32cd" points="247.34,-800.76 254.03,-808.97 253.92,-798.38 247.34,-800.76"/>
<text text-anchor="middle" x="251.62" y="-732" font-family="Helvetica,sans-Serif" font-size="10.00"> memory</text>
<text text-anchor="middle" x="251.62" y="-721" font-family="Helvetica,sans-Serif" font-size="10.00">global</text>
<text text-anchor="middle" x="251.62" y="-710" font-family="Helvetica,sans-Serif" font-size="10.00">compute</text>
<text text-anchor="middle" x="251.62" y="-699" font-family="Helvetica,sans-Serif" font-size="10.00">data</text>
</g>
<!-- Node11 -->
<g id="node11" class="node">
<title>Node11</title>
<g id="a_node11"><a xlink:href="group__mpp__domains__mod.html#structmpp__domains__mod_1_1domain1d__spec" target="_top" xlink:title="A private type used to specify index limits for a domain decomposition.">
<polygon fill="white" stroke="black" points="272.62,-602.5 272.62,-621.5 365.62,-621.5 365.62,-602.5 272.62,-602.5"/>
<text text-anchor="middle" x="319.12" y="-609.5" font-family="Helvetica,sans-Serif" font-size="10.00">domain1d_spec</text>
</a>
</g>
</g>
<!-- Node6&#45;&gt;Node11 -->
<g id="edge22" class="edge">
<title>Node6&#45;&gt;Node11</title>
<path fill="none" stroke="#9a32cd" stroke-dasharray="5,2" d="M261.69,-799.07C267.72,-775.16 278.89,-732.23 290.12,-696 298.62,-668.59 310.27,-636.68 315.87,-621.66"/>
<polygon fill="#9a32cd" stroke="#9a32cd" points="258.26,-798.35 259.23,-808.9 265.06,-800.04 258.26,-798.35"/>
<text text-anchor="middle" x="311.62" y="-721" font-family="Helvetica,sans-Serif" font-size="10.00"> global</text>
<text text-anchor="middle" x="311.62" y="-710" font-family="Helvetica,sans-Serif" font-size="10.00">compute</text>
</g>
<!-- Node7 -->
<g id="node7" class="node">
<title>Node7</title>
<g id="a_node7"><a xlink:title=" ">
<polygon fill="white" stroke="#bfbfbf" points="470.62,-1036.5 470.62,-1055.5 521.62,-1055.5 521.62,-1036.5 470.62,-1036.5"/>
<text text-anchor="middle" x="496.12" y="-1043.5" font-family="Helvetica,sans-Serif" font-size="10.00">integer</text>
</a>
</g>
</g>
<!-- Node7&#45;&gt;Node1 -->
<g id="edge30" class="edge">
<title>Node7&#45;&gt;Node1</title>
<path fill="none" stroke="#9a32cd" stroke-dasharray="5,2" d="M531.91,-1043.63C578.61,-1041.19 657.09,-1034.68 680.12,-1018 759.96,-960.16 779.12,-918.09 779.12,-819.5 779.12,-819.5 779.12,-819.5 779.12,-148.5 779.12,-79.04 558.07,-36.49 447.12,-19.51"/>
<polygon fill="#9a32cd" stroke="#9a32cd" points="531.72,-1040.13 521.9,-1044.11 532.06,-1047.13 531.72,-1040.13"/>
<text text-anchor="middle" x="805.62" y="-520" font-family="Helvetica,sans-Serif" font-size="10.00"> jsize_max</text>
<text text-anchor="middle" x="805.62" y="-509" font-family="Helvetica,sans-Serif" font-size="10.00">jsize_in</text>
<text text-anchor="middle" x="805.62" y="-498" font-family="Helvetica,sans-Serif" font-size="10.00">isize_max</text>
<text text-anchor="middle" x="805.62" y="-487" font-family="Helvetica,sans-Serif" font-size="10.00">recvje</text>
<text text-anchor="middle" x="805.62" y="-476" font-family="Helvetica,sans-Serif" font-size="10.00">recvie</text>
<text text-anchor="middle" x="805.62" y="-465" font-family="Helvetica,sans-Serif" font-size="10.00">sendjs</text>
<text text-anchor="middle" x="805.62" y="-454" font-family="Helvetica,sans-Serif" font-size="10.00">sendis</text>
<text text-anchor="middle" x="805.62" y="-443" font-family="Helvetica,sans-Serif" font-size="10.00">jsizer</text>
<text text-anchor="middle" x="805.62" y="-432" font-family="Helvetica,sans-Serif" font-size="10.00">sendje</text>
<text text-anchor="middle" x="805.62" y="-421" font-family="Helvetica,sans-Serif" font-size="10.00">isizer</text>
<text text-anchor="middle" x="805.62" y="-410" font-family="Helvetica,sans-Serif" font-size="10.00">...</text>
</g>
<!-- Node7&#45;&gt;Node4 -->
<g id="edge27" class="edge">
<title>Node7&#45;&gt;Node4</title>
<path fill="none" stroke="#9a32cd" stroke-dasharray="5,2" d="M531.94,-1042.04C567.62,-1038.4 619.17,-1031.03 634.12,-1018 704.41,-956.72 702.12,-912.76 702.12,-819.5 702.12,-819.5 702.12,-819.5 702.12,-327.5 702.12,-280.16 699.13,-259.87 664.12,-228 593.86,-164.04 475.27,-152.28 418.01,-150.5"/>
<polygon fill="#9a32cd" stroke="#9a32cd" points="531.51,-1038.56 521.89,-1043.01 532.18,-1045.53 531.51,-1038.56"/>
<text text-anchor="middle" x="726.62" y="-670" font-family="Helvetica,sans-Serif" font-size="10.00"> fold</text>
<text text-anchor="middle" x="726.62" y="-659" font-family="Helvetica,sans-Serif" font-size="10.00">tile_id</text>
<text text-anchor="middle" x="726.62" y="-648" font-family="Helvetica,sans-Serif" font-size="10.00">tile_id_all</text>
<text text-anchor="middle" x="726.62" y="-637" font-family="Helvetica,sans-Serif" font-size="10.00">io_layout</text>
<text text-anchor="middle" x="726.62" y="-626" font-family="Helvetica,sans-Serif" font-size="10.00">nhalo</text>
<text text-anchor="middle" x="726.62" y="-615" font-family="Helvetica,sans-Serif" font-size="10.00">ntiles</text>
<text text-anchor="middle" x="726.62" y="-604" font-family="Helvetica,sans-Serif" font-size="10.00">pe</text>
<text text-anchor="start" x="702.12" y="-593" font-family="Helvetica,sans-Serif" font-size="10.00">max_ntile</text>
<text text-anchor="middle" x="726.62" y="-582" font-family="Helvetica,sans-Serif" font-size="10.00">_pe</text>
<text text-anchor="middle" x="726.62" y="-571" font-family="Helvetica,sans-Serif" font-size="10.00">shalo</text>
<text text-anchor="middle" x="726.62" y="-560" font-family="Helvetica,sans-Serif" font-size="10.00">ncontacts</text>
<text text-anchor="middle" x="726.62" y="-549" font-family="Helvetica,sans-Serif" font-size="10.00">...</text>
</g>
<!-- Node7&#45;&gt;Node5 -->
<g id="edge11" class="edge">
<title>Node7&#45;&gt;Node5</title>
<path fill="none" stroke="#9a32cd" stroke-dasharray="5,2" d="M460.11,-1045.04C399,-1044.48 278.22,-1040.47 243.12,-1018 212.82,-998.6 169.69,-913.68 160.12,-879 145.82,-827.16 155.89,-811.61 160.12,-758 164.23,-705.91 176.5,-644.26 181.23,-621.77"/>
<polygon fill="#9a32cd" stroke="#9a32cd" points="460.42,-1048.54 470.44,-1045.11 460.46,-1041.54 460.42,-1048.54"/>
<text text-anchor="middle" x="177.12" y="-832.5" font-family="Helvetica,sans-Serif" font-size="10.00"> pe</text>
<text text-anchor="middle" x="177.12" y="-821.5" font-family="Helvetica,sans-Serif" font-size="10.00">goffset</text>
<text text-anchor="middle" x="177.12" y="-810.5" font-family="Helvetica,sans-Serif" font-size="10.00">pos</text>
<text text-anchor="middle" x="177.12" y="-799.5" font-family="Helvetica,sans-Serif" font-size="10.00">loffset</text>
</g>
<!-- Node7&#45;&gt;Node6 -->
<g id="edge10" class="edge">
<title>Node7&#45;&gt;Node6</title>
<path fill="none" stroke="#9a32cd" stroke-dasharray="5,2" d="M460.18,-1045.54C406.05,-1045.53 307.32,-1042.1 283.12,-1018 229.68,-964.78 248.16,-859.16 255.03,-828.21"/>
<polygon fill="#9a32cd" stroke="#9a32cd" points="460.39,-1049.04 470.38,-1045.5 460.37,-1042.04 460.39,-1049.04"/>
<text text-anchor="middle" x="308.12" y="-971.5" font-family="Helvetica,sans-Serif" font-size="10.00"> max_size</text>
<text text-anchor="middle" x="308.12" y="-960.5" font-family="Helvetica,sans-Serif" font-size="10.00">size</text>
<text text-anchor="middle" x="308.12" y="-949.5" font-family="Helvetica,sans-Serif" font-size="10.00">begin</text>
<text text-anchor="middle" x="308.12" y="-938.5" font-family="Helvetica,sans-Serif" font-size="10.00">end</text>
</g>
<!-- Node8 -->
<g id="node8" class="node">
<title>Node8</title>
<g id="a_node8"><a xlink:href="group__mpp__domains__mod.html#structmpp__domains__mod_1_1overlapspec" target="_top" xlink:title="Private type for overlap specifications.">
<polygon fill="white" stroke="black" points="543.12,-458 543.12,-477 619.12,-477 619.12,-458 543.12,-458"/>
<text text-anchor="middle" x="581.12" y="-465" font-family="Helvetica,sans-Serif" font-size="10.00">overlapspec</text>
</a>
</g>
</g>
<!-- Node7&#45;&gt;Node8 -->
<g id="edge19" class="edge">
<title>Node7&#45;&gt;Node8</title>
<path fill="none" stroke="#9a32cd" stroke-dasharray="5,2" d="M531.92,-1041.07C560.71,-1037.09 597.84,-1029.8 607.12,-1018 676.46,-929.77 596.59,-540.48 583.02,-477.21"/>
<polygon fill="#9a32cd" stroke="#9a32cd" points="531.22,-1037.63 521.76,-1042.39 532.12,-1044.58 531.22,-1037.63"/>
<text text-anchor="middle" x="655.62" y="-871" font-family="Helvetica,sans-Serif" font-size="10.00"> nsend</text>
<text text-anchor="middle" x="655.62" y="-860" font-family="Helvetica,sans-Serif" font-size="10.00">ybegin</text>
<text text-anchor="middle" x="655.62" y="-849" font-family="Helvetica,sans-Serif" font-size="10.00">xbegin</text>
<text text-anchor="middle" x="655.62" y="-838" font-family="Helvetica,sans-Serif" font-size="10.00">yend</text>
<text text-anchor="middle" x="655.62" y="-827" font-family="Helvetica,sans-Serif" font-size="10.00">nhalo</text>
<text text-anchor="middle" x="655.62" y="-816" font-family="Helvetica,sans-Serif" font-size="10.00">xend</text>
<text text-anchor="middle" x="655.62" y="-805" font-family="Helvetica,sans-Serif" font-size="10.00">recvsize</text>
<text text-anchor="middle" x="655.62" y="-794" font-family="Helvetica,sans-Serif" font-size="10.00">shalo</text>
<text text-anchor="middle" x="655.62" y="-783" font-family="Helvetica,sans-Serif" font-size="10.00">ehalo</text>
<text text-anchor="middle" x="655.62" y="-772" font-family="Helvetica,sans-Serif" font-size="10.00">sendsize</text>
<text text-anchor="middle" x="655.62" y="-761" font-family="Helvetica,sans-Serif" font-size="10.00">...</text>
</g>
<!-- Node7&#45;&gt;Node9 -->
<g id="edge17" class="edge">
<title>Node7&#45;&gt;Node9</title>
<path fill="none" stroke="#9a32cd" stroke-dasharray="5,2" d="M522.62,-1030.7C527.12,-1027.12 531.26,-1022.89 534.12,-1018 571.73,-953.69 560.98,-857.39 556.57,-828.19"/>
<polygon fill="#9a32cd" stroke="#9a32cd" points="520.57,-1027.86 514.32,-1036.41 524.54,-1033.62 520.57,-1027.86"/>
<text text-anchor="middle" x="582.12" y="-1010" font-family="Helvetica,sans-Serif" font-size="10.00"> rotation</text>
<text text-anchor="middle" x="582.12" y="-999" font-family="Helvetica,sans-Serif" font-size="10.00">totsize</text>
<text text-anchor="middle" x="582.12" y="-988" font-family="Helvetica,sans-Serif" font-size="10.00">pe</text>
<text text-anchor="middle" x="582.12" y="-977" font-family="Helvetica,sans-Serif" font-size="10.00">dir</text>
<text text-anchor="middle" x="582.12" y="-966" font-family="Helvetica,sans-Serif" font-size="10.00">tileme</text>
<text text-anchor="middle" x="582.12" y="-955" font-family="Helvetica,sans-Serif" font-size="10.00">js</text>
<text text-anchor="middle" x="582.12" y="-944" font-family="Helvetica,sans-Serif" font-size="10.00">count</text>
<text text-anchor="middle" x="582.12" y="-933" font-family="Helvetica,sans-Serif" font-size="10.00">is</text>
<text text-anchor="middle" x="582.12" y="-922" font-family="Helvetica,sans-Serif" font-size="10.00">tilenbr</text>
<text text-anchor="middle" x="582.12" y="-911" font-family="Helvetica,sans-Serif" font-size="10.00">index</text>
<text text-anchor="middle" x="582.12" y="-900" font-family="Helvetica,sans-Serif" font-size="10.00">...</text>
</g>
<!-- Node10 -->
<g id="node10" class="node">
<title>Node10</title>
<g id="a_node10"><a xlink:href="group__mpp__domains__mod.html#structmpp__domains__mod_1_1domain2d__spec" target="_top" xlink:title="Private type to specify multiple index limits and pe information for a 2D domain.">
<polygon fill="white" stroke="black" points="282.62,-319 282.62,-338 375.62,-338 375.62,-319 282.62,-319"/>
<text text-anchor="middle" x="329.12" y="-326" font-family="Helvetica,sans-Serif" font-size="10.00">domain2d_spec</text>
</a>
</g>
</g>
<!-- Node7&#45;&gt;Node10 -->
<g id="edge24" class="edge">
<title>Node7&#45;&gt;Node10</title>
<path fill="none" stroke="#9a32cd" stroke-dasharray="5,2" d="M460.46,-1040.93C432.01,-1036.88 395.43,-1029.56 386.12,-1018 369.67,-997.57 377.13,-572.06 374.12,-546 364.63,-464.01 339.34,-367.03 331.48,-338.07"/>
<polygon fill="#9a32cd" stroke="#9a32cd" points="460.13,-1044.42 470.51,-1042.28 461.06,-1037.48 460.13,-1044.42"/>
<text text-anchor="middle" x="404.12" y="-732" font-family="Helvetica,sans-Serif" font-size="10.00"> tile_id</text>
<text text-anchor="middle" x="404.12" y="-721" font-family="Helvetica,sans-Serif" font-size="10.00">pe</text>
<text text-anchor="middle" x="404.12" y="-710" font-family="Helvetica,sans-Serif" font-size="10.00">tile_root_pe</text>
<text text-anchor="middle" x="404.12" y="-699" font-family="Helvetica,sans-Serif" font-size="10.00">pos</text>
</g>
<!-- Node7&#45;&gt;Node11 -->
<g id="edge23" class="edge">
<title>Node7&#45;&gt;Node11</title>
<path fill="none" stroke="#9a32cd" stroke-dasharray="5,2" d="M460.41,-1042.61C424.95,-1039.45 374.07,-1032.47 361.12,-1018 337.17,-991.24 337.67,-731.62 333.12,-696 329.64,-668.75 323.72,-636.76 320.82,-621.69"/>
<polygon fill="#9a32cd" stroke="#9a32cd" points="460.15,-1046.11 470.4,-1043.45 460.73,-1039.13 460.15,-1046.11"/>
<text text-anchor="middle" x="351.62" y="-816" font-family="Helvetica,sans-Serif" font-size="10.00"> pos</text>
</g>
<!-- Node12 -->
<g id="node12" class="node">
<title>Node12</title>
<g id="a_node12"><a xlink:href="group__mpp__domains__mod.html#structmpp__domains__mod_1_1tile__type" target="_top" xlink:title="Upper and lower x and y bounds for a tile.">
<polygon fill="white" stroke="black" points="457.62,-708.5 457.62,-727.5 516.62,-727.5 516.62,-708.5 457.62,-708.5"/>
<text text-anchor="middle" x="487.12" y="-715.5" font-family="Helvetica,sans-Serif" font-size="10.00">tile_type</text>
</a>
</g>
</g>
<!-- Node7&#45;&gt;Node12 -->
<g id="edge26" class="edge">
<title>Node7&#45;&gt;Node12</title>
<path fill="none" stroke="#9a32cd" stroke-dasharray="5,2" d="M493.77,-1025.84C493.52,-1023.21 493.29,-1020.54 493.12,-1018 485.63,-903.5 486.6,-763.86 487.01,-727.82"/>
<polygon fill="#9a32cd" stroke="#9a32cd" points="490.32,-1026.47 494.92,-1036.02 497.28,-1025.69 490.32,-1026.47"/>
<text text-anchor="middle" x="511.62" y="-971.5" font-family="Helvetica,sans-Serif" font-size="10.00"> ybegin</text>
<text text-anchor="middle" x="511.62" y="-960.5" font-family="Helvetica,sans-Serif" font-size="10.00">xbegin</text>
<text text-anchor="middle" x="511.62" y="-949.5" font-family="Helvetica,sans-Serif" font-size="10.00">yend</text>
<text text-anchor="middle" x="511.62" y="-938.5" font-family="Helvetica,sans-Serif" font-size="10.00">xend</text>
</g>
<!-- Node8&#45;&gt;Node1 -->
<g id="edge29" class="edge">
<title>Node8&#45;&gt;Node1</title>
<path fill="none" stroke="#9a32cd" stroke-dasharray="5,2" d="M599.25,-450.72C614.25,-436.36 634.46,-413.69 643.12,-389 660.92,-338.25 660.9,-318.75 643.12,-268 598.71,-141.25 558.83,-112.55 447.12,-38 435.79,-30.44 422,-24.19 410.3,-19.61"/>
<polygon fill="#9a32cd" stroke="#9a32cd" points="596.54,-448.46 591.55,-457.8 601.28,-453.61 596.54,-448.46"/>
<text text-anchor="middle" x="647.62" y="-242" font-family="Helvetica,sans-Serif" font-size="10.00"> recv</text>
<text text-anchor="middle" x="647.62" y="-231" font-family="Helvetica,sans-Serif" font-size="10.00">send</text>
</g>
<!-- Node8&#45;&gt;Node4 -->
<g id="edge14" class="edge">
<title>Node8&#45;&gt;Node4</title>
<path fill="none" stroke="#9a32cd" stroke-dasharray="5,2" d="M548.99,-453.95C521.37,-441.52 482.54,-419.88 460.12,-389 416.66,-329.17 442,-297.99 418.12,-228 409.43,-202.53 396.18,-173.64 389.42,-159.4"/>
<polygon fill="#9a32cd" stroke="#9a32cd" points="547.68,-457.19 558.25,-457.96 550.47,-450.77 547.68,-457.19"/>
<text text-anchor="middle" x="484.12" y="-381" font-family="Helvetica,sans-Serif" font-size="10.00"> update_c</text>
<text text-anchor="middle" x="484.12" y="-370" font-family="Helvetica,sans-Serif" font-size="10.00">update_t</text>
<text text-anchor="middle" x="484.12" y="-359" font-family="Helvetica,sans-Serif" font-size="10.00">update_e</text>
<text text-anchor="middle" x="484.12" y="-348" font-family="Helvetica,sans-Serif" font-size="10.00">bound_c</text>
<text text-anchor="middle" x="484.12" y="-337" font-family="Helvetica,sans-Serif" font-size="10.00">bound_e</text>
<text text-anchor="middle" x="484.12" y="-326" font-family="Helvetica,sans-Serif" font-size="10.00">check_n</text>
<text text-anchor="middle" x="484.12" y="-315" font-family="Helvetica,sans-Serif" font-size="10.00">update_n</text>
<text text-anchor="middle" x="484.12" y="-304" font-family="Helvetica,sans-Serif" font-size="10.00">check_c</text>
<text text-anchor="middle" x="484.12" y="-293" font-family="Helvetica,sans-Serif" font-size="10.00">bound_n</text>
<text text-anchor="middle" x="484.12" y="-282" font-family="Helvetica,sans-Serif" font-size="10.00">check_e</text>
<text text-anchor="middle" x="484.12" y="-271" font-family="Helvetica,sans-Serif" font-size="10.00">...</text>
</g>
<!-- Node8&#45;&gt;Node8 -->
<g id="edge18" class="edge">
<title>Node8&#45;&gt;Node8</title>
<path fill="none" stroke="#9a32cd" stroke-dasharray="5,2" d="M594.6,-484.48C613.63,-500.52 637.12,-494.87 637.12,-467.5 637.12,-436.64 607.25,-433.38 587.58,-457.74"/>
<polygon fill="#9a32cd" stroke="#9a32cd" points="597.06,-481.99 587.58,-477.26 592.05,-486.87 597.06,-481.99"/>
<text text-anchor="middle" x="649.62" y="-465" font-family="Helvetica,sans-Serif" font-size="10.00"> next</text>
</g>
<!-- Node9&#45;&gt;Node8 -->
<g id="edge15" class="edge">
<title>Node9&#45;&gt;Node8</title>
<path fill="none" stroke="#9a32cd" stroke-dasharray="5,2" d="M556.53,-798.55C561.36,-733.76 577.1,-522.52 580.48,-477.14"/>
<polygon fill="#9a32cd" stroke="#9a32cd" points="553.02,-798.64 555.76,-808.87 560,-799.16 553.02,-798.64"/>
<text text-anchor="middle" x="575.62" y="-721" font-family="Helvetica,sans-Serif" font-size="10.00"> recv</text>
<text text-anchor="middle" x="575.62" y="-710" font-family="Helvetica,sans-Serif" font-size="10.00">send</text>
</g>
<!-- Node10&#45;&gt;Node4 -->
<g id="edge20" class="edge">
<title>Node10&#45;&gt;Node4</title>
<path fill="none" stroke="#9a32cd" stroke-dasharray="5,2" d="M334.87,-309.34C346.73,-271.82 373.58,-186.98 382.31,-159.37"/>
<polygon fill="#9a32cd" stroke="#9a32cd" points="331.5,-308.37 331.82,-318.96 338.17,-310.48 331.5,-308.37"/>
<text text-anchor="middle" x="370.62" y="-236.5" font-family="Helvetica,sans-Serif" font-size="10.00"> list</text>
</g>
<!-- Node11&#45;&gt;Node10 -->
<g id="edge21" class="edge">
<title>Node11&#45;&gt;Node10</title>
<path fill="none" stroke="#9a32cd" stroke-dasharray="5,2" d="M319.79,-592.16C321.75,-536.96 327.43,-377.08 328.81,-338.13"/>
<polygon fill="#9a32cd" stroke="#9a32cd" points="316.29,-592.15 319.43,-602.27 323.28,-592.4 316.29,-592.15"/>
<text text-anchor="middle" x="332.12" y="-470.5" font-family="Helvetica,sans-Serif" font-size="10.00"> x</text>
<text text-anchor="middle" x="332.12" y="-459.5" font-family="Helvetica,sans-Serif" font-size="10.00">y</text>
</g>
<!-- Node12&#45;&gt;Node4 -->
<g id="edge25" class="edge">
<title>Node12&#45;&gt;Node4</title>
<path fill="none" stroke="#9a32cd" stroke-dasharray="5,2" d="M483.37,-698.46C473.32,-648.54 445.12,-507.11 424.12,-389 408.19,-299.36 391.24,-190.32 386.45,-159.18"/>
<polygon fill="#9a32cd" stroke="#9a32cd" points="479.97,-699.29 485.38,-708.4 486.83,-697.91 479.97,-699.29"/>
<text text-anchor="middle" x="467.12" y="-465" font-family="Helvetica,sans-Serif" font-size="10.00"> tilelist</text>
</g>
<!-- Node13 -->
<g id="node13" class="node">
<title>Node13</title>
<g id="a_node13"><a xlink:title=" ">
<polygon fill="white" stroke="#bfbfbf" points="516.62,-313.5 516.62,-343.5 633.62,-343.5 633.62,-313.5 516.62,-313.5"/>
<text text-anchor="start" x="524.62" y="-331.5" font-family="Helvetica,sans-Serif" font-size="10.00">character(len=name</text>
<text text-anchor="middle" x="575.12" y="-320.5" font-family="Helvetica,sans-Serif" font-size="10.00">_length)</text>
</a>
</g>
</g>
<!-- Node13&#45;&gt;Node4 -->
<g id="edge28" class="edge">
<title>Node13&#45;&gt;Node4</title>
<path fill="none" stroke="#9a32cd" stroke-dasharray="5,2" d="M552.42,-306.36C510.72,-267.51 423.53,-186.29 394.65,-159.37"/>
<polygon fill="#9a32cd" stroke="#9a32cd" points="550.19,-309.06 559.89,-313.31 554.96,-303.94 550.19,-309.06"/>
<text text-anchor="middle" x="506.62" y="-236.5" font-family="Helvetica,sans-Serif" font-size="10.00"> name</text>
</g>
</g>
</svg>
        <g id="navigator" transform="translate(0 0)" fill="#404254">
                <rect fill="#f2f5e9" fill-opacity="0.5" stroke="#606060" stroke-width=".5" x="0" y="0" width="60" height="60"/>
                <use id="zoomplus" xlink:href="#zoomPlus" x="17" y="9" onmousedown="handleZoom(evt,'in')"/>
                <use id="zoomminus" xlink:href="#zoomMin" x="42" y="9" onmousedown="handleZoom(evt,'out')"/>
                <use id="reset" xlink:href="#resetDef" x="30" y="36" onmousedown="handleReset()"/>
                <g id="arrowUp" xlink:href="#dirArrow" transform="translate(30 24)" onmousedown="handlePan(0,-1)">
                  <use xlink:href="#rim" fill="#404040">
                        <set attributeName="fill" to="#808080" begin="arrowUp.mouseover" end="arrowUp.mouseout"/>
                  </use>
                  <path fill="none" stroke="white" stroke-width="1.5" d="M0,-3.0v7 M-2.5,-0.5L0,-3.0L2.5,-0.5"/>
                </g>
                <g id="arrowRight" xlink:href="#dirArrow" transform="rotate(90) translate(36 -43)" onmousedown="handlePan(1,0)">
                  <use xlink:href="#rim" fill="#404040">
                        <set attributeName="fill" to="#808080" begin="arrowRight.mouseover" end="arrowRight.mouseout"/>
                  </use>
                  <path fill="none" stroke="white" stroke-width="1.5" d="M0,-3.0v7 M-2.5,-0.5L0,-3.0L2.5,-0.5"/>
                </g>
                <g id="arrowDown" xlink:href="#dirArrow" transform="rotate(180) translate(-30 -48)" onmousedown="handlePan(0,1)">
                  <use xlink:href="#rim" fill="#404040">
                        <set attributeName="fill" to="#808080" begin="arrowDown.mouseover" end="arrowDown.mouseout"/>
                  </use>
                  <path fill="none" stroke="white" stroke-width="1.5" d="M0,-3.0v7 M-2.5,-0.5L0,-3.0L2.5,-0.5"/>
                </g>
                <g id="arrowLeft" xlink:href="#dirArrow" transform="rotate(270) translate(-36 17)" onmousedown="handlePan(-1,0)">
                  <use xlink:href="#rim" fill="#404040">
                        <set attributeName="fill" to="#808080" begin="arrowLeft.mouseover" end="arrowLeft.mouseout"/>
                  </use>
                  <path fill="none" stroke="white" stroke-width="1.5" d="M0,-3.0v7 M-2.5,-0.5L0,-3.0L2.5,-0.5"/>
                </g>
        </g>
        <svg viewBox="0 0 15 15" width="100%" height="30px" preserveAspectRatio="xMaxYMin meet">
         <g id="arrow_out" transform="scale(0.3 0.3)">
          <a xlink:href="structmpp__domains__mod_1_1domaincommunicator2d__coll__graph_org.svg" target="_base">
           <rect id="button" ry="5" rx="5" y="6" x="6" height="38" width="38"
                fill="#f2f5e9" fill-opacity="0.5" stroke="#606060" stroke-width="1.0"/>
           <path id="arrow"
             d="M 11.500037,31.436501 C 11.940474,20.09759 22.043105,11.32322 32.158766,21.979434 L 37.068811,17.246167 C 37.068811,17.246167 37.088388,32 37.088388,32 L 22.160133,31.978069 C 22.160133,31.978069 26.997745,27.140456 26.997745,27.140456 C 18.528582,18.264221 13.291696,25.230495 11.500037,31.436501 z"
             style="fill:#404040;"/>
          </a>
         </g>
        </svg>
</svg>
