<?xml version="1.0" encoding="UTF-8" standalone="no"?>
<!DOCTYPE svg PUBLIC "-//W3C//DTD SVG 1.1//EN"
 "http://www.w3.org/Graphics/SVG/1.1/DTD/svg11.dtd">
<!-- Generated by graphviz version 2.43.0 (0)
 -->
<!-- Title: coupler_1d_bc_type Pages: 1 -->
<svg width="681pt" height="275pt"
 viewBox="0.00 0.00 680.50 275.00" xmlns="http://www.w3.org/2000/svg" xmlns:xlink="http://www.w3.org/1999/xlink">
<g id="graph0" class="graph" transform="scale(1 1) rotate(0) translate(4 271)">
<title>coupler_1d_bc_type</title>
<polygon fill="white" stroke="transparent" points="-4,4 -4,-271 676.5,-271 676.5,4 -4,4"/>
<!-- Node1 -->
<g id="node1" class="node">
<title>Node1</title>
<g id="a_node1"><a xlink:title="Coupler data for 1D boundary conditions.">
<polygon fill="#bfbfbf" stroke="black" points="307,-0.5 307,-19.5 420,-19.5 420,-0.5 307,-0.5"/>
<text text-anchor="middle" x="363.5" y="-7.5" font-family="Helvetica,sans-Serif" font-size="10.00">coupler_1d_bc_type</text>
</a>
</g>
</g>
<!-- Node2 -->
<g id="node2" class="node">
<title>Node2</title>
<g id="a_node2"><a xlink:title=" ">
<polygon fill="white" stroke="#bfbfbf" points="0,-247.5 0,-266.5 49,-266.5 49,-247.5 0,-247.5"/>
<text text-anchor="middle" x="24.5" y="-254.5" font-family="Helvetica,sans-Serif" font-size="10.00">logical</text>
</a>
</g>
</g>
<!-- Node2&#45;&gt;Node1 -->
<g id="edge1" class="edge">
<title>Node2&#45;&gt;Node1</title>
<path fill="none" stroke="#9a32cd" stroke-dasharray="5,2" d="M19.66,-237.56C14.12,-212.37 8.03,-166.59 26.5,-134 36.98,-115.52 45.64,-114.78 64.5,-105 150.37,-60.49 261.14,-32.47 320.84,-19.5"/>
<polygon fill="#9a32cd" stroke="#9a32cd" points="16.25,-238.38 21.99,-247.29 23.06,-236.75 16.25,-238.38"/>
<text text-anchor="middle" x="74" y="-108" font-family="Helvetica,sans-Serif" font-size="10.00"> set</text>
</g>
<!-- Node3 -->
<g id="node3" class="node">
<title>Node3</title>
<g id="a_node3"><a xlink:href="group__coupler__types__mod.html#structcoupler__types__mod_1_1coupler__1d__field__type" target="_top" xlink:title="Coupler data for 1D fields.">
<polygon fill="white" stroke="black" points="302,-67.5 302,-86.5 425,-86.5 425,-67.5 302,-67.5"/>
<text text-anchor="middle" x="363.5" y="-74.5" font-family="Helvetica,sans-Serif" font-size="10.00">coupler_1d_field_type</text>
</a>
</g>
</g>
<!-- Node2&#45;&gt;Node3 -->
<g id="edge3" class="edge">
<title>Node2&#45;&gt;Node3</title>
<path fill="none" stroke="#9a32cd" stroke-dasharray="5,2" d="M23.21,-237.1C22.49,-210.22 25.48,-161.22 53.5,-134 88.02,-100.47 221.6,-86.57 301.71,-81.16"/>
<polygon fill="#9a32cd" stroke="#9a32cd" points="19.73,-237.61 23.71,-247.43 26.72,-237.28 19.73,-237.61"/>
<text text-anchor="middle" x="109" y="-170" font-family="Helvetica,sans-Serif" font-size="10.00"> use_10m_wind_speed</text>
<text text-anchor="middle" x="109" y="-159" font-family="Helvetica,sans-Serif" font-size="10.00">pass_through_ice</text>
<text text-anchor="middle" x="109" y="-148" font-family="Helvetica,sans-Serif" font-size="10.00">use_atm_pressure</text>
<text text-anchor="middle" x="109" y="-137" font-family="Helvetica,sans-Serif" font-size="10.00">flag</text>
</g>
<!-- Node5 -->
<g id="node5" class="node">
<title>Node5</title>
<g id="a_node5"><a xlink:href="group__coupler__types__mod.html#structcoupler__types__mod_1_1coupler__1d__values__type" target="_top" xlink:title="Coupler data for 1D values.">
<polygon fill="white" stroke="black" points="229.5,-146.5 229.5,-165.5 363.5,-165.5 363.5,-146.5 229.5,-146.5"/>
<text text-anchor="middle" x="296.5" y="-153.5" font-family="Helvetica,sans-Serif" font-size="10.00">coupler_1d_values_type</text>
</a>
</g>
</g>
<!-- Node2&#45;&gt;Node5 -->
<g id="edge6" class="edge">
<title>Node2&#45;&gt;Node5</title>
<path fill="none" stroke="#9a32cd" stroke-dasharray="5,2" d="M50.57,-242.96C77.24,-229.95 120.09,-209.94 158.5,-196 177.87,-188.97 229.87,-174.73 264.22,-165.54"/>
<polygon fill="#9a32cd" stroke="#9a32cd" points="48.94,-239.86 41.51,-247.41 52.03,-246.14 48.94,-239.86"/>
<text text-anchor="middle" x="180.5" y="-221" font-family="Helvetica,sans-Serif" font-size="10.00"> override</text>
<text text-anchor="middle" x="180.5" y="-210" font-family="Helvetica,sans-Serif" font-size="10.00">may_init</text>
<text text-anchor="middle" x="180.5" y="-199" font-family="Helvetica,sans-Serif" font-size="10.00">mean</text>
</g>
<!-- Node3&#45;&gt;Node1 -->
<g id="edge2" class="edge">
<title>Node3&#45;&gt;Node1</title>
<path fill="none" stroke="#9a32cd" stroke-dasharray="5,2" d="M363.5,-57.04C363.5,-44.67 363.5,-29.12 363.5,-19.63"/>
<polygon fill="#9a32cd" stroke="#9a32cd" points="360,-57.23 363.5,-67.23 367,-57.23 360,-57.23"/>
<text text-anchor="middle" x="371" y="-41" font-family="Helvetica,sans-Serif" font-size="10.00"> bc</text>
</g>
<!-- Node4 -->
<g id="node4" class="node">
<title>Node4</title>
<g id="a_node4"><a xlink:title=" ">
<polygon fill="white" stroke="#bfbfbf" points="261,-247.5 261,-266.5 366,-266.5 366,-247.5 261,-247.5"/>
<text text-anchor="middle" x="313.5" y="-254.5" font-family="Helvetica,sans-Serif" font-size="10.00">character(len=48)</text>
</a>
</g>
</g>
<!-- Node4&#45;&gt;Node3 -->
<g id="edge4" class="edge">
<title>Node4&#45;&gt;Node3</title>
<path fill="none" stroke="#9a32cd" stroke-dasharray="5,2" d="M370.12,-242.84C376.14,-239.28 381.51,-234.75 385.5,-229 417.04,-183.49 382.42,-111.65 368.64,-86.8"/>
<polygon fill="#9a32cd" stroke="#9a32cd" points="368.32,-239.83 360.92,-247.41 371.43,-246.1 368.32,-239.83"/>
<text text-anchor="middle" x="413" y="-153.5" font-family="Helvetica,sans-Serif" font-size="10.00"> name</text>
</g>
<!-- Node4&#45;&gt;Node5 -->
<g id="edge7" class="edge">
<title>Node4&#45;&gt;Node5</title>
<path fill="none" stroke="#9a32cd" stroke-dasharray="5,2" d="M286.73,-241.35C282.6,-237.87 278.91,-233.75 276.5,-229 265.69,-207.72 280.75,-179.83 290.08,-165.83"/>
<polygon fill="#9a32cd" stroke="#9a32cd" points="284.83,-244.29 294.99,-247.28 288.91,-238.61 284.83,-244.29"/>
<text text-anchor="middle" x="292" y="-210" font-family="Helvetica,sans-Serif" font-size="10.00"> name</text>
</g>
<!-- Node5&#45;&gt;Node3 -->
<g id="edge5" class="edge">
<title>Node5&#45;&gt;Node3</title>
<path fill="none" stroke="#9a32cd" stroke-dasharray="5,2" d="M310.81,-138.56C324.58,-122.73 344.89,-99.39 355.83,-86.81"/>
<polygon fill="#9a32cd" stroke="#9a32cd" points="307.85,-136.62 303.93,-146.47 313.13,-141.22 307.85,-136.62"/>
<text text-anchor="middle" x="352" y="-108" font-family="Helvetica,sans-Serif" font-size="10.00"> field</text>
</g>
<!-- Node6 -->
<g id="node6" class="node">
<title>Node6</title>
<g id="a_node6"><a xlink:title=" ">
<polygon fill="white" stroke="#bfbfbf" points="393,-247.5 393,-266.5 504,-266.5 504,-247.5 393,-247.5"/>
<text text-anchor="middle" x="448.5" y="-254.5" font-family="Helvetica,sans-Serif" font-size="10.00">character(len=128)</text>
</a>
</g>
</g>
<!-- Node6&#45;&gt;Node3 -->
<g id="edge11" class="edge">
<title>Node6&#45;&gt;Node3</title>
<path fill="none" stroke="#9a32cd" stroke-dasharray="5,2" d="M450.16,-237.34C451.53,-212.2 450.85,-166.83 432.5,-134 420.46,-112.45 396.51,-95.96 380.25,-86.63"/>
<polygon fill="#9a32cd" stroke="#9a32cd" points="446.67,-237.12 449.45,-247.35 453.65,-237.62 446.67,-237.12"/>
<text text-anchor="middle" x="490.5" y="-170" font-family="Helvetica,sans-Serif" font-size="10.00"> ice_restart_file</text>
<text text-anchor="middle" x="490.5" y="-159" font-family="Helvetica,sans-Serif" font-size="10.00">flux_type</text>
<text text-anchor="middle" x="490.5" y="-148" font-family="Helvetica,sans-Serif" font-size="10.00">implementation</text>
<text text-anchor="middle" x="490.5" y="-137" font-family="Helvetica,sans-Serif" font-size="10.00">ocean_restart_file</text>
</g>
<!-- Node6&#45;&gt;Node5 -->
<g id="edge8" class="edge">
<title>Node6&#45;&gt;Node5</title>
<path fill="none" stroke="#9a32cd" stroke-dasharray="5,2" d="M421.8,-242.72C413.86,-238.54 405.22,-233.77 397.5,-229 363.6,-208.07 325.95,-179.79 307.68,-165.71"/>
<polygon fill="#9a32cd" stroke="#9a32cd" points="420.22,-245.84 430.71,-247.31 423.43,-239.62 420.22,-245.84"/>
<text text-anchor="middle" x="425" y="-215.5" font-family="Helvetica,sans-Serif" font-size="10.00"> units</text>
<text text-anchor="middle" x="425" y="-204.5" font-family="Helvetica,sans-Serif" font-size="10.00">long_name</text>
</g>
<!-- Node7 -->
<g id="node7" class="node">
<title>Node7</title>
<g id="a_node7"><a xlink:title=" ">
<polygon fill="white" stroke="#bfbfbf" points="565,-247.5 565,-266.5 616,-266.5 616,-247.5 565,-247.5"/>
<text text-anchor="middle" x="590.5" y="-254.5" font-family="Helvetica,sans-Serif" font-size="10.00">integer</text>
</a>
</g>
</g>
<!-- Node7&#45;&gt;Node1 -->
<g id="edge14" class="edge">
<title>Node7&#45;&gt;Node1</title>
<path fill="none" stroke="#9a32cd" stroke-dasharray="5,2" d="M606.39,-240.24C628.75,-216.1 664.34,-169.09 641.5,-134 592.62,-58.92 486.33,-29.33 420.26,-17.91"/>
<polygon fill="#9a32cd" stroke="#9a32cd" points="603.83,-237.86 599.42,-247.5 608.87,-242.71 603.83,-237.86"/>
<text text-anchor="middle" x="649" y="-108" font-family="Helvetica,sans-Serif" font-size="10.00"> num_bcs</text>
</g>
<!-- Node7&#45;&gt;Node3 -->
<g id="edge13" class="edge">
<title>Node7&#45;&gt;Node3</title>
<path fill="none" stroke="#9a32cd" stroke-dasharray="5,2" d="M588.11,-237.01C583.6,-209.64 571.15,-159.62 538.5,-134 505.62,-108.2 460.57,-94.14 424.41,-86.56"/>
<polygon fill="#9a32cd" stroke="#9a32cd" points="584.69,-237.81 589.59,-247.21 591.62,-236.81 584.69,-237.81"/>
<text text-anchor="middle" x="603.5" y="-159" font-family="Helvetica,sans-Serif" font-size="10.00"> atm_tr_index</text>
<text text-anchor="middle" x="603.5" y="-148" font-family="Helvetica,sans-Serif" font-size="10.00">num_fields</text>
</g>
<!-- Node7&#45;&gt;Node5 -->
<g id="edge9" class="edge">
<title>Node7&#45;&gt;Node5</title>
<path fill="none" stroke="#9a32cd" stroke-dasharray="5,2" d="M565.02,-242.77C538.5,-229.44 495.47,-209.02 456.5,-196 422.35,-184.59 412.49,-186.52 377.5,-178 361.41,-174.08 343.59,-169.49 328.77,-165.6"/>
<polygon fill="#9a32cd" stroke="#9a32cd" points="563.5,-245.92 574,-247.33 566.67,-239.68 563.5,-245.92"/>
<text text-anchor="middle" x="553" y="-210" font-family="Helvetica,sans-Serif" font-size="10.00"> id_diag</text>
</g>
<!-- Node8 -->
<g id="node8" class="node">
<title>Node8</title>
<g id="a_node8"><a xlink:title=" ">
<polygon fill="white" stroke="#bfbfbf" points="174,-247.5 174,-266.5 209,-266.5 209,-247.5 174,-247.5"/>
<text text-anchor="middle" x="191.5" y="-254.5" font-family="Helvetica,sans-Serif" font-size="10.00">real</text>
</a>
</g>
</g>
<!-- Node8&#45;&gt;Node3 -->
<g id="edge12" class="edge">
<title>Node8&#45;&gt;Node3</title>
<path fill="none" stroke="#9a32cd" stroke-dasharray="5,2" d="M183.02,-237.96C172.31,-212.21 157.82,-164.65 180.5,-134 208.16,-96.6 260.3,-83.36 301.87,-79.04"/>
<polygon fill="#9a32cd" stroke="#9a32cd" points="179.89,-239.53 187.13,-247.26 186.29,-236.7 179.89,-239.53"/>
<text text-anchor="middle" x="200.5" y="-159" font-family="Helvetica,sans-Serif" font-size="10.00"> mol_wt</text>
<text text-anchor="middle" x="200.5" y="-148" font-family="Helvetica,sans-Serif" font-size="10.00">param</text>
</g>
<!-- Node8&#45;&gt;Node5 -->
<g id="edge10" class="edge">
<title>Node8&#45;&gt;Node5</title>
<path fill="none" stroke="#9a32cd" stroke-dasharray="5,2" d="M200.7,-238.63C208.09,-225.79 219.37,-208.46 232.5,-196 246,-183.19 264.38,-172.52 277.99,-165.6"/>
<polygon fill="#9a32cd" stroke="#9a32cd" points="197.62,-236.96 195.84,-247.41 203.74,-240.35 197.62,-236.96"/>
<text text-anchor="middle" x="250.5" y="-210" font-family="Helvetica,sans-Serif" font-size="10.00"> values</text>
</g>
</g>
</svg>
