<?xml version="1.0" encoding="UTF-8" standalone="no"?>
<!DOCTYPE svg PUBLIC "-//W3C//DTD SVG 1.1//EN"
 "http://www.w3.org/Graphics/SVG/1.1/DTD/svg11.dtd">
<!-- Generated by graphviz version 2.43.0 (0)
 -->
<!-- Title: drifters_core_type Pages: 1 -->
<svg width="265pt" height="128pt"
 viewBox="0.00 0.00 264.50 128.00" xmlns="http://www.w3.org/2000/svg" xmlns:xlink="http://www.w3.org/1999/xlink">
<g id="graph0" class="graph" transform="scale(1 1) rotate(0) translate(4 124)">
<title>drifters_core_type</title>
<polygon fill="white" stroke="transparent" points="-4,4 -4,-124 260.5,-124 260.5,4 -4,4"/>
<!-- Node1 -->
<g id="node1" class="node">
<title>Node1</title>
<g id="a_node1"><a xlink:title="Core data needed for drifters. Be sure to update drifters_core_new, drifters_core_del and drifters_co...">
<polygon fill="#bfbfbf" stroke="black" points="106.5,-0.5 106.5,-19.5 210.5,-19.5 210.5,-0.5 106.5,-0.5"/>
<text text-anchor="middle" x="158.5" y="-7.5" font-family="Helvetica,sans-Serif" font-size="10.00">drifters_core_type</text>
</a>
</g>
</g>
<!-- Node2 -->
<g id="node2" class="node">
<title>Node2</title>
<g id="a_node2"><a xlink:title=" ">
<polygon fill="white" stroke="#bfbfbf" points="0,-100.5 0,-119.5 123,-119.5 123,-100.5 0,-100.5"/>
<text text-anchor="middle" x="61.5" y="-107.5" font-family="Helvetica,sans-Serif" font-size="10.00">integer(kind=i8_kind)</text>
</a>
</g>
</g>
<!-- Node2&#45;&gt;Node1 -->
<g id="edge1" class="edge">
<title>Node2&#45;&gt;Node1</title>
<path fill="none" stroke="#9a32cd" stroke-dasharray="5,2" d="M77.26,-93.08C98.02,-72.1 133.81,-35.94 150.05,-19.54"/>
<polygon fill="#9a32cd" stroke="#9a32cd" points="74.66,-90.73 70.11,-100.3 79.63,-95.66 74.66,-90.73"/>
<text text-anchor="middle" x="134.5" y="-57.5" font-family="Helvetica,sans-Serif" font-size="10.00"> it</text>
</g>
<!-- Node3 -->
<g id="node3" class="node">
<title>Node3</title>
<g id="a_node3"><a xlink:title=" ">
<polygon fill="white" stroke="#bfbfbf" points="141,-100.5 141,-119.5 176,-119.5 176,-100.5 141,-100.5"/>
<text text-anchor="middle" x="158.5" y="-107.5" font-family="Helvetica,sans-Serif" font-size="10.00">real</text>
</a>
</g>
</g>
<!-- Node3&#45;&gt;Node1 -->
<g id="edge2" class="edge">
<title>Node3&#45;&gt;Node1</title>
<path fill="none" stroke="#9a32cd" stroke-dasharray="5,2" d="M158.5,-90.22C158.5,-68.95 158.5,-35.22 158.5,-19.54"/>
<polygon fill="#9a32cd" stroke="#9a32cd" points="155,-90.3 158.5,-100.3 162,-90.3 155,-90.3"/>
<text text-anchor="middle" x="182.5" y="-57.5" font-family="Helvetica,sans-Serif" font-size="10.00"> positions</text>
</g>
<!-- Node4 -->
<g id="node4" class="node">
<title>Node4</title>
<g id="a_node4"><a xlink:title=" ">
<polygon fill="white" stroke="#bfbfbf" points="204,-100.5 204,-119.5 255,-119.5 255,-100.5 204,-100.5"/>
<text text-anchor="middle" x="229.5" y="-107.5" font-family="Helvetica,sans-Serif" font-size="10.00">integer</text>
</a>
</g>
</g>
<!-- Node4&#45;&gt;Node1 -->
<g id="edge3" class="edge">
<title>Node4&#45;&gt;Node1</title>
<path fill="none" stroke="#9a32cd" stroke-dasharray="5,2" d="M227.58,-90.18C225.16,-74.71 219.7,-52.97 207.5,-38 200.93,-29.94 191.3,-23.91 182.3,-19.61"/>
<polygon fill="#9a32cd" stroke="#9a32cd" points="224.12,-90.68 228.87,-100.15 231.06,-89.79 224.12,-90.68"/>
<text text-anchor="middle" x="241" y="-74" font-family="Helvetica,sans-Serif" font-size="10.00"> ids</text>
<text text-anchor="middle" x="241" y="-63" font-family="Helvetica,sans-Serif" font-size="10.00">nd</text>
<text text-anchor="middle" x="241" y="-52" font-family="Helvetica,sans-Serif" font-size="10.00">np</text>
<text text-anchor="middle" x="241" y="-41" font-family="Helvetica,sans-Serif" font-size="10.00">npdim</text>
</g>
</g>
</svg>
