<?xml version="1.0" encoding="UTF-8" standalone="no"?>
<!DOCTYPE svg PUBLIC "-//W3C//DTD SVG 1.1//EN"
 "http://www.w3.org/Graphics/SVG/1.1/DTD/svg11.dtd">
<!-- Generated by graphviz version 2.43.0 (0)
 -->
<!-- Title: coupler_1d_field_type Pages: 1 -->
<svg width="541pt" height="387pt"
 viewBox="0.00 0.00 541.00 386.76" xmlns="http://www.w3.org/2000/svg" xmlns:xlink="http://www.w3.org/1999/xlink">
<g id="graph0" class="graph" transform="scale(1 1) rotate(0) translate(4 382.76)">
<title>coupler_1d_field_type</title>
<polygon fill="white" stroke="transparent" points="-4,4 -4,-382.76 537,-382.76 537,4 -4,4"/>
<!-- Node1 -->
<g id="node1" class="node">
<title>Node1</title>
<g id="a_node1"><a xlink:title="Coupler data for 1D fields.">
<polygon fill="#bfbfbf" stroke="black" points="410,-185.26 410,-204.26 533,-204.26 533,-185.26 410,-185.26"/>
<text text-anchor="middle" x="471.5" y="-192.26" font-family="Helvetica,sans-Serif" font-size="10.00">coupler_1d_field_type</text>
</a>
</g>
</g>
<!-- Node2 -->
<g id="node2" class="node">
<title>Node2</title>
<g id="a_node2"><a xlink:title=" ">
<polygon fill="white" stroke="#bfbfbf" points="31,-215.26 31,-234.26 80,-234.26 80,-215.26 31,-215.26"/>
<text text-anchor="middle" x="55.5" y="-222.26" font-family="Helvetica,sans-Serif" font-size="10.00">logical</text>
</a>
</g>
</g>
<!-- Node2&#45;&gt;Node1 -->
<g id="edge1" class="edge">
<title>Node2&#45;&gt;Node1</title>
<path fill="none" stroke="#9a32cd" stroke-dasharray="5,2" d="M90.42,-230.42C102.55,-232.19 116.35,-233.9 129,-234.76 238.43,-242.28 366.71,-218.4 430.4,-204.32"/>
<polygon fill="#9a32cd" stroke="#9a32cd" points="90.66,-226.92 80.25,-228.88 89.61,-233.84 90.66,-226.92"/>
<text text-anchor="middle" x="272" y="-270.76" font-family="Helvetica,sans-Serif" font-size="10.00"> flag</text>
<text text-anchor="middle" x="272" y="-259.76" font-family="Helvetica,sans-Serif" font-size="10.00">pass_through_ice</text>
<text text-anchor="middle" x="272" y="-248.76" font-family="Helvetica,sans-Serif" font-size="10.00">use_10m_wind_speed</text>
<text text-anchor="middle" x="272" y="-237.76" font-family="Helvetica,sans-Serif" font-size="10.00">use_atm_pressure</text>
</g>
<!-- Node5 -->
<g id="node5" class="node">
<title>Node5</title>
<g id="a_node5"><a xlink:href="group__coupler__types__mod.html#structcoupler__types__mod_1_1coupler__1d__values__type" target="_top" xlink:title="Coupler data for 1D values.">
<polygon fill="white" stroke="black" points="205,-185.26 205,-204.26 339,-204.26 339,-185.26 205,-185.26"/>
<text text-anchor="middle" x="272" y="-192.26" font-family="Helvetica,sans-Serif" font-size="10.00">coupler_1d_values_type</text>
</a>
</g>
</g>
<!-- Node2&#45;&gt;Node5 -->
<g id="edge5" class="edge">
<title>Node2&#45;&gt;Node5</title>
<path fill="none" stroke="#9a32cd" stroke-dasharray="5,2" d="M89.98,-212.16C102.1,-208.13 116,-204.11 129,-201.76 153.53,-197.34 180.81,-195.32 204.85,-194.49"/>
<polygon fill="#9a32cd" stroke="#9a32cd" points="88.58,-208.94 80.27,-215.51 90.87,-215.55 88.58,-208.94"/>
<text text-anchor="middle" x="158" y="-226.76" font-family="Helvetica,sans-Serif" font-size="10.00"> may_init</text>
<text text-anchor="middle" x="158" y="-215.76" font-family="Helvetica,sans-Serif" font-size="10.00">mean</text>
<text text-anchor="middle" x="158" y="-204.76" font-family="Helvetica,sans-Serif" font-size="10.00">override</text>
</g>
<!-- Node3 -->
<g id="node3" class="node">
<title>Node3</title>
<g id="a_node3"><a xlink:title=" ">
<polygon fill="white" stroke="#bfbfbf" points="219,-307.76 219,-337.76 325,-337.76 325,-307.76 219,-307.76"/>
<text text-anchor="start" x="227" y="-325.76" font-family="Helvetica,sans-Serif" font-size="10.00">real, dimension(:),</text>
<text text-anchor="middle" x="272" y="-314.76" font-family="Helvetica,sans-Serif" font-size="10.00"> pointer</text>
</a>
</g>
</g>
<!-- Node3&#45;&gt;Node1 -->
<g id="edge2" class="edge">
<title>Node3&#45;&gt;Node1</title>
<path fill="none" stroke="#9a32cd" stroke-dasharray="5,2" d="M318.23,-303.25C325.26,-299.92 332.39,-296.36 339,-292.76 387.76,-266.22 438.54,-223.25 459.97,-204.28"/>
<polygon fill="#9a32cd" stroke="#9a32cd" points="316.34,-300.27 308.74,-307.65 319.28,-306.62 316.34,-300.27"/>
<text text-anchor="middle" x="374.5" y="-283.76" font-family="Helvetica,sans-Serif" font-size="10.00"> param</text>
</g>
<!-- Node4 -->
<g id="node4" class="node">
<title>Node4</title>
<g id="a_node4"><a xlink:title=" ">
<polygon fill="white" stroke="#bfbfbf" points="3,-334.26 3,-353.26 108,-353.26 108,-334.26 3,-334.26"/>
<text text-anchor="middle" x="55.5" y="-341.26" font-family="Helvetica,sans-Serif" font-size="10.00">character(len=48)</text>
</a>
</g>
</g>
<!-- Node4&#45;&gt;Node1 -->
<g id="edge3" class="edge">
<title>Node4&#45;&gt;Node1</title>
<path fill="none" stroke="#9a32cd" stroke-dasharray="5,2" d="M104.31,-355.44C162.24,-367.15 261.69,-379.36 339,-347.76 407.74,-319.68 452.81,-233.18 466.27,-204.28"/>
<polygon fill="#9a32cd" stroke="#9a32cd" points="104.84,-351.97 94.34,-353.34 103.4,-358.82 104.84,-351.97"/>
<text text-anchor="middle" x="272" y="-370.76" font-family="Helvetica,sans-Serif" font-size="10.00"> name</text>
</g>
<!-- Node4&#45;&gt;Node5 -->
<g id="edge6" class="edge">
<title>Node4&#45;&gt;Node5</title>
<path fill="none" stroke="#9a32cd" stroke-dasharray="5,2" d="M76.87,-327.88C102.76,-307.57 148.7,-271.16 187,-238.76 195.17,-231.85 195.95,-228.49 205,-222.76 216.78,-215.31 230.89,-209.02 243.03,-204.3"/>
<polygon fill="#9a32cd" stroke="#9a32cd" points="74.62,-325.2 68.9,-334.12 78.93,-330.71 74.62,-325.2"/>
<text text-anchor="middle" x="158" y="-287.76" font-family="Helvetica,sans-Serif" font-size="10.00"> name</text>
</g>
<!-- Node5&#45;&gt;Node1 -->
<g id="edge4" class="edge">
<title>Node5&#45;&gt;Node1</title>
<path fill="none" stroke="#9a32cd" stroke-dasharray="5,2" d="M349.11,-194.76C369.23,-194.76 390.67,-194.76 409.85,-194.76"/>
<polygon fill="#9a32cd" stroke="#9a32cd" points="349.04,-191.26 339.04,-194.76 349.04,-198.26 349.04,-191.26"/>
<text text-anchor="middle" x="374.5" y="-197.76" font-family="Helvetica,sans-Serif" font-size="10.00"> field</text>
</g>
<!-- Node6 -->
<g id="node6" class="node">
<title>Node6</title>
<g id="a_node6"><a xlink:title=" ">
<polygon fill="white" stroke="#bfbfbf" points="0,-127.26 0,-146.26 111,-146.26 111,-127.26 0,-127.26"/>
<text text-anchor="middle" x="55.5" y="-134.26" font-family="Helvetica,sans-Serif" font-size="10.00">character(len=128)</text>
</a>
</g>
</g>
<!-- Node6&#45;&gt;Node1 -->
<g id="edge10" class="edge">
<title>Node6&#45;&gt;Node1</title>
<path fill="none" stroke="#9a32cd" stroke-dasharray="5,2" d="M121.28,-126.92C179.13,-120.18 265.79,-115.13 339,-131.76 384.42,-142.08 432.48,-170.11 455.92,-185.07"/>
<polygon fill="#9a32cd" stroke="#9a32cd" points="120.69,-123.47 111.18,-128.15 121.53,-130.42 120.69,-123.47"/>
<text text-anchor="middle" x="272" y="-167.76" font-family="Helvetica,sans-Serif" font-size="10.00"> flux_type</text>
<text text-anchor="middle" x="272" y="-156.76" font-family="Helvetica,sans-Serif" font-size="10.00">ice_restart_file</text>
<text text-anchor="middle" x="272" y="-145.76" font-family="Helvetica,sans-Serif" font-size="10.00">implementation</text>
<text text-anchor="middle" x="272" y="-134.76" font-family="Helvetica,sans-Serif" font-size="10.00">ocean_restart_file</text>
</g>
<!-- Node6&#45;&gt;Node5 -->
<g id="edge7" class="edge">
<title>Node6&#45;&gt;Node5</title>
<path fill="none" stroke="#9a32cd" stroke-dasharray="5,2" d="M108.09,-148.66C132.16,-154.41 161.13,-161.6 187,-168.76 205.24,-173.82 225.52,-180.08 241.58,-185.19"/>
<polygon fill="#9a32cd" stroke="#9a32cd" points="108.64,-145.2 98.1,-146.3 107.02,-152.01 108.64,-145.2"/>
<text text-anchor="middle" x="158" y="-182.76" font-family="Helvetica,sans-Serif" font-size="10.00"> long_name</text>
<text text-anchor="middle" x="158" y="-171.76" font-family="Helvetica,sans-Serif" font-size="10.00">units</text>
</g>
<!-- Node7 -->
<g id="node7" class="node">
<title>Node7</title>
<g id="a_node7"><a xlink:title=" ">
<polygon fill="white" stroke="#bfbfbf" points="30,-73.26 30,-92.26 81,-92.26 81,-73.26 30,-73.26"/>
<text text-anchor="middle" x="55.5" y="-80.26" font-family="Helvetica,sans-Serif" font-size="10.00">integer</text>
</a>
</g>
</g>
<!-- Node7&#45;&gt;Node1 -->
<g id="edge12" class="edge">
<title>Node7&#45;&gt;Node1</title>
<path fill="none" stroke="#9a32cd" stroke-dasharray="5,2" d="M77.9,-67.6C91.75,-58.74 110.58,-48.4 129,-43.76 154,-37.47 161.56,-39.61 187,-43.76 257.33,-55.25 275.76,-61.92 339,-94.76 364.95,-108.24 368.67,-116.12 392,-133.76 415.68,-151.67 442.97,-173.05 458.34,-185.16"/>
<polygon fill="#9a32cd" stroke="#9a32cd" points="75.95,-64.69 69.56,-73.14 79.83,-70.52 75.95,-64.69"/>
<text text-anchor="middle" x="272" y="-108.76" font-family="Helvetica,sans-Serif" font-size="10.00"> atm_tr_index</text>
<text text-anchor="middle" x="272" y="-97.76" font-family="Helvetica,sans-Serif" font-size="10.00">num_fields</text>
</g>
<!-- Node7&#45;&gt;Node5 -->
<g id="edge8" class="edge">
<title>Node7&#45;&gt;Node5</title>
<path fill="none" stroke="#9a32cd" stroke-dasharray="5,2" d="M91.07,-91.36C119.48,-99.83 159.39,-115.14 187,-139.76 198.89,-150.37 192.78,-160.54 205,-170.76 212.48,-177.02 221.73,-181.71 230.91,-185.21"/>
<polygon fill="#9a32cd" stroke="#9a32cd" points="91.75,-87.91 81.17,-88.54 89.83,-94.64 91.75,-87.91"/>
<text text-anchor="middle" x="158" y="-142.76" font-family="Helvetica,sans-Serif" font-size="10.00"> id_diag</text>
</g>
<!-- Node8 -->
<g id="node8" class="node">
<title>Node8</title>
<g id="a_node8"><a xlink:title=" ">
<polygon fill="white" stroke="#bfbfbf" points="38,-3.26 38,-22.26 73,-22.26 73,-3.26 38,-3.26"/>
<text text-anchor="middle" x="55.5" y="-10.26" font-family="Helvetica,sans-Serif" font-size="10.00">real</text>
</a>
</g>
</g>
<!-- Node8&#45;&gt;Node1 -->
<g id="edge11" class="edge">
<title>Node8&#45;&gt;Node1</title>
<path fill="none" stroke="#9a32cd" stroke-dasharray="5,2" d="M83.14,-7.99C135.55,0.03 254.3,11.31 339,-32.76 407.12,-68.21 452.6,-156.05 466.22,-185.19"/>
<polygon fill="#9a32cd" stroke="#9a32cd" points="82.32,-4.58 73,-9.63 83.43,-11.49 82.32,-4.58"/>
<text text-anchor="middle" x="272" y="-35.76" font-family="Helvetica,sans-Serif" font-size="10.00"> mol_wt</text>
</g>
<!-- Node8&#45;&gt;Node5 -->
<g id="edge9" class="edge">
<title>Node8&#45;&gt;Node5</title>
<path fill="none" stroke="#9a32cd" stroke-dasharray="5,2" d="M82.85,-21.31C112.82,-32.43 160.97,-54.81 187,-90.76 208.37,-120.28 180.92,-143.41 205,-170.76 210.56,-177.08 217.91,-181.73 225.7,-185.16"/>
<polygon fill="#9a32cd" stroke="#9a32cd" points="83.67,-17.89 73.07,-17.84 81.33,-24.49 83.67,-17.89"/>
<text text-anchor="middle" x="158" y="-93.76" font-family="Helvetica,sans-Serif" font-size="10.00"> values</text>
</g>
</g>
</svg>
