<?xml version="1.0" encoding="UTF-8" standalone="no"?>
<!DOCTYPE svg PUBLIC "-//W3C//DTD SVG 1.1//EN"
 "http://www.w3.org/Graphics/SVG/1.1/DTD/svg11.dtd">
<!-- Generated by graphviz version 2.43.0 (0)
 -->
<!-- Title: tracer_name_type Pages: 1 -->
<svg width="250pt" height="117pt"
 viewBox="0.00 0.00 249.50 117.00" xmlns="http://www.w3.org/2000/svg" xmlns:xlink="http://www.w3.org/1999/xlink">
<g id="graph0" class="graph" transform="scale(1 1) rotate(0) translate(4 113)">
<title>tracer_name_type</title>
<polygon fill="white" stroke="transparent" points="-4,4 -4,-113 245.5,-113 245.5,4 -4,4"/>
<!-- Node1 -->
<g id="node1" class="node">
<title>Node1</title>
<g id="a_node1"><a xlink:title="Private type to holds string data for a tracer.">
<polygon fill="#bfbfbf" stroke="black" points="66,-0.5 66,-19.5 171,-19.5 171,-0.5 66,-0.5"/>
<text text-anchor="middle" x="118.5" y="-7.5" font-family="Helvetica,sans-Serif" font-size="10.00">tracer_name_type</text>
</a>
</g>
</g>
<!-- Node2 -->
<g id="node2" class="node">
<title>Node2</title>
<g id="a_node2"><a xlink:title=" ">
<polygon fill="white" stroke="#bfbfbf" points="0,-89.5 0,-108.5 111,-108.5 111,-89.5 0,-89.5"/>
<text text-anchor="middle" x="55.5" y="-96.5" font-family="Helvetica,sans-Serif" font-size="10.00">character(len=128)</text>
</a>
</g>
</g>
<!-- Node2&#45;&gt;Node1 -->
<g id="edge1" class="edge">
<title>Node2&#45;&gt;Node1</title>
<path fill="none" stroke="#9a32cd" stroke-dasharray="5,2" d="M57.52,-79.4C59.7,-66.65 64.21,-49.95 73.5,-38 79.65,-30.09 88.83,-23.99 97.29,-19.61"/>
<polygon fill="#9a32cd" stroke="#9a32cd" points="54.04,-78.98 56.14,-89.36 60.98,-79.93 54.04,-78.98"/>
<text text-anchor="middle" x="116.5" y="-52" font-family="Helvetica,sans-Serif" font-size="10.00"> tracer_longname</text>
</g>
<!-- Node3 -->
<g id="node3" class="node">
<title>Node3</title>
<g id="a_node3"><a xlink:title=" ">
<polygon fill="white" stroke="#bfbfbf" points="129,-89.5 129,-108.5 234,-108.5 234,-89.5 129,-89.5"/>
<text text-anchor="middle" x="181.5" y="-96.5" font-family="Helvetica,sans-Serif" font-size="10.00">character(len=32)</text>
</a>
</g>
</g>
<!-- Node3&#45;&gt;Node1 -->
<g id="edge2" class="edge">
<title>Node3&#45;&gt;Node1</title>
<path fill="none" stroke="#9a32cd" stroke-dasharray="5,2" d="M177.93,-79.49C174.76,-66.79 169.09,-50.11 159.5,-38 153.47,-30.38 144.68,-24.2 136.78,-19.68"/>
<polygon fill="#9a32cd" stroke="#9a32cd" points="174.55,-80.4 180.11,-89.41 181.38,-78.9 174.55,-80.4"/>
<text text-anchor="middle" x="208" y="-63" font-family="Helvetica,sans-Serif" font-size="10.00"> model_name</text>
<text text-anchor="middle" x="208" y="-52" font-family="Helvetica,sans-Serif" font-size="10.00">tracer_name</text>
<text text-anchor="middle" x="208" y="-41" font-family="Helvetica,sans-Serif" font-size="10.00">tracer_units</text>
</g>
</g>
</svg>
