<?xml version="1.0" encoding="UTF-8" standalone="no"?>
<!DOCTYPE svg PUBLIC "-//W3C//DTD SVG 1.1//EN"
 "http://www.w3.org/Graphics/SVG/1.1/DTD/svg11.dtd">
<!-- Generated by graphviz version 2.43.0 (0)
 -->
<!-- Title: fm_list_iter_type Pages: 1 -->
<svg width="532pt" height="263pt"
 viewBox="0.00 0.00 531.50 263.00" xmlns="http://www.w3.org/2000/svg" xmlns:xlink="http://www.w3.org/1999/xlink">
<g id="graph0" class="graph" transform="scale(1 1) rotate(0) translate(4 259)">
<title>fm_list_iter_type</title>
<polygon fill="white" stroke="transparent" points="-4,4 -4,-259 527.5,-259 527.5,4 -4,4"/>
<!-- Node1 -->
<g id="node1" class="node">
<title>Node1</title>
<g id="a_node1"><a xlink:title="Iterator over the field manager list.">
<polygon fill="#bfbfbf" stroke="black" points="245,-0.5 245,-19.5 344,-19.5 344,-0.5 245,-0.5"/>
<text text-anchor="middle" x="294.5" y="-7.5" font-family="Helvetica,sans-Serif" font-size="10.00">fm_list_iter_type</text>
</a>
</g>
</g>
<!-- Node2 -->
<g id="node2" class="node">
<title>Node2</title>
<g id="a_node2"><a xlink:href="group__field__manager__mod.html#structfield__manager__mod_1_1field__def" target="_top" xlink:title="Private type for internal use.">
<polygon fill="white" stroke="black" points="265,-85 265,-104 324,-104 324,-85 265,-85"/>
<text text-anchor="middle" x="294.5" y="-92" font-family="Helvetica,sans-Serif" font-size="10.00">field_def</text>
</a>
</g>
</g>
<!-- Node2&#45;&gt;Node1 -->
<g id="edge1" class="edge">
<title>Node2&#45;&gt;Node1</title>
<path fill="none" stroke="#9a32cd" stroke-dasharray="5,2" d="M294.5,-74.93C294.5,-57.63 294.5,-32.61 294.5,-19.6"/>
<polygon fill="#9a32cd" stroke="#9a32cd" points="291,-74.98 294.5,-84.98 298,-74.98 291,-74.98"/>
<text text-anchor="middle" x="303" y="-41" font-family="Helvetica,sans-Serif" font-size="10.00"> ptr</text>
</g>
<!-- Node2&#45;&gt;Node2 -->
<g id="edge4" class="edge">
<title>Node2&#45;&gt;Node2</title>
<path fill="none" stroke="#9a32cd" stroke-dasharray="5,2" d="M334.17,-102.56C338.91,-101.09 342,-98.41 342,-94.5 342,-88.25 334.08,-85.12 324.19,-85.12"/>
<polygon fill="#9a32cd" stroke="#9a32cd" points="333.64,-99.1 324.19,-103.88 334.56,-106.04 333.64,-99.1"/>
<text text-anchor="middle" x="365" y="-114" font-family="Helvetica,sans-Serif" font-size="10.00"> prev</text>
<text text-anchor="middle" x="365" y="-103" font-family="Helvetica,sans-Serif" font-size="10.00">last_field</text>
<text text-anchor="middle" x="365" y="-92" font-family="Helvetica,sans-Serif" font-size="10.00">next</text>
<text text-anchor="middle" x="365" y="-81" font-family="Helvetica,sans-Serif" font-size="10.00">first_field</text>
<text text-anchor="middle" x="365" y="-70" font-family="Helvetica,sans-Serif" font-size="10.00">parent</text>
</g>
<!-- Node3 -->
<g id="node3" class="node">
<title>Node3</title>
<g id="a_node3"><a xlink:title=" ">
<polygon fill="white" stroke="#bfbfbf" points="0,-230 0,-249 49,-249 49,-230 0,-230"/>
<text text-anchor="middle" x="24.5" y="-237" font-family="Helvetica,sans-Serif" font-size="10.00">logical</text>
</a>
</g>
</g>
<!-- Node3&#45;&gt;Node2 -->
<g id="edge2" class="edge">
<title>Node3&#45;&gt;Node2</title>
<path fill="none" stroke="#9a32cd" stroke-dasharray="5,2" d="M37.5,-221.83C55.56,-199.82 90.35,-161.34 128.5,-140 172.38,-115.45 230.41,-103.94 264.96,-98.94"/>
<polygon fill="#9a32cd" stroke="#9a32cd" points="34.55,-219.92 31.02,-229.91 40.01,-224.3 34.55,-219.92"/>
<text text-anchor="middle" x="148" y="-170.5" font-family="Helvetica,sans-Serif" font-size="10.00"> l_value</text>
</g>
<!-- Node4 -->
<g id="node4" class="node">
<title>Node4</title>
<g id="a_node4"><a xlink:title=" ">
<polygon fill="white" stroke="#bfbfbf" points="67,-224.5 67,-254.5 196,-254.5 196,-224.5 67,-224.5"/>
<text text-anchor="start" x="75" y="-242.5" font-family="Helvetica,sans-Serif" font-size="10.00">character(len=fm_field</text>
<text text-anchor="middle" x="131.5" y="-231.5" font-family="Helvetica,sans-Serif" font-size="10.00">_name_len)</text>
</a>
</g>
</g>
<!-- Node4&#45;&gt;Node2 -->
<g id="edge3" class="edge">
<title>Node4&#45;&gt;Node2</title>
<path fill="none" stroke="#9a32cd" stroke-dasharray="5,2" d="M155.39,-217.54C191.66,-185.72 259.1,-126.56 284.49,-104.28"/>
<polygon fill="#9a32cd" stroke="#9a32cd" points="152.93,-215.04 147.72,-224.27 157.55,-220.3 152.93,-215.04"/>
<text text-anchor="middle" x="257" y="-170.5" font-family="Helvetica,sans-Serif" font-size="10.00"> name</text>
</g>
<!-- Node5 -->
<g id="node5" class="node">
<title>Node5</title>
<g id="a_node5"><a xlink:title=" ">
<polygon fill="white" stroke="#bfbfbf" points="214.5,-230 214.5,-249 374.5,-249 374.5,-230 214.5,-230"/>
<text text-anchor="middle" x="294.5" y="-237" font-family="Helvetica,sans-Serif" font-size="10.00">character(len=fm_string_len)</text>
</a>
</g>
</g>
<!-- Node5&#45;&gt;Node2 -->
<g id="edge5" class="edge">
<title>Node5&#45;&gt;Node2</title>
<path fill="none" stroke="#9a32cd" stroke-dasharray="5,2" d="M294.5,-219.6C294.5,-188.27 294.5,-126.81 294.5,-104.15"/>
<polygon fill="#9a32cd" stroke="#9a32cd" points="291,-219.98 294.5,-229.98 298,-219.98 291,-219.98"/>
<text text-anchor="middle" x="315" y="-170.5" font-family="Helvetica,sans-Serif" font-size="10.00"> s_value</text>
</g>
<!-- Node6 -->
<g id="node6" class="node">
<title>Node6</title>
<g id="a_node6"><a xlink:title=" ">
<polygon fill="white" stroke="#bfbfbf" points="393,-230 393,-249 428,-249 428,-230 393,-230"/>
<text text-anchor="middle" x="410.5" y="-237" font-family="Helvetica,sans-Serif" font-size="10.00">real</text>
</a>
</g>
</g>
<!-- Node6&#45;&gt;Node2 -->
<g id="edge6" class="edge">
<title>Node6&#45;&gt;Node2</title>
<path fill="none" stroke="#9a32cd" stroke-dasharray="5,2" d="M399.55,-221.56C386.24,-201.41 362.69,-167.1 339.5,-140 328.21,-126.81 313.72,-112.95 304.27,-104.27"/>
<polygon fill="#9a32cd" stroke="#9a32cd" points="396.65,-223.52 405.05,-229.98 402.51,-219.69 396.65,-223.52"/>
<text text-anchor="middle" x="407.5" y="-170.5" font-family="Helvetica,sans-Serif" font-size="10.00"> r_value</text>
</g>
<!-- Node7 -->
<g id="node7" class="node">
<title>Node7</title>
<g id="a_node7"><a xlink:title=" ">
<polygon fill="white" stroke="#bfbfbf" points="447,-230 447,-249 498,-249 498,-230 447,-230"/>
<text text-anchor="middle" x="472.5" y="-237" font-family="Helvetica,sans-Serif" font-size="10.00">integer</text>
</a>
</g>
</g>
<!-- Node7&#45;&gt;Node2 -->
<g id="edge7" class="edge">
<title>Node7&#45;&gt;Node2</title>
<path fill="none" stroke="#9a32cd" stroke-dasharray="5,2" d="M469.52,-219.64C465.06,-197.55 454.57,-161.29 431.5,-140 401.63,-112.44 354.48,-101.94 324.02,-97.94"/>
<polygon fill="#9a32cd" stroke="#9a32cd" points="466.12,-220.52 471.34,-229.74 473.01,-219.28 466.12,-220.52"/>
<text text-anchor="middle" x="494.5" y="-198" font-family="Helvetica,sans-Serif" font-size="10.00"> max_index</text>
<text text-anchor="middle" x="494.5" y="-187" font-family="Helvetica,sans-Serif" font-size="10.00">array_dim</text>
<text text-anchor="middle" x="494.5" y="-176" font-family="Helvetica,sans-Serif" font-size="10.00">i_value</text>
<text text-anchor="middle" x="494.5" y="-165" font-family="Helvetica,sans-Serif" font-size="10.00">length</text>
<text text-anchor="middle" x="494.5" y="-154" font-family="Helvetica,sans-Serif" font-size="10.00">field_type</text>
<text text-anchor="middle" x="494.5" y="-143" font-family="Helvetica,sans-Serif" font-size="10.00">index</text>
</g>
</g>
</svg>
