<?xml version="1.0" encoding="UTF-8" standalone="no"?>
<!DOCTYPE svg PUBLIC "-//W3C//DTD SVG 1.1//EN"
 "http://www.w3.org/Graphics/SVG/1.1/DTD/svg11.dtd">
<!-- Generated by graphviz version 2.43.0 (0)
 -->
<!-- Title: coupler_3d_values_type Pages: 1 -->
<svg width="441pt" height="117pt"
 viewBox="0.00 0.00 440.50 117.00" xmlns="http://www.w3.org/2000/svg" xmlns:xlink="http://www.w3.org/1999/xlink">
<g id="graph0" class="graph" transform="scale(1 1) rotate(0) translate(4 113)">
<title>coupler_3d_values_type</title>
<polygon fill="white" stroke="transparent" points="-4,4 -4,-113 436.5,-113 436.5,4 -4,4"/>
<!-- Node1 -->
<g id="node1" class="node">
<title>Node1</title>
<g id="a_node1"><a xlink:title="Coupler data for 3D values.">
<polygon fill="#bfbfbf" stroke="black" points="178.5,-0.5 178.5,-19.5 312.5,-19.5 312.5,-0.5 178.5,-0.5"/>
<text text-anchor="middle" x="245.5" y="-7.5" font-family="Helvetica,sans-Serif" font-size="10.00">coupler_3d_values_type</text>
</a>
</g>
</g>
<!-- Node2 -->
<g id="node2" class="node">
<title>Node2</title>
<g id="a_node2"><a xlink:title=" ">
<polygon fill="white" stroke="#bfbfbf" points="0,-89.5 0,-108.5 49,-108.5 49,-89.5 0,-89.5"/>
<text text-anchor="middle" x="24.5" y="-96.5" font-family="Helvetica,sans-Serif" font-size="10.00">logical</text>
</a>
</g>
</g>
<!-- Node2&#45;&gt;Node1 -->
<g id="edge1" class="edge">
<title>Node2&#45;&gt;Node1</title>
<path fill="none" stroke="#9a32cd" stroke-dasharray="5,2" d="M41.74,-82.5C58.04,-68.7 83.77,-49.04 109.5,-38 131.07,-28.75 155.94,-22.62 178.46,-18.59"/>
<polygon fill="#9a32cd" stroke="#9a32cd" points="39.39,-79.91 34.13,-89.11 43.98,-85.2 39.39,-79.91"/>
<text text-anchor="middle" x="132.5" y="-63" font-family="Helvetica,sans-Serif" font-size="10.00"> may_init</text>
<text text-anchor="middle" x="132.5" y="-52" font-family="Helvetica,sans-Serif" font-size="10.00">mean</text>
<text text-anchor="middle" x="132.5" y="-41" font-family="Helvetica,sans-Serif" font-size="10.00">override</text>
</g>
<!-- Node3 -->
<g id="node3" class="node">
<title>Node3</title>
<g id="a_node3"><a xlink:title=" ">
<polygon fill="white" stroke="#bfbfbf" points="67,-89.5 67,-108.5 172,-108.5 172,-89.5 67,-89.5"/>
<text text-anchor="middle" x="119.5" y="-96.5" font-family="Helvetica,sans-Serif" font-size="10.00">character(len=48)</text>
</a>
</g>
</g>
<!-- Node3&#45;&gt;Node1 -->
<g id="edge2" class="edge">
<title>Node3&#45;&gt;Node1</title>
<path fill="none" stroke="#9a32cd" stroke-dasharray="5,2" d="M140.57,-83.45C166.99,-65.21 211.44,-34.52 233.01,-19.62"/>
<polygon fill="#9a32cd" stroke="#9a32cd" points="138.28,-80.78 132.04,-89.34 142.26,-86.54 138.28,-80.78"/>
<text text-anchor="middle" x="220" y="-52" font-family="Helvetica,sans-Serif" font-size="10.00"> name</text>
</g>
<!-- Node4 -->
<g id="node4" class="node">
<title>Node4</title>
<g id="a_node4"><a xlink:title=" ">
<polygon fill="white" stroke="#bfbfbf" points="190,-89.5 190,-108.5 301,-108.5 301,-89.5 190,-89.5"/>
<text text-anchor="middle" x="245.5" y="-96.5" font-family="Helvetica,sans-Serif" font-size="10.00">character(len=128)</text>
</a>
</g>
</g>
<!-- Node4&#45;&gt;Node1 -->
<g id="edge3" class="edge">
<title>Node4&#45;&gt;Node1</title>
<path fill="none" stroke="#9a32cd" stroke-dasharray="5,2" d="M245.5,-79.19C245.5,-60.74 245.5,-33.41 245.5,-19.62"/>
<polygon fill="#9a32cd" stroke="#9a32cd" points="242,-79.34 245.5,-89.34 249,-79.34 242,-79.34"/>
<text text-anchor="middle" x="274.5" y="-57.5" font-family="Helvetica,sans-Serif" font-size="10.00"> long_name</text>
<text text-anchor="middle" x="274.5" y="-46.5" font-family="Helvetica,sans-Serif" font-size="10.00">units</text>
</g>
<!-- Node5 -->
<g id="node5" class="node">
<title>Node5</title>
<g id="a_node5"><a xlink:title=" ">
<polygon fill="white" stroke="#bfbfbf" points="319,-89.5 319,-108.5 370,-108.5 370,-89.5 319,-89.5"/>
<text text-anchor="middle" x="344.5" y="-96.5" font-family="Helvetica,sans-Serif" font-size="10.00">integer</text>
</a>
</g>
</g>
<!-- Node5&#45;&gt;Node1 -->
<g id="edge4" class="edge">
<title>Node5&#45;&gt;Node1</title>
<path fill="none" stroke="#9a32cd" stroke-dasharray="5,2" d="M336.84,-79.68C330.58,-66.61 320.63,-49.39 307.5,-38 298.1,-29.85 285.85,-23.82 274.73,-19.55"/>
<polygon fill="#9a32cd" stroke="#9a32cd" points="333.77,-81.4 341.05,-89.09 340.16,-78.53 333.77,-81.4"/>
<text text-anchor="middle" x="351" y="-57.5" font-family="Helvetica,sans-Serif" font-size="10.00"> id_diag</text>
<text text-anchor="middle" x="351" y="-46.5" font-family="Helvetica,sans-Serif" font-size="10.00">id_rest</text>
</g>
<!-- Node6 -->
<g id="node6" class="node">
<title>Node6</title>
<g id="a_node6"><a xlink:title=" ">
<polygon fill="white" stroke="#bfbfbf" points="388,-89.5 388,-108.5 423,-108.5 423,-89.5 388,-89.5"/>
<text text-anchor="middle" x="405.5" y="-96.5" font-family="Helvetica,sans-Serif" font-size="10.00">real</text>
</a>
</g>
</g>
<!-- Node6&#45;&gt;Node1 -->
<g id="edge5" class="edge">
<title>Node6&#45;&gt;Node1</title>
<path fill="none" stroke="#9a32cd" stroke-dasharray="5,2" d="M400.57,-79.35C396.02,-65.83 387.9,-48.19 374.5,-38 356.83,-24.57 334.03,-17.44 312.53,-13.76"/>
<polygon fill="#9a32cd" stroke="#9a32cd" points="397.27,-80.52 403.48,-89.1 403.97,-78.51 397.27,-80.52"/>
<text text-anchor="middle" x="414.5" y="-52" font-family="Helvetica,sans-Serif" font-size="10.00"> values</text>
</g>
</g>
</svg>
