<?xml version="1.0" encoding="UTF-8" standalone="no"?>
<!DOCTYPE svg PUBLIC "-//W3C//DTD SVG 1.1//EN"
 "http://www.w3.org/Graphics/SVG/1.1/DTD/svg11.dtd">
<!-- Generated by graphviz version 2.43.0 (0)
 -->
<!-- Title: bc_information Pages: 1 -->
<svg width="375pt" height="349pt"
 viewBox="0.00 0.00 375.00 348.50" xmlns="http://www.w3.org/2000/svg" xmlns:xlink="http://www.w3.org/1999/xlink">
<g id="graph0" class="graph" transform="scale(1 1) rotate(0) translate(4 344.5)">
<title>bc_information</title>
<polygon fill="white" stroke="transparent" points="-4,4 -4,-344.5 371,-344.5 371,4 -4,4"/>
<!-- Node1 -->
<g id="node1" class="node">
<title>Node1</title>
<g id="a_node1"><a xlink:title="information needed fr regional restart variables">
<polygon fill="#bfbfbf" stroke="black" points="277,-194 277,-213 367,-213 367,-194 277,-194"/>
<text text-anchor="middle" x="322" y="-201" font-family="Helvetica,sans-Serif" font-size="10.00">bc_information</text>
</a>
</g>
</g>
<!-- Node2 -->
<g id="node2" class="node">
<title>Node2</title>
<g id="a_node2"><a xlink:title=" ">
<polygon fill="white" stroke="#bfbfbf" points="52,-321 52,-340 101,-340 101,-321 52,-321"/>
<text text-anchor="middle" x="76.5" y="-328" font-family="Helvetica,sans-Serif" font-size="10.00">logical</text>
</a>
</g>
</g>
<!-- Node2&#45;&gt;Node1 -->
<g id="edge1" class="edge">
<title>Node2&#45;&gt;Node1</title>
<path fill="none" stroke="#9a32cd" stroke-dasharray="5,2" d="M111.43,-328.31C150.04,-324.4 213.6,-313.56 259,-283.5 286.84,-265.07 307.51,-229.93 316.31,-213.03"/>
<polygon fill="#9a32cd" stroke="#9a32cd" points="110.88,-324.84 101.24,-329.24 111.52,-331.82 110.88,-324.84"/>
<text text-anchor="middle" x="215" y="-331.5" font-family="Helvetica,sans-Serif" font-size="10.00"> data_on_file_root</text>
<text text-anchor="middle" x="215" y="-320.5" font-family="Helvetica,sans-Serif" font-size="10.00">is_root_pe</text>
</g>
<!-- Node3 -->
<g id="node3" class="node">
<title>Node3</title>
<g id="a_node3"><a xlink:title=" ">
<polygon fill="white" stroke="#bfbfbf" points="3,-271.5 3,-301.5 150,-301.5 150,-271.5 3,-271.5"/>
<text text-anchor="start" x="11" y="-289.5" font-family="Helvetica,sans-Serif" font-size="10.00">real(kind=r8_kind),</text>
<text text-anchor="middle" x="76.5" y="-278.5" font-family="Helvetica,sans-Serif" font-size="10.00"> dimension(:,:), allocatable</text>
</a>
</g>
</g>
<!-- Node3&#45;&gt;Node1 -->
<g id="edge2" class="edge">
<title>Node3&#45;&gt;Node1</title>
<path fill="none" stroke="#9a32cd" stroke-dasharray="5,2" d="M160.33,-271.58C191.91,-264.45 227.79,-254.56 259,-241.5 276.93,-233.99 295.73,-221.77 307.86,-213.22"/>
<polygon fill="#9a32cd" stroke="#9a32cd" points="159.26,-268.23 150.25,-273.8 160.76,-275.07 159.26,-268.23"/>
<text text-anchor="middle" x="215" y="-271.5" font-family="Helvetica,sans-Serif" font-size="10.00"> globaldata2d_r8</text>
</g>
<!-- Node4 -->
<g id="node4" class="node">
<title>Node4</title>
<g id="a_node4"><a xlink:title=" ">
<polygon fill="white" stroke="#bfbfbf" points="0,-222.5 0,-252.5 153,-252.5 153,-222.5 0,-222.5"/>
<text text-anchor="start" x="8" y="-240.5" font-family="Helvetica,sans-Serif" font-size="10.00">real(kind=r8_kind),</text>
<text text-anchor="middle" x="76.5" y="-229.5" font-family="Helvetica,sans-Serif" font-size="10.00"> dimension(:,:,:), allocatable</text>
</a>
</g>
</g>
<!-- Node4&#45;&gt;Node1 -->
<g id="edge3" class="edge">
<title>Node4&#45;&gt;Node1</title>
<path fill="none" stroke="#9a32cd" stroke-dasharray="5,2" d="M163.28,-228.36C193.59,-224.8 227.87,-220.39 259,-215.5 264.74,-214.6 270.76,-213.55 276.7,-212.47"/>
<polygon fill="#9a32cd" stroke="#9a32cd" points="162.7,-224.91 153.17,-229.54 163.5,-231.86 162.7,-224.91"/>
<text text-anchor="middle" x="215" y="-229.5" font-family="Helvetica,sans-Serif" font-size="10.00"> globaldata3d_r8</text>
</g>
<!-- Node5 -->
<g id="node5" class="node">
<title>Node5</title>
<g id="a_node5"><a xlink:title=" ">
<polygon fill="white" stroke="#bfbfbf" points="24,-184 24,-203 129,-203 129,-184 24,-184"/>
<text text-anchor="middle" x="76.5" y="-191" font-family="Helvetica,sans-Serif" font-size="10.00">character(len=32)</text>
</a>
</g>
</g>
<!-- Node5&#45;&gt;Node1 -->
<g id="edge4" class="edge">
<title>Node5&#45;&gt;Node1</title>
<path fill="none" stroke="#9a32cd" stroke-dasharray="5,2" d="M139.19,-196.03C182.1,-197.8 238.29,-200.1 276.78,-201.68"/>
<polygon fill="#9a32cd" stroke="#9a32cd" points="139.28,-192.53 129.14,-195.62 138.99,-199.53 139.28,-192.53"/>
<text text-anchor="middle" x="215" y="-203.5" font-family="Helvetica,sans-Serif" font-size="10.00"> chksum</text>
</g>
<!-- Node6 -->
<g id="node6" class="node">
<title>Node6</title>
<g id="a_node6"><a xlink:title=" ">
<polygon fill="white" stroke="#bfbfbf" points="51,-99 51,-118 102,-118 102,-99 51,-99"/>
<text text-anchor="middle" x="76.5" y="-106" font-family="Helvetica,sans-Serif" font-size="10.00">integer</text>
</a>
</g>
</g>
<!-- Node6&#45;&gt;Node1 -->
<g id="edge5" class="edge">
<title>Node6&#45;&gt;Node1</title>
<path fill="none" stroke="#9a32cd" stroke-dasharray="5,2" d="M112.35,-101.44C150.76,-95.53 213.15,-91.58 259,-116.5 290.78,-133.77 310.12,-175.21 317.53,-193.98"/>
<polygon fill="#9a32cd" stroke="#9a32cd" points="111.48,-98.04 102.19,-103.14 112.63,-104.94 111.48,-98.04"/>
<text text-anchor="middle" x="215" y="-185.5" font-family="Helvetica,sans-Serif" font-size="10.00"> global_size</text>
<text text-anchor="middle" x="215" y="-174.5" font-family="Helvetica,sans-Serif" font-size="10.00">indices</text>
<text text-anchor="middle" x="215" y="-163.5" font-family="Helvetica,sans-Serif" font-size="10.00">ishift</text>
<text text-anchor="middle" x="215" y="-152.5" font-family="Helvetica,sans-Serif" font-size="10.00">jshift</text>
<text text-anchor="middle" x="215" y="-141.5" font-family="Helvetica,sans-Serif" font-size="10.00">pelist</text>
<text text-anchor="middle" x="215" y="-130.5" font-family="Helvetica,sans-Serif" font-size="10.00">x_halo</text>
<text text-anchor="middle" x="215" y="-119.5" font-family="Helvetica,sans-Serif" font-size="10.00">y_halo</text>
</g>
<!-- Node7 -->
<g id="node7" class="node">
<title>Node7</title>
<g id="a_node7"><a xlink:title=" ">
<polygon fill="white" stroke="#bfbfbf" points="0,-49.5 0,-79.5 153,-79.5 153,-49.5 0,-49.5"/>
<text text-anchor="start" x="8" y="-67.5" font-family="Helvetica,sans-Serif" font-size="10.00">real(kind=r4_kind),</text>
<text text-anchor="middle" x="76.5" y="-56.5" font-family="Helvetica,sans-Serif" font-size="10.00"> dimension(:,:,:), allocatable</text>
</a>
</g>
</g>
<!-- Node7&#45;&gt;Node1 -->
<g id="edge6" class="edge">
<title>Node7&#45;&gt;Node1</title>
<path fill="none" stroke="#9a32cd" stroke-dasharray="5,2" d="M163.65,-55.77C195.96,-56.59 231.49,-62.8 259,-81.5 299.08,-108.75 314.65,-170.04 319.33,-193.82"/>
<polygon fill="#9a32cd" stroke="#9a32cd" points="163.31,-52.26 153.28,-55.68 163.25,-59.26 163.31,-52.26"/>
<text text-anchor="middle" x="215" y="-84.5" font-family="Helvetica,sans-Serif" font-size="10.00"> globaldata3d_r4</text>
</g>
<!-- Node8 -->
<g id="node8" class="node">
<title>Node8</title>
<g id="a_node8"><a xlink:title=" ">
<polygon fill="white" stroke="#bfbfbf" points="3,-0.5 3,-30.5 150,-30.5 150,-0.5 3,-0.5"/>
<text text-anchor="start" x="11" y="-18.5" font-family="Helvetica,sans-Serif" font-size="10.00">real(kind=r4_kind),</text>
<text text-anchor="middle" x="76.5" y="-7.5" font-family="Helvetica,sans-Serif" font-size="10.00"> dimension(:,:), allocatable</text>
</a>
</g>
</g>
<!-- Node8&#45;&gt;Node1 -->
<g id="edge7" class="edge">
<title>Node8&#45;&gt;Node1</title>
<path fill="none" stroke="#9a32cd" stroke-dasharray="5,2" d="M160.45,-9.36C194.19,-11.02 231.59,-18.69 259,-40.5 308.99,-80.28 318.69,-165.22 320.56,-193.85"/>
<polygon fill="#9a32cd" stroke="#9a32cd" points="160.22,-5.85 150.11,-9.02 160,-12.84 160.22,-5.85"/>
<text text-anchor="middle" x="215" y="-43.5" font-family="Helvetica,sans-Serif" font-size="10.00"> globaldata2d_r4</text>
</g>
</g>
</svg>
