<?xml version="1.0" encoding="UTF-8" standalone="no"?>
<!DOCTYPE svg PUBLIC "-//W3C//DTD SVG 1.1//EN"
 "http://www.w3.org/Graphics/SVG/1.1/DTD/svg11.dtd">
<!-- Generated by graphviz version 2.43.0 (0)
 -->
<!-- Title: field_def Pages: 1 -->
<!--zoomable 196 -->
<svg id="main" version="1.1" xmlns="http://www.w3.org/2000/svg" xmlns:xlink="http://www.w3.org/1999/xlink" xml:space="preserve" onload="init(evt)">
<style type="text/css"><![CDATA[
.edge:hover path { stroke: red; }
.edge:hover polygon { stroke: red; fill: red; }
]]></style>
<script type="text/javascript"><![CDATA[
var edges = document.getElementsByTagName('g');
if (edges && edges.length) {
  for (var i=0;i<edges.length;i++) {
    if (edges[i].id.substr(0,4)=='edge') {
      edges[i].setAttribute('class','edge');
    }
  }
}
]]></script>
        <defs>
                <circle id="rim" cx="0" cy="0" r="7"/>
                <circle id="rim2" cx="0" cy="0" r="3.5"/>
                <g id="zoomPlus">
                        <use xlink:href="#rim" fill="#404040">
                                <set attributeName="fill" to="#808080" begin="zoomplus.mouseover" end="zoomplus.mouseout"/>
                        </use>
                        <path d="M-4,0h8M0,-4v8" fill="none" stroke="white" stroke-width="1.5" pointer-events="none"/>
                </g>
                <g id="zoomMin">
                        <use xlink:href="#rim" fill="#404040">
                                <set attributeName="fill" to="#808080" begin="zoomminus.mouseover" end="zoomminus.mouseout"/>
                        </use>
                        <path d="M-4,0h8" fill="none" stroke="white" stroke-width="1.5" pointer-events="none"/>
                </g>
                <g id="dirArrow">
                        <path fill="none" stroke="white" stroke-width="1.5" d="M0,-3.0v7 M-2.5,-0.5L0,-3.0L2.5,-0.5"/>
                </g>
               <g id="resetDef">
                       <use xlink:href="#rim2" fill="#404040">
                               <set attributeName="fill" to="#808080" begin="reset.mouseover" end="reset.mouseout"/>
                       </use>
               </g>
        </defs>

<script type="text/javascript">
var viewWidth = 532;
var viewHeight = 196;
var sectionId = 'dynsection-0';
</script>
<script xlink:href="svgpan.js"/>
<svg id="graph" class="graph">
<g id="viewport">
<title>field_def</title>
<polygon fill="white" stroke="transparent" points="-4,4 -4,-192 527.5,-192 527.5,4 -4,4"/>
<!-- Node1 -->
<g id="node1" class="node">
<title>Node1</title>
<g id="a_node1"><a xlink:title="Private type for internal use.">
<polygon fill="#bfbfbf" stroke="black" points="265,-18 265,-37 324,-37 324,-18 265,-18"/>
<text text-anchor="middle" x="294.5" y="-25" font-family="Helvetica,sans-Serif" font-size="10.00">field_def</text>
</a>
</g>
</g>
<!-- Node1&#45;&gt;Node1 -->
<g id="edge3" class="edge">
<title>Node1&#45;&gt;Node1</title>
<path fill="none" stroke="#9a32cd" stroke-dasharray="5,2" d="M315.47,-40.96C328.98,-44.49 342,-40 342,-27.5 342,-12.11 322.28,-8.87 306.19,-17.76"/>
<polygon fill="#9a32cd" stroke="#9a32cd" points="316.77,-37.71 306.19,-37.24 314.17,-44.21 316.77,-37.71"/>
<text text-anchor="middle" x="365" y="-47" font-family="Helvetica,sans-Serif" font-size="10.00"> prev</text>
<text text-anchor="middle" x="365" y="-36" font-family="Helvetica,sans-Serif" font-size="10.00">last_field</text>
<text text-anchor="middle" x="365" y="-25" font-family="Helvetica,sans-Serif" font-size="10.00">next</text>
<text text-anchor="middle" x="365" y="-14" font-family="Helvetica,sans-Serif" font-size="10.00">first_field</text>
<text text-anchor="middle" x="365" y="-3" font-family="Helvetica,sans-Serif" font-size="10.00">parent</text>
</g>
<!-- Node2 -->
<g id="node2" class="node">
<title>Node2</title>
<g id="a_node2"><a xlink:title=" ">
<polygon fill="white" stroke="#bfbfbf" points="0,-163 0,-182 49,-182 49,-163 0,-163"/>
<text text-anchor="middle" x="24.5" y="-170" font-family="Helvetica,sans-Serif" font-size="10.00">logical</text>
</a>
</g>
</g>
<!-- Node2&#45;&gt;Node1 -->
<g id="edge1" class="edge">
<title>Node2&#45;&gt;Node1</title>
<path fill="none" stroke="#9a32cd" stroke-dasharray="5,2" d="M37.5,-154.83C55.56,-132.82 90.35,-94.34 128.5,-73 172.38,-48.45 230.41,-36.94 264.96,-31.94"/>
<polygon fill="#9a32cd" stroke="#9a32cd" points="34.55,-152.92 31.02,-162.91 40.01,-157.3 34.55,-152.92"/>
<text text-anchor="middle" x="148" y="-103.5" font-family="Helvetica,sans-Serif" font-size="10.00"> l_value</text>
</g>
<!-- Node3 -->
<g id="node3" class="node">
<title>Node3</title>
<g id="a_node3"><a xlink:title=" ">
<polygon fill="white" stroke="#bfbfbf" points="67,-157.5 67,-187.5 196,-187.5 196,-157.5 67,-157.5"/>
<text text-anchor="start" x="75" y="-175.5" font-family="Helvetica,sans-Serif" font-size="10.00">character(len=fm_field</text>
<text text-anchor="middle" x="131.5" y="-164.5" font-family="Helvetica,sans-Serif" font-size="10.00">_name_len)</text>
</a>
</g>
</g>
<!-- Node3&#45;&gt;Node1 -->
<g id="edge2" class="edge">
<title>Node3&#45;&gt;Node1</title>
<path fill="none" stroke="#9a32cd" stroke-dasharray="5,2" d="M155.39,-150.54C191.66,-118.72 259.1,-59.56 284.49,-37.28"/>
<polygon fill="#9a32cd" stroke="#9a32cd" points="152.93,-148.04 147.72,-157.27 157.55,-153.3 152.93,-148.04"/>
<text text-anchor="middle" x="257" y="-103.5" font-family="Helvetica,sans-Serif" font-size="10.00"> name</text>
</g>
<!-- Node4 -->
<g id="node4" class="node">
<title>Node4</title>
<g id="a_node4"><a xlink:title=" ">
<polygon fill="white" stroke="#bfbfbf" points="214.5,-163 214.5,-182 374.5,-182 374.5,-163 214.5,-163"/>
<text text-anchor="middle" x="294.5" y="-170" font-family="Helvetica,sans-Serif" font-size="10.00">character(len=fm_string_len)</text>
</a>
</g>
</g>
<!-- Node4&#45;&gt;Node1 -->
<g id="edge4" class="edge">
<title>Node4&#45;&gt;Node1</title>
<path fill="none" stroke="#9a32cd" stroke-dasharray="5,2" d="M294.5,-152.6C294.5,-121.27 294.5,-59.81 294.5,-37.15"/>
<polygon fill="#9a32cd" stroke="#9a32cd" points="291,-152.98 294.5,-162.98 298,-152.98 291,-152.98"/>
<text text-anchor="middle" x="315" y="-103.5" font-family="Helvetica,sans-Serif" font-size="10.00"> s_value</text>
</g>
<!-- Node5 -->
<g id="node5" class="node">
<title>Node5</title>
<g id="a_node5"><a xlink:title=" ">
<polygon fill="white" stroke="#bfbfbf" points="393,-163 393,-182 428,-182 428,-163 393,-163"/>
<text text-anchor="middle" x="410.5" y="-170" font-family="Helvetica,sans-Serif" font-size="10.00">real</text>
</a>
</g>
</g>
<!-- Node5&#45;&gt;Node1 -->
<g id="edge5" class="edge">
<title>Node5&#45;&gt;Node1</title>
<path fill="none" stroke="#9a32cd" stroke-dasharray="5,2" d="M399.55,-154.56C386.24,-134.41 362.69,-100.1 339.5,-73 328.21,-59.81 313.72,-45.95 304.27,-37.27"/>
<polygon fill="#9a32cd" stroke="#9a32cd" points="396.65,-156.52 405.05,-162.98 402.51,-152.69 396.65,-156.52"/>
<text text-anchor="middle" x="407.5" y="-103.5" font-family="Helvetica,sans-Serif" font-size="10.00"> r_value</text>
</g>
<!-- Node6 -->
<g id="node6" class="node">
<title>Node6</title>
<g id="a_node6"><a xlink:title=" ">
<polygon fill="white" stroke="#bfbfbf" points="447,-163 447,-182 498,-182 498,-163 447,-163"/>
<text text-anchor="middle" x="472.5" y="-170" font-family="Helvetica,sans-Serif" font-size="10.00">integer</text>
</a>
</g>
</g>
<!-- Node6&#45;&gt;Node1 -->
<g id="edge6" class="edge">
<title>Node6&#45;&gt;Node1</title>
<path fill="none" stroke="#9a32cd" stroke-dasharray="5,2" d="M469.52,-152.64C465.06,-130.55 454.57,-94.29 431.5,-73 401.63,-45.44 354.48,-34.94 324.02,-30.94"/>
<polygon fill="#9a32cd" stroke="#9a32cd" points="466.12,-153.52 471.34,-162.74 473.01,-152.28 466.12,-153.52"/>
<text text-anchor="middle" x="494.5" y="-131" font-family="Helvetica,sans-Serif" font-size="10.00"> max_index</text>
<text text-anchor="middle" x="494.5" y="-120" font-family="Helvetica,sans-Serif" font-size="10.00">array_dim</text>
<text text-anchor="middle" x="494.5" y="-109" font-family="Helvetica,sans-Serif" font-size="10.00">i_value</text>
<text text-anchor="middle" x="494.5" y="-98" font-family="Helvetica,sans-Serif" font-size="10.00">length</text>
<text text-anchor="middle" x="494.5" y="-87" font-family="Helvetica,sans-Serif" font-size="10.00">field_type</text>
<text text-anchor="middle" x="494.5" y="-76" font-family="Helvetica,sans-Serif" font-size="10.00">index</text>
</g>
</g>
</svg>
        <g id="navigator" transform="translate(0 0)" fill="#404254">
                <rect fill="#f2f5e9" fill-opacity="0.5" stroke="#606060" stroke-width=".5" x="0" y="0" width="60" height="60"/>
                <use id="zoomplus" xlink:href="#zoomPlus" x="17" y="9" onmousedown="handleZoom(evt,'in')"/>
                <use id="zoomminus" xlink:href="#zoomMin" x="42" y="9" onmousedown="handleZoom(evt,'out')"/>
                <use id="reset" xlink:href="#resetDef" x="30" y="36" onmousedown="handleReset()"/>
                <g id="arrowUp" xlink:href="#dirArrow" transform="translate(30 24)" onmousedown="handlePan(0,-1)">
                  <use xlink:href="#rim" fill="#404040">
                        <set attributeName="fill" to="#808080" begin="arrowUp.mouseover" end="arrowUp.mouseout"/>
                  </use>
                  <path fill="none" stroke="white" stroke-width="1.5" d="M0,-3.0v7 M-2.5,-0.5L0,-3.0L2.5,-0.5"/>
                </g>
                <g id="arrowRight" xlink:href="#dirArrow" transform="rotate(90) translate(36 -43)" onmousedown="handlePan(1,0)">
                  <use xlink:href="#rim" fill="#404040">
                        <set attributeName="fill" to="#808080" begin="arrowRight.mouseover" end="arrowRight.mouseout"/>
                  </use>
                  <path fill="none" stroke="white" stroke-width="1.5" d="M0,-3.0v7 M-2.5,-0.5L0,-3.0L2.5,-0.5"/>
                </g>
                <g id="arrowDown" xlink:href="#dirArrow" transform="rotate(180) translate(-30 -48)" onmousedown="handlePan(0,1)">
                  <use xlink:href="#rim" fill="#404040">
                        <set attributeName="fill" to="#808080" begin="arrowDown.mouseover" end="arrowDown.mouseout"/>
                  </use>
                  <path fill="none" stroke="white" stroke-width="1.5" d="M0,-3.0v7 M-2.5,-0.5L0,-3.0L2.5,-0.5"/>
                </g>
                <g id="arrowLeft" xlink:href="#dirArrow" transform="rotate(270) translate(-36 17)" onmousedown="handlePan(-1,0)">
                  <use xlink:href="#rim" fill="#404040">
                        <set attributeName="fill" to="#808080" begin="arrowLeft.mouseover" end="arrowLeft.mouseout"/>
                  </use>
                  <path fill="none" stroke="white" stroke-width="1.5" d="M0,-3.0v7 M-2.5,-0.5L0,-3.0L2.5,-0.5"/>
                </g>
        </g>
        <svg viewBox="0 0 15 15" width="100%" height="30px" preserveAspectRatio="xMaxYMin meet">
         <g id="arrow_out" transform="scale(0.3 0.3)">
          <a xlink:href="structfield__manager__mod_1_1field__def__coll__graph_org.svg" target="_base">
           <rect id="button" ry="5" rx="5" y="6" x="6" height="38" width="38"
                fill="#f2f5e9" fill-opacity="0.5" stroke="#606060" stroke-width="1.0"/>
           <path id="arrow"
             d="M 11.500037,31.436501 C 11.940474,20.09759 22.043105,11.32322 32.158766,21.979434 L 37.068811,17.246167 C 37.068811,17.246167 37.088388,32 37.088388,32 L 22.160133,31.978069 C 22.160133,31.978069 26.997745,27.140456 26.997745,27.140456 C 18.528582,18.264221 13.291696,25.230495 11.500037,31.436501 z"
             style="fill:#404040;"/>
          </a>
         </g>
        </svg>
</svg>
