<?xml version="1.0" encoding="UTF-8" standalone="no"?>
<!DOCTYPE svg PUBLIC "-//W3C//DTD SVG 1.1//EN"
 "http://www.w3.org/Graphics/SVG/1.1/DTD/svg11.dtd">
<!-- Generated by graphviz version 2.43.0 (0)
 -->
<!-- Title: fmmodel_t Pages: 1 -->
<svg width="479pt" height="319pt"
 viewBox="0.00 0.00 478.91 319.00" xmlns="http://www.w3.org/2000/svg" xmlns:xlink="http://www.w3.org/1999/xlink">
<g id="graph0" class="graph" transform="scale(1 1) rotate(0) translate(4 315)">
<title>fmmodel_t</title>
<polygon fill="white" stroke="transparent" points="-4,4 -4,-315 474.91,-315 474.91,4 -4,4"/>
<!-- Node1 -->
<g id="node1" class="node">
<title>Node1</title>
<g id="a_node1"><a xlink:title="This type represents the entries for a given model, e.g. land, ocean, atmosphere. This type contains ...">
<polygon fill="#bfbfbf" stroke="black" points="156.91,-0.5 156.91,-19.5 226.91,-19.5 226.91,-0.5 156.91,-0.5"/>
<text text-anchor="middle" x="191.91" y="-7.5" font-family="Helvetica,sans-Serif" font-size="10.00">fmmodel_t</text>
</a>
</g>
</g>
<!-- Node2 -->
<g id="node2" class="node">
<title>Node2</title>
<g id="a_node2"><a xlink:title=" ">
<polygon fill="white" stroke="#bfbfbf" points="19.91,-286 19.91,-305 175.91,-305 175.91,-286 19.91,-286"/>
<text text-anchor="middle" x="97.91" y="-293" font-family="Helvetica,sans-Serif" font-size="10.00">character(len=:), allocatable</text>
</a>
</g>
</g>
<!-- Node2&#45;&gt;Node1 -->
<g id="edge1" class="edge">
<title>Node2&#45;&gt;Node1</title>
<path fill="none" stroke="#9a32cd" stroke-dasharray="5,2" d="M69.95,-281.32C48.03,-269.28 19.11,-249.22 5.91,-222 -4.76,-200.01 1.94,-191.12 5.91,-167 10.64,-138.29 9.01,-127.94 26.91,-105 62.5,-59.38 126.84,-32.13 163.78,-19.51"/>
<polygon fill="#9a32cd" stroke="#9a32cd" points="68.36,-284.44 78.85,-285.98 71.62,-278.24 68.36,-284.44"/>
<text text-anchor="middle" x="42.41" y="-124.5" font-family="Helvetica,sans-Serif" font-size="10.00"> name</text>
</g>
<!-- Node4 -->
<g id="node4" class="node">
<title>Node4</title>
<g id="a_node4"><a xlink:href="group__fm__yaml__mod.html#structfm__yaml__mod_1_1fmvar__t" target="_top" xlink:title="This type represents the entries for a given variable, e.g. dust. This type contains the name of the ...">
<polygon fill="white" stroke="black" points="212.41,-67.5 212.41,-86.5 267.41,-86.5 267.41,-67.5 212.41,-67.5"/>
<text text-anchor="middle" x="239.91" y="-74.5" font-family="Helvetica,sans-Serif" font-size="10.00">fmvar_t</text>
</a>
</g>
</g>
<!-- Node2&#45;&gt;Node4 -->
<g id="edge9" class="edge">
<title>Node2&#45;&gt;Node4</title>
<path fill="none" stroke="#9a32cd" stroke-dasharray="5,2" d="M109.18,-277.31C137.9,-233.53 213.03,-118.99 234.25,-86.63"/>
<polygon fill="#9a32cd" stroke="#9a32cd" points="106.21,-275.46 103.65,-285.74 112.06,-279.3 106.21,-275.46"/>
<text text-anchor="middle" x="195.41" y="-192" font-family="Helvetica,sans-Serif" font-size="10.00"> name</text>
</g>
<!-- Node5 -->
<g id="node5" class="node">
<title>Node5</title>
<g id="a_node5"><a xlink:href="group__fm__yaml__mod.html#structfm__yaml__mod_1_1fmattr__t" target="_top" xlink:title="This type represents the subparameters for a given variable parameter. This type contains the name of...">
<polygon fill="white" stroke="black" points="290.91,-185 290.91,-204 346.91,-204 346.91,-185 290.91,-185"/>
<text text-anchor="middle" x="318.91" y="-192" font-family="Helvetica,sans-Serif" font-size="10.00">fmattr_t</text>
</a>
</g>
</g>
<!-- Node2&#45;&gt;Node5 -->
<g id="edge5" class="edge">
<title>Node2&#45;&gt;Node5</title>
<path fill="none" stroke="#9a32cd" stroke-dasharray="5,2" d="M122.96,-281.12C145.9,-269.23 181.05,-251.93 212.91,-240 240.58,-229.64 249.91,-234.01 276.91,-222 287.78,-217.16 299.14,-209.84 307.29,-204.12"/>
<polygon fill="#9a32cd" stroke="#9a32cd" points="121.15,-278.12 113.91,-285.86 124.4,-284.32 121.15,-278.12"/>
<text text-anchor="middle" x="244.41" y="-248.5" font-family="Helvetica,sans-Serif" font-size="10.00"> paramname</text>
</g>
<!-- Node3 -->
<g id="node3" class="node">
<title>Node3</title>
<g id="a_node3"><a xlink:title=" ">
<polygon fill="white" stroke="#bfbfbf" points="95.41,-67.5 95.41,-86.5 194.41,-86.5 194.41,-67.5 95.41,-67.5"/>
<text text-anchor="middle" x="144.91" y="-74.5" font-family="Helvetica,sans-Serif" font-size="10.00">character(len=7)</text>
</a>
</g>
</g>
<!-- Node3&#45;&gt;Node1 -->
<g id="edge2" class="edge">
<title>Node3&#45;&gt;Node1</title>
<path fill="none" stroke="#9a32cd" stroke-dasharray="5,2" d="M146.01,-57.36C147.09,-50.81 149.13,-43.68 152.91,-38 158.01,-30.32 166.12,-24.19 173.62,-19.73"/>
<polygon fill="#9a32cd" stroke="#9a32cd" points="142.51,-57.15 144.94,-67.46 149.47,-57.88 142.51,-57.15"/>
<text text-anchor="middle" x="181.91" y="-41" font-family="Helvetica,sans-Serif" font-size="10.00"> blockname</text>
</g>
<!-- Node4&#45;&gt;Node1 -->
<g id="edge3" class="edge">
<title>Node4&#45;&gt;Node1</title>
<path fill="none" stroke="#9a32cd" stroke-dasharray="5,2" d="M227.28,-58.9C217.96,-46.27 205.65,-29.6 198.28,-19.63"/>
<polygon fill="#9a32cd" stroke="#9a32cd" points="224.68,-61.27 233.44,-67.23 230.31,-57.11 224.68,-61.27"/>
<text text-anchor="middle" x="239.41" y="-41" font-family="Helvetica,sans-Serif" font-size="10.00"> children</text>
</g>
<!-- Node5&#45;&gt;Node4 -->
<g id="edge4" class="edge">
<title>Node5&#45;&gt;Node4</title>
<path fill="none" stroke="#9a32cd" stroke-dasharray="5,2" d="M307.18,-176.34C290.08,-151.36 258.96,-105.86 245.92,-86.78"/>
<polygon fill="#9a32cd" stroke="#9a32cd" points="304.44,-178.54 312.97,-184.82 310.22,-174.59 304.44,-178.54"/>
<text text-anchor="middle" x="307.41" y="-124.5" font-family="Helvetica,sans-Serif" font-size="10.00"> children</text>
</g>
<!-- Node6 -->
<g id="node6" class="node">
<title>Node6</title>
<g id="a_node6"><a xlink:title=" ">
<polygon fill="white" stroke="#bfbfbf" points="194.41,-280.5 194.41,-310.5 347.41,-310.5 347.41,-280.5 194.41,-280.5"/>
<text text-anchor="start" x="202.41" y="-298.5" font-family="Helvetica,sans-Serif" font-size="10.00">character(len=:), dimension</text>
<text text-anchor="middle" x="270.91" y="-287.5" font-family="Helvetica,sans-Serif" font-size="10.00">(:), allocatable</text>
</a>
</g>
</g>
<!-- Node6&#45;&gt;Node4 -->
<g id="edge10" class="edge">
<title>Node6&#45;&gt;Node4</title>
<path fill="none" stroke="#9a32cd" stroke-dasharray="5,2" d="M262.1,-270.51C257.36,-256.55 251.89,-238.5 248.91,-222 239.75,-171.22 239.5,-108.92 239.76,-86.52"/>
<polygon fill="#9a32cd" stroke="#9a32cd" points="258.92,-272.02 265.53,-280.3 265.52,-269.7 258.92,-272.02"/>
<text text-anchor="middle" x="265.41" y="-197.5" font-family="Helvetica,sans-Serif" font-size="10.00"> keys</text>
<text text-anchor="middle" x="265.41" y="-186.5" font-family="Helvetica,sans-Serif" font-size="10.00">values</text>
</g>
<!-- Node6&#45;&gt;Node5 -->
<g id="edge6" class="edge">
<title>Node6&#45;&gt;Node5</title>
<path fill="none" stroke="#9a32cd" stroke-dasharray="5,2" d="M277.31,-270.39C280.28,-260.71 284.2,-249.59 288.91,-240 295.39,-226.78 305.3,-212.93 311.94,-204.26"/>
<polygon fill="#9a32cd" stroke="#9a32cd" points="273.9,-269.62 274.47,-280.19 280.62,-271.56 273.9,-269.62"/>
<text text-anchor="middle" x="305.41" y="-254" font-family="Helvetica,sans-Serif" font-size="10.00"> keys</text>
<text text-anchor="middle" x="305.41" y="-243" font-family="Helvetica,sans-Serif" font-size="10.00">values</text>
</g>
<!-- Node7 -->
<g id="node7" class="node">
<title>Node7</title>
<g id="a_node7"><a xlink:title=" ">
<polygon fill="white" stroke="#bfbfbf" points="365.41,-286 365.41,-305 416.41,-305 416.41,-286 365.41,-286"/>
<text text-anchor="middle" x="390.91" y="-293" font-family="Helvetica,sans-Serif" font-size="10.00">integer</text>
</a>
</g>
</g>
<!-- Node7&#45;&gt;Node1 -->
<g id="edge12" class="edge">
<title>Node7&#45;&gt;Node1</title>
<path fill="none" stroke="#9a32cd" stroke-dasharray="5,2" d="M404.67,-277.9C423.41,-253.17 452.69,-205.42 434.91,-167 394.91,-80.55 280.43,-36.49 224.06,-19.52"/>
<polygon fill="#9a32cd" stroke="#9a32cd" points="401.8,-275.9 398.35,-285.92 407.29,-280.23 401.8,-275.9"/>
<text text-anchor="middle" x="447.91" y="-141" font-family="Helvetica,sans-Serif" font-size="10.00"> child_ids</text>
<text text-anchor="middle" x="447.91" y="-130" font-family="Helvetica,sans-Serif" font-size="10.00">id</text>
<text text-anchor="middle" x="447.91" y="-119" font-family="Helvetica,sans-Serif" font-size="10.00">nchildren</text>
<text text-anchor="middle" x="447.91" y="-108" font-family="Helvetica,sans-Serif" font-size="10.00">yfid</text>
</g>
<!-- Node7&#45;&gt;Node4 -->
<g id="edge11" class="edge">
<title>Node7&#45;&gt;Node4</title>
<path fill="none" stroke="#9a32cd" stroke-dasharray="5,2" d="M390.98,-275.57C390.04,-237.39 382.23,-150.86 332.91,-105 315.18,-88.51 287.97,-82.03 267.56,-79.52"/>
<polygon fill="#9a32cd" stroke="#9a32cd" points="387.48,-275.81 391.09,-285.77 394.48,-275.74 387.48,-275.81"/>
<text text-anchor="middle" x="407.91" y="-214" font-family="Helvetica,sans-Serif" font-size="10.00"> child_ids</text>
<text text-anchor="middle" x="407.91" y="-203" font-family="Helvetica,sans-Serif" font-size="10.00">id</text>
<text text-anchor="middle" x="407.91" y="-192" font-family="Helvetica,sans-Serif" font-size="10.00">key_ids</text>
<text text-anchor="middle" x="407.91" y="-181" font-family="Helvetica,sans-Serif" font-size="10.00">nchildren</text>
<text text-anchor="middle" x="407.91" y="-170" font-family="Helvetica,sans-Serif" font-size="10.00">yfid</text>
</g>
<!-- Node7&#45;&gt;Node5 -->
<g id="edge7" class="edge">
<title>Node7&#45;&gt;Node5</title>
<path fill="none" stroke="#9a32cd" stroke-dasharray="5,2" d="M368.84,-280.01C362.17,-274.89 355.21,-268.72 349.91,-262 335.54,-243.81 325.94,-217.87 321.58,-204.4"/>
<polygon fill="#9a32cd" stroke="#9a32cd" points="366.83,-282.88 376.99,-285.9 370.93,-277.21 366.83,-282.88"/>
<text text-anchor="middle" x="359.41" y="-254" font-family="Helvetica,sans-Serif" font-size="10.00"> id</text>
<text text-anchor="middle" x="359.41" y="-243" font-family="Helvetica,sans-Serif" font-size="10.00">yfid</text>
</g>
<!-- Node8 -->
<g id="node8" class="node">
<title>Node8</title>
<g id="a_node8"><a xlink:title=" ">
<polygon fill="white" stroke="#bfbfbf" points="15.41,-185 15.41,-204 114.41,-204 114.41,-185 15.41,-185"/>
<text text-anchor="middle" x="64.91" y="-192" font-family="Helvetica,sans-Serif" font-size="10.00">character(len=9)</text>
</a>
</g>
</g>
<!-- Node8&#45;&gt;Node4 -->
<g id="edge8" class="edge">
<title>Node8&#45;&gt;Node4</title>
<path fill="none" stroke="#9a32cd" stroke-dasharray="5,2" d="M62.05,-174.9C60.1,-154.75 60.59,-123.07 78.91,-105 98.89,-85.29 176.37,-92.41 203.91,-87 206.56,-86.48 209.32,-85.89 212.06,-85.26"/>
<polygon fill="#9a32cd" stroke="#9a32cd" points="58.6,-175.51 63.32,-184.99 65.54,-174.63 58.6,-175.51"/>
<text text-anchor="middle" x="107.91" y="-124.5" font-family="Helvetica,sans-Serif" font-size="10.00"> blockname</text>
</g>
</g>
</svg>
