<?xml version="1.0" encoding="UTF-8" standalone="no"?>
<!DOCTYPE svg PUBLIC "-//W3C//DTD SVG 1.1//EN"
 "http://www.w3.org/Graphics/SVG/1.1/DTD/svg11.dtd">
<!-- Generated by graphviz version 2.43.0 (0)
 -->
<!-- Title: grid_box_type Pages: 1 -->
<svg width="94pt" height="205pt"
 viewBox="0.00 0.00 94.00 205.00" xmlns="http://www.w3.org/2000/svg" xmlns:xlink="http://www.w3.org/1999/xlink">
<g id="graph0" class="graph" transform="scale(1 1) rotate(0) translate(4 201)">
<title>grid_box_type</title>
<polygon fill="white" stroke="transparent" points="-4,4 -4,-201 90,-201 90,4 -4,4"/>
<!-- Node1 -->
<g id="node1" class="node">
<title>Node1</title>
<g id="a_node1"><a xlink:title="Type to hold pointers for grid boxes.">
<polygon fill="#bfbfbf" stroke="black" points="0,-0.5 0,-19.5 86,-19.5 86,-0.5 0,-0.5"/>
<text text-anchor="middle" x="43" y="-7.5" font-family="Helvetica,sans-Serif" font-size="10.00">grid_box_type</text>
</a>
</g>
</g>
<!-- Node2 -->
<g id="node2" class="node">
<title>Node2</title>
<g id="a_node2"><a xlink:title=" ">
<polygon fill="white" stroke="#bfbfbf" points="3.5,-177.5 3.5,-196.5 82.5,-196.5 82.5,-177.5 3.5,-177.5"/>
<text text-anchor="middle" x="43" y="-184.5" font-family="Helvetica,sans-Serif" font-size="10.00">real(r8_kind)</text>
</a>
</g>
</g>
<!-- Node2&#45;&gt;Node1 -->
<g id="edge1" class="edge">
<title>Node2&#45;&gt;Node1</title>
<path fill="none" stroke="#9a32cd" stroke-dasharray="5,2" d="M43,-166.95C43,-129.3 43,-46.65 43,-19.69"/>
<polygon fill="#9a32cd" stroke="#9a32cd" points="39.5,-167.08 43,-177.08 46.5,-167.08 39.5,-167.08"/>
<text text-anchor="middle" x="62" y="-151" font-family="Helvetica,sans-Serif" font-size="10.00"> area</text>
<text text-anchor="middle" x="62" y="-140" font-family="Helvetica,sans-Serif" font-size="10.00">dx</text>
<text text-anchor="middle" x="62" y="-129" font-family="Helvetica,sans-Serif" font-size="10.00">dy</text>
<text text-anchor="middle" x="62" y="-118" font-family="Helvetica,sans-Serif" font-size="10.00">edge_e</text>
<text text-anchor="middle" x="62" y="-107" font-family="Helvetica,sans-Serif" font-size="10.00">edge_n</text>
<text text-anchor="middle" x="62" y="-96" font-family="Helvetica,sans-Serif" font-size="10.00">edge_s</text>
<text text-anchor="middle" x="62" y="-85" font-family="Helvetica,sans-Serif" font-size="10.00">edge_w</text>
<text text-anchor="middle" x="62" y="-74" font-family="Helvetica,sans-Serif" font-size="10.00">en1</text>
<text text-anchor="middle" x="62" y="-63" font-family="Helvetica,sans-Serif" font-size="10.00">en2</text>
<text text-anchor="middle" x="62" y="-52" font-family="Helvetica,sans-Serif" font-size="10.00">vlat</text>
<text text-anchor="middle" x="62" y="-41" font-family="Helvetica,sans-Serif" font-size="10.00">...</text>
</g>
</g>
</svg>
