<?xml version="1.0" encoding="UTF-8" standalone="no"?>
<!DOCTYPE svg PUBLIC "-//W3C//DTD SVG 1.1//EN"
 "http://www.w3.org/Graphics/SVG/1.1/DTD/svg11.dtd">
<!-- Generated by graphviz version 2.43.0 (0)
 -->
<!-- Title: block_control_type Pages: 1 -->
<svg width="192pt" height="274pt"
 viewBox="0.00 0.00 192.40 274.00" xmlns="http://www.w3.org/2000/svg" xmlns:xlink="http://www.w3.org/1999/xlink">
<g id="graph0" class="graph" transform="scale(1 1) rotate(0) translate(4 270)">
<title>block_control_type</title>
<polygon fill="white" stroke="transparent" points="-4,4 -4,-270 188.4,-270 188.4,4 -4,4"/>
<!-- Node1 -->
<g id="node1" class="node">
<title>Node1</title>
<g id="a_node1"><a xlink:title="Block data and extents for OpenMP threading of column&#45;based calculations.">
<polygon fill="#bfbfbf" stroke="black" points="28.9,-0.5 28.9,-19.5 137.9,-19.5 137.9,-0.5 28.9,-0.5"/>
<text text-anchor="middle" x="83.4" y="-7.5" font-family="Helvetica,sans-Serif" font-size="10.00">block_control_type</text>
</a>
</g>
</g>
<!-- Node2 -->
<g id="node2" class="node">
<title>Node2</title>
<g id="a_node2"><a xlink:href="group__block__control__mod.html#structblock__control__mod_1_1ix__type" target="_top" xlink:title="Type to dereference packed index from global index.">
<polygon fill="white" stroke="black" points="56.9,-118 56.9,-137 109.9,-137 109.9,-118 56.9,-118"/>
<text text-anchor="middle" x="83.4" y="-125" font-family="Helvetica,sans-Serif" font-size="10.00">ix_type</text>
</a>
</g>
</g>
<!-- Node2&#45;&gt;Node1 -->
<g id="edge1" class="edge">
<title>Node2&#45;&gt;Node1</title>
<path fill="none" stroke="#9a32cd" stroke-dasharray="5,2" d="M83.4,-107.66C83.4,-82.37 83.4,-38.44 83.4,-19.78"/>
<polygon fill="#9a32cd" stroke="#9a32cd" points="79.9,-107.82 83.4,-117.82 86.9,-107.82 79.9,-107.82"/>
<text text-anchor="middle" x="89.9" y="-41" font-family="Helvetica,sans-Serif" font-size="10.00"> ix</text>
</g>
<!-- Node3 -->
<g id="node3" class="node">
<title>Node3</title>
<g id="a_node3"><a xlink:title=" ">
<polygon fill="white" stroke="#bfbfbf" points="57.9,-246.5 57.9,-265.5 108.9,-265.5 108.9,-246.5 57.9,-246.5"/>
<text text-anchor="middle" x="83.4" y="-253.5" font-family="Helvetica,sans-Serif" font-size="10.00">integer</text>
</a>
</g>
</g>
<!-- Node3&#45;&gt;Node1 -->
<g id="edge5" class="edge">
<title>Node3&#45;&gt;Node1</title>
<path fill="none" stroke="#9a32cd" stroke-dasharray="5,2" d="M61.44,-240.39C45.6,-228.42 25.48,-209.93 16.4,-188 -4.18,-138.32 -6.38,-115.72 16.4,-67 26.6,-45.16 49.98,-28.85 66.22,-19.62"/>
<polygon fill="#9a32cd" stroke="#9a32cd" points="59.54,-243.33 69.7,-246.34 63.64,-237.65 59.54,-243.33"/>
<text text-anchor="middle" x="31.9" y="-180" font-family="Helvetica,sans-Serif" font-size="10.00"> blkno</text>
<text text-anchor="middle" x="31.9" y="-169" font-family="Helvetica,sans-Serif" font-size="10.00">blksz</text>
<text text-anchor="middle" x="31.9" y="-158" font-family="Helvetica,sans-Serif" font-size="10.00">ibe</text>
<text text-anchor="middle" x="31.9" y="-147" font-family="Helvetica,sans-Serif" font-size="10.00">ibs</text>
<text text-anchor="middle" x="31.9" y="-136" font-family="Helvetica,sans-Serif" font-size="10.00">iec</text>
<text text-anchor="middle" x="31.9" y="-125" font-family="Helvetica,sans-Serif" font-size="10.00">isc</text>
<text text-anchor="middle" x="31.9" y="-114" font-family="Helvetica,sans-Serif" font-size="10.00">ixp</text>
<text text-anchor="middle" x="31.9" y="-103" font-family="Helvetica,sans-Serif" font-size="10.00">jbe</text>
<text text-anchor="middle" x="31.9" y="-92" font-family="Helvetica,sans-Serif" font-size="10.00">jbs</text>
<text text-anchor="middle" x="31.9" y="-81" font-family="Helvetica,sans-Serif" font-size="10.00">jec</text>
<text text-anchor="middle" x="31.9" y="-70" font-family="Helvetica,sans-Serif" font-size="10.00">...</text>
</g>
<!-- Node3&#45;&gt;Node2 -->
<g id="edge2" class="edge">
<title>Node3&#45;&gt;Node2</title>
<path fill="none" stroke="#9a32cd" stroke-dasharray="5,2" d="M83.4,-235.94C83.4,-208.12 83.4,-157.54 83.4,-137.26"/>
<polygon fill="#9a32cd" stroke="#9a32cd" points="79.9,-236.31 83.4,-246.31 86.9,-236.31 79.9,-236.31"/>
<text text-anchor="middle" x="89.9" y="-214.5" font-family="Helvetica,sans-Serif" font-size="10.00"> ix</text>
</g>
<!-- Node4 -->
<g id="node4" class="node">
<title>Node4</title>
<g id="a_node4"><a xlink:href="group__block__control__mod.html#structblock__control__mod_1_1pk__type" target="_top" xlink:title="Type to dereference packed index from global indices.">
<polygon fill="white" stroke="black" points="128.4,-118 128.4,-137 184.4,-137 184.4,-118 128.4,-118"/>
<text text-anchor="middle" x="156.4" y="-125" font-family="Helvetica,sans-Serif" font-size="10.00">pk_type</text>
</a>
</g>
</g>
<!-- Node3&#45;&gt;Node4 -->
<g id="edge4" class="edge">
<title>Node3&#45;&gt;Node4</title>
<path fill="none" stroke="#9a32cd" stroke-dasharray="5,2" d="M94.68,-237.36C96.61,-234.26 98.58,-231.05 100.4,-228 120.18,-194.79 142.31,-154.44 151.74,-137.1"/>
<polygon fill="#9a32cd" stroke="#9a32cd" points="91.56,-235.75 89.17,-246.07 97.47,-239.48 91.56,-235.75"/>
<text text-anchor="middle" x="118.4" y="-220" font-family="Helvetica,sans-Serif" font-size="10.00"> ii</text>
<text text-anchor="middle" x="118.4" y="-209" font-family="Helvetica,sans-Serif" font-size="10.00">jj</text>
</g>
<!-- Node4&#45;&gt;Node1 -->
<g id="edge3" class="edge">
<title>Node4&#45;&gt;Node1</title>
<path fill="none" stroke="#9a32cd" stroke-dasharray="5,2" d="M145.55,-109.34C129.76,-84.36 101,-38.86 88.95,-19.78"/>
<polygon fill="#9a32cd" stroke="#9a32cd" points="142.61,-111.24 150.91,-117.82 148.52,-107.5 142.61,-111.24"/>
<text text-anchor="middle" x="122.9" y="-41" font-family="Helvetica,sans-Serif" font-size="10.00"> index</text>
</g>
</g>
</svg>
