<?xml version="1.0" encoding="UTF-8" standalone="no"?>
<!DOCTYPE svg PUBLIC "-//W3C//DTD SVG 1.1//EN"
 "http://www.w3.org/Graphics/SVG/1.1/DTD/svg11.dtd">
<!-- Generated by graphviz version 2.43.0 (0)
 -->
<!-- Title: unstruct_axis_spec Pages: 1 -->
<svg width="123pt" height="150pt"
 viewBox="0.00 0.00 123.00 150.00" xmlns="http://www.w3.org/2000/svg" xmlns:xlink="http://www.w3.org/1999/xlink">
<g id="graph0" class="graph" transform="scale(1 1) rotate(0) translate(4 146)">
<title>unstruct_axis_spec</title>
<polygon fill="white" stroke="transparent" points="-4,4 -4,-146 119,-146 119,4 -4,4"/>
<!-- Node1 -->
<g id="node1" class="node">
<title>Node1</title>
<g id="a_node1"><a xlink:title="Private type for axis specification data for an unstructured grid.">
<polygon fill="#bfbfbf" stroke="black" points="0,-0.5 0,-19.5 110,-19.5 110,-0.5 0,-0.5"/>
<text text-anchor="middle" x="55" y="-7.5" font-family="Helvetica,sans-Serif" font-size="10.00">unstruct_axis_spec</text>
</a>
</g>
</g>
<!-- Node2 -->
<g id="node2" class="node">
<title>Node2</title>
<g id="a_node2"><a xlink:title=" ">
<polygon fill="white" stroke="#bfbfbf" points="29.5,-122.5 29.5,-141.5 80.5,-141.5 80.5,-122.5 29.5,-122.5"/>
<text text-anchor="middle" x="55" y="-129.5" font-family="Helvetica,sans-Serif" font-size="10.00">integer</text>
</a>
</g>
</g>
<!-- Node2&#45;&gt;Node1 -->
<g id="edge1" class="edge">
<title>Node2&#45;&gt;Node1</title>
<path fill="none" stroke="#9a32cd" stroke-dasharray="5,2" d="M55,-112.15C55,-85.72 55,-38.76 55,-19.55"/>
<polygon fill="#9a32cd" stroke="#9a32cd" points="51.5,-112.37 55,-122.37 58.5,-112.37 51.5,-112.37"/>
<text text-anchor="middle" x="85" y="-96" font-family="Helvetica,sans-Serif" font-size="10.00"> begin</text>
<text text-anchor="middle" x="85" y="-85" font-family="Helvetica,sans-Serif" font-size="10.00">begin_index</text>
<text text-anchor="middle" x="85" y="-74" font-family="Helvetica,sans-Serif" font-size="10.00">end</text>
<text text-anchor="middle" x="85" y="-63" font-family="Helvetica,sans-Serif" font-size="10.00">end_index</text>
<text text-anchor="middle" x="85" y="-52" font-family="Helvetica,sans-Serif" font-size="10.00">max_size</text>
<text text-anchor="middle" x="85" y="-41" font-family="Helvetica,sans-Serif" font-size="10.00">size</text>
</g>
</g>
</svg>
