<?xml version="1.0" encoding="UTF-8" standalone="no"?>
<!DOCTYPE svg PUBLIC "-//W3C//DTD SVG 1.1//EN"
 "http://www.w3.org/Graphics/SVG/1.1/DTD/svg11.dtd">
<!-- Generated by graphviz version 2.43.0 (0)
 -->
<!-- Title: clock Pages: 1 -->
<svg width="498pt" height="296pt"
 viewBox="0.00 0.00 498.00 296.00" xmlns="http://www.w3.org/2000/svg" xmlns:xlink="http://www.w3.org/1999/xlink">
<g id="graph0" class="graph" transform="scale(1 1) rotate(0) translate(4 292)">
<title>clock</title>
<polygon fill="white" stroke="transparent" points="-4,4 -4,-292 494,-292 494,4 -4,4"/>
<!-- Node1 -->
<g id="node1" class="node">
<title>Node1</title>
<g id="a_node1"><a xlink:title="a clock contains an array of event profiles for a region">
<polygon fill="#bfbfbf" stroke="black" points="187.5,-0.5 187.5,-19.5 229.5,-19.5 229.5,-0.5 187.5,-0.5"/>
<text text-anchor="middle" x="208.5" y="-7.5" font-family="Helvetica,sans-Serif" font-size="10.00">clock</text>
</a>
</g>
</g>
<!-- Node2 -->
<g id="node2" class="node">
<title>Node2</title>
<g id="a_node2"><a xlink:title=" ">
<polygon fill="white" stroke="#bfbfbf" points="0,-184 0,-203 49,-203 49,-184 0,-184"/>
<text text-anchor="middle" x="24.5" y="-191" font-family="Helvetica,sans-Serif" font-size="10.00">logical</text>
</a>
</g>
</g>
<!-- Node2&#45;&gt;Node1 -->
<g id="edge1" class="edge">
<title>Node2&#45;&gt;Node1</title>
<path fill="none" stroke="#9a32cd" stroke-dasharray="5,2" d="M17.8,-174.03C7.51,-142.07 -7.71,-76.22 25.5,-38 46.3,-14.06 143.93,-10.99 187.46,-10.84"/>
<polygon fill="#9a32cd" stroke="#9a32cd" points="14.6,-175.49 21.14,-183.82 21.22,-173.22 14.6,-175.49"/>
<text text-anchor="middle" x="68" y="-151" font-family="Helvetica,sans-Serif" font-size="10.00"> calling</text>
<text text-anchor="middle" x="68" y="-140" font-family="Helvetica,sans-Serif" font-size="10.00">detailed</text>
<text text-anchor="middle" x="68" y="-129" font-family="Helvetica,sans-Serif" font-size="10.00">false</text>
<text text-anchor="middle" x="68" y="-118" font-family="Helvetica,sans-Serif" font-size="10.00">initialize</text>
<text text-anchor="middle" x="68" y="-107" font-family="Helvetica,sans-Serif" font-size="10.00">is_on</text>
<text text-anchor="middle" x="68" y="-96" font-family="Helvetica,sans-Serif" font-size="10.00">mpp_clock_begin</text>
<text text-anchor="middle" x="68" y="-85" font-family="Helvetica,sans-Serif" font-size="10.00">set</text>
<text text-anchor="middle" x="68" y="-74" font-family="Helvetica,sans-Serif" font-size="10.00">sync_on_begin</text>
<text text-anchor="middle" x="68" y="-63" font-family="Helvetica,sans-Serif" font-size="10.00">to</text>
<text text-anchor="middle" x="68" y="-52" font-family="Helvetica,sans-Serif" font-size="10.00">true</text>
<text text-anchor="middle" x="68" y="-41" font-family="Helvetica,sans-Serif" font-size="10.00">...</text>
</g>
<!-- Node3 -->
<g id="node3" class="node">
<title>Node3</title>
<g id="a_node3"><a xlink:title=" ">
<polygon fill="white" stroke="#bfbfbf" points="51.5,-268.5 51.5,-287.5 145.5,-287.5 145.5,-268.5 51.5,-268.5"/>
<text text-anchor="middle" x="98.5" y="-275.5" font-family="Helvetica,sans-Serif" font-size="10.00">integer(i8_kind)</text>
</a>
</g>
</g>
<!-- Node3&#45;&gt;Node1 -->
<g id="edge2" class="edge">
<title>Node3&#45;&gt;Node1</title>
<path fill="none" stroke="#9a32cd" stroke-dasharray="5,2" d="M104.41,-258.59C111.01,-238.39 122.26,-205.1 133.5,-177 158.05,-115.63 192.5,-43.82 204.33,-19.53"/>
<polygon fill="#9a32cd" stroke="#9a32cd" points="101,-257.75 101.25,-268.34 107.66,-259.91 101,-257.75"/>
<text text-anchor="middle" x="159.5" y="-202" font-family="Helvetica,sans-Serif" font-size="10.00"> hits</text>
<text text-anchor="middle" x="159.5" y="-191" font-family="Helvetica,sans-Serif" font-size="10.00">tick</text>
<text text-anchor="middle" x="159.5" y="-180" font-family="Helvetica,sans-Serif" font-size="10.00">total_ticks</text>
</g>
<!-- Node5 -->
<g id="node5" class="node">
<title>Node5</title>
<g id="a_node5"><a xlink:href="group__mpp__mod.html#structmpp__mod_1_1event" target="_top" xlink:title="Communication event profile.">
<polygon fill="white" stroke="black" points="194.5,-184 194.5,-203 238.5,-203 238.5,-184 194.5,-184"/>
<text text-anchor="middle" x="216.5" y="-191" font-family="Helvetica,sans-Serif" font-size="10.00">event</text>
</a>
</g>
</g>
<!-- Node3&#45;&gt;Node5 -->
<g id="edge6" class="edge">
<title>Node3&#45;&gt;Node5</title>
<path fill="none" stroke="#9a32cd" stroke-dasharray="5,2" d="M119.88,-262.71C125.92,-258.64 132.49,-254.17 138.5,-250 162.13,-233.62 189.44,-214.03 204.67,-203.05"/>
<polygon fill="#9a32cd" stroke="#9a32cd" points="117.87,-259.84 111.53,-268.33 121.78,-265.65 117.87,-259.84"/>
<text text-anchor="middle" x="184" y="-242" font-family="Helvetica,sans-Serif" font-size="10.00"> bytes</text>
<text text-anchor="middle" x="184" y="-231" font-family="Helvetica,sans-Serif" font-size="10.00">ticks</text>
</g>
<!-- Node4 -->
<g id="node4" class="node">
<title>Node4</title>
<g id="a_node4"><a xlink:title=" ">
<polygon fill="white" stroke="#bfbfbf" points="385,-184 385,-203 490,-203 490,-184 385,-184"/>
<text text-anchor="middle" x="437.5" y="-191" font-family="Helvetica,sans-Serif" font-size="10.00">character(len=32)</text>
</a>
</g>
</g>
<!-- Node4&#45;&gt;Node1 -->
<g id="edge3" class="edge">
<title>Node4&#45;&gt;Node1</title>
<path fill="none" stroke="#9a32cd" stroke-dasharray="5,2" d="M429.78,-174.59C414.75,-141.97 378.33,-73 325.5,-38 296.13,-18.54 254.55,-13.01 229.68,-11.49"/>
<polygon fill="#9a32cd" stroke="#9a32cd" points="426.62,-176.11 433.9,-183.81 433.02,-173.26 426.62,-176.11"/>
<text text-anchor="middle" x="437" y="-96" font-family="Helvetica,sans-Serif" font-size="10.00"> name</text>
</g>
<!-- Node5&#45;&gt;Node1 -->
<g id="edge4" class="edge">
<title>Node5&#45;&gt;Node1</title>
<path fill="none" stroke="#9a32cd" stroke-dasharray="5,2" d="M211.88,-173.65C210.9,-168.9 210.01,-163.79 209.5,-159 203.88,-106.37 206.66,-42.61 207.96,-19.71"/>
<polygon fill="#9a32cd" stroke="#9a32cd" points="208.54,-174.78 214.17,-183.76 215.37,-173.23 208.54,-174.78"/>
<text text-anchor="middle" x="253.5" y="-123.5" font-family="Helvetica,sans-Serif" font-size="10.00"> allocate</text>
<text text-anchor="middle" x="253.5" y="-112.5" font-family="Helvetica,sans-Serif" font-size="10.00">events</text>
<text text-anchor="middle" x="253.5" y="-101.5" font-family="Helvetica,sans-Serif" font-size="10.00">if</text>
<text text-anchor="middle" x="253.5" y="-90.5" font-family="Helvetica,sans-Serif" font-size="10.00">max_event_types</text>
<text text-anchor="middle" x="253.5" y="-79.5" font-family="Helvetica,sans-Serif" font-size="10.00">needed</text>
<text text-anchor="middle" x="253.5" y="-68.5" font-family="Helvetica,sans-Serif" font-size="10.00">to</text>
</g>
<!-- Node6 -->
<g id="node6" class="node">
<title>Node6</title>
<g id="a_node6"><a xlink:title=" ">
<polygon fill="white" stroke="#bfbfbf" points="164,-268.5 164,-287.5 269,-287.5 269,-268.5 164,-268.5"/>
<text text-anchor="middle" x="216.5" y="-275.5" font-family="Helvetica,sans-Serif" font-size="10.00">character(len=16)</text>
</a>
</g>
</g>
<!-- Node6&#45;&gt;Node5 -->
<g id="edge5" class="edge">
<title>Node6&#45;&gt;Node5</title>
<path fill="none" stroke="#9a32cd" stroke-dasharray="5,2" d="M216.5,-258.43C216.5,-241.13 216.5,-216.11 216.5,-203.1"/>
<polygon fill="#9a32cd" stroke="#9a32cd" points="213,-258.48 216.5,-268.48 220,-258.48 213,-258.48"/>
<text text-anchor="middle" x="232" y="-236.5" font-family="Helvetica,sans-Serif" font-size="10.00"> name</text>
</g>
<!-- Node7 -->
<g id="node7" class="node">
<title>Node7</title>
<g id="a_node7"><a xlink:title=" ">
<polygon fill="white" stroke="#bfbfbf" points="287,-268.5 287,-287.5 338,-287.5 338,-268.5 287,-268.5"/>
<text text-anchor="middle" x="312.5" y="-275.5" font-family="Helvetica,sans-Serif" font-size="10.00">integer</text>
</a>
</g>
</g>
<!-- Node7&#45;&gt;Node1 -->
<g id="edge8" class="edge">
<title>Node7&#45;&gt;Node1</title>
<path fill="none" stroke="#9a32cd" stroke-dasharray="5,2" d="M313.96,-258.38C317.48,-208.25 324.31,-71.87 297.5,-38 281.37,-17.61 250.33,-12.19 229.51,-10.97"/>
<polygon fill="#9a32cd" stroke="#9a32cd" points="310.46,-258.21 313.21,-268.44 317.44,-258.73 310.46,-258.21"/>
<text text-anchor="middle" x="344" y="-196.5" font-family="Helvetica,sans-Serif" font-size="10.00"> grain</text>
<text text-anchor="middle" x="344" y="-185.5" font-family="Helvetica,sans-Serif" font-size="10.00">peset_num</text>
</g>
<!-- Node7&#45;&gt;Node5 -->
<g id="edge7" class="edge">
<title>Node7&#45;&gt;Node5</title>
<path fill="none" stroke="#9a32cd" stroke-dasharray="5,2" d="M289.49,-263.05C283.46,-259.07 277.08,-254.57 271.5,-250 261.84,-242.09 237.66,-216.88 224.81,-203.32"/>
<polygon fill="#9a32cd" stroke="#9a32cd" points="287.63,-266.02 297.95,-268.45 291.4,-260.12 287.63,-266.02"/>
<text text-anchor="middle" x="284.5" y="-236.5" font-family="Helvetica,sans-Serif" font-size="10.00"> calls</text>
</g>
</g>
</svg>
