<?xml version="1.0" encoding="UTF-8" standalone="no"?>
<!DOCTYPE svg PUBLIC "-//W3C//DTD SVG 1.1//EN"
 "http://www.w3.org/Graphics/SVG/1.1/DTD/svg11.dtd">
<!-- Generated by graphviz version 2.43.0 (0)
 -->
<!-- Title: randomnumberstream Pages: 1 -->
<svg width="156pt" height="173pt"
 viewBox="0.00 0.00 156.00 173.00" xmlns="http://www.w3.org/2000/svg" xmlns:xlink="http://www.w3.org/1999/xlink">
<g id="graph0" class="graph" transform="scale(1 1) rotate(0) translate(4 169)">
<title>randomnumberstream</title>
<polygon fill="white" stroke="transparent" points="-4,4 -4,-169 152,-169 152,4 -4,4"/>
<!-- Node1 -->
<g id="node1" class="node">
<title>Node1</title>
<g id="a_node1"><a xlink:title="Type to hold a stream of randomly generated numbers.">
<polygon fill="#bfbfbf" stroke="black" points="6,-0.5 6,-19.5 132,-19.5 132,-0.5 6,-0.5"/>
<text text-anchor="middle" x="69" y="-7.5" font-family="Helvetica,sans-Serif" font-size="10.00">randomnumberstream</text>
</a>
</g>
</g>
<!-- Node2 -->
<g id="node2" class="node">
<title>Node2</title>
<g id="a_node2"><a xlink:href="group__mersennetwister__mod.html#structmersennetwister__mod_1_1randomnumbersequence" target="_top" xlink:title="The type containing the state variable.">
<polygon fill="white" stroke="black" points="0,-67.5 0,-86.5 138,-86.5 138,-67.5 0,-67.5"/>
<text text-anchor="middle" x="69" y="-74.5" font-family="Helvetica,sans-Serif" font-size="10.00">randomnumbersequence</text>
</a>
</g>
</g>
<!-- Node2&#45;&gt;Node1 -->
<g id="edge1" class="edge">
<title>Node2&#45;&gt;Node1</title>
<path fill="none" stroke="#9a32cd" stroke-dasharray="5,2" d="M69,-57.04C69,-44.67 69,-29.12 69,-19.63"/>
<polygon fill="#9a32cd" stroke="#9a32cd" points="65.5,-57.23 69,-67.23 72.5,-57.23 65.5,-57.23"/>
<text text-anchor="middle" x="100" y="-41" font-family="Helvetica,sans-Serif" font-size="10.00"> thenumbers</text>
</g>
<!-- Node3 -->
<g id="node3" class="node">
<title>Node3</title>
<g id="a_node3"><a xlink:title=" ">
<polygon fill="white" stroke="#bfbfbf" points="43.5,-145.5 43.5,-164.5 94.5,-164.5 94.5,-145.5 43.5,-145.5"/>
<text text-anchor="middle" x="69" y="-152.5" font-family="Helvetica,sans-Serif" font-size="10.00">integer</text>
</a>
</g>
</g>
<!-- Node3&#45;&gt;Node2 -->
<g id="edge2" class="edge">
<title>Node3&#45;&gt;Node2</title>
<path fill="none" stroke="#9a32cd" stroke-dasharray="5,2" d="M69,-135.22C69,-119.7 69,-98.36 69,-86.62"/>
<polygon fill="#9a32cd" stroke="#9a32cd" points="65.5,-135.28 69,-145.28 72.5,-135.28 65.5,-135.28"/>
<text text-anchor="middle" x="108.5" y="-119" font-family="Helvetica,sans-Serif" font-size="10.00"> currentelement</text>
<text text-anchor="middle" x="108.5" y="-108" font-family="Helvetica,sans-Serif" font-size="10.00">state</text>
</g>
</g>
</svg>
