<?xml version="1.0" encoding="UTF-8" standalone="no"?>
<!DOCTYPE svg PUBLIC "-//W3C//DTD SVG 1.1//EN"
 "http://www.w3.org/Graphics/SVG/1.1/DTD/svg11.dtd">
<!-- Generated by graphviz version 2.43.0 (0)
 -->
<!-- Title: input_field_type Pages: 1 -->
<svg width="490pt" height="491pt"
 viewBox="0.00 0.00 490.00 491.00" xmlns="http://www.w3.org/2000/svg" xmlns:xlink="http://www.w3.org/1999/xlink">
<g id="graph0" class="graph" transform="scale(1 1) rotate(0) translate(4 487)">
<title>input_field_type</title>
<polygon fill="white" stroke="transparent" points="-4,4 -4,-487 486,-487 486,4 -4,4"/>
<!-- Node1 -->
<g id="node1" class="node">
<title>Node1</title>
<g id="a_node1"><a xlink:title="Type to hold the input field description.">
<polygon fill="#bfbfbf" stroke="black" points="387,-169.5 387,-188.5 482,-188.5 482,-169.5 387,-169.5"/>
<text text-anchor="middle" x="434.5" y="-176.5" font-family="Helvetica,sans-Serif" font-size="10.00">input_field_type</text>
</a>
</g>
</g>
<!-- Node2 -->
<g id="node2" class="node">
<title>Node2</title>
<g id="a_node2"><a xlink:href="group__time__manager__mod.html#structtime__manager__mod_1_1time__type" target="_top" xlink:title="Type to represent amounts of time. Implemented as seconds and days to allow for larger intervals.">
<polygon fill="white" stroke="black" points="149.5,-320.5 149.5,-339.5 215.5,-339.5 215.5,-320.5 149.5,-320.5"/>
<text text-anchor="middle" x="182.5" y="-327.5" font-family="Helvetica,sans-Serif" font-size="10.00">time_type</text>
</a>
</g>
</g>
<!-- Node2&#45;&gt;Node1 -->
<g id="edge1" class="edge">
<title>Node2&#45;&gt;Node1</title>
<path fill="none" stroke="#9a32cd" stroke-dasharray="5,2" d="M225.56,-339.01C265.94,-345.19 326.85,-347.79 369,-319 414.97,-287.61 428.82,-214.81 432.4,-188.61"/>
<polygon fill="#9a32cd" stroke="#9a32cd" points="225.95,-335.53 215.51,-337.33 224.8,-342.43 225.95,-335.53"/>
<text text-anchor="middle" x="312.5" y="-345" font-family="Helvetica,sans-Serif" font-size="10.00"> time</text>
</g>
<!-- Node3 -->
<g id="node3" class="node">
<title>Node3</title>
<g id="a_node3"><a xlink:title=" ">
<polygon fill="white" stroke="#bfbfbf" points="0,-343.5 0,-362.5 51,-362.5 51,-343.5 0,-343.5"/>
<text text-anchor="middle" x="25.5" y="-350.5" font-family="Helvetica,sans-Serif" font-size="10.00">integer</text>
</a>
</g>
</g>
<!-- Node3&#45;&gt;Node1 -->
<g id="edge10" class="edge">
<title>Node3&#45;&gt;Node1</title>
<path fill="none" stroke="#9a32cd" stroke-dasharray="5,2" d="M61,-365.58C127.6,-387.48 275.53,-424.17 369,-357 425.85,-316.14 432.75,-220.05 433.46,-188.92"/>
<polygon fill="#9a32cd" stroke="#9a32cd" points="62,-362.23 51.41,-362.35 59.76,-368.86 62,-362.23"/>
<text text-anchor="middle" x="182.5" y="-475" font-family="Helvetica,sans-Serif" font-size="10.00"> active_omp_level</text>
<text text-anchor="middle" x="182.5" y="-464" font-family="Helvetica,sans-Serif" font-size="10.00">axes</text>
<text text-anchor="middle" x="182.5" y="-453" font-family="Helvetica,sans-Serif" font-size="10.00">num_axes</text>
<text text-anchor="middle" x="182.5" y="-442" font-family="Helvetica,sans-Serif" font-size="10.00">num_output_fields</text>
<text text-anchor="middle" x="182.5" y="-431" font-family="Helvetica,sans-Serif" font-size="10.00">numthreads</text>
<text text-anchor="middle" x="182.5" y="-420" font-family="Helvetica,sans-Serif" font-size="10.00">output_fields</text>
<text text-anchor="middle" x="182.5" y="-409" font-family="Helvetica,sans-Serif" font-size="10.00">size</text>
<text text-anchor="middle" x="182.5" y="-398" font-family="Helvetica,sans-Serif" font-size="10.00">tile_count</text>
</g>
<!-- Node3&#45;&gt;Node2 -->
<g id="edge2" class="edge">
<title>Node3&#45;&gt;Node2</title>
<path fill="none" stroke="#9a32cd" stroke-dasharray="5,2" d="M48.58,-338.39C54.91,-334.95 62.01,-331.77 69,-330 95.51,-323.29 126.67,-323.92 149.46,-325.87"/>
<polygon fill="#9a32cd" stroke="#9a32cd" points="46.78,-335.38 39.94,-343.48 50.33,-341.42 46.78,-335.38"/>
<text text-anchor="middle" x="89" y="-355" font-family="Helvetica,sans-Serif" font-size="10.00"> days</text>
<text text-anchor="middle" x="89" y="-344" font-family="Helvetica,sans-Serif" font-size="10.00">seconds</text>
<text text-anchor="middle" x="89" y="-333" font-family="Helvetica,sans-Serif" font-size="10.00">ticks</text>
</g>
<!-- Node4 -->
<g id="node4" class="node">
<title>Node4</title>
<g id="a_node4"><a xlink:title=" ">
<polygon fill="white" stroke="#bfbfbf" points="158,-237.5 158,-256.5 207,-256.5 207,-237.5 158,-237.5"/>
<text text-anchor="middle" x="182.5" y="-244.5" font-family="Helvetica,sans-Serif" font-size="10.00">logical</text>
</a>
</g>
</g>
<!-- Node4&#45;&gt;Node1 -->
<g id="edge3" class="edge">
<title>Node4&#45;&gt;Node1</title>
<path fill="none" stroke="#9a32cd" stroke-dasharray="5,2" d="M217.12,-239.46C229.35,-236.75 243.29,-233.7 256,-231 306.14,-220.37 320.22,-223.72 369,-208 385.01,-202.84 402.36,-194.9 415.02,-188.63"/>
<polygon fill="#9a32cd" stroke="#9a32cd" points="216.32,-236.05 207.32,-241.64 217.84,-242.89 216.32,-236.05"/>
<text text-anchor="start" x="256" y="-311" font-family="Helvetica,sans-Serif" font-size="10.00"> issued_mask_ignore</text>
<text text-anchor="middle" x="312.5" y="-300" font-family="Helvetica,sans-Serif" font-size="10.00">_warning</text>
<text text-anchor="middle" x="312.5" y="-289" font-family="Helvetica,sans-Serif" font-size="10.00">local</text>
<text text-anchor="middle" x="312.5" y="-278" font-family="Helvetica,sans-Serif" font-size="10.00">mask_variant</text>
<text text-anchor="middle" x="312.5" y="-267" font-family="Helvetica,sans-Serif" font-size="10.00">missing_value_present</text>
<text text-anchor="middle" x="312.5" y="-256" font-family="Helvetica,sans-Serif" font-size="10.00">range_present</text>
<text text-anchor="middle" x="312.5" y="-245" font-family="Helvetica,sans-Serif" font-size="10.00">register</text>
<text text-anchor="middle" x="312.5" y="-234" font-family="Helvetica,sans-Serif" font-size="10.00">static</text>
</g>
<!-- Node5 -->
<g id="node5" class="node">
<title>Node5</title>
<g id="a_node5"><a xlink:href="group__diag__data__mod.html#structdiag__data__mod_1_1coord__type" target="_top" xlink:title="Define the region for field output.">
<polygon fill="white" stroke="black" points="147,-141.5 147,-160.5 218,-160.5 218,-141.5 147,-141.5"/>
<text text-anchor="middle" x="182.5" y="-148.5" font-family="Helvetica,sans-Serif" font-size="10.00">coord_type</text>
</a>
</g>
</g>
<!-- Node5&#45;&gt;Node1 -->
<g id="edge4" class="edge">
<title>Node5&#45;&gt;Node1</title>
<path fill="none" stroke="#9a32cd" stroke-dasharray="5,2" d="M228.25,-156.01C272.93,-161.02 341.3,-168.67 386.69,-173.76"/>
<polygon fill="#9a32cd" stroke="#9a32cd" points="228.59,-152.53 218.26,-154.89 227.81,-159.48 228.59,-152.53"/>
<text text-anchor="middle" x="312.5" y="-174" font-family="Helvetica,sans-Serif" font-size="10.00"> local_coord</text>
</g>
<!-- Node6 -->
<g id="node6" class="node">
<title>Node6</title>
<g id="a_node6"><a xlink:title=" ">
<polygon fill="white" stroke="#bfbfbf" points="8,-147.5 8,-166.5 43,-166.5 43,-147.5 8,-147.5"/>
<text text-anchor="middle" x="25.5" y="-154.5" font-family="Helvetica,sans-Serif" font-size="10.00">real</text>
</a>
</g>
</g>
<!-- Node6&#45;&gt;Node1 -->
<g id="edge9" class="edge">
<title>Node6&#45;&gt;Node1</title>
<path fill="none" stroke="#9a32cd" stroke-dasharray="5,2" d="M46.72,-172.48C53.45,-176.75 61.22,-180.81 69,-183 197.34,-219.14 235.73,-187.13 369,-183 374.72,-182.82 380.72,-182.56 386.66,-182.25"/>
<polygon fill="#9a32cd" stroke="#9a32cd" points="48.52,-169.47 38.3,-166.68 44.55,-175.23 48.52,-169.47"/>
<text text-anchor="middle" x="182.5" y="-214" font-family="Helvetica,sans-Serif" font-size="10.00"> missing_value</text>
<text text-anchor="middle" x="182.5" y="-203" font-family="Helvetica,sans-Serif" font-size="10.00">range</text>
</g>
<!-- Node6&#45;&gt;Node5 -->
<g id="edge5" class="edge">
<title>Node6&#45;&gt;Node5</title>
<path fill="none" stroke="#9a32cd" stroke-dasharray="5,2" d="M39.66,-139.5C47.19,-130.97 57.44,-121.59 69,-117 85.53,-110.45 92.28,-110.95 109,-117 118.79,-120.55 117.94,-126.87 127,-132 133.54,-135.7 140.93,-138.87 148.1,-141.49"/>
<polygon fill="#9a32cd" stroke="#9a32cd" points="36.95,-137.28 33.31,-147.23 42.36,-141.72 36.95,-137.28"/>
<text text-anchor="middle" x="89" y="-175" font-family="Helvetica,sans-Serif" font-size="10.00"> xbegin</text>
<text text-anchor="middle" x="89" y="-164" font-family="Helvetica,sans-Serif" font-size="10.00">xend</text>
<text text-anchor="middle" x="89" y="-153" font-family="Helvetica,sans-Serif" font-size="10.00">ybegin</text>
<text text-anchor="middle" x="89" y="-142" font-family="Helvetica,sans-Serif" font-size="10.00">yend</text>
<text text-anchor="middle" x="89" y="-131" font-family="Helvetica,sans-Serif" font-size="10.00">zbegin</text>
<text text-anchor="middle" x="89" y="-120" font-family="Helvetica,sans-Serif" font-size="10.00">zend</text>
</g>
<!-- Node7 -->
<g id="node7" class="node">
<title>Node7</title>
<g id="a_node7"><a xlink:title=" ">
<polygon fill="white" stroke="#bfbfbf" points="127,-103.5 127,-122.5 238,-122.5 238,-103.5 127,-103.5"/>
<text text-anchor="middle" x="182.5" y="-110.5" font-family="Helvetica,sans-Serif" font-size="10.00">character(len=256)</text>
</a>
</g>
</g>
<!-- Node7&#45;&gt;Node1 -->
<g id="edge6" class="edge">
<title>Node7&#45;&gt;Node1</title>
<path fill="none" stroke="#9a32cd" stroke-dasharray="5,2" d="M248.21,-118.49C284.45,-122.88 330.05,-130.6 369,-144 387.31,-150.3 406.62,-161.46 419.28,-169.48"/>
<polygon fill="#9a32cd" stroke="#9a32cd" points="248.58,-115.01 238.25,-117.34 247.78,-121.97 248.58,-115.01"/>
<text text-anchor="middle" x="312.5" y="-147" font-family="Helvetica,sans-Serif" font-size="10.00"> standard_name</text>
</g>
<!-- Node8 -->
<g id="node8" class="node">
<title>Node8</title>
<g id="a_node8"><a xlink:title=" ">
<polygon fill="white" stroke="#bfbfbf" points="130,-65.5 130,-84.5 235,-84.5 235,-65.5 130,-65.5"/>
<text text-anchor="middle" x="182.5" y="-72.5" font-family="Helvetica,sans-Serif" font-size="10.00">character(len=64)</text>
</a>
</g>
</g>
<!-- Node8&#45;&gt;Node1 -->
<g id="edge7" class="edge">
<title>Node8&#45;&gt;Node1</title>
<path fill="none" stroke="#9a32cd" stroke-dasharray="5,2" d="M245.73,-74.6C283.49,-76.81 331.46,-84.15 369,-105 397.01,-120.56 418.66,-153.18 428.19,-169.4"/>
<polygon fill="#9a32cd" stroke="#9a32cd" points="245.52,-71.08 235.37,-74.1 245.19,-78.07 245.52,-71.08"/>
<text text-anchor="middle" x="312.5" y="-108" font-family="Helvetica,sans-Serif" font-size="10.00"> interp_method</text>
</g>
<!-- Node9 -->
<g id="node9" class="node">
<title>Node9</title>
<g id="a_node9"><a xlink:title=" ">
<polygon fill="white" stroke="#bfbfbf" points="127,-0.5 127,-19.5 238,-19.5 238,-0.5 127,-0.5"/>
<text text-anchor="middle" x="182.5" y="-7.5" font-family="Helvetica,sans-Serif" font-size="10.00">character(len=128)</text>
</a>
</g>
</g>
<!-- Node9&#45;&gt;Node1 -->
<g id="edge8" class="edge">
<title>Node9&#45;&gt;Node1</title>
<path fill="none" stroke="#9a32cd" stroke-dasharray="5,2" d="M248.29,-0.79C286.83,1.18 334.73,-2.91 369,-28 417.07,-63.19 429.64,-141.57 432.64,-169.16"/>
<polygon fill="#9a32cd" stroke="#9a32cd" points="247.95,2.7 238.2,-1.45 248.41,-4.29 247.95,2.7"/>
<text text-anchor="middle" x="312.5" y="-64" font-family="Helvetica,sans-Serif" font-size="10.00"> field_name</text>
<text text-anchor="middle" x="312.5" y="-53" font-family="Helvetica,sans-Serif" font-size="10.00">long_name</text>
<text text-anchor="middle" x="312.5" y="-42" font-family="Helvetica,sans-Serif" font-size="10.00">module_name</text>
<text text-anchor="middle" x="312.5" y="-31" font-family="Helvetica,sans-Serif" font-size="10.00">units</text>
</g>
</g>
</svg>
