<?xml version="1.0" encoding="UTF-8" standalone="no"?>
<!DOCTYPE svg PUBLIC "-//W3C//DTD SVG 1.1//EN"
 "http://www.w3.org/Graphics/SVG/1.1/DTD/svg11.dtd">
<!-- Generated by graphviz version 2.43.0 (0)
 -->
<!-- Title: field_names_type Pages: 1 -->
<svg width="316pt" height="117pt"
 viewBox="0.00 0.00 315.50 117.00" xmlns="http://www.w3.org/2000/svg" xmlns:xlink="http://www.w3.org/1999/xlink">
<g id="graph0" class="graph" transform="scale(1 1) rotate(0) translate(4 113)">
<title>field_names_type</title>
<polygon fill="white" stroke="transparent" points="-4,4 -4,-113 311.5,-113 311.5,4 -4,4"/>
<!-- Node1 -->
<g id="node1" class="node">
<title>Node1</title>
<g id="a_node1"><a xlink:title="Private type for internal use.">
<polygon fill="#bfbfbf" stroke="black" points="94,-0.5 94,-19.5 197,-19.5 197,-0.5 94,-0.5"/>
<text text-anchor="middle" x="145.5" y="-7.5" font-family="Helvetica,sans-Serif" font-size="10.00">field_names_type</text>
</a>
</g>
</g>
<!-- Node2 -->
<g id="node2" class="node">
<title>Node2</title>
<g id="a_node2"><a xlink:title=" ">
<polygon fill="white" stroke="#bfbfbf" points="0,-78.5 0,-108.5 129,-108.5 129,-78.5 0,-78.5"/>
<text text-anchor="start" x="8" y="-96.5" font-family="Helvetica,sans-Serif" font-size="10.00">character(len=fm_field</text>
<text text-anchor="middle" x="64.5" y="-85.5" font-family="Helvetica,sans-Serif" font-size="10.00">_name_len)</text>
</a>
</g>
</g>
<!-- Node2&#45;&gt;Node1 -->
<g id="edge1" class="edge">
<title>Node2&#45;&gt;Node1</title>
<path fill="none" stroke="#9a32cd" stroke-dasharray="5,2" d="M85.84,-71.03C102.58,-54.19 124.98,-31.64 137.01,-19.54"/>
<polygon fill="#9a32cd" stroke="#9a32cd" points="83.18,-68.74 78.61,-78.3 88.14,-73.68 83.18,-68.74"/>
<text text-anchor="middle" x="145" y="-52" font-family="Helvetica,sans-Serif" font-size="10.00"> fld_type</text>
<text text-anchor="middle" x="145" y="-41" font-family="Helvetica,sans-Serif" font-size="10.00">mod_name</text>
</g>
<!-- Node3 -->
<g id="node3" class="node">
<title>Node3</title>
<g id="a_node3"><a xlink:title=" ">
<polygon fill="white" stroke="#bfbfbf" points="147.5,-84 147.5,-103 307.5,-103 307.5,-84 147.5,-84"/>
<text text-anchor="middle" x="227.5" y="-91" font-family="Helvetica,sans-Serif" font-size="10.00">character(len=fm_string_len)</text>
</a>
</g>
</g>
<!-- Node3&#45;&gt;Node1 -->
<g id="edge2" class="edge">
<title>Node3&#45;&gt;Node1</title>
<path fill="none" stroke="#9a32cd" stroke-dasharray="5,2" d="M212.98,-76.13C203,-65.08 189.28,-50.33 176.5,-38 169.82,-31.56 161.93,-24.7 155.78,-19.5"/>
<polygon fill="#9a32cd" stroke="#9a32cd" points="210.53,-78.64 219.81,-83.75 215.74,-73.96 210.53,-78.64"/>
<text text-anchor="middle" x="222" y="-46.5" font-family="Helvetica,sans-Serif" font-size="10.00"> fld_name</text>
</g>
</g>
</svg>
