<?xml version="1.0" encoding="UTF-8" standalone="no"?>
<!DOCTYPE svg PUBLIC "-//W3C//DTD SVG 1.1//EN"
 "http://www.w3.org/Graphics/SVG/1.1/DTD/svg11.dtd">
<!-- Generated by graphviz version 2.43.0 (0)
 -->
<!-- Title: xcell_type Pages: 1 -->
<svg width="173pt" height="183pt"
 viewBox="0.00 0.00 172.50 183.00" xmlns="http://www.w3.org/2000/svg" xmlns:xlink="http://www.w3.org/1999/xlink">
<g id="graph0" class="graph" transform="scale(1 1) rotate(0) translate(4 179)">
<title>xcell_type</title>
<polygon fill="white" stroke="transparent" points="-4,4 -4,-179 168.5,-179 168.5,4 -4,4"/>
<!-- Node1 -->
<g id="node1" class="node">
<title>Node1</title>
<g id="a_node1"><a xlink:title="Private type for cell indices and data in the exchange grid.">
<polygon fill="#bfbfbf" stroke="black" points="47,-0.5 47,-19.5 114,-19.5 114,-0.5 47,-0.5"/>
<text text-anchor="middle" x="80.5" y="-7.5" font-family="Helvetica,sans-Serif" font-size="10.00">xcell_type</text>
</a>
</g>
</g>
<!-- Node2 -->
<g id="node2" class="node">
<title>Node2</title>
<g id="a_node2"><a xlink:title=" ">
<polygon fill="white" stroke="#bfbfbf" points="0,-155.5 0,-174.5 79,-174.5 79,-155.5 0,-155.5"/>
<text text-anchor="middle" x="39.5" y="-162.5" font-family="Helvetica,sans-Serif" font-size="10.00">real(r8_kind)</text>
</a>
</g>
</g>
<!-- Node2&#45;&gt;Node1 -->
<g id="edge1" class="edge">
<title>Node2&#45;&gt;Node1</title>
<path fill="none" stroke="#9a32cd" stroke-dasharray="5,2" d="M44.45,-145.54C53.35,-112.31 71.75,-43.65 78.2,-19.57"/>
<polygon fill="#9a32cd" stroke="#9a32cd" points="41.03,-144.77 41.82,-155.34 47.79,-146.58 41.03,-144.77"/>
<text text-anchor="middle" x="85.5" y="-101.5" font-family="Helvetica,sans-Serif" font-size="10.00"> area</text>
<text text-anchor="middle" x="85.5" y="-90.5" font-family="Helvetica,sans-Serif" font-size="10.00">di</text>
<text text-anchor="middle" x="85.5" y="-79.5" font-family="Helvetica,sans-Serif" font-size="10.00">dj</text>
<text text-anchor="middle" x="85.5" y="-68.5" font-family="Helvetica,sans-Serif" font-size="10.00">scale</text>
</g>
<!-- Node3 -->
<g id="node3" class="node">
<title>Node3</title>
<g id="a_node3"><a xlink:title=" ">
<polygon fill="white" stroke="#bfbfbf" points="97,-155.5 97,-174.5 148,-174.5 148,-155.5 97,-155.5"/>
<text text-anchor="middle" x="122.5" y="-162.5" font-family="Helvetica,sans-Serif" font-size="10.00">integer</text>
</a>
</g>
</g>
<!-- Node3&#45;&gt;Node1 -->
<g id="edge2" class="edge">
<title>Node3&#45;&gt;Node1</title>
<path fill="none" stroke="#9a32cd" stroke-dasharray="5,2" d="M121.91,-145.32C120.53,-120.02 115.91,-73.93 100.5,-38 97.65,-31.35 92.87,-24.81 88.69,-19.83"/>
<polygon fill="#9a32cd" stroke="#9a32cd" points="118.42,-145.52 122.35,-155.36 125.41,-145.22 118.42,-145.52"/>
<text text-anchor="middle" x="142.5" y="-129" font-family="Helvetica,sans-Serif" font-size="10.00"> i1</text>
<text text-anchor="middle" x="142.5" y="-118" font-family="Helvetica,sans-Serif" font-size="10.00">i2</text>
<text text-anchor="middle" x="142.5" y="-107" font-family="Helvetica,sans-Serif" font-size="10.00">j1</text>
<text text-anchor="middle" x="142.5" y="-96" font-family="Helvetica,sans-Serif" font-size="10.00">j2</text>
<text text-anchor="middle" x="142.5" y="-85" font-family="Helvetica,sans-Serif" font-size="10.00">l1</text>
<text text-anchor="middle" x="142.5" y="-74" font-family="Helvetica,sans-Serif" font-size="10.00">l2</text>
<text text-anchor="middle" x="142.5" y="-63" font-family="Helvetica,sans-Serif" font-size="10.00">pe</text>
<text text-anchor="middle" x="142.5" y="-52" font-family="Helvetica,sans-Serif" font-size="10.00">recv_pos</text>
<text text-anchor="middle" x="142.5" y="-41" font-family="Helvetica,sans-Serif" font-size="10.00">tile</text>
</g>
</g>
</svg>
