<?xml version="1.0" encoding="UTF-8" standalone="no"?>
<!DOCTYPE svg PUBLIC "-//W3C//DTD SVG 1.1//EN"
 "http://www.w3.org/Graphics/SVG/1.1/DTD/svg11.dtd">
<!-- Generated by graphviz version 2.43.0 (0)
 -->
<!-- Title: domain1d Pages: 1 -->
<svg width="226pt" height="252pt"
 viewBox="0.00 0.00 226.18 252.00" xmlns="http://www.w3.org/2000/svg" xmlns:xlink="http://www.w3.org/1999/xlink">
<g id="graph0" class="graph" transform="scale(1 1) rotate(0) translate(4 248)">
<title>domain1d</title>
<polygon fill="white" stroke="transparent" points="-4,4 -4,-248 222.18,-248 222.18,4 -4,4"/>
<!-- Node1 -->
<g id="node1" class="node">
<title>Node1</title>
<g id="a_node1"><a xlink:title="One dimensional domain used to manage shared data access between pes.">
<polygon fill="#bfbfbf" stroke="black" points="68.68,-0.5 68.68,-19.5 133.68,-19.5 133.68,-0.5 68.68,-0.5"/>
<text text-anchor="middle" x="101.18" y="-7.5" font-family="Helvetica,sans-Serif" font-size="10.00">domain1d</text>
</a>
</g>
</g>
<!-- Node1&#45;&gt;Node1 -->
<g id="edge2" class="edge">
<title>Node1&#45;&gt;Node1</title>
<path fill="none" stroke="#9a32cd" stroke-dasharray="5,2" d="M143.83,-17.92C148.6,-16.42 151.68,-13.78 151.68,-10 151.68,-3.95 143.79,-0.82 133.73,-0.63"/>
<polygon fill="#9a32cd" stroke="#9a32cd" points="143.13,-14.48 133.73,-19.37 144.12,-21.41 143.13,-14.48"/>
<text text-anchor="middle" x="161.18" y="-7.5" font-family="Helvetica,sans-Serif" font-size="10.00"> list</text>
</g>
<!-- Node2 -->
<g id="node2" class="node">
<title>Node2</title>
<g id="a_node2"><a xlink:title=" ">
<polygon fill="white" stroke="#bfbfbf" points="4.68,-224.5 4.68,-243.5 53.68,-243.5 53.68,-224.5 4.68,-224.5"/>
<text text-anchor="middle" x="29.18" y="-231.5" font-family="Helvetica,sans-Serif" font-size="10.00">logical</text>
</a>
</g>
</g>
<!-- Node2&#45;&gt;Node1 -->
<g id="edge1" class="edge">
<title>Node2&#45;&gt;Node1</title>
<path fill="none" stroke="#9a32cd" stroke-dasharray="5,2" d="M20.13,-215.07C8.19,-188.78 -9.48,-138.72 7.18,-100 23.35,-62.43 64.04,-33.3 86.21,-19.59"/>
<polygon fill="#9a32cd" stroke="#9a32cd" points="17.03,-216.68 24.49,-224.2 23.34,-213.66 17.03,-216.68"/>
<text text-anchor="middle" x="22.68" y="-119.5" font-family="Helvetica,sans-Serif" font-size="10.00"> cyclic</text>
</g>
<!-- Node3 -->
<g id="node3" class="node">
<title>Node3</title>
<g id="a_node3"><a xlink:href="group__mpp__domains__mod.html#structmpp__domains__mod_1_1domain__axis__spec" target="_top" xlink:title="Used to specify index limits along an axis of a domain.">
<polygon fill="white" stroke="black" points="47.68,-112.5 47.68,-131.5 154.68,-131.5 154.68,-112.5 47.68,-112.5"/>
<text text-anchor="middle" x="101.18" y="-119.5" font-family="Helvetica,sans-Serif" font-size="10.00">domain_axis_spec</text>
</a>
</g>
</g>
<!-- Node2&#45;&gt;Node3 -->
<g id="edge4" class="edge">
<title>Node2&#45;&gt;Node3</title>
<path fill="none" stroke="#9a32cd" stroke-dasharray="5,2" d="M35.33,-214.52C40.8,-199.58 49.7,-178.4 61.18,-162 69.42,-150.24 81.5,-139.04 90.23,-131.69"/>
<polygon fill="#9a32cd" stroke="#9a32cd" points="31.96,-213.55 31.97,-224.15 38.57,-215.86 31.96,-213.55"/>
<text text-anchor="middle" x="84.68" y="-181.5" font-family="Helvetica,sans-Serif" font-size="10.00"> is_global</text>
</g>
<!-- Node3&#45;&gt;Node1 -->
<g id="edge3" class="edge">
<title>Node3&#45;&gt;Node1</title>
<path fill="none" stroke="#9a32cd" stroke-dasharray="5,2" d="M101.18,-102.35C101.18,-78.25 101.18,-37.31 101.18,-19.59"/>
<polygon fill="#9a32cd" stroke="#9a32cd" points="97.68,-102.37 101.18,-112.37 104.68,-102.37 97.68,-102.37"/>
<text text-anchor="middle" x="124.18" y="-74" font-family="Helvetica,sans-Serif" font-size="10.00"> compute</text>
<text text-anchor="middle" x="124.18" y="-63" font-family="Helvetica,sans-Serif" font-size="10.00">data</text>
<text text-anchor="middle" x="124.18" y="-52" font-family="Helvetica,sans-Serif" font-size="10.00">global</text>
<text text-anchor="middle" x="124.18" y="-41" font-family="Helvetica,sans-Serif" font-size="10.00">memory</text>
</g>
<!-- Node4 -->
<g id="node4" class="node">
<title>Node4</title>
<g id="a_node4"><a xlink:title=" ">
<polygon fill="white" stroke="#bfbfbf" points="127.68,-224.5 127.68,-243.5 178.68,-243.5 178.68,-224.5 127.68,-224.5"/>
<text text-anchor="middle" x="153.18" y="-231.5" font-family="Helvetica,sans-Serif" font-size="10.00">integer</text>
</a>
</g>
</g>
<!-- Node4&#45;&gt;Node1 -->
<g id="edge6" class="edge">
<title>Node4&#45;&gt;Node1</title>
<path fill="none" stroke="#9a32cd" stroke-dasharray="5,2" d="M170.7,-216.96C173.36,-213.62 175.7,-209.91 177.18,-206 194.54,-160.35 162.48,-53.14 151.18,-38 145.05,-29.78 135.64,-23.78 126.64,-19.56"/>
<polygon fill="#9a32cd" stroke="#9a32cd" points="168.02,-214.71 163.79,-224.43 173.15,-219.47 168.02,-214.71"/>
<text text-anchor="middle" x="199.68" y="-136" font-family="Helvetica,sans-Serif" font-size="10.00"> goffset</text>
<text text-anchor="middle" x="199.68" y="-125" font-family="Helvetica,sans-Serif" font-size="10.00">loffset</text>
<text text-anchor="middle" x="199.68" y="-114" font-family="Helvetica,sans-Serif" font-size="10.00">pe</text>
<text text-anchor="middle" x="199.68" y="-103" font-family="Helvetica,sans-Serif" font-size="10.00">pos</text>
</g>
<!-- Node4&#45;&gt;Node3 -->
<g id="edge5" class="edge">
<title>Node4&#45;&gt;Node3</title>
<path fill="none" stroke="#9a32cd" stroke-dasharray="5,2" d="M137.54,-216.55C134.85,-213.22 132.26,-209.62 130.18,-206 115.75,-180.84 106.77,-147.31 103.1,-131.69"/>
<polygon fill="#9a32cd" stroke="#9a32cd" points="134.96,-218.92 144.18,-224.15 140.23,-214.32 134.96,-218.92"/>
<text text-anchor="middle" x="153.68" y="-198" font-family="Helvetica,sans-Serif" font-size="10.00"> begin</text>
<text text-anchor="middle" x="153.68" y="-187" font-family="Helvetica,sans-Serif" font-size="10.00">end</text>
<text text-anchor="middle" x="153.68" y="-176" font-family="Helvetica,sans-Serif" font-size="10.00">max_size</text>
<text text-anchor="middle" x="153.68" y="-165" font-family="Helvetica,sans-Serif" font-size="10.00">size</text>
</g>
</g>
</svg>
