<?xml version="1.0" encoding="UTF-8" standalone="no"?>
<!DOCTYPE svg PUBLIC "-//W3C//DTD SVG 1.1//EN"
 "http://www.w3.org/Graphics/SVG/1.1/DTD/svg11.dtd">
<!-- Generated by graphviz version 2.43.0 (0)
 -->
<!-- Title: field_description_type Pages: 1 -->
<svg width="400pt" height="250pt"
 viewBox="0.00 0.00 400.00 250.00" xmlns="http://www.w3.org/2000/svg" xmlns:xlink="http://www.w3.org/1999/xlink">
<g id="graph0" class="graph" transform="scale(1 1) rotate(0) translate(4 246)">
<title>field_description_type</title>
<polygon fill="white" stroke="transparent" points="-4,4 -4,-246 396,-246 396,4 -4,4"/>
<!-- Node1 -->
<g id="node1" class="node">
<title>Node1</title>
<g id="a_node1"><a xlink:title="Private type to hold field information for the diag table.">
<polygon fill="#bfbfbf" stroke="black" points="142.5,-0.5 142.5,-19.5 266.5,-19.5 266.5,-0.5 142.5,-0.5"/>
<text text-anchor="middle" x="204.5" y="-7.5" font-family="Helvetica,sans-Serif" font-size="10.00">field_description_type</text>
</a>
</g>
</g>
<!-- Node2 -->
<g id="node2" class="node">
<title>Node2</title>
<g id="a_node2"><a xlink:href="group__diag__data__mod.html#structdiag__data__mod_1_1coord__type" target="_top" xlink:title="Define the region for field output.">
<polygon fill="white" stroke="black" points="0,-100.5 0,-119.5 71,-119.5 71,-100.5 0,-100.5"/>
<text text-anchor="middle" x="35.5" y="-107.5" font-family="Helvetica,sans-Serif" font-size="10.00">coord_type</text>
</a>
</g>
</g>
<!-- Node2&#45;&gt;Node1 -->
<g id="edge1" class="edge">
<title>Node2&#45;&gt;Node1</title>
<path fill="none" stroke="#9a32cd" stroke-dasharray="5,2" d="M38.34,-90.47C41.85,-74.15 49.46,-51.01 65.5,-38 77.48,-28.28 111.12,-21.6 142.3,-17.32"/>
<polygon fill="#9a32cd" stroke="#9a32cd" points="34.87,-90 36.52,-100.47 41.76,-91.26 34.87,-90"/>
<text text-anchor="middle" x="106" y="-57.5" font-family="Helvetica,sans-Serif" font-size="10.00"> regional_coords</text>
</g>
<!-- Node3 -->
<g id="node3" class="node">
<title>Node3</title>
<g id="a_node3"><a xlink:title=" ">
<polygon fill="white" stroke="#bfbfbf" points="18,-222.5 18,-241.5 53,-241.5 53,-222.5 18,-222.5"/>
<text text-anchor="middle" x="35.5" y="-229.5" font-family="Helvetica,sans-Serif" font-size="10.00">real</text>
</a>
</g>
</g>
<!-- Node3&#45;&gt;Node2 -->
<g id="edge2" class="edge">
<title>Node3&#45;&gt;Node2</title>
<path fill="none" stroke="#9a32cd" stroke-dasharray="5,2" d="M35.5,-212.15C35.5,-185.72 35.5,-138.76 35.5,-119.55"/>
<polygon fill="#9a32cd" stroke="#9a32cd" points="32,-212.37 35.5,-222.37 39,-212.37 32,-212.37"/>
<text text-anchor="middle" x="54" y="-196" font-family="Helvetica,sans-Serif" font-size="10.00"> xbegin</text>
<text text-anchor="middle" x="54" y="-185" font-family="Helvetica,sans-Serif" font-size="10.00">xend</text>
<text text-anchor="middle" x="54" y="-174" font-family="Helvetica,sans-Serif" font-size="10.00">ybegin</text>
<text text-anchor="middle" x="54" y="-163" font-family="Helvetica,sans-Serif" font-size="10.00">yend</text>
<text text-anchor="middle" x="54" y="-152" font-family="Helvetica,sans-Serif" font-size="10.00">zbegin</text>
<text text-anchor="middle" x="54" y="-141" font-family="Helvetica,sans-Serif" font-size="10.00">zend</text>
</g>
<!-- Node4 -->
<g id="node4" class="node">
<title>Node4</title>
<g id="a_node4"><a xlink:title=" ">
<polygon fill="white" stroke="#bfbfbf" points="89,-100.5 89,-119.5 194,-119.5 194,-100.5 89,-100.5"/>
<text text-anchor="middle" x="141.5" y="-107.5" font-family="Helvetica,sans-Serif" font-size="10.00">character(len=50)</text>
</a>
</g>
</g>
<!-- Node4&#45;&gt;Node1 -->
<g id="edge3" class="edge">
<title>Node4&#45;&gt;Node1</title>
<path fill="none" stroke="#9a32cd" stroke-dasharray="5,2" d="M146.87,-90.78C151.91,-75.67 160.46,-54.14 172.5,-38 177.8,-30.89 185.32,-24.43 191.73,-19.61"/>
<polygon fill="#9a32cd" stroke="#9a32cd" points="143.49,-89.89 143.83,-100.48 150.16,-91.98 143.49,-89.89"/>
<text text-anchor="middle" x="209" y="-68.5" font-family="Helvetica,sans-Serif" font-size="10.00"> spatial_ops</text>
<text text-anchor="middle" x="209" y="-57.5" font-family="Helvetica,sans-Serif" font-size="10.00">time_method</text>
<text text-anchor="middle" x="209" y="-46.5" font-family="Helvetica,sans-Serif" font-size="10.00">time_sampling</text>
</g>
<!-- Node5 -->
<g id="node5" class="node">
<title>Node5</title>
<g id="a_node5"><a xlink:title=" ">
<polygon fill="white" stroke="#bfbfbf" points="212,-100.5 212,-119.5 323,-119.5 323,-100.5 212,-100.5"/>
<text text-anchor="middle" x="267.5" y="-107.5" font-family="Helvetica,sans-Serif" font-size="10.00">character(len=128)</text>
</a>
</g>
</g>
<!-- Node5&#45;&gt;Node1 -->
<g id="edge4" class="edge">
<title>Node5&#45;&gt;Node1</title>
<path fill="none" stroke="#9a32cd" stroke-dasharray="5,2" d="M265.2,-89.97C262.55,-74.68 256.99,-53.29 245.5,-38 239.66,-30.23 230.89,-24.03 222.96,-19.54"/>
<polygon fill="#9a32cd" stroke="#9a32cd" points="261.79,-90.89 266.7,-100.28 268.72,-89.88 261.79,-90.89"/>
<text text-anchor="middle" x="298.5" y="-74" font-family="Helvetica,sans-Serif" font-size="10.00"> field_name</text>
<text text-anchor="middle" x="298.5" y="-63" font-family="Helvetica,sans-Serif" font-size="10.00">file_name</text>
<text text-anchor="middle" x="298.5" y="-52" font-family="Helvetica,sans-Serif" font-size="10.00">module_name</text>
<text text-anchor="middle" x="298.5" y="-41" font-family="Helvetica,sans-Serif" font-size="10.00">output_name</text>
</g>
<!-- Node6 -->
<g id="node6" class="node">
<title>Node6</title>
<g id="a_node6"><a xlink:title=" ">
<polygon fill="white" stroke="#bfbfbf" points="341,-100.5 341,-119.5 392,-119.5 392,-100.5 341,-100.5"/>
<text text-anchor="middle" x="366.5" y="-107.5" font-family="Helvetica,sans-Serif" font-size="10.00">integer</text>
</a>
</g>
</g>
<!-- Node6&#45;&gt;Node1 -->
<g id="edge5" class="edge">
<title>Node6&#45;&gt;Node1</title>
<path fill="none" stroke="#9a32cd" stroke-dasharray="5,2" d="M363.9,-90.52C360.61,-74.23 353.33,-51.11 337.5,-38 326.43,-28.83 295.71,-22.27 266.57,-17.91"/>
<polygon fill="#9a32cd" stroke="#9a32cd" points="360.47,-91.22 365.6,-100.49 367.37,-90.05 360.47,-91.22"/>
<text text-anchor="middle" x="375" y="-57.5" font-family="Helvetica,sans-Serif" font-size="10.00"> pack</text>
</g>
</g>
</svg>
