<?xml version="1.0" encoding="UTF-8" standalone="no"?>
<!DOCTYPE svg PUBLIC "-//W3C//DTD SVG 1.1//EN"
 "http://www.w3.org/Graphics/SVG/1.1/DTD/svg11.dtd">
<!-- Generated by graphviz version 2.43.0 (0)
 -->
<!-- Title: file_description_type Pages: 1 -->
<!--zoomable 296 -->
<svg id="main" version="1.1" xmlns="http://www.w3.org/2000/svg" xmlns:xlink="http://www.w3.org/1999/xlink" xml:space="preserve" onload="init(evt)">
<style type="text/css"><![CDATA[
.edge:hover path { stroke: red; }
.edge:hover polygon { stroke: red; fill: red; }
]]></style>
<script type="text/javascript"><![CDATA[
var edges = document.getElementsByTagName('g');
if (edges && edges.length) {
  for (var i=0;i<edges.length;i++) {
    if (edges[i].id.substr(0,4)=='edge') {
      edges[i].setAttribute('class','edge');
    }
  }
}
]]></script>
        <defs>
                <circle id="rim" cx="0" cy="0" r="7"/>
                <circle id="rim2" cx="0" cy="0" r="3.5"/>
                <g id="zoomPlus">
                        <use xlink:href="#rim" fill="#404040">
                                <set attributeName="fill" to="#808080" begin="zoomplus.mouseover" end="zoomplus.mouseout"/>
                        </use>
                        <path d="M-4,0h8M0,-4v8" fill="none" stroke="white" stroke-width="1.5" pointer-events="none"/>
                </g>
                <g id="zoomMin">
                        <use xlink:href="#rim" fill="#404040">
                                <set attributeName="fill" to="#808080" begin="zoomminus.mouseover" end="zoomminus.mouseout"/>
                        </use>
                        <path d="M-4,0h8" fill="none" stroke="white" stroke-width="1.5" pointer-events="none"/>
                </g>
                <g id="dirArrow">
                        <path fill="none" stroke="white" stroke-width="1.5" d="M0,-3.0v7 M-2.5,-0.5L0,-3.0L2.5,-0.5"/>
                </g>
               <g id="resetDef">
                       <use xlink:href="#rim2" fill="#404040">
                               <set attributeName="fill" to="#808080" begin="reset.mouseover" end="reset.mouseout"/>
                       </use>
               </g>
        </defs>

<script type="text/javascript">
var viewWidth = 579;
var viewHeight = 296;
var sectionId = 'dynsection-1';
</script>
<script xlink:href="svgpan.js"/>
<svg id="graph" class="graph">
<g id="viewport">
<title>file_description_type</title>
<polygon fill="white" stroke="transparent" points="-4,4 -4,-292 575,-292 575,4 -4,4"/>
<!-- Node1 -->
<g id="node1" class="node">
<title>Node1</title>
<g id="a_node1"><a xlink:title="Private type to hold file information for the diag table.">
<polygon fill="#bfbfbf" stroke="black" points="198.5,-0.5 198.5,-19.5 316.5,-19.5 316.5,-0.5 198.5,-0.5"/>
<text text-anchor="middle" x="257.5" y="-7.5" font-family="Helvetica,sans-Serif" font-size="10.00">file_description_type</text>
</a>
</g>
</g>
<!-- Node2 -->
<g id="node2" class="node">
<title>Node2</title>
<g id="a_node2"><a xlink:href="group__time__manager__mod.html#structtime__manager__mod_1_1time__type" target="_top" xlink:title="Type to represent amounts of time. Implemented as seconds and days to allow for larger intervals.">
<polygon fill="white" stroke="black" points="125.5,-145.5 125.5,-164.5 191.5,-164.5 191.5,-145.5 125.5,-145.5"/>
<text text-anchor="middle" x="158.5" y="-152.5" font-family="Helvetica,sans-Serif" font-size="10.00">time_type</text>
</a>
</g>
</g>
<!-- Node2&#45;&gt;Node1 -->
<g id="edge1" class="edge">
<title>Node2&#45;&gt;Node1</title>
<path fill="none" stroke="#9a32cd" stroke-dasharray="5,2" d="M160.39,-135.25C163.84,-110.2 173.3,-65.77 198.5,-38 206.07,-29.66 216.73,-23.71 226.91,-19.57"/>
<polygon fill="#9a32cd" stroke="#9a32cd" points="156.91,-134.92 159.2,-145.26 163.86,-135.75 156.91,-134.92"/>
<text text-anchor="middle" x="225.5" y="-63" font-family="Helvetica,sans-Serif" font-size="10.00"> start_time</text>
</g>
<!-- Node3 -->
<g id="node3" class="node">
<title>Node3</title>
<g id="a_node3"><a xlink:title=" ">
<polygon fill="white" stroke="#bfbfbf" points="0,-268.5 0,-287.5 51,-287.5 51,-268.5 0,-268.5"/>
<text text-anchor="middle" x="25.5" y="-275.5" font-family="Helvetica,sans-Serif" font-size="10.00">integer</text>
</a>
</g>
</g>
<!-- Node3&#45;&gt;Node1 -->
<g id="edge5" class="edge">
<title>Node3&#45;&gt;Node1</title>
<path fill="none" stroke="#9a32cd" stroke-dasharray="5,2" d="M18.5,-258.65C7.35,-226.13 -10.37,-157.44 18.5,-111 56.62,-49.69 140.88,-25.95 198.45,-16.77"/>
<polygon fill="#9a32cd" stroke="#9a32cd" points="15.26,-259.99 21.95,-268.21 21.84,-257.61 15.26,-259.99"/>
<text text-anchor="middle" x="67.5" y="-191" font-family="Helvetica,sans-Serif" font-size="10.00"> file_duration</text>
<text text-anchor="middle" x="67.5" y="-180" font-family="Helvetica,sans-Serif" font-size="10.00">file_format</text>
<text text-anchor="middle" x="67.5" y="-169" font-family="Helvetica,sans-Serif" font-size="10.00">ifile_duration_units</text>
<text text-anchor="middle" x="67.5" y="-158" font-family="Helvetica,sans-Serif" font-size="10.00">inew_file_freq_units</text>
<text text-anchor="middle" x="67.5" y="-147" font-family="Helvetica,sans-Serif" font-size="10.00">ioutput_freq_units</text>
<text text-anchor="middle" x="67.5" y="-136" font-family="Helvetica,sans-Serif" font-size="10.00">itime_units</text>
<text text-anchor="middle" x="67.5" y="-125" font-family="Helvetica,sans-Serif" font-size="10.00">new_file_freq</text>
<text text-anchor="middle" x="67.5" y="-114" font-family="Helvetica,sans-Serif" font-size="10.00">output_freq</text>
</g>
<!-- Node3&#45;&gt;Node2 -->
<g id="edge2" class="edge">
<title>Node3&#45;&gt;Node2</title>
<path fill="none" stroke="#9a32cd" stroke-dasharray="5,2" d="M42.7,-261.44C60.08,-245.71 87.68,-220.7 111.5,-199 124.58,-187.08 139.67,-173.27 149.15,-164.58"/>
<polygon fill="#9a32cd" stroke="#9a32cd" points="40.12,-259.05 35.06,-268.36 44.82,-264.24 40.12,-259.05"/>
<text text-anchor="middle" x="110.5" y="-242" font-family="Helvetica,sans-Serif" font-size="10.00"> days</text>
<text text-anchor="middle" x="110.5" y="-231" font-family="Helvetica,sans-Serif" font-size="10.00">seconds</text>
<text text-anchor="middle" x="110.5" y="-220" font-family="Helvetica,sans-Serif" font-size="10.00">ticks</text>
</g>
<!-- Node4 -->
<g id="node4" class="node">
<title>Node4</title>
<g id="a_node4"><a xlink:title=" ">
<polygon fill="white" stroke="#bfbfbf" points="210,-145.5 210,-164.5 315,-164.5 315,-145.5 210,-145.5"/>
<text text-anchor="middle" x="262.5" y="-152.5" font-family="Helvetica,sans-Serif" font-size="10.00">character(len=10)</text>
</a>
</g>
</g>
<!-- Node4&#45;&gt;Node1 -->
<g id="edge3" class="edge">
<title>Node4&#45;&gt;Node1</title>
<path fill="none" stroke="#9a32cd" stroke-dasharray="5,2" d="M261,-135.16C260.11,-123.11 259.05,-107.14 258.5,-93 257.46,-66.25 257.41,-34.57 257.45,-19.62"/>
<polygon fill="#9a32cd" stroke="#9a32cd" points="257.53,-135.62 261.78,-145.32 264.51,-135.08 257.53,-135.62"/>
<text text-anchor="middle" x="314.5" y="-85" font-family="Helvetica,sans-Serif" font-size="10.00"> file_duration_units</text>
<text text-anchor="middle" x="314.5" y="-74" font-family="Helvetica,sans-Serif" font-size="10.00">filename_time_bounds</text>
<text text-anchor="middle" x="314.5" y="-63" font-family="Helvetica,sans-Serif" font-size="10.00">new_file_freq_units</text>
<text text-anchor="middle" x="314.5" y="-52" font-family="Helvetica,sans-Serif" font-size="10.00">output_freq_units</text>
<text text-anchor="middle" x="314.5" y="-41" font-family="Helvetica,sans-Serif" font-size="10.00">time_units</text>
</g>
<!-- Node5 -->
<g id="node5" class="node">
<title>Node5</title>
<g id="a_node5"><a xlink:title=" ">
<polygon fill="white" stroke="#bfbfbf" points="337,-145.5 337,-164.5 448,-164.5 448,-145.5 337,-145.5"/>
<text text-anchor="middle" x="392.5" y="-152.5" font-family="Helvetica,sans-Serif" font-size="10.00">character(len=128)</text>
</a>
</g>
</g>
<!-- Node5&#45;&gt;Node1 -->
<g id="edge4" class="edge">
<title>Node5&#45;&gt;Node1</title>
<path fill="none" stroke="#9a32cd" stroke-dasharray="5,2" d="M394.67,-135.14C396.47,-109.61 395.53,-64.24 370.5,-38 362.63,-29.75 339.7,-23.53 316.52,-19.14"/>
<polygon fill="#9a32cd" stroke="#9a32cd" points="391.16,-135.05 393.72,-145.33 398.13,-135.7 391.16,-135.05"/>
<text text-anchor="middle" x="420" y="-68.5" font-family="Helvetica,sans-Serif" font-size="10.00"> file_name</text>
<text text-anchor="middle" x="420" y="-57.5" font-family="Helvetica,sans-Serif" font-size="10.00">long_name</text>
</g>
<!-- Node6 -->
<g id="node6" class="node">
<title>Node6</title>
<g id="a_node6"><a xlink:title=" ">
<polygon fill="white" stroke="#bfbfbf" points="466,-145.5 466,-164.5 571,-164.5 571,-145.5 466,-145.5"/>
<text text-anchor="middle" x="518.5" y="-152.5" font-family="Helvetica,sans-Serif" font-size="10.00">character(len=25)</text>
</a>
</g>
</g>
<!-- Node6&#45;&gt;Node1 -->
<g id="edge6" class="edge">
<title>Node6&#45;&gt;Node1</title>
<path fill="none" stroke="#9a32cd" stroke-dasharray="5,2" d="M513.39,-135.31C505.11,-108.9 486.1,-61.3 451.5,-38 430.06,-23.56 365.69,-16.75 316.92,-13.6"/>
<polygon fill="#9a32cd" stroke="#9a32cd" points="510.11,-136.59 516.29,-145.19 516.83,-134.61 510.11,-136.59"/>
<text text-anchor="middle" x="526.5" y="-63" font-family="Helvetica,sans-Serif" font-size="10.00"> start_time_s</text>
</g>
</g>
</svg>
        <g id="navigator" transform="translate(0 0)" fill="#404254">
                <rect fill="#f2f5e9" fill-opacity="0.5" stroke="#606060" stroke-width=".5" x="0" y="0" width="60" height="60"/>
                <use id="zoomplus" xlink:href="#zoomPlus" x="17" y="9" onmousedown="handleZoom(evt,'in')"/>
                <use id="zoomminus" xlink:href="#zoomMin" x="42" y="9" onmousedown="handleZoom(evt,'out')"/>
                <use id="reset" xlink:href="#resetDef" x="30" y="36" onmousedown="handleReset()"/>
                <g id="arrowUp" xlink:href="#dirArrow" transform="translate(30 24)" onmousedown="handlePan(0,-1)">
                  <use xlink:href="#rim" fill="#404040">
                        <set attributeName="fill" to="#808080" begin="arrowUp.mouseover" end="arrowUp.mouseout"/>
                  </use>
                  <path fill="none" stroke="white" stroke-width="1.5" d="M0,-3.0v7 M-2.5,-0.5L0,-3.0L2.5,-0.5"/>
                </g>
                <g id="arrowRight" xlink:href="#dirArrow" transform="rotate(90) translate(36 -43)" onmousedown="handlePan(1,0)">
                  <use xlink:href="#rim" fill="#404040">
                        <set attributeName="fill" to="#808080" begin="arrowRight.mouseover" end="arrowRight.mouseout"/>
                  </use>
                  <path fill="none" stroke="white" stroke-width="1.5" d="M0,-3.0v7 M-2.5,-0.5L0,-3.0L2.5,-0.5"/>
                </g>
                <g id="arrowDown" xlink:href="#dirArrow" transform="rotate(180) translate(-30 -48)" onmousedown="handlePan(0,1)">
                  <use xlink:href="#rim" fill="#404040">
                        <set attributeName="fill" to="#808080" begin="arrowDown.mouseover" end="arrowDown.mouseout"/>
                  </use>
                  <path fill="none" stroke="white" stroke-width="1.5" d="M0,-3.0v7 M-2.5,-0.5L0,-3.0L2.5,-0.5"/>
                </g>
                <g id="arrowLeft" xlink:href="#dirArrow" transform="rotate(270) translate(-36 17)" onmousedown="handlePan(-1,0)">
                  <use xlink:href="#rim" fill="#404040">
                        <set attributeName="fill" to="#808080" begin="arrowLeft.mouseover" end="arrowLeft.mouseout"/>
                  </use>
                  <path fill="none" stroke="white" stroke-width="1.5" d="M0,-3.0v7 M-2.5,-0.5L0,-3.0L2.5,-0.5"/>
                </g>
        </g>
        <svg viewBox="0 0 15 15" width="100%" height="30px" preserveAspectRatio="xMaxYMin meet">
         <g id="arrow_out" transform="scale(0.3 0.3)">
          <a xlink:href="structdiag__table__mod_1_1file__description__type__coll__graph_org.svg" target="_base">
           <rect id="button" ry="5" rx="5" y="6" x="6" height="38" width="38"
                fill="#f2f5e9" fill-opacity="0.5" stroke="#606060" stroke-width="1.0"/>
           <path id="arrow"
             d="M 11.500037,31.436501 C 11.940474,20.09759 22.043105,11.32322 32.158766,21.979434 L 37.068811,17.246167 C 37.068811,17.246167 37.088388,32 37.088388,32 L 22.160133,31.978069 C 22.160133,31.978069 26.997745,27.140456 26.997745,27.140456 C 18.528582,18.264221 13.291696,25.230495 11.500037,31.436501 z"
             style="fill:#404040;"/>
          </a>
         </g>
        </svg>
</svg>
