<?xml version="1.0" encoding="UTF-8" standalone="no"?>
<!DOCTYPE svg PUBLIC "-//W3C//DTD SVG 1.1//EN"
 "http://www.w3.org/Graphics/SVG/1.1/DTD/svg11.dtd">
<!-- Generated by graphviz version 2.43.0 (0)
 -->
<!-- Title: mpp_type_list Pages: 1 -->
<svg width="183pt" height="285pt"
 viewBox="0.00 0.00 182.50 285.00" xmlns="http://www.w3.org/2000/svg" xmlns:xlink="http://www.w3.org/1999/xlink">
<g id="graph0" class="graph" transform="scale(1 1) rotate(0) translate(4 281)">
<title>mpp_type_list</title>
<polygon fill="white" stroke="transparent" points="-4,4 -4,-281 178.5,-281 178.5,4 -4,4"/>
<!-- Node1 -->
<g id="node1" class="node">
<title>Node1</title>
<g id="a_node1"><a xlink:title="Persisent elements for linked list interaction.">
<polygon fill="#bfbfbf" stroke="black" points="0,-0.5 0,-19.5 86,-19.5 86,-0.5 0,-0.5"/>
<text text-anchor="middle" x="43" y="-7.5" font-family="Helvetica,sans-Serif" font-size="10.00">mpp_type_list</text>
</a>
</g>
</g>
<!-- Node2 -->
<g id="node2" class="node">
<title>Node2</title>
<g id="a_node2"><a xlink:href="group__mpp__mod.html#structmpp__mod_1_1mpp__type" target="_top" xlink:title="Data types for generalized data transfer (e.g. MPI_Type)">
<polygon fill="white" stroke="black" points="66.5,-79.5 66.5,-98.5 131.5,-98.5 131.5,-79.5 66.5,-79.5"/>
<text text-anchor="middle" x="99" y="-86.5" font-family="Helvetica,sans-Serif" font-size="10.00">mpp_type</text>
</a>
</g>
</g>
<!-- Node2&#45;&gt;Node1 -->
<g id="edge1" class="edge">
<title>Node2&#45;&gt;Node1</title>
<path fill="none" stroke="#9a32cd" stroke-dasharray="5,2" d="M86.72,-71.12C75.22,-55.3 58.47,-32.27 49.41,-19.81"/>
<polygon fill="#9a32cd" stroke="#9a32cd" points="84.08,-73.44 92.79,-79.47 89.74,-69.32 84.08,-73.44"/>
<text text-anchor="middle" x="91" y="-52" font-family="Helvetica,sans-Serif" font-size="10.00"> head</text>
<text text-anchor="middle" x="91" y="-41" font-family="Helvetica,sans-Serif" font-size="10.00">tail</text>
</g>
<!-- Node2&#45;&gt;Node2 -->
<g id="edge2" class="edge">
<title>Node2&#45;&gt;Node2</title>
<path fill="none" stroke="#9a32cd" stroke-dasharray="5,2" d="M141.64,-95.33C146.41,-94.14 149.5,-92.03 149.5,-89 149.5,-84.16 141.6,-81.66 131.54,-81.51"/>
<polygon fill="#9a32cd" stroke="#9a32cd" points="141.08,-91.87 131.54,-96.49 141.88,-98.83 141.08,-91.87"/>
<text text-anchor="middle" x="162" y="-92" font-family="Helvetica,sans-Serif" font-size="10.00"> next</text>
<text text-anchor="middle" x="162" y="-81" font-family="Helvetica,sans-Serif" font-size="10.00">prev</text>
</g>
<!-- Node3 -->
<g id="node3" class="node">
<title>Node3</title>
<g id="a_node3"><a xlink:title=" ">
<polygon fill="white" stroke="#bfbfbf" points="4.5,-257.5 4.5,-276.5 55.5,-276.5 55.5,-257.5 4.5,-257.5"/>
<text text-anchor="middle" x="30" y="-264.5" font-family="Helvetica,sans-Serif" font-size="10.00">integer</text>
</a>
</g>
</g>
<!-- Node3&#45;&gt;Node1 -->
<g id="edge4" class="edge">
<title>Node3&#45;&gt;Node1</title>
<path fill="none" stroke="#9a32cd" stroke-dasharray="5,2" d="M27.28,-247.02C22.87,-212.97 15.47,-139.34 24,-78 27,-56.44 35.17,-32.08 39.76,-19.51"/>
<polygon fill="#9a32cd" stroke="#9a32cd" points="23.87,-247.89 28.68,-257.32 30.8,-246.94 23.87,-247.89"/>
<text text-anchor="middle" x="41" y="-86.5" font-family="Helvetica,sans-Serif" font-size="10.00"> length</text>
</g>
<!-- Node3&#45;&gt;Node2 -->
<g id="edge3" class="edge">
<title>Node3&#45;&gt;Node2</title>
<path fill="none" stroke="#9a32cd" stroke-dasharray="5,2" d="M37.32,-247.33C52.08,-209.69 84.9,-125.97 95.57,-98.74"/>
<polygon fill="#9a32cd" stroke="#9a32cd" points="33.91,-246.44 33.52,-257.03 40.43,-249 33.91,-246.44"/>
<text text-anchor="middle" x="115.5" y="-231" font-family="Helvetica,sans-Serif" font-size="10.00"> counter</text>
<text text-anchor="middle" x="115.5" y="-220" font-family="Helvetica,sans-Serif" font-size="10.00">data</text>
<text text-anchor="middle" x="115.5" y="-209" font-family="Helvetica,sans-Serif" font-size="10.00">elementary</text>
<text text-anchor="middle" x="115.5" y="-198" font-family="Helvetica,sans-Serif" font-size="10.00">etype</text>
<text text-anchor="middle" x="115.5" y="-187" font-family="Helvetica,sans-Serif" font-size="10.00">id</text>
<text text-anchor="middle" x="115.5" y="-176" font-family="Helvetica,sans-Serif" font-size="10.00">identifier</text>
<text text-anchor="middle" x="115.5" y="-165" font-family="Helvetica,sans-Serif" font-size="10.00">instances</text>
<text text-anchor="middle" x="115.5" y="-154" font-family="Helvetica,sans-Serif" font-size="10.00">library</text>
<text text-anchor="middle" x="115.5" y="-143" font-family="Helvetica,sans-Serif" font-size="10.00">message</text>
<text text-anchor="middle" x="115.5" y="-132" font-family="Helvetica,sans-Serif" font-size="10.00">ndims</text>
<text text-anchor="middle" x="115.5" y="-121" font-family="Helvetica,sans-Serif" font-size="10.00">...</text>
</g>
</g>
</svg>
