<?xml version="1.0" encoding="UTF-8" standalone="no"?>
<!DOCTYPE svg PUBLIC "-//W3C//DTD SVG 1.1//EN"
 "http://www.w3.org/Graphics/SVG/1.1/DTD/svg11.dtd">
<!-- Generated by graphviz version 2.43.0 (0)
 -->
<!-- Title: restartvariable_t Pages: 1 -->
<svg width="577pt" height="467pt"
 viewBox="0.00 0.00 577.00 466.50" xmlns="http://www.w3.org/2000/svg" xmlns:xlink="http://www.w3.org/1999/xlink">
<g id="graph0" class="graph" transform="scale(1 1) rotate(0) translate(4 462.5)">
<title>restartvariable_t</title>
<polygon fill="white" stroke="transparent" points="-4,4 -4,-462.5 573,-462.5 573,4 -4,4"/>
<!-- Node1 -->
<g id="node1" class="node">
<title>Node1</title>
<g id="a_node1"><a xlink:title="Restart variable.">
<polygon fill="#bfbfbf" stroke="black" points="471,-181 471,-200 569,-200 569,-181 471,-181"/>
<text text-anchor="middle" x="520" y="-188" font-family="Helvetica,sans-Serif" font-size="10.00">restartvariable_t</text>
</a>
</g>
</g>
<!-- Node2 -->
<g id="node2" class="node">
<title>Node2</title>
<g id="a_node2"><a xlink:title=" ">
<polygon fill="white" stroke="#bfbfbf" points="52,-439 52,-458 101,-458 101,-439 52,-439"/>
<text text-anchor="middle" x="76.5" y="-446" font-family="Helvetica,sans-Serif" font-size="10.00">logical</text>
</a>
</g>
</g>
<!-- Node2&#45;&gt;Node1 -->
<g id="edge1" class="edge">
<title>Node2&#45;&gt;Node1</title>
<path fill="none" stroke="#9a32cd" stroke-dasharray="5,2" d="M111.34,-452.08C148.48,-454.86 209.4,-455.99 259,-440.5 356.22,-410.14 384.11,-393.53 453,-318.5 487.16,-281.3 508.5,-223.11 515.99,-200.22"/>
<polygon fill="#9a32cd" stroke="#9a32cd" points="111.33,-448.57 101.08,-451.22 110.75,-455.54 111.33,-448.57"/>
<text text-anchor="middle" x="332.5" y="-448.5" font-family="Helvetica,sans-Serif" font-size="10.00"> is_bc_variable</text>
<text text-anchor="middle" x="332.5" y="-437.5" font-family="Helvetica,sans-Serif" font-size="10.00">was_read</text>
</g>
<!-- Node10 -->
<g id="node10" class="node">
<title>Node10</title>
<g id="a_node10"><a xlink:href="group__netcdf__io__mod.html#structnetcdf__io__mod_1_1bc__information" target="_top" xlink:title="information needed fr regional restart variables">
<polygon fill="white" stroke="black" points="287.5,-323 287.5,-342 377.5,-342 377.5,-323 287.5,-323"/>
<text text-anchor="middle" x="332.5" y="-330" font-family="Helvetica,sans-Serif" font-size="10.00">bc_information</text>
</a>
</g>
</g>
<!-- Node2&#45;&gt;Node10 -->
<g id="edge10" class="edge">
<title>Node2&#45;&gt;Node10</title>
<path fill="none" stroke="#9a32cd" stroke-dasharray="5,2" d="M111.15,-437.4C128.91,-431.62 151.08,-424.52 171,-418.5 209.92,-406.73 223.09,-412.57 259,-393.5 284.86,-379.77 309.81,-355.64 322.61,-342.21"/>
<polygon fill="#9a32cd" stroke="#9a32cd" points="109.68,-434.2 101.26,-440.63 111.85,-440.85 109.68,-434.2"/>
<text text-anchor="middle" x="215" y="-432.5" font-family="Helvetica,sans-Serif" font-size="10.00"> data_on_file_root</text>
<text text-anchor="middle" x="215" y="-421.5" font-family="Helvetica,sans-Serif" font-size="10.00">is_root_pe</text>
</g>
<!-- Node3 -->
<g id="node3" class="node">
<title>Node3</title>
<g id="a_node3"><a xlink:title=" ">
<polygon fill="white" stroke="#bfbfbf" points="277,-273.5 277,-303.5 388,-303.5 388,-273.5 277,-273.5"/>
<text text-anchor="start" x="285" y="-291.5" font-family="Helvetica,sans-Serif" font-size="10.00">class(*), dimension</text>
<text text-anchor="middle" x="332.5" y="-280.5" font-family="Helvetica,sans-Serif" font-size="10.00">(:,:,:), pointer</text>
</a>
</g>
</g>
<!-- Node3&#45;&gt;Node1 -->
<g id="edge2" class="edge">
<title>Node3&#45;&gt;Node1</title>
<path fill="none" stroke="#9a32cd" stroke-dasharray="5,2" d="M377.54,-269.24C381.08,-267.65 384.61,-266.06 388,-264.5 417.09,-251.16 425.09,-249.16 453,-233.5 471.73,-223 492.31,-209.2 505.42,-200.11"/>
<polygon fill="#9a32cd" stroke="#9a32cd" points="375.88,-266.15 368.17,-273.42 378.73,-272.55 375.88,-266.15"/>
<text text-anchor="middle" x="429.5" y="-258.5" font-family="Helvetica,sans-Serif" font-size="10.00"> data3d</text>
</g>
<!-- Node4 -->
<g id="node4" class="node">
<title>Node4</title>
<g id="a_node4"><a xlink:title=" ">
<polygon fill="white" stroke="#bfbfbf" points="277,-224.5 277,-254.5 388,-254.5 388,-224.5 277,-224.5"/>
<text text-anchor="start" x="285" y="-242.5" font-family="Helvetica,sans-Serif" font-size="10.00">class(*), dimension</text>
<text text-anchor="middle" x="332.5" y="-231.5" font-family="Helvetica,sans-Serif" font-size="10.00">(:,:), pointer</text>
</a>
</g>
</g>
<!-- Node4&#45;&gt;Node1 -->
<g id="edge3" class="edge">
<title>Node4&#45;&gt;Node1</title>
<path fill="none" stroke="#9a32cd" stroke-dasharray="5,2" d="M398.03,-222.46C426.46,-214.94 458.8,-206.4 482.89,-200.04"/>
<polygon fill="#9a32cd" stroke="#9a32cd" points="396.93,-219.13 388.15,-225.06 398.72,-225.89 396.93,-219.13"/>
<text text-anchor="middle" x="429.5" y="-221.5" font-family="Helvetica,sans-Serif" font-size="10.00"> data2d</text>
</g>
<!-- Node5 -->
<g id="node5" class="node">
<title>Node5</title>
<g id="a_node5"><a xlink:title=" ">
<polygon fill="white" stroke="#bfbfbf" points="277,-175.5 277,-205.5 388,-205.5 388,-175.5 277,-175.5"/>
<text text-anchor="start" x="285" y="-193.5" font-family="Helvetica,sans-Serif" font-size="10.00">class(*), dimension</text>
<text text-anchor="middle" x="332.5" y="-182.5" font-family="Helvetica,sans-Serif" font-size="10.00">(:,:,:,:,:), pointer</text>
</a>
</g>
</g>
<!-- Node5&#45;&gt;Node1 -->
<g id="edge4" class="edge">
<title>Node5&#45;&gt;Node1</title>
<path fill="none" stroke="#9a32cd" stroke-dasharray="5,2" d="M398.18,-190.5C422.02,-190.5 448.58,-190.5 470.72,-190.5"/>
<polygon fill="#9a32cd" stroke="#9a32cd" points="398.15,-187 388.15,-190.5 398.15,-194 398.15,-187"/>
<text text-anchor="middle" x="429.5" y="-193.5" font-family="Helvetica,sans-Serif" font-size="10.00"> data5d</text>
</g>
<!-- Node6 -->
<g id="node6" class="node">
<title>Node6</title>
<g id="a_node6"><a xlink:title=" ">
<polygon fill="white" stroke="#bfbfbf" points="285,-137 285,-156 380,-156 380,-137 285,-137"/>
<text text-anchor="middle" x="332.5" y="-144" font-family="Helvetica,sans-Serif" font-size="10.00">class(*), pointer</text>
</a>
</g>
</g>
<!-- Node6&#45;&gt;Node1 -->
<g id="edge5" class="edge">
<title>Node6&#45;&gt;Node1</title>
<path fill="none" stroke="#9a32cd" stroke-dasharray="5,2" d="M383.57,-158.38C413.45,-165.46 450.89,-174.34 478.83,-180.97"/>
<polygon fill="#9a32cd" stroke="#9a32cd" points="384.29,-154.95 373.75,-156.05 382.67,-161.76 384.29,-154.95"/>
<text text-anchor="middle" x="429.5" y="-176.5" font-family="Helvetica,sans-Serif" font-size="10.00"> data0d</text>
</g>
<!-- Node7 -->
<g id="node7" class="node">
<title>Node7</title>
<g id="a_node7"><a xlink:title=" ">
<polygon fill="white" stroke="#bfbfbf" points="277,-99 277,-118 388,-118 388,-99 277,-99"/>
<text text-anchor="middle" x="332.5" y="-106" font-family="Helvetica,sans-Serif" font-size="10.00">character(len=256)</text>
</a>
</g>
</g>
<!-- Node7&#45;&gt;Node1 -->
<g id="edge6" class="edge">
<title>Node7&#45;&gt;Node1</title>
<path fill="none" stroke="#9a32cd" stroke-dasharray="5,2" d="M377.6,-121.02C400.57,-128.18 428.84,-138.03 453,-149.5 472.01,-158.52 492.36,-171.77 505.36,-180.75"/>
<polygon fill="#9a32cd" stroke="#9a32cd" points="378.37,-117.59 367.79,-118.01 376.32,-124.29 378.37,-117.59"/>
<text text-anchor="middle" x="429.5" y="-152.5" font-family="Helvetica,sans-Serif" font-size="10.00"> varname</text>
</g>
<!-- Node8 -->
<g id="node8" class="node">
<title>Node8</title>
<g id="a_node8"><a xlink:title=" ">
<polygon fill="white" stroke="#bfbfbf" points="277,-49.5 277,-79.5 388,-79.5 388,-49.5 277,-49.5"/>
<text text-anchor="start" x="285" y="-67.5" font-family="Helvetica,sans-Serif" font-size="10.00">class(*), dimension</text>
<text text-anchor="middle" x="332.5" y="-56.5" font-family="Helvetica,sans-Serif" font-size="10.00">(:,:,:,:), pointer</text>
</a>
</g>
</g>
<!-- Node8&#45;&gt;Node1 -->
<g id="edge7" class="edge">
<title>Node8&#45;&gt;Node1</title>
<path fill="none" stroke="#9a32cd" stroke-dasharray="5,2" d="M391.57,-83.26C412.04,-91.39 434.54,-102.15 453,-115.5 479.14,-134.41 502.14,-165.43 512.76,-180.99"/>
<polygon fill="#9a32cd" stroke="#9a32cd" points="392.61,-79.91 382.02,-79.6 390.1,-86.45 392.61,-79.91"/>
<text text-anchor="middle" x="429.5" y="-118.5" font-family="Helvetica,sans-Serif" font-size="10.00"> data4d</text>
</g>
<!-- Node9 -->
<g id="node9" class="node">
<title>Node9</title>
<g id="a_node9"><a xlink:title=" ">
<polygon fill="white" stroke="#bfbfbf" points="277,-0.5 277,-30.5 388,-30.5 388,-0.5 277,-0.5"/>
<text text-anchor="start" x="285" y="-18.5" font-family="Helvetica,sans-Serif" font-size="10.00">class(*), dimension</text>
<text text-anchor="middle" x="332.5" y="-7.5" font-family="Helvetica,sans-Serif" font-size="10.00">(:), pointer</text>
</a>
</g>
</g>
<!-- Node9&#45;&gt;Node1 -->
<g id="edge8" class="edge">
<title>Node9&#45;&gt;Node1</title>
<path fill="none" stroke="#9a32cd" stroke-dasharray="5,2" d="M389.37,-34.57C411.13,-44.04 435.09,-57.21 453,-74.5 486.34,-106.68 507.87,-159.38 515.69,-180.9"/>
<polygon fill="#9a32cd" stroke="#9a32cd" points="390.45,-31.23 379.88,-30.61 387.76,-37.69 390.45,-31.23"/>
<text text-anchor="middle" x="429.5" y="-77.5" font-family="Helvetica,sans-Serif" font-size="10.00"> data1d</text>
</g>
<!-- Node10&#45;&gt;Node1 -->
<g id="edge9" class="edge">
<title>Node10&#45;&gt;Node1</title>
<path fill="none" stroke="#9a32cd" stroke-dasharray="5,2" d="M374.58,-319.42C379.18,-317.6 383.73,-315.61 388,-313.5 419.04,-298.12 427.25,-293.67 453,-270.5 477.9,-248.1 501.46,-216.02 512.48,-200.15"/>
<polygon fill="#9a32cd" stroke="#9a32cd" points="373.31,-316.16 365.17,-322.95 375.77,-322.72 373.31,-316.16"/>
<text text-anchor="middle" x="429.5" y="-306.5" font-family="Helvetica,sans-Serif" font-size="10.00"> bc_info</text>
</g>
<!-- Node11 -->
<g id="node11" class="node">
<title>Node11</title>
<g id="a_node11"><a xlink:title=" ">
<polygon fill="white" stroke="#bfbfbf" points="3,-383.5 3,-413.5 150,-413.5 150,-383.5 3,-383.5"/>
<text text-anchor="start" x="11" y="-401.5" font-family="Helvetica,sans-Serif" font-size="10.00">real(kind=r8_kind),</text>
<text text-anchor="middle" x="76.5" y="-390.5" font-family="Helvetica,sans-Serif" font-size="10.00"> dimension(:,:), allocatable</text>
</a>
</g>
</g>
<!-- Node11&#45;&gt;Node10 -->
<g id="edge11" class="edge">
<title>Node11&#45;&gt;Node10</title>
<path fill="none" stroke="#9a32cd" stroke-dasharray="5,2" d="M160.32,-381.8C191.46,-375 227.04,-366.59 259,-357.5 274.75,-353.02 292.1,-347.07 305.88,-342.1"/>
<polygon fill="#9a32cd" stroke="#9a32cd" points="159.42,-378.41 150.38,-383.95 160.9,-385.26 159.42,-378.41"/>
<text text-anchor="middle" x="215" y="-381.5" font-family="Helvetica,sans-Serif" font-size="10.00"> globaldata2d_r8</text>
</g>
<!-- Node12 -->
<g id="node12" class="node">
<title>Node12</title>
<g id="a_node12"><a xlink:title=" ">
<polygon fill="white" stroke="#bfbfbf" points="0,-334.5 0,-364.5 153,-364.5 153,-334.5 0,-334.5"/>
<text text-anchor="start" x="8" y="-352.5" font-family="Helvetica,sans-Serif" font-size="10.00">real(kind=r8_kind),</text>
<text text-anchor="middle" x="76.5" y="-341.5" font-family="Helvetica,sans-Serif" font-size="10.00"> dimension(:,:,:), allocatable</text>
</a>
</g>
</g>
<!-- Node12&#45;&gt;Node10 -->
<g id="edge12" class="edge">
<title>Node12&#45;&gt;Node10</title>
<path fill="none" stroke="#9a32cd" stroke-dasharray="5,2" d="M163.17,-343.77C204.8,-340.98 253.08,-337.75 287.24,-335.46"/>
<polygon fill="#9a32cd" stroke="#9a32cd" points="162.76,-340.29 153.02,-344.45 163.23,-347.27 162.76,-340.29"/>
<text text-anchor="middle" x="215" y="-345.5" font-family="Helvetica,sans-Serif" font-size="10.00"> globaldata3d_r8</text>
</g>
<!-- Node13 -->
<g id="node13" class="node">
<title>Node13</title>
<g id="a_node13"><a xlink:title=" ">
<polygon fill="white" stroke="#bfbfbf" points="24,-296 24,-315 129,-315 129,-296 24,-296"/>
<text text-anchor="middle" x="76.5" y="-303" font-family="Helvetica,sans-Serif" font-size="10.00">character(len=32)</text>
</a>
</g>
</g>
<!-- Node13&#45;&gt;Node10 -->
<g id="edge13" class="edge">
<title>Node13&#45;&gt;Node10</title>
<path fill="none" stroke="#9a32cd" stroke-dasharray="5,2" d="M139.3,-310.61C174.44,-313.69 219.23,-317.9 259,-322.5 268.21,-323.57 278.07,-324.84 287.45,-326.11"/>
<polygon fill="#9a32cd" stroke="#9a32cd" points="139.46,-307.12 129.2,-309.74 138.86,-314.09 139.46,-307.12"/>
<text text-anchor="middle" x="215" y="-325.5" font-family="Helvetica,sans-Serif" font-size="10.00"> chksum</text>
</g>
<!-- Node14 -->
<g id="node14" class="node">
<title>Node14</title>
<g id="a_node14"><a xlink:title=" ">
<polygon fill="white" stroke="#bfbfbf" points="51,-211 51,-230 102,-230 102,-211 51,-211"/>
<text text-anchor="middle" x="76.5" y="-218" font-family="Helvetica,sans-Serif" font-size="10.00">integer</text>
</a>
</g>
</g>
<!-- Node14&#45;&gt;Node10 -->
<g id="edge14" class="edge">
<title>Node14&#45;&gt;Node10</title>
<path fill="none" stroke="#9a32cd" stroke-dasharray="5,2" d="M111.91,-211.71C152.16,-203.67 218.43,-197.7 259,-232.5 286.99,-256.51 252.49,-285.95 277,-313.5 280.46,-317.39 284.77,-320.49 289.43,-322.95"/>
<polygon fill="#9a32cd" stroke="#9a32cd" points="111.07,-208.31 102.03,-213.84 112.54,-215.16 111.07,-208.31"/>
<text text-anchor="middle" x="215" y="-301.5" font-family="Helvetica,sans-Serif" font-size="10.00"> global_size</text>
<text text-anchor="middle" x="215" y="-290.5" font-family="Helvetica,sans-Serif" font-size="10.00">indices</text>
<text text-anchor="middle" x="215" y="-279.5" font-family="Helvetica,sans-Serif" font-size="10.00">ishift</text>
<text text-anchor="middle" x="215" y="-268.5" font-family="Helvetica,sans-Serif" font-size="10.00">jshift</text>
<text text-anchor="middle" x="215" y="-257.5" font-family="Helvetica,sans-Serif" font-size="10.00">pelist</text>
<text text-anchor="middle" x="215" y="-246.5" font-family="Helvetica,sans-Serif" font-size="10.00">x_halo</text>
<text text-anchor="middle" x="215" y="-235.5" font-family="Helvetica,sans-Serif" font-size="10.00">y_halo</text>
</g>
<!-- Node15 -->
<g id="node15" class="node">
<title>Node15</title>
<g id="a_node15"><a xlink:title=" ">
<polygon fill="white" stroke="#bfbfbf" points="0,-161.5 0,-191.5 153,-191.5 153,-161.5 0,-161.5"/>
<text text-anchor="start" x="8" y="-179.5" font-family="Helvetica,sans-Serif" font-size="10.00">real(kind=r4_kind),</text>
<text text-anchor="middle" x="76.5" y="-168.5" font-family="Helvetica,sans-Serif" font-size="10.00"> dimension(:,:,:), allocatable</text>
</a>
</g>
</g>
<!-- Node15&#45;&gt;Node10 -->
<g id="edge15" class="edge">
<title>Node15&#45;&gt;Node10</title>
<path fill="none" stroke="#9a32cd" stroke-dasharray="5,2" d="M163.64,-161.78C197.35,-160.99 233.88,-167.04 259,-190.5 299.38,-228.21 241.82,-270.9 277,-313.5 280.19,-317.36 284.21,-320.44 288.62,-322.9"/>
<polygon fill="#9a32cd" stroke="#9a32cd" points="163.12,-158.3 153.28,-162.24 163.42,-165.3 163.12,-158.3"/>
<text text-anchor="middle" x="215" y="-193.5" font-family="Helvetica,sans-Serif" font-size="10.00"> globaldata3d_r4</text>
</g>
<!-- Node16 -->
<g id="node16" class="node">
<title>Node16</title>
<g id="a_node16"><a xlink:title=" ">
<polygon fill="white" stroke="#bfbfbf" points="3,-112.5 3,-142.5 150,-142.5 150,-112.5 3,-112.5"/>
<text text-anchor="start" x="11" y="-130.5" font-family="Helvetica,sans-Serif" font-size="10.00">real(kind=r4_kind),</text>
<text text-anchor="middle" x="76.5" y="-119.5" font-family="Helvetica,sans-Serif" font-size="10.00"> dimension(:,:), allocatable</text>
</a>
</g>
</g>
<!-- Node16&#45;&gt;Node10 -->
<g id="edge16" class="edge">
<title>Node16&#45;&gt;Node10</title>
<path fill="none" stroke="#9a32cd" stroke-dasharray="5,2" d="M160.53,-115C195.41,-114.58 233.68,-121.25 259,-146.5 285.43,-172.85 253.78,-284.27 277,-313.5 280.05,-317.34 283.94,-320.41 288.22,-322.86"/>
<polygon fill="#9a32cd" stroke="#9a32cd" points="160.2,-111.51 150.31,-115.32 160.42,-118.5 160.2,-111.51"/>
<text text-anchor="middle" x="215" y="-149.5" font-family="Helvetica,sans-Serif" font-size="10.00"> globaldata2d_r4</text>
</g>
</g>
</svg>
