<?xml version="1.0" encoding="UTF-8" standalone="no"?>
<!DOCTYPE svg PUBLIC "-//W3C//DTD SVG 1.1//EN"
 "http://www.w3.org/Graphics/SVG/1.1/DTD/svg11.dtd">
<!-- Generated by graphviz version 2.43.0 (0)
 -->
<!-- Title: summary_struct Pages: 1 -->
<svg width="360pt" height="195pt"
 viewBox="0.00 0.00 359.50 195.00" xmlns="http://www.w3.org/2000/svg" xmlns:xlink="http://www.w3.org/1999/xlink">
<g id="graph0" class="graph" transform="scale(1 1) rotate(0) translate(4 191)">
<title>summary_struct</title>
<polygon fill="white" stroke="transparent" points="-4,4 -4,-191 355.5,-191 355.5,4 -4,4"/>
<!-- Node1 -->
<g id="node1" class="node">
<title>Node1</title>
<g id="a_node1"><a xlink:title="holds name and clock data for use in mpp_util.h">
<polygon fill="#bfbfbf" stroke="black" points="42.5,-0.5 42.5,-19.5 138.5,-19.5 138.5,-0.5 42.5,-0.5"/>
<text text-anchor="middle" x="90.5" y="-7.5" font-family="Helvetica,sans-Serif" font-size="10.00">summary_struct</text>
</a>
</g>
</g>
<!-- Node2 -->
<g id="node2" class="node">
<title>Node2</title>
<g id="a_node2"><a xlink:href="group__mpp__mod.html#structmpp__mod_1_1clock__data__summary" target="_top" xlink:title="Summary of information from a clock run.">
<polygon fill="white" stroke="black" points="108,-67.5 108,-86.5 229,-86.5 229,-67.5 108,-67.5"/>
<text text-anchor="middle" x="168.5" y="-74.5" font-family="Helvetica,sans-Serif" font-size="10.00">clock_data_summary</text>
</a>
</g>
</g>
<!-- Node2&#45;&gt;Node1 -->
<g id="edge1" class="edge">
<title>Node2&#45;&gt;Node1</title>
<path fill="none" stroke="#9a32cd" stroke-dasharray="5,2" d="M150.16,-60.71C134.79,-47.91 113.41,-30.09 100.85,-19.63"/>
<polygon fill="#9a32cd" stroke="#9a32cd" points="148.06,-63.52 157.98,-67.23 152.54,-58.14 148.06,-63.52"/>
<text text-anchor="middle" x="150" y="-41" font-family="Helvetica,sans-Serif" font-size="10.00"> event</text>
</g>
<!-- Node3 -->
<g id="node3" class="node">
<title>Node3</title>
<g id="a_node3"><a xlink:title=" ">
<polygon fill="white" stroke="#bfbfbf" points="0,-167.5 0,-186.5 105,-186.5 105,-167.5 0,-167.5"/>
<text text-anchor="middle" x="52.5" y="-174.5" font-family="Helvetica,sans-Serif" font-size="10.00">character(len=16)</text>
</a>
</g>
</g>
<!-- Node3&#45;&gt;Node1 -->
<g id="edge5" class="edge">
<title>Node3&#45;&gt;Node1</title>
<path fill="none" stroke="#9a32cd" stroke-dasharray="5,2" d="M53.64,-157.14C55.31,-135.17 59.16,-97.96 67.5,-67 72.15,-49.75 80.77,-30.71 86.03,-19.87"/>
<polygon fill="#9a32cd" stroke="#9a32cd" points="50.13,-157.16 52.95,-167.37 57.12,-157.64 50.13,-157.16"/>
<text text-anchor="middle" x="83" y="-74.5" font-family="Helvetica,sans-Serif" font-size="10.00"> name</text>
</g>
<!-- Node3&#45;&gt;Node2 -->
<g id="edge2" class="edge">
<title>Node3&#45;&gt;Node2</title>
<path fill="none" stroke="#9a32cd" stroke-dasharray="5,2" d="M69.96,-160.5C86.44,-145.97 111.91,-123.73 134.5,-105 142.04,-98.74 150.69,-91.88 157.38,-86.64"/>
<polygon fill="#9a32cd" stroke="#9a32cd" points="67.4,-158.09 62.23,-167.34 72.04,-163.34 67.4,-158.09"/>
<text text-anchor="middle" x="150" y="-124.5" font-family="Helvetica,sans-Serif" font-size="10.00"> name</text>
</g>
<!-- Node4 -->
<g id="node4" class="node">
<title>Node4</title>
<g id="a_node4"><a xlink:title=" ">
<polygon fill="white" stroke="#bfbfbf" points="123.5,-167.5 123.5,-186.5 217.5,-186.5 217.5,-167.5 123.5,-167.5"/>
<text text-anchor="middle" x="170.5" y="-174.5" font-family="Helvetica,sans-Serif" font-size="10.00">integer(i8_kind)</text>
</a>
</g>
</g>
<!-- Node4&#45;&gt;Node2 -->
<g id="edge3" class="edge">
<title>Node4&#45;&gt;Node2</title>
<path fill="none" stroke="#9a32cd" stroke-dasharray="5,2" d="M170.12,-157.22C169.68,-135.95 168.99,-102.22 168.67,-86.54"/>
<polygon fill="#9a32cd" stroke="#9a32cd" points="166.62,-157.38 170.32,-167.3 173.62,-157.23 166.62,-157.38"/>
<text text-anchor="middle" x="208" y="-130" font-family="Helvetica,sans-Serif" font-size="10.00"> msg_size_cnts</text>
<text text-anchor="middle" x="208" y="-119" font-family="Helvetica,sans-Serif" font-size="10.00">total_cnts</text>
</g>
<!-- Node5 -->
<g id="node5" class="node">
<title>Node5</title>
<g id="a_node5"><a xlink:title=" ">
<polygon fill="white" stroke="#bfbfbf" points="236,-167.5 236,-186.5 315,-186.5 315,-167.5 236,-167.5"/>
<text text-anchor="middle" x="275.5" y="-174.5" font-family="Helvetica,sans-Serif" font-size="10.00">real(r8_kind)</text>
</a>
</g>
</g>
<!-- Node5&#45;&gt;Node2 -->
<g id="edge4" class="edge">
<title>Node5&#45;&gt;Node2</title>
<path fill="none" stroke="#9a32cd" stroke-dasharray="5,2" d="M273.16,-157.02C270.23,-141.11 263.75,-118.84 249.5,-105 240.67,-96.43 229.06,-90.58 217.39,-86.58"/>
<polygon fill="#9a32cd" stroke="#9a32cd" points="269.75,-157.91 274.72,-167.27 276.67,-156.86 269.75,-157.91"/>
<text text-anchor="middle" x="311" y="-141" font-family="Helvetica,sans-Serif" font-size="10.00"> msg_size_sums</text>
<text text-anchor="middle" x="311" y="-130" font-family="Helvetica,sans-Serif" font-size="10.00">msg_time_sums</text>
<text text-anchor="middle" x="311" y="-119" font-family="Helvetica,sans-Serif" font-size="10.00">total_data</text>
<text text-anchor="middle" x="311" y="-108" font-family="Helvetica,sans-Serif" font-size="10.00">total_time</text>
</g>
</g>
</svg>
