<?xml version="1.0" encoding="UTF-8" standalone="no"?>
<!DOCTYPE svg PUBLIC "-//W3C//DTD SVG 1.1//EN"
 "http://www.w3.org/Graphics/SVG/1.1/DTD/svg11.dtd">
<!-- Generated by graphviz version 2.43.0 (0)
 -->
<!-- Title: file_type Pages: 1 -->
<svg width="1328pt" height="1132pt"
 viewBox="0.00 0.00 1328.00 1131.65" xmlns="http://www.w3.org/2000/svg" xmlns:xlink="http://www.w3.org/1999/xlink">
<g id="graph0" class="graph" transform="scale(1 1) rotate(0) translate(4 1127.65)">
<title>file_type</title>
<polygon fill="white" stroke="transparent" points="-4,4 -4,-1127.65 1324,-1127.65 1324,4 -4,4"/>
<!-- Node1 -->
<g id="node1" class="node">
<title>Node1</title>
<g id="a_node1"><a xlink:title="Type to define the diagnostic files that will be written as defined by the diagnostic table.">
<polygon fill="#bfbfbf" stroke="black" points="1261,-688.15 1261,-707.15 1320,-707.15 1320,-688.15 1261,-688.15"/>
<text text-anchor="middle" x="1290.5" y="-695.15" font-family="Helvetica,sans-Serif" font-size="10.00">file_type</text>
</a>
</g>
</g>
<!-- Node2 -->
<g id="node2" class="node">
<title>Node2</title>
<g id="a_node2"><a xlink:href="group__time__manager__mod.html#structtime__manager__mod_1_1time__type" target="_top" xlink:title="Type to represent amounts of time. Implemented as seconds and days to allow for larger intervals.">
<polygon fill="white" stroke="black" points="280,-933.15 280,-952.15 346,-952.15 346,-933.15 280,-933.15"/>
<text text-anchor="middle" x="313" y="-940.15" font-family="Helvetica,sans-Serif" font-size="10.00">time_type</text>
</a>
</g>
</g>
<!-- Node2&#45;&gt;Node1 -->
<g id="edge1" class="edge">
<title>Node2&#45;&gt;Node1</title>
<path fill="none" stroke="#9a32cd" stroke-dasharray="5,2" d="M356.37,-942.97C398.21,-943.26 464.02,-943.65 521,-943.65 521,-943.65 521,-943.65 1058.5,-943.65 1149.16,-943.65 1184.09,-925.56 1243,-856.65 1281.87,-811.18 1288.27,-734.63 1289.31,-707.52"/>
<polygon fill="#9a32cd" stroke="#9a32cd" points="356.29,-939.47 346.27,-942.9 356.24,-946.47 356.29,-939.47"/>
<text text-anchor="middle" x="752" y="-979.65" font-family="Helvetica,sans-Serif" font-size="10.00"> start_time</text>
<text text-anchor="middle" x="752" y="-968.65" font-family="Helvetica,sans-Serif" font-size="10.00">next_open</text>
<text text-anchor="middle" x="752" y="-957.65" font-family="Helvetica,sans-Serif" font-size="10.00">last_flush</text>
<text text-anchor="middle" x="752" y="-946.65" font-family="Helvetica,sans-Serif" font-size="10.00">close_time</text>
</g>
<!-- Node3 -->
<g id="node3" class="node">
<title>Node3</title>
<g id="a_node3"><a xlink:title=" ">
<polygon fill="white" stroke="#bfbfbf" points="0,-669.15 0,-688.15 51,-688.15 51,-669.15 0,-669.15"/>
<text text-anchor="middle" x="25.5" y="-676.15" font-family="Helvetica,sans-Serif" font-size="10.00">integer</text>
</a>
</g>
</g>
<!-- Node3&#45;&gt;Node1 -->
<g id="edge45" class="edge">
<title>Node3&#45;&gt;Node1</title>
<path fill="none" stroke="#9a32cd" stroke-dasharray="5,2" d="M26.26,-698.43C25.96,-759.67 28.47,-944.47 69,-984.65 113.08,-1028.35 145.43,-1002.65 207.5,-1002.65 207.5,-1002.65 207.5,-1002.65 1058.5,-1002.65 1150.13,-1002.65 1186.71,-982.94 1243,-910.65 1268.58,-877.8 1284.54,-744.1 1288.52,-707.15"/>
<polygon fill="#9a32cd" stroke="#9a32cd" points="29.76,-698.23 26.34,-688.2 22.76,-698.17 29.76,-698.23"/>
<text text-anchor="middle" x="647" y="-1115.65" font-family="Helvetica,sans-Serif" font-size="10.00"> tile_count</text>
<text text-anchor="middle" x="647" y="-1104.65" font-family="Helvetica,sans-Serif" font-size="10.00">new_file_freq_units</text>
<text text-anchor="middle" x="647" y="-1093.65" font-family="Helvetica,sans-Serif" font-size="10.00">time_index</text>
<text text-anchor="middle" x="647" y="-1082.65" font-family="Helvetica,sans-Serif" font-size="10.00">bytes_written</text>
<text text-anchor="middle" x="647" y="-1071.65" font-family="Helvetica,sans-Serif" font-size="10.00">time_axis_id</text>
<text text-anchor="middle" x="647" y="-1060.65" font-family="Helvetica,sans-Serif" font-size="10.00">format</text>
<text text-anchor="middle" x="647" y="-1049.65" font-family="Helvetica,sans-Serif" font-size="10.00">num_attributes</text>
<text text-anchor="middle" x="647" y="-1038.65" font-family="Helvetica,sans-Serif" font-size="10.00">fields</text>
<text text-anchor="middle" x="647" y="-1027.65" font-family="Helvetica,sans-Serif" font-size="10.00">output_freq</text>
<text text-anchor="middle" x="647" y="-1016.65" font-family="Helvetica,sans-Serif" font-size="10.00">output_units</text>
<text text-anchor="middle" x="647" y="-1005.65" font-family="Helvetica,sans-Serif" font-size="10.00">...</text>
</g>
<!-- Node3&#45;&gt;Node2 -->
<g id="edge2" class="edge">
<title>Node3&#45;&gt;Node2</title>
<path fill="none" stroke="#9a32cd" stroke-dasharray="5,2" d="M27.16,-698.4C29.3,-749.53 37.85,-884.32 69,-913.65 126.38,-967.68 228.19,-958.63 279.92,-949.55"/>
<polygon fill="#9a32cd" stroke="#9a32cd" points="30.65,-698.17 26.78,-688.31 23.66,-698.44 30.65,-698.17"/>
<text text-anchor="middle" x="103" y="-972.65" font-family="Helvetica,sans-Serif" font-size="10.00"> days</text>
<text text-anchor="middle" x="103" y="-961.65" font-family="Helvetica,sans-Serif" font-size="10.00">seconds</text>
<text text-anchor="middle" x="103" y="-950.65" font-family="Helvetica,sans-Serif" font-size="10.00">ticks</text>
</g>
<!-- Node5 -->
<g id="node5" class="node">
<title>Node5</title>
<g id="a_node5"><a xlink:href="group__diag__data__mod.html#structdiag__data__mod_1_1diag__atttype" target="_top" xlink:title="Attribute type for diagnostic fields.">
<polygon fill="white" stroke="black" points="1018.5,-831.15 1018.5,-850.15 1096.5,-850.15 1096.5,-831.15 1018.5,-831.15"/>
<text text-anchor="middle" x="1057.5" y="-838.15" font-family="Helvetica,sans-Serif" font-size="10.00">diag_atttype</text>
</a>
</g>
</g>
<!-- Node3&#45;&gt;Node5 -->
<g id="edge8" class="edge">
<title>Node3&#45;&gt;Node5</title>
<path fill="none" stroke="#9a32cd" stroke-dasharray="5,2" d="M34.75,-697.52C42.16,-713.01 54.14,-734.87 69,-750.65 139.88,-825.92 179.79,-823.17 280,-848.65 553.36,-918.14 632.74,-897.72 914,-876.65 946.72,-874.2 955.19,-873.68 987,-865.65 1002.79,-861.66 1020.02,-855.47 1033.37,-850.25"/>
<polygon fill="#9a32cd" stroke="#9a32cd" points="37.92,-696.02 30.56,-688.4 31.55,-698.94 37.92,-696.02"/>
<text text-anchor="middle" x="522" y="-920.65" font-family="Helvetica,sans-Serif" font-size="10.00"> iatt</text>
<text text-anchor="middle" x="522" y="-909.65" font-family="Helvetica,sans-Serif" font-size="10.00">type</text>
<text text-anchor="middle" x="522" y="-898.65" font-family="Helvetica,sans-Serif" font-size="10.00">len</text>
</g>
<!-- Node11 -->
<g id="node11" class="node">
<title>Node11</title>
<g id="a_node11"><a xlink:href="group__diag__data__mod.html#structdiag__data__mod_1_1diag__fieldtype" target="_top" xlink:title="Diagnostic field type.">
<polygon fill="white" stroke="black" points="1014.5,-618.15 1014.5,-637.15 1100.5,-637.15 1100.5,-618.15 1014.5,-618.15"/>
<text text-anchor="middle" x="1057.5" y="-625.15" font-family="Helvetica,sans-Serif" font-size="10.00">diag_fieldtype</text>
</a>
</g>
</g>
<!-- Node3&#45;&gt;Node11 -->
<g id="edge41" class="edge">
<title>Node3&#45;&gt;Node11</title>
<path fill="none" stroke="#9a32cd" stroke-dasharray="5,2" d="M43.32,-695.34C50.78,-702.19 59.92,-709.84 69,-715.65 190.04,-792.98 223.53,-817.65 364,-847.65 404.42,-856.28 416.76,-857.1 457,-847.65 621.28,-809.07 639.33,-738.79 797,-678.65 855.13,-656.47 870.9,-653.38 932,-641.65 959.23,-636.42 990.22,-632.92 1014.47,-630.73"/>
<polygon fill="#9a32cd" stroke="#9a32cd" points="45.63,-692.7 35.97,-688.36 40.81,-697.78 45.63,-692.7"/>
<text text-anchor="middle" x="522" y="-845.65" font-family="Helvetica,sans-Serif" font-size="10.00"> tile_count</text>
</g>
<!-- Node12 -->
<g id="node12" class="node">
<title>Node12</title>
<g id="a_node12"><a xlink:href="group__mpp__domains__mod.html#structmpp__domains__mod_1_1domain2d" target="_top" xlink:title="The domain2D type contains all the necessary information to define the global, compute and data domai...">
<polygon fill="white" stroke="black" points="823,-572.15 823,-591.15 888,-591.15 888,-572.15 823,-572.15"/>
<text text-anchor="middle" x="855.5" y="-579.15" font-family="Helvetica,sans-Serif" font-size="10.00">domain2d</text>
</a>
</g>
</g>
<!-- Node3&#45;&gt;Node12 -->
<g id="edge37" class="edge">
<title>Node3&#45;&gt;Node12</title>
<path fill="none" stroke="#9a32cd" stroke-dasharray="5,2" d="M58.66,-691.63C62.12,-692.76 65.61,-693.8 69,-694.65 160.75,-717.68 185.61,-716.41 280,-722.65 309.27,-724.58 317.17,-728.06 346,-722.65 354.44,-721.06 355.65,-717.63 364,-715.65 513,-680.23 557.38,-715.33 707,-682.65 740.09,-675.42 750.33,-675.68 779,-657.65 786.71,-652.79 826.87,-610.82 845.27,-591.41"/>
<polygon fill="#9a32cd" stroke="#9a32cd" points="59.73,-688.29 49.13,-688.26 57.4,-694.89 59.73,-688.29"/>
<text text-anchor="middle" x="410.5" y="-839.65" font-family="Helvetica,sans-Serif" font-size="10.00"> fold</text>
<text text-anchor="middle" x="410.5" y="-828.65" font-family="Helvetica,sans-Serif" font-size="10.00">tile_id</text>
<text text-anchor="middle" x="410.5" y="-817.65" font-family="Helvetica,sans-Serif" font-size="10.00">tile_id_all</text>
<text text-anchor="middle" x="410.5" y="-806.65" font-family="Helvetica,sans-Serif" font-size="10.00">io_layout</text>
<text text-anchor="middle" x="410.5" y="-795.65" font-family="Helvetica,sans-Serif" font-size="10.00">nhalo</text>
<text text-anchor="middle" x="410.5" y="-784.65" font-family="Helvetica,sans-Serif" font-size="10.00">ntiles</text>
<text text-anchor="middle" x="410.5" y="-773.65" font-family="Helvetica,sans-Serif" font-size="10.00">pe</text>
<text text-anchor="start" x="386" y="-762.65" font-family="Helvetica,sans-Serif" font-size="10.00">max_ntile</text>
<text text-anchor="middle" x="410.5" y="-751.65" font-family="Helvetica,sans-Serif" font-size="10.00">_pe</text>
<text text-anchor="middle" x="410.5" y="-740.65" font-family="Helvetica,sans-Serif" font-size="10.00">shalo</text>
<text text-anchor="middle" x="410.5" y="-729.65" font-family="Helvetica,sans-Serif" font-size="10.00">ncontacts</text>
<text text-anchor="middle" x="410.5" y="-718.65" font-family="Helvetica,sans-Serif" font-size="10.00">...</text>
</g>
<!-- Node13 -->
<g id="node13" class="node">
<title>Node13</title>
<g id="a_node13"><a xlink:href="group__mpp__domains__mod.html#structmpp__domains__mod_1_1domain1d" target="_top" xlink:title="One dimensional domain used to manage shared data access between pes.">
<polygon fill="white" stroke="black" points="378,-280.15 378,-299.15 443,-299.15 443,-280.15 378,-280.15"/>
<text text-anchor="middle" x="410.5" y="-287.15" font-family="Helvetica,sans-Serif" font-size="10.00">domain1d</text>
</a>
</g>
</g>
<!-- Node3&#45;&gt;Node13 -->
<g id="edge21" class="edge">
<title>Node3&#45;&gt;Node13</title>
<path fill="none" stroke="#9a32cd" stroke-dasharray="5,2" d="M27.15,-658.52C29.86,-581.3 41.37,-306.98 69,-280.65 112.56,-239.14 302.03,-269.31 377.91,-283.43"/>
<polygon fill="#9a32cd" stroke="#9a32cd" points="23.65,-658.68 26.81,-668.79 30.64,-658.92 23.65,-658.68"/>
<text text-anchor="middle" x="208.5" y="-300.65" font-family="Helvetica,sans-Serif" font-size="10.00"> pe</text>
<text text-anchor="middle" x="208.5" y="-289.65" font-family="Helvetica,sans-Serif" font-size="10.00">goffset</text>
<text text-anchor="middle" x="208.5" y="-278.65" font-family="Helvetica,sans-Serif" font-size="10.00">pos</text>
<text text-anchor="middle" x="208.5" y="-267.65" font-family="Helvetica,sans-Serif" font-size="10.00">loffset</text>
</g>
<!-- Node14 -->
<g id="node14" class="node">
<title>Node14</title>
<g id="a_node14"><a xlink:href="group__mpp__domains__mod.html#structmpp__domains__mod_1_1domain__axis__spec" target="_top" xlink:title="Used to specify index limits along an axis of a domain.">
<polygon fill="white" stroke="black" points="155,-367.15 155,-386.15 262,-386.15 262,-367.15 155,-367.15"/>
<text text-anchor="middle" x="208.5" y="-374.15" font-family="Helvetica,sans-Serif" font-size="10.00">domain_axis_spec</text>
</a>
</g>
</g>
<!-- Node3&#45;&gt;Node14 -->
<g id="edge20" class="edge">
<title>Node3&#45;&gt;Node14</title>
<path fill="none" stroke="#9a32cd" stroke-dasharray="5,2" d="M28.23,-658.92C32.55,-613.89 45.23,-505.36 69,-478.65 90.2,-454.81 114.55,-478.32 137,-455.65 155.1,-437.37 137.86,-419.83 155,-400.65 160.54,-394.44 168.01,-389.74 175.57,-386.22"/>
<polygon fill="#9a32cd" stroke="#9a32cd" points="24.72,-658.86 27.29,-669.14 31.69,-659.5 24.72,-658.86"/>
<text text-anchor="middle" x="103" y="-514.65" font-family="Helvetica,sans-Serif" font-size="10.00"> max_size</text>
<text text-anchor="middle" x="103" y="-503.65" font-family="Helvetica,sans-Serif" font-size="10.00">size</text>
<text text-anchor="middle" x="103" y="-492.65" font-family="Helvetica,sans-Serif" font-size="10.00">begin</text>
<text text-anchor="middle" x="103" y="-481.65" font-family="Helvetica,sans-Serif" font-size="10.00">end</text>
</g>
<!-- Node16 -->
<g id="node16" class="node">
<title>Node16</title>
<g id="a_node16"><a xlink:href="group__mpp__domains__mod.html#structmpp__domains__mod_1_1overlapspec" target="_top" xlink:title="Private type for overlap specifications.">
<polygon fill="white" stroke="black" points="372.5,-370.15 372.5,-389.15 448.5,-389.15 448.5,-370.15 372.5,-370.15"/>
<text text-anchor="middle" x="410.5" y="-377.15" font-family="Helvetica,sans-Serif" font-size="10.00">overlapspec</text>
</a>
</g>
</g>
<!-- Node3&#45;&gt;Node16 -->
<g id="edge29" class="edge">
<title>Node3&#45;&gt;Node16</title>
<path fill="none" stroke="#9a32cd" stroke-dasharray="5,2" d="M29.89,-659.07C34.9,-634.9 46.27,-593.57 69,-565.65 91.58,-537.92 116.61,-552.02 137,-522.65 159.26,-490.56 126.56,-463.41 155,-436.65 217.48,-377.85 263.71,-432.93 346,-408.65 362.27,-403.84 379.74,-395.62 392.23,-389.16"/>
<polygon fill="#9a32cd" stroke="#9a32cd" points="26.41,-658.67 27.97,-669.15 33.28,-659.98 26.41,-658.67"/>
<text text-anchor="middle" x="208.5" y="-549.65" font-family="Helvetica,sans-Serif" font-size="10.00"> nsend</text>
<text text-anchor="middle" x="208.5" y="-538.65" font-family="Helvetica,sans-Serif" font-size="10.00">ybegin</text>
<text text-anchor="middle" x="208.5" y="-527.65" font-family="Helvetica,sans-Serif" font-size="10.00">xbegin</text>
<text text-anchor="middle" x="208.5" y="-516.65" font-family="Helvetica,sans-Serif" font-size="10.00">yend</text>
<text text-anchor="middle" x="208.5" y="-505.65" font-family="Helvetica,sans-Serif" font-size="10.00">nhalo</text>
<text text-anchor="middle" x="208.5" y="-494.65" font-family="Helvetica,sans-Serif" font-size="10.00">xend</text>
<text text-anchor="middle" x="208.5" y="-483.65" font-family="Helvetica,sans-Serif" font-size="10.00">recvsize</text>
<text text-anchor="middle" x="208.5" y="-472.65" font-family="Helvetica,sans-Serif" font-size="10.00">shalo</text>
<text text-anchor="middle" x="208.5" y="-461.65" font-family="Helvetica,sans-Serif" font-size="10.00">ehalo</text>
<text text-anchor="middle" x="208.5" y="-450.65" font-family="Helvetica,sans-Serif" font-size="10.00">sendsize</text>
<text text-anchor="middle" x="208.5" y="-439.65" font-family="Helvetica,sans-Serif" font-size="10.00">...</text>
</g>
<!-- Node17 -->
<g id="node17" class="node">
<title>Node17</title>
<g id="a_node17"><a xlink:href="group__mpp__domains__mod.html#structmpp__domains__mod_1_1overlap__type" target="_top" xlink:title="Type for overlapping data.">
<polygon fill="white" stroke="black" points="168.5,-329.15 168.5,-348.15 248.5,-348.15 248.5,-329.15 168.5,-329.15"/>
<text text-anchor="middle" x="208.5" y="-336.15" font-family="Helvetica,sans-Serif" font-size="10.00">overlap_type</text>
</a>
</g>
</g>
<!-- Node3&#45;&gt;Node17 -->
<g id="edge27" class="edge">
<title>Node3&#45;&gt;Node17</title>
<path fill="none" stroke="#9a32cd" stroke-dasharray="5,2" d="M27.42,-658.79C30.88,-588.22 44.23,-352.57 69,-330.65 101.19,-302.15 155.83,-317.28 185.96,-329.06"/>
<polygon fill="#9a32cd" stroke="#9a32cd" points="23.91,-658.82 26.93,-668.98 30.9,-659.15 23.91,-658.82"/>
<text text-anchor="middle" x="103" y="-443.65" font-family="Helvetica,sans-Serif" font-size="10.00"> rotation</text>
<text text-anchor="middle" x="103" y="-432.65" font-family="Helvetica,sans-Serif" font-size="10.00">totsize</text>
<text text-anchor="middle" x="103" y="-421.65" font-family="Helvetica,sans-Serif" font-size="10.00">pe</text>
<text text-anchor="middle" x="103" y="-410.65" font-family="Helvetica,sans-Serif" font-size="10.00">dir</text>
<text text-anchor="middle" x="103" y="-399.65" font-family="Helvetica,sans-Serif" font-size="10.00">tileme</text>
<text text-anchor="middle" x="103" y="-388.65" font-family="Helvetica,sans-Serif" font-size="10.00">js</text>
<text text-anchor="middle" x="103" y="-377.65" font-family="Helvetica,sans-Serif" font-size="10.00">count</text>
<text text-anchor="middle" x="103" y="-366.65" font-family="Helvetica,sans-Serif" font-size="10.00">is</text>
<text text-anchor="middle" x="103" y="-355.65" font-family="Helvetica,sans-Serif" font-size="10.00">tilenbr</text>
<text text-anchor="middle" x="103" y="-344.65" font-family="Helvetica,sans-Serif" font-size="10.00">index</text>
<text text-anchor="middle" x="103" y="-333.65" font-family="Helvetica,sans-Serif" font-size="10.00">...</text>
</g>
<!-- Node18 -->
<g id="node18" class="node">
<title>Node18</title>
<g id="a_node18"><a xlink:href="group__mpp__domains__mod.html#structmpp__domains__mod_1_1domain2d__spec" target="_top" xlink:title="Private type to specify multiple index limits and pe information for a 2D domain.">
<polygon fill="white" stroke="black" points="600.5,-616.15 600.5,-635.15 693.5,-635.15 693.5,-616.15 600.5,-616.15"/>
<text text-anchor="middle" x="647" y="-623.15" font-family="Helvetica,sans-Serif" font-size="10.00">domain2d_spec</text>
</a>
</g>
</g>
<!-- Node3&#45;&gt;Node18 -->
<g id="edge34" class="edge">
<title>Node3&#45;&gt;Node18</title>
<path fill="none" stroke="#9a32cd" stroke-dasharray="5,2" d="M61.26,-680.42C63.88,-680.51 66.48,-680.59 69,-680.65 99.21,-681.36 106.79,-681.61 137,-680.65 329.68,-674.49 378.46,-670.98 569,-641.65 580.47,-639.88 592.81,-637.52 604.18,-635.16"/>
<polygon fill="#9a32cd" stroke="#9a32cd" points="61.35,-676.92 51.21,-680.01 61.06,-683.91 61.35,-676.92"/>
<text text-anchor="middle" x="313" y="-710.65" font-family="Helvetica,sans-Serif" font-size="10.00"> tile_id</text>
<text text-anchor="middle" x="313" y="-699.65" font-family="Helvetica,sans-Serif" font-size="10.00">pe</text>
<text text-anchor="middle" x="313" y="-688.65" font-family="Helvetica,sans-Serif" font-size="10.00">tile_root_pe</text>
<text text-anchor="middle" x="313" y="-677.65" font-family="Helvetica,sans-Serif" font-size="10.00">pos</text>
</g>
<!-- Node19 -->
<g id="node19" class="node">
<title>Node19</title>
<g id="a_node19"><a xlink:href="group__mpp__domains__mod.html#structmpp__domains__mod_1_1domain1d__spec" target="_top" xlink:title="A private type used to specify index limits for a domain decomposition.">
<polygon fill="white" stroke="black" points="364,-608.15 364,-627.15 457,-627.15 457,-608.15 364,-608.15"/>
<text text-anchor="middle" x="410.5" y="-615.15" font-family="Helvetica,sans-Serif" font-size="10.00">domain1d_spec</text>
</a>
</g>
</g>
<!-- Node3&#45;&gt;Node19 -->
<g id="edge33" class="edge">
<title>Node3&#45;&gt;Node19</title>
<path fill="none" stroke="#9a32cd" stroke-dasharray="5,2" d="M61,-673.15C130.24,-662.12 286.15,-637.29 363.78,-624.93"/>
<polygon fill="#9a32cd" stroke="#9a32cd" points="60.37,-669.71 51.04,-674.74 61.47,-676.62 60.37,-669.71"/>
<text text-anchor="middle" x="208.5" y="-660.65" font-family="Helvetica,sans-Serif" font-size="10.00"> pos</text>
</g>
<!-- Node20 -->
<g id="node20" class="node">
<title>Node20</title>
<g id="a_node20"><a xlink:href="group__mpp__domains__mod.html#structmpp__domains__mod_1_1tile__type" target="_top" xlink:title="Upper and lower x and y bounds for a tile.">
<polygon fill="white" stroke="black" points="492.5,-549.15 492.5,-568.15 551.5,-568.15 551.5,-549.15 492.5,-549.15"/>
<text text-anchor="middle" x="522" y="-556.15" font-family="Helvetica,sans-Serif" font-size="10.00">tile_type</text>
</a>
</g>
</g>
<!-- Node3&#45;&gt;Node20 -->
<g id="edge36" class="edge">
<title>Node3&#45;&gt;Node20</title>
<path fill="none" stroke="#9a32cd" stroke-dasharray="5,2" d="M44.96,-662.11C68.58,-642.04 111.65,-608.97 155,-593.65 274.76,-551.3 429.49,-553.64 492.46,-556.78"/>
<polygon fill="#9a32cd" stroke="#9a32cd" points="42.44,-659.67 37.17,-668.86 47.02,-664.96 42.44,-659.67"/>
<text text-anchor="middle" x="208.5" y="-629.65" font-family="Helvetica,sans-Serif" font-size="10.00"> ybegin</text>
<text text-anchor="middle" x="208.5" y="-618.65" font-family="Helvetica,sans-Serif" font-size="10.00">xbegin</text>
<text text-anchor="middle" x="208.5" y="-607.65" font-family="Helvetica,sans-Serif" font-size="10.00">yend</text>
<text text-anchor="middle" x="208.5" y="-596.65" font-family="Helvetica,sans-Serif" font-size="10.00">xend</text>
</g>
<!-- Node4 -->
<g id="node4" class="node">
<title>Node4</title>
<g id="a_node4"><a xlink:title=" ">
<polygon fill="white" stroke="#bfbfbf" points="1,-181.15 1,-200.15 50,-200.15 50,-181.15 1,-181.15"/>
<text text-anchor="middle" x="25.5" y="-188.15" font-family="Helvetica,sans-Serif" font-size="10.00">logical</text>
</a>
</g>
</g>
<!-- Node4&#45;&gt;Node1 -->
<g id="edge3" class="edge">
<title>Node4&#45;&gt;Node1</title>
<path fill="none" stroke="#9a32cd" stroke-dasharray="5,2" d="M43.7,-173.88C74.07,-146.12 140.37,-93.65 207.5,-93.65 207.5,-93.65 207.5,-93.65 1058.5,-93.65 1191.26,-93.65 1275.87,-609.14 1287.99,-687.67"/>
<polygon fill="#9a32cd" stroke="#9a32cd" points="41.01,-171.6 36.11,-180.99 45.8,-176.71 41.01,-171.6"/>
<text text-anchor="middle" x="647" y="-107.65" font-family="Helvetica,sans-Serif" font-size="10.00"> is_time_axis_registered</text>
<text text-anchor="middle" x="647" y="-96.65" font-family="Helvetica,sans-Serif" font-size="10.00">local</text>
</g>
<!-- Node4&#45;&gt;Node11 -->
<g id="edge12" class="edge">
<title>Node4&#45;&gt;Node11</title>
<path fill="none" stroke="#9a32cd" stroke-dasharray="5,2" d="M59.98,-184.39C164.27,-166.71 489.34,-125.57 707,-252.65 881.08,-354.28 1020.71,-569.62 1050.58,-617.9"/>
<polygon fill="#9a32cd" stroke="#9a32cd" points="59.28,-180.96 50.03,-186.12 60.48,-187.85 59.28,-180.96"/>
<text text-anchor="middle" x="522" y="-208.65" font-family="Helvetica,sans-Serif" font-size="10.00"> miss_present</text>
<text text-anchor="middle" x="522" y="-197.65" font-family="Helvetica,sans-Serif" font-size="10.00">miss_pack_present</text>
</g>
<!-- Node4&#45;&gt;Node12 -->
<g id="edge14" class="edge">
<title>Node4&#45;&gt;Node12</title>
<path fill="none" stroke="#9a32cd" stroke-dasharray="5,2" d="M60.56,-189.77C63.42,-189.72 66.26,-189.68 69,-189.65 154.91,-188.64 176.9,-188.86 262,-200.65 463.59,-228.57 524.65,-218.28 707,-308.65 742.84,-326.41 755.45,-330.32 779,-362.65 829.92,-432.53 848.56,-539.5 853.23,-571.97"/>
<polygon fill="#9a32cd" stroke="#9a32cd" points="60.25,-186.28 50.32,-189.99 60.4,-193.28 60.25,-186.28"/>
<text text-anchor="middle" x="410.5" y="-249.65" font-family="Helvetica,sans-Serif" font-size="10.00"> rotated_ninety</text>
<text text-anchor="middle" x="410.5" y="-238.65" font-family="Helvetica,sans-Serif" font-size="10.00">symmetry</text>
<text text-anchor="middle" x="410.5" y="-227.65" font-family="Helvetica,sans-Serif" font-size="10.00">initialized</text>
</g>
<!-- Node4&#45;&gt;Node13 -->
<g id="edge16" class="edge">
<title>Node4&#45;&gt;Node13</title>
<path fill="none" stroke="#9a32cd" stroke-dasharray="5,2" d="M60.14,-193.11C119.65,-198.35 246.55,-213.5 346,-252.65 364.28,-259.84 383.55,-271.77 396,-280.13"/>
<polygon fill="#9a32cd" stroke="#9a32cd" points="60.43,-189.63 50.18,-192.27 59.85,-196.6 60.43,-189.63"/>
<text text-anchor="middle" x="208.5" y="-228.65" font-family="Helvetica,sans-Serif" font-size="10.00"> cyclic</text>
</g>
<!-- Node4&#45;&gt;Node14 -->
<g id="edge19" class="edge">
<title>Node4&#45;&gt;Node14</title>
<path fill="none" stroke="#9a32cd" stroke-dasharray="5,2" d="M31.21,-209.95C36.96,-229.6 48.55,-259.66 69,-277.65 92.96,-298.71 114.67,-277.86 137,-300.65 155.59,-319.62 136.61,-338.48 155,-357.65 158.69,-361.49 163.22,-364.56 168.05,-367.02"/>
<polygon fill="#9a32cd" stroke="#9a32cd" points="34.58,-208.99 28.6,-200.24 27.82,-210.81 34.58,-208.99"/>
<text text-anchor="middle" x="103" y="-303.65" font-family="Helvetica,sans-Serif" font-size="10.00"> is_global</text>
</g>
<!-- Node4&#45;&gt;Node17 -->
<g id="edge26" class="edge">
<title>Node4&#45;&gt;Node17</title>
<path fill="none" stroke="#9a32cd" stroke-dasharray="5,2" d="M49.45,-205.92C80.87,-226.9 133.79,-262.54 137,-266.65 151.03,-284.6 139.46,-297.98 155,-314.65 160.74,-320.8 168.37,-325.5 176.02,-329.04"/>
<polygon fill="#9a32cd" stroke="#9a32cd" points="51.1,-202.81 40.84,-200.18 47.22,-208.64 51.1,-202.81"/>
<text text-anchor="middle" x="103" y="-269.65" font-family="Helvetica,sans-Serif" font-size="10.00"> from_contact</text>
</g>
<!-- Node5&#45;&gt;Node1 -->
<g id="edge4" class="edge">
<title>Node5&#45;&gt;Node1</title>
<path fill="none" stroke="#9a32cd" stroke-dasharray="5,2" d="M1106.87,-843.02C1147.4,-842.48 1204.62,-835.48 1243,-804.65 1274.42,-779.4 1285.09,-728.75 1288.28,-707.44"/>
<polygon fill="#9a32cd" stroke="#9a32cd" points="1106.69,-839.52 1096.69,-843.03 1106.69,-846.52 1106.69,-839.52"/>
<text text-anchor="middle" x="1185.5" y="-844.65" font-family="Helvetica,sans-Serif" font-size="10.00"> attributes</text>
</g>
<!-- Node6 -->
<g id="node6" class="node">
<title>Node6</title>
<g id="a_node6"><a xlink:title=" ">
<polygon fill="white" stroke="#bfbfbf" points="797,-848.15 797,-867.15 914,-867.15 914,-848.15 797,-848.15"/>
<text text-anchor="middle" x="855.5" y="-855.15" font-family="Helvetica,sans-Serif" font-size="10.00">character(len=1280)</text>
</a>
</g>
</g>
<!-- Node6&#45;&gt;Node5 -->
<g id="edge5" class="edge">
<title>Node6&#45;&gt;Node5</title>
<path fill="none" stroke="#9a32cd" stroke-dasharray="5,2" d="M924.09,-851.9C955.49,-849.23 991.67,-846.16 1018.27,-843.9"/>
<polygon fill="#9a32cd" stroke="#9a32cd" points="923.75,-848.42 914.08,-852.75 924.34,-855.39 923.75,-848.42"/>
<text text-anchor="middle" x="959.5" y="-853.65" font-family="Helvetica,sans-Serif" font-size="10.00"> catt</text>
</g>
<!-- Node7 -->
<g id="node7" class="node">
<title>Node7</title>
<g id="a_node7"><a xlink:title=" ">
<polygon fill="white" stroke="#bfbfbf" points="800,-781.15 800,-800.15 911,-800.15 911,-781.15 800,-781.15"/>
<text text-anchor="middle" x="855.5" y="-788.15" font-family="Helvetica,sans-Serif" font-size="10.00">character(len=128)</text>
</a>
</g>
</g>
<!-- Node7&#45;&gt;Node1 -->
<g id="edge43" class="edge">
<title>Node7&#45;&gt;Node1</title>
<path fill="none" stroke="#9a32cd" stroke-dasharray="5,2" d="M921.17,-785.54C942.25,-783.39 965.7,-780.47 987,-776.65 1089.04,-758.31 1207.2,-723.36 1260.63,-706.79"/>
<polygon fill="#9a32cd" stroke="#9a32cd" points="920.64,-782.07 911.03,-786.53 921.33,-789.04 920.64,-782.07"/>
<text text-anchor="middle" x="1057.5" y="-786.65" font-family="Helvetica,sans-Serif" font-size="10.00"> name</text>
<text text-anchor="middle" x="1057.5" y="-775.65" font-family="Helvetica,sans-Serif" font-size="10.00">long_name</text>
</g>
<!-- Node7&#45;&gt;Node5 -->
<g id="edge6" class="edge">
<title>Node7&#45;&gt;Node5</title>
<path fill="none" stroke="#9a32cd" stroke-dasharray="5,2" d="M904.54,-802.66C939.38,-811.37 985.87,-822.99 1018.21,-831.07"/>
<polygon fill="#9a32cd" stroke="#9a32cd" points="905.14,-799.2 894.59,-800.17 903.44,-805.99 905.14,-799.2"/>
<text text-anchor="middle" x="959.5" y="-825.65" font-family="Helvetica,sans-Serif" font-size="10.00"> name</text>
</g>
<!-- Node7&#45;&gt;Node11 -->
<g id="edge40" class="edge">
<title>Node7&#45;&gt;Node11</title>
<path fill="none" stroke="#9a32cd" stroke-dasharray="5,2" d="M877.25,-774.73C903.18,-754.72 948.81,-719.18 987,-687.65 1008.14,-670.19 1032.25,-649.11 1045.79,-637.15"/>
<polygon fill="#9a32cd" stroke="#9a32cd" points="875.03,-772.01 869.25,-780.89 879.3,-777.56 875.03,-772.01"/>
<text text-anchor="middle" x="959.5" y="-732.65" font-family="Helvetica,sans-Serif" font-size="10.00"> fieldname</text>
</g>
<!-- Node8 -->
<g id="node8" class="node">
<title>Node8</title>
<g id="a_node8"><a xlink:title=" ">
<polygon fill="white" stroke="#bfbfbf" points="838,-688.15 838,-707.15 873,-707.15 873,-688.15 838,-688.15"/>
<text text-anchor="middle" x="855.5" y="-695.15" font-family="Helvetica,sans-Serif" font-size="10.00">real</text>
</a>
</g>
</g>
<!-- Node8&#45;&gt;Node1 -->
<g id="edge44" class="edge">
<title>Node8&#45;&gt;Node1</title>
<path fill="none" stroke="#9a32cd" stroke-dasharray="5,2" d="M883.52,-697.65C960.73,-697.65 1181.82,-697.65 1260.92,-697.65"/>
<polygon fill="#9a32cd" stroke="#9a32cd" points="883.21,-694.15 873.21,-697.65 883.21,-701.15 883.21,-694.15"/>
<text text-anchor="middle" x="1057.5" y="-700.65" font-family="Helvetica,sans-Serif" font-size="10.00"> rtime_current</text>
</g>
<!-- Node8&#45;&gt;Node5 -->
<g id="edge7" class="edge">
<title>Node8&#45;&gt;Node5</title>
<path fill="none" stroke="#9a32cd" stroke-dasharray="5,2" d="M880.43,-712.83C907.69,-730.69 952.88,-762.07 987,-794.65 996.14,-803.37 995.02,-808.9 1005,-816.65 1012.48,-822.46 1021.59,-827.28 1030.06,-831.05"/>
<polygon fill="#9a32cd" stroke="#9a32cd" points="882.21,-709.81 871.92,-707.31 878.4,-715.68 882.21,-709.81"/>
<text text-anchor="middle" x="959.5" y="-797.65" font-family="Helvetica,sans-Serif" font-size="10.00"> fatt</text>
</g>
<!-- Node8&#45;&gt;Node11 -->
<g id="edge42" class="edge">
<title>Node8&#45;&gt;Node11</title>
<path fill="none" stroke="#9a32cd" stroke-dasharray="5,2" d="M882.52,-684.96C902.29,-675.36 926.94,-663.53 932,-661.65 958.88,-651.66 990.01,-643.16 1014.41,-637.15"/>
<polygon fill="#9a32cd" stroke="#9a32cd" points="880.77,-681.92 873.31,-689.44 883.83,-688.21 880.77,-681.92"/>
<text text-anchor="middle" x="959.5" y="-675.65" font-family="Helvetica,sans-Serif" font-size="10.00"> miss_pack</text>
<text text-anchor="middle" x="959.5" y="-664.65" font-family="Helvetica,sans-Serif" font-size="10.00">miss</text>
</g>
<!-- Node9 -->
<g id="node9" class="node">
<title>Node9</title>
<g id="a_node9"><a xlink:title=" ">
<polygon fill="white" stroke="#bfbfbf" points="1011.5,-46.15 1011.5,-65.15 1103.5,-65.15 1103.5,-46.15 1011.5,-46.15"/>
<text text-anchor="middle" x="1057.5" y="-53.15" font-family="Helvetica,sans-Serif" font-size="10.00">logical(i4_kind)</text>
</a>
</g>
</g>
<!-- Node9&#45;&gt;Node1 -->
<g id="edge9" class="edge">
<title>Node9&#45;&gt;Node1</title>
<path fill="none" stroke="#9a32cd" stroke-dasharray="5,2" d="M1113.87,-48.36C1161.38,-43.48 1224.95,-40.68 1243,-57.65 1290.99,-102.76 1290,-610.73 1289.57,-687.86"/>
<polygon fill="#9a32cd" stroke="#9a32cd" points="1113.26,-44.91 1103.69,-49.46 1114.01,-51.87 1113.26,-44.91"/>
<text text-anchor="middle" x="1185.5" y="-71.65" font-family="Helvetica,sans-Serif" font-size="10.00"> use_domain2d</text>
<text text-anchor="middle" x="1185.5" y="-60.65" font-family="Helvetica,sans-Serif" font-size="10.00">use_domainug</text>
</g>
<!-- Node10 -->
<g id="node10" class="node">
<title>Node10</title>
<g id="a_node10"><a xlink:title=" ">
<polygon fill="white" stroke="#bfbfbf" points="1005,-8.15 1005,-27.15 1110,-27.15 1110,-8.15 1005,-8.15"/>
<text text-anchor="middle" x="1057.5" y="-15.15" font-family="Helvetica,sans-Serif" font-size="10.00">character(len=10)</text>
</a>
</g>
</g>
<!-- Node10&#45;&gt;Node1 -->
<g id="edge10" class="edge">
<title>Node10&#45;&gt;Node1</title>
<path fill="none" stroke="#9a32cd" stroke-dasharray="5,2" d="M1102.39,-5.99C1144.5,2.27 1206.85,6.34 1243,-29.65 1291.82,-78.24 1290.1,-609.38 1289.58,-687.96"/>
<polygon fill="#9a32cd" stroke="#9a32cd" points="1101.48,-2.6 1092.42,-8.09 1102.93,-9.45 1101.48,-2.6"/>
<text text-anchor="middle" x="1185.5" y="-32.65" font-family="Helvetica,sans-Serif" font-size="10.00"> filename_time_bounds</text>
</g>
<!-- Node11&#45;&gt;Node1 -->
<g id="edge11" class="edge">
<title>Node11&#45;&gt;Node1</title>
<path fill="none" stroke="#9a32cd" stroke-dasharray="5,2" d="M1110.65,-620.22C1149.34,-617.19 1202.23,-618.42 1243,-639.65 1263.38,-650.25 1277.9,-674.15 1284.86,-687.73"/>
<polygon fill="#9a32cd" stroke="#9a32cd" points="1110.28,-616.74 1100.63,-621.12 1110.91,-623.71 1110.28,-616.74"/>
<text text-anchor="middle" x="1185.5" y="-675.65" font-family="Helvetica,sans-Serif" font-size="10.00"> f_avg_nitems</text>
<text text-anchor="middle" x="1185.5" y="-664.65" font-family="Helvetica,sans-Serif" font-size="10.00">f_avg_end</text>
<text text-anchor="middle" x="1185.5" y="-653.65" font-family="Helvetica,sans-Serif" font-size="10.00">f_avg_start</text>
<text text-anchor="middle" x="1185.5" y="-642.65" font-family="Helvetica,sans-Serif" font-size="10.00">f_bounds</text>
</g>
<!-- Node12&#45;&gt;Node11 -->
<g id="edge13" class="edge">
<title>Node12&#45;&gt;Node11</title>
<path fill="none" stroke="#9a32cd" stroke-dasharray="5,2" d="M898.4,-586.38C924.2,-589.78 957.8,-595.12 987,-602.65 1002.77,-606.71 1020,-612.9 1033.36,-618.1"/>
<polygon fill="#9a32cd" stroke="#9a32cd" points="898.58,-582.87 888.22,-585.08 897.69,-589.81 898.58,-582.87"/>
<text text-anchor="middle" x="959.5" y="-605.65" font-family="Helvetica,sans-Serif" font-size="10.00"> domain</text>
</g>
<!-- Node12&#45;&gt;Node12 -->
<g id="edge23" class="edge">
<title>Node12&#45;&gt;Node12</title>
<path fill="none" stroke="#9a32cd" stroke-dasharray="5,2" d="M836.61,-601.05C837.87,-605.96 844.17,-609.65 855.5,-609.65 873.63,-609.65 878.87,-600.21 871.22,-591.4"/>
<polygon fill="#9a32cd" stroke="#9a32cd" points="839.98,-602 839.78,-591.4 833.33,-599.81 839.98,-602"/>
<text text-anchor="middle" x="855.5" y="-612.65" font-family="Helvetica,sans-Serif" font-size="10.00"> io_domain</text>
</g>
<!-- Node13&#45;&gt;Node12 -->
<g id="edge15" class="edge">
<title>Node13&#45;&gt;Node12</title>
<path fill="none" stroke="#9a32cd" stroke-dasharray="5,2" d="M453.34,-291.75C512.92,-296.27 624.16,-310.43 707,-354.65 798.01,-403.23 841.39,-535.38 851.91,-572.08"/>
<polygon fill="#9a32cd" stroke="#9a32cd" points="453.4,-288.25 443.18,-291.04 452.91,-295.23 453.4,-288.25"/>
<text text-anchor="middle" x="647" y="-368.65" font-family="Helvetica,sans-Serif" font-size="10.00"> x</text>
<text text-anchor="middle" x="647" y="-357.65" font-family="Helvetica,sans-Serif" font-size="10.00">y</text>
</g>
<!-- Node13&#45;&gt;Node13 -->
<g id="edge17" class="edge">
<title>Node13&#45;&gt;Node13</title>
<path fill="none" stroke="#9a32cd" stroke-dasharray="5,2" d="M392.72,-309.05C393.91,-313.96 399.84,-317.65 410.5,-317.65 427.56,-317.65 432.49,-308.21 425.3,-299.4"/>
<polygon fill="#9a32cd" stroke="#9a32cd" points="396.09,-309.99 395.7,-299.4 389.41,-307.92 396.09,-309.99"/>
<text text-anchor="middle" x="410.5" y="-320.65" font-family="Helvetica,sans-Serif" font-size="10.00"> list</text>
</g>
<!-- Node14&#45;&gt;Node13 -->
<g id="edge18" class="edge">
<title>Node14&#45;&gt;Node13</title>
<path fill="none" stroke="#9a32cd" stroke-dasharray="5,2" d="M265.24,-364.91C296.38,-357.86 331.72,-348.87 346,-341.65 367.87,-330.58 389.01,-310.91 400.54,-299.19"/>
<polygon fill="#9a32cd" stroke="#9a32cd" points="264.3,-361.53 255.31,-367.13 265.83,-368.37 264.3,-361.53"/>
<text text-anchor="middle" x="313" y="-396.65" font-family="Helvetica,sans-Serif" font-size="10.00"> memory</text>
<text text-anchor="middle" x="313" y="-385.65" font-family="Helvetica,sans-Serif" font-size="10.00">global</text>
<text text-anchor="middle" x="313" y="-374.65" font-family="Helvetica,sans-Serif" font-size="10.00">compute</text>
<text text-anchor="middle" x="313" y="-363.65" font-family="Helvetica,sans-Serif" font-size="10.00">data</text>
</g>
<!-- Node14&#45;&gt;Node19 -->
<g id="edge32" class="edge">
<title>Node14&#45;&gt;Node19</title>
<path fill="none" stroke="#9a32cd" stroke-dasharray="5,2" d="M246.91,-390.64C252.27,-393.51 257.49,-396.84 262,-400.65 337.17,-464.13 390.5,-574.97 405.33,-608.06"/>
<polygon fill="#9a32cd" stroke="#9a32cd" points="248.38,-387.47 237.86,-386.25 245.33,-393.76 248.38,-387.47"/>
<text text-anchor="middle" x="313" y="-511.65" font-family="Helvetica,sans-Serif" font-size="10.00"> global</text>
<text text-anchor="middle" x="313" y="-500.65" font-family="Helvetica,sans-Serif" font-size="10.00">compute</text>
</g>
<!-- Node15 -->
<g id="node15" class="node">
<title>Node15</title>
<g id="a_node15"><a xlink:title=" ">
<polygon fill="white" stroke="#bfbfbf" points="600,-654.15 600,-673.15 694,-673.15 694,-654.15 600,-654.15"/>
<text text-anchor="middle" x="647" y="-661.15" font-family="Helvetica,sans-Serif" font-size="10.00">integer(i8_kind)</text>
</a>
</g>
</g>
<!-- Node15&#45;&gt;Node12 -->
<g id="edge22" class="edge">
<title>Node15&#45;&gt;Node12</title>
<path fill="none" stroke="#9a32cd" stroke-dasharray="5,2" d="M696.54,-651.47C721.61,-644.52 752.44,-634.94 779,-623.65 800.95,-614.32 824.76,-600.37 839.65,-591.15"/>
<polygon fill="#9a32cd" stroke="#9a32cd" points="695.61,-648.09 686.88,-654.09 697.45,-654.85 695.61,-648.09"/>
<text text-anchor="middle" x="752" y="-645.65" font-family="Helvetica,sans-Serif" font-size="10.00"> id</text>
</g>
<!-- Node16&#45;&gt;Node12 -->
<g id="edge24" class="edge">
<title>Node16&#45;&gt;Node12</title>
<path fill="none" stroke="#9a32cd" stroke-dasharray="5,2" d="M459.07,-375.72C520.11,-372.8 627.57,-375 707,-416.65 779.14,-454.47 832.95,-542.81 849.32,-572.05"/>
<polygon fill="#9a32cd" stroke="#9a32cd" points="458.75,-372.23 448.96,-376.27 459.14,-379.22 458.75,-372.23"/>
<text text-anchor="middle" x="647" y="-529.65" font-family="Helvetica,sans-Serif" font-size="10.00"> update_c</text>
<text text-anchor="middle" x="647" y="-518.65" font-family="Helvetica,sans-Serif" font-size="10.00">update_t</text>
<text text-anchor="middle" x="647" y="-507.65" font-family="Helvetica,sans-Serif" font-size="10.00">update_e</text>
<text text-anchor="middle" x="647" y="-496.65" font-family="Helvetica,sans-Serif" font-size="10.00">bound_c</text>
<text text-anchor="middle" x="647" y="-485.65" font-family="Helvetica,sans-Serif" font-size="10.00">bound_e</text>
<text text-anchor="middle" x="647" y="-474.65" font-family="Helvetica,sans-Serif" font-size="10.00">check_n</text>
<text text-anchor="middle" x="647" y="-463.65" font-family="Helvetica,sans-Serif" font-size="10.00">update_n</text>
<text text-anchor="middle" x="647" y="-452.65" font-family="Helvetica,sans-Serif" font-size="10.00">check_c</text>
<text text-anchor="middle" x="647" y="-441.65" font-family="Helvetica,sans-Serif" font-size="10.00">bound_n</text>
<text text-anchor="middle" x="647" y="-430.65" font-family="Helvetica,sans-Serif" font-size="10.00">check_e</text>
<text text-anchor="middle" x="647" y="-419.65" font-family="Helvetica,sans-Serif" font-size="10.00">...</text>
</g>
<!-- Node16&#45;&gt;Node16 -->
<g id="edge28" class="edge">
<title>Node16&#45;&gt;Node16</title>
<path fill="none" stroke="#9a32cd" stroke-dasharray="5,2" d="M392.72,-399.05C393.91,-403.96 399.84,-407.65 410.5,-407.65 427.56,-407.65 432.49,-398.21 425.3,-389.4"/>
<polygon fill="#9a32cd" stroke="#9a32cd" points="396.09,-399.99 395.7,-389.4 389.41,-397.92 396.09,-399.99"/>
<text text-anchor="middle" x="410.5" y="-410.65" font-family="Helvetica,sans-Serif" font-size="10.00"> next</text>
</g>
<!-- Node17&#45;&gt;Node16 -->
<g id="edge25" class="edge">
<title>Node17&#45;&gt;Node16</title>
<path fill="none" stroke="#9a32cd" stroke-dasharray="5,2" d="M240.12,-325.61C268.57,-315.5 311.59,-305.4 346,-319.65 356.45,-323.98 355.84,-329.81 364,-337.65 375.78,-348.97 389.61,-361.65 398.91,-370.09"/>
<polygon fill="#9a32cd" stroke="#9a32cd" points="238.83,-322.35 230.7,-329.14 241.3,-328.9 238.83,-322.35"/>
<text text-anchor="middle" x="313" y="-333.65" font-family="Helvetica,sans-Serif" font-size="10.00"> recv</text>
<text text-anchor="middle" x="313" y="-322.65" font-family="Helvetica,sans-Serif" font-size="10.00">send</text>
</g>
<!-- Node18&#45;&gt;Node12 -->
<g id="edge30" class="edge">
<title>Node18&#45;&gt;Node12</title>
<path fill="none" stroke="#9a32cd" stroke-dasharray="5,2" d="M702.79,-613.97C741.13,-605.8 791,-595.18 822.89,-588.38"/>
<polygon fill="#9a32cd" stroke="#9a32cd" points="701.86,-610.59 692.81,-616.1 703.32,-617.44 701.86,-610.59"/>
<text text-anchor="middle" x="752" y="-611.65" font-family="Helvetica,sans-Serif" font-size="10.00"> list</text>
</g>
<!-- Node19&#45;&gt;Node18 -->
<g id="edge31" class="edge">
<title>Node19&#45;&gt;Node18</title>
<path fill="none" stroke="#9a32cd" stroke-dasharray="5,2" d="M467.33,-617.47C497.45,-617.6 535.28,-618.12 569,-619.65 579.18,-620.11 590.1,-620.82 600.43,-621.6"/>
<polygon fill="#9a32cd" stroke="#9a32cd" points="467.02,-613.97 457.01,-617.44 467,-620.97 467.02,-613.97"/>
<text text-anchor="middle" x="522" y="-633.65" font-family="Helvetica,sans-Serif" font-size="10.00"> x</text>
<text text-anchor="middle" x="522" y="-622.65" font-family="Helvetica,sans-Serif" font-size="10.00">y</text>
</g>
<!-- Node20&#45;&gt;Node12 -->
<g id="edge35" class="edge">
<title>Node20&#45;&gt;Node12</title>
<path fill="none" stroke="#9a32cd" stroke-dasharray="5,2" d="M561.44,-550.25C569.82,-548.75 578.68,-547.42 587,-546.65 640.1,-541.71 654.03,-540.45 707,-546.65 747.91,-551.43 793.92,-563.45 823.51,-572.06"/>
<polygon fill="#9a32cd" stroke="#9a32cd" points="560.69,-546.83 551.51,-552.13 561.99,-553.7 560.69,-546.83"/>
<text text-anchor="middle" x="647" y="-549.65" font-family="Helvetica,sans-Serif" font-size="10.00"> tilelist</text>
</g>
<!-- Node21 -->
<g id="node21" class="node">
<title>Node21</title>
<g id="a_node21"><a xlink:title=" ">
<polygon fill="white" stroke="#bfbfbf" points="588.5,-566.65 588.5,-596.65 705.5,-596.65 705.5,-566.65 588.5,-566.65"/>
<text text-anchor="start" x="596.5" y="-584.65" font-family="Helvetica,sans-Serif" font-size="10.00">character(len=name</text>
<text text-anchor="middle" x="647" y="-573.65" font-family="Helvetica,sans-Serif" font-size="10.00">_length)</text>
</a>
</g>
</g>
<!-- Node21&#45;&gt;Node12 -->
<g id="edge38" class="edge">
<title>Node21&#45;&gt;Node12</title>
<path fill="none" stroke="#9a32cd" stroke-dasharray="5,2" d="M715.98,-581.65C752.01,-581.65 794.55,-581.65 822.89,-581.65"/>
<polygon fill="#9a32cd" stroke="#9a32cd" points="715.52,-578.15 705.52,-581.65 715.52,-585.15 715.52,-578.15"/>
<text text-anchor="middle" x="752" y="-584.65" font-family="Helvetica,sans-Serif" font-size="10.00"> name</text>
</g>
<!-- Node22 -->
<g id="node22" class="node">
<title>Node22</title>
<g id="a_node22"><a xlink:title=" ">
<polygon fill="white" stroke="#bfbfbf" points="808,-122.15 808,-141.15 903,-141.15 903,-122.15 808,-122.15"/>
<text text-anchor="middle" x="855.5" y="-129.15" font-family="Helvetica,sans-Serif" font-size="10.00">type(domainug)</text>
</a>
</g>
</g>
<!-- Node22&#45;&gt;Node11 -->
<g id="edge39" class="edge">
<title>Node22&#45;&gt;Node11</title>
<path fill="none" stroke="#9a32cd" stroke-dasharray="5,2" d="M913.14,-122.69C938.86,-121.93 967.76,-126.23 987,-144.65 1058.14,-212.75 1057.39,-555.54 1056.65,-617.91"/>
<polygon fill="#9a32cd" stroke="#9a32cd" points="912.89,-119.2 903.1,-123.24 913.27,-126.19 912.89,-119.2"/>
<text text-anchor="middle" x="959.5" y="-147.65" font-family="Helvetica,sans-Serif" font-size="10.00"> domainu</text>
</g>
</g>
</svg>
