<?xml version="1.0" encoding="UTF-8" standalone="no"?>
<!DOCTYPE svg PUBLIC "-//W3C//DTD SVG 1.1//EN"
 "http://www.w3.org/Graphics/SVG/1.1/DTD/svg11.dtd">
<!-- Generated by graphviz version 2.43.0 (0)
 -->
<!-- Title: coupler_1d_field_type Pages: 1 -->
<!--zoomable 208 -->
<svg id="main" version="1.1" xmlns="http://www.w3.org/2000/svg" xmlns:xlink="http://www.w3.org/1999/xlink" xml:space="preserve" onload="init(evt)">
<style type="text/css"><![CDATA[
.edge:hover path { stroke: red; }
.edge:hover polygon { stroke: red; fill: red; }
]]></style>
<script type="text/javascript"><![CDATA[
var edges = document.getElementsByTagName('g');
if (edges && edges.length) {
  for (var i=0;i<edges.length;i++) {
    if (edges[i].id.substr(0,4)=='edge') {
      edges[i].setAttribute('class','edge');
    }
  }
}
]]></script>
        <defs>
                <circle id="rim" cx="0" cy="0" r="7"/>
                <circle id="rim2" cx="0" cy="0" r="3.5"/>
                <g id="zoomPlus">
                        <use xlink:href="#rim" fill="#404040">
                                <set attributeName="fill" to="#808080" begin="zoomplus.mouseover" end="zoomplus.mouseout"/>
                        </use>
                        <path d="M-4,0h8M0,-4v8" fill="none" stroke="white" stroke-width="1.5" pointer-events="none"/>
                </g>
                <g id="zoomMin">
                        <use xlink:href="#rim" fill="#404040">
                                <set attributeName="fill" to="#808080" begin="zoomminus.mouseover" end="zoomminus.mouseout"/>
                        </use>
                        <path d="M-4,0h8" fill="none" stroke="white" stroke-width="1.5" pointer-events="none"/>
                </g>
                <g id="dirArrow">
                        <path fill="none" stroke="white" stroke-width="1.5" d="M0,-3.0v7 M-2.5,-0.5L0,-3.0L2.5,-0.5"/>
                </g>
               <g id="resetDef">
                       <use xlink:href="#rim2" fill="#404040">
                               <set attributeName="fill" to="#808080" begin="reset.mouseover" end="reset.mouseout"/>
                       </use>
               </g>
        </defs>

<script type="text/javascript">
var viewWidth = 658;
var viewHeight = 208;
var sectionId = 'dynsection-1';
</script>
<script xlink:href="svgpan.js"/>
<svg id="graph" class="graph">
<g id="viewport">
<title>coupler_1d_field_type</title>
<polygon fill="white" stroke="transparent" points="-4,4 -4,-204 653.5,-204 653.5,4 -4,4"/>
<!-- Node1 -->
<g id="node1" class="node">
<title>Node1</title>
<g id="a_node1"><a xlink:title="Coupler data for 1D fields.">
<polygon fill="#bfbfbf" stroke="black" points="255,-0.5 255,-19.5 378,-19.5 378,-0.5 255,-0.5"/>
<text text-anchor="middle" x="316.5" y="-7.5" font-family="Helvetica,sans-Serif" font-size="10.00">coupler_1d_field_type</text>
</a>
</g>
</g>
<!-- Node2 -->
<g id="node2" class="node">
<title>Node2</title>
<g id="a_node2"><a xlink:title=" ">
<polygon fill="white" stroke="#bfbfbf" points="325,-180.5 325,-199.5 374,-199.5 374,-180.5 325,-180.5"/>
<text text-anchor="middle" x="349.5" y="-187.5" font-family="Helvetica,sans-Serif" font-size="10.00">logical</text>
</a>
</g>
</g>
<!-- Node2&#45;&gt;Node1 -->
<g id="edge1" class="edge">
<title>Node2&#45;&gt;Node1</title>
<path fill="none" stroke="#9a32cd" stroke-dasharray="5,2" d="M337.91,-171.73C327.94,-158.18 312.36,-139.84 294.5,-129 268.14,-113 246.26,-135.47 227.5,-111 215.6,-95.48 218.05,-84.12 227.5,-67 240.74,-43.03 269.02,-27.92 290.17,-19.52"/>
<polygon fill="#9a32cd" stroke="#9a32cd" points="335.26,-174.05 343.88,-180.2 340.98,-170.01 335.26,-174.05"/>
<text text-anchor="middle" x="283" y="-103" font-family="Helvetica,sans-Serif" font-size="10.00"> use_10m_wind_speed</text>
<text text-anchor="middle" x="283" y="-92" font-family="Helvetica,sans-Serif" font-size="10.00">pass_through_ice</text>
<text text-anchor="middle" x="283" y="-81" font-family="Helvetica,sans-Serif" font-size="10.00">use_atm_pressure</text>
<text text-anchor="middle" x="283" y="-70" font-family="Helvetica,sans-Serif" font-size="10.00">flag</text>
</g>
<!-- Node4 -->
<g id="node4" class="node">
<title>Node4</title>
<g id="a_node4"><a xlink:href="group__coupler__types__mod.html#structcoupler__types__mod_1_1coupler__1d__values__type" target="_top" xlink:title="Coupler data for 1D values.">
<polygon fill="white" stroke="black" points="347.5,-79.5 347.5,-98.5 481.5,-98.5 481.5,-79.5 347.5,-79.5"/>
<text text-anchor="middle" x="414.5" y="-86.5" font-family="Helvetica,sans-Serif" font-size="10.00">coupler_1d_values_type</text>
</a>
</g>
</g>
<!-- Node2&#45;&gt;Node4 -->
<g id="edge4" class="edge">
<title>Node2&#45;&gt;Node4</title>
<path fill="none" stroke="#9a32cd" stroke-dasharray="5,2" d="M357.86,-170.97C363.83,-158.75 372.39,-142.43 381.5,-129 389.07,-117.84 399.28,-106.19 406.33,-98.56"/>
<polygon fill="#9a32cd" stroke="#9a32cd" points="354.64,-169.59 353.5,-180.12 360.96,-172.6 354.64,-169.59"/>
<text text-anchor="middle" x="403.5" y="-154" font-family="Helvetica,sans-Serif" font-size="10.00"> override</text>
<text text-anchor="middle" x="403.5" y="-143" font-family="Helvetica,sans-Serif" font-size="10.00">may_init</text>
<text text-anchor="middle" x="403.5" y="-132" font-family="Helvetica,sans-Serif" font-size="10.00">mean</text>
</g>
<!-- Node3 -->
<g id="node3" class="node">
<title>Node3</title>
<g id="a_node3"><a xlink:title=" ">
<polygon fill="white" stroke="#bfbfbf" points="183,-180.5 183,-199.5 288,-199.5 288,-180.5 183,-180.5"/>
<text text-anchor="middle" x="235.5" y="-187.5" font-family="Helvetica,sans-Serif" font-size="10.00">character(len=48)</text>
</a>
</g>
</g>
<!-- Node3&#45;&gt;Node1 -->
<g id="edge2" class="edge">
<title>Node3&#45;&gt;Node1</title>
<path fill="none" stroke="#9a32cd" stroke-dasharray="5,2" d="M180.88,-175.88C174.84,-172.31 169.46,-167.77 165.5,-162 149.81,-139.13 183.3,-68.46 184.5,-67 205.59,-41.32 240.58,-27.19 269.24,-19.56"/>
<polygon fill="#9a32cd" stroke="#9a32cd" points="179.58,-179.14 190.09,-180.45 182.69,-172.87 179.58,-179.14"/>
<text text-anchor="middle" x="200" y="-86.5" font-family="Helvetica,sans-Serif" font-size="10.00"> name</text>
</g>
<!-- Node3&#45;&gt;Node4 -->
<g id="edge5" class="edge">
<title>Node3&#45;&gt;Node4</title>
<path fill="none" stroke="#9a32cd" stroke-dasharray="5,2" d="M255.71,-174.5C273.98,-161.71 301.87,-142.99 327.5,-129 349.15,-117.18 375.07,-105.91 392.95,-98.55"/>
<polygon fill="#9a32cd" stroke="#9a32cd" points="253.48,-171.79 247.33,-180.42 257.52,-177.51 253.48,-171.79"/>
<text text-anchor="middle" x="343" y="-143" font-family="Helvetica,sans-Serif" font-size="10.00"> name</text>
</g>
<!-- Node4&#45;&gt;Node1 -->
<g id="edge3" class="edge">
<title>Node4&#45;&gt;Node1</title>
<path fill="none" stroke="#9a32cd" stroke-dasharray="5,2" d="M395.73,-73.25C375.48,-57.34 343.92,-32.55 327.41,-19.57"/>
<polygon fill="#9a32cd" stroke="#9a32cd" points="393.61,-76.04 403.64,-79.47 397.94,-70.54 393.61,-76.04"/>
<text text-anchor="middle" x="375" y="-41" font-family="Helvetica,sans-Serif" font-size="10.00"> field</text>
</g>
<!-- Node5 -->
<g id="node5" class="node">
<title>Node5</title>
<g id="a_node5"><a xlink:title=" ">
<polygon fill="white" stroke="#bfbfbf" points="0,-180.5 0,-199.5 111,-199.5 111,-180.5 0,-180.5"/>
<text text-anchor="middle" x="55.5" y="-187.5" font-family="Helvetica,sans-Serif" font-size="10.00">character(len=128)</text>
</a>
</g>
</g>
<!-- Node5&#45;&gt;Node1 -->
<g id="edge9" class="edge">
<title>Node5&#45;&gt;Node1</title>
<path fill="none" stroke="#9a32cd" stroke-dasharray="5,2" d="M52.69,-169.95C49.92,-143.29 49.3,-94.98 75.5,-67 99.57,-41.29 191.71,-25.54 254.82,-17.54"/>
<polygon fill="#9a32cd" stroke="#9a32cd" points="49.27,-170.74 53.98,-180.23 56.21,-169.87 49.27,-170.74"/>
<text text-anchor="middle" x="119.5" y="-103" font-family="Helvetica,sans-Serif" font-size="10.00"> ice_restart_file</text>
<text text-anchor="middle" x="119.5" y="-92" font-family="Helvetica,sans-Serif" font-size="10.00">flux_type</text>
<text text-anchor="middle" x="119.5" y="-81" font-family="Helvetica,sans-Serif" font-size="10.00">implementation</text>
<text text-anchor="middle" x="119.5" y="-70" font-family="Helvetica,sans-Serif" font-size="10.00">ocean_restart_file</text>
</g>
<!-- Node5&#45;&gt;Node4 -->
<g id="edge6" class="edge">
<title>Node5&#45;&gt;Node4</title>
<path fill="none" stroke="#9a32cd" stroke-dasharray="5,2" d="M83.75,-176.36C115.28,-162.74 168.1,-141.36 215.5,-129 266.83,-115.61 281.53,-121.67 333.5,-111 350.58,-107.49 369.44,-102.66 384.67,-98.51"/>
<polygon fill="#9a32cd" stroke="#9a32cd" points="82.06,-173.28 74.3,-180.49 84.86,-179.69 82.06,-173.28"/>
<text text-anchor="middle" x="243" y="-148.5" font-family="Helvetica,sans-Serif" font-size="10.00"> units</text>
<text text-anchor="middle" x="243" y="-137.5" font-family="Helvetica,sans-Serif" font-size="10.00">long_name</text>
</g>
<!-- Node6 -->
<g id="node6" class="node">
<title>Node6</title>
<g id="a_node6"><a xlink:title=" ">
<polygon fill="white" stroke="#bfbfbf" points="544,-180.5 544,-199.5 595,-199.5 595,-180.5 544,-180.5"/>
<text text-anchor="middle" x="569.5" y="-187.5" font-family="Helvetica,sans-Serif" font-size="10.00">integer</text>
</a>
</g>
</g>
<!-- Node6&#45;&gt;Node1 -->
<g id="edge11" class="edge">
<title>Node6&#45;&gt;Node1</title>
<path fill="none" stroke="#9a32cd" stroke-dasharray="5,2" d="M583.1,-171.74C584.91,-168.65 586.49,-165.34 587.5,-162 591.75,-147.96 591.31,-143.16 587.5,-129 579.22,-98.23 575.82,-87.59 551.5,-67 525.61,-45.08 438.62,-28.51 378.08,-19.27"/>
<polygon fill="#9a32cd" stroke="#9a32cd" points="580.07,-169.97 577.31,-180.2 585.85,-173.93 580.07,-169.97"/>
<text text-anchor="middle" x="615.5" y="-92" font-family="Helvetica,sans-Serif" font-size="10.00"> atm_tr_index</text>
<text text-anchor="middle" x="615.5" y="-81" font-family="Helvetica,sans-Serif" font-size="10.00">num_fields</text>
</g>
<!-- Node6&#45;&gt;Node4 -->
<g id="edge7" class="edge">
<title>Node6&#45;&gt;Node4</title>
<path fill="none" stroke="#9a32cd" stroke-dasharray="5,2" d="M555.51,-172.4C543.75,-159.27 525.96,-141.18 507.5,-129 487.18,-115.6 461.51,-105.25 442.29,-98.6"/>
<polygon fill="#9a32cd" stroke="#9a32cd" points="553.09,-174.96 562.3,-180.2 558.37,-170.36 553.09,-174.96"/>
<text text-anchor="middle" x="564" y="-143" font-family="Helvetica,sans-Serif" font-size="10.00"> id_diag</text>
</g>
<!-- Node7 -->
<g id="node7" class="node">
<title>Node7</title>
<g id="a_node7"><a xlink:title=" ">
<polygon fill="white" stroke="#bfbfbf" points="480,-180.5 480,-199.5 515,-199.5 515,-180.5 480,-180.5"/>
<text text-anchor="middle" x="497.5" y="-187.5" font-family="Helvetica,sans-Serif" font-size="10.00">real</text>
</a>
</g>
</g>
<!-- Node7&#45;&gt;Node1 -->
<g id="edge10" class="edge">
<title>Node7&#45;&gt;Node1</title>
<path fill="none" stroke="#9a32cd" stroke-dasharray="5,2" d="M502.84,-170.35C509.18,-143.83 515.96,-95.28 490.5,-67 462.05,-35.4 415.71,-21.54 378,-15.5"/>
<polygon fill="#9a32cd" stroke="#9a32cd" points="499.39,-169.69 500.24,-180.25 506.16,-171.47 499.39,-169.69"/>
<text text-anchor="middle" x="527.5" y="-92" font-family="Helvetica,sans-Serif" font-size="10.00"> mol_wt</text>
<text text-anchor="middle" x="527.5" y="-81" font-family="Helvetica,sans-Serif" font-size="10.00">param</text>
</g>
<!-- Node7&#45;&gt;Node4 -->
<g id="edge8" class="edge">
<title>Node7&#45;&gt;Node4</title>
<path fill="none" stroke="#9a32cd" stroke-dasharray="5,2" d="M479.48,-173.87C475.39,-170.14 471.17,-166.05 467.5,-162 448.32,-140.84 429.33,-112.9 420.17,-98.86"/>
<polygon fill="#9a32cd" stroke="#9a32cd" points="477.19,-176.52 487.02,-180.48 481.81,-171.26 477.19,-176.52"/>
<text text-anchor="middle" x="485.5" y="-143" font-family="Helvetica,sans-Serif" font-size="10.00"> values</text>
</g>
</g>
</svg>
        <g id="navigator" transform="translate(0 0)" fill="#404254">
                <rect fill="#f2f5e9" fill-opacity="0.5" stroke="#606060" stroke-width=".5" x="0" y="0" width="60" height="60"/>
                <use id="zoomplus" xlink:href="#zoomPlus" x="17" y="9" onmousedown="handleZoom(evt,'in')"/>
                <use id="zoomminus" xlink:href="#zoomMin" x="42" y="9" onmousedown="handleZoom(evt,'out')"/>
                <use id="reset" xlink:href="#resetDef" x="30" y="36" onmousedown="handleReset()"/>
                <g id="arrowUp" xlink:href="#dirArrow" transform="translate(30 24)" onmousedown="handlePan(0,-1)">
                  <use xlink:href="#rim" fill="#404040">
                        <set attributeName="fill" to="#808080" begin="arrowUp.mouseover" end="arrowUp.mouseout"/>
                  </use>
                  <path fill="none" stroke="white" stroke-width="1.5" d="M0,-3.0v7 M-2.5,-0.5L0,-3.0L2.5,-0.5"/>
                </g>
                <g id="arrowRight" xlink:href="#dirArrow" transform="rotate(90) translate(36 -43)" onmousedown="handlePan(1,0)">
                  <use xlink:href="#rim" fill="#404040">
                        <set attributeName="fill" to="#808080" begin="arrowRight.mouseover" end="arrowRight.mouseout"/>
                  </use>
                  <path fill="none" stroke="white" stroke-width="1.5" d="M0,-3.0v7 M-2.5,-0.5L0,-3.0L2.5,-0.5"/>
                </g>
                <g id="arrowDown" xlink:href="#dirArrow" transform="rotate(180) translate(-30 -48)" onmousedown="handlePan(0,1)">
                  <use xlink:href="#rim" fill="#404040">
                        <set attributeName="fill" to="#808080" begin="arrowDown.mouseover" end="arrowDown.mouseout"/>
                  </use>
                  <path fill="none" stroke="white" stroke-width="1.5" d="M0,-3.0v7 M-2.5,-0.5L0,-3.0L2.5,-0.5"/>
                </g>
                <g id="arrowLeft" xlink:href="#dirArrow" transform="rotate(270) translate(-36 17)" onmousedown="handlePan(-1,0)">
                  <use xlink:href="#rim" fill="#404040">
                        <set attributeName="fill" to="#808080" begin="arrowLeft.mouseover" end="arrowLeft.mouseout"/>
                  </use>
                  <path fill="none" stroke="white" stroke-width="1.5" d="M0,-3.0v7 M-2.5,-0.5L0,-3.0L2.5,-0.5"/>
                </g>
        </g>
        <svg viewBox="0 0 15 15" width="100%" height="30px" preserveAspectRatio="xMaxYMin meet">
         <g id="arrow_out" transform="scale(0.3 0.3)">
          <a xlink:href="structcoupler__types__mod_1_1coupler__1d__field__type__coll__graph_org.svg" target="_base">
           <rect id="button" ry="5" rx="5" y="6" x="6" height="38" width="38"
                fill="#f2f5e9" fill-opacity="0.5" stroke="#606060" stroke-width="1.0"/>
           <path id="arrow"
             d="M 11.500037,31.436501 C 11.940474,20.09759 22.043105,11.32322 32.158766,21.979434 L 37.068811,17.246167 C 37.068811,17.246167 37.088388,32 37.088388,32 L 22.160133,31.978069 C 22.160133,31.978069 26.997745,27.140456 26.997745,27.140456 C 18.528582,18.264221 13.291696,25.230495 11.500037,31.436501 z"
             style="fill:#404040;"/>
          </a>
         </g>
        </svg>
</svg>
