<?xml version="1.0" encoding="UTF-8" standalone="no"?>
<!DOCTYPE svg PUBLIC "-//W3C//DTD SVG 1.1//EN"
 "http://www.w3.org/Graphics/SVG/1.1/DTD/svg11.dtd">
<!-- Generated by graphviz version 2.43.0 (0)
 -->
<!-- Title: overlap_type Pages: 1 -->
<svg width="165pt" height="205pt"
 viewBox="0.00 0.00 164.50 205.00" xmlns="http://www.w3.org/2000/svg" xmlns:xlink="http://www.w3.org/1999/xlink">
<g id="graph0" class="graph" transform="scale(1 1) rotate(0) translate(4 201)">
<title>overlap_type</title>
<polygon fill="white" stroke="transparent" points="-4,4 -4,-201 160.5,-201 160.5,4 -4,4"/>
<!-- Node1 -->
<g id="node1" class="node">
<title>Node1</title>
<g id="a_node1"><a xlink:title="Type for overlapping data.">
<polygon fill="#bfbfbf" stroke="black" points="29.5,-0.5 29.5,-19.5 109.5,-19.5 109.5,-0.5 29.5,-0.5"/>
<text text-anchor="middle" x="69.5" y="-7.5" font-family="Helvetica,sans-Serif" font-size="10.00">overlap_type</text>
</a>
</g>
</g>
<!-- Node2 -->
<g id="node2" class="node">
<title>Node2</title>
<g id="a_node2"><a xlink:title=" ">
<polygon fill="white" stroke="#bfbfbf" points="0,-177.5 0,-196.5 49,-196.5 49,-177.5 0,-177.5"/>
<text text-anchor="middle" x="24.5" y="-184.5" font-family="Helvetica,sans-Serif" font-size="10.00">logical</text>
</a>
</g>
</g>
<!-- Node2&#45;&gt;Node1 -->
<g id="edge1" class="edge">
<title>Node2&#45;&gt;Node1</title>
<path fill="none" stroke="#9a32cd" stroke-dasharray="5,2" d="M19.23,-167.45C11.96,-137.9 2.22,-79.28 25.5,-38 30.08,-29.88 38.2,-23.9 46.23,-19.67"/>
<polygon fill="#9a32cd" stroke="#9a32cd" points="15.88,-168.48 21.82,-177.25 22.65,-166.69 15.88,-168.48"/>
<text text-anchor="middle" x="59.5" y="-96" font-family="Helvetica,sans-Serif" font-size="10.00"> from_contact</text>
</g>
<!-- Node3 -->
<g id="node3" class="node">
<title>Node3</title>
<g id="a_node3"><a xlink:title=" ">
<polygon fill="white" stroke="#bfbfbf" points="90,-177.5 90,-196.5 141,-196.5 141,-177.5 90,-177.5"/>
<text text-anchor="middle" x="115.5" y="-184.5" font-family="Helvetica,sans-Serif" font-size="10.00">integer</text>
</a>
</g>
</g>
<!-- Node3&#45;&gt;Node1 -->
<g id="edge2" class="edge">
<title>Node3&#45;&gt;Node1</title>
<path fill="none" stroke="#9a32cd" stroke-dasharray="5,2" d="M116.06,-167.14C116.21,-138.03 113.6,-81.01 93.5,-38 90.21,-30.95 84.47,-24.4 79.44,-19.51"/>
<polygon fill="#9a32cd" stroke="#9a32cd" points="112.56,-167.11 115.89,-177.16 119.56,-167.22 112.56,-167.11"/>
<text text-anchor="middle" x="136" y="-151" font-family="Helvetica,sans-Serif" font-size="10.00"> count</text>
<text text-anchor="middle" x="136" y="-140" font-family="Helvetica,sans-Serif" font-size="10.00">dir</text>
<text text-anchor="middle" x="136" y="-129" font-family="Helvetica,sans-Serif" font-size="10.00">ie</text>
<text text-anchor="middle" x="136" y="-118" font-family="Helvetica,sans-Serif" font-size="10.00">index</text>
<text text-anchor="middle" x="136" y="-107" font-family="Helvetica,sans-Serif" font-size="10.00">is</text>
<text text-anchor="middle" x="136" y="-96" font-family="Helvetica,sans-Serif" font-size="10.00">je</text>
<text text-anchor="middle" x="136" y="-85" font-family="Helvetica,sans-Serif" font-size="10.00">js</text>
<text text-anchor="middle" x="136" y="-74" font-family="Helvetica,sans-Serif" font-size="10.00">msgsize</text>
<text text-anchor="middle" x="136" y="-63" font-family="Helvetica,sans-Serif" font-size="10.00">pe</text>
<text text-anchor="middle" x="136" y="-52" font-family="Helvetica,sans-Serif" font-size="10.00">rotation</text>
<text text-anchor="middle" x="136" y="-41" font-family="Helvetica,sans-Serif" font-size="10.00">...</text>
</g>
</g>
</svg>
