<?xml version="1.0" encoding="UTF-8" standalone="no"?>
<!DOCTYPE svg PUBLIC "-//W3C//DTD SVG 1.1//EN"
 "http://www.w3.org/Graphics/SVG/1.1/DTD/svg11.dtd">
<!-- Generated by graphviz version 2.43.0 (0)
 -->
<!-- Title: dimension_information Pages: 1 -->
<svg width="138pt" height="216pt"
 viewBox="0.00 0.00 138.00 216.00" xmlns="http://www.w3.org/2000/svg" xmlns:xlink="http://www.w3.org/1999/xlink">
<g id="graph0" class="graph" transform="scale(1 1) rotate(0) translate(4 212)">
<title>dimension_information</title>
<polygon fill="white" stroke="transparent" points="-4,4 -4,-212 134,-212 134,4 -4,4"/>
<!-- Node1 -->
<g id="node1" class="node">
<title>Node1</title>
<g id="a_node1"><a xlink:title="information about the current dimensions for regional restart variables">
<polygon fill="#bfbfbf" stroke="black" points="0,-0.5 0,-19.5 130,-19.5 130,-0.5 0,-0.5"/>
<text text-anchor="middle" x="65" y="-7.5" font-family="Helvetica,sans-Serif" font-size="10.00">dimension_information</text>
</a>
</g>
</g>
<!-- Node2 -->
<g id="node2" class="node">
<title>Node2</title>
<g id="a_node2"><a xlink:title=" ">
<polygon fill="white" stroke="#bfbfbf" points="39.5,-188.5 39.5,-207.5 90.5,-207.5 90.5,-188.5 39.5,-188.5"/>
<text text-anchor="middle" x="65" y="-195.5" font-family="Helvetica,sans-Serif" font-size="10.00">integer</text>
</a>
</g>
</g>
<!-- Node2&#45;&gt;Node1 -->
<g id="edge1" class="edge">
<title>Node2&#45;&gt;Node1</title>
<path fill="none" stroke="#9a32cd" stroke-dasharray="5,2" d="M65,-177.86C65,-138.21 65,-48.42 65,-19.88"/>
<polygon fill="#9a32cd" stroke="#9a32cd" points="61.5,-178.03 65,-188.03 68.5,-178.03 61.5,-178.03"/>
<text text-anchor="middle" x="85" y="-162" font-family="Helvetica,sans-Serif" font-size="10.00"> x</text>
<text text-anchor="middle" x="85" y="-151" font-family="Helvetica,sans-Serif" font-size="10.00">each</text>
<text text-anchor="middle" x="85" y="-140" font-family="Helvetica,sans-Serif" font-size="10.00">y</text>
<text text-anchor="middle" x="85" y="-129" font-family="Helvetica,sans-Serif" font-size="10.00">unique</text>
<text text-anchor="middle" x="85" y="-118" font-family="Helvetica,sans-Serif" font-size="10.00">z</text>
<text text-anchor="middle" x="85" y="-107" font-family="Helvetica,sans-Serif" font-size="10.00">size</text>
<text text-anchor="middle" x="85" y="-96" font-family="Helvetica,sans-Serif" font-size="10.00">of</text>
<text text-anchor="middle" x="85" y="-85" font-family="Helvetica,sans-Serif" font-size="10.00">number</text>
<text text-anchor="start" x="65" y="-74" font-family="Helvetica,sans-Serif" font-size="10.00">cur_dim</text>
<text text-anchor="middle" x="85" y="-63" font-family="Helvetica,sans-Serif" font-size="10.00">_len</text>
<text text-anchor="middle" x="85" y="-52" font-family="Helvetica,sans-Serif" font-size="10.00">the</text>
<text text-anchor="middle" x="85" y="-41" font-family="Helvetica,sans-Serif" font-size="10.00">...</text>
</g>
</g>
</svg>
