<?xml version="1.0" encoding="UTF-8" standalone="no"?>
<!DOCTYPE svg PUBLIC "-//W3C//DTD SVG 1.1//EN"
 "http://www.w3.org/Graphics/SVG/1.1/DTD/svg11.dtd">
<!-- Generated by graphviz version 2.43.0 (0)
 -->
<!-- Title: nest_domain_type Pages: 1 -->
<svg width="1132pt" height="1085pt"
 viewBox="0.00 0.00 1132.18 1085.00" xmlns="http://www.w3.org/2000/svg" xmlns:xlink="http://www.w3.org/1999/xlink">
<g id="graph0" class="graph" transform="scale(1 1) rotate(0) translate(4 1081)">
<title>nest_domain_type</title>
<polygon fill="white" stroke="transparent" points="-4,4 -4,-1081 1128.18,-1081 1128.18,4 -4,4"/>
<!-- Node1 -->
<g id="node1" class="node">
<title>Node1</title>
<g id="a_node1"><a xlink:title="domain with nested fine and course tiles">
<polygon fill="#bfbfbf" stroke="black" points="834.68,-0.5 834.68,-19.5 941.68,-19.5 941.68,-0.5 834.68,-0.5"/>
<text text-anchor="middle" x="888.18" y="-7.5" font-family="Helvetica,sans-Serif" font-size="10.00">nest_domain_type</text>
</a>
</g>
</g>
<!-- Node2 -->
<g id="node2" class="node">
<title>Node2</title>
<g id="a_node2"><a xlink:href="group__mpp__domains__mod.html#structmpp__domains__mod_1_1nest__level__type" target="_top" xlink:title="Private type to hold data for each level of nesting.">
<polygon fill="white" stroke="black" points="529.18,-67.5 529.18,-86.5 623.18,-86.5 623.18,-67.5 529.18,-67.5"/>
<text text-anchor="middle" x="576.18" y="-74.5" font-family="Helvetica,sans-Serif" font-size="10.00">nest_level_type</text>
</a>
</g>
</g>
<!-- Node2&#45;&gt;Node1 -->
<g id="edge1" class="edge">
<title>Node2&#45;&gt;Node1</title>
<path fill="none" stroke="#9a32cd" stroke-dasharray="5,2" d="M627.15,-65.38C688.5,-52.6 790.35,-31.38 846.98,-19.58"/>
<polygon fill="#9a32cd" stroke="#9a32cd" points="626.37,-61.97 617.29,-67.44 627.79,-68.82 626.37,-61.97"/>
<text text-anchor="middle" x="763.68" y="-41" font-family="Helvetica,sans-Serif" font-size="10.00"> nest</text>
</g>
<!-- Node3 -->
<g id="node3" class="node">
<title>Node3</title>
<g id="a_node3"><a xlink:title=" ">
<polygon fill="white" stroke="#bfbfbf" points="127.68,-1057.5 127.68,-1076.5 176.68,-1076.5 176.68,-1057.5 127.68,-1057.5"/>
<text text-anchor="middle" x="152.18" y="-1064.5" font-family="Helvetica,sans-Serif" font-size="10.00">logical</text>
</a>
</g>
</g>
<!-- Node3&#45;&gt;Node2 -->
<g id="edge2" class="edge">
<title>Node3&#45;&gt;Node2</title>
<path fill="none" stroke="#9a32cd" stroke-dasharray="5,2" d="M117.48,-1062.16C87.69,-1058.11 47.91,-1050.69 37.18,-1039 -23.11,-973.32 8.18,-929.66 8.18,-840.5 8.18,-840.5 8.18,-840.5 8.18,-154 8.18,-101.64 392.22,-84 528.73,-79.39"/>
<polygon fill="#9a32cd" stroke="#9a32cd" points="117.17,-1065.65 127.54,-1063.45 118.06,-1058.7 117.17,-1065.65"/>
<text text-anchor="middle" x="40.18" y="-508" font-family="Helvetica,sans-Serif" font-size="10.00"> is_coarse</text>
<text text-anchor="middle" x="40.18" y="-497" font-family="Helvetica,sans-Serif" font-size="10.00">is_coarse_pe</text>
<text text-anchor="middle" x="40.18" y="-486" font-family="Helvetica,sans-Serif" font-size="10.00">is_fine</text>
<text text-anchor="middle" x="40.18" y="-475" font-family="Helvetica,sans-Serif" font-size="10.00">is_fine_pe</text>
<text text-anchor="middle" x="40.18" y="-464" font-family="Helvetica,sans-Serif" font-size="10.00">on_level</text>
</g>
<!-- Node4 -->
<g id="node4" class="node">
<title>Node4</title>
<g id="a_node4"><a xlink:href="group__mpp__domains__mod.html#structmpp__domains__mod_1_1domain2d" target="_top" xlink:title="The domain2D type contains all the necessary information to define the global, compute and data domai...">
<polygon fill="white" stroke="black" points="543.68,-145.5 543.68,-164.5 608.68,-164.5 608.68,-145.5 543.68,-145.5"/>
<text text-anchor="middle" x="576.18" y="-152.5" font-family="Helvetica,sans-Serif" font-size="10.00">domain2d</text>
</a>
</g>
</g>
<!-- Node3&#45;&gt;Node4 -->
<g id="edge4" class="edge">
<title>Node3&#45;&gt;Node4</title>
<path fill="none" stroke="#9a32cd" stroke-dasharray="5,2" d="M117.65,-1061.89C102.88,-1058.29 86.85,-1051.57 77.18,-1039 13.23,-955.86 35.36,-664.44 74.18,-567 157.9,-356.87 210.46,-292.86 408.18,-183 430.84,-170.41 501.39,-162.39 543.51,-158.6"/>
<polygon fill="#9a32cd" stroke="#9a32cd" points="117.08,-1065.35 127.58,-1063.91 118.48,-1058.49 117.08,-1065.35"/>
<text text-anchor="middle" x="110.18" y="-636" font-family="Helvetica,sans-Serif" font-size="10.00"> initialized</text>
<text text-anchor="middle" x="110.18" y="-625" font-family="Helvetica,sans-Serif" font-size="10.00">rotated_ninety</text>
<text text-anchor="middle" x="110.18" y="-614" font-family="Helvetica,sans-Serif" font-size="10.00">symmetry</text>
</g>
<!-- Node5 -->
<g id="node5" class="node">
<title>Node5</title>
<g id="a_node5"><a xlink:href="group__mpp__domains__mod.html#structmpp__domains__mod_1_1domain1d" target="_top" xlink:title="One dimensional domain used to manage shared data access between pes.">
<polygon fill="white" stroke="black" points="534.68,-618 534.68,-637 599.68,-637 599.68,-618 534.68,-618"/>
<text text-anchor="middle" x="567.18" y="-625" font-family="Helvetica,sans-Serif" font-size="10.00">domain1d</text>
</a>
</g>
</g>
<!-- Node3&#45;&gt;Node5 -->
<g id="edge6" class="edge">
<title>Node3&#45;&gt;Node5</title>
<path fill="none" stroke="#9a32cd" stroke-dasharray="5,2" d="M186.91,-1064.73C215.78,-1062.41 257.18,-1056.07 289.18,-1039 366.27,-997.88 387.49,-977.31 428.18,-900 469.02,-822.4 418,-780.55 464.18,-706 484.69,-672.9 524.9,-648.99 548.56,-637.07"/>
<polygon fill="#9a32cd" stroke="#9a32cd" points="186.62,-1061.24 176.88,-1065.42 187.09,-1068.23 186.62,-1061.24"/>
<text text-anchor="middle" x="461.68" y="-837" font-family="Helvetica,sans-Serif" font-size="10.00"> cyclic</text>
</g>
<!-- Node6 -->
<g id="node6" class="node">
<title>Node6</title>
<g id="a_node6"><a xlink:href="group__mpp__domains__mod.html#structmpp__domains__mod_1_1domain__axis__spec" target="_top" xlink:title="Used to specify index limits along an axis of a domain.">
<polygon fill="white" stroke="black" points="537.68,-830 537.68,-849 644.68,-849 644.68,-830 537.68,-830"/>
<text text-anchor="middle" x="591.18" y="-837" font-family="Helvetica,sans-Serif" font-size="10.00">domain_axis_spec</text>
</a>
</g>
</g>
<!-- Node3&#45;&gt;Node6 -->
<g id="edge9" class="edge">
<title>Node3&#45;&gt;Node6</title>
<path fill="none" stroke="#9a32cd" stroke-dasharray="5,2" d="M187.12,-1065.98C277.13,-1065.61 511.71,-1062.37 537.18,-1039 557.23,-1020.6 548.4,-944.08 556.18,-918 563.95,-891.97 578.63,-863.32 586.28,-849.27"/>
<polygon fill="#9a32cd" stroke="#9a32cd" points="186.87,-1062.49 176.88,-1066.02 186.89,-1069.49 186.87,-1062.49"/>
<text text-anchor="middle" x="579.68" y="-976" font-family="Helvetica,sans-Serif" font-size="10.00"> is_global</text>
</g>
<!-- Node10 -->
<g id="node10" class="node">
<title>Node10</title>
<g id="a_node10"><a xlink:href="group__mpp__domains__mod.html#structmpp__domains__mod_1_1overlap__type" target="_top" xlink:title="Type for overlapping data.">
<polygon fill="white" stroke="black" points="164.18,-830 164.18,-849 244.18,-849 244.18,-830 164.18,-830"/>
<text text-anchor="middle" x="204.18" y="-837" font-family="Helvetica,sans-Serif" font-size="10.00">overlap_type</text>
</a>
</g>
</g>
<!-- Node3&#45;&gt;Node10 -->
<g id="edge16" class="edge">
<title>Node3&#45;&gt;Node10</title>
<path fill="none" stroke="#9a32cd" stroke-dasharray="5,2" d="M148.98,-1047.24C144.83,-1018.64 139.62,-962.74 153.18,-918 161.69,-889.95 183.88,-862.61 195.99,-849.15"/>
<polygon fill="#9a32cd" stroke="#9a32cd" points="145.57,-1048.07 150.58,-1057.4 152.48,-1046.98 145.57,-1048.07"/>
<text text-anchor="middle" x="187.18" y="-976" font-family="Helvetica,sans-Serif" font-size="10.00"> from_contact</text>
</g>
<!-- Node4&#45;&gt;Node2 -->
<g id="edge3" class="edge">
<title>Node4&#45;&gt;Node2</title>
<path fill="none" stroke="#9a32cd" stroke-dasharray="5,2" d="M576.18,-135.22C576.18,-119.7 576.18,-98.36 576.18,-86.62"/>
<polygon fill="#9a32cd" stroke="#9a32cd" points="572.68,-135.28 576.18,-145.28 579.68,-135.28 572.68,-135.28"/>
<text text-anchor="middle" x="615.18" y="-119" font-family="Helvetica,sans-Serif" font-size="10.00"> domain_coarse</text>
<text text-anchor="middle" x="615.18" y="-108" font-family="Helvetica,sans-Serif" font-size="10.00">domain_fine</text>
</g>
<!-- Node4&#45;&gt;Node4 -->
<g id="edge13" class="edge">
<title>Node4&#45;&gt;Node4</title>
<path fill="none" stroke="#9a32cd" stroke-dasharray="5,2" d="M618.83,-161.02C623.6,-159.88 626.68,-157.88 626.68,-155 626.68,-150.4 618.78,-148.03 608.72,-147.88"/>
<polygon fill="#9a32cd" stroke="#9a32cd" points="618.28,-157.55 608.72,-162.12 619.04,-164.51 618.28,-157.55"/>
<text text-anchor="middle" x="654.18" y="-152.5" font-family="Helvetica,sans-Serif" font-size="10.00"> io_domain</text>
</g>
<!-- Node5&#45;&gt;Node4 -->
<g id="edge5" class="edge">
<title>Node5&#45;&gt;Node4</title>
<path fill="none" stroke="#9a32cd" stroke-dasharray="5,2" d="M564.07,-608C555.94,-557.03 535.55,-410.29 548.18,-289 553.14,-241.36 567.84,-185.64 573.72,-164.62"/>
<polygon fill="#9a32cd" stroke="#9a32cd" points="560.61,-608.57 565.68,-617.87 567.52,-607.44 560.61,-608.57"/>
<text text-anchor="middle" x="553.18" y="-352.5" font-family="Helvetica,sans-Serif" font-size="10.00"> x</text>
<text text-anchor="middle" x="553.18" y="-341.5" font-family="Helvetica,sans-Serif" font-size="10.00">y</text>
</g>
<!-- Node5&#45;&gt;Node5 -->
<g id="edge7" class="edge">
<title>Node5&#45;&gt;Node5</title>
<path fill="none" stroke="#9a32cd" stroke-dasharray="5,2" d="M583.38,-643.1C599.65,-652.09 617.68,-646.89 617.68,-627.5 617.68,-604.73 592.82,-601.52 575.14,-617.89"/>
<polygon fill="#9a32cd" stroke="#9a32cd" points="585.29,-640.16 575.14,-637.11 581.17,-645.82 585.29,-640.16"/>
<text text-anchor="middle" x="627.18" y="-625" font-family="Helvetica,sans-Serif" font-size="10.00"> list</text>
</g>
<!-- Node6&#45;&gt;Node5 -->
<g id="edge8" class="edge">
<title>Node6&#45;&gt;Node5</title>
<path fill="none" stroke="#9a32cd" stroke-dasharray="5,2" d="M589.02,-819.62C584.02,-775.84 571.78,-668.71 568.19,-637.29"/>
<polygon fill="#9a32cd" stroke="#9a32cd" points="585.57,-820.21 590.18,-829.74 592.52,-819.41 585.57,-820.21"/>
<text text-anchor="middle" x="605.18" y="-747.5" font-family="Helvetica,sans-Serif" font-size="10.00"> compute</text>
<text text-anchor="middle" x="605.18" y="-736.5" font-family="Helvetica,sans-Serif" font-size="10.00">data</text>
<text text-anchor="middle" x="605.18" y="-725.5" font-family="Helvetica,sans-Serif" font-size="10.00">global</text>
<text text-anchor="middle" x="605.18" y="-714.5" font-family="Helvetica,sans-Serif" font-size="10.00">memory</text>
</g>
<!-- Node12 -->
<g id="node12" class="node">
<title>Node12</title>
<g id="a_node12"><a xlink:href="group__mpp__domains__mod.html#structmpp__domains__mod_1_1domain1d__spec" target="_top" xlink:title="A private type used to specify index limits for a domain decomposition.">
<polygon fill="white" stroke="black" points="665.68,-618 665.68,-637 758.68,-637 758.68,-618 665.68,-618"/>
<text text-anchor="middle" x="712.18" y="-625" font-family="Helvetica,sans-Serif" font-size="10.00">domain1d_spec</text>
</a>
</g>
</g>
<!-- Node6&#45;&gt;Node12 -->
<g id="edge22" class="edge">
<title>Node6&#45;&gt;Node12</title>
<path fill="none" stroke="#9a32cd" stroke-dasharray="5,2" d="M601.27,-821C625.97,-778.13 688.82,-669.04 707.11,-637.29"/>
<polygon fill="#9a32cd" stroke="#9a32cd" points="598.19,-819.33 596.23,-829.74 604.25,-822.83 598.19,-819.33"/>
<text text-anchor="middle" x="689.18" y="-736.5" font-family="Helvetica,sans-Serif" font-size="10.00"> compute</text>
<text text-anchor="middle" x="689.18" y="-725.5" font-family="Helvetica,sans-Serif" font-size="10.00">global</text>
</g>
<!-- Node7 -->
<g id="node7" class="node">
<title>Node7</title>
<g id="a_node7"><a xlink:title=" ">
<polygon fill="white" stroke="#bfbfbf" points="634.68,-1057.5 634.68,-1076.5 685.68,-1076.5 685.68,-1057.5 634.68,-1057.5"/>
<text text-anchor="middle" x="660.18" y="-1064.5" font-family="Helvetica,sans-Serif" font-size="10.00">integer</text>
</a>
</g>
</g>
<!-- Node7&#45;&gt;Node1 -->
<g id="edge36" class="edge">
<title>Node7&#45;&gt;Node1</title>
<path fill="none" stroke="#9a32cd" stroke-dasharray="5,2" d="M695.83,-1065.47C755.12,-1064.02 870.99,-1058.69 906.18,-1039 1003.62,-984.48 1060.18,-952.16 1060.18,-840.5 1060.18,-840.5 1060.18,-840.5 1060.18,-76 1060.18,-49.42 987.42,-29.92 936.55,-19.53"/>
<polygon fill="#9a32cd" stroke="#9a32cd" points="695.71,-1061.97 685.79,-1065.69 695.86,-1068.97 695.71,-1061.97"/>
<text text-anchor="middle" x="1092.18" y="-402" font-family="Helvetica,sans-Serif" font-size="10.00"> iend_coarse</text>
<text text-anchor="middle" x="1092.18" y="-391" font-family="Helvetica,sans-Serif" font-size="10.00">iend_fine</text>
<text text-anchor="middle" x="1092.18" y="-380" font-family="Helvetica,sans-Serif" font-size="10.00">istart_coarse</text>
<text text-anchor="middle" x="1092.18" y="-369" font-family="Helvetica,sans-Serif" font-size="10.00">istart_fine</text>
<text text-anchor="middle" x="1092.18" y="-358" font-family="Helvetica,sans-Serif" font-size="10.00">jend_coarse</text>
<text text-anchor="middle" x="1092.18" y="-347" font-family="Helvetica,sans-Serif" font-size="10.00">jend_fine</text>
<text text-anchor="middle" x="1092.18" y="-336" font-family="Helvetica,sans-Serif" font-size="10.00">jstart_coarse</text>
<text text-anchor="middle" x="1092.18" y="-325" font-family="Helvetica,sans-Serif" font-size="10.00">jstart_fine</text>
<text text-anchor="middle" x="1092.18" y="-314" font-family="Helvetica,sans-Serif" font-size="10.00">nest_level</text>
<text text-anchor="middle" x="1092.18" y="-303" font-family="Helvetica,sans-Serif" font-size="10.00">num_level</text>
<text text-anchor="middle" x="1092.18" y="-292" font-family="Helvetica,sans-Serif" font-size="10.00">...</text>
</g>
<!-- Node7&#45;&gt;Node2 -->
<g id="edge35" class="edge">
<title>Node7&#45;&gt;Node2</title>
<path fill="none" stroke="#9a32cd" stroke-dasharray="5,2" d="M696.13,-1063.14C737.47,-1059.31 802.31,-1051.53 823.18,-1039 918.45,-981.8 975.18,-951.62 975.18,-840.5 975.18,-840.5 975.18,-840.5 975.18,-154 975.18,-122.24 952.22,-117.85 923.18,-105 870.76,-81.8 705.41,-78.16 623.34,-77.83"/>
<polygon fill="#9a32cd" stroke="#9a32cd" points="695.57,-1059.67 685.91,-1064.05 696.19,-1066.65 695.57,-1059.67"/>
<text text-anchor="middle" x="1010.18" y="-541" font-family="Helvetica,sans-Serif" font-size="10.00"> iend_coarse</text>
<text text-anchor="middle" x="1010.18" y="-530" font-family="Helvetica,sans-Serif" font-size="10.00">iend_fine</text>
<text text-anchor="middle" x="1010.18" y="-519" font-family="Helvetica,sans-Serif" font-size="10.00">istart_coarse</text>
<text text-anchor="middle" x="1010.18" y="-508" font-family="Helvetica,sans-Serif" font-size="10.00">istart_fine</text>
<text text-anchor="middle" x="1010.18" y="-497" font-family="Helvetica,sans-Serif" font-size="10.00">jend_coarse</text>
<text text-anchor="middle" x="1010.18" y="-486" font-family="Helvetica,sans-Serif" font-size="10.00">jend_fine</text>
<text text-anchor="middle" x="1010.18" y="-475" font-family="Helvetica,sans-Serif" font-size="10.00">jstart_coarse</text>
<text text-anchor="middle" x="1010.18" y="-464" font-family="Helvetica,sans-Serif" font-size="10.00">jstart_fine</text>
<text text-anchor="middle" x="1010.18" y="-453" font-family="Helvetica,sans-Serif" font-size="10.00">my_nest_id</text>
<text text-anchor="middle" x="1010.18" y="-442" font-family="Helvetica,sans-Serif" font-size="10.00">my_num_nest</text>
<text text-anchor="middle" x="1010.18" y="-431" font-family="Helvetica,sans-Serif" font-size="10.00">...</text>
</g>
<!-- Node7&#45;&gt;Node4 -->
<g id="edge27" class="edge">
<title>Node7&#45;&gt;Node4</title>
<path fill="none" stroke="#9a32cd" stroke-dasharray="5,2" d="M696.04,-1066.37C720.34,-1064.68 751.49,-1058.4 771.18,-1039 879.04,-932.73 854.35,-857.01 843.18,-706 836.27,-612.57 816.35,-375.83 781.18,-289 759.42,-235.27 753.75,-214.65 705.18,-183 676.23,-164.14 636.55,-158.13 608.87,-156.38"/>
<polygon fill="#9a32cd" stroke="#9a32cd" points="695.59,-1062.89 685.77,-1066.85 695.92,-1069.88 695.59,-1062.89"/>
<text text-anchor="middle" x="875.68" y="-680" font-family="Helvetica,sans-Serif" font-size="10.00"> ehalo</text>
<text text-anchor="middle" x="875.68" y="-669" font-family="Helvetica,sans-Serif" font-size="10.00">fold</text>
<text text-anchor="middle" x="875.68" y="-658" font-family="Helvetica,sans-Serif" font-size="10.00">io_layout</text>
<text text-anchor="middle" x="875.68" y="-647" font-family="Helvetica,sans-Serif" font-size="10.00">max_ntile_pe</text>
<text text-anchor="middle" x="875.68" y="-636" font-family="Helvetica,sans-Serif" font-size="10.00">ncontacts</text>
<text text-anchor="middle" x="875.68" y="-625" font-family="Helvetica,sans-Serif" font-size="10.00">nhalo</text>
<text text-anchor="middle" x="875.68" y="-614" font-family="Helvetica,sans-Serif" font-size="10.00">ntiles</text>
<text text-anchor="middle" x="875.68" y="-603" font-family="Helvetica,sans-Serif" font-size="10.00">pe</text>
<text text-anchor="middle" x="875.68" y="-592" font-family="Helvetica,sans-Serif" font-size="10.00">pearray</text>
<text text-anchor="middle" x="875.68" y="-581" font-family="Helvetica,sans-Serif" font-size="10.00">pos</text>
<text text-anchor="middle" x="875.68" y="-570" font-family="Helvetica,sans-Serif" font-size="10.00">...</text>
</g>
<!-- Node7&#45;&gt;Node5 -->
<g id="edge11" class="edge">
<title>Node7&#45;&gt;Node5</title>
<path fill="none" stroke="#9a32cd" stroke-dasharray="5,2" d="M673.03,-1048.67C674.74,-1045.58 676.23,-1042.3 677.18,-1039 692.09,-987.33 681.77,-971.58 677.18,-918 668.96,-822.03 677.43,-791.03 632.18,-706 617.17,-677.79 590.65,-650.52 576.57,-637.11"/>
<polygon fill="#9a32cd" stroke="#9a32cd" points="670.05,-1046.83 667.56,-1057.13 675.93,-1050.63 670.05,-1046.83"/>
<text text-anchor="middle" x="694.68" y="-853.5" font-family="Helvetica,sans-Serif" font-size="10.00"> goffset</text>
<text text-anchor="middle" x="694.68" y="-842.5" font-family="Helvetica,sans-Serif" font-size="10.00">loffset</text>
<text text-anchor="middle" x="694.68" y="-831.5" font-family="Helvetica,sans-Serif" font-size="10.00">pe</text>
<text text-anchor="middle" x="694.68" y="-820.5" font-family="Helvetica,sans-Serif" font-size="10.00">pos</text>
</g>
<!-- Node7&#45;&gt;Node6 -->
<g id="edge10" class="edge">
<title>Node7&#45;&gt;Node6</title>
<path fill="none" stroke="#9a32cd" stroke-dasharray="5,2" d="M639.69,-1050.91C636.04,-1047.37 632.63,-1043.35 630.18,-1039 603.32,-991.3 617.83,-971.7 607.18,-918 602.21,-892.93 596.02,-863.38 593,-849.09"/>
<polygon fill="#9a32cd" stroke="#9a32cd" points="637.41,-1053.56 647.27,-1057.44 641.98,-1048.26 637.41,-1053.56"/>
<text text-anchor="middle" x="653.68" y="-992.5" font-family="Helvetica,sans-Serif" font-size="10.00"> begin</text>
<text text-anchor="middle" x="653.68" y="-981.5" font-family="Helvetica,sans-Serif" font-size="10.00">end</text>
<text text-anchor="middle" x="653.68" y="-970.5" font-family="Helvetica,sans-Serif" font-size="10.00">max_size</text>
<text text-anchor="middle" x="653.68" y="-959.5" font-family="Helvetica,sans-Serif" font-size="10.00">size</text>
</g>
<!-- Node9 -->
<g id="node9" class="node">
<title>Node9</title>
<g id="a_node9"><a xlink:href="group__mpp__domains__mod.html#structmpp__domains__mod_1_1overlapspec" target="_top" xlink:title="Private type for overlap specifications.">
<polygon fill="white" stroke="black" points="333.18,-618 333.18,-637 409.18,-637 409.18,-618 333.18,-618"/>
<text text-anchor="middle" x="371.18" y="-625" font-family="Helvetica,sans-Serif" font-size="10.00">overlapspec</text>
</a>
</g>
</g>
<!-- Node7&#45;&gt;Node9 -->
<g id="edge19" class="edge">
<title>Node7&#45;&gt;Node9</title>
<path fill="none" stroke="#9a32cd" stroke-dasharray="5,2" d="M624.31,-1063.78C579.81,-1060.47 507.03,-1053.07 484.18,-1039 419.6,-999.22 410.13,-971.62 385.18,-900 351.02,-801.94 365.23,-671.91 369.91,-637.28"/>
<polygon fill="#9a32cd" stroke="#9a32cd" points="624.2,-1067.28 634.42,-1064.5 624.69,-1060.3 624.2,-1067.28"/>
<text text-anchor="middle" x="406.68" y="-892" font-family="Helvetica,sans-Serif" font-size="10.00"> ehalo</text>
<text text-anchor="middle" x="406.68" y="-881" font-family="Helvetica,sans-Serif" font-size="10.00">nhalo</text>
<text text-anchor="middle" x="406.68" y="-870" font-family="Helvetica,sans-Serif" font-size="10.00">nrecv</text>
<text text-anchor="middle" x="406.68" y="-859" font-family="Helvetica,sans-Serif" font-size="10.00">nsend</text>
<text text-anchor="middle" x="406.68" y="-848" font-family="Helvetica,sans-Serif" font-size="10.00">recvsize</text>
<text text-anchor="middle" x="406.68" y="-837" font-family="Helvetica,sans-Serif" font-size="10.00">sendsize</text>
<text text-anchor="middle" x="406.68" y="-826" font-family="Helvetica,sans-Serif" font-size="10.00">shalo</text>
<text text-anchor="middle" x="406.68" y="-815" font-family="Helvetica,sans-Serif" font-size="10.00">whalo</text>
<text text-anchor="middle" x="406.68" y="-804" font-family="Helvetica,sans-Serif" font-size="10.00">xbegin</text>
<text text-anchor="middle" x="406.68" y="-793" font-family="Helvetica,sans-Serif" font-size="10.00">xend</text>
<text text-anchor="middle" x="406.68" y="-782" font-family="Helvetica,sans-Serif" font-size="10.00">...</text>
</g>
<!-- Node7&#45;&gt;Node10 -->
<g id="edge17" class="edge">
<title>Node7&#45;&gt;Node10</title>
<path fill="none" stroke="#9a32cd" stroke-dasharray="5,2" d="M624.37,-1066.14C528.67,-1066.16 272.34,-1063.89 244.18,-1039 203.17,-1002.75 232.16,-971.63 221.18,-918 216.04,-892.9 209.4,-863.36 206.15,-849.08"/>
<polygon fill="#9a32cd" stroke="#9a32cd" points="624.44,-1069.64 634.43,-1066.13 624.43,-1062.64 624.44,-1069.64"/>
<text text-anchor="middle" x="264.68" y="-1031" font-family="Helvetica,sans-Serif" font-size="10.00"> count</text>
<text text-anchor="middle" x="264.68" y="-1020" font-family="Helvetica,sans-Serif" font-size="10.00">dir</text>
<text text-anchor="middle" x="264.68" y="-1009" font-family="Helvetica,sans-Serif" font-size="10.00">ie</text>
<text text-anchor="middle" x="264.68" y="-998" font-family="Helvetica,sans-Serif" font-size="10.00">index</text>
<text text-anchor="middle" x="264.68" y="-987" font-family="Helvetica,sans-Serif" font-size="10.00">is</text>
<text text-anchor="middle" x="264.68" y="-976" font-family="Helvetica,sans-Serif" font-size="10.00">je</text>
<text text-anchor="middle" x="264.68" y="-965" font-family="Helvetica,sans-Serif" font-size="10.00">js</text>
<text text-anchor="middle" x="264.68" y="-954" font-family="Helvetica,sans-Serif" font-size="10.00">msgsize</text>
<text text-anchor="middle" x="264.68" y="-943" font-family="Helvetica,sans-Serif" font-size="10.00">pe</text>
<text text-anchor="middle" x="264.68" y="-932" font-family="Helvetica,sans-Serif" font-size="10.00">rotation</text>
<text text-anchor="middle" x="264.68" y="-921" font-family="Helvetica,sans-Serif" font-size="10.00">...</text>
</g>
<!-- Node11 -->
<g id="node11" class="node">
<title>Node11</title>
<g id="a_node11"><a xlink:href="group__mpp__domains__mod.html#structmpp__domains__mod_1_1domain2d__spec" target="_top" xlink:title="Private type to specify multiple index limits and pe information for a 2D domain.">
<polygon fill="white" stroke="black" points="679.68,-340 679.68,-359 772.68,-359 772.68,-340 679.68,-340"/>
<text text-anchor="middle" x="726.18" y="-347" font-family="Helvetica,sans-Serif" font-size="10.00">domain2d_spec</text>
</a>
</g>
</g>
<!-- Node7&#45;&gt;Node11 -->
<g id="edge24" class="edge">
<title>Node7&#45;&gt;Node11</title>
<path fill="none" stroke="#9a32cd" stroke-dasharray="5,2" d="M695.72,-1061.54C710.6,-1057.86 726.8,-1051.18 737.18,-1039 805.35,-959.01 777,-671.64 767.18,-567 759.5,-485.11 735.8,-388.06 728.41,-359.08"/>
<polygon fill="#9a32cd" stroke="#9a32cd" points="694.8,-1058.15 685.73,-1063.63 696.23,-1065.01 694.8,-1058.15"/>
<text text-anchor="middle" x="810.18" y="-747.5" font-family="Helvetica,sans-Serif" font-size="10.00"> pe</text>
<text text-anchor="middle" x="810.18" y="-736.5" font-family="Helvetica,sans-Serif" font-size="10.00">pos</text>
<text text-anchor="middle" x="810.18" y="-725.5" font-family="Helvetica,sans-Serif" font-size="10.00">tile_id</text>
<text text-anchor="middle" x="810.18" y="-714.5" font-family="Helvetica,sans-Serif" font-size="10.00">tile_root_pe</text>
</g>
<!-- Node7&#45;&gt;Node12 -->
<g id="edge23" class="edge">
<title>Node7&#45;&gt;Node12</title>
<path fill="none" stroke="#9a32cd" stroke-dasharray="5,2" d="M691.9,-1052.09C697.06,-1048.52 701.81,-1044.19 705.18,-1039 768.26,-941.88 726.02,-894.74 722.18,-779 720.39,-725.09 715.01,-660.49 712.97,-637.31"/>
<polygon fill="#9a32cd" stroke="#9a32cd" points="689.81,-1049.27 683.01,-1057.4 693.39,-1055.28 689.81,-1049.27"/>
<text text-anchor="middle" x="747.68" y="-837" font-family="Helvetica,sans-Serif" font-size="10.00"> pos</text>
</g>
<!-- Node13 -->
<g id="node13" class="node">
<title>Node13</title>
<g id="a_node13"><a xlink:href="group__mpp__domains__mod.html#structmpp__domains__mod_1_1tile__type" target="_top" xlink:title="Upper and lower x and y bounds for a tile.">
<polygon fill="white" stroke="black" points="472.68,-724 472.68,-743 531.68,-743 531.68,-724 472.68,-724"/>
<text text-anchor="middle" x="502.18" y="-731" font-family="Helvetica,sans-Serif" font-size="10.00">tile_type</text>
</a>
</g>
</g>
<!-- Node7&#45;&gt;Node13 -->
<g id="edge26" class="edge">
<title>Node7&#45;&gt;Node13</title>
<path fill="none" stroke="#9a32cd" stroke-dasharray="5,2" d="M624.55,-1065.32C581.36,-1063.65 512.31,-1058 496.18,-1039 476.59,-1015.92 496.85,-790.48 501.34,-743.18"/>
<polygon fill="#9a32cd" stroke="#9a32cd" points="624.56,-1068.82 634.67,-1065.66 624.79,-1061.83 624.56,-1068.82"/>
<text text-anchor="middle" x="514.68" y="-992.5" font-family="Helvetica,sans-Serif" font-size="10.00"> xbegin</text>
<text text-anchor="middle" x="514.68" y="-981.5" font-family="Helvetica,sans-Serif" font-size="10.00">xend</text>
<text text-anchor="middle" x="514.68" y="-970.5" font-family="Helvetica,sans-Serif" font-size="10.00">ybegin</text>
<text text-anchor="middle" x="514.68" y="-959.5" font-family="Helvetica,sans-Serif" font-size="10.00">yend</text>
</g>
<!-- Node15 -->
<g id="node15" class="node">
<title>Node15</title>
<g id="a_node15"><a xlink:href="group__mpp__domains__mod.html#structmpp__domains__mod_1_1nestspec" target="_top" xlink:title="Used to specify bounds and index information for nested tiles as a linked list.">
<polygon fill="white" stroke="black" points="155.18,-618 155.18,-637 215.18,-637 215.18,-618 155.18,-618"/>
<text text-anchor="middle" x="185.18" y="-625" font-family="Helvetica,sans-Serif" font-size="10.00">nestspec</text>
</a>
</g>
</g>
<!-- Node7&#45;&gt;Node15 -->
<g id="edge34" class="edge">
<title>Node7&#45;&gt;Node15</title>
<path fill="none" stroke="#9a32cd" stroke-dasharray="5,2" d="M624.23,-1066.36C559.5,-1066.38 426.51,-1063.34 388.18,-1039 249.24,-950.78 295.79,-855.14 226.18,-706 214.34,-680.62 198.34,-651.69 190.28,-637.42"/>
<polygon fill="#9a32cd" stroke="#9a32cd" points="624.39,-1069.86 634.38,-1066.33 624.37,-1062.86 624.39,-1069.86"/>
<text text-anchor="middle" x="309.68" y="-892" font-family="Helvetica,sans-Serif" font-size="10.00"> extra_halo</text>
<text text-anchor="middle" x="309.68" y="-881" font-family="Helvetica,sans-Serif" font-size="10.00">nrecv</text>
<text text-anchor="middle" x="309.68" y="-870" font-family="Helvetica,sans-Serif" font-size="10.00">nsend</text>
<text text-anchor="middle" x="309.68" y="-859" font-family="Helvetica,sans-Serif" font-size="10.00">xbegin</text>
<text text-anchor="middle" x="309.68" y="-848" font-family="Helvetica,sans-Serif" font-size="10.00">xbegin_c</text>
<text text-anchor="middle" x="309.68" y="-837" font-family="Helvetica,sans-Serif" font-size="10.00">xbegin_f</text>
<text text-anchor="middle" x="309.68" y="-826" font-family="Helvetica,sans-Serif" font-size="10.00">xend</text>
<text text-anchor="middle" x="309.68" y="-815" font-family="Helvetica,sans-Serif" font-size="10.00">xend_c</text>
<text text-anchor="middle" x="309.68" y="-804" font-family="Helvetica,sans-Serif" font-size="10.00">xend_f</text>
<text text-anchor="middle" x="309.68" y="-793" font-family="Helvetica,sans-Serif" font-size="10.00">xsize_c</text>
<text text-anchor="middle" x="309.68" y="-782" font-family="Helvetica,sans-Serif" font-size="10.00">...</text>
</g>
<!-- Node16 -->
<g id="node16" class="node">
<title>Node16</title>
<g id="a_node16"><a xlink:href="group__mpp__domains__mod.html#structmpp__domains__mod_1_1index__type" target="_top" xlink:title="index bounds for use in nestSpec">
<polygon fill="white" stroke="black" points="74.68,-830 74.68,-849 145.68,-849 145.68,-830 74.68,-830"/>
<text text-anchor="middle" x="110.18" y="-837" font-family="Helvetica,sans-Serif" font-size="10.00">index_type</text>
</a>
</g>
</g>
<!-- Node7&#45;&gt;Node16 -->
<g id="edge32" class="edge">
<title>Node7&#45;&gt;Node16</title>
<path fill="none" stroke="#9a32cd" stroke-dasharray="5,2" d="M624.37,-1065.59C504.69,-1064.07 125.04,-1057.75 107.18,-1039 55.6,-984.84 93.62,-879.87 106.4,-849.15"/>
<polygon fill="#9a32cd" stroke="#9a32cd" points="624.44,-1069.1 634.48,-1065.72 624.53,-1062.1 624.44,-1069.1"/>
<text text-anchor="middle" x="124.18" y="-1014.5" font-family="Helvetica,sans-Serif" font-size="10.00"> ie_me</text>
<text text-anchor="middle" x="124.18" y="-1003.5" font-family="Helvetica,sans-Serif" font-size="10.00">ie_you</text>
<text text-anchor="middle" x="124.18" y="-992.5" font-family="Helvetica,sans-Serif" font-size="10.00">is_me</text>
<text text-anchor="middle" x="124.18" y="-981.5" font-family="Helvetica,sans-Serif" font-size="10.00">is_you</text>
<text text-anchor="middle" x="124.18" y="-970.5" font-family="Helvetica,sans-Serif" font-size="10.00">je_me</text>
<text text-anchor="middle" x="124.18" y="-959.5" font-family="Helvetica,sans-Serif" font-size="10.00">je_you</text>
<text text-anchor="middle" x="124.18" y="-948.5" font-family="Helvetica,sans-Serif" font-size="10.00">js_me</text>
<text text-anchor="middle" x="124.18" y="-937.5" font-family="Helvetica,sans-Serif" font-size="10.00">js_you</text>
</g>
<!-- Node8 -->
<g id="node8" class="node">
<title>Node8</title>
<g id="a_node8"><a xlink:title=" ">
<polygon fill="white" stroke="#bfbfbf" points="567.18,-340 567.18,-359 661.18,-359 661.18,-340 567.18,-340"/>
<text text-anchor="middle" x="614.18" y="-347" font-family="Helvetica,sans-Serif" font-size="10.00">integer(i8_kind)</text>
</a>
</g>
</g>
<!-- Node8&#45;&gt;Node4 -->
<g id="edge12" class="edge">
<title>Node8&#45;&gt;Node4</title>
<path fill="none" stroke="#9a32cd" stroke-dasharray="5,2" d="M610.56,-330.14C602.58,-289.74 583.76,-194.37 577.93,-164.86"/>
<polygon fill="#9a32cd" stroke="#9a32cd" points="607.13,-330.85 612.5,-339.98 614,-329.49 607.13,-330.85"/>
<text text-anchor="middle" x="605.68" y="-224.5" font-family="Helvetica,sans-Serif" font-size="10.00"> id</text>
</g>
<!-- Node9&#45;&gt;Node4 -->
<g id="edge14" class="edge">
<title>Node9&#45;&gt;Node4</title>
<path fill="none" stroke="#9a32cd" stroke-dasharray="5,2" d="M368.8,-607.44C361.27,-537.85 345.72,-295.71 476.18,-183 494.82,-166.89 522.15,-160.29 543.53,-157.64"/>
<polygon fill="#9a32cd" stroke="#9a32cd" points="365.36,-608.2 369.99,-617.72 372.31,-607.39 365.36,-608.2"/>
<text text-anchor="middle" x="424.18" y="-402" font-family="Helvetica,sans-Serif" font-size="10.00"> bound_c</text>
<text text-anchor="middle" x="424.18" y="-391" font-family="Helvetica,sans-Serif" font-size="10.00">bound_e</text>
<text text-anchor="middle" x="424.18" y="-380" font-family="Helvetica,sans-Serif" font-size="10.00">bound_n</text>
<text text-anchor="middle" x="424.18" y="-369" font-family="Helvetica,sans-Serif" font-size="10.00">check_c</text>
<text text-anchor="middle" x="424.18" y="-358" font-family="Helvetica,sans-Serif" font-size="10.00">check_e</text>
<text text-anchor="middle" x="424.18" y="-347" font-family="Helvetica,sans-Serif" font-size="10.00">check_n</text>
<text text-anchor="middle" x="424.18" y="-336" font-family="Helvetica,sans-Serif" font-size="10.00">update_c</text>
<text text-anchor="middle" x="424.18" y="-325" font-family="Helvetica,sans-Serif" font-size="10.00">update_e</text>
<text text-anchor="middle" x="424.18" y="-314" font-family="Helvetica,sans-Serif" font-size="10.00">update_n</text>
<text text-anchor="middle" x="424.18" y="-303" font-family="Helvetica,sans-Serif" font-size="10.00">update_t</text>
<text text-anchor="middle" x="424.18" y="-292" font-family="Helvetica,sans-Serif" font-size="10.00">...</text>
</g>
<!-- Node9&#45;&gt;Node9 -->
<g id="edge18" class="edge">
<title>Node9&#45;&gt;Node9</title>
<path fill="none" stroke="#9a32cd" stroke-dasharray="5,2" d="M388.65,-642.85C406.82,-652.19 427.18,-647.07 427.18,-627.5 427.18,-604.73 399.61,-601.52 380.01,-617.89"/>
<polygon fill="#9a32cd" stroke="#9a32cd" points="390.27,-639.73 380.01,-637.11 386.4,-645.56 390.27,-639.73"/>
<text text-anchor="middle" x="439.68" y="-625" font-family="Helvetica,sans-Serif" font-size="10.00"> next</text>
</g>
<!-- Node10&#45;&gt;Node9 -->
<g id="edge15" class="edge">
<title>Node10&#45;&gt;Node9</title>
<path fill="none" stroke="#9a32cd" stroke-dasharray="5,2" d="M217.46,-821.8C251.09,-779.51 338.78,-669.24 364.19,-637.29"/>
<polygon fill="#9a32cd" stroke="#9a32cd" points="214.63,-819.74 211.14,-829.74 220.11,-824.1 214.63,-819.74"/>
<text text-anchor="middle" x="320.68" y="-736.5" font-family="Helvetica,sans-Serif" font-size="10.00"> recv</text>
<text text-anchor="middle" x="320.68" y="-725.5" font-family="Helvetica,sans-Serif" font-size="10.00">send</text>
</g>
<!-- Node10&#45;&gt;Node15 -->
<g id="edge30" class="edge">
<title>Node10&#45;&gt;Node15</title>
<path fill="none" stroke="#9a32cd" stroke-dasharray="5,2" d="M202.47,-819.62C198.51,-775.84 188.82,-668.71 185.98,-637.29"/>
<polygon fill="#9a32cd" stroke="#9a32cd" points="199,-820.1 203.39,-829.74 205.97,-819.47 199,-820.1"/>
<text text-anchor="middle" x="209.68" y="-736.5" font-family="Helvetica,sans-Serif" font-size="10.00"> recv</text>
<text text-anchor="middle" x="209.68" y="-725.5" font-family="Helvetica,sans-Serif" font-size="10.00">send</text>
</g>
<!-- Node11&#45;&gt;Node4 -->
<g id="edge20" class="edge">
<title>Node11&#45;&gt;Node4</title>
<path fill="none" stroke="#9a32cd" stroke-dasharray="5,2" d="M717.33,-330.65C700.75,-298.43 662.46,-229.61 616.18,-183 609.1,-175.87 599.87,-169.49 592.06,-164.72"/>
<polygon fill="#9a32cd" stroke="#9a32cd" points="714.3,-332.4 721.93,-339.74 720.54,-329.24 714.3,-332.4"/>
<text text-anchor="middle" x="691.68" y="-224.5" font-family="Helvetica,sans-Serif" font-size="10.00"> list</text>
</g>
<!-- Node12&#45;&gt;Node11 -->
<g id="edge21" class="edge">
<title>Node12&#45;&gt;Node11</title>
<path fill="none" stroke="#9a32cd" stroke-dasharray="5,2" d="M713.13,-607.71C715.89,-553.43 723.78,-397.82 725.74,-359.24"/>
<polygon fill="#9a32cd" stroke="#9a32cd" points="709.63,-607.77 712.62,-617.94 716.62,-608.13 709.63,-607.77"/>
<text text-anchor="middle" x="727.18" y="-491.5" font-family="Helvetica,sans-Serif" font-size="10.00"> x</text>
<text text-anchor="middle" x="727.18" y="-480.5" font-family="Helvetica,sans-Serif" font-size="10.00">y</text>
</g>
<!-- Node13&#45;&gt;Node4 -->
<g id="edge25" class="edge">
<title>Node13&#45;&gt;Node4</title>
<path fill="none" stroke="#9a32cd" stroke-dasharray="5,2" d="M498.68,-713.73C486.01,-640.46 448.29,-368.64 547.18,-183 551.06,-175.71 557.68,-169.33 563.61,-164.6"/>
<polygon fill="#9a32cd" stroke="#9a32cd" points="495.27,-714.51 500.48,-723.74 502.16,-713.28 495.27,-714.51"/>
<text text-anchor="middle" x="501.18" y="-486" font-family="Helvetica,sans-Serif" font-size="10.00"> tilelist</text>
</g>
<!-- Node14 -->
<g id="node14" class="node">
<title>Node14</title>
<g id="a_node14"><a xlink:title=" ">
<polygon fill="white" stroke="#bfbfbf" points="829.68,-334.5 829.68,-364.5 946.68,-364.5 946.68,-334.5 829.68,-334.5"/>
<text text-anchor="start" x="837.68" y="-352.5" font-family="Helvetica,sans-Serif" font-size="10.00">character(len=name</text>
<text text-anchor="middle" x="888.18" y="-341.5" font-family="Helvetica,sans-Serif" font-size="10.00">_length)</text>
</a>
</g>
</g>
<!-- Node14&#45;&gt;Node1 -->
<g id="edge37" class="edge">
<title>Node14&#45;&gt;Node1</title>
<path fill="none" stroke="#9a32cd" stroke-dasharray="5,2" d="M888.18,-324.18C888.18,-255.63 888.18,-63.03 888.18,-19.72"/>
<polygon fill="#9a32cd" stroke="#9a32cd" points="884.68,-324.43 888.18,-334.43 891.68,-324.43 884.68,-324.43"/>
<text text-anchor="middle" x="903.68" y="-113.5" font-family="Helvetica,sans-Serif" font-size="10.00"> name</text>
</g>
<!-- Node14&#45;&gt;Node4 -->
<g id="edge28" class="edge">
<title>Node14&#45;&gt;Node4</title>
<path fill="none" stroke="#9a32cd" stroke-dasharray="5,2" d="M873.22,-325.79C863.74,-310.7 851.69,-290.2 843.18,-271 826.56,-233.47 846.9,-209.05 815.18,-183 784.45,-157.76 667.11,-155.13 609.08,-155.44"/>
<polygon fill="#9a32cd" stroke="#9a32cd" points="870.41,-327.89 878.75,-334.43 876.31,-324.12 870.41,-327.89"/>
<text text-anchor="middle" x="858.68" y="-224.5" font-family="Helvetica,sans-Serif" font-size="10.00"> name</text>
</g>
<!-- Node15&#45;&gt;Node2 -->
<g id="edge29" class="edge">
<title>Node15&#45;&gt;Node2</title>
<path fill="none" stroke="#9a32cd" stroke-dasharray="5,2" d="M188.78,-607.62C202.29,-541.41 255.59,-316.54 379.18,-183 426.7,-131.66 505.14,-100.52 547.28,-86.61"/>
<polygon fill="#9a32cd" stroke="#9a32cd" points="185.28,-607.29 186.78,-617.78 192.15,-608.65 185.28,-607.29"/>
<text text-anchor="middle" x="393.68" y="-263" font-family="Helvetica,sans-Serif" font-size="10.00"> c2f_c</text>
<text text-anchor="middle" x="393.68" y="-252" font-family="Helvetica,sans-Serif" font-size="10.00">c2f_e</text>
<text text-anchor="middle" x="393.68" y="-241" font-family="Helvetica,sans-Serif" font-size="10.00">c2f_n</text>
<text text-anchor="middle" x="393.68" y="-230" font-family="Helvetica,sans-Serif" font-size="10.00">c2f_t</text>
<text text-anchor="middle" x="393.68" y="-219" font-family="Helvetica,sans-Serif" font-size="10.00">f2c_c</text>
<text text-anchor="middle" x="393.68" y="-208" font-family="Helvetica,sans-Serif" font-size="10.00">f2c_e</text>
<text text-anchor="middle" x="393.68" y="-197" font-family="Helvetica,sans-Serif" font-size="10.00">f2c_n</text>
<text text-anchor="middle" x="393.68" y="-186" font-family="Helvetica,sans-Serif" font-size="10.00">f2c_t</text>
</g>
<!-- Node15&#45;&gt;Node15 -->
<g id="edge33" class="edge">
<title>Node15&#45;&gt;Node15</title>
<path fill="none" stroke="#9a32cd" stroke-dasharray="5,2" d="M201.01,-643.35C216.36,-652 233.18,-646.72 233.18,-627.5 233.18,-604.73 209.55,-601.52 192.75,-617.89"/>
<polygon fill="#9a32cd" stroke="#9a32cd" points="202.84,-640.34 192.75,-637.11 198.62,-645.93 202.84,-640.34"/>
<text text-anchor="middle" x="245.68" y="-625" font-family="Helvetica,sans-Serif" font-size="10.00"> next</text>
</g>
<!-- Node16&#45;&gt;Node15 -->
<g id="edge31" class="edge">
<title>Node16&#45;&gt;Node15</title>
<path fill="none" stroke="#9a32cd" stroke-dasharray="5,2" d="M116.11,-820.25C124.5,-794.62 140.45,-746.56 155.18,-706 164.34,-680.78 176.03,-651.29 181.73,-637.06"/>
<polygon fill="#9a32cd" stroke="#9a32cd" points="112.78,-819.18 113,-829.77 119.43,-821.35 112.78,-819.18"/>
<text text-anchor="middle" x="172.18" y="-753" font-family="Helvetica,sans-Serif" font-size="10.00"> center</text>
<text text-anchor="middle" x="172.18" y="-742" font-family="Helvetica,sans-Serif" font-size="10.00">east</text>
<text text-anchor="middle" x="172.18" y="-731" font-family="Helvetica,sans-Serif" font-size="10.00">north</text>
<text text-anchor="middle" x="172.18" y="-720" font-family="Helvetica,sans-Serif" font-size="10.00">south</text>
<text text-anchor="middle" x="172.18" y="-709" font-family="Helvetica,sans-Serif" font-size="10.00">west</text>
</g>
</g>
</svg>
