<?xml version="1.0" encoding="UTF-8" standalone="no"?>
<!DOCTYPE svg PUBLIC "-//W3C//DTD SVG 1.1//EN"
 "http://www.w3.org/Graphics/SVG/1.1/DTD/svg11.dtd">
<!-- Generated by graphviz version 2.43.0 (0)
 -->
<!-- Title: data_type Pages: 1 -->
<svg width="523pt" height="139pt"
 viewBox="0.00 0.00 522.50 139.00" xmlns="http://www.w3.org/2000/svg" xmlns:xlink="http://www.w3.org/1999/xlink">
<g id="graph0" class="graph" transform="scale(1 1) rotate(0) translate(4 135)">
<title>data_type</title>
<polygon fill="white" stroke="transparent" points="-4,4 -4,-135 518.5,-135 518.5,4 -4,4"/>
<!-- Node1 -->
<g id="node1" class="node">
<title>Node1</title>
<g id="a_node1"><a xlink:title="Private type for holding field and grid information from a data table.">
<polygon fill="#bfbfbf" stroke="black" points="269,-0.5 269,-19.5 334,-19.5 334,-0.5 269,-0.5"/>
<text text-anchor="middle" x="301.5" y="-7.5" font-family="Helvetica,sans-Serif" font-size="10.00">data_type</text>
</a>
</g>
</g>
<!-- Node2 -->
<g id="node2" class="node">
<title>Node2</title>
<g id="a_node2"><a xlink:title=" ">
<polygon fill="white" stroke="#bfbfbf" points="0,-111.5 0,-130.5 99,-130.5 99,-111.5 0,-111.5"/>
<text text-anchor="middle" x="49.5" y="-118.5" font-family="Helvetica,sans-Serif" font-size="10.00">character(len=3)</text>
</a>
</g>
</g>
<!-- Node2&#45;&gt;Node1 -->
<g id="edge1" class="edge">
<title>Node2&#45;&gt;Node1</title>
<path fill="none" stroke="#9a32cd" stroke-dasharray="5,2" d="M60.35,-102.87C73.5,-83.68 97.55,-53.26 126.5,-38 150.57,-25.32 225.01,-17.27 268.67,-13.5"/>
<polygon fill="#9a32cd" stroke="#9a32cd" points="57.39,-101 54.79,-111.28 63.23,-104.86 57.39,-101"/>
<text text-anchor="middle" x="151.5" y="-63" font-family="Helvetica,sans-Serif" font-size="10.00"> gridname</text>
</g>
<!-- Node3 -->
<g id="node3" class="node">
<title>Node3</title>
<g id="a_node3"><a xlink:title=" ">
<polygon fill="white" stroke="#bfbfbf" points="117,-111.5 117,-130.5 228,-130.5 228,-111.5 117,-111.5"/>
<text text-anchor="middle" x="172.5" y="-118.5" font-family="Helvetica,sans-Serif" font-size="10.00">character(len=128)</text>
</a>
</g>
</g>
<!-- Node3&#45;&gt;Node1 -->
<g id="edge2" class="edge">
<title>Node3&#45;&gt;Node1</title>
<path fill="none" stroke="#9a32cd" stroke-dasharray="5,2" d="M177.78,-101.77C184.07,-83.18 196.34,-54.74 216.5,-38 231.27,-25.74 251.68,-19.02 268.79,-15.35"/>
<polygon fill="#9a32cd" stroke="#9a32cd" points="174.4,-100.83 174.75,-111.42 181.08,-102.93 174.4,-100.83"/>
<text text-anchor="middle" x="257" y="-74" font-family="Helvetica,sans-Serif" font-size="10.00"> fieldname_code</text>
<text text-anchor="middle" x="257" y="-63" font-family="Helvetica,sans-Serif" font-size="10.00">fieldname_file</text>
<text text-anchor="middle" x="257" y="-52" font-family="Helvetica,sans-Serif" font-size="10.00">interpol_method</text>
</g>
<!-- Node4 -->
<g id="node4" class="node">
<title>Node4</title>
<g id="a_node4"><a xlink:title=" ">
<polygon fill="white" stroke="#bfbfbf" points="246,-111.5 246,-130.5 357,-130.5 357,-111.5 246,-111.5"/>
<text text-anchor="middle" x="301.5" y="-118.5" font-family="Helvetica,sans-Serif" font-size="10.00">character(len=512)</text>
</a>
</g>
</g>
<!-- Node4&#45;&gt;Node1 -->
<g id="edge3" class="edge">
<title>Node4&#45;&gt;Node1</title>
<path fill="none" stroke="#9a32cd" stroke-dasharray="5,2" d="M301.5,-101.19C301.5,-77.28 301.5,-36.99 301.5,-19.51"/>
<polygon fill="#9a32cd" stroke="#9a32cd" points="298,-101.45 301.5,-111.45 305,-101.45 298,-101.45"/>
<text text-anchor="middle" x="327.5" y="-63" font-family="Helvetica,sans-Serif" font-size="10.00"> file_name</text>
</g>
<!-- Node5 -->
<g id="node5" class="node">
<title>Node5</title>
<g id="a_node5"><a xlink:title=" ">
<polygon fill="white" stroke="#bfbfbf" points="375,-111.5 375,-130.5 426,-130.5 426,-111.5 375,-111.5"/>
<text text-anchor="middle" x="400.5" y="-118.5" font-family="Helvetica,sans-Serif" font-size="10.00">integer</text>
</a>
</g>
</g>
<!-- Node5&#45;&gt;Node1 -->
<g id="edge4" class="edge">
<title>Node5&#45;&gt;Node1</title>
<path fill="none" stroke="#9a32cd" stroke-dasharray="5,2" d="M392.7,-102.05C383.25,-80.94 367.38,-47.55 357.5,-38 349.12,-29.9 337.84,-23.83 327.61,-19.51"/>
<polygon fill="#9a32cd" stroke="#9a32cd" points="389.53,-103.53 396.76,-111.27 395.93,-100.71 389.53,-103.53"/>
<text text-anchor="middle" x="418" y="-63" font-family="Helvetica,sans-Serif" font-size="10.00"> region_type</text>
</g>
<!-- Node6 -->
<g id="node6" class="node">
<title>Node6</title>
<g id="a_node6"><a xlink:title=" ">
<polygon fill="white" stroke="#bfbfbf" points="455,-111.5 455,-130.5 490,-130.5 490,-111.5 455,-111.5"/>
<text text-anchor="middle" x="472.5" y="-118.5" font-family="Helvetica,sans-Serif" font-size="10.00">real</text>
</a>
</g>
</g>
<!-- Node6&#45;&gt;Node1 -->
<g id="edge5" class="edge">
<title>Node6&#45;&gt;Node1</title>
<path fill="none" stroke="#9a32cd" stroke-dasharray="5,2" d="M472.88,-101.29C472.18,-82.51 468.01,-54.11 450.5,-38 433.91,-22.73 372.68,-15.8 334.06,-12.89"/>
<polygon fill="#9a32cd" stroke="#9a32cd" points="469.38,-101.34 472.96,-111.31 476.38,-101.28 469.38,-101.34"/>
<text text-anchor="middle" x="493" y="-85" font-family="Helvetica,sans-Serif" font-size="10.00"> factor</text>
<text text-anchor="middle" x="493" y="-74" font-family="Helvetica,sans-Serif" font-size="10.00">lat_end</text>
<text text-anchor="middle" x="493" y="-63" font-family="Helvetica,sans-Serif" font-size="10.00">lat_start</text>
<text text-anchor="middle" x="493" y="-52" font-family="Helvetica,sans-Serif" font-size="10.00">lon_end</text>
<text text-anchor="middle" x="493" y="-41" font-family="Helvetica,sans-Serif" font-size="10.00">lon_start</text>
</g>
</g>
</svg>
