<?xml version="1.0" encoding="UTF-8" standalone="no"?>
<!DOCTYPE svg PUBLIC "-//W3C//DTD SVG 1.1//EN"
 "http://www.w3.org/Graphics/SVG/1.1/DTD/svg11.dtd">
<!-- Generated by graphviz version 2.43.0 (0)
 -->
<!-- Title: fm_list_iter_type Pages: 1 -->
<!--zoomable 263 -->
<svg id="main" version="1.1" xmlns="http://www.w3.org/2000/svg" xmlns:xlink="http://www.w3.org/1999/xlink" xml:space="preserve" onload="init(evt)">
<style type="text/css"><![CDATA[
.edge:hover path { stroke: red; }
.edge:hover polygon { stroke: red; fill: red; }
]]></style>
<script type="text/javascript"><![CDATA[
var edges = document.getElementsByTagName('g');
if (edges && edges.length) {
  for (var i=0;i<edges.length;i++) {
    if (edges[i].id.substr(0,4)=='edge') {
      edges[i].setAttribute('class','edge');
    }
  }
}
]]></script>
        <defs>
                <circle id="rim" cx="0" cy="0" r="7"/>
                <circle id="rim2" cx="0" cy="0" r="3.5"/>
                <g id="zoomPlus">
                        <use xlink:href="#rim" fill="#404040">
                                <set attributeName="fill" to="#808080" begin="zoomplus.mouseover" end="zoomplus.mouseout"/>
                        </use>
                        <path d="M-4,0h8M0,-4v8" fill="none" stroke="white" stroke-width="1.5" pointer-events="none"/>
                </g>
                <g id="zoomMin">
                        <use xlink:href="#rim" fill="#404040">
                                <set attributeName="fill" to="#808080" begin="zoomminus.mouseover" end="zoomminus.mouseout"/>
                        </use>
                        <path d="M-4,0h8" fill="none" stroke="white" stroke-width="1.5" pointer-events="none"/>
                </g>
                <g id="dirArrow">
                        <path fill="none" stroke="white" stroke-width="1.5" d="M0,-3.0v7 M-2.5,-0.5L0,-3.0L2.5,-0.5"/>
                </g>
               <g id="resetDef">
                       <use xlink:href="#rim2" fill="#404040">
                               <set attributeName="fill" to="#808080" begin="reset.mouseover" end="reset.mouseout"/>
                       </use>
               </g>
        </defs>

<script type="text/javascript">
var viewWidth = 532;
var viewHeight = 263;
var sectionId = 'dynsection-2';
</script>
<script xlink:href="svgpan.js"/>
<svg id="graph" class="graph">
<g id="viewport">
<title>fm_list_iter_type</title>
<polygon fill="white" stroke="transparent" points="-4,4 -4,-259 527.5,-259 527.5,4 -4,4"/>
<!-- Node1 -->
<g id="node1" class="node">
<title>Node1</title>
<g id="a_node1"><a xlink:title="Iterator over the field manager list.">
<polygon fill="#bfbfbf" stroke="black" points="245,-0.5 245,-19.5 344,-19.5 344,-0.5 245,-0.5"/>
<text text-anchor="middle" x="294.5" y="-7.5" font-family="Helvetica,sans-Serif" font-size="10.00">fm_list_iter_type</text>
</a>
</g>
</g>
<!-- Node2 -->
<g id="node2" class="node">
<title>Node2</title>
<g id="a_node2"><a xlink:href="group__field__manager__mod.html#structfield__manager__mod_1_1field__def" target="_top" xlink:title="Private type for internal use.">
<polygon fill="white" stroke="black" points="265,-85 265,-104 324,-104 324,-85 265,-85"/>
<text text-anchor="middle" x="294.5" y="-92" font-family="Helvetica,sans-Serif" font-size="10.00">field_def</text>
</a>
</g>
</g>
<!-- Node2&#45;&gt;Node1 -->
<g id="edge1" class="edge">
<title>Node2&#45;&gt;Node1</title>
<path fill="none" stroke="#9a32cd" stroke-dasharray="5,2" d="M294.5,-74.93C294.5,-57.63 294.5,-32.61 294.5,-19.6"/>
<polygon fill="#9a32cd" stroke="#9a32cd" points="291,-74.98 294.5,-84.98 298,-74.98 291,-74.98"/>
<text text-anchor="middle" x="303" y="-41" font-family="Helvetica,sans-Serif" font-size="10.00"> ptr</text>
</g>
<!-- Node2&#45;&gt;Node2 -->
<g id="edge4" class="edge">
<title>Node2&#45;&gt;Node2</title>
<path fill="none" stroke="#9a32cd" stroke-dasharray="5,2" d="M334.17,-102.56C338.91,-101.09 342,-98.41 342,-94.5 342,-88.25 334.08,-85.12 324.19,-85.12"/>
<polygon fill="#9a32cd" stroke="#9a32cd" points="333.64,-99.1 324.19,-103.88 334.56,-106.04 333.64,-99.1"/>
<text text-anchor="middle" x="365" y="-114" font-family="Helvetica,sans-Serif" font-size="10.00"> prev</text>
<text text-anchor="middle" x="365" y="-103" font-family="Helvetica,sans-Serif" font-size="10.00">last_field</text>
<text text-anchor="middle" x="365" y="-92" font-family="Helvetica,sans-Serif" font-size="10.00">next</text>
<text text-anchor="middle" x="365" y="-81" font-family="Helvetica,sans-Serif" font-size="10.00">first_field</text>
<text text-anchor="middle" x="365" y="-70" font-family="Helvetica,sans-Serif" font-size="10.00">parent</text>
</g>
<!-- Node3 -->
<g id="node3" class="node">
<title>Node3</title>
<g id="a_node3"><a xlink:title=" ">
<polygon fill="white" stroke="#bfbfbf" points="0,-230 0,-249 49,-249 49,-230 0,-230"/>
<text text-anchor="middle" x="24.5" y="-237" font-family="Helvetica,sans-Serif" font-size="10.00">logical</text>
</a>
</g>
</g>
<!-- Node3&#45;&gt;Node2 -->
<g id="edge2" class="edge">
<title>Node3&#45;&gt;Node2</title>
<path fill="none" stroke="#9a32cd" stroke-dasharray="5,2" d="M37.5,-221.83C55.56,-199.82 90.35,-161.34 128.5,-140 172.38,-115.45 230.41,-103.94 264.96,-98.94"/>
<polygon fill="#9a32cd" stroke="#9a32cd" points="34.55,-219.92 31.02,-229.91 40.01,-224.3 34.55,-219.92"/>
<text text-anchor="middle" x="148" y="-170.5" font-family="Helvetica,sans-Serif" font-size="10.00"> l_value</text>
</g>
<!-- Node4 -->
<g id="node4" class="node">
<title>Node4</title>
<g id="a_node4"><a xlink:title=" ">
<polygon fill="white" stroke="#bfbfbf" points="67,-224.5 67,-254.5 196,-254.5 196,-224.5 67,-224.5"/>
<text text-anchor="start" x="75" y="-242.5" font-family="Helvetica,sans-Serif" font-size="10.00">character(len=fm_field</text>
<text text-anchor="middle" x="131.5" y="-231.5" font-family="Helvetica,sans-Serif" font-size="10.00">_name_len)</text>
</a>
</g>
</g>
<!-- Node4&#45;&gt;Node2 -->
<g id="edge3" class="edge">
<title>Node4&#45;&gt;Node2</title>
<path fill="none" stroke="#9a32cd" stroke-dasharray="5,2" d="M155.39,-217.54C191.66,-185.72 259.1,-126.56 284.49,-104.28"/>
<polygon fill="#9a32cd" stroke="#9a32cd" points="152.93,-215.04 147.72,-224.27 157.55,-220.3 152.93,-215.04"/>
<text text-anchor="middle" x="257" y="-170.5" font-family="Helvetica,sans-Serif" font-size="10.00"> name</text>
</g>
<!-- Node5 -->
<g id="node5" class="node">
<title>Node5</title>
<g id="a_node5"><a xlink:title=" ">
<polygon fill="white" stroke="#bfbfbf" points="214.5,-230 214.5,-249 374.5,-249 374.5,-230 214.5,-230"/>
<text text-anchor="middle" x="294.5" y="-237" font-family="Helvetica,sans-Serif" font-size="10.00">character(len=fm_string_len)</text>
</a>
</g>
</g>
<!-- Node5&#45;&gt;Node2 -->
<g id="edge5" class="edge">
<title>Node5&#45;&gt;Node2</title>
<path fill="none" stroke="#9a32cd" stroke-dasharray="5,2" d="M294.5,-219.6C294.5,-188.27 294.5,-126.81 294.5,-104.15"/>
<polygon fill="#9a32cd" stroke="#9a32cd" points="291,-219.98 294.5,-229.98 298,-219.98 291,-219.98"/>
<text text-anchor="middle" x="315" y="-170.5" font-family="Helvetica,sans-Serif" font-size="10.00"> s_value</text>
</g>
<!-- Node6 -->
<g id="node6" class="node">
<title>Node6</title>
<g id="a_node6"><a xlink:title=" ">
<polygon fill="white" stroke="#bfbfbf" points="393,-230 393,-249 428,-249 428,-230 393,-230"/>
<text text-anchor="middle" x="410.5" y="-237" font-family="Helvetica,sans-Serif" font-size="10.00">real</text>
</a>
</g>
</g>
<!-- Node6&#45;&gt;Node2 -->
<g id="edge6" class="edge">
<title>Node6&#45;&gt;Node2</title>
<path fill="none" stroke="#9a32cd" stroke-dasharray="5,2" d="M399.55,-221.56C386.24,-201.41 362.69,-167.1 339.5,-140 328.21,-126.81 313.72,-112.95 304.27,-104.27"/>
<polygon fill="#9a32cd" stroke="#9a32cd" points="396.65,-223.52 405.05,-229.98 402.51,-219.69 396.65,-223.52"/>
<text text-anchor="middle" x="407.5" y="-170.5" font-family="Helvetica,sans-Serif" font-size="10.00"> r_value</text>
</g>
<!-- Node7 -->
<g id="node7" class="node">
<title>Node7</title>
<g id="a_node7"><a xlink:title=" ">
<polygon fill="white" stroke="#bfbfbf" points="447,-230 447,-249 498,-249 498,-230 447,-230"/>
<text text-anchor="middle" x="472.5" y="-237" font-family="Helvetica,sans-Serif" font-size="10.00">integer</text>
</a>
</g>
</g>
<!-- Node7&#45;&gt;Node2 -->
<g id="edge7" class="edge">
<title>Node7&#45;&gt;Node2</title>
<path fill="none" stroke="#9a32cd" stroke-dasharray="5,2" d="M469.52,-219.64C465.06,-197.55 454.57,-161.29 431.5,-140 401.63,-112.44 354.48,-101.94 324.02,-97.94"/>
<polygon fill="#9a32cd" stroke="#9a32cd" points="466.12,-220.52 471.34,-229.74 473.01,-219.28 466.12,-220.52"/>
<text text-anchor="middle" x="494.5" y="-198" font-family="Helvetica,sans-Serif" font-size="10.00"> max_index</text>
<text text-anchor="middle" x="494.5" y="-187" font-family="Helvetica,sans-Serif" font-size="10.00">array_dim</text>
<text text-anchor="middle" x="494.5" y="-176" font-family="Helvetica,sans-Serif" font-size="10.00">i_value</text>
<text text-anchor="middle" x="494.5" y="-165" font-family="Helvetica,sans-Serif" font-size="10.00">length</text>
<text text-anchor="middle" x="494.5" y="-154" font-family="Helvetica,sans-Serif" font-size="10.00">field_type</text>
<text text-anchor="middle" x="494.5" y="-143" font-family="Helvetica,sans-Serif" font-size="10.00">index</text>
</g>
</g>
</svg>
        <g id="navigator" transform="translate(0 0)" fill="#404254">
                <rect fill="#f2f5e9" fill-opacity="0.5" stroke="#606060" stroke-width=".5" x="0" y="0" width="60" height="60"/>
                <use id="zoomplus" xlink:href="#zoomPlus" x="17" y="9" onmousedown="handleZoom(evt,'in')"/>
                <use id="zoomminus" xlink:href="#zoomMin" x="42" y="9" onmousedown="handleZoom(evt,'out')"/>
                <use id="reset" xlink:href="#resetDef" x="30" y="36" onmousedown="handleReset()"/>
                <g id="arrowUp" xlink:href="#dirArrow" transform="translate(30 24)" onmousedown="handlePan(0,-1)">
                  <use xlink:href="#rim" fill="#404040">
                        <set attributeName="fill" to="#808080" begin="arrowUp.mouseover" end="arrowUp.mouseout"/>
                  </use>
                  <path fill="none" stroke="white" stroke-width="1.5" d="M0,-3.0v7 M-2.5,-0.5L0,-3.0L2.5,-0.5"/>
                </g>
                <g id="arrowRight" xlink:href="#dirArrow" transform="rotate(90) translate(36 -43)" onmousedown="handlePan(1,0)">
                  <use xlink:href="#rim" fill="#404040">
                        <set attributeName="fill" to="#808080" begin="arrowRight.mouseover" end="arrowRight.mouseout"/>
                  </use>
                  <path fill="none" stroke="white" stroke-width="1.5" d="M0,-3.0v7 M-2.5,-0.5L0,-3.0L2.5,-0.5"/>
                </g>
                <g id="arrowDown" xlink:href="#dirArrow" transform="rotate(180) translate(-30 -48)" onmousedown="handlePan(0,1)">
                  <use xlink:href="#rim" fill="#404040">
                        <set attributeName="fill" to="#808080" begin="arrowDown.mouseover" end="arrowDown.mouseout"/>
                  </use>
                  <path fill="none" stroke="white" stroke-width="1.5" d="M0,-3.0v7 M-2.5,-0.5L0,-3.0L2.5,-0.5"/>
                </g>
                <g id="arrowLeft" xlink:href="#dirArrow" transform="rotate(270) translate(-36 17)" onmousedown="handlePan(-1,0)">
                  <use xlink:href="#rim" fill="#404040">
                        <set attributeName="fill" to="#808080" begin="arrowLeft.mouseover" end="arrowLeft.mouseout"/>
                  </use>
                  <path fill="none" stroke="white" stroke-width="1.5" d="M0,-3.0v7 M-2.5,-0.5L0,-3.0L2.5,-0.5"/>
                </g>
        </g>
        <svg viewBox="0 0 15 15" width="100%" height="30px" preserveAspectRatio="xMaxYMin meet">
         <g id="arrow_out" transform="scale(0.3 0.3)">
          <a xlink:href="structfield__manager__mod_1_1fm__list__iter__type__coll__graph_org.svg" target="_base">
           <rect id="button" ry="5" rx="5" y="6" x="6" height="38" width="38"
                fill="#f2f5e9" fill-opacity="0.5" stroke="#606060" stroke-width="1.0"/>
           <path id="arrow"
             d="M 11.500037,31.436501 C 11.940474,20.09759 22.043105,11.32322 32.158766,21.979434 L 37.068811,17.246167 C 37.068811,17.246167 37.088388,32 37.088388,32 L 22.160133,31.978069 C 22.160133,31.978069 26.997745,27.140456 26.997745,27.140456 C 18.528582,18.264221 13.291696,25.230495 11.500037,31.436501 z"
             style="fill:#404040;"/>
          </a>
         </g>
        </svg>
</svg>
