<?xml version="1.0" encoding="UTF-8" standalone="no"?>
<!DOCTYPE svg PUBLIC "-//W3C//DTD SVG 1.1//EN"
 "http://www.w3.org/Graphics/SVG/1.1/DTD/svg11.dtd">
<!-- Generated by graphviz version 2.43.0 (0)
 -->
<!-- Title: char_linked_list Pages: 1 -->
<svg width="156pt" height="95pt"
 viewBox="0.00 0.00 155.50 95.00" xmlns="http://www.w3.org/2000/svg" xmlns:xlink="http://www.w3.org/1999/xlink">
<g id="graph0" class="graph" transform="scale(1 1) rotate(0) translate(4 91)">
<title>char_linked_list</title>
<polygon fill="white" stroke="transparent" points="-4,4 -4,-91 151.5,-91 151.5,4 -4,4"/>
<!-- Node1 -->
<g id="node1" class="node">
<title>Node1</title>
<g id="a_node1"><a xlink:title="A linked list of strings.">
<polygon fill="#bfbfbf" stroke="black" points="9.5,-0.5 9.5,-19.5 101.5,-19.5 101.5,-0.5 9.5,-0.5"/>
<text text-anchor="middle" x="55.5" y="-7.5" font-family="Helvetica,sans-Serif" font-size="10.00">char_linked_list</text>
</a>
</g>
</g>
<!-- Node1&#45;&gt;Node1 -->
<g id="edge1" class="edge">
<title>Node1&#45;&gt;Node1</title>
<path fill="none" stroke="#9a32cd" stroke-dasharray="5,2" d="M111.77,-14.66C116.53,-13.66 119.5,-12.11 119.5,-10 119.5,-6.62 111.91,-4.67 101.52,-4.15"/>
<polygon fill="#9a32cd" stroke="#9a32cd" points="111.05,-11.22 101.52,-15.85 111.86,-18.17 111.05,-11.22"/>
<text text-anchor="middle" x="133.5" y="-7.5" font-family="Helvetica,sans-Serif" font-size="10.00"> head</text>
</g>
<!-- Node2 -->
<g id="node2" class="node">
<title>Node2</title>
<g id="a_node2"><a xlink:title=" ">
<polygon fill="white" stroke="#bfbfbf" points="0,-67.5 0,-86.5 111,-86.5 111,-67.5 0,-67.5"/>
<text text-anchor="middle" x="55.5" y="-74.5" font-family="Helvetica,sans-Serif" font-size="10.00">character(len=128)</text>
</a>
</g>
</g>
<!-- Node2&#45;&gt;Node1 -->
<g id="edge2" class="edge">
<title>Node2&#45;&gt;Node1</title>
<path fill="none" stroke="#9a32cd" stroke-dasharray="5,2" d="M55.5,-57.04C55.5,-44.67 55.5,-29.12 55.5,-19.63"/>
<polygon fill="#9a32cd" stroke="#9a32cd" points="52,-57.23 55.5,-67.23 59,-57.23 52,-57.23"/>
<text text-anchor="middle" x="71" y="-41" font-family="Helvetica,sans-Serif" font-size="10.00"> string</text>
</g>
</g>
</svg>
