<?xml version="1.0" encoding="UTF-8" standalone="no"?>
<!DOCTYPE svg PUBLIC "-//W3C//DTD SVG 1.1//EN"
 "http://www.w3.org/Graphics/SVG/1.1/DTD/svg11.dtd">
<!-- Generated by graphviz version 2.43.0 (0)
 -->
<!-- Title: drifters_io_type Pages: 1 -->
<svg width="223pt" height="172pt"
 viewBox="0.00 0.00 222.50 172.00" xmlns="http://www.w3.org/2000/svg" xmlns:xlink="http://www.w3.org/1999/xlink">
<g id="graph0" class="graph" transform="scale(1 1) rotate(0) translate(4 168)">
<title>drifters_io_type</title>
<polygon fill="white" stroke="transparent" points="-4,4 -4,-168 218.5,-168 218.5,4 -4,4"/>
<!-- Node1 -->
<g id="node1" class="node">
<title>Node1</title>
<g id="a_node1"><a xlink:title="IO data for drifters.">
<polygon fill="#bfbfbf" stroke="black" points="46.5,-0.5 46.5,-19.5 138.5,-19.5 138.5,-0.5 46.5,-0.5"/>
<text text-anchor="middle" x="92.5" y="-7.5" font-family="Helvetica,sans-Serif" font-size="10.00">drifters_io_type</text>
</a>
</g>
</g>
<!-- Node2 -->
<g id="node2" class="node">
<title>Node2</title>
<g id="a_node2"><a xlink:title=" ">
<polygon fill="white" stroke="#bfbfbf" points="0,-144.5 0,-163.5 49,-163.5 49,-144.5 0,-144.5"/>
<text text-anchor="middle" x="24.5" y="-151.5" font-family="Helvetica,sans-Serif" font-size="10.00">logical</text>
</a>
</g>
</g>
<!-- Node2&#45;&gt;Node1 -->
<g id="edge1" class="edge">
<title>Node2&#45;&gt;Node1</title>
<path fill="none" stroke="#9a32cd" stroke-dasharray="5,2" d="M24.74,-134.33C25.92,-110.06 31.03,-67.32 51.5,-38 56.96,-30.17 65.5,-24.03 73.36,-19.59"/>
<polygon fill="#9a32cd" stroke="#9a32cd" points="21.24,-134.24 24.43,-144.34 28.24,-134.45 21.24,-134.24"/>
<text text-anchor="middle" x="70" y="-79.5" font-family="Helvetica,sans-Serif" font-size="10.00"> enddef</text>
</g>
<!-- Node3 -->
<g id="node3" class="node">
<title>Node3</title>
<g id="a_node3"><a xlink:title=" ">
<polygon fill="white" stroke="#bfbfbf" points="67,-144.5 67,-163.5 118,-163.5 118,-144.5 67,-144.5"/>
<text text-anchor="middle" x="92.5" y="-151.5" font-family="Helvetica,sans-Serif" font-size="10.00">integer</text>
</a>
</g>
</g>
<!-- Node3&#45;&gt;Node1 -->
<g id="edge2" class="edge">
<title>Node3&#45;&gt;Node1</title>
<path fill="none" stroke="#9a32cd" stroke-dasharray="5,2" d="M92.5,-134.11C92.5,-102.93 92.5,-41.93 92.5,-19.52"/>
<polygon fill="#9a32cd" stroke="#9a32cd" points="89,-134.12 92.5,-144.12 96,-134.12 89,-134.12"/>
<text text-anchor="middle" x="128.5" y="-118" font-family="Helvetica,sans-Serif" font-size="10.00"> it</text>
<text text-anchor="middle" x="128.5" y="-107" font-family="Helvetica,sans-Serif" font-size="10.00">it_id</text>
<text text-anchor="middle" x="128.5" y="-96" font-family="Helvetica,sans-Serif" font-size="10.00">nc_fields</text>
<text text-anchor="middle" x="128.5" y="-85" font-family="Helvetica,sans-Serif" font-size="10.00">nc_ids</text>
<text text-anchor="middle" x="128.5" y="-74" font-family="Helvetica,sans-Serif" font-size="10.00">nc_index_time</text>
<text text-anchor="middle" x="128.5" y="-63" font-family="Helvetica,sans-Serif" font-size="10.00">nc_positions</text>
<text text-anchor="middle" x="128.5" y="-52" font-family="Helvetica,sans-Serif" font-size="10.00">nc_time</text>
<text text-anchor="middle" x="128.5" y="-41" font-family="Helvetica,sans-Serif" font-size="10.00">ncid</text>
</g>
<!-- Node4 -->
<g id="node4" class="node">
<title>Node4</title>
<g id="a_node4"><a xlink:title=" ">
<polygon fill="white" stroke="#bfbfbf" points="170,-144.5 170,-163.5 205,-163.5 205,-144.5 170,-144.5"/>
<text text-anchor="middle" x="187.5" y="-151.5" font-family="Helvetica,sans-Serif" font-size="10.00">real</text>
</a>
</g>
</g>
<!-- Node4&#45;&gt;Node1 -->
<g id="edge3" class="edge">
<title>Node4&#45;&gt;Node1</title>
<path fill="none" stroke="#9a32cd" stroke-dasharray="5,2" d="M189.19,-134C190.34,-109.04 188.52,-65.18 165.5,-38 158.25,-29.44 148.03,-23.6 137.52,-19.6"/>
<polygon fill="#9a32cd" stroke="#9a32cd" points="185.67,-134.09 188.49,-144.3 192.66,-134.56 185.67,-134.09"/>
<text text-anchor="middle" x="201.5" y="-79.5" font-family="Helvetica,sans-Serif" font-size="10.00"> time</text>
</g>
</g>
</svg>
