<?xml version="1.0" encoding="UTF-8" standalone="no"?>
<!DOCTYPE svg PUBLIC "-//W3C//DTD SVG 1.1//EN"
 "http://www.w3.org/Graphics/SVG/1.1/DTD/svg11.dtd">
<!-- Generated by graphviz version 2.43.0 (0)
 -->
<!-- Title: nml_errors_type Pages: 1 -->
<svg width="145pt" height="139pt"
 viewBox="0.00 0.00 145.00 139.00" xmlns="http://www.w3.org/2000/svg" xmlns:xlink="http://www.w3.org/1999/xlink">
<g id="graph0" class="graph" transform="scale(1 1) rotate(0) translate(4 135)">
<title>nml_errors_type</title>
<polygon fill="white" stroke="transparent" points="-4,4 -4,-135 141,-135 141,4 -4,4"/>
<!-- Node1 -->
<g id="node1" class="node">
<title>Node1</title>
<g id="a_node1"><a xlink:title="Namelist read error values.">
<polygon fill="#bfbfbf" stroke="black" points="0,-0.5 0,-19.5 96,-19.5 96,-0.5 0,-0.5"/>
<text text-anchor="middle" x="48" y="-7.5" font-family="Helvetica,sans-Serif" font-size="10.00">nml_errors_type</text>
</a>
</g>
</g>
<!-- Node2 -->
<g id="node2" class="node">
<title>Node2</title>
<g id="a_node2"><a xlink:title=" ">
<polygon fill="white" stroke="#bfbfbf" points="22.5,-111.5 22.5,-130.5 73.5,-130.5 73.5,-111.5 22.5,-111.5"/>
<text text-anchor="middle" x="48" y="-118.5" font-family="Helvetica,sans-Serif" font-size="10.00">integer</text>
</a>
</g>
</g>
<!-- Node2&#45;&gt;Node1 -->
<g id="edge1" class="edge">
<title>Node2&#45;&gt;Node1</title>
<path fill="none" stroke="#9a32cd" stroke-dasharray="5,2" d="M48,-101.19C48,-77.28 48,-36.99 48,-19.51"/>
<polygon fill="#9a32cd" stroke="#9a32cd" points="44.5,-101.45 48,-111.45 51.5,-101.45 44.5,-101.45"/>
<text text-anchor="middle" x="92.5" y="-85" font-family="Helvetica,sans-Serif" font-size="10.00"> badtype1</text>
<text text-anchor="middle" x="92.5" y="-74" font-family="Helvetica,sans-Serif" font-size="10.00">badtype2</text>
<text text-anchor="middle" x="92.5" y="-63" font-family="Helvetica,sans-Serif" font-size="10.00">missingvar</text>
<text text-anchor="middle" x="92.5" y="-52" font-family="Helvetica,sans-Serif" font-size="10.00">multiplenmlsinfile</text>
<text text-anchor="middle" x="92.5" y="-41" font-family="Helvetica,sans-Serif" font-size="10.00">notinfile</text>
</g>
</g>
</svg>
