<?xml version="1.0" encoding="UTF-8" standalone="no"?>
<!DOCTYPE svg PUBLIC "-//W3C//DTD SVG 1.1//EN"
 "http://www.w3.org/Graphics/SVG/1.1/DTD/svg11.dtd">
<!-- Generated by graphviz version 2.43.0 (0)
 -->
<!-- Title: fmsnetcdffile_t Pages: 1 -->
<!--zoomable 796 -->
<svg id="main" version="1.1" xmlns="http://www.w3.org/2000/svg" xmlns:xlink="http://www.w3.org/1999/xlink" xml:space="preserve" onload="init(evt)">
<style type="text/css"><![CDATA[
.edge:hover path { stroke: red; }
.edge:hover polygon { stroke: red; fill: red; }
]]></style>
<script type="text/javascript"><![CDATA[
var edges = document.getElementsByTagName('g');
if (edges && edges.length) {
  for (var i=0;i<edges.length;i++) {
    if (edges[i].id.substr(0,4)=='edge') {
      edges[i].setAttribute('class','edge');
    }
  }
}
]]></script>
        <defs>
                <circle id="rim" cx="0" cy="0" r="7"/>
                <circle id="rim2" cx="0" cy="0" r="3.5"/>
                <g id="zoomPlus">
                        <use xlink:href="#rim" fill="#404040">
                                <set attributeName="fill" to="#808080" begin="zoomplus.mouseover" end="zoomplus.mouseout"/>
                        </use>
                        <path d="M-4,0h8M0,-4v8" fill="none" stroke="white" stroke-width="1.5" pointer-events="none"/>
                </g>
                <g id="zoomMin">
                        <use xlink:href="#rim" fill="#404040">
                                <set attributeName="fill" to="#808080" begin="zoomminus.mouseover" end="zoomminus.mouseout"/>
                        </use>
                        <path d="M-4,0h8" fill="none" stroke="white" stroke-width="1.5" pointer-events="none"/>
                </g>
                <g id="dirArrow">
                        <path fill="none" stroke="white" stroke-width="1.5" d="M0,-3.0v7 M-2.5,-0.5L0,-3.0L2.5,-0.5"/>
                </g>
               <g id="resetDef">
                       <use xlink:href="#rim2" fill="#404040">
                               <set attributeName="fill" to="#808080" begin="reset.mouseover" end="reset.mouseout"/>
                       </use>
               </g>
        </defs>

<script type="text/javascript">
var viewWidth = 916;
var viewHeight = 796;
var sectionId = 'dynsection-3';
</script>
<script xlink:href="svgpan.js"/>
<svg id="graph" class="graph">
<g id="viewport">
<title>fmsnetcdffile_t</title>
<polygon fill="white" stroke="transparent" points="-4,4 -4,-792.07 912,-792.07 912,4 -4,4"/>
<!-- Node1 -->
<g id="node1" class="node">
<title>Node1</title>
<g id="a_node1"><a xlink:title="Netcdf file type.">
<polygon fill="#bfbfbf" stroke="black" points="818,-535.57 818,-554.57 908,-554.57 908,-535.57 818,-535.57"/>
<text text-anchor="middle" x="863" y="-542.57" font-family="Helvetica,sans-Serif" font-size="10.00">fmsnetcdffile_t</text>
</a>
</g>
</g>
<!-- Node2 -->
<g id="node2" class="node">
<title>Node2</title>
<g id="a_node2"><a xlink:title=" ">
<polygon fill="white" stroke="#bfbfbf" points="52,-207.57 52,-226.57 101,-226.57 101,-207.57 52,-207.57"/>
<text text-anchor="middle" x="76.5" y="-214.57" font-family="Helvetica,sans-Serif" font-size="10.00">logical</text>
</a>
</g>
</g>
<!-- Node2&#45;&gt;Node1 -->
<g id="edge1" class="edge">
<title>Node2&#45;&gt;Node1</title>
<path fill="none" stroke="#9a32cd" stroke-dasharray="5,2" d="M93.43,-200.02C152.76,-138.64 366.21,63.06 536,-20.07 760.04,-129.75 846.03,-473.24 859.93,-535.38"/>
<polygon fill="#9a32cd" stroke="#9a32cd" points="90.76,-197.74 86.39,-207.39 95.82,-202.58 90.76,-197.74"/>
<text text-anchor="middle" x="471" y="-89.07" font-family="Helvetica,sans-Serif" font-size="10.00"> is_diskless</text>
<text text-anchor="middle" x="471" y="-78.07" font-family="Helvetica,sans-Serif" font-size="10.00">is_netcdf4</text>
<text text-anchor="middle" x="471" y="-67.07" font-family="Helvetica,sans-Serif" font-size="10.00">is_open</text>
<text text-anchor="middle" x="471" y="-56.07" font-family="Helvetica,sans-Serif" font-size="10.00">is_readonly</text>
<text text-anchor="middle" x="471" y="-45.07" font-family="Helvetica,sans-Serif" font-size="10.00">is_restart</text>
<text text-anchor="middle" x="471" y="-34.07" font-family="Helvetica,sans-Serif" font-size="10.00">is_root</text>
<text text-anchor="middle" x="471" y="-23.07" font-family="Helvetica,sans-Serif" font-size="10.00">mode_is_append</text>
</g>
<!-- Node8 -->
<g id="node8" class="node">
<title>Node8</title>
<g id="a_node8"><a xlink:href="group__netcdf__io__mod.html#structnetcdf__io__mod_1_1restartvariable__t" target="_top" xlink:title="Restart variable.">
<polygon fill="white" stroke="black" points="573,-311.57 573,-330.57 671,-330.57 671,-311.57 573,-311.57"/>
<text text-anchor="middle" x="622" y="-318.57" font-family="Helvetica,sans-Serif" font-size="10.00">restartvariable_t</text>
</a>
</g>
</g>
<!-- Node2&#45;&gt;Node8 -->
<g id="edge10" class="edge">
<title>Node2&#45;&gt;Node8</title>
<path fill="none" stroke="#9a32cd" stroke-dasharray="5,2" d="M111.18,-218.58C147.7,-220.48 207.66,-224.33 259,-231.07 385.17,-247.62 530.93,-291.79 591.87,-311.42"/>
<polygon fill="#9a32cd" stroke="#9a32cd" points="111.24,-215.08 101.08,-218.08 110.89,-222.07 111.24,-215.08"/>
<text text-anchor="middle" x="332.5" y="-269.07" font-family="Helvetica,sans-Serif" font-size="10.00"> is_bc_variable</text>
<text text-anchor="middle" x="332.5" y="-258.07" font-family="Helvetica,sans-Serif" font-size="10.00">was_read</text>
</g>
<!-- Node15 -->
<g id="node15" class="node">
<title>Node15</title>
<g id="a_node15"><a xlink:href="group__netcdf__io__mod.html#structnetcdf__io__mod_1_1bc__information" target="_top" xlink:title="information needed fr regional restart variables">
<polygon fill="white" stroke="black" points="287.5,-336.57 287.5,-355.57 377.5,-355.57 377.5,-336.57 287.5,-336.57"/>
<text text-anchor="middle" x="332.5" y="-343.57" font-family="Helvetica,sans-Serif" font-size="10.00">bc_information</text>
</a>
</g>
</g>
<!-- Node2&#45;&gt;Node15 -->
<g id="edge19" class="edge">
<title>Node2&#45;&gt;Node15</title>
<path fill="none" stroke="#9a32cd" stroke-dasharray="5,2" d="M111.25,-221.14C157.75,-227.42 238.16,-240.89 259,-261.07 280.54,-281.92 256.69,-304.02 277,-326.07 281.03,-330.44 286.1,-333.86 291.51,-336.53"/>
<polygon fill="#9a32cd" stroke="#9a32cd" points="111.69,-217.67 101.32,-219.84 110.78,-224.61 111.69,-217.67"/>
<text text-anchor="middle" x="215" y="-275.07" font-family="Helvetica,sans-Serif" font-size="10.00"> data_on_file_root</text>
<text text-anchor="middle" x="215" y="-264.07" font-family="Helvetica,sans-Serif" font-size="10.00">is_root_pe</text>
</g>
<!-- Node3 -->
<g id="node3" class="node">
<title>Node3</title>
<g id="a_node3"><a xlink:title=" ">
<polygon fill="white" stroke="#bfbfbf" points="277,-562.57 277,-581.57 388,-581.57 388,-562.57 277,-562.57"/>
<text text-anchor="middle" x="332.5" y="-569.57" font-family="Helvetica,sans-Serif" font-size="10.00">character(len=256)</text>
</a>
</g>
</g>
<!-- Node3&#45;&gt;Node1 -->
<g id="edge2" class="edge">
<title>Node3&#45;&gt;Node1</title>
<path fill="none" stroke="#9a32cd" stroke-dasharray="5,2" d="M398.43,-570.05C438.29,-568.2 490.28,-564.69 536,-558.07 544.11,-556.89 545.87,-555.08 554,-554.07 647.43,-542.43 757.97,-542.54 817.94,-543.74"/>
<polygon fill="#9a32cd" stroke="#9a32cd" points="398.15,-566.56 388.31,-570.5 398.46,-573.55 398.15,-566.56"/>
<text text-anchor="middle" x="622" y="-568.07" font-family="Helvetica,sans-Serif" font-size="10.00"> nc_format</text>
<text text-anchor="middle" x="622" y="-557.07" font-family="Helvetica,sans-Serif" font-size="10.00">path</text>
</g>
<!-- Node5 -->
<g id="node5" class="node">
<title>Node5</title>
<g id="a_node5"><a xlink:href="group__netcdf__io__mod.html#structnetcdf__io__mod_1_1compresseddimension__t" target="_top" xlink:title="Compressed dimension.">
<polygon fill="white" stroke="black" points="554,-623.57 554,-642.57 690,-642.57 690,-623.57 554,-623.57"/>
<text text-anchor="middle" x="622" y="-630.57" font-family="Helvetica,sans-Serif" font-size="10.00">compresseddimension_t</text>
</a>
</g>
</g>
<!-- Node3&#45;&gt;Node5 -->
<g id="edge5" class="edge">
<title>Node3&#45;&gt;Node5</title>
<path fill="none" stroke="#9a32cd" stroke-dasharray="5,2" d="M398.15,-582.09C452.32,-590.62 522.86,-602.11 536,-606.07 544.38,-608.59 545.77,-611.09 554,-614.07 563.55,-617.52 574.05,-620.76 583.84,-623.54"/>
<polygon fill="#9a32cd" stroke="#9a32cd" points="398.67,-578.63 388.24,-580.53 397.58,-585.54 398.67,-578.63"/>
<text text-anchor="middle" x="471" y="-609.07" font-family="Helvetica,sans-Serif" font-size="10.00"> dimname</text>
</g>
<!-- Node3&#45;&gt;Node8 -->
<g id="edge15" class="edge">
<title>Node3&#45;&gt;Node8</title>
<path fill="none" stroke="#9a32cd" stroke-dasharray="5,2" d="M367.67,-559.05C379.66,-554.81 393.31,-550.35 406,-547.07 462.8,-532.35 490.18,-560.72 536,-524.07 600.45,-472.51 616.65,-363.44 620.14,-330.61"/>
<polygon fill="#9a32cd" stroke="#9a32cd" points="366.25,-555.84 358.04,-562.53 368.63,-562.42 366.25,-555.84"/>
<text text-anchor="middle" x="471" y="-550.07" font-family="Helvetica,sans-Serif" font-size="10.00"> varname</text>
</g>
<!-- Node4 -->
<g id="node4" class="node">
<title>Node4</title>
<g id="a_node4"><a xlink:title=" ">
<polygon fill="white" stroke="#bfbfbf" points="569.5,-585.57 569.5,-604.57 674.5,-604.57 674.5,-585.57 569.5,-585.57"/>
<text text-anchor="middle" x="622" y="-592.57" font-family="Helvetica,sans-Serif" font-size="10.00">character(len=20)</text>
</a>
</g>
</g>
<!-- Node4&#45;&gt;Node1 -->
<g id="edge3" class="edge">
<title>Node4&#45;&gt;Node1</title>
<path fill="none" stroke="#9a32cd" stroke-dasharray="5,2" d="M681.07,-583.58C715.65,-576.66 760.37,-567.57 800,-559.07 806.58,-557.65 813.55,-556.12 820.34,-554.6"/>
<polygon fill="#9a32cd" stroke="#9a32cd" points="680.26,-580.17 671.14,-585.57 681.63,-587.04 680.26,-580.17"/>
<text text-anchor="middle" x="754" y="-581.07" font-family="Helvetica,sans-Serif" font-size="10.00"> time_name</text>
</g>
<!-- Node5&#45;&gt;Node1 -->
<g id="edge4" class="edge">
<title>Node5&#45;&gt;Node1</title>
<path fill="none" stroke="#9a32cd" stroke-dasharray="5,2" d="M700.57,-623.09C732.42,-617.09 769.02,-607.67 800,-593.07 820.69,-583.31 840.92,-565.69 852.39,-554.73"/>
<polygon fill="#9a32cd" stroke="#9a32cd" points="699.63,-619.7 690.41,-624.92 700.87,-626.59 699.63,-619.7"/>
<text text-anchor="middle" x="754" y="-624.07" font-family="Helvetica,sans-Serif" font-size="10.00"> compressed_dims</text>
</g>
<!-- Node6 -->
<g id="node6" class="node">
<title>Node6</title>
<g id="a_node6"><a xlink:title=" ">
<polygon fill="white" stroke="#bfbfbf" points="51,-592.57 51,-611.57 102,-611.57 102,-592.57 51,-592.57"/>
<text text-anchor="middle" x="76.5" y="-599.57" font-family="Helvetica,sans-Serif" font-size="10.00">integer</text>
</a>
</g>
</g>
<!-- Node6&#45;&gt;Node1 -->
<g id="edge26" class="edge">
<title>Node6&#45;&gt;Node1</title>
<path fill="none" stroke="#9a32cd" stroke-dasharray="5,2" d="M112.09,-593.38C149.28,-583.46 209.71,-565.63 259,-543.07 328.44,-511.27 332.44,-474.6 406,-454.07 573.56,-407.29 782.15,-503.75 843.95,-535.44"/>
<polygon fill="#9a32cd" stroke="#9a32cd" points="111.03,-590.04 102.25,-595.97 112.81,-596.81 111.03,-590.04"/>
<text text-anchor="middle" x="471" y="-512.07" font-family="Helvetica,sans-Serif" font-size="10.00"> io_root</text>
<text text-anchor="middle" x="471" y="-501.07" font-family="Helvetica,sans-Serif" font-size="10.00">ncid</text>
<text text-anchor="start" x="427.5" y="-490.07" font-family="Helvetica,sans-Serif" font-size="10.00">num_compressed</text>
<text text-anchor="middle" x="471" y="-479.07" font-family="Helvetica,sans-Serif" font-size="10.00">_dims</text>
<text text-anchor="middle" x="471" y="-468.07" font-family="Helvetica,sans-Serif" font-size="10.00">num_restart_vars</text>
<text text-anchor="middle" x="471" y="-457.07" font-family="Helvetica,sans-Serif" font-size="10.00">pelist</text>
</g>
<!-- Node6&#45;&gt;Node5 -->
<g id="edge6" class="edge">
<title>Node6&#45;&gt;Node5</title>
<path fill="none" stroke="#9a32cd" stroke-dasharray="5,2" d="M112.35,-604.05C201.2,-609.12 437.35,-622.59 553.95,-629.24"/>
<polygon fill="#9a32cd" stroke="#9a32cd" points="112.45,-600.55 102.27,-603.48 112.05,-607.54 112.45,-600.55"/>
<text text-anchor="middle" x="332.5" y="-644.07" font-family="Helvetica,sans-Serif" font-size="10.00"> nelems</text>
<text text-anchor="middle" x="332.5" y="-633.07" font-family="Helvetica,sans-Serif" font-size="10.00">npes_corner</text>
<text text-anchor="middle" x="332.5" y="-622.07" font-family="Helvetica,sans-Serif" font-size="10.00">npes_nelems</text>
</g>
<!-- Node7 -->
<g id="node7" class="node">
<title>Node7</title>
<g id="a_node7"><a xlink:href="group__netcdf__io__mod.html#structnetcdf__io__mod_1_1dimension__information" target="_top" xlink:title="information about the current dimensions for regional restart variables">
<polygon fill="white" stroke="black" points="406,-680.57 406,-699.57 536,-699.57 536,-680.57 406,-680.57"/>
<text text-anchor="middle" x="471" y="-687.57" font-family="Helvetica,sans-Serif" font-size="10.00">dimension_information</text>
</a>
</g>
</g>
<!-- Node6&#45;&gt;Node7 -->
<g id="edge8" class="edge">
<title>Node6&#45;&gt;Node7</title>
<path fill="none" stroke="#9a32cd" stroke-dasharray="5,2" d="M104.24,-616.26C122.6,-625.52 147.77,-637.31 171,-645.07 249.3,-671.22 344.22,-682.22 405.8,-686.82"/>
<polygon fill="#9a32cd" stroke="#9a32cd" points="105.79,-613.12 95.3,-611.67 102.6,-619.35 105.79,-613.12"/>
<text text-anchor="middle" x="215" y="-780.07" font-family="Helvetica,sans-Serif" font-size="10.00"> cur_dim_len</text>
<text text-anchor="middle" x="215" y="-769.07" font-family="Helvetica,sans-Serif" font-size="10.00">dimension</text>
<text text-anchor="middle" x="215" y="-758.07" font-family="Helvetica,sans-Serif" font-size="10.00">each</text>
<text text-anchor="middle" x="215" y="-747.07" font-family="Helvetica,sans-Serif" font-size="10.00">number</text>
<text text-anchor="middle" x="215" y="-736.07" font-family="Helvetica,sans-Serif" font-size="10.00">of</text>
<text text-anchor="middle" x="215" y="-725.07" font-family="Helvetica,sans-Serif" font-size="10.00">size</text>
<text text-anchor="middle" x="215" y="-714.07" font-family="Helvetica,sans-Serif" font-size="10.00">the</text>
<text text-anchor="middle" x="215" y="-703.07" font-family="Helvetica,sans-Serif" font-size="10.00">unique</text>
<text text-anchor="middle" x="215" y="-692.07" font-family="Helvetica,sans-Serif" font-size="10.00">x</text>
<text text-anchor="middle" x="215" y="-681.07" font-family="Helvetica,sans-Serif" font-size="10.00">xlen</text>
<text text-anchor="middle" x="215" y="-670.07" font-family="Helvetica,sans-Serif" font-size="10.00">...</text>
</g>
<!-- Node6&#45;&gt;Node15 -->
<g id="edge23" class="edge">
<title>Node6&#45;&gt;Node15</title>
<path fill="none" stroke="#9a32cd" stroke-dasharray="5,2" d="M85.23,-583.17C98.34,-553.53 127.79,-496.4 171,-466.07 204.09,-442.84 230.83,-472.06 259,-443.07 283.79,-417.55 253.25,-391.55 277,-365.07 280.48,-361.19 284.79,-358.1 289.46,-355.64"/>
<polygon fill="#9a32cd" stroke="#9a32cd" points="81.99,-581.84 81.28,-592.41 88.43,-584.59 81.99,-581.84"/>
<text text-anchor="middle" x="215" y="-535.07" font-family="Helvetica,sans-Serif" font-size="10.00"> global_size</text>
<text text-anchor="middle" x="215" y="-524.07" font-family="Helvetica,sans-Serif" font-size="10.00">indices</text>
<text text-anchor="middle" x="215" y="-513.07" font-family="Helvetica,sans-Serif" font-size="10.00">ishift</text>
<text text-anchor="middle" x="215" y="-502.07" font-family="Helvetica,sans-Serif" font-size="10.00">jshift</text>
<text text-anchor="middle" x="215" y="-491.07" font-family="Helvetica,sans-Serif" font-size="10.00">pelist</text>
<text text-anchor="middle" x="215" y="-480.07" font-family="Helvetica,sans-Serif" font-size="10.00">x_halo</text>
<text text-anchor="middle" x="215" y="-469.07" font-family="Helvetica,sans-Serif" font-size="10.00">y_halo</text>
</g>
<!-- Node7&#45;&gt;Node1 -->
<g id="edge7" class="edge">
<title>Node7&#45;&gt;Node1</title>
<path fill="none" stroke="#9a32cd" stroke-dasharray="5,2" d="M546.27,-693.95C616.88,-694.13 723.37,-684.96 800,-636.07 831.43,-616.01 850.95,-573.71 858.47,-554.69"/>
<polygon fill="#9a32cd" stroke="#9a32cd" points="546.15,-690.45 536.12,-693.86 546.09,-697.45 546.15,-690.45"/>
<text text-anchor="middle" x="622" y="-696.07" font-family="Helvetica,sans-Serif" font-size="10.00"> bc_dimensions</text>
</g>
<!-- Node8&#45;&gt;Node1 -->
<g id="edge9" class="edge">
<title>Node8&#45;&gt;Node1</title>
<path fill="none" stroke="#9a32cd" stroke-dasharray="5,2" d="M654.81,-334.87C693.1,-352.76 757.55,-387.07 800,-432.07 830.4,-464.3 850.87,-514.27 858.58,-535.26"/>
<polygon fill="#9a32cd" stroke="#9a32cd" points="656.22,-331.67 645.67,-330.68 653.3,-338.03 656.22,-331.67"/>
<text text-anchor="middle" x="754" y="-435.07" font-family="Helvetica,sans-Serif" font-size="10.00"> restart_vars</text>
</g>
<!-- Node9 -->
<g id="node9" class="node">
<title>Node9</title>
<g id="a_node9"><a xlink:title=" ">
<polygon fill="white" stroke="#bfbfbf" points="277,-130.07 277,-160.07 388,-160.07 388,-130.07 277,-130.07"/>
<text text-anchor="start" x="285" y="-148.07" font-family="Helvetica,sans-Serif" font-size="10.00">class(*), dimension</text>
<text text-anchor="middle" x="332.5" y="-137.07" font-family="Helvetica,sans-Serif" font-size="10.00">(:,:,:), pointer</text>
</a>
</g>
</g>
<!-- Node9&#45;&gt;Node8 -->
<g id="edge11" class="edge">
<title>Node9&#45;&gt;Node8</title>
<path fill="none" stroke="#9a32cd" stroke-dasharray="5,2" d="M398.64,-141.62C441.11,-142.49 495.89,-149.8 536,-177.07 585.93,-211.02 610.84,-284.86 618.42,-311.36"/>
<polygon fill="#9a32cd" stroke="#9a32cd" points="398.43,-138.12 388.4,-141.53 398.36,-145.12 398.43,-138.12"/>
<text text-anchor="middle" x="471" y="-180.07" font-family="Helvetica,sans-Serif" font-size="10.00"> data3d</text>
</g>
<!-- Node10 -->
<g id="node10" class="node">
<title>Node10</title>
<g id="a_node10"><a xlink:title=" ">
<polygon fill="white" stroke="#bfbfbf" points="277,-81.07 277,-111.07 388,-111.07 388,-81.07 277,-81.07"/>
<text text-anchor="start" x="285" y="-99.07" font-family="Helvetica,sans-Serif" font-size="10.00">class(*), dimension</text>
<text text-anchor="middle" x="332.5" y="-88.07" font-family="Helvetica,sans-Serif" font-size="10.00">(:,:), pointer</text>
</a>
</g>
</g>
<!-- Node10&#45;&gt;Node8 -->
<g id="edge12" class="edge">
<title>Node10&#45;&gt;Node8</title>
<path fill="none" stroke="#9a32cd" stroke-dasharray="5,2" d="M398.34,-99.28C449.23,-103 514.89,-110.85 536,-127.07 598.7,-175.22 616.04,-279.33 619.98,-311.44"/>
<polygon fill="#9a32cd" stroke="#9a32cd" points="398.27,-95.76 388.05,-98.56 397.79,-102.75 398.27,-95.76"/>
<text text-anchor="middle" x="471" y="-130.07" font-family="Helvetica,sans-Serif" font-size="10.00"> data2d</text>
</g>
<!-- Node11 -->
<g id="node11" class="node">
<title>Node11</title>
<g id="a_node11"><a xlink:title=" ">
<polygon fill="white" stroke="#bfbfbf" points="277,-413.07 277,-443.07 388,-443.07 388,-413.07 277,-413.07"/>
<text text-anchor="start" x="285" y="-431.07" font-family="Helvetica,sans-Serif" font-size="10.00">class(*), dimension</text>
<text text-anchor="middle" x="332.5" y="-420.07" font-family="Helvetica,sans-Serif" font-size="10.00">(:,:,:,:,:), pointer</text>
</a>
</g>
</g>
<!-- Node11&#45;&gt;Node8 -->
<g id="edge13" class="edge">
<title>Node11&#45;&gt;Node8</title>
<path fill="none" stroke="#9a32cd" stroke-dasharray="5,2" d="M398.15,-420.64C447.89,-414.23 512.03,-404.26 536,-393.07 568.77,-377.76 599.02,-346.4 612.94,-330.6"/>
<polygon fill="#9a32cd" stroke="#9a32cd" points="397.58,-417.18 388.1,-421.91 398.46,-424.13 397.58,-417.18"/>
<text text-anchor="middle" x="471" y="-423.07" font-family="Helvetica,sans-Serif" font-size="10.00"> data5d</text>
</g>
<!-- Node12 -->
<g id="node12" class="node">
<title>Node12</title>
<g id="a_node12"><a xlink:title=" ">
<polygon fill="white" stroke="#bfbfbf" points="285,-374.57 285,-393.57 380,-393.57 380,-374.57 285,-374.57"/>
<text text-anchor="middle" x="332.5" y="-381.57" font-family="Helvetica,sans-Serif" font-size="10.00">class(*), pointer</text>
</a>
</g>
</g>
<!-- Node12&#45;&gt;Node8 -->
<g id="edge14" class="edge">
<title>Node12&#45;&gt;Node8</title>
<path fill="none" stroke="#9a32cd" stroke-dasharray="5,2" d="M390.45,-379.57C431.44,-375.45 487.77,-367.97 536,-355.07 558.88,-348.95 583.92,-338.43 600.85,-330.71"/>
<polygon fill="#9a32cd" stroke="#9a32cd" points="389.99,-376.09 380.38,-380.54 390.67,-383.06 389.99,-376.09"/>
<text text-anchor="middle" x="471" y="-381.07" font-family="Helvetica,sans-Serif" font-size="10.00"> data0d</text>
</g>
<!-- Node13 -->
<g id="node13" class="node">
<title>Node13</title>
<g id="a_node13"><a xlink:title=" ">
<polygon fill="white" stroke="#bfbfbf" points="277,-287.07 277,-317.07 388,-317.07 388,-287.07 277,-287.07"/>
<text text-anchor="start" x="285" y="-305.07" font-family="Helvetica,sans-Serif" font-size="10.00">class(*), dimension</text>
<text text-anchor="middle" x="332.5" y="-294.07" font-family="Helvetica,sans-Serif" font-size="10.00">(:,:,:,:), pointer</text>
</a>
</g>
</g>
<!-- Node13&#45;&gt;Node8 -->
<g id="edge16" class="edge">
<title>Node13&#45;&gt;Node8</title>
<path fill="none" stroke="#9a32cd" stroke-dasharray="5,2" d="M398.29,-301.98C438.09,-302.42 490.08,-303.89 536,-308.07 547.89,-309.15 560.65,-310.82 572.58,-312.62"/>
<polygon fill="#9a32cd" stroke="#9a32cd" points="398.22,-298.47 388.18,-301.88 398.15,-305.47 398.22,-298.47"/>
<text text-anchor="middle" x="471" y="-311.07" font-family="Helvetica,sans-Serif" font-size="10.00"> data4d</text>
</g>
<!-- Node14 -->
<g id="node14" class="node">
<title>Node14</title>
<g id="a_node14"><a xlink:title=" ">
<polygon fill="white" stroke="#bfbfbf" points="277,-179.07 277,-209.07 388,-209.07 388,-179.07 277,-179.07"/>
<text text-anchor="start" x="285" y="-197.07" font-family="Helvetica,sans-Serif" font-size="10.00">class(*), dimension</text>
<text text-anchor="middle" x="332.5" y="-186.07" font-family="Helvetica,sans-Serif" font-size="10.00">(:), pointer</text>
</a>
</g>
</g>
<!-- Node14&#45;&gt;Node8 -->
<g id="edge17" class="edge">
<title>Node14&#45;&gt;Node8</title>
<path fill="none" stroke="#9a32cd" stroke-dasharray="5,2" d="M398.39,-191.09C440.05,-191.89 494.01,-198.16 536,-221.07 575.6,-242.67 604.79,-290.68 615.99,-311.32"/>
<polygon fill="#9a32cd" stroke="#9a32cd" points="398.39,-187.59 388.35,-191 398.32,-194.59 398.39,-187.59"/>
<text text-anchor="middle" x="471" y="-224.07" font-family="Helvetica,sans-Serif" font-size="10.00"> data1d</text>
</g>
<!-- Node15&#45;&gt;Node8 -->
<g id="edge18" class="edge">
<title>Node15&#45;&gt;Node8</title>
<path fill="none" stroke="#9a32cd" stroke-dasharray="5,2" d="M388.08,-341.32C441.41,-336.68 521.79,-329.69 572.82,-325.26"/>
<polygon fill="#9a32cd" stroke="#9a32cd" points="387.45,-337.86 377.79,-342.22 388.06,-344.84 387.45,-337.86"/>
<text text-anchor="middle" x="471" y="-343.07" font-family="Helvetica,sans-Serif" font-size="10.00"> bc_info</text>
</g>
<!-- Node16 -->
<g id="node16" class="node">
<title>Node16</title>
<g id="a_node16"><a xlink:title=" ">
<polygon fill="white" stroke="#bfbfbf" points="3,-441.07 3,-471.07 150,-471.07 150,-441.07 3,-441.07"/>
<text text-anchor="start" x="11" y="-459.07" font-family="Helvetica,sans-Serif" font-size="10.00">real(kind=r8_kind),</text>
<text text-anchor="middle" x="76.5" y="-448.07" font-family="Helvetica,sans-Serif" font-size="10.00"> dimension(:,:), allocatable</text>
</a>
</g>
</g>
<!-- Node16&#45;&gt;Node15 -->
<g id="edge20" class="edge">
<title>Node16&#45;&gt;Node15</title>
<path fill="none" stroke="#9a32cd" stroke-dasharray="5,2" d="M145.81,-438.35C196.31,-425.14 256.72,-409.05 259,-407.07 274.34,-393.76 262.15,-378.92 277,-365.07 281.18,-361.17 286.19,-358.07 291.47,-355.6"/>
<polygon fill="#9a32cd" stroke="#9a32cd" points="144.65,-435.04 135.86,-440.95 146.42,-441.81 144.65,-435.04"/>
<text text-anchor="middle" x="215" y="-435.07" font-family="Helvetica,sans-Serif" font-size="10.00"> globaldata2d_r8</text>
</g>
<!-- Node17 -->
<g id="node17" class="node">
<title>Node17</title>
<g id="a_node17"><a xlink:title=" ">
<polygon fill="white" stroke="#bfbfbf" points="0,-392.07 0,-422.07 153,-422.07 153,-392.07 0,-392.07"/>
<text text-anchor="start" x="8" y="-410.07" font-family="Helvetica,sans-Serif" font-size="10.00">real(kind=r8_kind),</text>
<text text-anchor="middle" x="76.5" y="-399.07" font-family="Helvetica,sans-Serif" font-size="10.00"> dimension(:,:,:), allocatable</text>
</a>
</g>
</g>
<!-- Node17&#45;&gt;Node15 -->
<g id="edge21" class="edge">
<title>Node17&#45;&gt;Node15</title>
<path fill="none" stroke="#9a32cd" stroke-dasharray="5,2" d="M163.45,-393.77C193.91,-388.2 228.25,-380.93 259,-372.07 267.25,-369.69 268.95,-368.04 277,-365.07 285.56,-361.91 294.92,-358.6 303.43,-355.64"/>
<polygon fill="#9a32cd" stroke="#9a32cd" points="162.51,-390.39 153.28,-395.6 163.74,-397.28 162.51,-390.39"/>
<text text-anchor="middle" x="215" y="-395.07" font-family="Helvetica,sans-Serif" font-size="10.00"> globaldata3d_r8</text>
</g>
<!-- Node18 -->
<g id="node18" class="node">
<title>Node18</title>
<g id="a_node18"><a xlink:title=" ">
<polygon fill="white" stroke="#bfbfbf" points="24,-353.57 24,-372.57 129,-372.57 129,-353.57 24,-353.57"/>
<text text-anchor="middle" x="76.5" y="-360.57" font-family="Helvetica,sans-Serif" font-size="10.00">character(len=32)</text>
</a>
</g>
</g>
<!-- Node18&#45;&gt;Node15 -->
<g id="edge22" class="edge">
<title>Node18&#45;&gt;Node15</title>
<path fill="none" stroke="#9a32cd" stroke-dasharray="5,2" d="M139.33,-358.93C185.17,-355.86 246.56,-351.75 287.49,-349.01"/>
<polygon fill="#9a32cd" stroke="#9a32cd" points="138.95,-355.45 129.21,-359.61 139.42,-362.43 138.95,-355.45"/>
<text text-anchor="middle" x="215" y="-360.07" font-family="Helvetica,sans-Serif" font-size="10.00"> chksum</text>
</g>
<!-- Node19 -->
<g id="node19" class="node">
<title>Node19</title>
<g id="a_node19"><a xlink:title=" ">
<polygon fill="white" stroke="#bfbfbf" points="0,-304.07 0,-334.07 153,-334.07 153,-304.07 0,-304.07"/>
<text text-anchor="start" x="8" y="-322.07" font-family="Helvetica,sans-Serif" font-size="10.00">real(kind=r4_kind),</text>
<text text-anchor="middle" x="76.5" y="-311.07" font-family="Helvetica,sans-Serif" font-size="10.00"> dimension(:,:,:), allocatable</text>
</a>
</g>
</g>
<!-- Node19&#45;&gt;Node15 -->
<g id="edge24" class="edge">
<title>Node19&#45;&gt;Node15</title>
<path fill="none" stroke="#9a32cd" stroke-dasharray="5,2" d="M163.16,-327.12C193.45,-330.09 227.76,-333.58 259,-337.07 268.2,-338.09 278.05,-339.27 287.43,-340.42"/>
<polygon fill="#9a32cd" stroke="#9a32cd" points="163.34,-323.62 153.05,-326.14 162.66,-330.59 163.34,-323.62"/>
<text text-anchor="middle" x="215" y="-340.07" font-family="Helvetica,sans-Serif" font-size="10.00"> globaldata3d_r4</text>
</g>
<!-- Node20 -->
<g id="node20" class="node">
<title>Node20</title>
<g id="a_node20"><a xlink:title=" ">
<polygon fill="white" stroke="#bfbfbf" points="3,-255.07 3,-285.07 150,-285.07 150,-255.07 3,-255.07"/>
<text text-anchor="start" x="11" y="-273.07" font-family="Helvetica,sans-Serif" font-size="10.00">real(kind=r4_kind),</text>
<text text-anchor="middle" x="76.5" y="-262.07" font-family="Helvetica,sans-Serif" font-size="10.00"> dimension(:,:), allocatable</text>
</a>
</g>
</g>
<!-- Node20&#45;&gt;Node15 -->
<g id="edge25" class="edge">
<title>Node20&#45;&gt;Node15</title>
<path fill="none" stroke="#9a32cd" stroke-dasharray="5,2" d="M160.2,-283.74C191.91,-290.61 227.91,-300.45 259,-314.07 267.81,-317.92 268.43,-321.71 277,-326.07 284.73,-329.99 293.41,-333.54 301.54,-336.51"/>
<polygon fill="#9a32cd" stroke="#9a32cd" points="160.57,-280.24 150.07,-281.61 159.13,-287.09 160.57,-280.24"/>
<text text-anchor="middle" x="215" y="-317.07" font-family="Helvetica,sans-Serif" font-size="10.00"> globaldata2d_r4</text>
</g>
</g>
</svg>
        <g id="navigator" transform="translate(0 0)" fill="#404254">
                <rect fill="#f2f5e9" fill-opacity="0.5" stroke="#606060" stroke-width=".5" x="0" y="0" width="60" height="60"/>
                <use id="zoomplus" xlink:href="#zoomPlus" x="17" y="9" onmousedown="handleZoom(evt,'in')"/>
                <use id="zoomminus" xlink:href="#zoomMin" x="42" y="9" onmousedown="handleZoom(evt,'out')"/>
                <use id="reset" xlink:href="#resetDef" x="30" y="36" onmousedown="handleReset()"/>
                <g id="arrowUp" xlink:href="#dirArrow" transform="translate(30 24)" onmousedown="handlePan(0,-1)">
                  <use xlink:href="#rim" fill="#404040">
                        <set attributeName="fill" to="#808080" begin="arrowUp.mouseover" end="arrowUp.mouseout"/>
                  </use>
                  <path fill="none" stroke="white" stroke-width="1.5" d="M0,-3.0v7 M-2.5,-0.5L0,-3.0L2.5,-0.5"/>
                </g>
                <g id="arrowRight" xlink:href="#dirArrow" transform="rotate(90) translate(36 -43)" onmousedown="handlePan(1,0)">
                  <use xlink:href="#rim" fill="#404040">
                        <set attributeName="fill" to="#808080" begin="arrowRight.mouseover" end="arrowRight.mouseout"/>
                  </use>
                  <path fill="none" stroke="white" stroke-width="1.5" d="M0,-3.0v7 M-2.5,-0.5L0,-3.0L2.5,-0.5"/>
                </g>
                <g id="arrowDown" xlink:href="#dirArrow" transform="rotate(180) translate(-30 -48)" onmousedown="handlePan(0,1)">
                  <use xlink:href="#rim" fill="#404040">
                        <set attributeName="fill" to="#808080" begin="arrowDown.mouseover" end="arrowDown.mouseout"/>
                  </use>
                  <path fill="none" stroke="white" stroke-width="1.5" d="M0,-3.0v7 M-2.5,-0.5L0,-3.0L2.5,-0.5"/>
                </g>
                <g id="arrowLeft" xlink:href="#dirArrow" transform="rotate(270) translate(-36 17)" onmousedown="handlePan(-1,0)">
                  <use xlink:href="#rim" fill="#404040">
                        <set attributeName="fill" to="#808080" begin="arrowLeft.mouseover" end="arrowLeft.mouseout"/>
                  </use>
                  <path fill="none" stroke="white" stroke-width="1.5" d="M0,-3.0v7 M-2.5,-0.5L0,-3.0L2.5,-0.5"/>
                </g>
        </g>
        <svg viewBox="0 0 15 15" width="100%" height="30px" preserveAspectRatio="xMaxYMin meet">
         <g id="arrow_out" transform="scale(0.3 0.3)">
          <a xlink:href="structnetcdf__io__mod_1_1fmsnetcdffile__t__coll__graph_org.svg" target="_base">
           <rect id="button" ry="5" rx="5" y="6" x="6" height="38" width="38"
                fill="#f2f5e9" fill-opacity="0.5" stroke="#606060" stroke-width="1.0"/>
           <path id="arrow"
             d="M 11.500037,31.436501 C 11.940474,20.09759 22.043105,11.32322 32.158766,21.979434 L 37.068811,17.246167 C 37.068811,17.246167 37.088388,32 37.088388,32 L 22.160133,31.978069 C 22.160133,31.978069 26.997745,27.140456 26.997745,27.140456 C 18.528582,18.264221 13.291696,25.230495 11.500037,31.436501 z"
             style="fill:#404040;"/>
          </a>
         </g>
        </svg>
</svg>
