<?xml version="1.0" encoding="UTF-8" standalone="no"?>
<!DOCTYPE svg PUBLIC "-//W3C//DTD SVG 1.1//EN"
 "http://www.w3.org/Graphics/SVG/1.1/DTD/svg11.dtd">
<!-- Generated by graphviz version 2.43.0 (0)
 -->
<!-- Title: mpp_group_update_type Pages: 1 -->
<svg width="283pt" height="205pt"
 viewBox="0.00 0.00 282.50 205.00" xmlns="http://www.w3.org/2000/svg" xmlns:xlink="http://www.w3.org/1999/xlink">
<g id="graph0" class="graph" transform="scale(1 1) rotate(0) translate(4 201)">
<title>mpp_group_update_type</title>
<polygon fill="white" stroke="transparent" points="-4,4 -4,-201 278.5,-201 278.5,4 -4,4"/>
<!-- Node1 -->
<g id="node1" class="node">
<title>Node1</title>
<g id="a_node1"><a xlink:title="used for updates on a group">
<polygon fill="#bfbfbf" stroke="black" points="49,-0.5 49,-19.5 186,-19.5 186,-0.5 49,-0.5"/>
<text text-anchor="middle" x="117.5" y="-7.5" font-family="Helvetica,sans-Serif" font-size="10.00">mpp_group_update_type</text>
</a>
</g>
</g>
<!-- Node2 -->
<g id="node2" class="node">
<title>Node2</title>
<g id="a_node2"><a xlink:title=" ">
<polygon fill="white" stroke="#bfbfbf" points="0,-177.5 0,-196.5 49,-196.5 49,-177.5 0,-177.5"/>
<text text-anchor="middle" x="24.5" y="-184.5" font-family="Helvetica,sans-Serif" font-size="10.00">logical</text>
</a>
</g>
</g>
<!-- Node2&#45;&gt;Node1 -->
<g id="edge1" class="edge">
<title>Node2&#45;&gt;Node1</title>
<path fill="none" stroke="#9a32cd" stroke-dasharray="5,2" d="M21.25,-167.4C17.03,-136.85 13.38,-75.68 43.5,-38 50.33,-29.45 60.12,-23.61 70.35,-19.62"/>
<polygon fill="#9a32cd" stroke="#9a32cd" points="17.83,-168.16 22.83,-177.5 24.74,-167.08 17.83,-168.16"/>
<text text-anchor="middle" x="78.5" y="-123.5" font-family="Helvetica,sans-Serif" font-size="10.00"> k_loop_inside</text>
<text text-anchor="middle" x="78.5" y="-112.5" font-family="Helvetica,sans-Serif" font-size="10.00">recv_s</text>
<text text-anchor="middle" x="78.5" y="-101.5" font-family="Helvetica,sans-Serif" font-size="10.00">nonsym_edge</text>
<text text-anchor="middle" x="78.5" y="-90.5" font-family="Helvetica,sans-Serif" font-size="10.00">recv_x</text>
<text text-anchor="middle" x="78.5" y="-79.5" font-family="Helvetica,sans-Serif" font-size="10.00">initialized</text>
<text text-anchor="middle" x="78.5" y="-68.5" font-family="Helvetica,sans-Serif" font-size="10.00">recv_y</text>
</g>
<!-- Node3 -->
<g id="node3" class="node">
<title>Node3</title>
<g id="a_node3"><a xlink:title=" ">
<polygon fill="white" stroke="#bfbfbf" points="70.5,-177.5 70.5,-196.5 164.5,-196.5 164.5,-177.5 70.5,-177.5"/>
<text text-anchor="middle" x="117.5" y="-184.5" font-family="Helvetica,sans-Serif" font-size="10.00">integer(i8_kind)</text>
</a>
</g>
</g>
<!-- Node3&#45;&gt;Node1 -->
<g id="edge2" class="edge">
<title>Node3&#45;&gt;Node1</title>
<path fill="none" stroke="#9a32cd" stroke-dasharray="5,2" d="M117.5,-166.95C117.5,-129.3 117.5,-46.65 117.5,-19.69"/>
<polygon fill="#9a32cd" stroke="#9a32cd" points="114,-167.08 117.5,-177.08 121,-167.08 114,-167.08"/>
<text text-anchor="middle" x="138.5" y="-107" font-family="Helvetica,sans-Serif" font-size="10.00"> addrs_y</text>
<text text-anchor="middle" x="138.5" y="-96" font-family="Helvetica,sans-Serif" font-size="10.00">addrs_s</text>
<text text-anchor="middle" x="138.5" y="-85" font-family="Helvetica,sans-Serif" font-size="10.00">addrs_x</text>
</g>
<!-- Node4 -->
<g id="node4" class="node">
<title>Node4</title>
<g id="a_node4"><a xlink:title=" ">
<polygon fill="white" stroke="#bfbfbf" points="183,-177.5 183,-196.5 234,-196.5 234,-177.5 183,-177.5"/>
<text text-anchor="middle" x="208.5" y="-184.5" font-family="Helvetica,sans-Serif" font-size="10.00">integer</text>
</a>
</g>
</g>
<!-- Node4&#45;&gt;Node1 -->
<g id="edge3" class="edge">
<title>Node4&#45;&gt;Node1</title>
<path fill="none" stroke="#9a32cd" stroke-dasharray="5,2" d="M207.15,-167.32C204.1,-137.14 194.31,-77.09 163.5,-38 157.19,-30 147.81,-23.89 139.17,-19.52"/>
<polygon fill="#9a32cd" stroke="#9a32cd" points="203.67,-167.66 208.02,-177.32 210.64,-167.06 203.67,-167.66"/>
<text text-anchor="middle" x="240" y="-151" font-family="Helvetica,sans-Serif" font-size="10.00"> request_send</text>
<text text-anchor="middle" x="240" y="-140" font-family="Helvetica,sans-Serif" font-size="10.00">js_x</text>
<text text-anchor="middle" x="240" y="-129" font-family="Helvetica,sans-Serif" font-size="10.00">from_pe</text>
<text text-anchor="middle" x="240" y="-118" font-family="Helvetica,sans-Serif" font-size="10.00">npack</text>
<text text-anchor="middle" x="240" y="-107" font-family="Helvetica,sans-Serif" font-size="10.00">nsend</text>
<text text-anchor="middle" x="240" y="-96" font-family="Helvetica,sans-Serif" font-size="10.00">js_y</text>
<text text-anchor="middle" x="240" y="-85" font-family="Helvetica,sans-Serif" font-size="10.00">is_x</text>
<text text-anchor="middle" x="240" y="-74" font-family="Helvetica,sans-Serif" font-size="10.00">is_y</text>
<text text-anchor="middle" x="240" y="-63" font-family="Helvetica,sans-Serif" font-size="10.00">nhalo_s</text>
<text text-anchor="middle" x="240" y="-52" font-family="Helvetica,sans-Serif" font-size="10.00">flags_v</text>
<text text-anchor="middle" x="240" y="-41" font-family="Helvetica,sans-Serif" font-size="10.00">...</text>
</g>
</g>
</svg>
