<?xml version="1.0" encoding="UTF-8" standalone="no"?>
<!DOCTYPE svg PUBLIC "-//W3C//DTD SVG 1.1//EN"
 "http://www.w3.org/Graphics/SVG/1.1/DTD/svg11.dtd">
<!-- Generated by graphviz version 2.43.0 (0)
 -->
<!-- Title: method_type Pages: 1 -->
<svg width="168pt" height="117pt"
 viewBox="0.00 0.00 168.00 117.00" xmlns="http://www.w3.org/2000/svg" xmlns:xlink="http://www.w3.org/1999/xlink">
<g id="graph0" class="graph" transform="scale(1 1) rotate(0) translate(4 113)">
<title>method_type</title>
<polygon fill="white" stroke="transparent" points="-4,4 -4,-113 164,-113 164,4 -4,4"/>
<!-- Node1 -->
<g id="node1" class="node">
<title>Node1</title>
<g id="a_node1"><a xlink:title="This method_type is a way to allow a component module to alter the parameters it needs for various tr...">
<polygon fill="#bfbfbf" stroke="black" points="39.5,-0.5 39.5,-19.5 120.5,-19.5 120.5,-0.5 39.5,-0.5"/>
<text text-anchor="middle" x="80" y="-7.5" font-family="Helvetica,sans-Serif" font-size="10.00">method_type</text>
</a>
</g>
</g>
<!-- Node2 -->
<g id="node2" class="node">
<title>Node2</title>
<g id="a_node2"><a xlink:title=" ">
<polygon fill="white" stroke="#bfbfbf" points="0,-89.5 0,-108.5 160,-108.5 160,-89.5 0,-89.5"/>
<text text-anchor="middle" x="80" y="-96.5" font-family="Helvetica,sans-Serif" font-size="10.00">character(len=fm_string_len)</text>
</a>
</g>
</g>
<!-- Node2&#45;&gt;Node1 -->
<g id="edge1" class="edge">
<title>Node2&#45;&gt;Node1</title>
<path fill="none" stroke="#9a32cd" stroke-dasharray="5,2" d="M80,-79.19C80,-60.74 80,-33.41 80,-19.62"/>
<polygon fill="#9a32cd" stroke="#9a32cd" points="76.5,-79.34 80,-89.34 83.5,-79.34 76.5,-79.34"/>
<text text-anchor="middle" x="120" y="-63" font-family="Helvetica,sans-Serif" font-size="10.00"> method_control</text>
<text text-anchor="middle" x="120" y="-52" font-family="Helvetica,sans-Serif" font-size="10.00">method_name</text>
<text text-anchor="middle" x="120" y="-41" font-family="Helvetica,sans-Serif" font-size="10.00">method_type</text>
</g>
</g>
</svg>
