<?xml version="1.0" encoding="UTF-8" standalone="no"?>
<!DOCTYPE svg PUBLIC "-//W3C//DTD SVG 1.1//EN"
 "http://www.w3.org/Graphics/SVG/1.1/DTD/svg11.dtd">
<!-- Generated by graphviz version 2.43.0 (0)
 -->
<!-- Title: fmmodel_t Pages: 1 -->
<svg width="481pt" height="319pt"
 viewBox="0.00 0.00 480.94 319.00" xmlns="http://www.w3.org/2000/svg" xmlns:xlink="http://www.w3.org/1999/xlink">
<g id="graph0" class="graph" transform="scale(1 1) rotate(0) translate(4 315)">
<title>fmmodel_t</title>
<polygon fill="white" stroke="transparent" points="-4,4 -4,-315 476.94,-315 476.94,4 -4,4"/>
<!-- Node1 -->
<g id="node1" class="node">
<title>Node1</title>
<g id="a_node1"><a xlink:title="This type represents the entries for a given model, e.g. land, ocean, atmosphere. This type contains ...">
<polygon fill="#bfbfbf" stroke="black" points="156.94,-0.5 156.94,-19.5 226.94,-19.5 226.94,-0.5 156.94,-0.5"/>
<text text-anchor="middle" x="191.94" y="-7.5" font-family="Helvetica,sans-Serif" font-size="10.00">fmmodel_t</text>
</a>
</g>
</g>
<!-- Node2 -->
<g id="node2" class="node">
<title>Node2</title>
<g id="a_node2"><a xlink:title=" ">
<polygon fill="white" stroke="#bfbfbf" points="20.94,-286 20.94,-305 176.94,-305 176.94,-286 20.94,-286"/>
<text text-anchor="middle" x="98.94" y="-293" font-family="Helvetica,sans-Serif" font-size="10.00">character(len=:), allocatable</text>
</a>
</g>
</g>
<!-- Node2&#45;&gt;Node1 -->
<g id="edge1" class="edge">
<title>Node2&#45;&gt;Node1</title>
<path fill="none" stroke="#9a32cd" stroke-dasharray="5,2" d="M70.29,-281.18C48.19,-269.17 19.22,-249.2 5.94,-222 -4.79,-200.04 1.96,-191.12 5.94,-167 10.66,-138.29 9.04,-127.94 26.94,-105 62.53,-59.38 126.87,-32.13 163.81,-19.51"/>
<polygon fill="#9a32cd" stroke="#9a32cd" points="68.78,-284.35 79.27,-285.84 72.01,-278.13 68.78,-284.35"/>
<text text-anchor="middle" x="42.44" y="-124.5" font-family="Helvetica,sans-Serif" font-size="10.00"> name</text>
</g>
<!-- Node4 -->
<g id="node4" class="node">
<title>Node4</title>
<g id="a_node4"><a xlink:href="group__fm__yaml__mod.html#structfm__yaml__mod_1_1fmvar__t" target="_top" xlink:title="This type represents the entries for a given variable, e.g. dust. This type contains the name of the ...">
<polygon fill="white" stroke="black" points="212.44,-67.5 212.44,-86.5 267.44,-86.5 267.44,-67.5 212.44,-67.5"/>
<text text-anchor="middle" x="239.94" y="-74.5" font-family="Helvetica,sans-Serif" font-size="10.00">fmvar_t</text>
</a>
</g>
</g>
<!-- Node2&#45;&gt;Node4 -->
<g id="edge9" class="edge">
<title>Node2&#45;&gt;Node4</title>
<path fill="none" stroke="#9a32cd" stroke-dasharray="5,2" d="M110.13,-277.31C138.64,-233.53 213.24,-118.99 234.32,-86.63"/>
<polygon fill="#9a32cd" stroke="#9a32cd" points="107.16,-275.46 104.64,-285.74 113.03,-279.28 107.16,-275.46"/>
<text text-anchor="middle" x="196.44" y="-192" font-family="Helvetica,sans-Serif" font-size="10.00"> name</text>
</g>
<!-- Node5 -->
<g id="node5" class="node">
<title>Node5</title>
<g id="a_node5"><a xlink:href="group__fm__yaml__mod.html#structfm__yaml__mod_1_1fmattr__t" target="_top" xlink:title="This type represents the subparameters for a given variable parameter. This type contains the name of...">
<polygon fill="white" stroke="black" points="293.94,-185 293.94,-204 349.94,-204 349.94,-185 293.94,-185"/>
<text text-anchor="middle" x="321.94" y="-192" font-family="Helvetica,sans-Serif" font-size="10.00">fmattr_t</text>
</a>
</g>
</g>
<!-- Node2&#45;&gt;Node5 -->
<g id="edge5" class="edge">
<title>Node2&#45;&gt;Node5</title>
<path fill="none" stroke="#9a32cd" stroke-dasharray="5,2" d="M123.15,-280.98C145.43,-268.96 179.66,-251.56 210.94,-240 240.66,-229.01 250.86,-234.6 279.94,-222 290.85,-217.27 302.2,-209.94 310.35,-204.18"/>
<polygon fill="#9a32cd" stroke="#9a32cd" points="121.19,-278.06 114.09,-285.92 124.55,-284.21 121.19,-278.06"/>
<text text-anchor="middle" x="242.44" y="-248.5" font-family="Helvetica,sans-Serif" font-size="10.00"> paramname</text>
</g>
<!-- Node3 -->
<g id="node3" class="node">
<title>Node3</title>
<g id="a_node3"><a xlink:title=" ">
<polygon fill="white" stroke="#bfbfbf" points="95.44,-67.5 95.44,-86.5 194.44,-86.5 194.44,-67.5 95.44,-67.5"/>
<text text-anchor="middle" x="144.94" y="-74.5" font-family="Helvetica,sans-Serif" font-size="10.00">character(len=7)</text>
</a>
</g>
</g>
<!-- Node3&#45;&gt;Node1 -->
<g id="edge2" class="edge">
<title>Node3&#45;&gt;Node1</title>
<path fill="none" stroke="#9a32cd" stroke-dasharray="5,2" d="M146.03,-57.36C147.12,-50.81 149.16,-43.68 152.94,-38 158.04,-30.32 166.14,-24.19 173.64,-19.73"/>
<polygon fill="#9a32cd" stroke="#9a32cd" points="142.53,-57.15 144.96,-67.46 149.5,-57.88 142.53,-57.15"/>
<text text-anchor="middle" x="181.94" y="-41" font-family="Helvetica,sans-Serif" font-size="10.00"> blockname</text>
</g>
<!-- Node4&#45;&gt;Node1 -->
<g id="edge3" class="edge">
<title>Node4&#45;&gt;Node1</title>
<path fill="none" stroke="#9a32cd" stroke-dasharray="5,2" d="M227.31,-58.9C217.98,-46.27 205.67,-29.6 198.31,-19.63"/>
<polygon fill="#9a32cd" stroke="#9a32cd" points="224.71,-61.27 233.46,-67.23 230.34,-57.11 224.71,-61.27"/>
<text text-anchor="middle" x="239.44" y="-41" font-family="Helvetica,sans-Serif" font-size="10.00"> children</text>
</g>
<!-- Node5&#45;&gt;Node4 -->
<g id="edge4" class="edge">
<title>Node5&#45;&gt;Node4</title>
<path fill="none" stroke="#9a32cd" stroke-dasharray="5,2" d="M309.76,-176.34C292.02,-151.36 259.71,-105.86 246.17,-86.78"/>
<polygon fill="#9a32cd" stroke="#9a32cd" points="307.13,-178.69 315.77,-184.82 312.84,-174.64 307.13,-178.69"/>
<text text-anchor="middle" x="309.44" y="-124.5" font-family="Helvetica,sans-Serif" font-size="10.00"> children</text>
</g>
<!-- Node6 -->
<g id="node6" class="node">
<title>Node6</title>
<g id="a_node6"><a xlink:title=" ">
<polygon fill="white" stroke="#bfbfbf" points="195.44,-280.5 195.44,-310.5 348.44,-310.5 348.44,-280.5 195.44,-280.5"/>
<text text-anchor="start" x="203.44" y="-298.5" font-family="Helvetica,sans-Serif" font-size="10.00">character(len=:), dimension</text>
<text text-anchor="middle" x="271.94" y="-287.5" font-family="Helvetica,sans-Serif" font-size="10.00">(:), allocatable</text>
</a>
</g>
</g>
<!-- Node6&#45;&gt;Node4 -->
<g id="edge10" class="edge">
<title>Node6&#45;&gt;Node4</title>
<path fill="none" stroke="#9a32cd" stroke-dasharray="5,2" d="M262.71,-270.55C257.75,-256.6 252.03,-238.55 248.94,-222 239.45,-171.28 239.4,-108.94 239.75,-86.53"/>
<polygon fill="#9a32cd" stroke="#9a32cd" points="259.56,-272.14 266.3,-280.32 266.13,-269.73 259.56,-272.14"/>
<text text-anchor="middle" x="266.94" y="-197.5" font-family="Helvetica,sans-Serif" font-size="10.00"> values</text>
<text text-anchor="middle" x="266.94" y="-186.5" font-family="Helvetica,sans-Serif" font-size="10.00">keys</text>
</g>
<!-- Node6&#45;&gt;Node5 -->
<g id="edge6" class="edge">
<title>Node6&#45;&gt;Node5</title>
<path fill="none" stroke="#9a32cd" stroke-dasharray="5,2" d="M276.44,-270.19C278.79,-260.48 282.19,-249.39 286.94,-240 293.85,-226.31 305.33,-212.78 313.25,-204.3"/>
<polygon fill="#9a32cd" stroke="#9a32cd" points="273,-269.53 274.29,-280.04 279.84,-271.02 273,-269.53"/>
<text text-anchor="middle" x="304.94" y="-254" font-family="Helvetica,sans-Serif" font-size="10.00"> values</text>
<text text-anchor="middle" x="304.94" y="-243" font-family="Helvetica,sans-Serif" font-size="10.00">keys</text>
</g>
<!-- Node7 -->
<g id="node7" class="node">
<title>Node7</title>
<g id="a_node7"><a xlink:title=" ">
<polygon fill="white" stroke="#bfbfbf" points="366.44,-286 366.44,-305 417.44,-305 417.44,-286 366.44,-286"/>
<text text-anchor="middle" x="391.94" y="-293" font-family="Helvetica,sans-Serif" font-size="10.00">integer</text>
</a>
</g>
</g>
<!-- Node7&#45;&gt;Node1 -->
<g id="edge12" class="edge">
<title>Node7&#45;&gt;Node1</title>
<path fill="none" stroke="#9a32cd" stroke-dasharray="5,2" d="M405.92,-277.93C424.96,-253.22 454.76,-205.52 436.94,-167 396.81,-80.28 281.84,-36.46 224.82,-19.56"/>
<polygon fill="#9a32cd" stroke="#9a32cd" points="403.03,-275.94 399.5,-285.93 408.48,-280.32 403.03,-275.94"/>
<text text-anchor="middle" x="449.94" y="-141" font-family="Helvetica,sans-Serif" font-size="10.00"> child_ids</text>
<text text-anchor="middle" x="449.94" y="-130" font-family="Helvetica,sans-Serif" font-size="10.00">yfid</text>
<text text-anchor="middle" x="449.94" y="-119" font-family="Helvetica,sans-Serif" font-size="10.00">nchildren</text>
<text text-anchor="middle" x="449.94" y="-108" font-family="Helvetica,sans-Serif" font-size="10.00">id</text>
</g>
<!-- Node7&#45;&gt;Node4 -->
<g id="edge11" class="edge">
<title>Node7&#45;&gt;Node4</title>
<path fill="none" stroke="#9a32cd" stroke-dasharray="5,2" d="M392.21,-275.48C391.66,-237.12 384.63,-150.31 334.94,-105 316.56,-88.25 288.52,-81.81 267.66,-79.38"/>
<polygon fill="#9a32cd" stroke="#9a32cd" points="388.71,-275.73 392.21,-285.73 395.71,-275.73 388.71,-275.73"/>
<text text-anchor="middle" x="409.94" y="-214" font-family="Helvetica,sans-Serif" font-size="10.00"> key_ids</text>
<text text-anchor="middle" x="409.94" y="-203" font-family="Helvetica,sans-Serif" font-size="10.00">child_ids</text>
<text text-anchor="middle" x="409.94" y="-192" font-family="Helvetica,sans-Serif" font-size="10.00">yfid</text>
<text text-anchor="middle" x="409.94" y="-181" font-family="Helvetica,sans-Serif" font-size="10.00">nchildren</text>
<text text-anchor="middle" x="409.94" y="-170" font-family="Helvetica,sans-Serif" font-size="10.00">id</text>
</g>
<!-- Node7&#45;&gt;Node5 -->
<g id="edge7" class="edge">
<title>Node7&#45;&gt;Node5</title>
<path fill="none" stroke="#9a32cd" stroke-dasharray="5,2" d="M368.85,-279.99C362.1,-274.92 355.15,-268.78 349.94,-262 336.04,-243.92 327.75,-217.94 324.12,-204.43"/>
<polygon fill="#9a32cd" stroke="#9a32cd" points="366.94,-282.93 377.14,-285.8 370.96,-277.19 366.94,-282.93"/>
<text text-anchor="middle" x="360.94" y="-254" font-family="Helvetica,sans-Serif" font-size="10.00"> yfid</text>
<text text-anchor="middle" x="360.94" y="-243" font-family="Helvetica,sans-Serif" font-size="10.00">id</text>
</g>
<!-- Node8 -->
<g id="node8" class="node">
<title>Node8</title>
<g id="a_node8"><a xlink:title=" ">
<polygon fill="white" stroke="#bfbfbf" points="15.44,-185 15.44,-204 114.44,-204 114.44,-185 15.44,-185"/>
<text text-anchor="middle" x="64.94" y="-192" font-family="Helvetica,sans-Serif" font-size="10.00">character(len=9)</text>
</a>
</g>
</g>
<!-- Node8&#45;&gt;Node4 -->
<g id="edge8" class="edge">
<title>Node8&#45;&gt;Node4</title>
<path fill="none" stroke="#9a32cd" stroke-dasharray="5,2" d="M62.07,-174.9C60.12,-154.75 60.61,-123.07 78.94,-105 98.92,-85.29 176.4,-92.41 203.94,-87 206.59,-86.48 209.34,-85.89 212.09,-85.26"/>
<polygon fill="#9a32cd" stroke="#9a32cd" points="58.62,-175.51 63.35,-184.99 65.57,-174.63 58.62,-175.51"/>
<text text-anchor="middle" x="107.94" y="-124.5" font-family="Helvetica,sans-Serif" font-size="10.00"> blockname</text>
</g>
</g>
</svg>
