<?xml version="1.0" encoding="UTF-8" standalone="no"?>
<!DOCTYPE svg PUBLIC "-//W3C//DTD SVG 1.1//EN"
 "http://www.w3.org/Graphics/SVG/1.1/DTD/svg11.dtd">
<!-- Generated by graphviz version 2.43.0 (0)
 -->
<!-- Title: diag_axis_type Pages: 1 -->
<svg width="1095pt" height="1065pt"
 viewBox="0.00 0.00 1095.00 1065.26" xmlns="http://www.w3.org/2000/svg" xmlns:xlink="http://www.w3.org/1999/xlink">
<g id="graph0" class="graph" transform="scale(1 1) rotate(0) translate(4 1061.26)">
<title>diag_axis_type</title>
<polygon fill="white" stroke="transparent" points="-4,4 -4,-1061.26 1091,-1061.26 1091,4 -4,4"/>
<!-- Node1 -->
<g id="node1" class="node">
<title>Node1</title>
<g id="a_node1"><a xlink:title="Type to hold the diagnostic axis description.">
<polygon fill="#bfbfbf" stroke="black" points="997,-169.76 997,-188.76 1087,-188.76 1087,-169.76 997,-169.76"/>
<text text-anchor="middle" x="1042" y="-176.76" font-family="Helvetica,sans-Serif" font-size="10.00">diag_axis_type</text>
</a>
</g>
</g>
<!-- Node2 -->
<g id="node2" class="node">
<title>Node2</title>
<g id="a_node2"><a xlink:href="group__mpp__domains__mod.html#structmpp__domains__mod_1_1domain1d" target="_top" xlink:title="One dimensional domain used to manage shared data access between pes.">
<polygon fill="white" stroke="black" points="371,-895.76 371,-914.76 436,-914.76 436,-895.76 371,-895.76"/>
<text text-anchor="middle" x="403.5" y="-902.76" font-family="Helvetica,sans-Serif" font-size="10.00">domain1d</text>
</a>
</g>
</g>
<!-- Node2&#45;&gt;Node1 -->
<g id="edge1" class="edge">
<title>Node2&#45;&gt;Node1</title>
<path fill="none" stroke="#9a32cd" stroke-dasharray="5,2" d="M446.24,-914.01C503.55,-923.81 608.25,-933.62 685,-894.26 874.07,-797.31 892,-711.11 979,-517.26 1033.35,-396.16 1040.06,-230.24 1040.89,-188.89"/>
<polygon fill="#9a32cd" stroke="#9a32cd" points="446.56,-910.52 436.1,-912.19 445.33,-917.41 446.56,-910.52"/>
<text text-anchor="middle" x="723" y="-885.26" font-family="Helvetica,sans-Serif" font-size="10.00"> domain</text>
</g>
<!-- Node2&#45;&gt;Node2 -->
<g id="edge3" class="edge">
<title>Node2&#45;&gt;Node2</title>
<path fill="none" stroke="#9a32cd" stroke-dasharray="5,2" d="M386.09,-924.66C387.26,-929.58 393.06,-933.26 403.5,-933.26 420.21,-933.26 425.04,-923.83 417.99,-915.02"/>
<polygon fill="#9a32cd" stroke="#9a32cd" points="389.47,-925.6 389.01,-915.02 382.77,-923.58 389.47,-925.6"/>
<text text-anchor="middle" x="403.5" y="-936.26" font-family="Helvetica,sans-Serif" font-size="10.00"> list</text>
</g>
<!-- Node11 -->
<g id="node11" class="node">
<title>Node11</title>
<g id="a_node11"><a xlink:href="group__mpp__domains__mod.html#structmpp__domains__mod_1_1domain2d" target="_top" xlink:title="The domain2D type contains all the necessary information to define the global, compute and data domai...">
<polygon fill="white" stroke="black" points="784,-585.76 784,-604.76 849,-604.76 849,-585.76 784,-585.76"/>
<text text-anchor="middle" x="816.5" y="-592.76" font-family="Helvetica,sans-Serif" font-size="10.00">domain2d</text>
</a>
</g>
</g>
<!-- Node2&#45;&gt;Node11 -->
<g id="edge16" class="edge">
<title>Node2&#45;&gt;Node11</title>
<path fill="none" stroke="#9a32cd" stroke-dasharray="5,2" d="M446.08,-899.86C504.9,-890.38 613.2,-865.97 685,-808.26 758.01,-749.58 800.72,-638.28 812.29,-604.94"/>
<polygon fill="#9a32cd" stroke="#9a32cd" points="445.39,-896.42 436.04,-901.41 446.46,-903.34 445.39,-896.42"/>
<text text-anchor="middle" x="626.5" y="-882.26" font-family="Helvetica,sans-Serif" font-size="10.00"> x</text>
<text text-anchor="middle" x="626.5" y="-871.26" font-family="Helvetica,sans-Serif" font-size="10.00">y</text>
</g>
<!-- Node3 -->
<g id="node3" class="node">
<title>Node3</title>
<g id="a_node3"><a xlink:title=" ">
<polygon fill="white" stroke="#bfbfbf" points="1,-948.76 1,-967.76 50,-967.76 50,-948.76 1,-948.76"/>
<text text-anchor="middle" x="25.5" y="-955.76" font-family="Helvetica,sans-Serif" font-size="10.00">logical</text>
</a>
</g>
</g>
<!-- Node3&#45;&gt;Node2 -->
<g id="edge2" class="edge">
<title>Node3&#45;&gt;Node2</title>
<path fill="none" stroke="#9a32cd" stroke-dasharray="5,2" d="M59.76,-969.45C62.86,-970.18 65.97,-970.81 69,-971.26 98.89,-975.73 106.86,-973.42 137,-971.26 192.99,-967.25 207.43,-966.39 262,-953.26 304.1,-943.13 351.45,-925.62 379.03,-914.79"/>
<polygon fill="#9a32cd" stroke="#9a32cd" points="60.61,-966.05 50.04,-966.82 58.78,-972.81 60.61,-966.05"/>
<text text-anchor="middle" x="208.5" y="-972.26" font-family="Helvetica,sans-Serif" font-size="10.00"> cyclic</text>
</g>
<!-- Node4 -->
<g id="node4" class="node">
<title>Node4</title>
<g id="a_node4"><a xlink:href="group__mpp__domains__mod.html#structmpp__domains__mod_1_1domain__axis__spec" target="_top" xlink:title="Used to specify index limits along an axis of a domain.">
<polygon fill="white" stroke="black" points="155,-811.76 155,-830.76 262,-830.76 262,-811.76 155,-811.76"/>
<text text-anchor="middle" x="208.5" y="-818.76" font-family="Helvetica,sans-Serif" font-size="10.00">domain_axis_spec</text>
</a>
</g>
</g>
<!-- Node3&#45;&gt;Node4 -->
<g id="edge5" class="edge">
<title>Node3&#45;&gt;Node4</title>
<path fill="none" stroke="#9a32cd" stroke-dasharray="5,2" d="M27.56,-938.48C30.5,-891.88 40.54,-777.4 69,-754.26 92.45,-735.19 111.84,-737.52 137,-754.26 154.25,-765.74 140.59,-782.38 155,-797.26 161,-803.45 168.89,-808.19 176.72,-811.76"/>
<polygon fill="#9a32cd" stroke="#9a32cd" points="24.06,-938.34 26.97,-948.53 31.05,-938.75 24.06,-938.34"/>
<text text-anchor="middle" x="103" y="-757.26" font-family="Helvetica,sans-Serif" font-size="10.00"> is_global</text>
</g>
<!-- Node3&#45;&gt;Node11 -->
<g id="edge15" class="edge">
<title>Node3&#45;&gt;Node11</title>
<path fill="none" stroke="#9a32cd" stroke-dasharray="5,2" d="M47.33,-973.87C54,-978.34 61.58,-982.9 69,-986.26 127.15,-1012.59 143.67,-1024.26 207.5,-1024.26 207.5,-1024.26 207.5,-1024.26 510,-1024.26 723.04,-1024.26 801.35,-668.88 813.7,-605.03"/>
<polygon fill="#9a32cd" stroke="#9a32cd" points="49.1,-970.83 38.91,-967.95 45.08,-976.56 49.1,-970.83"/>
<text text-anchor="middle" x="403.5" y="-1049.26" font-family="Helvetica,sans-Serif" font-size="10.00"> rotated_ninety</text>
<text text-anchor="middle" x="403.5" y="-1038.26" font-family="Helvetica,sans-Serif" font-size="10.00">symmetry</text>
<text text-anchor="middle" x="403.5" y="-1027.26" font-family="Helvetica,sans-Serif" font-size="10.00">initialized</text>
</g>
<!-- Node14 -->
<g id="node14" class="node">
<title>Node14</title>
<g id="a_node14"><a xlink:href="group__mpp__domains__mod.html#structmpp__domains__mod_1_1overlap__type" target="_top" xlink:title="Type for overlapping data.">
<polygon fill="white" stroke="black" points="168.5,-849.76 168.5,-868.76 248.5,-868.76 248.5,-849.76 168.5,-849.76"/>
<text text-anchor="middle" x="208.5" y="-856.76" font-family="Helvetica,sans-Serif" font-size="10.00">overlap_type</text>
</a>
</g>
</g>
<!-- Node3&#45;&gt;Node14 -->
<g id="edge21" class="edge">
<title>Node3&#45;&gt;Node14</title>
<path fill="none" stroke="#9a32cd" stroke-dasharray="5,2" d="M59.94,-948.78C83.33,-940.94 114.33,-928.03 137,-909.26 147.83,-900.3 144.22,-892.28 155,-883.26 162.15,-877.28 171.03,-872.47 179.44,-868.78"/>
<polygon fill="#9a32cd" stroke="#9a32cd" points="58.56,-945.54 50.1,-951.93 60.69,-952.21 58.56,-945.54"/>
<text text-anchor="middle" x="103" y="-947.26" font-family="Helvetica,sans-Serif" font-size="10.00"> from_contact</text>
</g>
<!-- Node4&#45;&gt;Node2 -->
<g id="edge4" class="edge">
<title>Node4&#45;&gt;Node2</title>
<path fill="none" stroke="#9a32cd" stroke-dasharray="5,2" d="M241.1,-808.04C253.06,-803.69 266.95,-799.42 280,-797.26 305.87,-792.98 316.24,-784.24 339,-797.26 376.95,-818.97 394.45,-873.17 400.22,-895.45"/>
<polygon fill="#9a32cd" stroke="#9a32cd" points="239.66,-804.84 231.56,-811.66 242.15,-811.38 239.66,-804.84"/>
<text text-anchor="middle" x="309.5" y="-833.26" font-family="Helvetica,sans-Serif" font-size="10.00"> memory</text>
<text text-anchor="middle" x="309.5" y="-822.26" font-family="Helvetica,sans-Serif" font-size="10.00">global</text>
<text text-anchor="middle" x="309.5" y="-811.26" font-family="Helvetica,sans-Serif" font-size="10.00">compute</text>
<text text-anchor="middle" x="309.5" y="-800.26" font-family="Helvetica,sans-Serif" font-size="10.00">data</text>
</g>
<!-- Node16 -->
<g id="node16" class="node">
<title>Node16</title>
<g id="a_node16"><a xlink:href="group__mpp__domains__mod.html#structmpp__domains__mod_1_1domain1d__spec" target="_top" xlink:title="A private type used to specify index limits for a domain decomposition.">
<polygon fill="white" stroke="black" points="357,-661.76 357,-680.76 450,-680.76 450,-661.76 357,-661.76"/>
<text text-anchor="middle" x="403.5" y="-668.76" font-family="Helvetica,sans-Serif" font-size="10.00">domain1d_spec</text>
</a>
</g>
</g>
<!-- Node4&#45;&gt;Node16 -->
<g id="edge27" class="edge">
<title>Node4&#45;&gt;Node16</title>
<path fill="none" stroke="#9a32cd" stroke-dasharray="5,2" d="M248.15,-807.15C253.14,-804.34 257.92,-801.06 262,-797.26 274.22,-785.87 269.86,-777.54 280,-764.26 308.81,-726.54 317.31,-716.29 357,-690.26 362.44,-686.69 368.66,-683.57 374.72,-680.94"/>
<polygon fill="#9a32cd" stroke="#9a32cd" points="246.42,-804.1 239.04,-811.71 249.55,-810.36 246.42,-804.1"/>
<text text-anchor="middle" x="309.5" y="-778.26" font-family="Helvetica,sans-Serif" font-size="10.00"> global</text>
<text text-anchor="middle" x="309.5" y="-767.26" font-family="Helvetica,sans-Serif" font-size="10.00">compute</text>
</g>
<!-- Node5 -->
<g id="node5" class="node">
<title>Node5</title>
<g id="a_node5"><a xlink:title=" ">
<polygon fill="white" stroke="#bfbfbf" points="0,-592.76 0,-611.76 51,-611.76 51,-592.76 0,-592.76"/>
<text text-anchor="middle" x="25.5" y="-599.76" font-family="Helvetica,sans-Serif" font-size="10.00">integer</text>
</a>
</g>
</g>
<!-- Node5&#45;&gt;Node1 -->
<g id="edge37" class="edge">
<title>Node5&#45;&gt;Node1</title>
<path fill="none" stroke="#9a32cd" stroke-dasharray="5,2" d="M26.94,-582.33C28.64,-549.61 36.21,-483.9 69,-441.26 95.81,-406.39 113.78,-407.62 155,-392.26 287.89,-342.74 327.7,-350.89 468,-330.26 563.86,-316.16 589.21,-323.84 685,-309.26 768.93,-296.49 789.52,-290.4 872,-270.26 919.98,-258.55 936.27,-265.03 979,-240.26 1002.25,-226.78 1023.15,-202.56 1033.72,-189.05"/>
<polygon fill="#9a32cd" stroke="#9a32cd" points="23.44,-582.3 26.56,-592.43 30.43,-582.57 23.44,-582.3"/>
<text text-anchor="middle" x="509" y="-443.26" font-family="Helvetica,sans-Serif" font-size="10.00"> tile_count</text>
<text text-anchor="middle" x="509" y="-432.26" font-family="Helvetica,sans-Serif" font-size="10.00">domain_position</text>
<text text-anchor="middle" x="509" y="-421.26" font-family="Helvetica,sans-Serif" font-size="10.00">end</text>
<text text-anchor="middle" x="509" y="-410.26" font-family="Helvetica,sans-Serif" font-size="10.00">num_attributes</text>
<text text-anchor="middle" x="509" y="-399.26" font-family="Helvetica,sans-Serif" font-size="10.00">length</text>
<text text-anchor="middle" x="509" y="-388.26" font-family="Helvetica,sans-Serif" font-size="10.00">direction</text>
<text text-anchor="middle" x="509" y="-377.26" font-family="Helvetica,sans-Serif" font-size="10.00">shift</text>
<text text-anchor="middle" x="509" y="-366.26" font-family="Helvetica,sans-Serif" font-size="10.00">set</text>
<text text-anchor="middle" x="509" y="-355.26" font-family="Helvetica,sans-Serif" font-size="10.00">start</text>
<text text-anchor="middle" x="509" y="-344.26" font-family="Helvetica,sans-Serif" font-size="10.00">edges</text>
<text text-anchor="middle" x="509" y="-333.26" font-family="Helvetica,sans-Serif" font-size="10.00">...</text>
</g>
<!-- Node5&#45;&gt;Node2 -->
<g id="edge7" class="edge">
<title>Node5&#45;&gt;Node2</title>
<path fill="none" stroke="#9a32cd" stroke-dasharray="5,2" d="M27.47,-622.17C31.08,-691.88 44.75,-921.84 69,-943.26 91.65,-963.27 111.46,-959.42 137,-943.26 152.79,-933.27 139.21,-915.25 155,-905.26 189.95,-883.15 312.28,-894.29 370.82,-901.18"/>
<polygon fill="#9a32cd" stroke="#9a32cd" points="30.96,-621.9 26.96,-612.09 23.97,-622.25 30.96,-621.9"/>
<text text-anchor="middle" x="208.5" y="-941.26" font-family="Helvetica,sans-Serif" font-size="10.00"> pe</text>
<text text-anchor="middle" x="208.5" y="-930.26" font-family="Helvetica,sans-Serif" font-size="10.00">goffset</text>
<text text-anchor="middle" x="208.5" y="-919.26" font-family="Helvetica,sans-Serif" font-size="10.00">pos</text>
<text text-anchor="middle" x="208.5" y="-908.26" font-family="Helvetica,sans-Serif" font-size="10.00">loffset</text>
</g>
<!-- Node5&#45;&gt;Node4 -->
<g id="edge6" class="edge">
<title>Node5&#45;&gt;Node4</title>
<path fill="none" stroke="#9a32cd" stroke-dasharray="5,2" d="M35.52,-620.91C42.89,-634.49 54.47,-652.5 69,-664.26 94.41,-684.82 116.58,-666.74 137,-692.26 166.59,-729.23 126.12,-759.74 155,-797.26 159.83,-803.54 166.68,-808.22 173.84,-811.71"/>
<polygon fill="#9a32cd" stroke="#9a32cd" points="38.59,-619.24 30.9,-611.95 32.37,-622.44 38.59,-619.24"/>
<text text-anchor="middle" x="103" y="-728.26" font-family="Helvetica,sans-Serif" font-size="10.00"> max_size</text>
<text text-anchor="middle" x="103" y="-717.26" font-family="Helvetica,sans-Serif" font-size="10.00">size</text>
<text text-anchor="middle" x="103" y="-706.26" font-family="Helvetica,sans-Serif" font-size="10.00">begin</text>
<text text-anchor="middle" x="103" y="-695.26" font-family="Helvetica,sans-Serif" font-size="10.00">end</text>
</g>
<!-- Node7 -->
<g id="node7" class="node">
<title>Node7</title>
<g id="a_node7"><a xlink:href="group__diag__data__mod.html#structdiag__data__mod_1_1diag__atttype" target="_top" xlink:title="Attribute type for diagnostic fields.">
<polygon fill="white" stroke="black" points="777.5,-241.76 777.5,-260.76 855.5,-260.76 855.5,-241.76 777.5,-241.76"/>
<text text-anchor="middle" x="816.5" y="-248.76" font-family="Helvetica,sans-Serif" font-size="10.00">diag_atttype</text>
</a>
</g>
</g>
<!-- Node5&#45;&gt;Node7 -->
<g id="edge13" class="edge">
<title>Node5&#45;&gt;Node7</title>
<path fill="none" stroke="#9a32cd" stroke-dasharray="5,2" d="M27.16,-582.61C29.36,-528.46 38.16,-378.67 69,-342.26 111.02,-292.66 142.5,-295.26 207.5,-295.26 207.5,-295.26 207.5,-295.26 627.5,-295.26 687.5,-295.26 755.51,-273.75 790.99,-260.81"/>
<polygon fill="#9a32cd" stroke="#9a32cd" points="23.66,-582.52 26.78,-592.64 30.65,-582.78 23.66,-582.52"/>
<text text-anchor="middle" x="403.5" y="-320.26" font-family="Helvetica,sans-Serif" font-size="10.00"> iatt</text>
<text text-anchor="middle" x="403.5" y="-309.26" font-family="Helvetica,sans-Serif" font-size="10.00">type</text>
<text text-anchor="middle" x="403.5" y="-298.26" font-family="Helvetica,sans-Serif" font-size="10.00">len</text>
</g>
<!-- Node5&#45;&gt;Node11 -->
<g id="edge32" class="edge">
<title>Node5&#45;&gt;Node11</title>
<path fill="none" stroke="#9a32cd" stroke-dasharray="5,2" d="M28.81,-582.51C32.71,-558.42 42.93,-518.18 69,-496.26 200.26,-385.9 293.34,-365.49 450,-435.26 460.92,-440.13 457.49,-449.56 468,-455.26 553.82,-501.78 594.33,-453.09 685,-489.26 739.49,-511 788.86,-563.95 807.56,-585.7"/>
<polygon fill="#9a32cd" stroke="#9a32cd" points="25.31,-582.22 27.39,-592.61 32.25,-583.2 25.31,-582.22"/>
<text text-anchor="middle" x="403.5" y="-559.26" font-family="Helvetica,sans-Serif" font-size="10.00"> fold</text>
<text text-anchor="middle" x="403.5" y="-548.26" font-family="Helvetica,sans-Serif" font-size="10.00">tile_id</text>
<text text-anchor="middle" x="403.5" y="-537.26" font-family="Helvetica,sans-Serif" font-size="10.00">tile_id_all</text>
<text text-anchor="middle" x="403.5" y="-526.26" font-family="Helvetica,sans-Serif" font-size="10.00">io_layout</text>
<text text-anchor="middle" x="403.5" y="-515.26" font-family="Helvetica,sans-Serif" font-size="10.00">nhalo</text>
<text text-anchor="middle" x="403.5" y="-504.26" font-family="Helvetica,sans-Serif" font-size="10.00">ntiles</text>
<text text-anchor="middle" x="403.5" y="-493.26" font-family="Helvetica,sans-Serif" font-size="10.00">pe</text>
<text text-anchor="start" x="379" y="-482.26" font-family="Helvetica,sans-Serif" font-size="10.00">max_ntile</text>
<text text-anchor="middle" x="403.5" y="-471.26" font-family="Helvetica,sans-Serif" font-size="10.00">_pe</text>
<text text-anchor="middle" x="403.5" y="-460.26" font-family="Helvetica,sans-Serif" font-size="10.00">shalo</text>
<text text-anchor="middle" x="403.5" y="-449.26" font-family="Helvetica,sans-Serif" font-size="10.00">ncontacts</text>
<text text-anchor="middle" x="403.5" y="-438.26" font-family="Helvetica,sans-Serif" font-size="10.00">...</text>
</g>
<!-- Node13 -->
<g id="node13" class="node">
<title>Node13</title>
<g id="a_node13"><a xlink:href="group__mpp__domains__mod.html#structmpp__domains__mod_1_1overlapspec" target="_top" xlink:title="Private type for overlap specifications.">
<polygon fill="white" stroke="black" points="365.5,-699.76 365.5,-718.76 441.5,-718.76 441.5,-699.76 365.5,-699.76"/>
<text text-anchor="middle" x="403.5" y="-706.76" font-family="Helvetica,sans-Serif" font-size="10.00">overlapspec</text>
</a>
</g>
</g>
<!-- Node5&#45;&gt;Node13 -->
<g id="edge24" class="edge">
<title>Node5&#45;&gt;Node13</title>
<path fill="none" stroke="#9a32cd" stroke-dasharray="5,2" d="M50.26,-616.98C56.24,-620.32 62.74,-623.65 69,-626.26 110.15,-643.46 221.87,-661.8 262,-681.26 270.88,-685.57 270.81,-690.66 280,-694.26 307.33,-704.98 340.49,-708.52 365.41,-709.5"/>
<polygon fill="#9a32cd" stroke="#9a32cd" points="51.81,-613.83 41.4,-611.83 48.29,-619.88 51.81,-613.83"/>
<text text-anchor="middle" x="208.5" y="-794.26" font-family="Helvetica,sans-Serif" font-size="10.00"> nsend</text>
<text text-anchor="middle" x="208.5" y="-783.26" font-family="Helvetica,sans-Serif" font-size="10.00">ybegin</text>
<text text-anchor="middle" x="208.5" y="-772.26" font-family="Helvetica,sans-Serif" font-size="10.00">xbegin</text>
<text text-anchor="middle" x="208.5" y="-761.26" font-family="Helvetica,sans-Serif" font-size="10.00">yend</text>
<text text-anchor="middle" x="208.5" y="-750.26" font-family="Helvetica,sans-Serif" font-size="10.00">nhalo</text>
<text text-anchor="middle" x="208.5" y="-739.26" font-family="Helvetica,sans-Serif" font-size="10.00">xend</text>
<text text-anchor="middle" x="208.5" y="-728.26" font-family="Helvetica,sans-Serif" font-size="10.00">recvsize</text>
<text text-anchor="middle" x="208.5" y="-717.26" font-family="Helvetica,sans-Serif" font-size="10.00">shalo</text>
<text text-anchor="middle" x="208.5" y="-706.26" font-family="Helvetica,sans-Serif" font-size="10.00">ehalo</text>
<text text-anchor="middle" x="208.5" y="-695.26" font-family="Helvetica,sans-Serif" font-size="10.00">sendsize</text>
<text text-anchor="middle" x="208.5" y="-684.26" font-family="Helvetica,sans-Serif" font-size="10.00">...</text>
</g>
<!-- Node5&#45;&gt;Node14 -->
<g id="edge22" class="edge">
<title>Node5&#45;&gt;Node14</title>
<path fill="none" stroke="#9a32cd" stroke-dasharray="5,2" d="M25.75,-621.99C25.57,-656.02 30.33,-725.91 69,-765.26 90.99,-787.64 114.39,-762.5 137,-784.26 155.84,-802.39 136.85,-821.44 155,-840.26 158.77,-844.17 163.4,-847.28 168.34,-849.75"/>
<polygon fill="#9a32cd" stroke="#9a32cd" points="29.25,-621.99 25.95,-611.92 22.25,-621.84 29.25,-621.99"/>
<text text-anchor="middle" x="103" y="-897.26" font-family="Helvetica,sans-Serif" font-size="10.00"> rotation</text>
<text text-anchor="middle" x="103" y="-886.26" font-family="Helvetica,sans-Serif" font-size="10.00">totsize</text>
<text text-anchor="middle" x="103" y="-875.26" font-family="Helvetica,sans-Serif" font-size="10.00">pe</text>
<text text-anchor="middle" x="103" y="-864.26" font-family="Helvetica,sans-Serif" font-size="10.00">dir</text>
<text text-anchor="middle" x="103" y="-853.26" font-family="Helvetica,sans-Serif" font-size="10.00">tileme</text>
<text text-anchor="middle" x="103" y="-842.26" font-family="Helvetica,sans-Serif" font-size="10.00">js</text>
<text text-anchor="middle" x="103" y="-831.26" font-family="Helvetica,sans-Serif" font-size="10.00">count</text>
<text text-anchor="middle" x="103" y="-820.26" font-family="Helvetica,sans-Serif" font-size="10.00">is</text>
<text text-anchor="middle" x="103" y="-809.26" font-family="Helvetica,sans-Serif" font-size="10.00">tilenbr</text>
<text text-anchor="middle" x="103" y="-798.26" font-family="Helvetica,sans-Serif" font-size="10.00">index</text>
<text text-anchor="middle" x="103" y="-787.26" font-family="Helvetica,sans-Serif" font-size="10.00">...</text>
</g>
<!-- Node15 -->
<g id="node15" class="node">
<title>Node15</title>
<g id="a_node15"><a xlink:href="group__mpp__domains__mod.html#structmpp__domains__mod_1_1domain2d__spec" target="_top" xlink:title="Private type to specify multiple index limits and pe information for a 2D domain.">
<polygon fill="white" stroke="black" points="580,-623.76 580,-642.76 673,-642.76 673,-623.76 580,-623.76"/>
<text text-anchor="middle" x="626.5" y="-630.76" font-family="Helvetica,sans-Serif" font-size="10.00">domain2d_spec</text>
</a>
</g>
</g>
<!-- Node5&#45;&gt;Node15 -->
<g id="edge29" class="edge">
<title>Node5&#45;&gt;Node15</title>
<path fill="none" stroke="#9a32cd" stroke-dasharray="5,2" d="M61.36,-600.81C110.23,-598.86 201.86,-595.49 280,-594.26 306.22,-593.85 312.84,-592.49 339,-594.26 384.76,-597.36 511.19,-615.91 579.79,-626.27"/>
<polygon fill="#9a32cd" stroke="#9a32cd" points="61.17,-597.32 51.32,-601.22 61.45,-604.31 61.17,-597.32"/>
<text text-anchor="middle" x="309.5" y="-630.26" font-family="Helvetica,sans-Serif" font-size="10.00"> tile_id</text>
<text text-anchor="middle" x="309.5" y="-619.26" font-family="Helvetica,sans-Serif" font-size="10.00">pe</text>
<text text-anchor="middle" x="309.5" y="-608.26" font-family="Helvetica,sans-Serif" font-size="10.00">tile_root_pe</text>
<text text-anchor="middle" x="309.5" y="-597.26" font-family="Helvetica,sans-Serif" font-size="10.00">pos</text>
</g>
<!-- Node5&#45;&gt;Node16 -->
<g id="edge28" class="edge">
<title>Node5&#45;&gt;Node16</title>
<path fill="none" stroke="#9a32cd" stroke-dasharray="5,2" d="M61.04,-606.94C107.06,-613.34 190.92,-625.6 262,-639.26 296.64,-645.92 335.74,-654.95 363.89,-661.72"/>
<polygon fill="#9a32cd" stroke="#9a32cd" points="61.39,-603.45 51.01,-605.55 60.43,-610.39 61.39,-603.45"/>
<text text-anchor="middle" x="208.5" y="-642.26" font-family="Helvetica,sans-Serif" font-size="10.00"> pos</text>
</g>
<!-- Node17 -->
<g id="node17" class="node">
<title>Node17</title>
<g id="a_node17"><a xlink:href="group__mpp__domains__mod.html#structmpp__domains__mod_1_1tile__type" target="_top" xlink:title="Upper and lower x and y bounds for a tile.">
<polygon fill="white" stroke="black" points="280,-523.76 280,-542.76 339,-542.76 339,-523.76 280,-523.76"/>
<text text-anchor="middle" x="309.5" y="-530.76" font-family="Helvetica,sans-Serif" font-size="10.00">tile_type</text>
</a>
</g>
</g>
<!-- Node5&#45;&gt;Node17 -->
<g id="edge31" class="edge">
<title>Node5&#45;&gt;Node17</title>
<path fill="none" stroke="#9a32cd" stroke-dasharray="5,2" d="M30.65,-582.63C35.92,-563.21 47.09,-534.51 69,-521.26 137.58,-479.8 238.44,-507.48 284.26,-523.76"/>
<polygon fill="#9a32cd" stroke="#9a32cd" points="27.2,-582.02 28.25,-592.56 34,-583.67 27.2,-582.02"/>
<text text-anchor="middle" x="103" y="-557.26" font-family="Helvetica,sans-Serif" font-size="10.00"> ybegin</text>
<text text-anchor="middle" x="103" y="-546.26" font-family="Helvetica,sans-Serif" font-size="10.00">xbegin</text>
<text text-anchor="middle" x="103" y="-535.26" font-family="Helvetica,sans-Serif" font-size="10.00">yend</text>
<text text-anchor="middle" x="103" y="-524.26" font-family="Helvetica,sans-Serif" font-size="10.00">xend</text>
</g>
<!-- Node6 -->
<g id="node6" class="node">
<title>Node6</title>
<g id="a_node6"><a xlink:title=" ">
<polygon fill="white" stroke="#bfbfbf" points="767,-76.76 767,-95.76 866,-95.76 866,-76.76 767,-76.76"/>
<text text-anchor="middle" x="816.5" y="-83.76" font-family="Helvetica,sans-Serif" font-size="10.00">character(len=1)</text>
</a>
</g>
</g>
<!-- Node6&#45;&gt;Node1 -->
<g id="edge8" class="edge">
<title>Node6&#45;&gt;Node1</title>
<path fill="none" stroke="#9a32cd" stroke-dasharray="5,2" d="M876.32,-83.94C908.39,-85.05 947.79,-90.43 979,-107.26 1006.15,-121.9 1026.72,-153.57 1035.83,-169.58"/>
<polygon fill="#9a32cd" stroke="#9a32cd" points="876.26,-80.44 866.19,-83.72 876.11,-87.44 876.26,-80.44"/>
<text text-anchor="middle" x="934.5" y="-110.26" font-family="Helvetica,sans-Serif" font-size="10.00"> cart_name</text>
</g>
<!-- Node7&#45;&gt;Node1 -->
<g id="edge9" class="edge">
<title>Node7&#45;&gt;Node1</title>
<path fill="none" stroke="#9a32cd" stroke-dasharray="5,2" d="M856.7,-238.63C900.78,-224.43 971.39,-201.68 1011.2,-188.86"/>
<polygon fill="#9a32cd" stroke="#9a32cd" points="855.62,-235.3 847.18,-241.7 857.77,-241.97 855.62,-235.3"/>
<text text-anchor="middle" x="934.5" y="-228.26" font-family="Helvetica,sans-Serif" font-size="10.00"> attributes</text>
</g>
<!-- Node8 -->
<g id="node8" class="node">
<title>Node8</title>
<g id="a_node8"><a xlink:title=" ">
<polygon fill="white" stroke="#bfbfbf" points="568,-247.76 568,-266.76 685,-266.76 685,-247.76 568,-247.76"/>
<text text-anchor="middle" x="626.5" y="-254.76" font-family="Helvetica,sans-Serif" font-size="10.00">character(len=1280)</text>
</a>
</g>
</g>
<!-- Node8&#45;&gt;Node7 -->
<g id="edge10" class="edge">
<title>Node8&#45;&gt;Node7</title>
<path fill="none" stroke="#9a32cd" stroke-dasharray="5,2" d="M695.18,-255.1C722.78,-254.22 753.67,-253.23 777.24,-252.48"/>
<polygon fill="#9a32cd" stroke="#9a32cd" points="695.07,-251.6 685.18,-255.42 695.29,-258.6 695.07,-251.6"/>
<text text-anchor="middle" x="723" y="-257.26" font-family="Helvetica,sans-Serif" font-size="10.00"> catt</text>
</g>
<!-- Node9 -->
<g id="node9" class="node">
<title>Node9</title>
<g id="a_node9"><a xlink:title=" ">
<polygon fill="white" stroke="#bfbfbf" points="571,-200.76 571,-219.76 682,-219.76 682,-200.76 571,-200.76"/>
<text text-anchor="middle" x="626.5" y="-207.76" font-family="Helvetica,sans-Serif" font-size="10.00">character(len=128)</text>
</a>
</g>
</g>
<!-- Node9&#45;&gt;Node1 -->
<g id="edge36" class="edge">
<title>Node9&#45;&gt;Node1</title>
<path fill="none" stroke="#9a32cd" stroke-dasharray="5,2" d="M657.78,-196.84C671.33,-191.51 687.67,-186.01 703,-183.26 806.97,-164.6 931.83,-170.2 996.81,-175.17"/>
<polygon fill="#9a32cd" stroke="#9a32cd" points="656.4,-193.62 648.46,-200.64 659.04,-200.1 656.4,-193.62"/>
<text text-anchor="middle" x="816.5" y="-210.26" font-family="Helvetica,sans-Serif" font-size="10.00"> req</text>
<text text-anchor="middle" x="816.5" y="-199.26" font-family="Helvetica,sans-Serif" font-size="10.00">name</text>
<text text-anchor="middle" x="816.5" y="-188.26" font-family="Helvetica,sans-Serif" font-size="10.00">aux</text>
<text text-anchor="middle" x="816.5" y="-177.26" font-family="Helvetica,sans-Serif" font-size="10.00">subaxis_name</text>
</g>
<!-- Node9&#45;&gt;Node7 -->
<g id="edge11" class="edge">
<title>Node9&#45;&gt;Node7</title>
<path fill="none" stroke="#9a32cd" stroke-dasharray="5,2" d="M681.21,-221.97C711.87,-228.66 749.58,-236.89 777.23,-242.91"/>
<polygon fill="#9a32cd" stroke="#9a32cd" points="681.62,-218.48 671.1,-219.77 680.13,-225.32 681.62,-218.48"/>
<text text-anchor="middle" x="723" y="-237.26" font-family="Helvetica,sans-Serif" font-size="10.00"> name</text>
</g>
<!-- Node10 -->
<g id="node10" class="node">
<title>Node10</title>
<g id="a_node10"><a xlink:title=" ">
<polygon fill="white" stroke="#bfbfbf" points="609,-143.76 609,-162.76 644,-162.76 644,-143.76 609,-143.76"/>
<text text-anchor="middle" x="626.5" y="-150.76" font-family="Helvetica,sans-Serif" font-size="10.00">real</text>
</a>
</g>
</g>
<!-- Node10&#45;&gt;Node1 -->
<g id="edge38" class="edge">
<title>Node10&#45;&gt;Node1</title>
<path fill="none" stroke="#9a32cd" stroke-dasharray="5,2" d="M654.54,-151.43C681.5,-149.7 724.09,-147.23 761,-146.26 810.32,-144.97 822.86,-141.93 872,-146.26 920.11,-150.5 931.65,-155.72 979,-165.26 985.81,-166.63 993.03,-168.18 1000.04,-169.73"/>
<polygon fill="#9a32cd" stroke="#9a32cd" points="654.1,-147.95 644.35,-152.09 654.56,-154.93 654.1,-147.95"/>
<text text-anchor="middle" x="816.5" y="-149.26" font-family="Helvetica,sans-Serif" font-size="10.00"> data</text>
</g>
<!-- Node10&#45;&gt;Node7 -->
<g id="edge12" class="edge">
<title>Node10&#45;&gt;Node7</title>
<path fill="none" stroke="#9a32cd" stroke-dasharray="5,2" d="M653.54,-163.99C677.68,-174.47 714.11,-191.67 743,-211.26 751.86,-217.27 751.99,-221.48 761,-227.26 769.79,-232.9 780.12,-237.83 789.42,-241.72"/>
<polygon fill="#9a32cd" stroke="#9a32cd" points="654.89,-160.76 644.32,-160.05 652.14,-167.2 654.89,-160.76"/>
<text text-anchor="middle" x="723" y="-214.26" font-family="Helvetica,sans-Serif" font-size="10.00"> fatt</text>
</g>
<!-- Node11&#45;&gt;Node1 -->
<g id="edge14" class="edge">
<title>Node11&#45;&gt;Node1</title>
<path fill="none" stroke="#9a32cd" stroke-dasharray="5,2" d="M831.34,-577.16C861.32,-537.34 933.22,-438.42 979,-347.26 1007.88,-289.75 1030.59,-215.4 1038.23,-189.05"/>
<polygon fill="#9a32cd" stroke="#9a32cd" points="828.38,-575.28 825.13,-585.36 833.96,-579.5 828.38,-575.28"/>
<text text-anchor="middle" x="934.5" y="-505.26" font-family="Helvetica,sans-Serif" font-size="10.00"> subaxis_domain2</text>
<text text-anchor="middle" x="934.5" y="-494.26" font-family="Helvetica,sans-Serif" font-size="10.00">domain2</text>
</g>
<!-- Node11&#45;&gt;Node11 -->
<g id="edge18" class="edge">
<title>Node11&#45;&gt;Node11</title>
<path fill="none" stroke="#9a32cd" stroke-dasharray="5,2" d="M799.46,-614.66C800.6,-619.58 806.28,-623.26 816.5,-623.26 832.85,-623.26 837.58,-613.83 830.68,-605.02"/>
<polygon fill="#9a32cd" stroke="#9a32cd" points="802.84,-615.6 802.32,-605.02 796.12,-613.61 802.84,-615.6"/>
<text text-anchor="middle" x="816.5" y="-626.26" font-family="Helvetica,sans-Serif" font-size="10.00"> io_domain</text>
</g>
<!-- Node12 -->
<g id="node12" class="node">
<title>Node12</title>
<g id="a_node12"><a xlink:title=" ">
<polygon fill="white" stroke="#bfbfbf" points="579.5,-547.76 579.5,-566.76 673.5,-566.76 673.5,-547.76 579.5,-547.76"/>
<text text-anchor="middle" x="626.5" y="-554.76" font-family="Helvetica,sans-Serif" font-size="10.00">integer(i8_kind)</text>
</a>
</g>
</g>
<!-- Node12&#45;&gt;Node11 -->
<g id="edge17" class="edge">
<title>Node12&#45;&gt;Node11</title>
<path fill="none" stroke="#9a32cd" stroke-dasharray="5,2" d="M683.69,-561.08C702.68,-563.04 723.9,-565.95 743,-570.26 759.75,-574.04 778.03,-580.36 792.04,-585.7"/>
<polygon fill="#9a32cd" stroke="#9a32cd" points="683.99,-557.6 673.7,-560.12 683.31,-564.56 683.99,-557.6"/>
<text text-anchor="middle" x="723" y="-573.26" font-family="Helvetica,sans-Serif" font-size="10.00"> id</text>
</g>
<!-- Node13&#45;&gt;Node11 -->
<g id="edge19" class="edge">
<title>Node13&#45;&gt;Node11</title>
<path fill="none" stroke="#9a32cd" stroke-dasharray="5,2" d="M451.88,-703.89C518.88,-695.11 644.15,-674.28 743,-632.26 762.51,-623.97 784.05,-612.69 798.54,-604.77"/>
<polygon fill="#9a32cd" stroke="#9a32cd" points="451.12,-700.46 441.64,-705.2 452.01,-707.41 451.12,-700.46"/>
<text text-anchor="middle" x="626.5" y="-796.26" font-family="Helvetica,sans-Serif" font-size="10.00"> update_c</text>
<text text-anchor="middle" x="626.5" y="-785.26" font-family="Helvetica,sans-Serif" font-size="10.00">update_t</text>
<text text-anchor="middle" x="626.5" y="-774.26" font-family="Helvetica,sans-Serif" font-size="10.00">update_e</text>
<text text-anchor="middle" x="626.5" y="-763.26" font-family="Helvetica,sans-Serif" font-size="10.00">bound_c</text>
<text text-anchor="middle" x="626.5" y="-752.26" font-family="Helvetica,sans-Serif" font-size="10.00">bound_e</text>
<text text-anchor="middle" x="626.5" y="-741.26" font-family="Helvetica,sans-Serif" font-size="10.00">check_n</text>
<text text-anchor="middle" x="626.5" y="-730.26" font-family="Helvetica,sans-Serif" font-size="10.00">update_n</text>
<text text-anchor="middle" x="626.5" y="-719.26" font-family="Helvetica,sans-Serif" font-size="10.00">check_c</text>
<text text-anchor="middle" x="626.5" y="-708.26" font-family="Helvetica,sans-Serif" font-size="10.00">bound_n</text>
<text text-anchor="middle" x="626.5" y="-697.26" font-family="Helvetica,sans-Serif" font-size="10.00">check_e</text>
<text text-anchor="middle" x="626.5" y="-686.26" font-family="Helvetica,sans-Serif" font-size="10.00">...</text>
</g>
<!-- Node13&#45;&gt;Node13 -->
<g id="edge23" class="edge">
<title>Node13&#45;&gt;Node13</title>
<path fill="none" stroke="#9a32cd" stroke-dasharray="5,2" d="M386.09,-728.66C387.26,-733.58 393.06,-737.26 403.5,-737.26 420.21,-737.26 425.04,-727.83 417.99,-719.02"/>
<polygon fill="#9a32cd" stroke="#9a32cd" points="389.47,-729.6 389.01,-719.02 382.77,-727.58 389.47,-729.6"/>
<text text-anchor="middle" x="403.5" y="-740.26" font-family="Helvetica,sans-Serif" font-size="10.00"> next</text>
</g>
<!-- Node14&#45;&gt;Node13 -->
<g id="edge20" class="edge">
<title>Node14&#45;&gt;Node13</title>
<path fill="none" stroke="#9a32cd" stroke-dasharray="5,2" d="M258.85,-863.08C284.93,-862.63 316.17,-857.91 339,-841.26 381.32,-810.39 396.65,-743.73 401.02,-718.87"/>
<polygon fill="#9a32cd" stroke="#9a32cd" points="258.78,-859.58 248.77,-863.05 258.76,-866.58 258.78,-859.58"/>
<text text-anchor="middle" x="309.5" y="-875.26" font-family="Helvetica,sans-Serif" font-size="10.00"> recv</text>
<text text-anchor="middle" x="309.5" y="-864.26" font-family="Helvetica,sans-Serif" font-size="10.00">send</text>
</g>
<!-- Node15&#45;&gt;Node11 -->
<g id="edge25" class="edge">
<title>Node15&#45;&gt;Node11</title>
<path fill="none" stroke="#9a32cd" stroke-dasharray="5,2" d="M682.96,-622.05C715.88,-615.4 756.42,-607.2 783.94,-601.64"/>
<polygon fill="#9a32cd" stroke="#9a32cd" points="682.12,-618.65 673.01,-624.06 683.5,-625.51 682.12,-618.65"/>
<text text-anchor="middle" x="723" y="-620.26" font-family="Helvetica,sans-Serif" font-size="10.00"> list</text>
</g>
<!-- Node16&#45;&gt;Node15 -->
<g id="edge26" class="edge">
<title>Node16&#45;&gt;Node15</title>
<path fill="none" stroke="#9a32cd" stroke-dasharray="5,2" d="M460.13,-661.71C487.24,-657.05 520.32,-651.37 550,-646.26 559.7,-644.59 570.1,-642.8 579.99,-641.1"/>
<polygon fill="#9a32cd" stroke="#9a32cd" points="459.31,-658.3 450.05,-663.44 460.5,-665.2 459.31,-658.3"/>
<text text-anchor="middle" x="509" y="-673.26" font-family="Helvetica,sans-Serif" font-size="10.00"> x</text>
<text text-anchor="middle" x="509" y="-662.26" font-family="Helvetica,sans-Serif" font-size="10.00">y</text>
</g>
<!-- Node17&#45;&gt;Node11 -->
<g id="edge30" class="edge">
<title>Node17&#45;&gt;Node11</title>
<path fill="none" stroke="#9a32cd" stroke-dasharray="5,2" d="M329.93,-549.6C341.92,-559.6 355.32,-570.61 357,-571.26 435.07,-601.43 693.59,-598.25 783.97,-596.14"/>
<polygon fill="#9a32cd" stroke="#9a32cd" points="331.93,-546.71 322.02,-542.97 327.44,-552.08 331.93,-546.71"/>
<text text-anchor="middle" x="509" y="-597.26" font-family="Helvetica,sans-Serif" font-size="10.00"> tilelist</text>
</g>
<!-- Node18 -->
<g id="node18" class="node">
<title>Node18</title>
<g id="a_node18"><a xlink:title=" ">
<polygon fill="white" stroke="#bfbfbf" points="568,-498.26 568,-528.26 685,-528.26 685,-498.26 568,-498.26"/>
<text text-anchor="start" x="576" y="-516.26" font-family="Helvetica,sans-Serif" font-size="10.00">character(len=name</text>
<text text-anchor="middle" x="626.5" y="-505.26" font-family="Helvetica,sans-Serif" font-size="10.00">_length)</text>
</a>
</g>
</g>
<!-- Node18&#45;&gt;Node11 -->
<g id="edge33" class="edge">
<title>Node18&#45;&gt;Node11</title>
<path fill="none" stroke="#9a32cd" stroke-dasharray="5,2" d="M694.96,-530.23C711.03,-535.21 727.89,-541.25 743,-548.26 765.45,-558.68 789.08,-575.2 803.04,-585.62"/>
<polygon fill="#9a32cd" stroke="#9a32cd" points="695.66,-526.78 685.08,-527.26 693.65,-533.49 695.66,-526.78"/>
<text text-anchor="middle" x="723" y="-551.26" font-family="Helvetica,sans-Serif" font-size="10.00"> name</text>
</g>
<!-- Node19 -->
<g id="node19" class="node">
<title>Node19</title>
<g id="a_node19"><a xlink:title=" ">
<polygon fill="white" stroke="#bfbfbf" points="761,-38.76 761,-57.76 872,-57.76 872,-38.76 761,-38.76"/>
<text text-anchor="middle" x="816.5" y="-45.76" font-family="Helvetica,sans-Serif" font-size="10.00">character(len=256)</text>
</a>
</g>
</g>
<!-- Node19&#45;&gt;Node1 -->
<g id="edge34" class="edge">
<title>Node19&#45;&gt;Node1</title>
<path fill="none" stroke="#9a32cd" stroke-dasharray="5,2" d="M882.28,-38.08C913.82,-36.47 950.9,-39.87 979,-58.26 1019.29,-84.63 1034.74,-145.81 1039.35,-169.58"/>
<polygon fill="#9a32cd" stroke="#9a32cd" points="881.99,-34.59 872.25,-38.77 882.46,-41.58 881.99,-34.59"/>
<text text-anchor="middle" x="934.5" y="-72.26" font-family="Helvetica,sans-Serif" font-size="10.00"> units</text>
<text text-anchor="middle" x="934.5" y="-61.26" font-family="Helvetica,sans-Serif" font-size="10.00">long_name</text>
</g>
<!-- Node20 -->
<g id="node20" class="node">
<title>Node20</title>
<g id="a_node20"><a xlink:title=" ">
<polygon fill="white" stroke="#bfbfbf" points="769,-0.76 769,-19.76 864,-19.76 864,-0.76 769,-0.76"/>
<text text-anchor="middle" x="816.5" y="-7.76" font-family="Helvetica,sans-Serif" font-size="10.00">type(domainug)</text>
</a>
</g>
</g>
<!-- Node20&#45;&gt;Node1 -->
<g id="edge35" class="edge">
<title>Node20&#45;&gt;Node1</title>
<path fill="none" stroke="#9a32cd" stroke-dasharray="5,2" d="M874.25,-0.87C907.8,1.53 949.38,-1.37 979,-23.26 1028.22,-59.63 1038.41,-141.31 1040.48,-169.48"/>
<polygon fill="#9a32cd" stroke="#9a32cd" points="873.77,2.61 864.12,-1.76 874.39,-4.37 873.77,2.61"/>
<text text-anchor="middle" x="934.5" y="-26.26" font-family="Helvetica,sans-Serif" font-size="10.00"> domainug</text>
</g>
</g>
</svg>
