<?xml version="1.0" encoding="UTF-8" standalone="no"?>
<!DOCTYPE svg PUBLIC "-//W3C//DTD SVG 1.1//EN"
 "http://www.w3.org/Graphics/SVG/1.1/DTD/svg11.dtd">
<!-- Generated by graphviz version 2.43.0 (0)
 -->
<!-- Title: filetype Pages: 1 -->
<!--zoomable 796 -->
<svg id="main" version="1.1" xmlns="http://www.w3.org/2000/svg" xmlns:xlink="http://www.w3.org/1999/xlink" xml:space="preserve" onload="init(evt)">
<style type="text/css"><![CDATA[
.edge:hover path { stroke: red; }
.edge:hover polygon { stroke: red; fill: red; }
]]></style>
<script type="text/javascript"><![CDATA[
var edges = document.getElementsByTagName('g');
if (edges && edges.length) {
  for (var i=0;i<edges.length;i++) {
    if (edges[i].id.substr(0,4)=='edge') {
      edges[i].setAttribute('class','edge');
    }
  }
}
]]></script>
        <defs>
                <circle id="rim" cx="0" cy="0" r="7"/>
                <circle id="rim2" cx="0" cy="0" r="3.5"/>
                <g id="zoomPlus">
                        <use xlink:href="#rim" fill="#404040">
                                <set attributeName="fill" to="#808080" begin="zoomplus.mouseover" end="zoomplus.mouseout"/>
                        </use>
                        <path d="M-4,0h8M0,-4v8" fill="none" stroke="white" stroke-width="1.5" pointer-events="none"/>
                </g>
                <g id="zoomMin">
                        <use xlink:href="#rim" fill="#404040">
                                <set attributeName="fill" to="#808080" begin="zoomminus.mouseover" end="zoomminus.mouseout"/>
                        </use>
                        <path d="M-4,0h8" fill="none" stroke="white" stroke-width="1.5" pointer-events="none"/>
                </g>
                <g id="dirArrow">
                        <path fill="none" stroke="white" stroke-width="1.5" d="M0,-3.0v7 M-2.5,-0.5L0,-3.0L2.5,-0.5"/>
                </g>
               <g id="resetDef">
                       <use xlink:href="#rim2" fill="#404040">
                               <set attributeName="fill" to="#808080" begin="reset.mouseover" end="reset.mouseout"/>
                       </use>
               </g>
        </defs>

<script type="text/javascript">
var viewWidth = 1072;
var viewHeight = 796;
var sectionId = 'dynsection-1';
</script>
<script xlink:href="svgpan.js"/>
<svg id="graph" class="graph">
<g id="viewport">
<title>filetype</title>
<polygon fill="white" stroke="transparent" points="-4,4 -4,-791.8 1068,-791.8 1068,4 -4,4"/>
<!-- Node1 -->
<g id="node1" class="node">
<title>Node1</title>
<g id="a_node1"><a xlink:title="Holds filename and file object.">
<polygon fill="#bfbfbf" stroke="black" points="1011,-514.3 1011,-533.3 1064,-533.3 1064,-514.3 1011,-514.3"/>
<text text-anchor="middle" x="1037.5" y="-521.3" font-family="Helvetica,sans-Serif" font-size="10.00">filetype</text>
</a>
</g>
</g>
<!-- Node2 -->
<g id="node2" class="node">
<title>Node2</title>
<g id="a_node2"><a xlink:href="group__netcdf__io__mod.html#structnetcdf__io__mod_1_1fmsnetcdffile__t" target="_top" xlink:title="Netcdf file type.">
<polygon fill="white" stroke="black" points="828.5,-535.3 828.5,-554.3 918.5,-554.3 918.5,-535.3 828.5,-535.3"/>
<text text-anchor="middle" x="873.5" y="-542.3" font-family="Helvetica,sans-Serif" font-size="10.00">fmsnetcdffile_t</text>
</a>
</g>
</g>
<!-- Node2&#45;&gt;Node1 -->
<g id="edge1" class="edge">
<title>Node2&#45;&gt;Node1</title>
<path fill="none" stroke="#9a32cd" stroke-dasharray="5,2" d="M928.75,-537.76C956.51,-534.16 988.98,-529.96 1010.96,-527.11"/>
<polygon fill="#9a32cd" stroke="#9a32cd" points="928.23,-534.3 918.77,-539.06 929.13,-541.24 928.23,-534.3"/>
<text text-anchor="middle" x="970" y="-538.8" font-family="Helvetica,sans-Serif" font-size="10.00"> fileobj</text>
</g>
<!-- Node3 -->
<g id="node3" class="node">
<title>Node3</title>
<g id="a_node3"><a xlink:title=" ">
<polygon fill="white" stroke="#bfbfbf" points="52,-207.3 52,-226.3 101,-226.3 101,-207.3 52,-207.3"/>
<text text-anchor="middle" x="76.5" y="-214.3" font-family="Helvetica,sans-Serif" font-size="10.00">logical</text>
</a>
</g>
</g>
<!-- Node3&#45;&gt;Node2 -->
<g id="edge2" class="edge">
<title>Node3&#45;&gt;Node2</title>
<path fill="none" stroke="#9a32cd" stroke-dasharray="5,2" d="M93.41,-199.79C152.65,-138.59 365.85,62.6 536,-19.8 706.3,-102.26 728.66,-178.54 800,-353.8 814.49,-389.39 794.14,-495.67 818,-525.8 821.05,-529.64 824.93,-532.72 829.2,-535.17"/>
<polygon fill="#9a32cd" stroke="#9a32cd" points="90.75,-197.5 86.37,-207.15 95.81,-202.34 90.75,-197.5"/>
<text text-anchor="middle" x="471" y="-88.8" font-family="Helvetica,sans-Serif" font-size="10.00"> is_diskless</text>
<text text-anchor="middle" x="471" y="-77.8" font-family="Helvetica,sans-Serif" font-size="10.00">is_netcdf4</text>
<text text-anchor="middle" x="471" y="-66.8" font-family="Helvetica,sans-Serif" font-size="10.00">is_open</text>
<text text-anchor="middle" x="471" y="-55.8" font-family="Helvetica,sans-Serif" font-size="10.00">is_readonly</text>
<text text-anchor="middle" x="471" y="-44.8" font-family="Helvetica,sans-Serif" font-size="10.00">is_restart</text>
<text text-anchor="middle" x="471" y="-33.8" font-family="Helvetica,sans-Serif" font-size="10.00">is_root</text>
<text text-anchor="middle" x="471" y="-22.8" font-family="Helvetica,sans-Serif" font-size="10.00">mode_is_append</text>
</g>
<!-- Node9 -->
<g id="node9" class="node">
<title>Node9</title>
<g id="a_node9"><a xlink:href="group__netcdf__io__mod.html#structnetcdf__io__mod_1_1restartvariable__t" target="_top" xlink:title="Restart variable.">
<polygon fill="white" stroke="black" points="573,-311.3 573,-330.3 671,-330.3 671,-311.3 573,-311.3"/>
<text text-anchor="middle" x="622" y="-318.3" font-family="Helvetica,sans-Serif" font-size="10.00">restartvariable_t</text>
</a>
</g>
</g>
<!-- Node3&#45;&gt;Node9 -->
<g id="edge11" class="edge">
<title>Node3&#45;&gt;Node9</title>
<path fill="none" stroke="#9a32cd" stroke-dasharray="5,2" d="M111.18,-218.31C147.7,-220.21 207.66,-224.06 259,-230.8 385.17,-247.35 530.93,-291.52 591.87,-311.15"/>
<polygon fill="#9a32cd" stroke="#9a32cd" points="111.24,-214.81 101.08,-217.81 110.89,-221.8 111.24,-214.81"/>
<text text-anchor="middle" x="332.5" y="-268.8" font-family="Helvetica,sans-Serif" font-size="10.00"> is_bc_variable</text>
<text text-anchor="middle" x="332.5" y="-257.8" font-family="Helvetica,sans-Serif" font-size="10.00">was_read</text>
</g>
<!-- Node16 -->
<g id="node16" class="node">
<title>Node16</title>
<g id="a_node16"><a xlink:href="group__netcdf__io__mod.html#structnetcdf__io__mod_1_1bc__information" target="_top" xlink:title="information needed fr regional restart variables">
<polygon fill="white" stroke="black" points="287.5,-336.3 287.5,-355.3 377.5,-355.3 377.5,-336.3 287.5,-336.3"/>
<text text-anchor="middle" x="332.5" y="-343.3" font-family="Helvetica,sans-Serif" font-size="10.00">bc_information</text>
</a>
</g>
</g>
<!-- Node3&#45;&gt;Node16 -->
<g id="edge20" class="edge">
<title>Node3&#45;&gt;Node16</title>
<path fill="none" stroke="#9a32cd" stroke-dasharray="5,2" d="M111.25,-220.87C157.75,-227.15 238.16,-240.61 259,-260.8 280.54,-281.65 256.69,-303.75 277,-325.8 281.03,-330.17 286.1,-333.59 291.51,-336.26"/>
<polygon fill="#9a32cd" stroke="#9a32cd" points="111.69,-217.4 101.32,-219.57 110.78,-224.34 111.69,-217.4"/>
<text text-anchor="middle" x="215" y="-274.8" font-family="Helvetica,sans-Serif" font-size="10.00"> data_on_file_root</text>
<text text-anchor="middle" x="215" y="-263.8" font-family="Helvetica,sans-Serif" font-size="10.00">is_root_pe</text>
</g>
<!-- Node4 -->
<g id="node4" class="node">
<title>Node4</title>
<g id="a_node4"><a xlink:title=" ">
<polygon fill="white" stroke="#bfbfbf" points="277,-562.3 277,-581.3 388,-581.3 388,-562.3 277,-562.3"/>
<text text-anchor="middle" x="332.5" y="-569.3" font-family="Helvetica,sans-Serif" font-size="10.00">character(len=256)</text>
</a>
</g>
</g>
<!-- Node4&#45;&gt;Node2 -->
<g id="edge3" class="edge">
<title>Node4&#45;&gt;Node2</title>
<path fill="none" stroke="#9a32cd" stroke-dasharray="5,2" d="M398.43,-569.78C438.29,-567.93 490.28,-564.42 536,-557.8 544.11,-556.62 545.87,-554.8 554,-553.8 651.3,-541.72 766.55,-542.05 828.25,-543.4"/>
<polygon fill="#9a32cd" stroke="#9a32cd" points="398.15,-566.29 388.31,-570.22 398.46,-573.28 398.15,-566.29"/>
<text text-anchor="middle" x="622" y="-567.8" font-family="Helvetica,sans-Serif" font-size="10.00"> nc_format</text>
<text text-anchor="middle" x="622" y="-556.8" font-family="Helvetica,sans-Serif" font-size="10.00">path</text>
</g>
<!-- Node6 -->
<g id="node6" class="node">
<title>Node6</title>
<g id="a_node6"><a xlink:href="group__netcdf__io__mod.html#structnetcdf__io__mod_1_1compresseddimension__t" target="_top" xlink:title="Compressed dimension.">
<polygon fill="white" stroke="black" points="554,-623.3 554,-642.3 690,-642.3 690,-623.3 554,-623.3"/>
<text text-anchor="middle" x="622" y="-630.3" font-family="Helvetica,sans-Serif" font-size="10.00">compresseddimension_t</text>
</a>
</g>
</g>
<!-- Node4&#45;&gt;Node6 -->
<g id="edge6" class="edge">
<title>Node4&#45;&gt;Node6</title>
<path fill="none" stroke="#9a32cd" stroke-dasharray="5,2" d="M398.15,-581.82C452.32,-590.35 522.86,-601.84 536,-605.8 544.38,-608.32 545.77,-610.82 554,-613.8 563.55,-617.25 574.05,-620.49 583.84,-623.27"/>
<polygon fill="#9a32cd" stroke="#9a32cd" points="398.67,-578.35 388.24,-580.26 397.58,-585.27 398.67,-578.35"/>
<text text-anchor="middle" x="471" y="-608.8" font-family="Helvetica,sans-Serif" font-size="10.00"> dimname</text>
</g>
<!-- Node4&#45;&gt;Node9 -->
<g id="edge16" class="edge">
<title>Node4&#45;&gt;Node9</title>
<path fill="none" stroke="#9a32cd" stroke-dasharray="5,2" d="M367.67,-558.78C379.66,-554.54 393.31,-550.08 406,-546.8 462.8,-532.07 490.18,-560.45 536,-523.8 600.45,-472.24 616.65,-363.17 620.14,-330.34"/>
<polygon fill="#9a32cd" stroke="#9a32cd" points="366.25,-555.57 358.04,-562.26 368.63,-562.15 366.25,-555.57"/>
<text text-anchor="middle" x="471" y="-549.8" font-family="Helvetica,sans-Serif" font-size="10.00"> varname</text>
</g>
<!-- Node5 -->
<g id="node5" class="node">
<title>Node5</title>
<g id="a_node5"><a xlink:title=" ">
<polygon fill="white" stroke="#bfbfbf" points="569.5,-585.3 569.5,-604.3 674.5,-604.3 674.5,-585.3 569.5,-585.3"/>
<text text-anchor="middle" x="622" y="-592.3" font-family="Helvetica,sans-Serif" font-size="10.00">character(len=20)</text>
</a>
</g>
</g>
<!-- Node5&#45;&gt;Node2 -->
<g id="edge4" class="edge">
<title>Node5&#45;&gt;Node2</title>
<path fill="none" stroke="#9a32cd" stroke-dasharray="5,2" d="M680.41,-583.29C725.33,-574.29 786.89,-561.95 828.09,-553.69"/>
<polygon fill="#9a32cd" stroke="#9a32cd" points="679.63,-579.88 670.52,-585.27 681.01,-586.74 679.63,-579.88"/>
<text text-anchor="middle" x="754" y="-580.8" font-family="Helvetica,sans-Serif" font-size="10.00"> time_name</text>
</g>
<!-- Node6&#45;&gt;Node2 -->
<g id="edge5" class="edge">
<title>Node6&#45;&gt;Node2</title>
<path fill="none" stroke="#9a32cd" stroke-dasharray="5,2" d="M700.45,-621.59C732.13,-615.41 768.63,-606.19 800,-592.8 823.32,-582.84 847.26,-565.28 860.96,-554.38"/>
<polygon fill="#9a32cd" stroke="#9a32cd" points="699.53,-618.2 690.35,-623.49 700.82,-625.08 699.53,-618.2"/>
<text text-anchor="middle" x="754" y="-622.8" font-family="Helvetica,sans-Serif" font-size="10.00"> compressed_dims</text>
</g>
<!-- Node7 -->
<g id="node7" class="node">
<title>Node7</title>
<g id="a_node7"><a xlink:title=" ">
<polygon fill="white" stroke="#bfbfbf" points="51,-592.3 51,-611.3 102,-611.3 102,-592.3 51,-592.3"/>
<text text-anchor="middle" x="76.5" y="-599.3" font-family="Helvetica,sans-Serif" font-size="10.00">integer</text>
</a>
</g>
</g>
<!-- Node7&#45;&gt;Node2 -->
<g id="edge27" class="edge">
<title>Node7&#45;&gt;Node2</title>
<path fill="none" stroke="#9a32cd" stroke-dasharray="5,2" d="M112.09,-593.11C149.28,-583.18 209.71,-565.36 259,-542.8 328.44,-511 332.44,-474.33 406,-453.8 461.65,-438.26 478.73,-446.19 536,-453.8 596.44,-461.82 770.21,-513.59 841.46,-535.27"/>
<polygon fill="#9a32cd" stroke="#9a32cd" points="111.03,-589.77 102.25,-595.69 112.81,-596.54 111.03,-589.77"/>
<text text-anchor="middle" x="471" y="-511.8" font-family="Helvetica,sans-Serif" font-size="10.00"> io_root</text>
<text text-anchor="middle" x="471" y="-500.8" font-family="Helvetica,sans-Serif" font-size="10.00">ncid</text>
<text text-anchor="start" x="427.5" y="-489.8" font-family="Helvetica,sans-Serif" font-size="10.00">num_compressed</text>
<text text-anchor="middle" x="471" y="-478.8" font-family="Helvetica,sans-Serif" font-size="10.00">_dims</text>
<text text-anchor="middle" x="471" y="-467.8" font-family="Helvetica,sans-Serif" font-size="10.00">num_restart_vars</text>
<text text-anchor="middle" x="471" y="-456.8" font-family="Helvetica,sans-Serif" font-size="10.00">pelist</text>
</g>
<!-- Node7&#45;&gt;Node6 -->
<g id="edge7" class="edge">
<title>Node7&#45;&gt;Node6</title>
<path fill="none" stroke="#9a32cd" stroke-dasharray="5,2" d="M112.35,-603.78C201.2,-608.85 437.35,-622.32 553.95,-628.97"/>
<polygon fill="#9a32cd" stroke="#9a32cd" points="112.45,-600.28 102.27,-603.21 112.05,-607.27 112.45,-600.28"/>
<text text-anchor="middle" x="332.5" y="-644.8" font-family="Helvetica,sans-Serif" font-size="10.00"> nelems</text>
<text text-anchor="middle" x="332.5" y="-633.8" font-family="Helvetica,sans-Serif" font-size="10.00">npes_corner</text>
<text text-anchor="middle" x="332.5" y="-622.8" font-family="Helvetica,sans-Serif" font-size="10.00">npes_nelems</text>
</g>
<!-- Node8 -->
<g id="node8" class="node">
<title>Node8</title>
<g id="a_node8"><a xlink:href="group__netcdf__io__mod.html#structnetcdf__io__mod_1_1dimension__information" target="_top" xlink:title="information about the current dimensions for regional restart variables">
<polygon fill="white" stroke="black" points="406,-680.3 406,-699.3 536,-699.3 536,-680.3 406,-680.3"/>
<text text-anchor="middle" x="471" y="-687.3" font-family="Helvetica,sans-Serif" font-size="10.00">dimension_information</text>
</a>
</g>
</g>
<!-- Node7&#45;&gt;Node8 -->
<g id="edge9" class="edge">
<title>Node7&#45;&gt;Node8</title>
<path fill="none" stroke="#9a32cd" stroke-dasharray="5,2" d="M104.24,-615.98C122.6,-625.25 147.77,-637.03 171,-644.8 249.3,-670.95 344.22,-681.95 405.8,-686.55"/>
<polygon fill="#9a32cd" stroke="#9a32cd" points="105.79,-612.85 95.3,-611.4 102.6,-619.08 105.79,-612.85"/>
<text text-anchor="middle" x="215" y="-779.8" font-family="Helvetica,sans-Serif" font-size="10.00"> cur_dim_len</text>
<text text-anchor="middle" x="215" y="-768.8" font-family="Helvetica,sans-Serif" font-size="10.00">dimension</text>
<text text-anchor="middle" x="215" y="-757.8" font-family="Helvetica,sans-Serif" font-size="10.00">each</text>
<text text-anchor="middle" x="215" y="-746.8" font-family="Helvetica,sans-Serif" font-size="10.00">number</text>
<text text-anchor="middle" x="215" y="-735.8" font-family="Helvetica,sans-Serif" font-size="10.00">of</text>
<text text-anchor="middle" x="215" y="-724.8" font-family="Helvetica,sans-Serif" font-size="10.00">size</text>
<text text-anchor="middle" x="215" y="-713.8" font-family="Helvetica,sans-Serif" font-size="10.00">the</text>
<text text-anchor="middle" x="215" y="-702.8" font-family="Helvetica,sans-Serif" font-size="10.00">unique</text>
<text text-anchor="middle" x="215" y="-691.8" font-family="Helvetica,sans-Serif" font-size="10.00">x</text>
<text text-anchor="middle" x="215" y="-680.8" font-family="Helvetica,sans-Serif" font-size="10.00">xlen</text>
<text text-anchor="middle" x="215" y="-669.8" font-family="Helvetica,sans-Serif" font-size="10.00">...</text>
</g>
<!-- Node7&#45;&gt;Node16 -->
<g id="edge24" class="edge">
<title>Node7&#45;&gt;Node16</title>
<path fill="none" stroke="#9a32cd" stroke-dasharray="5,2" d="M85.23,-582.89C98.34,-553.26 127.79,-496.13 171,-465.8 204.09,-442.57 230.83,-471.79 259,-442.8 283.79,-417.28 253.25,-391.28 277,-364.8 280.48,-360.92 284.79,-357.83 289.46,-355.37"/>
<polygon fill="#9a32cd" stroke="#9a32cd" points="81.99,-581.57 81.28,-592.14 88.43,-584.32 81.99,-581.57"/>
<text text-anchor="middle" x="215" y="-534.8" font-family="Helvetica,sans-Serif" font-size="10.00"> global_size</text>
<text text-anchor="middle" x="215" y="-523.8" font-family="Helvetica,sans-Serif" font-size="10.00">indices</text>
<text text-anchor="middle" x="215" y="-512.8" font-family="Helvetica,sans-Serif" font-size="10.00">ishift</text>
<text text-anchor="middle" x="215" y="-501.8" font-family="Helvetica,sans-Serif" font-size="10.00">jshift</text>
<text text-anchor="middle" x="215" y="-490.8" font-family="Helvetica,sans-Serif" font-size="10.00">pelist</text>
<text text-anchor="middle" x="215" y="-479.8" font-family="Helvetica,sans-Serif" font-size="10.00">x_halo</text>
<text text-anchor="middle" x="215" y="-468.8" font-family="Helvetica,sans-Serif" font-size="10.00">y_halo</text>
</g>
<!-- Node8&#45;&gt;Node2 -->
<g id="edge8" class="edge">
<title>Node8&#45;&gt;Node2</title>
<path fill="none" stroke="#9a32cd" stroke-dasharray="5,2" d="M546.08,-692.02C616.08,-690.89 721.74,-680.58 800,-634.8 833.77,-615.04 858.16,-573.16 867.86,-554.32"/>
<polygon fill="#9a32cd" stroke="#9a32cd" points="545.98,-688.52 536.02,-692.12 546.05,-695.52 545.98,-688.52"/>
<text text-anchor="middle" x="622" y="-694.8" font-family="Helvetica,sans-Serif" font-size="10.00"> bc_dimensions</text>
</g>
<!-- Node9&#45;&gt;Node2 -->
<g id="edge10" class="edge">
<title>Node9&#45;&gt;Node2</title>
<path fill="none" stroke="#9a32cd" stroke-dasharray="5,2" d="M660.85,-333.96C701.9,-350.29 766.06,-382.18 800,-431.8 824.02,-466.9 790.2,-493.6 818,-525.8 821.34,-529.66 825.51,-532.74 830.05,-535.2"/>
<polygon fill="#9a32cd" stroke="#9a32cd" points="662.05,-330.67 651.46,-330.34 659.53,-337.2 662.05,-330.67"/>
<text text-anchor="middle" x="754" y="-434.8" font-family="Helvetica,sans-Serif" font-size="10.00"> restart_vars</text>
</g>
<!-- Node10 -->
<g id="node10" class="node">
<title>Node10</title>
<g id="a_node10"><a xlink:title=" ">
<polygon fill="white" stroke="#bfbfbf" points="277,-129.8 277,-159.8 388,-159.8 388,-129.8 277,-129.8"/>
<text text-anchor="start" x="285" y="-147.8" font-family="Helvetica,sans-Serif" font-size="10.00">class(*), dimension</text>
<text text-anchor="middle" x="332.5" y="-136.8" font-family="Helvetica,sans-Serif" font-size="10.00">(:,:,:), pointer</text>
</a>
</g>
</g>
<!-- Node10&#45;&gt;Node9 -->
<g id="edge12" class="edge">
<title>Node10&#45;&gt;Node9</title>
<path fill="none" stroke="#9a32cd" stroke-dasharray="5,2" d="M398.64,-141.35C441.11,-142.22 495.89,-149.52 536,-176.8 585.93,-210.75 610.84,-284.59 618.42,-311.09"/>
<polygon fill="#9a32cd" stroke="#9a32cd" points="398.43,-137.85 388.4,-141.26 398.36,-144.85 398.43,-137.85"/>
<text text-anchor="middle" x="471" y="-179.8" font-family="Helvetica,sans-Serif" font-size="10.00"> data3d</text>
</g>
<!-- Node11 -->
<g id="node11" class="node">
<title>Node11</title>
<g id="a_node11"><a xlink:title=" ">
<polygon fill="white" stroke="#bfbfbf" points="277,-80.8 277,-110.8 388,-110.8 388,-80.8 277,-80.8"/>
<text text-anchor="start" x="285" y="-98.8" font-family="Helvetica,sans-Serif" font-size="10.00">class(*), dimension</text>
<text text-anchor="middle" x="332.5" y="-87.8" font-family="Helvetica,sans-Serif" font-size="10.00">(:,:), pointer</text>
</a>
</g>
</g>
<!-- Node11&#45;&gt;Node9 -->
<g id="edge13" class="edge">
<title>Node11&#45;&gt;Node9</title>
<path fill="none" stroke="#9a32cd" stroke-dasharray="5,2" d="M398.34,-99.01C449.23,-102.73 514.89,-110.58 536,-126.8 598.7,-174.95 616.04,-279.05 619.98,-311.17"/>
<polygon fill="#9a32cd" stroke="#9a32cd" points="398.27,-95.49 388.05,-98.29 397.79,-102.48 398.27,-95.49"/>
<text text-anchor="middle" x="471" y="-129.8" font-family="Helvetica,sans-Serif" font-size="10.00"> data2d</text>
</g>
<!-- Node12 -->
<g id="node12" class="node">
<title>Node12</title>
<g id="a_node12"><a xlink:title=" ">
<polygon fill="white" stroke="#bfbfbf" points="277,-412.8 277,-442.8 388,-442.8 388,-412.8 277,-412.8"/>
<text text-anchor="start" x="285" y="-430.8" font-family="Helvetica,sans-Serif" font-size="10.00">class(*), dimension</text>
<text text-anchor="middle" x="332.5" y="-419.8" font-family="Helvetica,sans-Serif" font-size="10.00">(:,:,:,:,:), pointer</text>
</a>
</g>
</g>
<!-- Node12&#45;&gt;Node9 -->
<g id="edge14" class="edge">
<title>Node12&#45;&gt;Node9</title>
<path fill="none" stroke="#9a32cd" stroke-dasharray="5,2" d="M398.15,-420.37C447.89,-413.96 512.03,-403.99 536,-392.8 568.77,-377.49 599.02,-346.13 612.94,-330.33"/>
<polygon fill="#9a32cd" stroke="#9a32cd" points="397.58,-416.91 388.1,-421.64 398.46,-423.86 397.58,-416.91"/>
<text text-anchor="middle" x="471" y="-422.8" font-family="Helvetica,sans-Serif" font-size="10.00"> data5d</text>
</g>
<!-- Node13 -->
<g id="node13" class="node">
<title>Node13</title>
<g id="a_node13"><a xlink:title=" ">
<polygon fill="white" stroke="#bfbfbf" points="285,-374.3 285,-393.3 380,-393.3 380,-374.3 285,-374.3"/>
<text text-anchor="middle" x="332.5" y="-381.3" font-family="Helvetica,sans-Serif" font-size="10.00">class(*), pointer</text>
</a>
</g>
</g>
<!-- Node13&#45;&gt;Node9 -->
<g id="edge15" class="edge">
<title>Node13&#45;&gt;Node9</title>
<path fill="none" stroke="#9a32cd" stroke-dasharray="5,2" d="M390.45,-379.29C431.44,-375.17 487.77,-367.7 536,-354.8 558.88,-348.68 583.92,-338.16 600.85,-330.44"/>
<polygon fill="#9a32cd" stroke="#9a32cd" points="389.99,-375.82 380.38,-380.27 390.67,-382.79 389.99,-375.82"/>
<text text-anchor="middle" x="471" y="-380.8" font-family="Helvetica,sans-Serif" font-size="10.00"> data0d</text>
</g>
<!-- Node14 -->
<g id="node14" class="node">
<title>Node14</title>
<g id="a_node14"><a xlink:title=" ">
<polygon fill="white" stroke="#bfbfbf" points="277,-286.8 277,-316.8 388,-316.8 388,-286.8 277,-286.8"/>
<text text-anchor="start" x="285" y="-304.8" font-family="Helvetica,sans-Serif" font-size="10.00">class(*), dimension</text>
<text text-anchor="middle" x="332.5" y="-293.8" font-family="Helvetica,sans-Serif" font-size="10.00">(:,:,:,:), pointer</text>
</a>
</g>
</g>
<!-- Node14&#45;&gt;Node9 -->
<g id="edge17" class="edge">
<title>Node14&#45;&gt;Node9</title>
<path fill="none" stroke="#9a32cd" stroke-dasharray="5,2" d="M398.29,-301.7C438.09,-302.15 490.08,-303.62 536,-307.8 547.89,-308.88 560.65,-310.55 572.58,-312.34"/>
<polygon fill="#9a32cd" stroke="#9a32cd" points="398.22,-298.2 388.18,-301.61 398.15,-305.2 398.22,-298.2"/>
<text text-anchor="middle" x="471" y="-310.8" font-family="Helvetica,sans-Serif" font-size="10.00"> data4d</text>
</g>
<!-- Node15 -->
<g id="node15" class="node">
<title>Node15</title>
<g id="a_node15"><a xlink:title=" ">
<polygon fill="white" stroke="#bfbfbf" points="277,-178.8 277,-208.8 388,-208.8 388,-178.8 277,-178.8"/>
<text text-anchor="start" x="285" y="-196.8" font-family="Helvetica,sans-Serif" font-size="10.00">class(*), dimension</text>
<text text-anchor="middle" x="332.5" y="-185.8" font-family="Helvetica,sans-Serif" font-size="10.00">(:), pointer</text>
</a>
</g>
</g>
<!-- Node15&#45;&gt;Node9 -->
<g id="edge18" class="edge">
<title>Node15&#45;&gt;Node9</title>
<path fill="none" stroke="#9a32cd" stroke-dasharray="5,2" d="M398.39,-190.82C440.05,-191.62 494.01,-197.88 536,-220.8 575.6,-242.4 604.79,-290.41 615.99,-311.05"/>
<polygon fill="#9a32cd" stroke="#9a32cd" points="398.39,-187.32 388.35,-190.73 398.32,-194.32 398.39,-187.32"/>
<text text-anchor="middle" x="471" y="-223.8" font-family="Helvetica,sans-Serif" font-size="10.00"> data1d</text>
</g>
<!-- Node16&#45;&gt;Node9 -->
<g id="edge19" class="edge">
<title>Node16&#45;&gt;Node9</title>
<path fill="none" stroke="#9a32cd" stroke-dasharray="5,2" d="M388.08,-341.05C441.41,-336.41 521.79,-329.42 572.82,-324.98"/>
<polygon fill="#9a32cd" stroke="#9a32cd" points="387.45,-337.59 377.79,-341.94 388.06,-344.56 387.45,-337.59"/>
<text text-anchor="middle" x="471" y="-342.8" font-family="Helvetica,sans-Serif" font-size="10.00"> bc_info</text>
</g>
<!-- Node17 -->
<g id="node17" class="node">
<title>Node17</title>
<g id="a_node17"><a xlink:title=" ">
<polygon fill="white" stroke="#bfbfbf" points="3,-440.8 3,-470.8 150,-470.8 150,-440.8 3,-440.8"/>
<text text-anchor="start" x="11" y="-458.8" font-family="Helvetica,sans-Serif" font-size="10.00">real(kind=r8_kind),</text>
<text text-anchor="middle" x="76.5" y="-447.8" font-family="Helvetica,sans-Serif" font-size="10.00"> dimension(:,:), allocatable</text>
</a>
</g>
</g>
<!-- Node17&#45;&gt;Node16 -->
<g id="edge21" class="edge">
<title>Node17&#45;&gt;Node16</title>
<path fill="none" stroke="#9a32cd" stroke-dasharray="5,2" d="M145.81,-438.08C196.31,-424.87 256.72,-408.78 259,-406.8 274.34,-393.48 262.15,-378.65 277,-364.8 281.18,-360.9 286.19,-357.8 291.47,-355.33"/>
<polygon fill="#9a32cd" stroke="#9a32cd" points="144.65,-434.77 135.86,-440.68 146.42,-441.54 144.65,-434.77"/>
<text text-anchor="middle" x="215" y="-434.8" font-family="Helvetica,sans-Serif" font-size="10.00"> globaldata2d_r8</text>
</g>
<!-- Node18 -->
<g id="node18" class="node">
<title>Node18</title>
<g id="a_node18"><a xlink:title=" ">
<polygon fill="white" stroke="#bfbfbf" points="0,-391.8 0,-421.8 153,-421.8 153,-391.8 0,-391.8"/>
<text text-anchor="start" x="8" y="-409.8" font-family="Helvetica,sans-Serif" font-size="10.00">real(kind=r8_kind),</text>
<text text-anchor="middle" x="76.5" y="-398.8" font-family="Helvetica,sans-Serif" font-size="10.00"> dimension(:,:,:), allocatable</text>
</a>
</g>
</g>
<!-- Node18&#45;&gt;Node16 -->
<g id="edge22" class="edge">
<title>Node18&#45;&gt;Node16</title>
<path fill="none" stroke="#9a32cd" stroke-dasharray="5,2" d="M163.45,-393.5C193.91,-387.93 228.25,-380.66 259,-371.8 267.25,-369.42 268.95,-367.76 277,-364.8 285.56,-361.64 294.92,-358.33 303.43,-355.37"/>
<polygon fill="#9a32cd" stroke="#9a32cd" points="162.51,-390.12 153.28,-395.33 163.74,-397.01 162.51,-390.12"/>
<text text-anchor="middle" x="215" y="-394.8" font-family="Helvetica,sans-Serif" font-size="10.00"> globaldata3d_r8</text>
</g>
<!-- Node19 -->
<g id="node19" class="node">
<title>Node19</title>
<g id="a_node19"><a xlink:title=" ">
<polygon fill="white" stroke="#bfbfbf" points="24,-353.3 24,-372.3 129,-372.3 129,-353.3 24,-353.3"/>
<text text-anchor="middle" x="76.5" y="-360.3" font-family="Helvetica,sans-Serif" font-size="10.00">character(len=32)</text>
</a>
</g>
</g>
<!-- Node19&#45;&gt;Node16 -->
<g id="edge23" class="edge">
<title>Node19&#45;&gt;Node16</title>
<path fill="none" stroke="#9a32cd" stroke-dasharray="5,2" d="M139.33,-358.66C185.17,-355.59 246.56,-351.48 287.49,-348.74"/>
<polygon fill="#9a32cd" stroke="#9a32cd" points="138.95,-355.17 129.21,-359.33 139.42,-362.16 138.95,-355.17"/>
<text text-anchor="middle" x="215" y="-359.8" font-family="Helvetica,sans-Serif" font-size="10.00"> chksum</text>
</g>
<!-- Node20 -->
<g id="node20" class="node">
<title>Node20</title>
<g id="a_node20"><a xlink:title=" ">
<polygon fill="white" stroke="#bfbfbf" points="0,-303.8 0,-333.8 153,-333.8 153,-303.8 0,-303.8"/>
<text text-anchor="start" x="8" y="-321.8" font-family="Helvetica,sans-Serif" font-size="10.00">real(kind=r4_kind),</text>
<text text-anchor="middle" x="76.5" y="-310.8" font-family="Helvetica,sans-Serif" font-size="10.00"> dimension(:,:,:), allocatable</text>
</a>
</g>
</g>
<!-- Node20&#45;&gt;Node16 -->
<g id="edge25" class="edge">
<title>Node20&#45;&gt;Node16</title>
<path fill="none" stroke="#9a32cd" stroke-dasharray="5,2" d="M163.16,-326.85C193.45,-329.82 227.76,-333.31 259,-336.8 268.2,-337.82 278.05,-339 287.43,-340.15"/>
<polygon fill="#9a32cd" stroke="#9a32cd" points="163.34,-323.35 153.05,-325.87 162.66,-330.32 163.34,-323.35"/>
<text text-anchor="middle" x="215" y="-339.8" font-family="Helvetica,sans-Serif" font-size="10.00"> globaldata3d_r4</text>
</g>
<!-- Node21 -->
<g id="node21" class="node">
<title>Node21</title>
<g id="a_node21"><a xlink:title=" ">
<polygon fill="white" stroke="#bfbfbf" points="3,-254.8 3,-284.8 150,-284.8 150,-254.8 3,-254.8"/>
<text text-anchor="start" x="11" y="-272.8" font-family="Helvetica,sans-Serif" font-size="10.00">real(kind=r4_kind),</text>
<text text-anchor="middle" x="76.5" y="-261.8" font-family="Helvetica,sans-Serif" font-size="10.00"> dimension(:,:), allocatable</text>
</a>
</g>
</g>
<!-- Node21&#45;&gt;Node16 -->
<g id="edge26" class="edge">
<title>Node21&#45;&gt;Node16</title>
<path fill="none" stroke="#9a32cd" stroke-dasharray="5,2" d="M160.2,-283.47C191.91,-290.34 227.91,-300.18 259,-313.8 267.81,-317.65 268.43,-321.44 277,-325.8 284.73,-329.72 293.41,-333.26 301.54,-336.24"/>
<polygon fill="#9a32cd" stroke="#9a32cd" points="160.57,-279.97 150.07,-281.34 159.13,-286.82 160.57,-279.97"/>
<text text-anchor="middle" x="215" y="-316.8" font-family="Helvetica,sans-Serif" font-size="10.00"> globaldata2d_r4</text>
</g>
<!-- Node22 -->
<g id="node22" class="node">
<title>Node22</title>
<g id="a_node22"><a xlink:title=" ">
<polygon fill="white" stroke="#bfbfbf" points="818,-497.3 818,-516.3 929,-516.3 929,-497.3 818,-497.3"/>
<text text-anchor="middle" x="873.5" y="-504.3" font-family="Helvetica,sans-Serif" font-size="10.00">character(len=128)</text>
</a>
</g>
</g>
<!-- Node22&#45;&gt;Node1 -->
<g id="edge28" class="edge">
<title>Node22&#45;&gt;Node1</title>
<path fill="none" stroke="#9a32cd" stroke-dasharray="5,2" d="M939.24,-505.1C956.78,-505.54 975.7,-506.86 993,-509.8 998.94,-510.81 1005.19,-512.45 1011.04,-514.26"/>
<polygon fill="#9a32cd" stroke="#9a32cd" points="939.14,-501.59 929.09,-504.93 939.03,-508.59 939.14,-501.59"/>
<text text-anchor="middle" x="970" y="-512.8" font-family="Helvetica,sans-Serif" font-size="10.00"> filename</text>
</g>
</g>
</svg>
        <g id="navigator" transform="translate(0 0)" fill="#404254">
                <rect fill="#f2f5e9" fill-opacity="0.5" stroke="#606060" stroke-width=".5" x="0" y="0" width="60" height="60"/>
                <use id="zoomplus" xlink:href="#zoomPlus" x="17" y="9" onmousedown="handleZoom(evt,'in')"/>
                <use id="zoomminus" xlink:href="#zoomMin" x="42" y="9" onmousedown="handleZoom(evt,'out')"/>
                <use id="reset" xlink:href="#resetDef" x="30" y="36" onmousedown="handleReset()"/>
                <g id="arrowUp" xlink:href="#dirArrow" transform="translate(30 24)" onmousedown="handlePan(0,-1)">
                  <use xlink:href="#rim" fill="#404040">
                        <set attributeName="fill" to="#808080" begin="arrowUp.mouseover" end="arrowUp.mouseout"/>
                  </use>
                  <path fill="none" stroke="white" stroke-width="1.5" d="M0,-3.0v7 M-2.5,-0.5L0,-3.0L2.5,-0.5"/>
                </g>
                <g id="arrowRight" xlink:href="#dirArrow" transform="rotate(90) translate(36 -43)" onmousedown="handlePan(1,0)">
                  <use xlink:href="#rim" fill="#404040">
                        <set attributeName="fill" to="#808080" begin="arrowRight.mouseover" end="arrowRight.mouseout"/>
                  </use>
                  <path fill="none" stroke="white" stroke-width="1.5" d="M0,-3.0v7 M-2.5,-0.5L0,-3.0L2.5,-0.5"/>
                </g>
                <g id="arrowDown" xlink:href="#dirArrow" transform="rotate(180) translate(-30 -48)" onmousedown="handlePan(0,1)">
                  <use xlink:href="#rim" fill="#404040">
                        <set attributeName="fill" to="#808080" begin="arrowDown.mouseover" end="arrowDown.mouseout"/>
                  </use>
                  <path fill="none" stroke="white" stroke-width="1.5" d="M0,-3.0v7 M-2.5,-0.5L0,-3.0L2.5,-0.5"/>
                </g>
                <g id="arrowLeft" xlink:href="#dirArrow" transform="rotate(270) translate(-36 17)" onmousedown="handlePan(-1,0)">
                  <use xlink:href="#rim" fill="#404040">
                        <set attributeName="fill" to="#808080" begin="arrowLeft.mouseover" end="arrowLeft.mouseout"/>
                  </use>
                  <path fill="none" stroke="white" stroke-width="1.5" d="M0,-3.0v7 M-2.5,-0.5L0,-3.0L2.5,-0.5"/>
                </g>
        </g>
        <svg viewBox="0 0 15 15" width="100%" height="30px" preserveAspectRatio="xMaxYMin meet">
         <g id="arrow_out" transform="scale(0.3 0.3)">
          <a xlink:href="structtime__interp__external2__mod_1_1filetype__coll__graph_org.svg" target="_base">
           <rect id="button" ry="5" rx="5" y="6" x="6" height="38" width="38"
                fill="#f2f5e9" fill-opacity="0.5" stroke="#606060" stroke-width="1.0"/>
           <path id="arrow"
             d="M 11.500037,31.436501 C 11.940474,20.09759 22.043105,11.32322 32.158766,21.979434 L 37.068811,17.246167 C 37.068811,17.246167 37.088388,32 37.088388,32 L 22.160133,31.978069 C 22.160133,31.978069 26.997745,27.140456 26.997745,27.140456 C 18.528582,18.264221 13.291696,25.230495 11.500037,31.436501 z"
             style="fill:#404040;"/>
          </a>
         </g>
        </svg>
</svg>
