<?xml version="1.0" encoding="UTF-8" standalone="no"?>
<!DOCTYPE svg PUBLIC "-//W3C//DTD SVG 1.1//EN"
 "http://www.w3.org/Graphics/SVG/1.1/DTD/svg11.dtd">
<!-- Generated by graphviz version 2.43.0 (0)
 -->
<!-- Title: unstruct_domain_spec Pages: 1 -->
<svg width="196pt" height="230pt"
 viewBox="0.00 0.00 196.00 230.00" xmlns="http://www.w3.org/2000/svg" xmlns:xlink="http://www.w3.org/1999/xlink">
<g id="graph0" class="graph" transform="scale(1 1) rotate(0) translate(4 226)">
<title>unstruct_domain_spec</title>
<polygon fill="white" stroke="transparent" points="-4,4 -4,-226 192,-226 192,4 -4,4"/>
<!-- Node1 -->
<g id="node1" class="node">
<title>Node1</title>
<g id="a_node1"><a xlink:title="Private type for axis specification data for an unstructured domain.">
<polygon fill="#bfbfbf" stroke="black" points="0,-0.5 0,-19.5 126,-19.5 126,-0.5 0,-0.5"/>
<text text-anchor="middle" x="63" y="-7.5" font-family="Helvetica,sans-Serif" font-size="10.00">unstruct_domain_spec</text>
</a>
</g>
</g>
<!-- Node2 -->
<g id="node2" class="node">
<title>Node2</title>
<g id="a_node2"><a xlink:href="group__mpp__domains__mod.html#structmpp__domains__mod_1_1unstruct__axis__spec" target="_top" xlink:title="Private type for axis specification data for an unstructured grid.">
<polygon fill="white" stroke="black" points="78,-74 78,-93 188,-93 188,-74 78,-74"/>
<text text-anchor="middle" x="133" y="-81" font-family="Helvetica,sans-Serif" font-size="10.00">unstruct_axis_spec</text>
</a>
</g>
</g>
<!-- Node2&#45;&gt;Node1 -->
<g id="edge1" class="edge">
<title>Node2&#45;&gt;Node1</title>
<path fill="none" stroke="#9a32cd" stroke-dasharray="5,2" d="M117.3,-66.47C103.21,-52.07 83.03,-31.45 71.65,-19.84"/>
<polygon fill="#9a32cd" stroke="#9a32cd" points="114.92,-69.04 124.42,-73.73 119.92,-64.14 114.92,-69.04"/>
<text text-anchor="middle" x="123" y="-41" font-family="Helvetica,sans-Serif" font-size="10.00"> compute</text>
</g>
<!-- Node3 -->
<g id="node3" class="node">
<title>Node3</title>
<g id="a_node3"><a xlink:title=" ">
<polygon fill="white" stroke="#bfbfbf" points="19.5,-202.5 19.5,-221.5 70.5,-221.5 70.5,-202.5 19.5,-202.5"/>
<text text-anchor="middle" x="45" y="-209.5" font-family="Helvetica,sans-Serif" font-size="10.00">integer</text>
</a>
</g>
</g>
<!-- Node3&#45;&gt;Node1 -->
<g id="edge3" class="edge">
<title>Node3&#45;&gt;Node1</title>
<path fill="none" stroke="#9a32cd" stroke-dasharray="5,2" d="M41.12,-192.6C35.97,-164.98 28.56,-111.32 38,-67 41.77,-49.3 51.56,-30.41 57.71,-19.72"/>
<polygon fill="#9a32cd" stroke="#9a32cd" points="37.7,-193.31 43.07,-202.44 44.56,-191.95 37.7,-193.31"/>
<text text-anchor="middle" x="53.5" y="-92" font-family="Helvetica,sans-Serif" font-size="10.00"> pe</text>
<text text-anchor="middle" x="53.5" y="-81" font-family="Helvetica,sans-Serif" font-size="10.00">pos</text>
<text text-anchor="middle" x="53.5" y="-70" font-family="Helvetica,sans-Serif" font-size="10.00">tile_id</text>
</g>
<!-- Node3&#45;&gt;Node2 -->
<g id="edge2" class="edge">
<title>Node3&#45;&gt;Node2</title>
<path fill="none" stroke="#9a32cd" stroke-dasharray="5,2" d="M56.99,-193.76C76.03,-166.4 112.49,-113.99 126.91,-93.26"/>
<polygon fill="#9a32cd" stroke="#9a32cd" points="53.89,-192.1 51.05,-202.31 59.63,-196.09 53.89,-192.1"/>
<text text-anchor="middle" x="139" y="-176" font-family="Helvetica,sans-Serif" font-size="10.00"> begin</text>
<text text-anchor="middle" x="139" y="-165" font-family="Helvetica,sans-Serif" font-size="10.00">begin_index</text>
<text text-anchor="middle" x="139" y="-154" font-family="Helvetica,sans-Serif" font-size="10.00">end</text>
<text text-anchor="middle" x="139" y="-143" font-family="Helvetica,sans-Serif" font-size="10.00">end_index</text>
<text text-anchor="middle" x="139" y="-132" font-family="Helvetica,sans-Serif" font-size="10.00">max_size</text>
<text text-anchor="middle" x="139" y="-121" font-family="Helvetica,sans-Serif" font-size="10.00">size</text>
</g>
</g>
</svg>
