<?xml version="1.0" encoding="UTF-8" standalone="no"?>
<!DOCTYPE svg PUBLIC "-//W3C//DTD SVG 1.1//EN"
 "http://www.w3.org/Graphics/SVG/1.1/DTD/svg11.dtd">
<!-- Generated by graphviz version 2.43.0 (0)
 -->
<!-- Title: clock_data_summary Pages: 1 -->
<svg width="360pt" height="128pt"
 viewBox="0.00 0.00 359.50 128.00" xmlns="http://www.w3.org/2000/svg" xmlns:xlink="http://www.w3.org/1999/xlink">
<g id="graph0" class="graph" transform="scale(1 1) rotate(0) translate(4 124)">
<title>clock_data_summary</title>
<polygon fill="white" stroke="transparent" points="-4,4 -4,-124 355.5,-124 355.5,4 -4,4"/>
<!-- Node1 -->
<g id="node1" class="node">
<title>Node1</title>
<g id="a_node1"><a xlink:title="Summary of information from a clock run.">
<polygon fill="#bfbfbf" stroke="black" points="110,-0.5 110,-19.5 231,-19.5 231,-0.5 110,-0.5"/>
<text text-anchor="middle" x="170.5" y="-7.5" font-family="Helvetica,sans-Serif" font-size="10.00">clock_data_summary</text>
</a>
</g>
</g>
<!-- Node2 -->
<g id="node2" class="node">
<title>Node2</title>
<g id="a_node2"><a xlink:title=" ">
<polygon fill="white" stroke="#bfbfbf" points="0,-100.5 0,-119.5 105,-119.5 105,-100.5 0,-100.5"/>
<text text-anchor="middle" x="52.5" y="-107.5" font-family="Helvetica,sans-Serif" font-size="10.00">character(len=16)</text>
</a>
</g>
</g>
<!-- Node2&#45;&gt;Node1 -->
<g id="edge1" class="edge">
<title>Node2&#45;&gt;Node1</title>
<path fill="none" stroke="#9a32cd" stroke-dasharray="5,2" d="M70.14,-93.46C86.8,-78.89 112.57,-56.64 135.5,-38 143.24,-31.71 152.15,-24.84 159.04,-19.61"/>
<polygon fill="#9a32cd" stroke="#9a32cd" points="67.54,-91.09 62.33,-100.31 72.15,-96.35 67.54,-91.09"/>
<text text-anchor="middle" x="151" y="-57.5" font-family="Helvetica,sans-Serif" font-size="10.00"> name</text>
</g>
<!-- Node3 -->
<g id="node3" class="node">
<title>Node3</title>
<g id="a_node3"><a xlink:title=" ">
<polygon fill="white" stroke="#bfbfbf" points="123.5,-100.5 123.5,-119.5 217.5,-119.5 217.5,-100.5 123.5,-100.5"/>
<text text-anchor="middle" x="170.5" y="-107.5" font-family="Helvetica,sans-Serif" font-size="10.00">integer(i8_kind)</text>
</a>
</g>
</g>
<!-- Node3&#45;&gt;Node1 -->
<g id="edge2" class="edge">
<title>Node3&#45;&gt;Node1</title>
<path fill="none" stroke="#9a32cd" stroke-dasharray="5,2" d="M170.5,-90.22C170.5,-68.95 170.5,-35.22 170.5,-19.54"/>
<polygon fill="#9a32cd" stroke="#9a32cd" points="167,-90.3 170.5,-100.3 174,-90.3 167,-90.3"/>
<text text-anchor="middle" x="208" y="-63" font-family="Helvetica,sans-Serif" font-size="10.00"> msg_size_cnts</text>
<text text-anchor="middle" x="208" y="-52" font-family="Helvetica,sans-Serif" font-size="10.00">total_cnts</text>
</g>
<!-- Node4 -->
<g id="node4" class="node">
<title>Node4</title>
<g id="a_node4"><a xlink:title=" ">
<polygon fill="white" stroke="#bfbfbf" points="236,-100.5 236,-119.5 315,-119.5 315,-100.5 236,-100.5"/>
<text text-anchor="middle" x="275.5" y="-107.5" font-family="Helvetica,sans-Serif" font-size="10.00">real(r8_kind)</text>
</a>
</g>
</g>
<!-- Node4&#45;&gt;Node1 -->
<g id="edge3" class="edge">
<title>Node4&#45;&gt;Node1</title>
<path fill="none" stroke="#9a32cd" stroke-dasharray="5,2" d="M273.13,-90.05C270.19,-74.16 263.69,-51.89 249.5,-38 240.69,-29.38 229.03,-23.51 217.37,-19.51"/>
<polygon fill="#9a32cd" stroke="#9a32cd" points="269.73,-90.93 274.7,-100.29 276.65,-89.87 269.73,-90.93"/>
<text text-anchor="middle" x="311" y="-74" font-family="Helvetica,sans-Serif" font-size="10.00"> msg_size_sums</text>
<text text-anchor="middle" x="311" y="-63" font-family="Helvetica,sans-Serif" font-size="10.00">msg_time_sums</text>
<text text-anchor="middle" x="311" y="-52" font-family="Helvetica,sans-Serif" font-size="10.00">total_data</text>
<text text-anchor="middle" x="311" y="-41" font-family="Helvetica,sans-Serif" font-size="10.00">total_time</text>
</g>
</g>
</svg>
