<?xml version="1.0" encoding="UTF-8" standalone="no"?>
<!DOCTYPE svg PUBLIC "-//W3C//DTD SVG 1.1//EN"
 "http://www.w3.org/Graphics/SVG/1.1/DTD/svg11.dtd">
<!-- Generated by graphviz version 2.43.0 (0)
 -->
<!-- Title: overlapspec Pages: 1 -->
<svg width="223pt" height="384pt"
 viewBox="0.00 0.00 222.50 384.00" xmlns="http://www.w3.org/2000/svg" xmlns:xlink="http://www.w3.org/1999/xlink">
<g id="graph0" class="graph" transform="scale(1 1) rotate(0) translate(4 380)">
<title>overlapspec</title>
<polygon fill="white" stroke="transparent" points="-4,4 -4,-380 218.5,-380 218.5,4 -4,4"/>
<!-- Node1 -->
<g id="node1" class="node">
<title>Node1</title>
<g id="a_node1"><a xlink:title="Private type for overlap specifications.">
<polygon fill="#bfbfbf" stroke="black" points="95.5,-0.5 95.5,-19.5 171.5,-19.5 171.5,-0.5 95.5,-0.5"/>
<text text-anchor="middle" x="133.5" y="-7.5" font-family="Helvetica,sans-Serif" font-size="10.00">overlapspec</text>
</a>
</g>
</g>
<!-- Node1&#45;&gt;Node1 -->
<g id="edge4" class="edge">
<title>Node1&#45;&gt;Node1</title>
<path fill="none" stroke="#9a32cd" stroke-dasharray="5,2" d="M181.79,-15.79C186.51,-14.62 189.5,-12.69 189.5,-10 189.5,-5.7 181.83,-3.34 171.71,-2.94"/>
<polygon fill="#9a32cd" stroke="#9a32cd" points="181.19,-12.33 171.71,-17.06 182.07,-19.28 181.19,-12.33"/>
<text text-anchor="middle" x="202" y="-7.5" font-family="Helvetica,sans-Serif" font-size="10.00"> next</text>
</g>
<!-- Node2 -->
<g id="node2" class="node">
<title>Node2</title>
<g id="a_node2"><a xlink:href="group__mpp__domains__mod.html#structmpp__domains__mod_1_1overlap__type" target="_top" xlink:title="Type for overlapping data.">
<polygon fill="white" stroke="black" points="55.5,-129 55.5,-148 135.5,-148 135.5,-129 55.5,-129"/>
<text text-anchor="middle" x="95.5" y="-136" font-family="Helvetica,sans-Serif" font-size="10.00">overlap_type</text>
</a>
</g>
</g>
<!-- Node2&#45;&gt;Node1 -->
<g id="edge1" class="edge">
<title>Node2&#45;&gt;Node1</title>
<path fill="none" stroke="#9a32cd" stroke-dasharray="5,2" d="M101,-119.17C109.31,-91.53 124.72,-40.22 130.87,-19.76"/>
<polygon fill="#9a32cd" stroke="#9a32cd" points="97.64,-118.22 98.11,-128.81 104.34,-120.23 97.64,-118.22"/>
<text text-anchor="middle" x="138" y="-52" font-family="Helvetica,sans-Serif" font-size="10.00"> recv</text>
<text text-anchor="middle" x="138" y="-41" font-family="Helvetica,sans-Serif" font-size="10.00">send</text>
</g>
<!-- Node3 -->
<g id="node3" class="node">
<title>Node3</title>
<g id="a_node3"><a xlink:title=" ">
<polygon fill="white" stroke="#bfbfbf" points="0,-356.5 0,-375.5 49,-375.5 49,-356.5 0,-356.5"/>
<text text-anchor="middle" x="24.5" y="-363.5" font-family="Helvetica,sans-Serif" font-size="10.00">logical</text>
</a>
</g>
</g>
<!-- Node3&#45;&gt;Node2 -->
<g id="edge2" class="edge">
<title>Node3&#45;&gt;Node2</title>
<path fill="none" stroke="#9a32cd" stroke-dasharray="5,2" d="M20.92,-346.33C16.25,-317.47 10.51,-260.78 27.5,-217 39.09,-187.13 67.72,-161.14 83.89,-148.21"/>
<polygon fill="#9a32cd" stroke="#9a32cd" points="17.49,-347.02 22.67,-356.26 24.38,-345.8 17.49,-347.02"/>
<text text-anchor="middle" x="61.5" y="-275" font-family="Helvetica,sans-Serif" font-size="10.00"> from_contact</text>
</g>
<!-- Node4 -->
<g id="node4" class="node">
<title>Node4</title>
<g id="a_node4"><a xlink:title=" ">
<polygon fill="white" stroke="#bfbfbf" points="118,-356.5 118,-375.5 169,-375.5 169,-356.5 118,-356.5"/>
<text text-anchor="middle" x="143.5" y="-363.5" font-family="Helvetica,sans-Serif" font-size="10.00">integer</text>
</a>
</g>
</g>
<!-- Node4&#45;&gt;Node1 -->
<g id="edge5" class="edge">
<title>Node4&#45;&gt;Node1</title>
<path fill="none" stroke="#9a32cd" stroke-dasharray="5,2" d="M154.1,-347.46C155.5,-344.4 156.72,-341.18 157.5,-338 165.09,-306.88 160.83,-55.95 154.5,-38 152.05,-31.06 147.05,-24.5 142.54,-19.59"/>
<polygon fill="#9a32cd" stroke="#9a32cd" points="150.93,-345.96 149.3,-356.42 157.11,-349.26 150.93,-345.96"/>
<text text-anchor="middle" x="182" y="-191" font-family="Helvetica,sans-Serif" font-size="10.00"> ehalo</text>
<text text-anchor="middle" x="182" y="-180" font-family="Helvetica,sans-Serif" font-size="10.00">nhalo</text>
<text text-anchor="middle" x="182" y="-169" font-family="Helvetica,sans-Serif" font-size="10.00">nrecv</text>
<text text-anchor="middle" x="182" y="-158" font-family="Helvetica,sans-Serif" font-size="10.00">nsend</text>
<text text-anchor="middle" x="182" y="-147" font-family="Helvetica,sans-Serif" font-size="10.00">recvsize</text>
<text text-anchor="middle" x="182" y="-136" font-family="Helvetica,sans-Serif" font-size="10.00">sendsize</text>
<text text-anchor="middle" x="182" y="-125" font-family="Helvetica,sans-Serif" font-size="10.00">shalo</text>
<text text-anchor="middle" x="182" y="-114" font-family="Helvetica,sans-Serif" font-size="10.00">whalo</text>
<text text-anchor="middle" x="182" y="-103" font-family="Helvetica,sans-Serif" font-size="10.00">xbegin</text>
<text text-anchor="middle" x="182" y="-92" font-family="Helvetica,sans-Serif" font-size="10.00">xend</text>
<text text-anchor="middle" x="182" y="-81" font-family="Helvetica,sans-Serif" font-size="10.00">...</text>
</g>
<!-- Node4&#45;&gt;Node2 -->
<g id="edge3" class="edge">
<title>Node4&#45;&gt;Node2</title>
<path fill="none" stroke="#9a32cd" stroke-dasharray="5,2" d="M124.28,-349.21C121.22,-345.82 118.43,-342.04 116.5,-338 100.08,-303.6 96.37,-181.73 95.65,-148.13"/>
<polygon fill="#9a32cd" stroke="#9a32cd" points="122.01,-351.89 131.64,-356.31 126.87,-346.85 122.01,-351.89"/>
<text text-anchor="middle" x="137" y="-330" font-family="Helvetica,sans-Serif" font-size="10.00"> count</text>
<text text-anchor="middle" x="137" y="-319" font-family="Helvetica,sans-Serif" font-size="10.00">dir</text>
<text text-anchor="middle" x="137" y="-308" font-family="Helvetica,sans-Serif" font-size="10.00">ie</text>
<text text-anchor="middle" x="137" y="-297" font-family="Helvetica,sans-Serif" font-size="10.00">index</text>
<text text-anchor="middle" x="137" y="-286" font-family="Helvetica,sans-Serif" font-size="10.00">is</text>
<text text-anchor="middle" x="137" y="-275" font-family="Helvetica,sans-Serif" font-size="10.00">je</text>
<text text-anchor="middle" x="137" y="-264" font-family="Helvetica,sans-Serif" font-size="10.00">js</text>
<text text-anchor="middle" x="137" y="-253" font-family="Helvetica,sans-Serif" font-size="10.00">msgsize</text>
<text text-anchor="middle" x="137" y="-242" font-family="Helvetica,sans-Serif" font-size="10.00">pe</text>
<text text-anchor="middle" x="137" y="-231" font-family="Helvetica,sans-Serif" font-size="10.00">rotation</text>
<text text-anchor="middle" x="137" y="-220" font-family="Helvetica,sans-Serif" font-size="10.00">...</text>
</g>
</g>
</svg>
