<?xml version="1.0" encoding="UTF-8" standalone="no"?>
<!DOCTYPE svg PUBLIC "-//W3C//DTD SVG 1.1//EN"
 "http://www.w3.org/Graphics/SVG/1.1/DTD/svg11.dtd">
<!-- Generated by graphviz version 2.43.0 (0)
 -->
<!-- Title: communicator Pages: 1 -->
<svg width="202pt" height="150pt"
 viewBox="0.00 0.00 201.50 150.00" xmlns="http://www.w3.org/2000/svg" xmlns:xlink="http://www.w3.org/1999/xlink">
<g id="graph0" class="graph" transform="scale(1 1) rotate(0) translate(4 146)">
<title>communicator</title>
<polygon fill="white" stroke="transparent" points="-4,4 -4,-146 197.5,-146 197.5,4 -4,4"/>
<!-- Node1 -->
<g id="node1" class="node">
<title>Node1</title>
<g id="a_node1"><a xlink:title="Communication information for message passing libraries.">
<polygon fill="#bfbfbf" stroke="black" points="57,-0.5 57,-19.5 144,-19.5 144,-0.5 57,-0.5"/>
<text text-anchor="middle" x="100.5" y="-7.5" font-family="Helvetica,sans-Serif" font-size="10.00">communicator</text>
</a>
</g>
</g>
<!-- Node2 -->
<g id="node2" class="node">
<title>Node2</title>
<g id="a_node2"><a xlink:title=" ">
<polygon fill="white" stroke="#bfbfbf" points="0,-122.5 0,-141.5 105,-141.5 105,-122.5 0,-122.5"/>
<text text-anchor="middle" x="52.5" y="-129.5" font-family="Helvetica,sans-Serif" font-size="10.00">character(len=32)</text>
</a>
</g>
</g>
<!-- Node2&#45;&gt;Node1 -->
<g id="edge1" class="edge">
<title>Node2&#45;&gt;Node1</title>
<path fill="none" stroke="#9a32cd" stroke-dasharray="5,2" d="M59.76,-112.85C70.27,-86.57 89.33,-38.94 97.08,-19.55"/>
<polygon fill="#9a32cd" stroke="#9a32cd" points="56.42,-111.79 55.95,-122.37 62.92,-114.39 56.42,-111.79"/>
<text text-anchor="middle" x="105" y="-68.5" font-family="Helvetica,sans-Serif" font-size="10.00"> name</text>
</g>
<!-- Node3 -->
<g id="node3" class="node">
<title>Node3</title>
<g id="a_node3"><a xlink:title=" ">
<polygon fill="white" stroke="#bfbfbf" points="123,-122.5 123,-141.5 174,-141.5 174,-122.5 123,-122.5"/>
<text text-anchor="middle" x="148.5" y="-129.5" font-family="Helvetica,sans-Serif" font-size="10.00">integer</text>
</a>
</g>
</g>
<!-- Node3&#45;&gt;Node1 -->
<g id="edge2" class="edge">
<title>Node3&#45;&gt;Node1</title>
<path fill="none" stroke="#9a32cd" stroke-dasharray="5,2" d="M146.32,-112.3C143.45,-92.81 137.22,-61.87 124.5,-38 120.84,-31.14 115.1,-24.59 110.15,-19.66"/>
<polygon fill="#9a32cd" stroke="#9a32cd" points="142.86,-112.84 147.64,-122.3 149.8,-111.93 142.86,-112.84"/>
<text text-anchor="middle" x="169" y="-96" font-family="Helvetica,sans-Serif" font-size="10.00"> count</text>
<text text-anchor="middle" x="169" y="-85" font-family="Helvetica,sans-Serif" font-size="10.00">group</text>
<text text-anchor="middle" x="169" y="-74" font-family="Helvetica,sans-Serif" font-size="10.00">id</text>
<text text-anchor="middle" x="169" y="-63" font-family="Helvetica,sans-Serif" font-size="10.00">list</text>
<text text-anchor="middle" x="169" y="-52" font-family="Helvetica,sans-Serif" font-size="10.00">log2stride</text>
<text text-anchor="middle" x="169" y="-41" font-family="Helvetica,sans-Serif" font-size="10.00">start</text>
</g>
</g>
</svg>
