<?xml version="1.0" encoding="UTF-8" standalone="no"?>
<!DOCTYPE svg PUBLIC "-//W3C//DTD SVG 1.1//EN"
 "http://www.w3.org/Graphics/SVG/1.1/DTD/svg11.dtd">
<!-- Generated by graphviz version 2.43.0 (0)
 -->
<!-- Title: fmsnetcdffile_t Pages: 1 -->
<svg width="916pt" height="888pt"
 viewBox="0.00 0.00 916.00 888.26" xmlns="http://www.w3.org/2000/svg" xmlns:xlink="http://www.w3.org/1999/xlink">
<g id="graph0" class="graph" transform="scale(1 1) rotate(0) translate(4 884.26)">
<title>fmsnetcdffile_t</title>
<polygon fill="white" stroke="transparent" points="-4,4 -4,-884.26 912,-884.26 912,4 -4,4"/>
<!-- Node1 -->
<g id="node1" class="node">
<title>Node1</title>
<g id="a_node1"><a xlink:title="Netcdf file type.">
<polygon fill="#bfbfbf" stroke="black" points="818,-495.76 818,-514.76 908,-514.76 908,-495.76 818,-495.76"/>
<text text-anchor="middle" x="863" y="-502.76" font-family="Helvetica,sans-Serif" font-size="10.00">fmsnetcdffile_t</text>
</a>
</g>
</g>
<!-- Node2 -->
<g id="node2" class="node">
<title>Node2</title>
<g id="a_node2"><a xlink:title=" ">
<polygon fill="white" stroke="#bfbfbf" points="52,-322.76 52,-341.76 101,-341.76 101,-322.76 52,-322.76"/>
<text text-anchor="middle" x="76.5" y="-329.76" font-family="Helvetica,sans-Serif" font-size="10.00">logical</text>
</a>
</g>
</g>
<!-- Node2&#45;&gt;Node1 -->
<g id="edge1" class="edge">
<title>Node2&#45;&gt;Node1</title>
<path fill="none" stroke="#9a32cd" stroke-dasharray="5,2" d="M88.71,-313.58C115.76,-270.03 188.91,-160.76 277,-99.26 372.99,-32.24 431,0.52 536,-51.26 736.6,-150.18 840.25,-439.02 858.91,-495.59"/>
<polygon fill="#9a32cd" stroke="#9a32cd" points="85.62,-311.93 83.38,-322.29 91.59,-315.59 85.62,-311.93"/>
<text text-anchor="middle" x="471" y="-120.26" font-family="Helvetica,sans-Serif" font-size="10.00"> mode_is_append</text>
<text text-anchor="middle" x="471" y="-109.26" font-family="Helvetica,sans-Serif" font-size="10.00">is_diskless</text>
<text text-anchor="middle" x="471" y="-98.26" font-family="Helvetica,sans-Serif" font-size="10.00">is_netcdf4</text>
<text text-anchor="middle" x="471" y="-87.26" font-family="Helvetica,sans-Serif" font-size="10.00">is_restart</text>
<text text-anchor="middle" x="471" y="-76.26" font-family="Helvetica,sans-Serif" font-size="10.00">is_readonly</text>
<text text-anchor="middle" x="471" y="-65.26" font-family="Helvetica,sans-Serif" font-size="10.00">is_root</text>
<text text-anchor="middle" x="471" y="-54.26" font-family="Helvetica,sans-Serif" font-size="10.00">is_open</text>
</g>
<!-- Node8 -->
<g id="node8" class="node">
<title>Node8</title>
<g id="a_node8"><a xlink:href="group__netcdf__io__mod.html#structnetcdf__io__mod_1_1restartvariable__t" target="_top" xlink:title="Restart variable.">
<polygon fill="white" stroke="black" points="573,-325.76 573,-344.76 671,-344.76 671,-325.76 573,-325.76"/>
<text text-anchor="middle" x="622" y="-332.76" font-family="Helvetica,sans-Serif" font-size="10.00">restartvariable_t</text>
</a>
</g>
</g>
<!-- Node2&#45;&gt;Node8 -->
<g id="edge10" class="edge">
<title>Node2&#45;&gt;Node8</title>
<path fill="none" stroke="#9a32cd" stroke-dasharray="5,2" d="M111.79,-334.22C188.05,-338.29 377.5,-346.85 536,-341.26 547.98,-340.84 560.88,-340.08 572.93,-339.24"/>
<polygon fill="#9a32cd" stroke="#9a32cd" points="111.55,-330.7 101.37,-333.65 111.17,-337.69 111.55,-330.7"/>
<text text-anchor="middle" x="332.5" y="-356.26" font-family="Helvetica,sans-Serif" font-size="10.00"> was_read</text>
<text text-anchor="middle" x="332.5" y="-345.26" font-family="Helvetica,sans-Serif" font-size="10.00">is_bc_variable</text>
</g>
<!-- Node15 -->
<g id="node15" class="node">
<title>Node15</title>
<g id="a_node15"><a xlink:href="group__netcdf__io__mod.html#structnetcdf__io__mod_1_1bc__information" target="_top" xlink:title="information needed fr regional restart variables">
<polygon fill="white" stroke="black" points="287.5,-451.76 287.5,-470.76 377.5,-470.76 377.5,-451.76 287.5,-451.76"/>
<text text-anchor="middle" x="332.5" y="-458.76" font-family="Helvetica,sans-Serif" font-size="10.00">bc_information</text>
</a>
</g>
</g>
<!-- Node2&#45;&gt;Node15 -->
<g id="edge19" class="edge">
<title>Node2&#45;&gt;Node15</title>
<path fill="none" stroke="#9a32cd" stroke-dasharray="5,2" d="M111.26,-336.53C157.77,-343.07 238.18,-357 259,-377.26 280.48,-398.17 256.51,-420.38 277,-442.26 280.63,-446.13 285.09,-449.22 289.89,-451.68"/>
<polygon fill="#9a32cd" stroke="#9a32cd" points="111.71,-333.06 101.33,-335.17 110.76,-339.99 111.71,-333.06"/>
<text text-anchor="middle" x="215" y="-391.26" font-family="Helvetica,sans-Serif" font-size="10.00"> data_on_file_root</text>
<text text-anchor="middle" x="215" y="-380.26" font-family="Helvetica,sans-Serif" font-size="10.00">is_root_pe</text>
</g>
<!-- Node3 -->
<g id="node3" class="node">
<title>Node3</title>
<g id="a_node3"><a xlink:title=" ">
<polygon fill="white" stroke="#bfbfbf" points="277,-495.76 277,-514.76 388,-514.76 388,-495.76 277,-495.76"/>
<text text-anchor="middle" x="332.5" y="-502.76" font-family="Helvetica,sans-Serif" font-size="10.00">character(len=256)</text>
</a>
</g>
</g>
<!-- Node3&#45;&gt;Node1 -->
<g id="edge2" class="edge">
<title>Node3&#45;&gt;Node1</title>
<path fill="none" stroke="#9a32cd" stroke-dasharray="5,2" d="M398.28,-505.26C507.32,-505.26 724.77,-505.26 817.95,-505.26"/>
<polygon fill="#9a32cd" stroke="#9a32cd" points="398.07,-501.76 388.07,-505.26 398.07,-508.76 398.07,-501.76"/>
<text text-anchor="middle" x="622" y="-519.26" font-family="Helvetica,sans-Serif" font-size="10.00"> path</text>
<text text-anchor="middle" x="622" y="-508.26" font-family="Helvetica,sans-Serif" font-size="10.00">nc_format</text>
</g>
<!-- Node5 -->
<g id="node5" class="node">
<title>Node5</title>
<g id="a_node5"><a xlink:href="group__netcdf__io__mod.html#structnetcdf__io__mod_1_1compresseddimension__t" target="_top" xlink:title="Compressed dimension.">
<polygon fill="white" stroke="black" points="554,-592.76 554,-611.76 690,-611.76 690,-592.76 554,-592.76"/>
<text text-anchor="middle" x="622" y="-599.76" font-family="Helvetica,sans-Serif" font-size="10.00">compresseddimension_t</text>
</a>
</g>
</g>
<!-- Node3&#45;&gt;Node5 -->
<g id="edge5" class="edge">
<title>Node3&#45;&gt;Node5</title>
<path fill="none" stroke="#9a32cd" stroke-dasharray="5,2" d="M345.83,-523.09C358.71,-540.13 380.55,-565 406,-577.26 452.04,-599.43 509.84,-605.1 553.92,-605.55"/>
<polygon fill="#9a32cd" stroke="#9a32cd" points="348.66,-521.02 339.95,-514.99 343,-525.14 348.66,-521.02"/>
<text text-anchor="middle" x="471" y="-607.26" font-family="Helvetica,sans-Serif" font-size="10.00"> dimname</text>
</g>
<!-- Node3&#45;&gt;Node8 -->
<g id="edge15" class="edge">
<title>Node3&#45;&gt;Node8</title>
<path fill="none" stroke="#9a32cd" stroke-dasharray="5,2" d="M367.67,-492.24C379.66,-488 393.31,-483.55 406,-480.26 462.8,-465.54 486.56,-488.86 536,-457.26 580.37,-428.9 608,-368.27 617.4,-344.8"/>
<polygon fill="#9a32cd" stroke="#9a32cd" points="366.25,-489.03 358.04,-495.72 368.63,-495.61 366.25,-489.03"/>
<text text-anchor="middle" x="471" y="-483.26" font-family="Helvetica,sans-Serif" font-size="10.00"> varname</text>
</g>
<!-- Node4 -->
<g id="node4" class="node">
<title>Node4</title>
<g id="a_node4"><a xlink:title=" ">
<polygon fill="white" stroke="#bfbfbf" points="569.5,-5.76 569.5,-24.76 674.5,-24.76 674.5,-5.76 569.5,-5.76"/>
<text text-anchor="middle" x="622" y="-12.76" font-family="Helvetica,sans-Serif" font-size="10.00">character(len=20)</text>
</a>
</g>
</g>
<!-- Node4&#45;&gt;Node1 -->
<g id="edge3" class="edge">
<title>Node4&#45;&gt;Node1</title>
<path fill="none" stroke="#9a32cd" stroke-dasharray="5,2" d="M670.58,-3.93C710.45,2.48 766.12,3.78 800,-28.26 835.42,-61.75 857.81,-430.98 861.47,-495.63"/>
<polygon fill="#9a32cd" stroke="#9a32cd" points="669.79,-0.52 660.56,-5.71 671.01,-7.41 669.79,-0.52"/>
<text text-anchor="middle" x="754" y="-31.26" font-family="Helvetica,sans-Serif" font-size="10.00"> time_name</text>
</g>
<!-- Node5&#45;&gt;Node1 -->
<g id="edge4" class="edge">
<title>Node5&#45;&gt;Node1</title>
<path fill="none" stroke="#9a32cd" stroke-dasharray="5,2" d="M700.74,-603.12C733.09,-600.56 770.02,-593.64 800,-577.26 827.07,-562.47 847.67,-530.87 856.82,-514.91"/>
<polygon fill="#9a32cd" stroke="#9a32cd" points="700.15,-599.65 690.41,-603.8 700.62,-606.63 700.15,-599.65"/>
<text text-anchor="middle" x="754" y="-604.26" font-family="Helvetica,sans-Serif" font-size="10.00"> compressed_dims</text>
</g>
<!-- Node6 -->
<g id="node6" class="node">
<title>Node6</title>
<g id="a_node6"><a xlink:title=" ">
<polygon fill="white" stroke="#bfbfbf" points="51,-720.76 51,-739.76 102,-739.76 102,-720.76 51,-720.76"/>
<text text-anchor="middle" x="76.5" y="-727.76" font-family="Helvetica,sans-Serif" font-size="10.00">integer</text>
</a>
</g>
</g>
<!-- Node6&#45;&gt;Node1 -->
<g id="edge25" class="edge">
<title>Node6&#45;&gt;Node1</title>
<path fill="none" stroke="#9a32cd" stroke-dasharray="5,2" d="M92.53,-747.42C109.57,-765.62 139.16,-793.59 171,-807.26 259.78,-845.37 293.92,-842.27 388,-820.26 586.95,-773.7 651.98,-757.11 800,-616.26 831.82,-585.98 851.63,-535.7 858.88,-514.81"/>
<polygon fill="#9a32cd" stroke="#9a32cd" points="94.94,-744.87 85.62,-739.83 89.76,-749.58 94.94,-744.87"/>
<text text-anchor="middle" x="471" y="-872.26" font-family="Helvetica,sans-Serif" font-size="10.00"> io_root</text>
<text text-anchor="middle" x="471" y="-861.26" font-family="Helvetica,sans-Serif" font-size="10.00">ncid</text>
<text text-anchor="middle" x="471" y="-850.26" font-family="Helvetica,sans-Serif" font-size="10.00">num_restart_vars</text>
<text text-anchor="middle" x="471" y="-839.26" font-family="Helvetica,sans-Serif" font-size="10.00">pelist</text>
<text text-anchor="start" x="427.5" y="-828.26" font-family="Helvetica,sans-Serif" font-size="10.00">num_compressed</text>
<text text-anchor="middle" x="471" y="-817.26" font-family="Helvetica,sans-Serif" font-size="10.00">_dims</text>
</g>
<!-- Node6&#45;&gt;Node5 -->
<g id="edge6" class="edge">
<title>Node6&#45;&gt;Node5</title>
<path fill="none" stroke="#9a32cd" stroke-dasharray="5,2" d="M95.8,-746.58C113.58,-761.26 142.05,-781.77 171,-790.26 208.53,-801.26 221.01,-799.54 259,-790.26 407.6,-753.97 563.15,-645.08 608.13,-611.94"/>
<polygon fill="#9a32cd" stroke="#9a32cd" points="97.86,-743.74 87.98,-739.92 93.32,-749.07 97.86,-743.74"/>
<text text-anchor="middle" x="332.5" y="-808.26" font-family="Helvetica,sans-Serif" font-size="10.00"> npes_corner</text>
<text text-anchor="middle" x="332.5" y="-797.26" font-family="Helvetica,sans-Serif" font-size="10.00">nelems</text>
<text text-anchor="middle" x="332.5" y="-786.26" font-family="Helvetica,sans-Serif" font-size="10.00">npes_nelems</text>
</g>
<!-- Node7 -->
<g id="node7" class="node">
<title>Node7</title>
<g id="a_node7"><a xlink:href="group__netcdf__io__mod.html#structnetcdf__io__mod_1_1dimension__information" target="_top" xlink:title="information about the current dimensions for regional restart variables">
<polygon fill="white" stroke="black" points="406,-555.76 406,-574.76 536,-574.76 536,-555.76 406,-555.76"/>
<text text-anchor="middle" x="471" y="-562.76" font-family="Helvetica,sans-Serif" font-size="10.00">dimension_information</text>
</a>
</g>
</g>
<!-- Node6&#45;&gt;Node7 -->
<g id="edge8" class="edge">
<title>Node6&#45;&gt;Node7</title>
<path fill="none" stroke="#9a32cd" stroke-dasharray="5,2" d="M94.52,-713.7C112.25,-697.34 141.49,-672.73 171,-658.26 207.3,-640.46 220.5,-647.58 259,-635.26 325.59,-613.94 339,-599.23 406,-579.26 411.34,-577.67 416.98,-576.17 422.61,-574.79"/>
<polygon fill="#9a32cd" stroke="#9a32cd" points="92.11,-711.16 87.23,-720.57 96.91,-716.26 92.11,-711.16"/>
<text text-anchor="middle" x="215" y="-782.26" font-family="Helvetica,sans-Serif" font-size="10.00"> x</text>
<text text-anchor="middle" x="215" y="-771.26" font-family="Helvetica,sans-Serif" font-size="10.00">each</text>
<text text-anchor="middle" x="215" y="-760.26" font-family="Helvetica,sans-Serif" font-size="10.00">y</text>
<text text-anchor="middle" x="215" y="-749.26" font-family="Helvetica,sans-Serif" font-size="10.00">unique</text>
<text text-anchor="middle" x="215" y="-738.26" font-family="Helvetica,sans-Serif" font-size="10.00">z</text>
<text text-anchor="middle" x="215" y="-727.26" font-family="Helvetica,sans-Serif" font-size="10.00">size</text>
<text text-anchor="middle" x="215" y="-716.26" font-family="Helvetica,sans-Serif" font-size="10.00">of</text>
<text text-anchor="middle" x="215" y="-705.26" font-family="Helvetica,sans-Serif" font-size="10.00">number</text>
<text text-anchor="start" x="195" y="-694.26" font-family="Helvetica,sans-Serif" font-size="10.00">cur_dim</text>
<text text-anchor="middle" x="215" y="-683.26" font-family="Helvetica,sans-Serif" font-size="10.00">_len</text>
<text text-anchor="middle" x="215" y="-672.26" font-family="Helvetica,sans-Serif" font-size="10.00">the</text>
<text text-anchor="middle" x="215" y="-661.26" font-family="Helvetica,sans-Serif" font-size="10.00">...</text>
</g>
<!-- Node6&#45;&gt;Node15 -->
<g id="edge22" class="edge">
<title>Node6&#45;&gt;Node15</title>
<path fill="none" stroke="#9a32cd" stroke-dasharray="5,2" d="M82.54,-711.1C92.89,-675.49 120.01,-599.06 171,-558.26 202.75,-532.86 229,-560.7 259,-533.26 275.5,-518.16 261.7,-502.58 277,-486.26 283.27,-479.58 291.66,-474.53 299.99,-470.79"/>
<polygon fill="#9a32cd" stroke="#9a32cd" points="79.16,-710.18 79.85,-720.75 85.9,-712.05 79.16,-710.18"/>
<text text-anchor="middle" x="215" y="-627.26" font-family="Helvetica,sans-Serif" font-size="10.00"> global_size</text>
<text text-anchor="middle" x="215" y="-616.26" font-family="Helvetica,sans-Serif" font-size="10.00">y_halo</text>
<text text-anchor="middle" x="215" y="-605.26" font-family="Helvetica,sans-Serif" font-size="10.00">pelist</text>
<text text-anchor="middle" x="215" y="-594.26" font-family="Helvetica,sans-Serif" font-size="10.00">x_halo</text>
<text text-anchor="middle" x="215" y="-583.26" font-family="Helvetica,sans-Serif" font-size="10.00">jshift</text>
<text text-anchor="middle" x="215" y="-572.26" font-family="Helvetica,sans-Serif" font-size="10.00">ishift</text>
<text text-anchor="middle" x="215" y="-561.26" font-family="Helvetica,sans-Serif" font-size="10.00">indices</text>
</g>
<!-- Node7&#45;&gt;Node1 -->
<g id="edge7" class="edge">
<title>Node7&#45;&gt;Node1</title>
<path fill="none" stroke="#9a32cd" stroke-dasharray="5,2" d="M546.04,-556.65C612.71,-548.48 713.24,-535.11 800,-519.26 807.16,-517.95 814.76,-516.38 822.08,-514.78"/>
<polygon fill="#9a32cd" stroke="#9a32cd" points="545.55,-553.18 536.05,-557.87 546.4,-560.13 545.55,-553.18"/>
<text text-anchor="middle" x="622" y="-558.26" font-family="Helvetica,sans-Serif" font-size="10.00"> bc_dimensions</text>
</g>
<!-- Node8&#45;&gt;Node1 -->
<g id="edge9" class="edge">
<title>Node8&#45;&gt;Node1</title>
<path fill="none" stroke="#9a32cd" stroke-dasharray="5,2" d="M644.78,-350.75C693.32,-385.28 809.2,-467.7 848.61,-495.74"/>
<polygon fill="#9a32cd" stroke="#9a32cd" points="646.71,-347.83 636.53,-344.89 642.65,-353.53 646.71,-347.83"/>
<text text-anchor="middle" x="754" y="-462.26" font-family="Helvetica,sans-Serif" font-size="10.00"> restart_vars</text>
</g>
<!-- Node9 -->
<g id="node9" class="node">
<title>Node9</title>
<g id="a_node9"><a xlink:title=" ">
<polygon fill="white" stroke="#bfbfbf" points="277,-402.26 277,-432.26 388,-432.26 388,-402.26 277,-402.26"/>
<text text-anchor="start" x="285" y="-420.26" font-family="Helvetica,sans-Serif" font-size="10.00">class(*), dimension</text>
<text text-anchor="middle" x="332.5" y="-409.26" font-family="Helvetica,sans-Serif" font-size="10.00">(:,:,:), pointer</text>
</a>
</g>
</g>
<!-- Node9&#45;&gt;Node8 -->
<g id="edge11" class="edge">
<title>Node9&#45;&gt;Node8</title>
<path fill="none" stroke="#9a32cd" stroke-dasharray="5,2" d="M398.1,-407.85C438.38,-401.01 490.95,-390.3 536,-375.26 560.44,-367.1 587.09,-353.77 603.91,-344.77"/>
<polygon fill="#9a32cd" stroke="#9a32cd" points="397.43,-404.41 388.13,-409.51 398.57,-411.32 397.43,-404.41"/>
<text text-anchor="middle" x="471" y="-409.26" font-family="Helvetica,sans-Serif" font-size="10.00"> data3d</text>
</g>
<!-- Node10 -->
<g id="node10" class="node">
<title>Node10</title>
<g id="a_node10"><a xlink:title=" ">
<polygon fill="white" stroke="#bfbfbf" points="277,-294.26 277,-324.26 388,-324.26 388,-294.26 277,-294.26"/>
<text text-anchor="start" x="285" y="-312.26" font-family="Helvetica,sans-Serif" font-size="10.00">class(*), dimension</text>
<text text-anchor="middle" x="332.5" y="-301.26" font-family="Helvetica,sans-Serif" font-size="10.00">(:,:), pointer</text>
</a>
</g>
</g>
<!-- Node10&#45;&gt;Node8 -->
<g id="edge12" class="edge">
<title>Node10&#45;&gt;Node8</title>
<path fill="none" stroke="#9a32cd" stroke-dasharray="5,2" d="M398.21,-315.11C451.13,-319.9 524.78,-326.56 572.66,-330.89"/>
<polygon fill="#9a32cd" stroke="#9a32cd" points="398.53,-311.62 388.25,-314.21 397.9,-318.6 398.53,-311.62"/>
<text text-anchor="middle" x="471" y="-329.26" font-family="Helvetica,sans-Serif" font-size="10.00"> data2d</text>
</g>
<!-- Node11 -->
<g id="node11" class="node">
<title>Node11</title>
<g id="a_node11"><a xlink:title=" ">
<polygon fill="white" stroke="#bfbfbf" points="277,-245.26 277,-275.26 388,-275.26 388,-245.26 277,-245.26"/>
<text text-anchor="start" x="285" y="-263.26" font-family="Helvetica,sans-Serif" font-size="10.00">class(*), dimension</text>
<text text-anchor="middle" x="332.5" y="-252.26" font-family="Helvetica,sans-Serif" font-size="10.00">(:,:,:,:,:), pointer</text>
</a>
</g>
</g>
<!-- Node11&#45;&gt;Node8 -->
<g id="edge13" class="edge">
<title>Node11&#45;&gt;Node8</title>
<path fill="none" stroke="#9a32cd" stroke-dasharray="5,2" d="M398.29,-269.74C438.42,-276.42 490.77,-286.62 536,-300.26 558.77,-307.12 583.83,-317.85 600.8,-325.62"/>
<polygon fill="#9a32cd" stroke="#9a32cd" points="398.79,-266.27 388.36,-268.11 397.66,-273.18 398.79,-266.27"/>
<text text-anchor="middle" x="471" y="-303.26" font-family="Helvetica,sans-Serif" font-size="10.00"> data5d</text>
</g>
<!-- Node12 -->
<g id="node12" class="node">
<title>Node12</title>
<g id="a_node12"><a xlink:title=" ">
<polygon fill="white" stroke="#bfbfbf" points="285,-206.76 285,-225.76 380,-225.76 380,-206.76 285,-206.76"/>
<text text-anchor="middle" x="332.5" y="-213.76" font-family="Helvetica,sans-Serif" font-size="10.00">class(*), pointer</text>
</a>
</g>
</g>
<!-- Node12&#45;&gt;Node8 -->
<g id="edge14" class="edge">
<title>Node12&#45;&gt;Node8</title>
<path fill="none" stroke="#9a32cd" stroke-dasharray="5,2" d="M390.22,-218.71C432.42,-222.49 490.35,-231.92 536,-255.26 570.28,-272.79 600.5,-308.36 613.8,-325.54"/>
<polygon fill="#9a32cd" stroke="#9a32cd" points="390.37,-215.21 380.12,-217.88 389.8,-222.18 390.37,-215.21"/>
<text text-anchor="middle" x="471" y="-258.26" font-family="Helvetica,sans-Serif" font-size="10.00"> data0d</text>
</g>
<!-- Node13 -->
<g id="node13" class="node">
<title>Node13</title>
<g id="a_node13"><a xlink:title=" ">
<polygon fill="white" stroke="#bfbfbf" points="277,-157.26 277,-187.26 388,-187.26 388,-157.26 277,-157.26"/>
<text text-anchor="start" x="285" y="-175.26" font-family="Helvetica,sans-Serif" font-size="10.00">class(*), dimension</text>
<text text-anchor="middle" x="332.5" y="-164.26" font-family="Helvetica,sans-Serif" font-size="10.00">(:,:,:,:), pointer</text>
</a>
</g>
</g>
<!-- Node13&#45;&gt;Node8 -->
<g id="edge16" class="edge">
<title>Node13&#45;&gt;Node8</title>
<path fill="none" stroke="#9a32cd" stroke-dasharray="5,2" d="M398.25,-169.8C440.56,-171.15 495.31,-178.8 536,-205.26 582.34,-235.4 608.97,-300.63 617.74,-325.42"/>
<polygon fill="#9a32cd" stroke="#9a32cd" points="398.13,-166.29 388.06,-169.58 397.98,-173.29 398.13,-166.29"/>
<text text-anchor="middle" x="471" y="-208.26" font-family="Helvetica,sans-Serif" font-size="10.00"> data4d</text>
</g>
<!-- Node14 -->
<g id="node14" class="node">
<title>Node14</title>
<g id="a_node14"><a xlink:title=" ">
<polygon fill="white" stroke="#bfbfbf" points="277,-108.26 277,-138.26 388,-138.26 388,-108.26 277,-108.26"/>
<text text-anchor="start" x="285" y="-126.26" font-family="Helvetica,sans-Serif" font-size="10.00">class(*), dimension</text>
<text text-anchor="middle" x="332.5" y="-115.26" font-family="Helvetica,sans-Serif" font-size="10.00">(:), pointer</text>
</a>
</g>
</g>
<!-- Node14&#45;&gt;Node8 -->
<g id="edge17" class="edge">
<title>Node14&#45;&gt;Node8</title>
<path fill="none" stroke="#9a32cd" stroke-dasharray="5,2" d="M398.09,-131.66C455.22,-139.33 530.4,-150.07 536,-154.26 595.23,-198.53 614.74,-294.43 619.62,-325.4"/>
<polygon fill="#9a32cd" stroke="#9a32cd" points="398.39,-128.17 388.01,-130.32 397.46,-135.11 398.39,-128.17"/>
<text text-anchor="middle" x="471" y="-157.26" font-family="Helvetica,sans-Serif" font-size="10.00"> data1d</text>
</g>
<!-- Node15&#45;&gt;Node8 -->
<g id="edge18" class="edge">
<title>Node15&#45;&gt;Node8</title>
<path fill="none" stroke="#9a32cd" stroke-dasharray="5,2" d="M387.81,-449.93C393.94,-448.68 400.11,-447.43 406,-446.26 463.7,-434.74 484.1,-448.98 536,-421.26 571.74,-402.17 601.9,-362.98 614.58,-344.85"/>
<polygon fill="#9a32cd" stroke="#9a32cd" points="386.66,-446.6 377.57,-452.04 388.07,-453.45 386.66,-446.6"/>
<text text-anchor="middle" x="471" y="-449.26" font-family="Helvetica,sans-Serif" font-size="10.00"> bc_info</text>
</g>
<!-- Node16 -->
<g id="node16" class="node">
<title>Node16</title>
<g id="a_node16"><a xlink:title=" ">
<polygon fill="white" stroke="#bfbfbf" points="22.5,-511.76 22.5,-530.76 130.5,-530.76 130.5,-511.76 22.5,-511.76"/>
<text text-anchor="middle" x="76.5" y="-518.76" font-family="Helvetica,sans-Serif" font-size="10.00">real(kind=r8_kind)</text>
</a>
</g>
</g>
<!-- Node16&#45;&gt;Node15 -->
<g id="edge20" class="edge">
<title>Node16&#45;&gt;Node15</title>
<path fill="none" stroke="#9a32cd" stroke-dasharray="5,2" d="M140.67,-513.2C175.87,-507.94 220.28,-500.04 259,-489.26 276.55,-484.37 295.75,-476.85 309.98,-470.84"/>
<polygon fill="#9a32cd" stroke="#9a32cd" points="139.91,-509.77 130.52,-514.68 140.92,-516.7 139.91,-509.77"/>
<text text-anchor="middle" x="215" y="-521.26" font-family="Helvetica,sans-Serif" font-size="10.00"> globaldata2d_r8</text>
<text text-anchor="middle" x="215" y="-510.26" font-family="Helvetica,sans-Serif" font-size="10.00">globaldata3d_r8</text>
</g>
<!-- Node17 -->
<g id="node17" class="node">
<title>Node17</title>
<g id="a_node17"><a xlink:title=" ">
<polygon fill="white" stroke="#bfbfbf" points="24,-473.76 24,-492.76 129,-492.76 129,-473.76 24,-473.76"/>
<text text-anchor="middle" x="76.5" y="-480.76" font-family="Helvetica,sans-Serif" font-size="10.00">character(len=32)</text>
</a>
</g>
</g>
<!-- Node17&#45;&gt;Node15 -->
<g id="edge21" class="edge">
<title>Node17&#45;&gt;Node15</title>
<path fill="none" stroke="#9a32cd" stroke-dasharray="5,2" d="M139.33,-477.9C185.17,-473.93 246.56,-468.62 287.49,-465.07"/>
<polygon fill="#9a32cd" stroke="#9a32cd" points="138.87,-474.43 129.21,-478.78 139.47,-481.4 138.87,-474.43"/>
<text text-anchor="middle" x="215" y="-477.26" font-family="Helvetica,sans-Serif" font-size="10.00"> chksum</text>
</g>
<!-- Node18 -->
<g id="node18" class="node">
<title>Node18</title>
<g id="a_node18"><a xlink:title=" ">
<polygon fill="white" stroke="#bfbfbf" points="0,-424.26 0,-454.26 153,-454.26 153,-424.26 0,-424.26"/>
<text text-anchor="start" x="8" y="-442.26" font-family="Helvetica,sans-Serif" font-size="10.00">real(kind=r4_kind),</text>
<text text-anchor="middle" x="76.5" y="-431.26" font-family="Helvetica,sans-Serif" font-size="10.00"> dimension(:,:,:), allocatable</text>
</a>
</g>
</g>
<!-- Node18&#45;&gt;Node15 -->
<g id="edge23" class="edge">
<title>Node18&#45;&gt;Node15</title>
<path fill="none" stroke="#9a32cd" stroke-dasharray="5,2" d="M163.19,-444.48C193.49,-446.56 227.79,-449.2 259,-452.26 268.21,-453.16 278.07,-454.28 287.45,-455.42"/>
<polygon fill="#9a32cd" stroke="#9a32cd" points="163.29,-440.98 153.08,-443.79 162.82,-447.96 163.29,-440.98"/>
<text text-anchor="middle" x="215" y="-455.26" font-family="Helvetica,sans-Serif" font-size="10.00"> globaldata3d_r4</text>
</g>
<!-- Node19 -->
<g id="node19" class="node">
<title>Node19</title>
<g id="a_node19"><a xlink:title=" ">
<polygon fill="white" stroke="#bfbfbf" points="3,-375.26 3,-405.26 150,-405.26 150,-375.26 3,-375.26"/>
<text text-anchor="start" x="11" y="-393.26" font-family="Helvetica,sans-Serif" font-size="10.00">real(kind=r4_kind),</text>
<text text-anchor="middle" x="76.5" y="-382.26" font-family="Helvetica,sans-Serif" font-size="10.00"> dimension(:,:), allocatable</text>
</a>
</g>
</g>
<!-- Node19&#45;&gt;Node15 -->
<g id="edge24" class="edge">
<title>Node19&#45;&gt;Node15</title>
<path fill="none" stroke="#9a32cd" stroke-dasharray="5,2" d="M160.21,-401.8C191.92,-407.93 227.92,-417.03 259,-430.26 267.85,-434.02 268.39,-437.97 277,-442.26 284.18,-445.83 292.19,-449.02 299.82,-451.73"/>
<polygon fill="#9a32cd" stroke="#9a32cd" points="160.55,-398.3 150.08,-399.91 159.26,-405.18 160.55,-398.3"/>
<text text-anchor="middle" x="215" y="-433.26" font-family="Helvetica,sans-Serif" font-size="10.00"> globaldata2d_r4</text>
</g>
</g>
</svg>
