<?xml version="1.0" encoding="UTF-8" standalone="no"?>
<!DOCTYPE svg PUBLIC "-//W3C//DTD SVG 1.1//EN"
 "http://www.w3.org/Graphics/SVG/1.1/DTD/svg11.dtd">
<!-- Generated by graphviz version 2.43.0 (0)
 -->
<!-- Title: diag_fieldtype Pages: 1 -->
<svg width="1060pt" height="851pt"
 viewBox="0.00 0.00 1060.00 851.00" xmlns="http://www.w3.org/2000/svg" xmlns:xlink="http://www.w3.org/1999/xlink">
<g id="graph0" class="graph" transform="scale(1 1) rotate(0) translate(4 847)">
<title>diag_fieldtype</title>
<polygon fill="white" stroke="transparent" points="-4,4 -4,-847 1056,-847 1056,4 -4,4"/>
<!-- Node1 -->
<g id="node1" class="node">
<title>Node1</title>
<g id="a_node1"><a xlink:title="Diagnostic field type.">
<polygon fill="#bfbfbf" stroke="black" points="966,-100.5 966,-119.5 1052,-119.5 1052,-100.5 966,-100.5"/>
<text text-anchor="middle" x="1009" y="-107.5" font-family="Helvetica,sans-Serif" font-size="10.00">diag_fieldtype</text>
</a>
</g>
</g>
<!-- Node2 -->
<g id="node2" class="node">
<title>Node2</title>
<g id="a_node2"><a xlink:title=" ">
<polygon fill="white" stroke="#bfbfbf" points="1,-725.5 1,-744.5 50,-744.5 50,-725.5 1,-725.5"/>
<text text-anchor="middle" x="25.5" y="-732.5" font-family="Helvetica,sans-Serif" font-size="10.00">logical</text>
</a>
</g>
</g>
<!-- Node2&#45;&gt;Node1 -->
<g id="edge1" class="edge">
<title>Node2&#45;&gt;Node1</title>
<path fill="none" stroke="#9a32cd" stroke-dasharray="5,2" d="M45.41,-750.95C76.88,-775.82 142.94,-821 207.5,-821 207.5,-821 207.5,-821 820.5,-821 972.73,-821 1004.05,-203.88 1007.63,-119.51"/>
<polygon fill="#9a32cd" stroke="#9a32cd" points="47.45,-748.1 37.48,-744.53 43.05,-753.55 47.45,-748.1"/>
<text text-anchor="middle" x="515" y="-835" font-family="Helvetica,sans-Serif" font-size="10.00"> miss_present</text>
<text text-anchor="middle" x="515" y="-824" font-family="Helvetica,sans-Serif" font-size="10.00">miss_pack_present</text>
</g>
<!-- Node3 -->
<g id="node3" class="node">
<title>Node3</title>
<g id="a_node3"><a xlink:href="group__mpp__domains__mod.html#structmpp__domains__mod_1_1domain2d" target="_top" xlink:title="The domain2D type contains all the necessary information to define the global, compute and data domai...">
<polygon fill="white" stroke="black" points="787,-365.5 787,-384.5 852,-384.5 852,-365.5 787,-365.5"/>
<text text-anchor="middle" x="819.5" y="-372.5" font-family="Helvetica,sans-Serif" font-size="10.00">domain2d</text>
</a>
</g>
</g>
<!-- Node2&#45;&gt;Node3 -->
<g id="edge3" class="edge">
<title>Node2&#45;&gt;Node3</title>
<path fill="none" stroke="#9a32cd" stroke-dasharray="5,2" d="M60.16,-744.21C63.14,-744.88 66.12,-745.48 69,-746 129.9,-756.89 145.63,-760 207.5,-760 207.5,-760 207.5,-760 639.5,-760 810.51,-760 818.58,-443.8 818.58,-384.52"/>
<polygon fill="#9a32cd" stroke="#9a32cd" points="60.73,-740.75 50.19,-741.81 59.09,-747.55 60.73,-740.75"/>
<text text-anchor="middle" x="403.5" y="-785" font-family="Helvetica,sans-Serif" font-size="10.00"> rotated_ninety</text>
<text text-anchor="middle" x="403.5" y="-774" font-family="Helvetica,sans-Serif" font-size="10.00">symmetry</text>
<text text-anchor="middle" x="403.5" y="-763" font-family="Helvetica,sans-Serif" font-size="10.00">initialized</text>
</g>
<!-- Node4 -->
<g id="node4" class="node">
<title>Node4</title>
<g id="a_node4"><a xlink:href="group__mpp__domains__mod.html#structmpp__domains__mod_1_1domain1d" target="_top" xlink:title="One dimensional domain used to manage shared data access between pes.">
<polygon fill="white" stroke="black" points="371,-449.5 371,-468.5 436,-468.5 436,-449.5 371,-449.5"/>
<text text-anchor="middle" x="403.5" y="-456.5" font-family="Helvetica,sans-Serif" font-size="10.00">domain1d</text>
</a>
</g>
</g>
<!-- Node2&#45;&gt;Node4 -->
<g id="edge5" class="edge">
<title>Node2&#45;&gt;Node4</title>
<path fill="none" stroke="#9a32cd" stroke-dasharray="5,2" d="M60.19,-738.33C109.69,-741.36 202.6,-739.79 262,-694 335.83,-637.08 303.26,-583.18 357,-507 367.33,-492.36 381.96,-477.74 391.82,-468.55"/>
<polygon fill="#9a32cd" stroke="#9a32cd" points="60.25,-734.82 50.03,-737.6 59.75,-741.8 60.25,-734.82"/>
<text text-anchor="middle" x="208.5" y="-737" font-family="Helvetica,sans-Serif" font-size="10.00"> cyclic</text>
</g>
<!-- Node5 -->
<g id="node5" class="node">
<title>Node5</title>
<g id="a_node5"><a xlink:href="group__mpp__domains__mod.html#structmpp__domains__mod_1_1domain__axis__spec" target="_top" xlink:title="Used to specify index limits along an axis of a domain.">
<polygon fill="white" stroke="black" points="155,-468.5 155,-487.5 262,-487.5 262,-468.5 155,-468.5"/>
<text text-anchor="middle" x="208.5" y="-475.5" font-family="Helvetica,sans-Serif" font-size="10.00">domain_axis_spec</text>
</a>
</g>
</g>
<!-- Node2&#45;&gt;Node5 -->
<g id="edge8" class="edge">
<title>Node2&#45;&gt;Node5</title>
<path fill="none" stroke="#9a32cd" stroke-dasharray="5,2" d="M28.25,-715.34C32.64,-669.98 45.51,-559.74 69,-532 90.52,-506.59 125.52,-493.08 154.95,-485.93"/>
<polygon fill="#9a32cd" stroke="#9a32cd" points="24.75,-715.11 27.31,-725.39 31.72,-715.76 24.75,-715.11"/>
<text text-anchor="middle" x="103" y="-535" font-family="Helvetica,sans-Serif" font-size="10.00"> is_global</text>
</g>
<!-- Node9 -->
<g id="node9" class="node">
<title>Node9</title>
<g id="a_node9"><a xlink:href="group__mpp__domains__mod.html#structmpp__domains__mod_1_1overlap__type" target="_top" xlink:title="Type for overlapping data.">
<polygon fill="white" stroke="black" points="168.5,-665.5 168.5,-684.5 248.5,-684.5 248.5,-665.5 168.5,-665.5"/>
<text text-anchor="middle" x="208.5" y="-672.5" font-family="Helvetica,sans-Serif" font-size="10.00">overlap_type</text>
</a>
</g>
</g>
<!-- Node2&#45;&gt;Node9 -->
<g id="edge15" class="edge">
<title>Node2&#45;&gt;Node9</title>
<path fill="none" stroke="#9a32cd" stroke-dasharray="5,2" d="M49.12,-720.09C55.38,-716.42 62.3,-712.75 69,-710 101.35,-696.72 140.08,-687.45 168.35,-681.8"/>
<polygon fill="#9a32cd" stroke="#9a32cd" points="47.21,-717.16 40.53,-725.38 50.88,-723.12 47.21,-717.16"/>
<text text-anchor="middle" x="103" y="-713" font-family="Helvetica,sans-Serif" font-size="10.00"> from_contact</text>
</g>
<!-- Node3&#45;&gt;Node1 -->
<g id="edge2" class="edge">
<title>Node3&#45;&gt;Node1</title>
<path fill="none" stroke="#9a32cd" stroke-dasharray="5,2" d="M833.2,-357.06C869.63,-305.56 973.69,-158.49 1001.24,-119.55"/>
<polygon fill="#9a32cd" stroke="#9a32cd" points="830.31,-355.07 827.4,-365.25 836.03,-359.11 830.31,-355.07"/>
<text text-anchor="middle" x="920.5" y="-269" font-family="Helvetica,sans-Serif" font-size="10.00"> domain</text>
</g>
<!-- Node3&#45;&gt;Node3 -->
<g id="edge12" class="edge">
<title>Node3&#45;&gt;Node3</title>
<path fill="none" stroke="#9a32cd" stroke-dasharray="5,2" d="M803.2,-394.4C804.29,-399.31 809.72,-403 819.5,-403 835.14,-403 839.66,-393.57 833.06,-384.76"/>
<polygon fill="#9a32cd" stroke="#9a32cd" points="806.58,-395.33 805.94,-384.76 799.84,-393.42 806.58,-395.33"/>
<text text-anchor="middle" x="819.5" y="-406" font-family="Helvetica,sans-Serif" font-size="10.00"> io_domain</text>
</g>
<!-- Node4&#45;&gt;Node3 -->
<g id="edge4" class="edge">
<title>Node4&#45;&gt;Node3</title>
<path fill="none" stroke="#9a32cd" stroke-dasharray="5,2" d="M446.34,-461.95C512.32,-465.12 643.55,-465.31 746,-427 771.24,-417.56 795.67,-396.93 808.72,-384.68"/>
<polygon fill="#9a32cd" stroke="#9a32cd" points="446.5,-458.46 436.33,-461.43 446.13,-465.45 446.5,-458.46"/>
<text text-anchor="middle" x="638.5" y="-473" font-family="Helvetica,sans-Serif" font-size="10.00"> x</text>
<text text-anchor="middle" x="638.5" y="-462" font-family="Helvetica,sans-Serif" font-size="10.00">y</text>
</g>
<!-- Node4&#45;&gt;Node4 -->
<g id="edge6" class="edge">
<title>Node4&#45;&gt;Node4</title>
<path fill="none" stroke="#9a32cd" stroke-dasharray="5,2" d="M386.09,-478.4C387.26,-483.31 393.06,-487 403.5,-487 420.21,-487 425.04,-477.57 417.99,-468.76"/>
<polygon fill="#9a32cd" stroke="#9a32cd" points="389.47,-479.34 389.01,-468.76 382.77,-477.31 389.47,-479.34"/>
<text text-anchor="middle" x="403.5" y="-490" font-family="Helvetica,sans-Serif" font-size="10.00"> list</text>
</g>
<!-- Node5&#45;&gt;Node4 -->
<g id="edge7" class="edge">
<title>Node5&#45;&gt;Node4</title>
<path fill="none" stroke="#9a32cd" stroke-dasharray="5,2" d="M271.36,-467.07C274.27,-466.68 277.17,-466.32 280,-466 310.8,-462.51 346.16,-460.73 370.95,-459.84"/>
<polygon fill="#9a32cd" stroke="#9a32cd" points="270.79,-463.62 261.38,-468.49 271.78,-470.55 270.79,-463.62"/>
<text text-anchor="middle" x="309.5" y="-502" font-family="Helvetica,sans-Serif" font-size="10.00"> memory</text>
<text text-anchor="middle" x="309.5" y="-491" font-family="Helvetica,sans-Serif" font-size="10.00">global</text>
<text text-anchor="middle" x="309.5" y="-480" font-family="Helvetica,sans-Serif" font-size="10.00">compute</text>
<text text-anchor="middle" x="309.5" y="-469" font-family="Helvetica,sans-Serif" font-size="10.00">data</text>
</g>
<!-- Node11 -->
<g id="node11" class="node">
<title>Node11</title>
<g id="a_node11"><a xlink:href="group__mpp__domains__mod.html#structmpp__domains__mod_1_1domain1d__spec" target="_top" xlink:title="A private type used to specify index limits for a domain decomposition.">
<polygon fill="white" stroke="black" points="357,-363.5 357,-382.5 450,-382.5 450,-363.5 357,-363.5"/>
<text text-anchor="middle" x="403.5" y="-370.5" font-family="Helvetica,sans-Serif" font-size="10.00">domain1d_spec</text>
</a>
</g>
</g>
<!-- Node5&#45;&gt;Node11 -->
<g id="edge21" class="edge">
<title>Node5&#45;&gt;Node11</title>
<path fill="none" stroke="#9a32cd" stroke-dasharray="5,2" d="M244.91,-464.09C250.83,-461.13 256.76,-457.75 262,-454 271.46,-447.24 270.67,-441.95 280,-435 310.96,-411.92 351.79,-393.23 377.6,-382.61"/>
<polygon fill="#9a32cd" stroke="#9a32cd" points="243.27,-460.99 235.68,-468.39 246.22,-467.34 243.27,-460.99"/>
<text text-anchor="middle" x="309.5" y="-449" font-family="Helvetica,sans-Serif" font-size="10.00"> global</text>
<text text-anchor="middle" x="309.5" y="-438" font-family="Helvetica,sans-Serif" font-size="10.00">compute</text>
</g>
<!-- Node6 -->
<g id="node6" class="node">
<title>Node6</title>
<g id="a_node6"><a xlink:title=" ">
<polygon fill="white" stroke="#bfbfbf" points="0,-337.5 0,-356.5 51,-356.5 51,-337.5 0,-337.5"/>
<text text-anchor="middle" x="25.5" y="-344.5" font-family="Helvetica,sans-Serif" font-size="10.00">integer</text>
</a>
</g>
</g>
<!-- Node6&#45;&gt;Node1 -->
<g id="edge30" class="edge">
<title>Node6&#45;&gt;Node1</title>
<path fill="none" stroke="#9a32cd" stroke-dasharray="5,2" d="M26.98,-327.03C28.76,-295.47 36.48,-233.66 69,-195 112.89,-142.82 139.31,-129 207.5,-129 207.5,-129 207.5,-129 820.5,-129 870.56,-129 927.76,-122.21 965.68,-116.75"/>
<polygon fill="#9a32cd" stroke="#9a32cd" points="23.48,-327.06 26.56,-337.2 30.47,-327.35 23.48,-327.06"/>
<text text-anchor="middle" x="515" y="-132" font-family="Helvetica,sans-Serif" font-size="10.00"> tile_count</text>
</g>
<!-- Node6&#45;&gt;Node3 -->
<g id="edge26" class="edge">
<title>Node6&#45;&gt;Node3</title>
<path fill="none" stroke="#9a32cd" stroke-dasharray="5,2" d="M35.19,-328.05C57.14,-283.34 119.43,-175 207.5,-175 207.5,-175 207.5,-175 639.5,-175 742.95,-175 801.59,-325.4 815.34,-365.35"/>
<polygon fill="#9a32cd" stroke="#9a32cd" points="31.94,-326.73 30.8,-337.26 38.26,-329.74 31.94,-326.73"/>
<text text-anchor="middle" x="403.5" y="-299" font-family="Helvetica,sans-Serif" font-size="10.00"> fold</text>
<text text-anchor="middle" x="403.5" y="-288" font-family="Helvetica,sans-Serif" font-size="10.00">tile_id</text>
<text text-anchor="middle" x="403.5" y="-277" font-family="Helvetica,sans-Serif" font-size="10.00">tile_id_all</text>
<text text-anchor="middle" x="403.5" y="-266" font-family="Helvetica,sans-Serif" font-size="10.00">io_layout</text>
<text text-anchor="middle" x="403.5" y="-255" font-family="Helvetica,sans-Serif" font-size="10.00">nhalo</text>
<text text-anchor="middle" x="403.5" y="-244" font-family="Helvetica,sans-Serif" font-size="10.00">ntiles</text>
<text text-anchor="middle" x="403.5" y="-233" font-family="Helvetica,sans-Serif" font-size="10.00">pe</text>
<text text-anchor="start" x="379" y="-222" font-family="Helvetica,sans-Serif" font-size="10.00">max_ntile</text>
<text text-anchor="middle" x="403.5" y="-211" font-family="Helvetica,sans-Serif" font-size="10.00">_pe</text>
<text text-anchor="middle" x="403.5" y="-200" font-family="Helvetica,sans-Serif" font-size="10.00">shalo</text>
<text text-anchor="middle" x="403.5" y="-189" font-family="Helvetica,sans-Serif" font-size="10.00">ncontacts</text>
<text text-anchor="middle" x="403.5" y="-178" font-family="Helvetica,sans-Serif" font-size="10.00">...</text>
</g>
<!-- Node6&#45;&gt;Node4 -->
<g id="edge10" class="edge">
<title>Node6&#45;&gt;Node4</title>
<path fill="none" stroke="#9a32cd" stroke-dasharray="5,2" d="M38.7,-365.07C46.24,-374.73 56.8,-385.86 69,-392 146.16,-430.84 177.53,-396.9 262,-415 302.99,-423.78 349.12,-439.37 376.99,-449.44"/>
<polygon fill="#9a32cd" stroke="#9a32cd" points="41.38,-362.81 32.66,-356.8 35.73,-366.94 41.38,-362.81"/>
<text text-anchor="middle" x="208.5" y="-451" font-family="Helvetica,sans-Serif" font-size="10.00"> pe</text>
<text text-anchor="middle" x="208.5" y="-440" font-family="Helvetica,sans-Serif" font-size="10.00">goffset</text>
<text text-anchor="middle" x="208.5" y="-429" font-family="Helvetica,sans-Serif" font-size="10.00">pos</text>
<text text-anchor="middle" x="208.5" y="-418" font-family="Helvetica,sans-Serif" font-size="10.00">loffset</text>
</g>
<!-- Node6&#45;&gt;Node5 -->
<g id="edge9" class="edge">
<title>Node6&#45;&gt;Node5</title>
<path fill="none" stroke="#9a32cd" stroke-dasharray="5,2" d="M33.64,-365.91C40.48,-381.65 52.26,-403.58 69,-417 93.89,-436.95 108.9,-424.88 137,-440 145.93,-444.8 146.33,-448.75 155,-454 164,-459.45 174.45,-464.47 183.64,-468.49"/>
<polygon fill="#9a32cd" stroke="#9a32cd" points="36.86,-364.55 29.85,-356.61 30.38,-367.2 36.86,-364.55"/>
<text text-anchor="middle" x="103" y="-476" font-family="Helvetica,sans-Serif" font-size="10.00"> max_size</text>
<text text-anchor="middle" x="103" y="-465" font-family="Helvetica,sans-Serif" font-size="10.00">size</text>
<text text-anchor="middle" x="103" y="-454" font-family="Helvetica,sans-Serif" font-size="10.00">begin</text>
<text text-anchor="middle" x="103" y="-443" font-family="Helvetica,sans-Serif" font-size="10.00">end</text>
</g>
<!-- Node8 -->
<g id="node8" class="node">
<title>Node8</title>
<g id="a_node8"><a xlink:href="group__mpp__domains__mod.html#structmpp__domains__mod_1_1overlapspec" target="_top" xlink:title="Private type for overlap specifications.">
<polygon fill="white" stroke="black" points="365.5,-516.5 365.5,-535.5 441.5,-535.5 441.5,-516.5 365.5,-516.5"/>
<text text-anchor="middle" x="403.5" y="-523.5" font-family="Helvetica,sans-Serif" font-size="10.00">overlapspec</text>
</a>
</g>
</g>
<!-- Node6&#45;&gt;Node8 -->
<g id="edge18" class="edge">
<title>Node6&#45;&gt;Node8</title>
<path fill="none" stroke="#9a32cd" stroke-dasharray="5,2" d="M26.47,-366.99C27.6,-397.26 34.5,-454.35 69,-484 112.76,-521.61 287.91,-526.18 365.35,-526.31"/>
<polygon fill="#9a32cd" stroke="#9a32cd" points="29.97,-366.74 26.28,-356.81 22.97,-366.87 29.97,-366.74"/>
<text text-anchor="middle" x="208.5" y="-636" font-family="Helvetica,sans-Serif" font-size="10.00"> nsend</text>
<text text-anchor="middle" x="208.5" y="-625" font-family="Helvetica,sans-Serif" font-size="10.00">ybegin</text>
<text text-anchor="middle" x="208.5" y="-614" font-family="Helvetica,sans-Serif" font-size="10.00">xbegin</text>
<text text-anchor="middle" x="208.5" y="-603" font-family="Helvetica,sans-Serif" font-size="10.00">yend</text>
<text text-anchor="middle" x="208.5" y="-592" font-family="Helvetica,sans-Serif" font-size="10.00">nhalo</text>
<text text-anchor="middle" x="208.5" y="-581" font-family="Helvetica,sans-Serif" font-size="10.00">xend</text>
<text text-anchor="middle" x="208.5" y="-570" font-family="Helvetica,sans-Serif" font-size="10.00">recvsize</text>
<text text-anchor="middle" x="208.5" y="-559" font-family="Helvetica,sans-Serif" font-size="10.00">shalo</text>
<text text-anchor="middle" x="208.5" y="-548" font-family="Helvetica,sans-Serif" font-size="10.00">ehalo</text>
<text text-anchor="middle" x="208.5" y="-537" font-family="Helvetica,sans-Serif" font-size="10.00">sendsize</text>
<text text-anchor="middle" x="208.5" y="-526" font-family="Helvetica,sans-Serif" font-size="10.00">...</text>
</g>
<!-- Node6&#45;&gt;Node9 -->
<g id="edge16" class="edge">
<title>Node6&#45;&gt;Node9</title>
<path fill="none" stroke="#9a32cd" stroke-dasharray="5,2" d="M28.27,-367.01C32.62,-411.64 45.22,-517.43 69,-543 90.45,-566.07 115.63,-539.85 137,-563 163.49,-591.69 131.1,-618.12 155,-649 160.54,-656.16 168.57,-661.48 176.7,-665.38"/>
<polygon fill="#9a32cd" stroke="#9a32cd" points="31.74,-366.47 27.32,-356.84 24.77,-367.12 31.74,-366.47"/>
<text text-anchor="middle" x="103" y="-676" font-family="Helvetica,sans-Serif" font-size="10.00"> rotation</text>
<text text-anchor="middle" x="103" y="-665" font-family="Helvetica,sans-Serif" font-size="10.00">totsize</text>
<text text-anchor="middle" x="103" y="-654" font-family="Helvetica,sans-Serif" font-size="10.00">pe</text>
<text text-anchor="middle" x="103" y="-643" font-family="Helvetica,sans-Serif" font-size="10.00">dir</text>
<text text-anchor="middle" x="103" y="-632" font-family="Helvetica,sans-Serif" font-size="10.00">tileme</text>
<text text-anchor="middle" x="103" y="-621" font-family="Helvetica,sans-Serif" font-size="10.00">js</text>
<text text-anchor="middle" x="103" y="-610" font-family="Helvetica,sans-Serif" font-size="10.00">count</text>
<text text-anchor="middle" x="103" y="-599" font-family="Helvetica,sans-Serif" font-size="10.00">is</text>
<text text-anchor="middle" x="103" y="-588" font-family="Helvetica,sans-Serif" font-size="10.00">tilenbr</text>
<text text-anchor="middle" x="103" y="-577" font-family="Helvetica,sans-Serif" font-size="10.00">index</text>
<text text-anchor="middle" x="103" y="-566" font-family="Helvetica,sans-Serif" font-size="10.00">...</text>
</g>
<!-- Node10 -->
<g id="node10" class="node">
<title>Node10</title>
<g id="a_node10"><a xlink:href="group__mpp__domains__mod.html#structmpp__domains__mod_1_1domain2d__spec" target="_top" xlink:title="Private type to specify multiple index limits and pe information for a 2D domain.">
<polygon fill="white" stroke="black" points="592,-327.5 592,-346.5 685,-346.5 685,-327.5 592,-327.5"/>
<text text-anchor="middle" x="638.5" y="-334.5" font-family="Helvetica,sans-Serif" font-size="10.00">domain2d_spec</text>
</a>
</g>
</g>
<!-- Node6&#45;&gt;Node10 -->
<g id="edge23" class="edge">
<title>Node6&#45;&gt;Node10</title>
<path fill="none" stroke="#9a32cd" stroke-dasharray="5,2" d="M50.48,-332.44C56.38,-329.3 62.79,-326.26 69,-324 158.95,-291.31 184.78,-290.6 280,-281 306.09,-278.37 316.18,-268.08 339,-281 352.53,-288.66 343.84,-302.72 357,-311 394.98,-334.89 522.63,-337.89 591.89,-337.67"/>
<polygon fill="#9a32cd" stroke="#9a32cd" points="48.74,-329.4 41.73,-337.33 52.16,-335.5 48.74,-329.4"/>
<text text-anchor="middle" x="309.5" y="-317" font-family="Helvetica,sans-Serif" font-size="10.00"> tile_id</text>
<text text-anchor="middle" x="309.5" y="-306" font-family="Helvetica,sans-Serif" font-size="10.00">pe</text>
<text text-anchor="middle" x="309.5" y="-295" font-family="Helvetica,sans-Serif" font-size="10.00">tile_root_pe</text>
<text text-anchor="middle" x="309.5" y="-284" font-family="Helvetica,sans-Serif" font-size="10.00">pos</text>
</g>
<!-- Node6&#45;&gt;Node11 -->
<g id="edge22" class="edge">
<title>Node6&#45;&gt;Node11</title>
<path fill="none" stroke="#9a32cd" stroke-dasharray="5,2" d="M60.91,-339.75C119.43,-328.86 241.49,-312.42 339,-341 343.74,-342.39 367.36,-354.54 384.41,-363.46"/>
<polygon fill="#9a32cd" stroke="#9a32cd" points="60.23,-336.32 51.07,-341.64 61.55,-343.19 60.23,-336.32"/>
<text text-anchor="middle" x="208.5" y="-330" font-family="Helvetica,sans-Serif" font-size="10.00"> pos</text>
</g>
<!-- Node12 -->
<g id="node12" class="node">
<title>Node12</title>
<g id="a_node12"><a xlink:href="group__mpp__domains__mod.html#structmpp__domains__mod_1_1tile__type" target="_top" xlink:title="Upper and lower x and y bounds for a tile.">
<polygon fill="white" stroke="black" points="280,-342.5 280,-361.5 339,-361.5 339,-342.5 280,-342.5"/>
<text text-anchor="middle" x="309.5" y="-349.5" font-family="Helvetica,sans-Serif" font-size="10.00">tile_type</text>
</a>
</g>
</g>
<!-- Node6&#45;&gt;Node12 -->
<g id="edge25" class="edge">
<title>Node6&#45;&gt;Node12</title>
<path fill="none" stroke="#9a32cd" stroke-dasharray="5,2" d="M61.17,-347.19C82.94,-347.34 111.61,-347.59 137,-348 187.33,-348.81 245.95,-350.3 279.98,-351.21"/>
<polygon fill="#9a32cd" stroke="#9a32cd" points="61.1,-343.69 51.08,-347.12 61.06,-350.69 61.1,-343.69"/>
<text text-anchor="middle" x="103" y="-384" font-family="Helvetica,sans-Serif" font-size="10.00"> ybegin</text>
<text text-anchor="middle" x="103" y="-373" font-family="Helvetica,sans-Serif" font-size="10.00">xbegin</text>
<text text-anchor="middle" x="103" y="-362" font-family="Helvetica,sans-Serif" font-size="10.00">yend</text>
<text text-anchor="middle" x="103" y="-351" font-family="Helvetica,sans-Serif" font-size="10.00">xend</text>
</g>
<!-- Node7 -->
<g id="node7" class="node">
<title>Node7</title>
<g id="a_node7"><a xlink:title=" ">
<polygon fill="white" stroke="#bfbfbf" points="591.5,-365.5 591.5,-384.5 685.5,-384.5 685.5,-365.5 591.5,-365.5"/>
<text text-anchor="middle" x="638.5" y="-372.5" font-family="Helvetica,sans-Serif" font-size="10.00">integer(i8_kind)</text>
</a>
</g>
</g>
<!-- Node7&#45;&gt;Node3 -->
<g id="edge11" class="edge">
<title>Node7&#45;&gt;Node3</title>
<path fill="none" stroke="#9a32cd" stroke-dasharray="5,2" d="M695.95,-375C725.99,-375 761.81,-375 786.94,-375"/>
<polygon fill="#9a32cd" stroke="#9a32cd" points="695.6,-371.5 685.6,-375 695.6,-378.5 695.6,-371.5"/>
<text text-anchor="middle" x="730.5" y="-378" font-family="Helvetica,sans-Serif" font-size="10.00"> id</text>
</g>
<!-- Node8&#45;&gt;Node3 -->
<g id="edge13" class="edge">
<title>Node8&#45;&gt;Node3</title>
<path fill="none" stroke="#9a32cd" stroke-dasharray="5,2" d="M452.04,-527.06C511.73,-526.69 616.1,-520.35 697,-485 749.67,-461.99 794.87,-406.8 811.59,-384.55"/>
<polygon fill="#9a32cd" stroke="#9a32cd" points="451.78,-523.56 441.78,-527.07 451.78,-530.56 451.78,-523.56"/>
<text text-anchor="middle" x="638.5" y="-630" font-family="Helvetica,sans-Serif" font-size="10.00"> update_c</text>
<text text-anchor="middle" x="638.5" y="-619" font-family="Helvetica,sans-Serif" font-size="10.00">update_t</text>
<text text-anchor="middle" x="638.5" y="-608" font-family="Helvetica,sans-Serif" font-size="10.00">update_e</text>
<text text-anchor="middle" x="638.5" y="-597" font-family="Helvetica,sans-Serif" font-size="10.00">bound_c</text>
<text text-anchor="middle" x="638.5" y="-586" font-family="Helvetica,sans-Serif" font-size="10.00">bound_e</text>
<text text-anchor="middle" x="638.5" y="-575" font-family="Helvetica,sans-Serif" font-size="10.00">check_n</text>
<text text-anchor="middle" x="638.5" y="-564" font-family="Helvetica,sans-Serif" font-size="10.00">update_n</text>
<text text-anchor="middle" x="638.5" y="-553" font-family="Helvetica,sans-Serif" font-size="10.00">check_c</text>
<text text-anchor="middle" x="638.5" y="-542" font-family="Helvetica,sans-Serif" font-size="10.00">bound_n</text>
<text text-anchor="middle" x="638.5" y="-531" font-family="Helvetica,sans-Serif" font-size="10.00">check_e</text>
<text text-anchor="middle" x="638.5" y="-520" font-family="Helvetica,sans-Serif" font-size="10.00">...</text>
</g>
<!-- Node8&#45;&gt;Node8 -->
<g id="edge17" class="edge">
<title>Node8&#45;&gt;Node8</title>
<path fill="none" stroke="#9a32cd" stroke-dasharray="5,2" d="M386.09,-545.4C387.26,-550.31 393.06,-554 403.5,-554 420.21,-554 425.04,-544.57 417.99,-535.76"/>
<polygon fill="#9a32cd" stroke="#9a32cd" points="389.47,-546.34 389.01,-535.76 382.77,-544.31 389.47,-546.34"/>
<text text-anchor="middle" x="403.5" y="-557" font-family="Helvetica,sans-Serif" font-size="10.00"> next</text>
</g>
<!-- Node9&#45;&gt;Node8 -->
<g id="edge14" class="edge">
<title>Node9&#45;&gt;Node8</title>
<path fill="none" stroke="#9a32cd" stroke-dasharray="5,2" d="M241.25,-660.93C248.28,-657.37 255.55,-653.31 262,-649 316.17,-612.78 371.89,-557.61 393.33,-535.58"/>
<polygon fill="#9a32cd" stroke="#9a32cd" points="239.38,-657.95 231.92,-665.47 242.44,-664.24 239.38,-657.95"/>
<text text-anchor="middle" x="309.5" y="-648" font-family="Helvetica,sans-Serif" font-size="10.00"> recv</text>
<text text-anchor="middle" x="309.5" y="-637" font-family="Helvetica,sans-Serif" font-size="10.00">send</text>
</g>
<!-- Node10&#45;&gt;Node3 -->
<g id="edge19" class="edge">
<title>Node10&#45;&gt;Node3</title>
<path fill="none" stroke="#9a32cd" stroke-dasharray="5,2" d="M694.67,-348.71C724.95,-355.14 761.4,-362.88 786.88,-368.29"/>
<polygon fill="#9a32cd" stroke="#9a32cd" points="695.18,-345.24 684.67,-346.59 693.72,-352.09 695.18,-345.24"/>
<text text-anchor="middle" x="730.5" y="-362" font-family="Helvetica,sans-Serif" font-size="10.00"> list</text>
</g>
<!-- Node11&#45;&gt;Node10 -->
<g id="edge20" class="edge">
<title>Node11&#45;&gt;Node10</title>
<path fill="none" stroke="#9a32cd" stroke-dasharray="5,2" d="M460.18,-364.4C500.42,-358.18 554.13,-349.88 591.85,-344.05"/>
<polygon fill="#9a32cd" stroke="#9a32cd" points="459.6,-360.94 450.26,-365.93 460.67,-367.86 459.6,-360.94"/>
<text text-anchor="middle" x="515" y="-376" font-family="Helvetica,sans-Serif" font-size="10.00"> x</text>
<text text-anchor="middle" x="515" y="-365" font-family="Helvetica,sans-Serif" font-size="10.00">y</text>
</g>
<!-- Node12&#45;&gt;Node3 -->
<g id="edge24" class="edge">
<title>Node12&#45;&gt;Node3</title>
<path fill="none" stroke="#9a32cd" stroke-dasharray="5,2" d="M324.98,-369.22C333.34,-377.82 344.64,-387.35 357,-392 498.44,-445.19 546.01,-400.15 697,-394 718.83,-393.11 724.37,-393.11 746,-390 759.49,-388.06 774.23,-385.16 786.89,-382.42"/>
<polygon fill="#9a32cd" stroke="#9a32cd" points="327.5,-366.79 318.17,-361.76 322.32,-371.51 327.5,-366.79"/>
<text text-anchor="middle" x="515" y="-420" font-family="Helvetica,sans-Serif" font-size="10.00"> tilelist</text>
</g>
<!-- Node13 -->
<g id="node13" class="node">
<title>Node13</title>
<g id="a_node13"><a xlink:title=" ">
<polygon fill="white" stroke="#bfbfbf" points="580,-278 580,-308 697,-308 697,-278 580,-278"/>
<text text-anchor="start" x="588" y="-296" font-family="Helvetica,sans-Serif" font-size="10.00">character(len=name</text>
<text text-anchor="middle" x="638.5" y="-285" font-family="Helvetica,sans-Serif" font-size="10.00">_length)</text>
</a>
</g>
</g>
<!-- Node13&#45;&gt;Node3 -->
<g id="edge27" class="edge">
<title>Node13&#45;&gt;Node3</title>
<path fill="none" stroke="#9a32cd" stroke-dasharray="5,2" d="M686.69,-312.08C705.3,-319.83 726.79,-329.05 746,-338 764.83,-346.77 785.94,-357.67 800.5,-365.36"/>
<polygon fill="#9a32cd" stroke="#9a32cd" points="687.83,-308.76 677.25,-308.17 685.15,-315.23 687.83,-308.76"/>
<text text-anchor="middle" x="730.5" y="-341" font-family="Helvetica,sans-Serif" font-size="10.00"> name</text>
</g>
<!-- Node14 -->
<g id="node14" class="node">
<title>Node14</title>
<g id="a_node14"><a xlink:title=" ">
<polygon fill="white" stroke="#bfbfbf" points="772,-81.5 772,-100.5 867,-100.5 867,-81.5 772,-81.5"/>
<text text-anchor="middle" x="819.5" y="-88.5" font-family="Helvetica,sans-Serif" font-size="10.00">type(domainug)</text>
</a>
</g>
</g>
<!-- Node14&#45;&gt;Node1 -->
<g id="edge28" class="edge">
<title>Node14&#45;&gt;Node1</title>
<path fill="none" stroke="#9a32cd" stroke-dasharray="5,2" d="M877.55,-96.78C906.02,-99.67 939.85,-103.09 965.92,-105.74"/>
<polygon fill="#9a32cd" stroke="#9a32cd" points="877.63,-93.27 867.33,-95.75 876.93,-100.24 877.63,-93.27"/>
<text text-anchor="middle" x="920.5" y="-106" font-family="Helvetica,sans-Serif" font-size="10.00"> domainu</text>
</g>
<!-- Node15 -->
<g id="node15" class="node">
<title>Node15</title>
<g id="a_node15"><a xlink:title=" ">
<polygon fill="white" stroke="#bfbfbf" points="764,-43.5 764,-62.5 875,-62.5 875,-43.5 764,-43.5"/>
<text text-anchor="middle" x="819.5" y="-50.5" font-family="Helvetica,sans-Serif" font-size="10.00">character(len=128)</text>
</a>
</g>
</g>
<!-- Node15&#45;&gt;Node1 -->
<g id="edge29" class="edge">
<title>Node15&#45;&gt;Node1</title>
<path fill="none" stroke="#9a32cd" stroke-dasharray="5,2" d="M880.75,-64.69C902.23,-69.5 926.43,-75.69 948,-83 962.17,-87.81 977.55,-94.76 989.19,-100.41"/>
<polygon fill="#9a32cd" stroke="#9a32cd" points="881.29,-61.22 870.78,-62.5 879.8,-68.06 881.29,-61.22"/>
<text text-anchor="middle" x="920.5" y="-86" font-family="Helvetica,sans-Serif" font-size="10.00"> fieldname</text>
</g>
<!-- Node16 -->
<g id="node16" class="node">
<title>Node16</title>
<g id="a_node16"><a xlink:title=" ">
<polygon fill="white" stroke="#bfbfbf" points="802,-0.5 802,-19.5 837,-19.5 837,-0.5 802,-0.5"/>
<text text-anchor="middle" x="819.5" y="-7.5" font-family="Helvetica,sans-Serif" font-size="10.00">real</text>
</a>
</g>
</g>
<!-- Node16&#45;&gt;Node1 -->
<g id="edge31" class="edge">
<title>Node16&#45;&gt;Node1</title>
<path fill="none" stroke="#9a32cd" stroke-dasharray="5,2" d="M847.7,-12.12C874.82,-15.26 916.82,-23.02 948,-42 972.74,-57.06 992.91,-85.6 1002.3,-100.46"/>
<polygon fill="#9a32cd" stroke="#9a32cd" points="847.71,-8.6 837.41,-11.06 847,-15.56 847.71,-8.6"/>
<text text-anchor="middle" x="920.5" y="-56" font-family="Helvetica,sans-Serif" font-size="10.00"> miss_pack</text>
<text text-anchor="middle" x="920.5" y="-45" font-family="Helvetica,sans-Serif" font-size="10.00">miss</text>
</g>
</g>
</svg>
