<?xml version="1.0" encoding="UTF-8" standalone="no"?>
<!DOCTYPE svg PUBLIC "-//W3C//DTD SVG 1.1//EN"
 "http://www.w3.org/Graphics/SVG/1.1/DTD/svg11.dtd">
<!-- Generated by graphviz version 2.43.0 (0)
 -->
<!-- Title: validtype Pages: 1 -->
<svg width="118pt" height="106pt"
 viewBox="0.00 0.00 118.00 106.00" xmlns="http://www.w3.org/2000/svg" xmlns:xlink="http://www.w3.org/1999/xlink">
<g id="graph0" class="graph" transform="scale(1 1) rotate(0) translate(4 102)">
<title>validtype</title>
<polygon fill="white" stroke="transparent" points="-4,4 -4,-102 114,-102 114,4 -4,4"/>
<!-- Node1 -->
<g id="node1" class="node">
<title>Node1</title>
<g id="a_node1"><a xlink:title=" ">
<polygon fill="#bfbfbf" stroke="black" points="27.5,-0.5 27.5,-19.5 89.5,-19.5 89.5,-0.5 27.5,-0.5"/>
<text text-anchor="middle" x="58.5" y="-7.5" font-family="Helvetica,sans-Serif" font-size="10.00">validtype</text>
</a>
</g>
</g>
<!-- Node2 -->
<g id="node2" class="node">
<title>Node2</title>
<g id="a_node2"><a xlink:title=" ">
<polygon fill="white" stroke="#bfbfbf" points="0,-78.5 0,-97.5 49,-97.5 49,-78.5 0,-78.5"/>
<text text-anchor="middle" x="24.5" y="-85.5" font-family="Helvetica,sans-Serif" font-size="10.00">logical</text>
</a>
</g>
</g>
<!-- Node2&#45;&gt;Node1 -->
<g id="edge1" class="edge">
<title>Node2&#45;&gt;Node1</title>
<path fill="none" stroke="#9a32cd" stroke-dasharray="5,2" d="M21.28,-68.16C20.53,-58.66 21.01,-47.24 25.5,-38 29.19,-30.41 36.14,-24.23 42.71,-19.7"/>
<polygon fill="#9a32cd" stroke="#9a32cd" points="17.82,-68.69 22.56,-78.17 24.76,-67.8 17.82,-68.69"/>
<text text-anchor="middle" x="48" y="-46.5" font-family="Helvetica,sans-Serif" font-size="10.00"> is_range</text>
</g>
<!-- Node3 -->
<g id="node3" class="node">
<title>Node3</title>
<g id="a_node3"><a xlink:title=" ">
<polygon fill="white" stroke="#bfbfbf" points="75,-78.5 75,-97.5 110,-97.5 110,-78.5 75,-78.5"/>
<text text-anchor="middle" x="92.5" y="-85.5" font-family="Helvetica,sans-Serif" font-size="10.00">real</text>
</a>
</g>
</g>
<!-- Node3&#45;&gt;Node1 -->
<g id="edge2" class="edge">
<title>Node3&#45;&gt;Node1</title>
<path fill="none" stroke="#9a32cd" stroke-dasharray="5,2" d="M84.5,-69.12C77.53,-53.53 67.71,-31.59 62.35,-19.62"/>
<polygon fill="#9a32cd" stroke="#9a32cd" points="81.32,-70.58 88.6,-78.28 87.71,-67.72 81.32,-70.58"/>
<text text-anchor="middle" x="92" y="-52" font-family="Helvetica,sans-Serif" font-size="10.00"> max</text>
<text text-anchor="middle" x="92" y="-41" font-family="Helvetica,sans-Serif" font-size="10.00">min</text>
</g>
</g>
</svg>
