<?xml version="1.0" encoding="UTF-8" standalone="no"?>
<!DOCTYPE svg PUBLIC "-//W3C//DTD SVG 1.1//EN"
 "http://www.w3.org/Graphics/SVG/1.1/DTD/svg11.dtd">
<!-- Generated by graphviz version 2.43.0 (0)
 -->
<!-- Title: domain1d Pages: 1 -->
<svg width="223pt" height="252pt"
 viewBox="0.00 0.00 223.43 252.00" xmlns="http://www.w3.org/2000/svg" xmlns:xlink="http://www.w3.org/1999/xlink">
<g id="graph0" class="graph" transform="scale(1 1) rotate(0) translate(4 248)">
<title>domain1d</title>
<polygon fill="white" stroke="transparent" points="-4,4 -4,-248 219.43,-248 219.43,4 -4,4"/>
<!-- Node1 -->
<g id="node1" class="node">
<title>Node1</title>
<g id="a_node1"><a xlink:title="One dimensional domain used to manage shared data access between pes.">
<polygon fill="#bfbfbf" stroke="black" points="68.93,-0.5 68.93,-19.5 133.93,-19.5 133.93,-0.5 68.93,-0.5"/>
<text text-anchor="middle" x="101.43" y="-7.5" font-family="Helvetica,sans-Serif" font-size="10.00">domain1d</text>
</a>
</g>
</g>
<!-- Node1&#45;&gt;Node1 -->
<g id="edge2" class="edge">
<title>Node1&#45;&gt;Node1</title>
<path fill="none" stroke="#9a32cd" stroke-dasharray="5,2" d="M144.07,-17.92C148.84,-16.42 151.93,-13.78 151.93,-10 151.93,-3.95 144.03,-0.82 133.97,-0.63"/>
<polygon fill="#9a32cd" stroke="#9a32cd" points="143.37,-14.48 133.97,-19.37 144.36,-21.41 143.37,-14.48"/>
<text text-anchor="middle" x="161.43" y="-7.5" font-family="Helvetica,sans-Serif" font-size="10.00"> list</text>
</g>
<!-- Node2 -->
<g id="node2" class="node">
<title>Node2</title>
<g id="a_node2"><a xlink:title=" ">
<polygon fill="white" stroke="#bfbfbf" points="2.93,-224.5 2.93,-243.5 51.93,-243.5 51.93,-224.5 2.93,-224.5"/>
<text text-anchor="middle" x="27.43" y="-231.5" font-family="Helvetica,sans-Serif" font-size="10.00">logical</text>
</a>
</g>
</g>
<!-- Node2&#45;&gt;Node1 -->
<g id="edge1" class="edge">
<title>Node2&#45;&gt;Node1</title>
<path fill="none" stroke="#9a32cd" stroke-dasharray="5,2" d="M18.81,-215.04C7.47,-188.73 -9.19,-138.63 7.43,-100 23.59,-62.43 64.28,-33.3 86.46,-19.59"/>
<polygon fill="#9a32cd" stroke="#9a32cd" points="15.64,-216.52 22.96,-224.18 22.01,-213.63 15.64,-216.52"/>
<text text-anchor="middle" x="22.93" y="-119.5" font-family="Helvetica,sans-Serif" font-size="10.00"> cyclic</text>
</g>
<!-- Node3 -->
<g id="node3" class="node">
<title>Node3</title>
<g id="a_node3"><a xlink:href="group__mpp__domains__mod.html#structmpp__domains__mod_1_1domain__axis__spec" target="_top" xlink:title="Used to specify index limits along an axis of a domain.">
<polygon fill="white" stroke="black" points="47.93,-112.5 47.93,-131.5 154.93,-131.5 154.93,-112.5 47.93,-112.5"/>
<text text-anchor="middle" x="101.43" y="-119.5" font-family="Helvetica,sans-Serif" font-size="10.00">domain_axis_spec</text>
</a>
</g>
</g>
<!-- Node2&#45;&gt;Node3 -->
<g id="edge4" class="edge">
<title>Node2&#45;&gt;Node3</title>
<path fill="none" stroke="#9a32cd" stroke-dasharray="5,2" d="M33.47,-214.45C38.87,-199.46 47.75,-178.26 59.43,-162 68.02,-150.04 80.71,-138.87 89.9,-131.58"/>
<polygon fill="#9a32cd" stroke="#9a32cd" points="30.09,-213.51 30.15,-224.11 36.71,-215.78 30.09,-213.51"/>
<text text-anchor="middle" x="82.93" y="-181.5" font-family="Helvetica,sans-Serif" font-size="10.00"> is_global</text>
</g>
<!-- Node3&#45;&gt;Node1 -->
<g id="edge3" class="edge">
<title>Node3&#45;&gt;Node1</title>
<path fill="none" stroke="#9a32cd" stroke-dasharray="5,2" d="M101.43,-102.35C101.43,-78.25 101.43,-37.31 101.43,-19.59"/>
<polygon fill="#9a32cd" stroke="#9a32cd" points="97.93,-102.37 101.43,-112.37 104.93,-102.37 97.93,-102.37"/>
<text text-anchor="middle" x="123.93" y="-74" font-family="Helvetica,sans-Serif" font-size="10.00"> memory</text>
<text text-anchor="middle" x="123.93" y="-63" font-family="Helvetica,sans-Serif" font-size="10.00">global</text>
<text text-anchor="middle" x="123.93" y="-52" font-family="Helvetica,sans-Serif" font-size="10.00">compute</text>
<text text-anchor="middle" x="123.93" y="-41" font-family="Helvetica,sans-Serif" font-size="10.00">data</text>
</g>
<!-- Node4 -->
<g id="node4" class="node">
<title>Node4</title>
<g id="a_node4"><a xlink:title=" ">
<polygon fill="white" stroke="#bfbfbf" points="126.93,-224.5 126.93,-243.5 177.93,-243.5 177.93,-224.5 126.93,-224.5"/>
<text text-anchor="middle" x="152.43" y="-231.5" font-family="Helvetica,sans-Serif" font-size="10.00">integer</text>
</a>
</g>
</g>
<!-- Node4&#45;&gt;Node1 -->
<g id="edge6" class="edge">
<title>Node4&#45;&gt;Node1</title>
<path fill="none" stroke="#9a32cd" stroke-dasharray="5,2" d="M170.8,-216.89C173.51,-213.58 175.9,-209.9 177.43,-206 195.36,-160.25 161.98,-53.49 150.43,-38 144.33,-29.82 134.99,-23.81 126.1,-19.57"/>
<polygon fill="#9a32cd" stroke="#9a32cd" points="168.12,-214.64 163.73,-224.28 173.17,-219.48 168.12,-214.64"/>
<text text-anchor="middle" x="198.43" y="-136" font-family="Helvetica,sans-Serif" font-size="10.00"> pe</text>
<text text-anchor="middle" x="198.43" y="-125" font-family="Helvetica,sans-Serif" font-size="10.00">goffset</text>
<text text-anchor="middle" x="198.43" y="-114" font-family="Helvetica,sans-Serif" font-size="10.00">pos</text>
<text text-anchor="middle" x="198.43" y="-103" font-family="Helvetica,sans-Serif" font-size="10.00">loffset</text>
</g>
<!-- Node4&#45;&gt;Node3 -->
<g id="edge5" class="edge">
<title>Node4&#45;&gt;Node3</title>
<path fill="none" stroke="#9a32cd" stroke-dasharray="5,2" d="M135.53,-217.04C132.53,-213.61 129.66,-209.86 127.43,-206 112.96,-181.05 105.61,-147.13 102.81,-131.51"/>
<polygon fill="#9a32cd" stroke="#9a32cd" points="133.07,-219.53 142.51,-224.33 138.12,-214.69 133.07,-219.53"/>
<text text-anchor="middle" x="152.43" y="-198" font-family="Helvetica,sans-Serif" font-size="10.00"> max_size</text>
<text text-anchor="middle" x="152.43" y="-187" font-family="Helvetica,sans-Serif" font-size="10.00">size</text>
<text text-anchor="middle" x="152.43" y="-176" font-family="Helvetica,sans-Serif" font-size="10.00">begin</text>
<text text-anchor="middle" x="152.43" y="-165" font-family="Helvetica,sans-Serif" font-size="10.00">end</text>
</g>
</g>
</svg>
