<?xml version="1.0" encoding="UTF-8" standalone="no"?>
<!DOCTYPE svg PUBLIC "-//W3C//DTD SVG 1.1//EN"
 "http://www.w3.org/Graphics/SVG/1.1/DTD/svg11.dtd">
<!-- Generated by graphviz version 2.43.0 (0)
 -->
<!-- Title: nest_level_type Pages: 1 -->
<!--zoomable 959 -->
<svg id="main" version="1.1" xmlns="http://www.w3.org/2000/svg" xmlns:xlink="http://www.w3.org/1999/xlink" xml:space="preserve" onload="init(evt)">
<style type="text/css"><![CDATA[
.edge:hover path { stroke: red; }
.edge:hover polygon { stroke: red; fill: red; }
]]></style>
<script type="text/javascript"><![CDATA[
var edges = document.getElementsByTagName('g');
if (edges && edges.length) {
  for (var i=0;i<edges.length;i++) {
    if (edges[i].id.substr(0,4)=='edge') {
      edges[i].setAttribute('class','edge');
    }
  }
}
]]></script>
        <defs>
                <circle id="rim" cx="0" cy="0" r="7"/>
                <circle id="rim2" cx="0" cy="0" r="3.5"/>
                <g id="zoomPlus">
                        <use xlink:href="#rim" fill="#404040">
                                <set attributeName="fill" to="#808080" begin="zoomplus.mouseover" end="zoomplus.mouseout"/>
                        </use>
                        <path d="M-4,0h8M0,-4v8" fill="none" stroke="white" stroke-width="1.5" pointer-events="none"/>
                </g>
                <g id="zoomMin">
                        <use xlink:href="#rim" fill="#404040">
                                <set attributeName="fill" to="#808080" begin="zoomminus.mouseover" end="zoomminus.mouseout"/>
                        </use>
                        <path d="M-4,0h8" fill="none" stroke="white" stroke-width="1.5" pointer-events="none"/>
                </g>
                <g id="dirArrow">
                        <path fill="none" stroke="white" stroke-width="1.5" d="M0,-3.0v7 M-2.5,-0.5L0,-3.0L2.5,-0.5"/>
                </g>
               <g id="resetDef">
                       <use xlink:href="#rim2" fill="#404040">
                               <set attributeName="fill" to="#808080" begin="reset.mouseover" end="reset.mouseout"/>
                       </use>
               </g>
        </defs>

<script type="text/javascript">
var viewWidth = 1021;
var viewHeight = 959;
var sectionId = 'dynsection-11';
</script>
<script xlink:href="svgpan.js"/>
<svg id="graph" class="graph">
<g id="viewport">
<title>nest_level_type</title>
<polygon fill="white" stroke="transparent" points="-4,4 -4,-955.09 1017,-955.09 1017,4 -4,4"/>
<!-- Node1 -->
<g id="node1" class="node">
<title>Node1</title>
<g id="a_node1"><a xlink:title="Private type to hold data for each level of nesting.">
<polygon fill="#bfbfbf" stroke="black" points="919,-428.59 919,-447.59 1013,-447.59 1013,-428.59 919,-428.59"/>
<text text-anchor="middle" x="966" y="-435.59" font-family="Helvetica,sans-Serif" font-size="10.00">nest_level_type</text>
</a>
</g>
</g>
<!-- Node2 -->
<g id="node2" class="node">
<title>Node2</title>
<g id="a_node2"><a xlink:title=" ">
<polygon fill="white" stroke="#bfbfbf" points="1,-775.59 1,-794.59 50,-794.59 50,-775.59 1,-775.59"/>
<text text-anchor="middle" x="25.5" y="-782.59" font-family="Helvetica,sans-Serif" font-size="10.00">logical</text>
</a>
</g>
</g>
<!-- Node2&#45;&gt;Node1 -->
<g id="edge1" class="edge">
<title>Node2&#45;&gt;Node1</title>
<path fill="none" stroke="#9a32cd" stroke-dasharray="5,2" d="M41.58,-802.5C70.4,-833.74 136.78,-896.09 207.5,-896.09 207.5,-896.09 207.5,-896.09 773.5,-896.09 874.34,-896.09 950.83,-513.42 963.23,-447.65"/>
<polygon fill="#9a32cd" stroke="#9a32cd" points="44.06,-800.03 34.77,-794.94 38.86,-804.71 44.06,-800.03"/>
<text text-anchor="middle" x="503" y="-943.09" font-family="Helvetica,sans-Serif" font-size="10.00"> is_coarse</text>
<text text-anchor="middle" x="503" y="-932.09" font-family="Helvetica,sans-Serif" font-size="10.00">is_coarse_pe</text>
<text text-anchor="middle" x="503" y="-921.09" font-family="Helvetica,sans-Serif" font-size="10.00">is_fine</text>
<text text-anchor="middle" x="503" y="-910.09" font-family="Helvetica,sans-Serif" font-size="10.00">is_fine_pe</text>
<text text-anchor="middle" x="503" y="-899.09" font-family="Helvetica,sans-Serif" font-size="10.00">on_level</text>
</g>
<!-- Node3 -->
<g id="node3" class="node">
<title>Node3</title>
<g id="a_node3"><a xlink:href="group__mpp__domains__mod.html#structmpp__domains__mod_1_1domain2d" target="_top" xlink:title="The domain2D type contains all the necessary information to define the global, compute and data domai...">
<polygon fill="white" stroke="black" points="740,-601.59 740,-620.59 805,-620.59 805,-601.59 740,-601.59"/>
<text text-anchor="middle" x="772.5" y="-608.59" font-family="Helvetica,sans-Serif" font-size="10.00">domain2d</text>
</a>
</g>
</g>
<!-- Node2&#45;&gt;Node3 -->
<g id="edge3" class="edge">
<title>Node2&#45;&gt;Node3</title>
<path fill="none" stroke="#9a32cd" stroke-dasharray="5,2" d="M54.87,-798.7C59.53,-800.67 64.35,-802.54 69,-804.09 128.87,-823.95 144.42,-835.09 207.5,-835.09 207.5,-835.09 207.5,-835.09 615.5,-835.09 673.91,-835.09 687.36,-805.12 722,-758.09 754.9,-713.42 766.9,-645.45 770.34,-620.61"/>
<polygon fill="#9a32cd" stroke="#9a32cd" points="56.2,-795.47 45.64,-794.62 53.37,-801.87 56.2,-795.47"/>
<text text-anchor="middle" x="403.5" y="-860.09" font-family="Helvetica,sans-Serif" font-size="10.00"> initialized</text>
<text text-anchor="middle" x="403.5" y="-849.09" font-family="Helvetica,sans-Serif" font-size="10.00">rotated_ninety</text>
<text text-anchor="middle" x="403.5" y="-838.09" font-family="Helvetica,sans-Serif" font-size="10.00">symmetry</text>
</g>
<!-- Node4 -->
<g id="node4" class="node">
<title>Node4</title>
<g id="a_node4"><a xlink:href="group__mpp__domains__mod.html#structmpp__domains__mod_1_1domain1d" target="_top" xlink:title="One dimensional domain used to manage shared data access between pes.">
<polygon fill="white" stroke="black" points="371,-593.59 371,-612.59 436,-612.59 436,-593.59 371,-593.59"/>
<text text-anchor="middle" x="403.5" y="-600.59" font-family="Helvetica,sans-Serif" font-size="10.00">domain1d</text>
</a>
</g>
</g>
<!-- Node2&#45;&gt;Node4 -->
<g id="edge5" class="edge">
<title>Node2&#45;&gt;Node4</title>
<path fill="none" stroke="#9a32cd" stroke-dasharray="5,2" d="M60.41,-788.82C123.88,-793.8 261.23,-794.79 339,-722.09 361.21,-701.32 342.75,-682.94 357,-656.09 366.09,-638.95 381.59,-622.53 391.94,-612.62"/>
<polygon fill="#9a32cd" stroke="#9a32cd" points="60.42,-785.31 50.16,-787.93 59.82,-792.28 60.42,-785.31"/>
<text text-anchor="middle" x="208.5" y="-791.09" font-family="Helvetica,sans-Serif" font-size="10.00"> cyclic</text>
</g>
<!-- Node5 -->
<g id="node5" class="node">
<title>Node5</title>
<g id="a_node5"><a xlink:href="group__mpp__domains__mod.html#structmpp__domains__mod_1_1domain__axis__spec" target="_top" xlink:title="Used to specify index limits along an axis of a domain.">
<polygon fill="white" stroke="black" points="155,-669.59 155,-688.59 262,-688.59 262,-669.59 155,-669.59"/>
<text text-anchor="middle" x="208.5" y="-676.59" font-family="Helvetica,sans-Serif" font-size="10.00">domain_axis_spec</text>
</a>
</g>
</g>
<!-- Node2&#45;&gt;Node5 -->
<g id="edge8" class="edge">
<title>Node2&#45;&gt;Node5</title>
<path fill="none" stroke="#9a32cd" stroke-dasharray="5,2" d="M51.34,-770.46C57.13,-767.05 63.28,-763.44 69,-760.09 112.97,-734.3 164.85,-703.99 190.86,-688.8"/>
<polygon fill="#9a32cd" stroke="#9a32cd" points="49.48,-767.49 42.64,-775.58 53.03,-773.52 49.48,-767.49"/>
<text text-anchor="middle" x="103" y="-763.09" font-family="Helvetica,sans-Serif" font-size="10.00"> is_global</text>
</g>
<!-- Node9 -->
<g id="node9" class="node">
<title>Node9</title>
<g id="a_node9"><a xlink:href="group__mpp__domains__mod.html#structmpp__domains__mod_1_1overlap__type" target="_top" xlink:title="Type for overlapping data.">
<polygon fill="white" stroke="black" points="168.5,-414.59 168.5,-433.59 248.5,-433.59 248.5,-414.59 168.5,-414.59"/>
<text text-anchor="middle" x="208.5" y="-421.59" font-family="Helvetica,sans-Serif" font-size="10.00">overlap_type</text>
</a>
</g>
</g>
<!-- Node2&#45;&gt;Node9 -->
<g id="edge15" class="edge">
<title>Node2&#45;&gt;Node9</title>
<path fill="none" stroke="#9a32cd" stroke-dasharray="5,2" d="M35.29,-766.04C43.16,-749.78 55.52,-726.06 69,-707.09 95.06,-670.41 118.26,-672.99 137,-632.09 164.23,-572.65 128.78,-545.98 155,-486.09 164.39,-464.64 183.68,-444.94 196.08,-433.73"/>
<polygon fill="#9a32cd" stroke="#9a32cd" points="31.91,-765 30.79,-775.54 38.24,-767.99 31.91,-765"/>
<text text-anchor="middle" x="103" y="-710.09" font-family="Helvetica,sans-Serif" font-size="10.00"> from_contact</text>
</g>
<!-- Node3&#45;&gt;Node1 -->
<g id="edge2" class="edge">
<title>Node3&#45;&gt;Node1</title>
<path fill="none" stroke="#9a32cd" stroke-dasharray="5,2" d="M791.6,-594.73C830.85,-559.27 922.78,-476.23 954.23,-447.82"/>
<polygon fill="#9a32cd" stroke="#9a32cd" points="789.14,-592.24 784.07,-601.54 793.84,-597.43 789.14,-592.24"/>
<text text-anchor="middle" x="862" y="-578.09" font-family="Helvetica,sans-Serif" font-size="10.00"> domain_coarse</text>
<text text-anchor="middle" x="862" y="-567.09" font-family="Helvetica,sans-Serif" font-size="10.00">domain_fine</text>
</g>
<!-- Node3&#45;&gt;Node3 -->
<g id="edge12" class="edge">
<title>Node3&#45;&gt;Node3</title>
<path fill="none" stroke="#9a32cd" stroke-dasharray="5,2" d="M760.35,-630.85C761.3,-635.58 765.35,-639.09 772.5,-639.09 784.23,-639.09 787.62,-629.65 782.67,-620.84"/>
<polygon fill="#9a32cd" stroke="#9a32cd" points="763.82,-631.33 762.33,-620.84 756.95,-629.97 763.82,-631.33"/>
<text text-anchor="middle" x="772.5" y="-642.09" font-family="Helvetica,sans-Serif" font-size="10.00"> io_domain</text>
</g>
<!-- Node4&#45;&gt;Node3 -->
<g id="edge4" class="edge">
<title>Node4&#45;&gt;Node3</title>
<path fill="none" stroke="#9a32cd" stroke-dasharray="5,2" d="M446.47,-604C520.73,-605.62 673.67,-608.95 739.84,-610.4"/>
<polygon fill="#9a32cd" stroke="#9a32cd" points="446.18,-600.49 436.11,-603.77 446.03,-607.49 446.18,-600.49"/>
<text text-anchor="middle" x="614.5" y="-622.09" font-family="Helvetica,sans-Serif" font-size="10.00"> x</text>
<text text-anchor="middle" x="614.5" y="-611.09" font-family="Helvetica,sans-Serif" font-size="10.00">y</text>
</g>
<!-- Node4&#45;&gt;Node4 -->
<g id="edge6" class="edge">
<title>Node4&#45;&gt;Node4</title>
<path fill="none" stroke="#9a32cd" stroke-dasharray="5,2" d="M386.09,-622.49C387.26,-627.4 393.06,-631.09 403.5,-631.09 420.21,-631.09 425.04,-621.65 417.99,-612.84"/>
<polygon fill="#9a32cd" stroke="#9a32cd" points="389.47,-623.43 389.01,-612.84 382.77,-621.4 389.47,-623.43"/>
<text text-anchor="middle" x="403.5" y="-634.09" font-family="Helvetica,sans-Serif" font-size="10.00"> list</text>
</g>
<!-- Node5&#45;&gt;Node4 -->
<g id="edge7" class="edge">
<title>Node5&#45;&gt;Node4</title>
<path fill="none" stroke="#9a32cd" stroke-dasharray="5,2" d="M272.36,-675.91C294.23,-673.01 318.43,-667.7 339,-658.09 362.25,-647.22 383.55,-625.3 394.58,-612.66"/>
<polygon fill="#9a32cd" stroke="#9a32cd" points="271.69,-672.47 262.17,-677.12 272.51,-679.42 271.69,-672.47"/>
<text text-anchor="middle" x="309.5" y="-710.09" font-family="Helvetica,sans-Serif" font-size="10.00"> compute</text>
<text text-anchor="middle" x="309.5" y="-699.09" font-family="Helvetica,sans-Serif" font-size="10.00">data</text>
<text text-anchor="middle" x="309.5" y="-688.09" font-family="Helvetica,sans-Serif" font-size="10.00">global</text>
<text text-anchor="middle" x="309.5" y="-677.09" font-family="Helvetica,sans-Serif" font-size="10.00">memory</text>
</g>
<!-- Node11 -->
<g id="node11" class="node">
<title>Node11</title>
<g id="a_node11"><a xlink:href="group__mpp__domains__mod.html#structmpp__domains__mod_1_1domain1d__spec" target="_top" xlink:title="A private type used to specify index limits for a domain decomposition.">
<polygon fill="white" stroke="black" points="357,-511.59 357,-530.59 450,-530.59 450,-511.59 357,-511.59"/>
<text text-anchor="middle" x="403.5" y="-518.59" font-family="Helvetica,sans-Serif" font-size="10.00">domain1d_spec</text>
</a>
</g>
</g>
<!-- Node5&#45;&gt;Node11 -->
<g id="edge21" class="edge">
<title>Node5&#45;&gt;Node11</title>
<path fill="none" stroke="#9a32cd" stroke-dasharray="5,2" d="M241.82,-664.81C248.77,-661.11 255.86,-656.82 262,-652.09 271.47,-644.79 271.56,-640.56 280,-632.09 319.1,-592.85 368.87,-549.69 391,-530.82"/>
<polygon fill="#9a32cd" stroke="#9a32cd" points="239.9,-661.85 232.54,-669.47 243.04,-668.11 239.9,-661.85"/>
<text text-anchor="middle" x="309.5" y="-646.09" font-family="Helvetica,sans-Serif" font-size="10.00"> compute</text>
<text text-anchor="middle" x="309.5" y="-635.09" font-family="Helvetica,sans-Serif" font-size="10.00">global</text>
</g>
<!-- Node6 -->
<g id="node6" class="node">
<title>Node6</title>
<g id="a_node6"><a xlink:title=" ">
<polygon fill="white" stroke="#bfbfbf" points="0,-452.59 0,-471.59 51,-471.59 51,-452.59 0,-452.59"/>
<text text-anchor="middle" x="25.5" y="-459.59" font-family="Helvetica,sans-Serif" font-size="10.00">integer</text>
</a>
</g>
</g>
<!-- Node6&#45;&gt;Node1 -->
<g id="edge34" class="edge">
<title>Node6&#45;&gt;Node1</title>
<path fill="none" stroke="#9a32cd" stroke-dasharray="5,2" d="M26.98,-442.11C29.13,-360.35 39.13,-54.07 69,-24.09 112.66,19.75 145.63,-10.09 207.5,-10.09 207.5,-10.09 207.5,-10.09 773.5,-10.09 963.17,-10.09 966.22,-364.63 965.23,-428.34"/>
<polygon fill="#9a32cd" stroke="#9a32cd" points="23.47,-442.4 26.72,-452.49 30.47,-442.58 23.47,-442.4"/>
<text text-anchor="middle" x="503" y="-123.09" font-family="Helvetica,sans-Serif" font-size="10.00"> iend_coarse</text>
<text text-anchor="middle" x="503" y="-112.09" font-family="Helvetica,sans-Serif" font-size="10.00">iend_fine</text>
<text text-anchor="middle" x="503" y="-101.09" font-family="Helvetica,sans-Serif" font-size="10.00">istart_coarse</text>
<text text-anchor="middle" x="503" y="-90.09" font-family="Helvetica,sans-Serif" font-size="10.00">istart_fine</text>
<text text-anchor="middle" x="503" y="-79.09" font-family="Helvetica,sans-Serif" font-size="10.00">jend_coarse</text>
<text text-anchor="middle" x="503" y="-68.09" font-family="Helvetica,sans-Serif" font-size="10.00">jend_fine</text>
<text text-anchor="middle" x="503" y="-57.09" font-family="Helvetica,sans-Serif" font-size="10.00">jstart_coarse</text>
<text text-anchor="middle" x="503" y="-46.09" font-family="Helvetica,sans-Serif" font-size="10.00">jstart_fine</text>
<text text-anchor="middle" x="503" y="-35.09" font-family="Helvetica,sans-Serif" font-size="10.00">my_nest_id</text>
<text text-anchor="middle" x="503" y="-24.09" font-family="Helvetica,sans-Serif" font-size="10.00">my_num_nest</text>
<text text-anchor="middle" x="503" y="-13.09" font-family="Helvetica,sans-Serif" font-size="10.00">...</text>
</g>
<!-- Node6&#45;&gt;Node3 -->
<g id="edge26" class="edge">
<title>Node6&#45;&gt;Node3</title>
<path fill="none" stroke="#9a32cd" stroke-dasharray="5,2" d="M26.55,-482.16C27.15,-538.1 32.18,-693.73 69,-725.09 92.01,-744.68 106.78,-725.31 137,-725.09 226.79,-724.42 261.2,-766.9 339,-722.09 352.47,-714.32 344.22,-700.94 357,-692.09 415.68,-651.42 603.04,-648.35 673,-634.09 695.37,-629.52 720.42,-623.66 739.66,-619"/>
<polygon fill="#9a32cd" stroke="#9a32cd" points="30.05,-481.79 26.48,-471.81 23.05,-481.84 30.05,-481.79"/>
<text text-anchor="middle" x="403.5" y="-805.09" font-family="Helvetica,sans-Serif" font-size="10.00"> ehalo</text>
<text text-anchor="middle" x="403.5" y="-794.09" font-family="Helvetica,sans-Serif" font-size="10.00">fold</text>
<text text-anchor="middle" x="403.5" y="-783.09" font-family="Helvetica,sans-Serif" font-size="10.00">io_layout</text>
<text text-anchor="middle" x="403.5" y="-772.09" font-family="Helvetica,sans-Serif" font-size="10.00">max_ntile_pe</text>
<text text-anchor="middle" x="403.5" y="-761.09" font-family="Helvetica,sans-Serif" font-size="10.00">ncontacts</text>
<text text-anchor="middle" x="403.5" y="-750.09" font-family="Helvetica,sans-Serif" font-size="10.00">nhalo</text>
<text text-anchor="middle" x="403.5" y="-739.09" font-family="Helvetica,sans-Serif" font-size="10.00">ntiles</text>
<text text-anchor="middle" x="403.5" y="-728.09" font-family="Helvetica,sans-Serif" font-size="10.00">pe</text>
<text text-anchor="middle" x="403.5" y="-717.09" font-family="Helvetica,sans-Serif" font-size="10.00">pearray</text>
<text text-anchor="middle" x="403.5" y="-706.09" font-family="Helvetica,sans-Serif" font-size="10.00">pos</text>
<text text-anchor="middle" x="403.5" y="-695.09" font-family="Helvetica,sans-Serif" font-size="10.00">...</text>
</g>
<!-- Node6&#45;&gt;Node4 -->
<g id="edge10" class="edge">
<title>Node6&#45;&gt;Node4</title>
<path fill="none" stroke="#9a32cd" stroke-dasharray="5,2" d="M27.56,-481.87C30.5,-528.47 40.54,-642.94 69,-666.09 92.45,-685.15 112.27,-683.46 137,-666.09 156.32,-652.5 136.04,-630.17 155,-616.09 218.9,-568.62 319.7,-582.97 370.69,-594.58"/>
<polygon fill="#9a32cd" stroke="#9a32cd" points="31.05,-481.59 26.97,-471.82 24.06,-482 31.05,-481.59"/>
<text text-anchor="middle" x="208.5" y="-652.09" font-family="Helvetica,sans-Serif" font-size="10.00"> goffset</text>
<text text-anchor="middle" x="208.5" y="-641.09" font-family="Helvetica,sans-Serif" font-size="10.00">loffset</text>
<text text-anchor="middle" x="208.5" y="-630.09" font-family="Helvetica,sans-Serif" font-size="10.00">pe</text>
<text text-anchor="middle" x="208.5" y="-619.09" font-family="Helvetica,sans-Serif" font-size="10.00">pos</text>
</g>
<!-- Node6&#45;&gt;Node5 -->
<g id="edge9" class="edge">
<title>Node6&#45;&gt;Node5</title>
<path fill="none" stroke="#9a32cd" stroke-dasharray="5,2" d="M29.6,-481.82C34.22,-504.87 45.1,-542.7 69,-565.09 92.28,-586.9 115.03,-564.95 137,-588.09 157.34,-609.52 136.31,-629.2 155,-652.09 161.22,-659.71 170.16,-665.41 178.91,-669.56"/>
<polygon fill="#9a32cd" stroke="#9a32cd" points="33.02,-481.05 27.8,-471.83 26.13,-482.29 33.02,-481.05"/>
<text text-anchor="middle" x="103" y="-624.09" font-family="Helvetica,sans-Serif" font-size="10.00"> begin</text>
<text text-anchor="middle" x="103" y="-613.09" font-family="Helvetica,sans-Serif" font-size="10.00">end</text>
<text text-anchor="middle" x="103" y="-602.09" font-family="Helvetica,sans-Serif" font-size="10.00">max_size</text>
<text text-anchor="middle" x="103" y="-591.09" font-family="Helvetica,sans-Serif" font-size="10.00">size</text>
</g>
<!-- Node8 -->
<g id="node8" class="node">
<title>Node8</title>
<g id="a_node8"><a xlink:href="group__mpp__domains__mod.html#structmpp__domains__mod_1_1overlapspec" target="_top" xlink:title="Private type for overlap specifications.">
<polygon fill="white" stroke="black" points="365.5,-364.59 365.5,-383.59 441.5,-383.59 441.5,-364.59 365.5,-364.59"/>
<text text-anchor="middle" x="403.5" y="-371.59" font-family="Helvetica,sans-Serif" font-size="10.00">overlapspec</text>
</a>
</g>
</g>
<!-- Node6&#45;&gt;Node8 -->
<g id="edge18" class="edge">
<title>Node6&#45;&gt;Node8</title>
<path fill="none" stroke="#9a32cd" stroke-dasharray="5,2" d="M26.31,-441.98C27.11,-409.73 33.48,-346.35 69,-310.09 96.94,-281.56 115.5,-289.93 155,-284.09 235.93,-272.12 267.09,-250.08 339,-289.09 370.41,-306.12 390.68,-346.15 398.66,-364.54"/>
<polygon fill="#9a32cd" stroke="#9a32cd" points="22.8,-442.32 26.22,-452.35 29.8,-442.38 22.8,-442.32"/>
<text text-anchor="middle" x="208.5" y="-397.09" font-family="Helvetica,sans-Serif" font-size="10.00"> ehalo</text>
<text text-anchor="middle" x="208.5" y="-386.09" font-family="Helvetica,sans-Serif" font-size="10.00">nhalo</text>
<text text-anchor="middle" x="208.5" y="-375.09" font-family="Helvetica,sans-Serif" font-size="10.00">nrecv</text>
<text text-anchor="middle" x="208.5" y="-364.09" font-family="Helvetica,sans-Serif" font-size="10.00">nsend</text>
<text text-anchor="middle" x="208.5" y="-353.09" font-family="Helvetica,sans-Serif" font-size="10.00">recvsize</text>
<text text-anchor="middle" x="208.5" y="-342.09" font-family="Helvetica,sans-Serif" font-size="10.00">sendsize</text>
<text text-anchor="middle" x="208.5" y="-331.09" font-family="Helvetica,sans-Serif" font-size="10.00">shalo</text>
<text text-anchor="middle" x="208.5" y="-320.09" font-family="Helvetica,sans-Serif" font-size="10.00">whalo</text>
<text text-anchor="middle" x="208.5" y="-309.09" font-family="Helvetica,sans-Serif" font-size="10.00">xbegin</text>
<text text-anchor="middle" x="208.5" y="-298.09" font-family="Helvetica,sans-Serif" font-size="10.00">xend</text>
<text text-anchor="middle" x="208.5" y="-287.09" font-family="Helvetica,sans-Serif" font-size="10.00">...</text>
</g>
<!-- Node6&#45;&gt;Node9 -->
<g id="edge16" class="edge">
<title>Node6&#45;&gt;Node9</title>
<path fill="none" stroke="#9a32cd" stroke-dasharray="5,2" d="M26.05,-442.18C26.57,-411.59 32.63,-353.76 69,-327.09 93.37,-309.21 113.21,-308.45 137,-327.09 163.31,-347.69 133.68,-374.35 155,-400.09 160.18,-406.34 167.34,-411.03 174.7,-414.54"/>
<polygon fill="#9a32cd" stroke="#9a32cd" points="22.55,-442.45 26.07,-452.45 29.55,-442.44 22.55,-442.45"/>
<text text-anchor="middle" x="103" y="-440.09" font-family="Helvetica,sans-Serif" font-size="10.00"> count</text>
<text text-anchor="middle" x="103" y="-429.09" font-family="Helvetica,sans-Serif" font-size="10.00">dir</text>
<text text-anchor="middle" x="103" y="-418.09" font-family="Helvetica,sans-Serif" font-size="10.00">ie</text>
<text text-anchor="middle" x="103" y="-407.09" font-family="Helvetica,sans-Serif" font-size="10.00">index</text>
<text text-anchor="middle" x="103" y="-396.09" font-family="Helvetica,sans-Serif" font-size="10.00">is</text>
<text text-anchor="middle" x="103" y="-385.09" font-family="Helvetica,sans-Serif" font-size="10.00">je</text>
<text text-anchor="middle" x="103" y="-374.09" font-family="Helvetica,sans-Serif" font-size="10.00">js</text>
<text text-anchor="middle" x="103" y="-363.09" font-family="Helvetica,sans-Serif" font-size="10.00">msgsize</text>
<text text-anchor="middle" x="103" y="-352.09" font-family="Helvetica,sans-Serif" font-size="10.00">pe</text>
<text text-anchor="middle" x="103" y="-341.09" font-family="Helvetica,sans-Serif" font-size="10.00">rotation</text>
<text text-anchor="middle" x="103" y="-330.09" font-family="Helvetica,sans-Serif" font-size="10.00">...</text>
</g>
<!-- Node10 -->
<g id="node10" class="node">
<title>Node10</title>
<g id="a_node10"><a xlink:href="group__mpp__domains__mod.html#structmpp__domains__mod_1_1domain2d__spec" target="_top" xlink:title="Private type to specify multiple index limits and pe information for a 2D domain.">
<polygon fill="white" stroke="black" points="568,-513.59 568,-532.59 661,-532.59 661,-513.59 568,-513.59"/>
<text text-anchor="middle" x="614.5" y="-520.59" font-family="Helvetica,sans-Serif" font-size="10.00">domain2d_spec</text>
</a>
</g>
</g>
<!-- Node6&#45;&gt;Node10 -->
<g id="edge23" class="edge">
<title>Node6&#45;&gt;Node10</title>
<path fill="none" stroke="#9a32cd" stroke-dasharray="5,2" d="M61.37,-461.72C110.24,-461.24 201.89,-460.39 280,-460.09 306.22,-459.98 312.94,-457.13 339,-460.09 384.97,-465.29 512.99,-497.23 576.62,-513.53"/>
<polygon fill="#9a32cd" stroke="#9a32cd" points="61.29,-458.22 51.33,-461.82 61.36,-465.22 61.29,-458.22"/>
<text text-anchor="middle" x="309.5" y="-496.09" font-family="Helvetica,sans-Serif" font-size="10.00"> pe</text>
<text text-anchor="middle" x="309.5" y="-485.09" font-family="Helvetica,sans-Serif" font-size="10.00">pos</text>
<text text-anchor="middle" x="309.5" y="-474.09" font-family="Helvetica,sans-Serif" font-size="10.00">tile_id</text>
<text text-anchor="middle" x="309.5" y="-463.09" font-family="Helvetica,sans-Serif" font-size="10.00">tile_root_pe</text>
</g>
<!-- Node6&#45;&gt;Node11 -->
<g id="edge22" class="edge">
<title>Node6&#45;&gt;Node11</title>
<path fill="none" stroke="#9a32cd" stroke-dasharray="5,2" d="M60.92,-471.28C63.64,-471.92 66.36,-472.53 69,-473.09 170.91,-494.44 292.34,-509.3 356.87,-516.38"/>
<polygon fill="#9a32cd" stroke="#9a32cd" points="61.68,-467.87 51.13,-468.88 60,-474.66 61.68,-467.87"/>
<text text-anchor="middle" x="208.5" y="-508.09" font-family="Helvetica,sans-Serif" font-size="10.00"> pos</text>
</g>
<!-- Node12 -->
<g id="node12" class="node">
<title>Node12</title>
<g id="a_node12"><a xlink:href="group__mpp__domains__mod.html#structmpp__domains__mod_1_1tile__type" target="_top" xlink:title="Upper and lower x and y bounds for a tile.">
<polygon fill="white" stroke="black" points="280,-546.59 280,-565.59 339,-565.59 339,-546.59 280,-546.59"/>
<text text-anchor="middle" x="309.5" y="-553.59" font-family="Helvetica,sans-Serif" font-size="10.00">tile_type</text>
</a>
</g>
</g>
<!-- Node6&#45;&gt;Node12 -->
<g id="edge25" class="edge">
<title>Node6&#45;&gt;Node12</title>
<path fill="none" stroke="#9a32cd" stroke-dasharray="5,2" d="M42.71,-478.7C50.16,-485.54 59.46,-493.03 69,-498.09 96.72,-512.79 107,-507.9 137,-517.09 145.06,-519.55 146.87,-520.86 155,-523.09 198.12,-534.87 248.99,-545.1 279.98,-550.93"/>
<polygon fill="#9a32cd" stroke="#9a32cd" points="45.05,-476.09 35.41,-471.67 40.19,-481.13 45.05,-476.09"/>
<text text-anchor="middle" x="103" y="-553.09" font-family="Helvetica,sans-Serif" font-size="10.00"> xbegin</text>
<text text-anchor="middle" x="103" y="-542.09" font-family="Helvetica,sans-Serif" font-size="10.00">xend</text>
<text text-anchor="middle" x="103" y="-531.09" font-family="Helvetica,sans-Serif" font-size="10.00">ybegin</text>
<text text-anchor="middle" x="103" y="-520.09" font-family="Helvetica,sans-Serif" font-size="10.00">yend</text>
</g>
<!-- Node14 -->
<g id="node14" class="node">
<title>Node14</title>
<g id="a_node14"><a xlink:href="group__mpp__domains__mod.html#structmpp__domains__mod_1_1nestspec" target="_top" xlink:title="Used to specify bounds and index information for nested tiles as a linked list.">
<polygon fill="white" stroke="black" points="373.5,-152.59 373.5,-171.59 433.5,-171.59 433.5,-152.59 373.5,-152.59"/>
<text text-anchor="middle" x="403.5" y="-159.59" font-family="Helvetica,sans-Serif" font-size="10.00">nestspec</text>
</a>
</g>
</g>
<!-- Node6&#45;&gt;Node14 -->
<g id="edge33" class="edge">
<title>Node6&#45;&gt;Node14</title>
<path fill="none" stroke="#9a32cd" stroke-dasharray="5,2" d="M26.77,-442.34C28.82,-382.58 44.31,-204 155,-142.09 228.74,-100.84 334.65,-134.48 380.24,-152.51"/>
<polygon fill="#9a32cd" stroke="#9a32cd" points="23.27,-442.26 26.52,-452.35 30.27,-442.44 23.27,-442.26"/>
<text text-anchor="middle" x="208.5" y="-255.09" font-family="Helvetica,sans-Serif" font-size="10.00"> extra_halo</text>
<text text-anchor="middle" x="208.5" y="-244.09" font-family="Helvetica,sans-Serif" font-size="10.00">nrecv</text>
<text text-anchor="middle" x="208.5" y="-233.09" font-family="Helvetica,sans-Serif" font-size="10.00">nsend</text>
<text text-anchor="middle" x="208.5" y="-222.09" font-family="Helvetica,sans-Serif" font-size="10.00">xbegin</text>
<text text-anchor="middle" x="208.5" y="-211.09" font-family="Helvetica,sans-Serif" font-size="10.00">xbegin_c</text>
<text text-anchor="middle" x="208.5" y="-200.09" font-family="Helvetica,sans-Serif" font-size="10.00">xbegin_f</text>
<text text-anchor="middle" x="208.5" y="-189.09" font-family="Helvetica,sans-Serif" font-size="10.00">xend</text>
<text text-anchor="middle" x="208.5" y="-178.09" font-family="Helvetica,sans-Serif" font-size="10.00">xend_c</text>
<text text-anchor="middle" x="208.5" y="-167.09" font-family="Helvetica,sans-Serif" font-size="10.00">xend_f</text>
<text text-anchor="middle" x="208.5" y="-156.09" font-family="Helvetica,sans-Serif" font-size="10.00">xsize_c</text>
<text text-anchor="middle" x="208.5" y="-145.09" font-family="Helvetica,sans-Serif" font-size="10.00">...</text>
</g>
<!-- Node15 -->
<g id="node15" class="node">
<title>Node15</title>
<g id="a_node15"><a xlink:href="group__mpp__domains__mod.html#structmpp__domains__mod_1_1index__type" target="_top" xlink:title="index bounds for use in nestSpec">
<polygon fill="white" stroke="black" points="173,-38.59 173,-57.59 244,-57.59 244,-38.59 173,-38.59"/>
<text text-anchor="middle" x="208.5" y="-45.59" font-family="Helvetica,sans-Serif" font-size="10.00">index_type</text>
</a>
</g>
</g>
<!-- Node6&#45;&gt;Node15 -->
<g id="edge31" class="edge">
<title>Node6&#45;&gt;Node15</title>
<path fill="none" stroke="#9a32cd" stroke-dasharray="5,2" d="M26.99,-442.43C29.14,-363.32 39.08,-71.12 69,-44.09 100.15,-15.95 153.18,-28.03 183.8,-38.57"/>
<polygon fill="#9a32cd" stroke="#9a32cd" points="23.48,-442.41 26.72,-452.5 30.48,-442.6 23.48,-442.41"/>
<text text-anchor="middle" x="103" y="-124.09" font-family="Helvetica,sans-Serif" font-size="10.00"> ie_me</text>
<text text-anchor="middle" x="103" y="-113.09" font-family="Helvetica,sans-Serif" font-size="10.00">ie_you</text>
<text text-anchor="middle" x="103" y="-102.09" font-family="Helvetica,sans-Serif" font-size="10.00">is_me</text>
<text text-anchor="middle" x="103" y="-91.09" font-family="Helvetica,sans-Serif" font-size="10.00">is_you</text>
<text text-anchor="middle" x="103" y="-80.09" font-family="Helvetica,sans-Serif" font-size="10.00">je_me</text>
<text text-anchor="middle" x="103" y="-69.09" font-family="Helvetica,sans-Serif" font-size="10.00">je_you</text>
<text text-anchor="middle" x="103" y="-58.09" font-family="Helvetica,sans-Serif" font-size="10.00">js_me</text>
<text text-anchor="middle" x="103" y="-47.09" font-family="Helvetica,sans-Serif" font-size="10.00">js_you</text>
</g>
<!-- Node7 -->
<g id="node7" class="node">
<title>Node7</title>
<g id="a_node7"><a xlink:title=" ">
<polygon fill="white" stroke="#bfbfbf" points="567.5,-756.59 567.5,-775.59 661.5,-775.59 661.5,-756.59 567.5,-756.59"/>
<text text-anchor="middle" x="614.5" y="-763.59" font-family="Helvetica,sans-Serif" font-size="10.00">integer(i8_kind)</text>
</a>
</g>
</g>
<!-- Node7&#45;&gt;Node3 -->
<g id="edge11" class="edge">
<title>Node7&#45;&gt;Node3</title>
<path fill="none" stroke="#9a32cd" stroke-dasharray="5,2" d="M670.1,-753.33C688.61,-746.66 708.1,-736.73 722,-722.09 750.9,-691.63 764.78,-641.45 769.53,-620.61"/>
<polygon fill="#9a32cd" stroke="#9a32cd" points="668.92,-750.03 660.54,-756.52 671.14,-756.67 668.92,-750.03"/>
<text text-anchor="middle" x="706.5" y="-746.09" font-family="Helvetica,sans-Serif" font-size="10.00"> id</text>
</g>
<!-- Node8&#45;&gt;Node3 -->
<g id="edge13" class="edge">
<title>Node8&#45;&gt;Node3</title>
<path fill="none" stroke="#9a32cd" stroke-dasharray="5,2" d="M448.34,-362.31C505.4,-349.72 605.74,-337.24 673,-383.09 751.03,-436.27 767.64,-565.32 770.81,-601.51"/>
<polygon fill="#9a32cd" stroke="#9a32cd" points="447.51,-358.91 438.55,-364.56 449.08,-365.73 447.51,-358.91"/>
<text text-anchor="middle" x="614.5" y="-496.09" font-family="Helvetica,sans-Serif" font-size="10.00"> bound_c</text>
<text text-anchor="middle" x="614.5" y="-485.09" font-family="Helvetica,sans-Serif" font-size="10.00">bound_e</text>
<text text-anchor="middle" x="614.5" y="-474.09" font-family="Helvetica,sans-Serif" font-size="10.00">bound_n</text>
<text text-anchor="middle" x="614.5" y="-463.09" font-family="Helvetica,sans-Serif" font-size="10.00">check_c</text>
<text text-anchor="middle" x="614.5" y="-452.09" font-family="Helvetica,sans-Serif" font-size="10.00">check_e</text>
<text text-anchor="middle" x="614.5" y="-441.09" font-family="Helvetica,sans-Serif" font-size="10.00">check_n</text>
<text text-anchor="middle" x="614.5" y="-430.09" font-family="Helvetica,sans-Serif" font-size="10.00">update_c</text>
<text text-anchor="middle" x="614.5" y="-419.09" font-family="Helvetica,sans-Serif" font-size="10.00">update_e</text>
<text text-anchor="middle" x="614.5" y="-408.09" font-family="Helvetica,sans-Serif" font-size="10.00">update_n</text>
<text text-anchor="middle" x="614.5" y="-397.09" font-family="Helvetica,sans-Serif" font-size="10.00">update_t</text>
<text text-anchor="middle" x="614.5" y="-386.09" font-family="Helvetica,sans-Serif" font-size="10.00">...</text>
</g>
<!-- Node8&#45;&gt;Node8 -->
<g id="edge17" class="edge">
<title>Node8&#45;&gt;Node8</title>
<path fill="none" stroke="#9a32cd" stroke-dasharray="5,2" d="M386.09,-393.49C387.26,-398.4 393.06,-402.09 403.5,-402.09 420.21,-402.09 425.04,-392.65 417.99,-383.84"/>
<polygon fill="#9a32cd" stroke="#9a32cd" points="389.47,-394.43 389.01,-383.84 382.77,-392.4 389.47,-394.43"/>
<text text-anchor="middle" x="403.5" y="-405.09" font-family="Helvetica,sans-Serif" font-size="10.00"> next</text>
</g>
<!-- Node9&#45;&gt;Node8 -->
<g id="edge14" class="edge">
<title>Node9&#45;&gt;Node8</title>
<path fill="none" stroke="#9a32cd" stroke-dasharray="5,2" d="M256.29,-411.96C289.86,-403.27 334.47,-391.71 365.55,-383.66"/>
<polygon fill="#9a32cd" stroke="#9a32cd" points="255.06,-408.67 246.26,-414.56 256.81,-415.44 255.06,-408.67"/>
<text text-anchor="middle" x="309.5" y="-419.09" font-family="Helvetica,sans-Serif" font-size="10.00"> recv</text>
<text text-anchor="middle" x="309.5" y="-408.09" font-family="Helvetica,sans-Serif" font-size="10.00">send</text>
</g>
<!-- Node9&#45;&gt;Node14 -->
<g id="edge29" class="edge">
<title>Node9&#45;&gt;Node14</title>
<path fill="none" stroke="#9a32cd" stroke-dasharray="5,2" d="M248.19,-410.02C253.17,-407.21 257.95,-403.91 262,-400.09 274.44,-388.35 271.6,-380.98 280,-366.09 322.84,-290.17 378.28,-200.81 396.45,-171.74"/>
<polygon fill="#9a32cd" stroke="#9a32cd" points="246.46,-406.97 239.09,-414.59 249.6,-413.23 246.46,-406.97"/>
<text text-anchor="middle" x="309.5" y="-380.09" font-family="Helvetica,sans-Serif" font-size="10.00"> recv</text>
<text text-anchor="middle" x="309.5" y="-369.09" font-family="Helvetica,sans-Serif" font-size="10.00">send</text>
</g>
<!-- Node10&#45;&gt;Node3 -->
<g id="edge19" class="edge">
<title>Node10&#45;&gt;Node3</title>
<path fill="none" stroke="#9a32cd" stroke-dasharray="5,2" d="M671.07,-523.6C688.43,-525.87 706.95,-530.65 722,-540.09 745.68,-554.93 761.08,-585.69 767.73,-601.39"/>
<polygon fill="#9a32cd" stroke="#9a32cd" points="671.34,-520.1 661.02,-522.53 670.6,-527.06 671.34,-520.1"/>
<text text-anchor="middle" x="706.5" y="-543.09" font-family="Helvetica,sans-Serif" font-size="10.00"> list</text>
</g>
<!-- Node11&#45;&gt;Node10 -->
<g id="edge20" class="edge">
<title>Node11&#45;&gt;Node10</title>
<path fill="none" stroke="#9a32cd" stroke-dasharray="5,2" d="M460.52,-520.76C484.4,-520.7 512.56,-520.75 538,-521.09 547.7,-521.21 558.1,-521.44 567.99,-521.69"/>
<polygon fill="#9a32cd" stroke="#9a32cd" points="460.21,-517.26 450.22,-520.79 460.23,-524.26 460.21,-517.26"/>
<text text-anchor="middle" x="503" y="-535.09" font-family="Helvetica,sans-Serif" font-size="10.00"> x</text>
<text text-anchor="middle" x="503" y="-524.09" font-family="Helvetica,sans-Serif" font-size="10.00">y</text>
</g>
<!-- Node12&#45;&gt;Node3 -->
<g id="edge24" class="edge">
<title>Node12&#45;&gt;Node3</title>
<path fill="none" stroke="#9a32cd" stroke-dasharray="5,2" d="M349.56,-560.71C422.67,-569.37 585.15,-588.64 722,-605.09 727.76,-605.78 733.89,-606.52 739.81,-607.23"/>
<polygon fill="#9a32cd" stroke="#9a32cd" points="349.78,-557.21 339.44,-559.51 348.96,-564.16 349.78,-557.21"/>
<text text-anchor="middle" x="503" y="-585.09" font-family="Helvetica,sans-Serif" font-size="10.00"> tilelist</text>
</g>
<!-- Node13 -->
<g id="node13" class="node">
<title>Node13</title>
<g id="a_node13"><a xlink:title=" ">
<polygon fill="white" stroke="#bfbfbf" points="556,-707.09 556,-737.09 673,-737.09 673,-707.09 556,-707.09"/>
<text text-anchor="start" x="564" y="-725.09" font-family="Helvetica,sans-Serif" font-size="10.00">character(len=name</text>
<text text-anchor="middle" x="614.5" y="-714.09" font-family="Helvetica,sans-Serif" font-size="10.00">_length)</text>
</a>
</g>
</g>
<!-- Node13&#45;&gt;Node3 -->
<g id="edge27" class="edge">
<title>Node13&#45;&gt;Node3</title>
<path fill="none" stroke="#9a32cd" stroke-dasharray="5,2" d="M682.63,-711.38C696.56,-706.99 710.49,-700.8 722,-692.09 746.96,-673.18 762.14,-637.72 768.3,-620.69"/>
<polygon fill="#9a32cd" stroke="#9a32cd" points="681.65,-708.02 673,-714.14 683.58,-714.74 681.65,-708.02"/>
<text text-anchor="middle" x="706.5" y="-710.09" font-family="Helvetica,sans-Serif" font-size="10.00"> name</text>
</g>
<!-- Node14&#45;&gt;Node1 -->
<g id="edge28" class="edge">
<title>Node14&#45;&gt;Node1</title>
<path fill="none" stroke="#9a32cd" stroke-dasharray="5,2" d="M435.91,-175.78C493.25,-200.93 618.51,-256.66 722,-308.09 807.91,-350.77 908.31,-406.34 947.8,-428.42"/>
<polygon fill="#9a32cd" stroke="#9a32cd" points="437.22,-172.53 426.66,-171.72 434.41,-178.94 437.22,-172.53"/>
<text text-anchor="middle" x="706.5" y="-388.09" font-family="Helvetica,sans-Serif" font-size="10.00"> c2f_c</text>
<text text-anchor="middle" x="706.5" y="-377.09" font-family="Helvetica,sans-Serif" font-size="10.00">c2f_e</text>
<text text-anchor="middle" x="706.5" y="-366.09" font-family="Helvetica,sans-Serif" font-size="10.00">c2f_n</text>
<text text-anchor="middle" x="706.5" y="-355.09" font-family="Helvetica,sans-Serif" font-size="10.00">c2f_t</text>
<text text-anchor="middle" x="706.5" y="-344.09" font-family="Helvetica,sans-Serif" font-size="10.00">f2c_c</text>
<text text-anchor="middle" x="706.5" y="-333.09" font-family="Helvetica,sans-Serif" font-size="10.00">f2c_e</text>
<text text-anchor="middle" x="706.5" y="-322.09" font-family="Helvetica,sans-Serif" font-size="10.00">f2c_n</text>
<text text-anchor="middle" x="706.5" y="-311.09" font-family="Helvetica,sans-Serif" font-size="10.00">f2c_t</text>
</g>
<!-- Node14&#45;&gt;Node14 -->
<g id="edge32" class="edge">
<title>Node14&#45;&gt;Node14</title>
<path fill="none" stroke="#9a32cd" stroke-dasharray="5,2" d="M386.09,-181.49C387.26,-186.4 393.06,-190.09 403.5,-190.09 420.21,-190.09 425.04,-180.65 417.99,-171.84"/>
<polygon fill="#9a32cd" stroke="#9a32cd" points="389.47,-182.43 389.01,-171.84 382.77,-180.4 389.47,-182.43"/>
<text text-anchor="middle" x="403.5" y="-193.09" font-family="Helvetica,sans-Serif" font-size="10.00"> next</text>
</g>
<!-- Node15&#45;&gt;Node14 -->
<g id="edge30" class="edge">
<title>Node15&#45;&gt;Node14</title>
<path fill="none" stroke="#9a32cd" stroke-dasharray="5,2" d="M254.31,-37.79C280.72,-34.2 313.79,-34.2 339,-49.09 378.34,-72.31 395.22,-129.76 400.52,-152.55"/>
<polygon fill="#9a32cd" stroke="#9a32cd" points="253.51,-34.38 244.18,-39.39 254.6,-41.29 253.51,-34.38"/>
<text text-anchor="middle" x="309.5" y="-96.09" font-family="Helvetica,sans-Serif" font-size="10.00"> center</text>
<text text-anchor="middle" x="309.5" y="-85.09" font-family="Helvetica,sans-Serif" font-size="10.00">east</text>
<text text-anchor="middle" x="309.5" y="-74.09" font-family="Helvetica,sans-Serif" font-size="10.00">north</text>
<text text-anchor="middle" x="309.5" y="-63.09" font-family="Helvetica,sans-Serif" font-size="10.00">south</text>
<text text-anchor="middle" x="309.5" y="-52.09" font-family="Helvetica,sans-Serif" font-size="10.00">west</text>
</g>
</g>
</svg>
        <g id="navigator" transform="translate(0 0)" fill="#404254">
                <rect fill="#f2f5e9" fill-opacity="0.5" stroke="#606060" stroke-width=".5" x="0" y="0" width="60" height="60"/>
                <use id="zoomplus" xlink:href="#zoomPlus" x="17" y="9" onmousedown="handleZoom(evt,'in')"/>
                <use id="zoomminus" xlink:href="#zoomMin" x="42" y="9" onmousedown="handleZoom(evt,'out')"/>
                <use id="reset" xlink:href="#resetDef" x="30" y="36" onmousedown="handleReset()"/>
                <g id="arrowUp" xlink:href="#dirArrow" transform="translate(30 24)" onmousedown="handlePan(0,-1)">
                  <use xlink:href="#rim" fill="#404040">
                        <set attributeName="fill" to="#808080" begin="arrowUp.mouseover" end="arrowUp.mouseout"/>
                  </use>
                  <path fill="none" stroke="white" stroke-width="1.5" d="M0,-3.0v7 M-2.5,-0.5L0,-3.0L2.5,-0.5"/>
                </g>
                <g id="arrowRight" xlink:href="#dirArrow" transform="rotate(90) translate(36 -43)" onmousedown="handlePan(1,0)">
                  <use xlink:href="#rim" fill="#404040">
                        <set attributeName="fill" to="#808080" begin="arrowRight.mouseover" end="arrowRight.mouseout"/>
                  </use>
                  <path fill="none" stroke="white" stroke-width="1.5" d="M0,-3.0v7 M-2.5,-0.5L0,-3.0L2.5,-0.5"/>
                </g>
                <g id="arrowDown" xlink:href="#dirArrow" transform="rotate(180) translate(-30 -48)" onmousedown="handlePan(0,1)">
                  <use xlink:href="#rim" fill="#404040">
                        <set attributeName="fill" to="#808080" begin="arrowDown.mouseover" end="arrowDown.mouseout"/>
                  </use>
                  <path fill="none" stroke="white" stroke-width="1.5" d="M0,-3.0v7 M-2.5,-0.5L0,-3.0L2.5,-0.5"/>
                </g>
                <g id="arrowLeft" xlink:href="#dirArrow" transform="rotate(270) translate(-36 17)" onmousedown="handlePan(-1,0)">
                  <use xlink:href="#rim" fill="#404040">
                        <set attributeName="fill" to="#808080" begin="arrowLeft.mouseover" end="arrowLeft.mouseout"/>
                  </use>
                  <path fill="none" stroke="white" stroke-width="1.5" d="M0,-3.0v7 M-2.5,-0.5L0,-3.0L2.5,-0.5"/>
                </g>
        </g>
        <svg viewBox="0 0 15 15" width="100%" height="30px" preserveAspectRatio="xMaxYMin meet">
         <g id="arrow_out" transform="scale(0.3 0.3)">
          <a xlink:href="structmpp__domains__mod_1_1nest__level__type__coll__graph_org.svg" target="_base">
           <rect id="button" ry="5" rx="5" y="6" x="6" height="38" width="38"
                fill="#f2f5e9" fill-opacity="0.5" stroke="#606060" stroke-width="1.0"/>
           <path id="arrow"
             d="M 11.500037,31.436501 C 11.940474,20.09759 22.043105,11.32322 32.158766,21.979434 L 37.068811,17.246167 C 37.068811,17.246167 37.088388,32 37.088388,32 L 22.160133,31.978069 C 22.160133,31.978069 26.997745,27.140456 26.997745,27.140456 C 18.528582,18.264221 13.291696,25.230495 11.500037,31.436501 z"
             style="fill:#404040;"/>
          </a>
         </g>
        </svg>
</svg>
