<?xml version="1.0" encoding="UTF-8" standalone="no"?>
<!DOCTYPE svg PUBLIC "-//W3C//DTD SVG 1.1//EN"
 "http://www.w3.org/Graphics/SVG/1.1/DTD/svg11.dtd">
<!-- Generated by graphviz version 2.43.0 (0)
 -->
<!-- Title: drifters_input_type Pages: 1 -->
<svg width="307pt" height="172pt"
 viewBox="0.00 0.00 306.50 172.00" xmlns="http://www.w3.org/2000/svg" xmlns:xlink="http://www.w3.org/1999/xlink">
<g id="graph0" class="graph" transform="scale(1 1) rotate(0) translate(4 168)">
<title>drifters_input_type</title>
<polygon fill="white" stroke="transparent" points="-4,4 -4,-168 302.5,-168 302.5,4 -4,4"/>
<!-- Node1 -->
<g id="node1" class="node">
<title>Node1</title>
<g id="a_node1"><a xlink:title="Input data type for drifters.">
<polygon fill="#bfbfbf" stroke="black" points="142.5,-0.5 142.5,-19.5 250.5,-19.5 250.5,-0.5 142.5,-0.5"/>
<text text-anchor="middle" x="196.5" y="-7.5" font-family="Helvetica,sans-Serif" font-size="10.00">drifters_input_type</text>
</a>
</g>
</g>
<!-- Node2 -->
<g id="node2" class="node">
<title>Node2</title>
<g id="a_node2"><a xlink:title=" ">
<polygon fill="white" stroke="#bfbfbf" points="0,-144.5 0,-163.5 153,-163.5 153,-144.5 0,-144.5"/>
<text text-anchor="middle" x="76.5" y="-151.5" font-family="Helvetica,sans-Serif" font-size="10.00">character(len=max_str_len)</text>
</a>
</g>
</g>
<!-- Node2&#45;&gt;Node1 -->
<g id="edge1" class="edge">
<title>Node2&#45;&gt;Node1</title>
<path fill="none" stroke="#9a32cd" stroke-dasharray="5,2" d="M77.6,-134.38C80.09,-109.16 88.18,-64.29 114.5,-38 123.09,-29.42 134.45,-23.57 145.97,-19.57"/>
<polygon fill="#9a32cd" stroke="#9a32cd" points="74.11,-134.2 76.81,-144.45 81.09,-134.75 74.11,-134.2"/>
<text text-anchor="middle" x="153.5" y="-118" font-family="Helvetica,sans-Serif" font-size="10.00"> title</text>
<text text-anchor="middle" x="153.5" y="-107" font-family="Helvetica,sans-Serif" font-size="10.00">field_names</text>
<text text-anchor="middle" x="153.5" y="-96" font-family="Helvetica,sans-Serif" font-size="10.00">version</text>
<text text-anchor="middle" x="153.5" y="-85" font-family="Helvetica,sans-Serif" font-size="10.00">field_units</text>
<text text-anchor="middle" x="153.5" y="-74" font-family="Helvetica,sans-Serif" font-size="10.00">position_units</text>
<text text-anchor="middle" x="153.5" y="-63" font-family="Helvetica,sans-Serif" font-size="10.00">position_names</text>
<text text-anchor="middle" x="153.5" y="-52" font-family="Helvetica,sans-Serif" font-size="10.00">velocity_names</text>
<text text-anchor="middle" x="153.5" y="-41" font-family="Helvetica,sans-Serif" font-size="10.00">time_units</text>
</g>
<!-- Node3 -->
<g id="node3" class="node">
<title>Node3</title>
<g id="a_node3"><a xlink:title=" ">
<polygon fill="white" stroke="#bfbfbf" points="171,-144.5 171,-163.5 222,-163.5 222,-144.5 171,-144.5"/>
<text text-anchor="middle" x="196.5" y="-151.5" font-family="Helvetica,sans-Serif" font-size="10.00">integer</text>
</a>
</g>
</g>
<!-- Node3&#45;&gt;Node1 -->
<g id="edge2" class="edge">
<title>Node3&#45;&gt;Node1</title>
<path fill="none" stroke="#9a32cd" stroke-dasharray="5,2" d="M196.5,-134.11C196.5,-102.93 196.5,-41.93 196.5,-19.52"/>
<polygon fill="#9a32cd" stroke="#9a32cd" points="193,-134.12 196.5,-144.12 200,-134.12 193,-134.12"/>
<text text-anchor="middle" x="205.5" y="-79.5" font-family="Helvetica,sans-Serif" font-size="10.00"> ids</text>
</g>
<!-- Node4 -->
<g id="node4" class="node">
<title>Node4</title>
<g id="a_node4"><a xlink:title=" ">
<polygon fill="white" stroke="#bfbfbf" points="240,-144.5 240,-163.5 275,-163.5 275,-144.5 240,-144.5"/>
<text text-anchor="middle" x="257.5" y="-151.5" font-family="Helvetica,sans-Serif" font-size="10.00">real</text>
</a>
</g>
</g>
<!-- Node4&#45;&gt;Node1 -->
<g id="edge3" class="edge">
<title>Node4&#45;&gt;Node1</title>
<path fill="none" stroke="#9a32cd" stroke-dasharray="5,2" d="M253.4,-134.53C247.72,-111.09 236.13,-69.86 218.5,-38 214.87,-31.44 209.6,-24.9 205.12,-19.9"/>
<polygon fill="#9a32cd" stroke="#9a32cd" points="250.04,-135.54 255.71,-144.49 256.86,-133.96 250.04,-135.54"/>
<text text-anchor="middle" x="274.5" y="-79.5" font-family="Helvetica,sans-Serif" font-size="10.00"> positions</text>
</g>
</g>
</svg>
