<?xml version="1.0" encoding="UTF-8" standalone="no"?>
<!DOCTYPE svg PUBLIC "-//W3C//DTD SVG 1.1//EN"
 "http://www.w3.org/Graphics/SVG/1.1/DTD/svg11.dtd">
<!-- Generated by graphviz version 2.43.0 (0)
 -->
<!-- Title: input_field_type Pages: 1 -->
<!--zoomable 501 -->
<svg id="main" version="1.1" xmlns="http://www.w3.org/2000/svg" xmlns:xlink="http://www.w3.org/1999/xlink" xml:space="preserve" onload="init(evt)">
<style type="text/css"><![CDATA[
.edge:hover path { stroke: red; }
.edge:hover polygon { stroke: red; fill: red; }
]]></style>
<script type="text/javascript"><![CDATA[
var edges = document.getElementsByTagName('g');
if (edges && edges.length) {
  for (var i=0;i<edges.length;i++) {
    if (edges[i].id.substr(0,4)=='edge') {
      edges[i].setAttribute('class','edge');
    }
  }
}
]]></script>
        <defs>
                <circle id="rim" cx="0" cy="0" r="7"/>
                <circle id="rim2" cx="0" cy="0" r="3.5"/>
                <g id="zoomPlus">
                        <use xlink:href="#rim" fill="#404040">
                                <set attributeName="fill" to="#808080" begin="zoomplus.mouseover" end="zoomplus.mouseout"/>
                        </use>
                        <path d="M-4,0h8M0,-4v8" fill="none" stroke="white" stroke-width="1.5" pointer-events="none"/>
                </g>
                <g id="zoomMin">
                        <use xlink:href="#rim" fill="#404040">
                                <set attributeName="fill" to="#808080" begin="zoomminus.mouseover" end="zoomminus.mouseout"/>
                        </use>
                        <path d="M-4,0h8" fill="none" stroke="white" stroke-width="1.5" pointer-events="none"/>
                </g>
                <g id="dirArrow">
                        <path fill="none" stroke="white" stroke-width="1.5" d="M0,-3.0v7 M-2.5,-0.5L0,-3.0L2.5,-0.5"/>
                </g>
               <g id="resetDef">
                       <use xlink:href="#rim2" fill="#404040">
                               <set attributeName="fill" to="#808080" begin="reset.mouseover" end="reset.mouseout"/>
                       </use>
               </g>
        </defs>

<script type="text/javascript">
var viewWidth = 480;
var viewHeight = 501;
var sectionId = 'dynsection-7';
</script>
<script xlink:href="svgpan.js"/>
<svg id="graph" class="graph">
<g id="viewport">
<title>input_field_type</title>
<polygon fill="white" stroke="transparent" points="-4,4 -4,-497 476,-497 476,4 -4,4"/>
<!-- Node1 -->
<g id="node1" class="node">
<title>Node1</title>
<g id="a_node1"><a xlink:title="Type to hold the input field description.">
<polygon fill="#bfbfbf" stroke="black" points="377,-169.5 377,-188.5 472,-188.5 472,-169.5 377,-169.5"/>
<text text-anchor="middle" x="424.5" y="-176.5" font-family="Helvetica,sans-Serif" font-size="10.00">input_field_type</text>
</a>
</g>
</g>
<!-- Node2 -->
<g id="node2" class="node">
<title>Node2</title>
<g id="a_node2"><a xlink:href="group__time__manager__mod.html#structtime__manager__mod_1_1time__type" target="_top" xlink:title="Type to represent amounts of time. Implemented as seconds and days to allow for larger intervals.">
<polygon fill="white" stroke="black" points="149.5,-331.5 149.5,-350.5 215.5,-350.5 215.5,-331.5 149.5,-331.5"/>
<text text-anchor="middle" x="182.5" y="-338.5" font-family="Helvetica,sans-Serif" font-size="10.00">time_type</text>
</a>
</g>
</g>
<!-- Node2&#45;&gt;Node1 -->
<g id="edge1" class="edge">
<title>Node2&#45;&gt;Node1</title>
<path fill="none" stroke="#9a32cd" stroke-dasharray="5,2" d="M225.9,-349.97C264.21,-355.57 320.36,-357.28 359,-330 407.9,-295.47 419.98,-215.98 422.74,-188.53"/>
<polygon fill="#9a32cd" stroke="#9a32cd" points="226.02,-346.44 215.59,-348.3 224.91,-353.35 226.02,-346.44"/>
<text text-anchor="middle" x="307.5" y="-356" font-family="Helvetica,sans-Serif" font-size="10.00"> time</text>
</g>
<!-- Node3 -->
<g id="node3" class="node">
<title>Node3</title>
<g id="a_node3"><a xlink:title=" ">
<polygon fill="white" stroke="#bfbfbf" points="0,-354.5 0,-373.5 51,-373.5 51,-354.5 0,-354.5"/>
<text text-anchor="middle" x="25.5" y="-361.5" font-family="Helvetica,sans-Serif" font-size="10.00">integer</text>
</a>
</g>
</g>
<!-- Node3&#45;&gt;Node1 -->
<g id="edge10" class="edge">
<title>Node3&#45;&gt;Node1</title>
<path fill="none" stroke="#9a32cd" stroke-dasharray="5,2" d="M60.99,-376.69C126.26,-398.28 269.31,-433.8 359,-368 419.1,-323.91 423.75,-220.57 423.69,-188.6"/>
<polygon fill="#9a32cd" stroke="#9a32cd" points="61.8,-373.26 51.2,-373.36 59.54,-379.89 61.8,-373.26"/>
<text text-anchor="middle" x="182.5" y="-485" font-family="Helvetica,sans-Serif" font-size="10.00"> tile_count</text>
<text text-anchor="middle" x="182.5" y="-474" font-family="Helvetica,sans-Serif" font-size="10.00">num_output_fields</text>
<text text-anchor="middle" x="182.5" y="-463" font-family="Helvetica,sans-Serif" font-size="10.00">size</text>
<text text-anchor="middle" x="182.5" y="-452" font-family="Helvetica,sans-Serif" font-size="10.00">axes</text>
<text text-anchor="middle" x="182.5" y="-441" font-family="Helvetica,sans-Serif" font-size="10.00">active_omp_level</text>
<text text-anchor="middle" x="182.5" y="-430" font-family="Helvetica,sans-Serif" font-size="10.00">output_fields</text>
<text text-anchor="middle" x="182.5" y="-419" font-family="Helvetica,sans-Serif" font-size="10.00">num_axes</text>
<text text-anchor="middle" x="182.5" y="-408" font-family="Helvetica,sans-Serif" font-size="10.00">numthreads</text>
</g>
<!-- Node3&#45;&gt;Node2 -->
<g id="edge2" class="edge">
<title>Node3&#45;&gt;Node2</title>
<path fill="none" stroke="#9a32cd" stroke-dasharray="5,2" d="M48.58,-349.39C54.91,-345.95 62.01,-342.77 69,-341 95.51,-334.29 126.67,-334.92 149.46,-336.87"/>
<polygon fill="#9a32cd" stroke="#9a32cd" points="46.78,-346.38 39.94,-354.48 50.33,-352.42 46.78,-346.38"/>
<text text-anchor="middle" x="89" y="-366" font-family="Helvetica,sans-Serif" font-size="10.00"> days</text>
<text text-anchor="middle" x="89" y="-355" font-family="Helvetica,sans-Serif" font-size="10.00">seconds</text>
<text text-anchor="middle" x="89" y="-344" font-family="Helvetica,sans-Serif" font-size="10.00">ticks</text>
</g>
<!-- Node4 -->
<g id="node4" class="node">
<title>Node4</title>
<g id="a_node4"><a xlink:title=" ">
<polygon fill="white" stroke="#bfbfbf" points="158,-237.5 158,-256.5 207,-256.5 207,-237.5 158,-237.5"/>
<text text-anchor="middle" x="182.5" y="-244.5" font-family="Helvetica,sans-Serif" font-size="10.00">logical</text>
</a>
</g>
</g>
<!-- Node4&#45;&gt;Node1 -->
<g id="edge3" class="edge">
<title>Node4&#45;&gt;Node1</title>
<path fill="none" stroke="#9a32cd" stroke-dasharray="5,2" d="M217.07,-239.58C267.54,-228.43 357.3,-208.57 359,-208 374.96,-202.7 392.31,-194.77 404.99,-188.54"/>
<polygon fill="#9a32cd" stroke="#9a32cd" points="216.25,-236.18 207.24,-241.76 217.76,-243.02 216.25,-236.18"/>
<text text-anchor="start" x="256" y="-321" font-family="Helvetica,sans-Serif" font-size="10.00"> issued_mask_ignore</text>
<text text-anchor="middle" x="307.5" y="-310" font-family="Helvetica,sans-Serif" font-size="10.00">_warning</text>
<text text-anchor="middle" x="307.5" y="-299" font-family="Helvetica,sans-Serif" font-size="10.00">mask_variant</text>
<text text-anchor="middle" x="307.5" y="-288" font-family="Helvetica,sans-Serif" font-size="10.00">range_present</text>
<text text-anchor="middle" x="307.5" y="-277" font-family="Helvetica,sans-Serif" font-size="10.00">local</text>
<text text-anchor="start" x="256" y="-266" font-family="Helvetica,sans-Serif" font-size="10.00">missing_value</text>
<text text-anchor="middle" x="307.5" y="-255" font-family="Helvetica,sans-Serif" font-size="10.00">_present</text>
<text text-anchor="middle" x="307.5" y="-244" font-family="Helvetica,sans-Serif" font-size="10.00">static</text>
<text text-anchor="middle" x="307.5" y="-233" font-family="Helvetica,sans-Serif" font-size="10.00">register</text>
</g>
<!-- Node5 -->
<g id="node5" class="node">
<title>Node5</title>
<g id="a_node5"><a xlink:href="group__diag__data__mod.html#structdiag__data__mod_1_1coord__type" target="_top" xlink:title="Define the region for field output.">
<polygon fill="white" stroke="black" points="147,-141.5 147,-160.5 218,-160.5 218,-141.5 147,-141.5"/>
<text text-anchor="middle" x="182.5" y="-148.5" font-family="Helvetica,sans-Serif" font-size="10.00">coord_type</text>
</a>
</g>
</g>
<!-- Node5&#45;&gt;Node1 -->
<g id="edge4" class="edge">
<title>Node5&#45;&gt;Node1</title>
<path fill="none" stroke="#9a32cd" stroke-dasharray="5,2" d="M228.17,-156.21C270.53,-161.15 333.93,-168.55 376.92,-173.57"/>
<polygon fill="#9a32cd" stroke="#9a32cd" points="228.48,-152.72 218.14,-155.04 227.67,-159.68 228.48,-152.72"/>
<text text-anchor="middle" x="307.5" y="-173" font-family="Helvetica,sans-Serif" font-size="10.00"> local_coord</text>
</g>
<!-- Node6 -->
<g id="node6" class="node">
<title>Node6</title>
<g id="a_node6"><a xlink:title=" ">
<polygon fill="white" stroke="#bfbfbf" points="8,-147.5 8,-166.5 43,-166.5 43,-147.5 8,-147.5"/>
<text text-anchor="middle" x="25.5" y="-154.5" font-family="Helvetica,sans-Serif" font-size="10.00">real</text>
</a>
</g>
</g>
<!-- Node6&#45;&gt;Node1 -->
<g id="edge9" class="edge">
<title>Node6&#45;&gt;Node1</title>
<path fill="none" stroke="#9a32cd" stroke-dasharray="5,2" d="M46.72,-172.48C53.45,-176.75 61.22,-180.81 69,-183 193.06,-217.94 230.17,-186.99 359,-183 364.72,-182.82 370.72,-182.56 376.66,-182.25"/>
<polygon fill="#9a32cd" stroke="#9a32cd" points="48.52,-169.47 38.3,-166.68 44.55,-175.23 48.52,-169.47"/>
<text text-anchor="middle" x="182.5" y="-213" font-family="Helvetica,sans-Serif" font-size="10.00"> range</text>
<text text-anchor="middle" x="182.5" y="-202" font-family="Helvetica,sans-Serif" font-size="10.00">missing_value</text>
</g>
<!-- Node6&#45;&gt;Node5 -->
<g id="edge5" class="edge">
<title>Node6&#45;&gt;Node5</title>
<path fill="none" stroke="#9a32cd" stroke-dasharray="5,2" d="M39.66,-139.5C47.19,-130.97 57.44,-121.59 69,-117 85.53,-110.45 92.28,-110.95 109,-117 118.79,-120.55 117.94,-126.87 127,-132 133.54,-135.7 140.93,-138.87 148.1,-141.49"/>
<polygon fill="#9a32cd" stroke="#9a32cd" points="36.95,-137.28 33.31,-147.23 42.36,-141.72 36.95,-137.28"/>
<text text-anchor="middle" x="89" y="-175" font-family="Helvetica,sans-Serif" font-size="10.00"> zbegin</text>
<text text-anchor="middle" x="89" y="-164" font-family="Helvetica,sans-Serif" font-size="10.00">ybegin</text>
<text text-anchor="middle" x="89" y="-153" font-family="Helvetica,sans-Serif" font-size="10.00">xbegin</text>
<text text-anchor="middle" x="89" y="-142" font-family="Helvetica,sans-Serif" font-size="10.00">zend</text>
<text text-anchor="middle" x="89" y="-131" font-family="Helvetica,sans-Serif" font-size="10.00">yend</text>
<text text-anchor="middle" x="89" y="-120" font-family="Helvetica,sans-Serif" font-size="10.00">xend</text>
</g>
<!-- Node7 -->
<g id="node7" class="node">
<title>Node7</title>
<g id="a_node7"><a xlink:title=" ">
<polygon fill="white" stroke="#bfbfbf" points="127,-103.5 127,-122.5 238,-122.5 238,-103.5 127,-103.5"/>
<text text-anchor="middle" x="182.5" y="-110.5" font-family="Helvetica,sans-Serif" font-size="10.00">character(len=256)</text>
</a>
</g>
</g>
<!-- Node7&#45;&gt;Node1 -->
<g id="edge6" class="edge">
<title>Node7&#45;&gt;Node1</title>
<path fill="none" stroke="#9a32cd" stroke-dasharray="5,2" d="M248.53,-120.05C282.14,-124.88 323.45,-132.72 359,-145 376.83,-151.16 395.75,-161.67 408.46,-169.37"/>
<polygon fill="#9a32cd" stroke="#9a32cd" points="248.74,-116.54 238.36,-118.64 247.79,-123.48 248.74,-116.54"/>
<text text-anchor="middle" x="307.5" y="-148" font-family="Helvetica,sans-Serif" font-size="10.00"> standard_name</text>
</g>
<!-- Node8 -->
<g id="node8" class="node">
<title>Node8</title>
<g id="a_node8"><a xlink:title=" ">
<polygon fill="white" stroke="#bfbfbf" points="130,-65.5 130,-84.5 235,-84.5 235,-65.5 130,-65.5"/>
<text text-anchor="middle" x="182.5" y="-72.5" font-family="Helvetica,sans-Serif" font-size="10.00">character(len=64)</text>
</a>
</g>
</g>
<!-- Node8&#45;&gt;Node1 -->
<g id="edge7" class="edge">
<title>Node8&#45;&gt;Node1</title>
<path fill="none" stroke="#9a32cd" stroke-dasharray="5,2" d="M245.44,-75.98C280.66,-78.9 324.49,-86.65 359,-106 386.59,-121.47 408.29,-153.29 417.98,-169.32"/>
<polygon fill="#9a32cd" stroke="#9a32cd" points="245.51,-72.48 235.28,-75.25 245.01,-79.46 245.51,-72.48"/>
<text text-anchor="middle" x="307.5" y="-109" font-family="Helvetica,sans-Serif" font-size="10.00"> interp_method</text>
</g>
<!-- Node9 -->
<g id="node9" class="node">
<title>Node9</title>
<g id="a_node9"><a xlink:title=" ">
<polygon fill="white" stroke="#bfbfbf" points="127,-0.5 127,-19.5 238,-19.5 238,-0.5 127,-0.5"/>
<text text-anchor="middle" x="182.5" y="-7.5" font-family="Helvetica,sans-Serif" font-size="10.00">character(len=128)</text>
</a>
</g>
</g>
<!-- Node9&#45;&gt;Node1 -->
<g id="edge8" class="edge">
<title>Node9&#45;&gt;Node1</title>
<path fill="none" stroke="#9a32cd" stroke-dasharray="5,2" d="M248.47,-2.45C284.3,-1.71 327.72,-6.81 359,-30 406.33,-65.08 419.37,-142.19 422.56,-169.32"/>
<polygon fill="#9a32cd" stroke="#9a32cd" points="247.97,1.03 238.1,-2.83 248.23,-5.96 247.97,1.03"/>
<text text-anchor="middle" x="307.5" y="-66" font-family="Helvetica,sans-Serif" font-size="10.00"> field_name</text>
<text text-anchor="middle" x="307.5" y="-55" font-family="Helvetica,sans-Serif" font-size="10.00">units</text>
<text text-anchor="middle" x="307.5" y="-44" font-family="Helvetica,sans-Serif" font-size="10.00">module_name</text>
<text text-anchor="middle" x="307.5" y="-33" font-family="Helvetica,sans-Serif" font-size="10.00">long_name</text>
</g>
</g>
</svg>
        <g id="navigator" transform="translate(0 0)" fill="#404254">
                <rect fill="#f2f5e9" fill-opacity="0.5" stroke="#606060" stroke-width=".5" x="0" y="0" width="60" height="60"/>
                <use id="zoomplus" xlink:href="#zoomPlus" x="17" y="9" onmousedown="handleZoom(evt,'in')"/>
                <use id="zoomminus" xlink:href="#zoomMin" x="42" y="9" onmousedown="handleZoom(evt,'out')"/>
                <use id="reset" xlink:href="#resetDef" x="30" y="36" onmousedown="handleReset()"/>
                <g id="arrowUp" xlink:href="#dirArrow" transform="translate(30 24)" onmousedown="handlePan(0,-1)">
                  <use xlink:href="#rim" fill="#404040">
                        <set attributeName="fill" to="#808080" begin="arrowUp.mouseover" end="arrowUp.mouseout"/>
                  </use>
                  <path fill="none" stroke="white" stroke-width="1.5" d="M0,-3.0v7 M-2.5,-0.5L0,-3.0L2.5,-0.5"/>
                </g>
                <g id="arrowRight" xlink:href="#dirArrow" transform="rotate(90) translate(36 -43)" onmousedown="handlePan(1,0)">
                  <use xlink:href="#rim" fill="#404040">
                        <set attributeName="fill" to="#808080" begin="arrowRight.mouseover" end="arrowRight.mouseout"/>
                  </use>
                  <path fill="none" stroke="white" stroke-width="1.5" d="M0,-3.0v7 M-2.5,-0.5L0,-3.0L2.5,-0.5"/>
                </g>
                <g id="arrowDown" xlink:href="#dirArrow" transform="rotate(180) translate(-30 -48)" onmousedown="handlePan(0,1)">
                  <use xlink:href="#rim" fill="#404040">
                        <set attributeName="fill" to="#808080" begin="arrowDown.mouseover" end="arrowDown.mouseout"/>
                  </use>
                  <path fill="none" stroke="white" stroke-width="1.5" d="M0,-3.0v7 M-2.5,-0.5L0,-3.0L2.5,-0.5"/>
                </g>
                <g id="arrowLeft" xlink:href="#dirArrow" transform="rotate(270) translate(-36 17)" onmousedown="handlePan(-1,0)">
                  <use xlink:href="#rim" fill="#404040">
                        <set attributeName="fill" to="#808080" begin="arrowLeft.mouseover" end="arrowLeft.mouseout"/>
                  </use>
                  <path fill="none" stroke="white" stroke-width="1.5" d="M0,-3.0v7 M-2.5,-0.5L0,-3.0L2.5,-0.5"/>
                </g>
        </g>
        <svg viewBox="0 0 15 15" width="100%" height="30px" preserveAspectRatio="xMaxYMin meet">
         <g id="arrow_out" transform="scale(0.3 0.3)">
          <a xlink:href="structdiag__data__mod_1_1input__field__type__coll__graph_org.svg" target="_base">
           <rect id="button" ry="5" rx="5" y="6" x="6" height="38" width="38"
                fill="#f2f5e9" fill-opacity="0.5" stroke="#606060" stroke-width="1.0"/>
           <path id="arrow"
             d="M 11.500037,31.436501 C 11.940474,20.09759 22.043105,11.32322 32.158766,21.979434 L 37.068811,17.246167 C 37.068811,17.246167 37.088388,32 37.088388,32 L 22.160133,31.978069 C 22.160133,31.978069 26.997745,27.140456 26.997745,27.140456 C 18.528582,18.264221 13.291696,25.230495 11.500037,31.436501 z"
             style="fill:#404040;"/>
          </a>
         </g>
        </svg>
</svg>
