<?xml version="1.0" encoding="UTF-8" standalone="no"?>
<!DOCTYPE svg PUBLIC "-//W3C//DTD SVG 1.1//EN"
 "http://www.w3.org/Graphics/SVG/1.1/DTD/svg11.dtd">
<!-- Generated by graphviz version 2.43.0 (0)
 -->
<!-- Title: interpolate_type Pages: 1 -->
<svg width="491pt" height="644pt"
 viewBox="0.00 0.00 491.00 644.00" xmlns="http://www.w3.org/2000/svg" xmlns:xlink="http://www.w3.org/1999/xlink">
<g id="graph0" class="graph" transform="scale(1 1) rotate(0) translate(4 640)">
<title>interpolate_type</title>
<polygon fill="white" stroke="transparent" points="-4,4 -4,-640 487,-640 487,4 -4,4"/>
<!-- Node1 -->
<g id="node1" class="node">
<title>Node1</title>
<g id="a_node1"><a xlink:title="Redundant climatology data between fields.">
<polygon fill="#bfbfbf" stroke="black" points="386,-162.5 386,-181.5 483,-181.5 483,-162.5 386,-162.5"/>
<text text-anchor="middle" x="434.5" y="-169.5" font-family="Helvetica,sans-Serif" font-size="10.00">interpolate_type</text>
</a>
</g>
</g>
<!-- Node2 -->
<g id="node2" class="node">
<title>Node2</title>
<g id="a_node2"><a xlink:title=" ">
<polygon fill="white" stroke="#bfbfbf" points="1,-100.5 1,-119.5 50,-119.5 50,-100.5 1,-100.5"/>
<text text-anchor="middle" x="25.5" y="-107.5" font-family="Helvetica,sans-Serif" font-size="10.00">logical</text>
</a>
</g>
</g>
<!-- Node2&#45;&gt;Node1 -->
<g id="edge1" class="edge">
<title>Node2&#45;&gt;Node1</title>
<path fill="none" stroke="#9a32cd" stroke-dasharray="5,2" d="M60.56,-108.26C63.41,-108.15 66.26,-108.06 69,-108 105.43,-107.14 114.59,-106.45 151,-108 213.84,-110.67 230.6,-106.36 292,-120 336.46,-129.87 385.85,-150.35 412.93,-162.45"/>
<polygon fill="#9a32cd" stroke="#9a32cd" points="60.17,-104.77 50.32,-108.68 60.46,-111.76 60.17,-104.77"/>
<text text-anchor="middle" x="230.5" y="-145" font-family="Helvetica,sans-Serif" font-size="10.00"> climatological_year</text>
<text text-anchor="middle" x="230.5" y="-134" font-family="Helvetica,sans-Serif" font-size="10.00">has_level</text>
<text text-anchor="middle" x="230.5" y="-123" font-family="Helvetica,sans-Serif" font-size="10.00">separate_time_vary_calc</text>
</g>
<!-- Node5 -->
<g id="node5" class="node">
<title>Node5</title>
<g id="a_node5"><a xlink:href="group__horiz__interp__type__mod.html#structhoriz__interp__type__mod_1_1horiz__interp__type" target="_top" xlink:title=" ">
<polygon fill="white" stroke="black" points="180,-162.5 180,-181.5 281,-181.5 281,-162.5 180,-162.5"/>
<text text-anchor="middle" x="230.5" y="-169.5" font-family="Helvetica,sans-Serif" font-size="10.00">horiz_interp_type</text>
</a>
</g>
</g>
<!-- Node2&#45;&gt;Node5 -->
<g id="edge5" class="edge">
<title>Node2&#45;&gt;Node5</title>
<path fill="none" stroke="#9a32cd" stroke-dasharray="5,2" d="M60.3,-111.54C85.8,-113.49 121.32,-117.93 151,-128 175.41,-136.29 200.96,-152.17 216.05,-162.41"/>
<polygon fill="#9a32cd" stroke="#9a32cd" points="60.25,-108.03 50.04,-110.84 59.78,-115.01 60.25,-108.03"/>
<text text-anchor="middle" x="110" y="-142" font-family="Helvetica,sans-Serif" font-size="10.00"> i_am_initialized</text>
<text text-anchor="middle" x="110" y="-131" font-family="Helvetica,sans-Serif" font-size="10.00">found_neighbors</text>
</g>
<!-- Node3 -->
<g id="node3" class="node">
<title>Node3</title>
<g id="a_node3"><a xlink:href="group__time__manager__mod.html#structtime__manager__mod_1_1time__type" target="_top" xlink:title="Type to represent amounts of time. Implemented as seconds and days to allow for larger intervals.">
<polygon fill="white" stroke="black" points="197.5,-616.5 197.5,-635.5 263.5,-635.5 263.5,-616.5 197.5,-616.5"/>
<text text-anchor="middle" x="230.5" y="-623.5" font-family="Helvetica,sans-Serif" font-size="10.00">time_type</text>
</a>
</g>
</g>
<!-- Node3&#45;&gt;Node1 -->
<g id="edge2" class="edge">
<title>Node3&#45;&gt;Node1</title>
<path fill="none" stroke="#9a32cd" stroke-dasharray="5,2" d="M272.81,-613.46C279.61,-610.34 286.29,-606.56 292,-602 338.71,-564.68 344.64,-546.04 368,-491 416.93,-375.73 430.22,-221.12 432.92,-181.54"/>
<polygon fill="#9a32cd" stroke="#9a32cd" points="271.45,-610.23 263.55,-617.3 274.13,-616.7 271.45,-610.23"/>
<text text-anchor="middle" x="339" y="-599" font-family="Helvetica,sans-Serif" font-size="10.00"> time_slice</text>
<text text-anchor="middle" x="339" y="-588" font-family="Helvetica,sans-Serif" font-size="10.00">clim_times</text>
</g>
<!-- Node4 -->
<g id="node4" class="node">
<title>Node4</title>
<g id="a_node4"><a xlink:title=" ">
<polygon fill="white" stroke="#bfbfbf" points="0,-467.5 0,-486.5 51,-486.5 51,-467.5 0,-467.5"/>
<text text-anchor="middle" x="25.5" y="-474.5" font-family="Helvetica,sans-Serif" font-size="10.00">integer</text>
</a>
</g>
</g>
<!-- Node4&#45;&gt;Node1 -->
<g id="edge10" class="edge">
<title>Node4&#45;&gt;Node1</title>
<path fill="none" stroke="#9a32cd" stroke-dasharray="5,2" d="M61.53,-477.85C116.75,-477.33 224.65,-468.62 292,-413 373.55,-345.65 418.82,-218.24 430.46,-181.9"/>
<polygon fill="#9a32cd" stroke="#9a32cd" points="61.22,-474.35 51.22,-477.85 61.22,-481.35 61.22,-474.35"/>
<text text-anchor="middle" x="230.5" y="-579" font-family="Helvetica,sans-Serif" font-size="10.00"> vert_interp</text>
<text text-anchor="middle" x="230.5" y="-568" font-family="Helvetica,sans-Serif" font-size="10.00">mr</text>
<text text-anchor="middle" x="230.5" y="-557" font-family="Helvetica,sans-Serif" font-size="10.00">vertical_indices</text>
<text text-anchor="middle" x="230.5" y="-546" font-family="Helvetica,sans-Serif" font-size="10.00">time_init</text>
<text text-anchor="middle" x="230.5" y="-535" font-family="Helvetica,sans-Serif" font-size="10.00">level_type</text>
<text text-anchor="middle" x="230.5" y="-524" font-family="Helvetica,sans-Serif" font-size="10.00">js</text>
<text text-anchor="middle" x="230.5" y="-513" font-family="Helvetica,sans-Serif" font-size="10.00">itaum</text>
<text text-anchor="middle" x="230.5" y="-502" font-family="Helvetica,sans-Serif" font-size="10.00">climatology</text>
<text text-anchor="middle" x="230.5" y="-491" font-family="Helvetica,sans-Serif" font-size="10.00">is</text>
<text text-anchor="middle" x="230.5" y="-480" font-family="Helvetica,sans-Serif" font-size="10.00">out_of_bounds</text>
<text text-anchor="middle" x="230.5" y="-469" font-family="Helvetica,sans-Serif" font-size="10.00">...</text>
</g>
<!-- Node4&#45;&gt;Node3 -->
<g id="edge3" class="edge">
<title>Node4&#45;&gt;Node3</title>
<path fill="none" stroke="#9a32cd" stroke-dasharray="5,2" d="M42.42,-494.34C67.28,-520.61 117.83,-570.71 169,-602 178.45,-607.78 189.53,-612.65 199.61,-616.46"/>
<polygon fill="#9a32cd" stroke="#9a32cd" points="44.66,-491.62 35.28,-486.71 39.55,-496.4 44.66,-491.62"/>
<text text-anchor="middle" x="110" y="-612" font-family="Helvetica,sans-Serif" font-size="10.00"> days</text>
<text text-anchor="middle" x="110" y="-601" font-family="Helvetica,sans-Serif" font-size="10.00">seconds</text>
<text text-anchor="middle" x="110" y="-590" font-family="Helvetica,sans-Serif" font-size="10.00">ticks</text>
</g>
<!-- Node4&#45;&gt;Node5 -->
<g id="edge6" class="edge">
<title>Node4&#45;&gt;Node5</title>
<path fill="none" stroke="#9a32cd" stroke-dasharray="5,2" d="M28.09,-457.04C31.31,-428.55 40.9,-375.93 69,-342 95.38,-310.15 120.82,-326.28 151,-298 188.98,-262.4 215.9,-204.53 225.57,-181.7"/>
<polygon fill="#9a32cd" stroke="#9a32cd" points="24.58,-457.04 27.09,-467.33 31.54,-457.72 24.58,-457.04"/>
<text text-anchor="middle" x="110" y="-455" font-family="Helvetica,sans-Serif" font-size="10.00"> nlat_dst</text>
<text text-anchor="middle" x="110" y="-444" font-family="Helvetica,sans-Serif" font-size="10.00">nlat_src</text>
<text text-anchor="middle" x="110" y="-433" font-family="Helvetica,sans-Serif" font-size="10.00">j_lat</text>
<text text-anchor="middle" x="110" y="-422" font-family="Helvetica,sans-Serif" font-size="10.00">ilon</text>
<text text-anchor="middle" x="110" y="-411" font-family="Helvetica,sans-Serif" font-size="10.00">num_found</text>
<text text-anchor="middle" x="110" y="-400" font-family="Helvetica,sans-Serif" font-size="10.00">jlat</text>
<text text-anchor="middle" x="110" y="-389" font-family="Helvetica,sans-Serif" font-size="10.00">interp_method</text>
<text text-anchor="middle" x="110" y="-378" font-family="Helvetica,sans-Serif" font-size="10.00">i_src</text>
<text text-anchor="middle" x="110" y="-367" font-family="Helvetica,sans-Serif" font-size="10.00">i_dst</text>
<text text-anchor="middle" x="110" y="-356" font-family="Helvetica,sans-Serif" font-size="10.00">j_src</text>
<text text-anchor="middle" x="110" y="-345" font-family="Helvetica,sans-Serif" font-size="10.00">...</text>
</g>
<!-- Node5&#45;&gt;Node1 -->
<g id="edge4" class="edge">
<title>Node5&#45;&gt;Node1</title>
<path fill="none" stroke="#9a32cd" stroke-dasharray="5,2" d="M291.55,-172C321.65,-172 357.58,-172 385.76,-172"/>
<polygon fill="#9a32cd" stroke="#9a32cd" points="291.17,-168.5 281.17,-172 291.17,-175.5 291.17,-168.5"/>
<text text-anchor="middle" x="339" y="-175" font-family="Helvetica,sans-Serif" font-size="10.00"> interph</text>
</g>
<!-- Node6 -->
<g id="node6" class="node">
<title>Node6</title>
<g id="a_node6"><a xlink:title=" ">
<polygon fill="white" stroke="#bfbfbf" points="8,-230.5 8,-249.5 43,-249.5 43,-230.5 8,-230.5"/>
<text text-anchor="middle" x="25.5" y="-237.5" font-family="Helvetica,sans-Serif" font-size="10.00">real</text>
</a>
</g>
</g>
<!-- Node6&#45;&gt;Node1 -->
<g id="edge11" class="edge">
<title>Node6&#45;&gt;Node1</title>
<path fill="none" stroke="#9a32cd" stroke-dasharray="5,2" d="M35.69,-259.02C42.85,-271.49 54.1,-286.76 69,-294 101.78,-309.92 115.31,-301.38 151,-294 258.77,-271.72 376.02,-206.3 417.71,-181.59"/>
<polygon fill="#9a32cd" stroke="#9a32cd" points="38.6,-257.04 30.82,-249.84 32.41,-260.31 38.6,-257.04"/>
<text text-anchor="middle" x="230.5" y="-401" font-family="Helvetica,sans-Serif" font-size="10.00"> tweight1</text>
<text text-anchor="middle" x="230.5" y="-390" font-family="Helvetica,sans-Serif" font-size="10.00">tweight2</text>
<text text-anchor="middle" x="230.5" y="-379" font-family="Helvetica,sans-Serif" font-size="10.00">tweight3</text>
<text text-anchor="middle" x="230.5" y="-368" font-family="Helvetica,sans-Serif" font-size="10.00">tweight</text>
<text text-anchor="middle" x="230.5" y="-357" font-family="Helvetica,sans-Serif" font-size="10.00">latb</text>
<text text-anchor="middle" x="230.5" y="-346" font-family="Helvetica,sans-Serif" font-size="10.00">lon</text>
<text text-anchor="middle" x="230.5" y="-335" font-family="Helvetica,sans-Serif" font-size="10.00">levs</text>
<text text-anchor="middle" x="230.5" y="-324" font-family="Helvetica,sans-Serif" font-size="10.00">nmon_pyear</text>
<text text-anchor="middle" x="230.5" y="-313" font-family="Helvetica,sans-Serif" font-size="10.00">lonb</text>
<text text-anchor="middle" x="230.5" y="-302" font-family="Helvetica,sans-Serif" font-size="10.00">lat</text>
<text text-anchor="middle" x="230.5" y="-291" font-family="Helvetica,sans-Serif" font-size="10.00">...</text>
</g>
<!-- Node6&#45;&gt;Node5 -->
<g id="edge7" class="edge">
<title>Node6&#45;&gt;Node5</title>
<path fill="none" stroke="#9a32cd" stroke-dasharray="5,2" d="M32.7,-221.02C39.05,-205.03 50.62,-183.18 69,-173 106.54,-152.21 156.99,-156.07 191.24,-162.45"/>
<polygon fill="#9a32cd" stroke="#9a32cd" points="29.38,-219.9 29.27,-230.5 35.97,-222.29 29.38,-219.9"/>
<text text-anchor="middle" x="110" y="-286" font-family="Helvetica,sans-Serif" font-size="10.00"> faci</text>
<text text-anchor="middle" x="110" y="-275" font-family="Helvetica,sans-Serif" font-size="10.00">facj</text>
<text text-anchor="middle" x="110" y="-264" font-family="Helvetica,sans-Serif" font-size="10.00">area_frac_dst</text>
<text text-anchor="middle" x="110" y="-253" font-family="Helvetica,sans-Serif" font-size="10.00">max_src_dist</text>
<text text-anchor="middle" x="110" y="-242" font-family="Helvetica,sans-Serif" font-size="10.00">src_dist</text>
<text text-anchor="middle" x="110" y="-231" font-family="Helvetica,sans-Serif" font-size="10.00">rat_x</text>
<text text-anchor="middle" x="110" y="-220" font-family="Helvetica,sans-Serif" font-size="10.00">rat_y</text>
<text text-anchor="middle" x="110" y="-209" font-family="Helvetica,sans-Serif" font-size="10.00">wti</text>
<text text-anchor="middle" x="110" y="-198" font-family="Helvetica,sans-Serif" font-size="10.00">lat_in</text>
<text text-anchor="middle" x="110" y="-187" font-family="Helvetica,sans-Serif" font-size="10.00">wtj</text>
<text text-anchor="middle" x="110" y="-176" font-family="Helvetica,sans-Serif" font-size="10.00">...</text>
</g>
<!-- Node7 -->
<g id="node7" class="node">
<title>Node7</title>
<g id="a_node7"><a xlink:title=" ">
<polygon fill="white" stroke="#bfbfbf" points="178,-38.5 178,-57.5 283,-57.5 283,-38.5 178,-38.5"/>
<text text-anchor="middle" x="230.5" y="-45.5" font-family="Helvetica,sans-Serif" font-size="10.00">character(len=64)</text>
</a>
</g>
</g>
<!-- Node7&#45;&gt;Node1 -->
<g id="edge8" class="edge">
<title>Node7&#45;&gt;Node1</title>
<path fill="none" stroke="#9a32cd" stroke-dasharray="5,2" d="M293.16,-40.47C318.08,-40.36 346.08,-44.22 368,-58 407.04,-82.54 425.25,-139.33 431.2,-162.2"/>
<polygon fill="#9a32cd" stroke="#9a32cd" points="292.96,-36.97 283.05,-40.73 293.14,-43.97 292.96,-36.97"/>
<text text-anchor="middle" x="339" y="-72" font-family="Helvetica,sans-Serif" font-size="10.00"> field_name</text>
<text text-anchor="middle" x="339" y="-61" font-family="Helvetica,sans-Serif" font-size="10.00">file_name</text>
</g>
<!-- Node8 -->
<g id="node8" class="node">
<title>Node8</title>
<g id="a_node8"><a xlink:title=" ">
<polygon fill="white" stroke="#bfbfbf" points="171,-0.5 171,-19.5 290,-19.5 290,-0.5 171,-0.5"/>
<text text-anchor="middle" x="230.5" y="-7.5" font-family="Helvetica,sans-Serif" font-size="10.00">type(fmsnetcdffile_t)</text>
</a>
</g>
</g>
<!-- Node8&#45;&gt;Node1 -->
<g id="edge9" class="edge">
<title>Node8&#45;&gt;Node1</title>
<path fill="none" stroke="#9a32cd" stroke-dasharray="5,2" d="M300.54,-4.87C323.85,-6.39 348.81,-11.92 368,-26 414.59,-60.18 428.71,-135.2 432.37,-162.13"/>
<polygon fill="#9a32cd" stroke="#9a32cd" points="300.45,-1.37 290.32,-4.45 300.16,-8.36 300.45,-1.37"/>
<text text-anchor="middle" x="339" y="-29" font-family="Helvetica,sans-Serif" font-size="10.00"> fileobj</text>
</g>
</g>
</svg>
