<?xml version="1.0" encoding="UTF-8" standalone="no"?>
<!DOCTYPE svg PUBLIC "-//W3C//DTD SVG 1.1//EN"
 "http://www.w3.org/Graphics/SVG/1.1/DTD/svg11.dtd">
<!-- Generated by graphviz version 2.43.0 (0)
 -->
<!-- Title: diag_global_grid_type Pages: 1 -->
<svg width="292pt" height="205pt"
 viewBox="0.00 0.00 291.50 205.00" xmlns="http://www.w3.org/2000/svg" xmlns:xlink="http://www.w3.org/1999/xlink">
<g id="graph0" class="graph" transform="scale(1 1) rotate(0) translate(4 201)">
<title>diag_global_grid_type</title>
<polygon fill="white" stroke="transparent" points="-4,4 -4,-201 287.5,-201 287.5,4 -4,4"/>
<!-- Node1 -->
<g id="node1" class="node">
<title>Node1</title>
<g id="a_node1"><a xlink:title="Private type to hold the model&#39;s global grid data, and other grid information for use in this module.">
<polygon fill="#bfbfbf" stroke="black" points="92.5,-0.5 92.5,-19.5 216.5,-19.5 216.5,-0.5 92.5,-0.5"/>
<text text-anchor="middle" x="154.5" y="-7.5" font-family="Helvetica,sans-Serif" font-size="10.00">diag_global_grid_type</text>
</a>
</g>
</g>
<!-- Node2 -->
<g id="node2" class="node">
<title>Node2</title>
<g id="a_node2"><a xlink:title=" ">
<polygon fill="white" stroke="#bfbfbf" points="0,-177.5 0,-196.5 111,-196.5 111,-177.5 0,-177.5"/>
<text text-anchor="middle" x="55.5" y="-184.5" font-family="Helvetica,sans-Serif" font-size="10.00">character(len=128)</text>
</a>
</g>
</g>
<!-- Node2&#45;&gt;Node1 -->
<g id="edge1" class="edge">
<title>Node2&#45;&gt;Node1</title>
<path fill="none" stroke="#9a32cd" stroke-dasharray="5,2" d="M56.73,-167.1C59.65,-136.61 69.36,-76.12 101.5,-38 108.42,-29.79 118.47,-23.79 127.96,-19.57"/>
<polygon fill="#9a32cd" stroke="#9a32cd" points="53.23,-166.96 55.92,-177.21 60.21,-167.53 53.23,-166.96"/>
<text text-anchor="middle" x="126" y="-96" font-family="Helvetica,sans-Serif" font-size="10.00"> grid_type</text>
</g>
<!-- Node3 -->
<g id="node3" class="node">
<title>Node3</title>
<g id="a_node3"><a xlink:title=" ">
<polygon fill="white" stroke="#bfbfbf" points="129,-177.5 129,-196.5 180,-196.5 180,-177.5 129,-177.5"/>
<text text-anchor="middle" x="154.5" y="-184.5" font-family="Helvetica,sans-Serif" font-size="10.00">integer</text>
</a>
</g>
</g>
<!-- Node3&#45;&gt;Node1 -->
<g id="edge2" class="edge">
<title>Node3&#45;&gt;Node1</title>
<path fill="none" stroke="#9a32cd" stroke-dasharray="5,2" d="M154.5,-166.95C154.5,-129.3 154.5,-46.65 154.5,-19.69"/>
<polygon fill="#9a32cd" stroke="#9a32cd" points="151,-167.08 154.5,-177.08 158,-167.08 151,-167.08"/>
<text text-anchor="middle" x="184" y="-151" font-family="Helvetica,sans-Serif" font-size="10.00"> adimi</text>
<text text-anchor="middle" x="184" y="-140" font-family="Helvetica,sans-Serif" font-size="10.00">adimj</text>
<text text-anchor="middle" x="184" y="-129" font-family="Helvetica,sans-Serif" font-size="10.00">dimi</text>
<text text-anchor="middle" x="184" y="-118" font-family="Helvetica,sans-Serif" font-size="10.00">dimj</text>
<text text-anchor="middle" x="184" y="-107" font-family="Helvetica,sans-Serif" font-size="10.00">myxbegin</text>
<text text-anchor="middle" x="184" y="-96" font-family="Helvetica,sans-Serif" font-size="10.00">myybegin</text>
<text text-anchor="middle" x="184" y="-85" font-family="Helvetica,sans-Serif" font-size="10.00">ntiles</text>
<text text-anchor="middle" x="184" y="-74" font-family="Helvetica,sans-Serif" font-size="10.00">peend</text>
<text text-anchor="middle" x="184" y="-63" font-family="Helvetica,sans-Serif" font-size="10.00">pestart</text>
<text text-anchor="middle" x="184" y="-52" font-family="Helvetica,sans-Serif" font-size="10.00">tile_number</text>
<text text-anchor="middle" x="184" y="-41" font-family="Helvetica,sans-Serif" font-size="10.00">...</text>
</g>
<!-- Node4 -->
<g id="node4" class="node">
<title>Node4</title>
<g id="a_node4"><a xlink:title=" ">
<polygon fill="white" stroke="#bfbfbf" points="219,-177.5 219,-196.5 254,-196.5 254,-177.5 219,-177.5"/>
<text text-anchor="middle" x="236.5" y="-184.5" font-family="Helvetica,sans-Serif" font-size="10.00">real</text>
</a>
</g>
</g>
<!-- Node4&#45;&gt;Node1 -->
<g id="edge3" class="edge">
<title>Node4&#45;&gt;Node1</title>
<path fill="none" stroke="#9a32cd" stroke-dasharray="5,2" d="M239.04,-167.17C242.07,-136.76 243.55,-76.39 214.5,-38 208.09,-29.53 198.42,-23.65 188.7,-19.6"/>
<polygon fill="#9a32cd" stroke="#9a32cd" points="235.54,-166.91 237.86,-177.24 242.5,-167.72 235.54,-166.91"/>
<text text-anchor="middle" x="262" y="-112.5" font-family="Helvetica,sans-Serif" font-size="10.00"> aglo_lat</text>
<text text-anchor="middle" x="262" y="-101.5" font-family="Helvetica,sans-Serif" font-size="10.00">aglo_lon</text>
<text text-anchor="middle" x="262" y="-90.5" font-family="Helvetica,sans-Serif" font-size="10.00">glo_lat</text>
<text text-anchor="middle" x="262" y="-79.5" font-family="Helvetica,sans-Serif" font-size="10.00">glo_lon</text>
</g>
</g>
</svg>
