<?xml version="1.0" encoding="UTF-8" standalone="no"?>
<!DOCTYPE svg PUBLIC "-//W3C//DTD SVG 1.1//EN"
 "http://www.w3.org/Graphics/SVG/1.1/DTD/svg11.dtd">
<!-- Generated by graphviz version 2.43.0 (0)
 -->
<!-- Title: domaincommunicator2d Pages: 1 -->
<!--zoomable 1053 -->
<svg id="main" version="1.1" xmlns="http://www.w3.org/2000/svg" xmlns:xlink="http://www.w3.org/1999/xlink" xml:space="preserve" onload="init(evt)">
<style type="text/css"><![CDATA[
.edge:hover path { stroke: red; }
.edge:hover polygon { stroke: red; fill: red; }
]]></style>
<script type="text/javascript"><![CDATA[
var edges = document.getElementsByTagName('g');
if (edges && edges.length) {
  for (var i=0;i<edges.length;i++) {
    if (edges[i].id.substr(0,4)=='edge') {
      edges[i].setAttribute('class','edge');
    }
  }
}
]]></script>
        <defs>
                <circle id="rim" cx="0" cy="0" r="7"/>
                <circle id="rim2" cx="0" cy="0" r="3.5"/>
                <g id="zoomPlus">
                        <use xlink:href="#rim" fill="#404040">
                                <set attributeName="fill" to="#808080" begin="zoomplus.mouseover" end="zoomplus.mouseout"/>
                        </use>
                        <path d="M-4,0h8M0,-4v8" fill="none" stroke="white" stroke-width="1.5" pointer-events="none"/>
                </g>
                <g id="zoomMin">
                        <use xlink:href="#rim" fill="#404040">
                                <set attributeName="fill" to="#808080" begin="zoomminus.mouseover" end="zoomminus.mouseout"/>
                        </use>
                        <path d="M-4,0h8" fill="none" stroke="white" stroke-width="1.5" pointer-events="none"/>
                </g>
                <g id="dirArrow">
                        <path fill="none" stroke="white" stroke-width="1.5" d="M0,-3.0v7 M-2.5,-0.5L0,-3.0L2.5,-0.5"/>
                </g>
               <g id="resetDef">
                       <use xlink:href="#rim2" fill="#404040">
                               <set attributeName="fill" to="#808080" begin="reset.mouseover" end="reset.mouseout"/>
                       </use>
               </g>
        </defs>

<script type="text/javascript">
var viewWidth = 848;
var viewHeight = 1053;
var sectionId = 'dynsection-6';
</script>
<script xlink:href="svgpan.js"/>
<svg id="graph" class="graph">
<g id="viewport">
<title>domaincommunicator2d</title>
<polygon fill="white" stroke="transparent" points="-4,4 -4,-1049 844.28,-1049 844.28,4 -4,4"/>
<!-- Node1 -->
<g id="node1" class="node">
<title>Node1</title>
<g id="a_node1"><a xlink:title="Used for sending domain data between pe&#39;s.">
<polygon fill="#bfbfbf" stroke="black" points="312.28,-0.5 312.28,-19.5 448.28,-19.5 448.28,-0.5 312.28,-0.5"/>
<text text-anchor="middle" x="380.28" y="-7.5" font-family="Helvetica,sans-Serif" font-size="10.00">domaincommunicator2d</text>
</a>
</g>
</g>
<!-- Node2 -->
<g id="node2" class="node">
<title>Node2</title>
<g id="a_node2"><a xlink:title=" ">
<polygon fill="white" stroke="#bfbfbf" points="59.78,-1025.5 59.78,-1044.5 108.78,-1044.5 108.78,-1025.5 59.78,-1025.5"/>
<text text-anchor="middle" x="84.28" y="-1032.5" font-family="Helvetica,sans-Serif" font-size="10.00">logical</text>
</a>
</g>
</g>
<!-- Node2&#45;&gt;Node1 -->
<g id="edge1" class="edge">
<title>Node2&#45;&gt;Node1</title>
<path fill="none" stroke="#9a32cd" stroke-dasharray="5,2" d="M58.48,-1019.59C53.85,-1016.01 49.49,-1011.79 46.28,-1007 -4.14,-931.77 0.28,-899.06 0.28,-808.5 0.28,-808.5 0.28,-808.5 0.28,-148.5 0.28,-80.71 216.82,-36.91 322.97,-19.51"/>
<polygon fill="#9a32cd" stroke="#9a32cd" points="56.68,-1022.6 66.91,-1025.37 60.64,-1016.83 56.68,-1022.6"/>
<text text-anchor="middle" x="26.28" y="-476" font-family="Helvetica,sans-Serif" font-size="10.00"> initialized</text>
<text text-anchor="middle" x="26.28" y="-465" font-family="Helvetica,sans-Serif" font-size="10.00">r_do_buf</text>
<text text-anchor="middle" x="26.28" y="-454" font-family="Helvetica,sans-Serif" font-size="10.00">s_do_buf</text>
</g>
<!-- Node4 -->
<g id="node4" class="node">
<title>Node4</title>
<g id="a_node4"><a xlink:href="group__mpp__domains__mod.html#structmpp__domains__mod_1_1domain2d" target="_top" xlink:title="The domain2D type contains all the necessary information to define the global, compute and data domai...">
<polygon fill="white" stroke="black" points="347.78,-140 347.78,-159 412.78,-159 412.78,-140 347.78,-140"/>
<text text-anchor="middle" x="380.28" y="-147" font-family="Helvetica,sans-Serif" font-size="10.00">domain2d</text>
</a>
</g>
</g>
<!-- Node2&#45;&gt;Node4 -->
<g id="edge4" class="edge">
<title>Node2&#45;&gt;Node4</title>
<path fill="none" stroke="#9a32cd" stroke-dasharray="5,2" d="M76.61,-1015.63C75.67,-1012.78 74.85,-1009.84 74.28,-1007 33.97,-806.02 11.19,-745.02 60.28,-546 68.63,-512.13 182.83,-293.84 206.28,-268 228.06,-243.99 238.92,-243.72 267.28,-228 283.97,-218.74 290.05,-220.06 306.28,-210 331.22,-194.54 357.25,-171.81 370.8,-159.4"/>
<polygon fill="#9a32cd" stroke="#9a32cd" points="73.41,-1017.08 80.22,-1025.21 79.96,-1014.61 73.41,-1017.08"/>
<text text-anchor="middle" x="96.28" y="-615" font-family="Helvetica,sans-Serif" font-size="10.00"> initialized</text>
<text text-anchor="middle" x="96.28" y="-604" font-family="Helvetica,sans-Serif" font-size="10.00">rotated_ninety</text>
<text text-anchor="middle" x="96.28" y="-593" font-family="Helvetica,sans-Serif" font-size="10.00">symmetry</text>
</g>
<!-- Node5 -->
<g id="node5" class="node">
<title>Node5</title>
<g id="a_node5"><a xlink:href="group__mpp__domains__mod.html#structmpp__domains__mod_1_1domain1d" target="_top" xlink:title="One dimensional domain used to manage shared data access between pes.">
<polygon fill="white" stroke="black" points="141.78,-597 141.78,-616 206.78,-616 206.78,-597 141.78,-597"/>
<text text-anchor="middle" x="174.28" y="-604" font-family="Helvetica,sans-Serif" font-size="10.00">domain1d</text>
</a>
</g>
</g>
<!-- Node2&#45;&gt;Node5 -->
<g id="edge6" class="edge">
<title>Node2&#45;&gt;Node5</title>
<path fill="none" stroke="#9a32cd" stroke-dasharray="5,2" d="M82.35,-1015.23C78.19,-968.73 70.8,-844.85 98.28,-747 113.41,-693.1 152.33,-636.96 167.8,-616.03"/>
<polygon fill="#9a32cd" stroke="#9a32cd" points="78.88,-1015.7 83.32,-1025.33 85.85,-1015.04 78.88,-1015.7"/>
<text text-anchor="middle" x="113.78" y="-805" font-family="Helvetica,sans-Serif" font-size="10.00"> cyclic</text>
</g>
<!-- Node6 -->
<g id="node6" class="node">
<title>Node6</title>
<g id="a_node6"><a xlink:href="group__mpp__domains__mod.html#structmpp__domains__mod_1_1domain__axis__spec" target="_top" xlink:title="Used to specify index limits along an axis of a domain.">
<polygon fill="white" stroke="black" points="206.78,-798 206.78,-817 313.78,-817 313.78,-798 206.78,-798"/>
<text text-anchor="middle" x="260.28" y="-805" font-family="Helvetica,sans-Serif" font-size="10.00">domain_axis_spec</text>
</a>
</g>
</g>
<!-- Node2&#45;&gt;Node6 -->
<g id="edge9" class="edge">
<title>Node2&#45;&gt;Node6</title>
<path fill="none" stroke="#9a32cd" stroke-dasharray="5,2" d="M97.29,-1017.32C132.29,-972.49 227.49,-850.51 253.58,-817.07"/>
<polygon fill="#9a32cd" stroke="#9a32cd" points="94.35,-1015.4 90.96,-1025.44 99.87,-1019.71 94.35,-1015.4"/>
<text text-anchor="middle" x="222.78" y="-944" font-family="Helvetica,sans-Serif" font-size="10.00"> is_global</text>
</g>
<!-- Node9 -->
<g id="node9" class="node">
<title>Node9</title>
<g id="a_node9"><a xlink:href="group__mpp__domains__mod.html#structmpp__domains__mod_1_1overlap__type" target="_top" xlink:title="Type for overlapping data.">
<polygon fill="white" stroke="black" points="508.28,-798 508.28,-817 588.28,-817 588.28,-798 508.28,-798"/>
<text text-anchor="middle" x="548.28" y="-805" font-family="Helvetica,sans-Serif" font-size="10.00">overlap_type</text>
</a>
</g>
</g>
<!-- Node2&#45;&gt;Node9 -->
<g id="edge16" class="edge">
<title>Node2&#45;&gt;Node9</title>
<path fill="none" stroke="#9a32cd" stroke-dasharray="5,2" d="M119.38,-1034.17C180.82,-1033.85 304.72,-1030.24 340.28,-1007 392.1,-973.14 365.29,-929.56 409.28,-886 443.24,-852.36 494.78,-828.8 524.63,-817.05"/>
<polygon fill="#9a32cd" stroke="#9a32cd" points="119.01,-1030.67 109.02,-1034.2 119.03,-1037.67 119.01,-1030.67"/>
<text text-anchor="middle" x="443.28" y="-944" font-family="Helvetica,sans-Serif" font-size="10.00"> from_contact</text>
</g>
<!-- Node3 -->
<g id="node3" class="node">
<title>Node3</title>
<g id="a_node3"><a xlink:title=" ">
<polygon fill="white" stroke="#bfbfbf" points="28.28,-319 28.28,-338 122.28,-338 122.28,-319 28.28,-319"/>
<text text-anchor="middle" x="75.28" y="-326" font-family="Helvetica,sans-Serif" font-size="10.00">integer(i8_kind)</text>
</a>
</g>
</g>
<!-- Node3&#45;&gt;Node1 -->
<g id="edge2" class="edge">
<title>Node3&#45;&gt;Node1</title>
<path fill="none" stroke="#9a32cd" stroke-dasharray="5,2" d="M76.8,-308.81C79.28,-287.65 85.73,-252.89 102.28,-228 172.93,-121.68 312.9,-44.6 362.41,-19.66"/>
<polygon fill="#9a32cd" stroke="#9a32cd" points="73.32,-308.46 75.81,-318.76 80.28,-309.16 73.32,-308.46"/>
<text text-anchor="middle" x="274.28" y="-202" font-family="Helvetica,sans-Serif" font-size="10.00"> id</text>
<text text-anchor="middle" x="274.28" y="-191" font-family="Helvetica,sans-Serif" font-size="10.00">l_addr</text>
<text text-anchor="middle" x="274.28" y="-180" font-family="Helvetica,sans-Serif" font-size="10.00">l_addrx</text>
<text text-anchor="middle" x="274.28" y="-169" font-family="Helvetica,sans-Serif" font-size="10.00">l_addry</text>
<text text-anchor="middle" x="274.28" y="-158" font-family="Helvetica,sans-Serif" font-size="10.00">rem_addr</text>
<text text-anchor="middle" x="274.28" y="-147" font-family="Helvetica,sans-Serif" font-size="10.00">rem_addrl</text>
<text text-anchor="middle" x="274.28" y="-136" font-family="Helvetica,sans-Serif" font-size="10.00">rem_addrlx</text>
<text text-anchor="middle" x="274.28" y="-125" font-family="Helvetica,sans-Serif" font-size="10.00">rem_addrly</text>
<text text-anchor="middle" x="274.28" y="-114" font-family="Helvetica,sans-Serif" font-size="10.00">rem_addrx</text>
<text text-anchor="middle" x="274.28" y="-103" font-family="Helvetica,sans-Serif" font-size="10.00">rem_addry</text>
<text text-anchor="middle" x="274.28" y="-92" font-family="Helvetica,sans-Serif" font-size="10.00">...</text>
</g>
<!-- Node3&#45;&gt;Node4 -->
<g id="edge12" class="edge">
<title>Node3&#45;&gt;Node4</title>
<path fill="none" stroke="#9a32cd" stroke-dasharray="5,2" d="M79.38,-308.96C85.29,-286.58 98.33,-249.32 123.28,-228 189,-171.84 294.41,-156.38 347.49,-152.12"/>
<polygon fill="#9a32cd" stroke="#9a32cd" points="75.93,-308.33 76.98,-318.88 82.73,-309.98 75.93,-308.33"/>
<text text-anchor="middle" x="129.78" y="-236.5" font-family="Helvetica,sans-Serif" font-size="10.00"> id</text>
</g>
<!-- Node4&#45;&gt;Node1 -->
<g id="edge3" class="edge">
<title>Node4&#45;&gt;Node1</title>
<path fill="none" stroke="#9a32cd" stroke-dasharray="5,2" d="M380.28,-129.86C380.28,-99.73 380.28,-41.49 380.28,-19.6"/>
<polygon fill="#9a32cd" stroke="#9a32cd" points="376.78,-129.9 380.28,-139.9 383.78,-129.9 376.78,-129.9"/>
<text text-anchor="middle" x="409.28" y="-63" font-family="Helvetica,sans-Serif" font-size="10.00"> domain</text>
<text text-anchor="middle" x="409.28" y="-52" font-family="Helvetica,sans-Serif" font-size="10.00">domain_in</text>
<text text-anchor="middle" x="409.28" y="-41" font-family="Helvetica,sans-Serif" font-size="10.00">domain_out</text>
</g>
<!-- Node4&#45;&gt;Node4 -->
<g id="edge13" class="edge">
<title>Node4&#45;&gt;Node4</title>
<path fill="none" stroke="#9a32cd" stroke-dasharray="5,2" d="M400,-163.88C415.24,-169.24 430.78,-164.45 430.78,-149.5 430.78,-131.45 408.12,-128.21 390.69,-139.77"/>
<polygon fill="#9a32cd" stroke="#9a32cd" points="401.2,-160.56 390.69,-159.23 398.07,-166.83 401.2,-160.56"/>
<text text-anchor="middle" x="458.28" y="-147" font-family="Helvetica,sans-Serif" font-size="10.00"> io_domain</text>
</g>
<!-- Node5&#45;&gt;Node4 -->
<g id="edge5" class="edge">
<title>Node5&#45;&gt;Node4</title>
<path fill="none" stroke="#9a32cd" stroke-dasharray="5,2" d="M175.34,-586.72C179.08,-533.3 195.08,-377.34 258.28,-268 286.82,-218.61 342.17,-176.6 367.3,-159.15"/>
<polygon fill="#9a32cd" stroke="#9a32cd" points="171.84,-586.56 174.7,-596.76 178.83,-587 171.84,-586.56"/>
<text text-anchor="middle" x="263.28" y="-331.5" font-family="Helvetica,sans-Serif" font-size="10.00"> x</text>
<text text-anchor="middle" x="263.28" y="-320.5" font-family="Helvetica,sans-Serif" font-size="10.00">y</text>
</g>
<!-- Node5&#45;&gt;Node5 -->
<g id="edge7" class="edge">
<title>Node5&#45;&gt;Node5</title>
<path fill="none" stroke="#9a32cd" stroke-dasharray="5,2" d="M191.81,-621.88C207.71,-629.43 224.78,-624.3 224.78,-606.5 224.78,-585.41 200.81,-582.11 183.21,-596.61"/>
<polygon fill="#9a32cd" stroke="#9a32cd" points="193.52,-618.82 183.21,-616.39 189.75,-624.72 193.52,-618.82"/>
<text text-anchor="middle" x="234.28" y="-604" font-family="Helvetica,sans-Serif" font-size="10.00"> list</text>
</g>
<!-- Node6&#45;&gt;Node5 -->
<g id="edge8" class="edge">
<title>Node6&#45;&gt;Node5</title>
<path fill="none" stroke="#9a32cd" stroke-dasharray="5,2" d="M252.54,-788.6C234.69,-747.29 191.14,-646.52 178.05,-616.24"/>
<polygon fill="#9a32cd" stroke="#9a32cd" points="249.4,-790.16 256.58,-797.95 255.83,-787.38 249.4,-790.16"/>
<text text-anchor="middle" x="248.28" y="-721" font-family="Helvetica,sans-Serif" font-size="10.00"> compute</text>
<text text-anchor="middle" x="248.28" y="-710" font-family="Helvetica,sans-Serif" font-size="10.00">data</text>
<text text-anchor="middle" x="248.28" y="-699" font-family="Helvetica,sans-Serif" font-size="10.00">global</text>
<text text-anchor="middle" x="248.28" y="-688" font-family="Helvetica,sans-Serif" font-size="10.00">memory</text>
</g>
<!-- Node11 -->
<g id="node11" class="node">
<title>Node11</title>
<g id="a_node11"><a xlink:href="group__mpp__domains__mod.html#structmpp__domains__mod_1_1domain1d__spec" target="_top" xlink:title="A private type used to specify index limits for a domain decomposition.">
<polygon fill="white" stroke="black" points="265.78,-597 265.78,-616 358.78,-616 358.78,-597 265.78,-597"/>
<text text-anchor="middle" x="312.28" y="-604" font-family="Helvetica,sans-Serif" font-size="10.00">domain1d_spec</text>
</a>
</g>
</g>
<!-- Node6&#45;&gt;Node11 -->
<g id="edge22" class="edge">
<title>Node6&#45;&gt;Node11</title>
<path fill="none" stroke="#9a32cd" stroke-dasharray="5,2" d="M264.6,-788.14C270.26,-764.3 280.61,-721.44 290.28,-685 296.95,-659.86 305.54,-630.34 309.74,-616.07"/>
<polygon fill="#9a32cd" stroke="#9a32cd" points="261.18,-787.39 262.28,-797.93 267.99,-789 261.18,-787.39"/>
<text text-anchor="middle" x="313.28" y="-710" font-family="Helvetica,sans-Serif" font-size="10.00"> compute</text>
<text text-anchor="middle" x="313.28" y="-699" font-family="Helvetica,sans-Serif" font-size="10.00">global</text>
</g>
<!-- Node7 -->
<g id="node7" class="node">
<title>Node7</title>
<g id="a_node7"><a xlink:title=" ">
<polygon fill="white" stroke="#bfbfbf" points="473.78,-1025.5 473.78,-1044.5 524.78,-1044.5 524.78,-1025.5 473.78,-1025.5"/>
<text text-anchor="middle" x="499.28" y="-1032.5" font-family="Helvetica,sans-Serif" font-size="10.00">integer</text>
</a>
</g>
</g>
<!-- Node7&#45;&gt;Node1 -->
<g id="edge30" class="edge">
<title>Node7&#45;&gt;Node1</title>
<path fill="none" stroke="#9a32cd" stroke-dasharray="5,2" d="M535.22,-1032.17C580.17,-1029.27 653.96,-1022.28 676.28,-1007 760.22,-949.52 790.28,-910.24 790.28,-808.5 790.28,-808.5 790.28,-808.5 790.28,-148.5 790.28,-77.27 565.02,-36.09 448.44,-19.55"/>
<polygon fill="#9a32cd" stroke="#9a32cd" points="534.77,-1028.69 525,-1032.79 535.2,-1035.68 534.77,-1028.69"/>
<text text-anchor="middle" x="815.28" y="-520" font-family="Helvetica,sans-Serif" font-size="10.00"> cfrom_pe</text>
<text text-anchor="middle" x="815.28" y="-509" font-family="Helvetica,sans-Serif" font-size="10.00">cto_pe</text>
<text text-anchor="middle" x="815.28" y="-498" font-family="Helvetica,sans-Serif" font-size="10.00">gf_ioff</text>
<text text-anchor="middle" x="815.28" y="-487" font-family="Helvetica,sans-Serif" font-size="10.00">gf_joff</text>
<text text-anchor="middle" x="815.28" y="-476" font-family="Helvetica,sans-Serif" font-size="10.00">isize</text>
<text text-anchor="middle" x="815.28" y="-465" font-family="Helvetica,sans-Serif" font-size="10.00">isize_in</text>
<text text-anchor="middle" x="815.28" y="-454" font-family="Helvetica,sans-Serif" font-size="10.00">isize_max</text>
<text text-anchor="middle" x="815.28" y="-443" font-family="Helvetica,sans-Serif" font-size="10.00">isize_out</text>
<text text-anchor="middle" x="815.28" y="-432" font-family="Helvetica,sans-Serif" font-size="10.00">isizer</text>
<text text-anchor="middle" x="815.28" y="-421" font-family="Helvetica,sans-Serif" font-size="10.00">jsize</text>
<text text-anchor="middle" x="815.28" y="-410" font-family="Helvetica,sans-Serif" font-size="10.00">...</text>
</g>
<!-- Node7&#45;&gt;Node4 -->
<g id="edge27" class="edge">
<title>Node7&#45;&gt;Node4</title>
<path fill="none" stroke="#9a32cd" stroke-dasharray="5,2" d="M534.86,-1030.71C568.95,-1026.87 617.21,-1019.42 631.28,-1007 700.77,-945.65 695.28,-901.19 695.28,-808.5 695.28,-808.5 695.28,-808.5 695.28,-327.5 695.28,-280.16 692.25,-259.9 657.28,-228 587.54,-164.4 469.79,-152.47 412.94,-150.58"/>
<polygon fill="#9a32cd" stroke="#9a32cd" points="534.37,-1027.24 524.8,-1031.79 535.11,-1034.2 534.37,-1027.24"/>
<text text-anchor="middle" x="728.78" y="-659" font-family="Helvetica,sans-Serif" font-size="10.00"> ehalo</text>
<text text-anchor="middle" x="728.78" y="-648" font-family="Helvetica,sans-Serif" font-size="10.00">fold</text>
<text text-anchor="middle" x="728.78" y="-637" font-family="Helvetica,sans-Serif" font-size="10.00">io_layout</text>
<text text-anchor="middle" x="728.78" y="-626" font-family="Helvetica,sans-Serif" font-size="10.00">max_ntile_pe</text>
<text text-anchor="middle" x="728.78" y="-615" font-family="Helvetica,sans-Serif" font-size="10.00">ncontacts</text>
<text text-anchor="middle" x="728.78" y="-604" font-family="Helvetica,sans-Serif" font-size="10.00">nhalo</text>
<text text-anchor="middle" x="728.78" y="-593" font-family="Helvetica,sans-Serif" font-size="10.00">ntiles</text>
<text text-anchor="middle" x="728.78" y="-582" font-family="Helvetica,sans-Serif" font-size="10.00">pe</text>
<text text-anchor="middle" x="728.78" y="-571" font-family="Helvetica,sans-Serif" font-size="10.00">pearray</text>
<text text-anchor="middle" x="728.78" y="-560" font-family="Helvetica,sans-Serif" font-size="10.00">pos</text>
<text text-anchor="middle" x="728.78" y="-549" font-family="Helvetica,sans-Serif" font-size="10.00">...</text>
</g>
<!-- Node7&#45;&gt;Node5 -->
<g id="edge11" class="edge">
<title>Node7&#45;&gt;Node5</title>
<path fill="none" stroke="#9a32cd" stroke-dasharray="5,2" d="M463.45,-1033.95C402.66,-1033.25 282.46,-1029.02 247.28,-1007 185.49,-968.34 180.39,-938.05 160.28,-868 145.43,-816.31 157.59,-800.71 160.28,-747 162.76,-697.41 170.17,-638.27 173.08,-616.29"/>
<polygon fill="#9a32cd" stroke="#9a32cd" points="463.7,-1037.45 473.73,-1034.04 463.76,-1030.45 463.7,-1037.45"/>
<text text-anchor="middle" x="178.78" y="-821.5" font-family="Helvetica,sans-Serif" font-size="10.00"> goffset</text>
<text text-anchor="middle" x="178.78" y="-810.5" font-family="Helvetica,sans-Serif" font-size="10.00">loffset</text>
<text text-anchor="middle" x="178.78" y="-799.5" font-family="Helvetica,sans-Serif" font-size="10.00">pe</text>
<text text-anchor="middle" x="178.78" y="-788.5" font-family="Helvetica,sans-Serif" font-size="10.00">pos</text>
</g>
<!-- Node7&#45;&gt;Node6 -->
<g id="edge10" class="edge">
<title>Node7&#45;&gt;Node6</title>
<path fill="none" stroke="#9a32cd" stroke-dasharray="5,2" d="M463.47,-1034.42C410.07,-1034.24 313.24,-1030.55 289.28,-1007 235.38,-954.02 252.02,-848.23 258.34,-817.23"/>
<polygon fill="#9a32cd" stroke="#9a32cd" points="463.54,-1037.92 473.54,-1034.41 463.54,-1030.92 463.54,-1037.92"/>
<text text-anchor="middle" x="312.78" y="-960.5" font-family="Helvetica,sans-Serif" font-size="10.00"> begin</text>
<text text-anchor="middle" x="312.78" y="-949.5" font-family="Helvetica,sans-Serif" font-size="10.00">end</text>
<text text-anchor="middle" x="312.78" y="-938.5" font-family="Helvetica,sans-Serif" font-size="10.00">max_size</text>
<text text-anchor="middle" x="312.78" y="-927.5" font-family="Helvetica,sans-Serif" font-size="10.00">size</text>
</g>
<!-- Node8 -->
<g id="node8" class="node">
<title>Node8</title>
<g id="a_node8"><a xlink:href="group__mpp__domains__mod.html#structmpp__domains__mod_1_1overlapspec" target="_top" xlink:title="Private type for overlap specifications.">
<polygon fill="white" stroke="black" points="545.28,-458 545.28,-477 621.28,-477 621.28,-458 545.28,-458"/>
<text text-anchor="middle" x="583.28" y="-465" font-family="Helvetica,sans-Serif" font-size="10.00">overlapspec</text>
</a>
</g>
</g>
<!-- Node7&#45;&gt;Node8 -->
<g id="edge19" class="edge">
<title>Node7&#45;&gt;Node8</title>
<path fill="none" stroke="#9a32cd" stroke-dasharray="5,2" d="M534.73,-1029.56C561.74,-1025.36 595.71,-1018.05 604.28,-1007 671.64,-920.12 597.63,-538.97 585.04,-477.02"/>
<polygon fill="#9a32cd" stroke="#9a32cd" points="534.17,-1026.1 524.78,-1031.02 535.18,-1033.03 534.17,-1026.1"/>
<text text-anchor="middle" x="652.78" y="-860" font-family="Helvetica,sans-Serif" font-size="10.00"> ehalo</text>
<text text-anchor="middle" x="652.78" y="-849" font-family="Helvetica,sans-Serif" font-size="10.00">nhalo</text>
<text text-anchor="middle" x="652.78" y="-838" font-family="Helvetica,sans-Serif" font-size="10.00">nrecv</text>
<text text-anchor="middle" x="652.78" y="-827" font-family="Helvetica,sans-Serif" font-size="10.00">nsend</text>
<text text-anchor="middle" x="652.78" y="-816" font-family="Helvetica,sans-Serif" font-size="10.00">recvsize</text>
<text text-anchor="middle" x="652.78" y="-805" font-family="Helvetica,sans-Serif" font-size="10.00">sendsize</text>
<text text-anchor="middle" x="652.78" y="-794" font-family="Helvetica,sans-Serif" font-size="10.00">shalo</text>
<text text-anchor="middle" x="652.78" y="-783" font-family="Helvetica,sans-Serif" font-size="10.00">whalo</text>
<text text-anchor="middle" x="652.78" y="-772" font-family="Helvetica,sans-Serif" font-size="10.00">xbegin</text>
<text text-anchor="middle" x="652.78" y="-761" font-family="Helvetica,sans-Serif" font-size="10.00">xend</text>
<text text-anchor="middle" x="652.78" y="-750" font-family="Helvetica,sans-Serif" font-size="10.00">...</text>
</g>
<!-- Node7&#45;&gt;Node9 -->
<g id="edge17" class="edge">
<title>Node7&#45;&gt;Node9</title>
<path fill="none" stroke="#9a32cd" stroke-dasharray="5,2" d="M526.54,-1019.35C530.8,-1015.86 534.66,-1011.75 537.28,-1007 573.13,-942.03 556.52,-846.18 550.28,-817.14"/>
<polygon fill="#9a32cd" stroke="#9a32cd" points="524.25,-1016.68 518.06,-1025.28 528.26,-1022.42 524.25,-1016.68"/>
<text text-anchor="middle" x="579.78" y="-999" font-family="Helvetica,sans-Serif" font-size="10.00"> count</text>
<text text-anchor="middle" x="579.78" y="-988" font-family="Helvetica,sans-Serif" font-size="10.00">dir</text>
<text text-anchor="middle" x="579.78" y="-977" font-family="Helvetica,sans-Serif" font-size="10.00">ie</text>
<text text-anchor="middle" x="579.78" y="-966" font-family="Helvetica,sans-Serif" font-size="10.00">index</text>
<text text-anchor="middle" x="579.78" y="-955" font-family="Helvetica,sans-Serif" font-size="10.00">is</text>
<text text-anchor="middle" x="579.78" y="-944" font-family="Helvetica,sans-Serif" font-size="10.00">je</text>
<text text-anchor="middle" x="579.78" y="-933" font-family="Helvetica,sans-Serif" font-size="10.00">js</text>
<text text-anchor="middle" x="579.78" y="-922" font-family="Helvetica,sans-Serif" font-size="10.00">msgsize</text>
<text text-anchor="middle" x="579.78" y="-911" font-family="Helvetica,sans-Serif" font-size="10.00">pe</text>
<text text-anchor="middle" x="579.78" y="-900" font-family="Helvetica,sans-Serif" font-size="10.00">rotation</text>
<text text-anchor="middle" x="579.78" y="-889" font-family="Helvetica,sans-Serif" font-size="10.00">...</text>
</g>
<!-- Node10 -->
<g id="node10" class="node">
<title>Node10</title>
<g id="a_node10"><a xlink:href="group__mpp__domains__mod.html#structmpp__domains__mod_1_1domain2d__spec" target="_top" xlink:title="Private type to specify multiple index limits and pe information for a 2D domain.">
<polygon fill="white" stroke="black" points="277.78,-319 277.78,-338 370.78,-338 370.78,-319 277.78,-319"/>
<text text-anchor="middle" x="324.28" y="-326" font-family="Helvetica,sans-Serif" font-size="10.00">domain2d_spec</text>
</a>
</g>
</g>
<!-- Node7&#45;&gt;Node10 -->
<g id="edge24" class="edge">
<title>Node7&#45;&gt;Node10</title>
<path fill="none" stroke="#9a32cd" stroke-dasharray="5,2" d="M463.68,-1029.88C435.27,-1025.79 398.71,-1018.46 389.28,-1007 356.68,-967.41 373.51,-596.9 367.28,-546 357.26,-464.22 333.74,-367.1 326.46,-338.09"/>
<polygon fill="#9a32cd" stroke="#9a32cd" points="463.34,-1033.37 473.72,-1031.24 464.28,-1026.43 463.34,-1033.37"/>
<text text-anchor="middle" x="398.28" y="-721" font-family="Helvetica,sans-Serif" font-size="10.00"> pe</text>
<text text-anchor="middle" x="398.28" y="-710" font-family="Helvetica,sans-Serif" font-size="10.00">pos</text>
<text text-anchor="middle" x="398.28" y="-699" font-family="Helvetica,sans-Serif" font-size="10.00">tile_id</text>
<text text-anchor="middle" x="398.28" y="-688" font-family="Helvetica,sans-Serif" font-size="10.00">tile_root_pe</text>
</g>
<!-- Node7&#45;&gt;Node11 -->
<g id="edge23" class="edge">
<title>Node7&#45;&gt;Node11</title>
<path fill="none" stroke="#9a32cd" stroke-dasharray="5,2" d="M463.56,-1031.61C428.11,-1028.45 377.22,-1021.47 364.28,-1007 316.37,-953.48 350.09,-755.48 336.28,-685 331.29,-659.57 321.07,-630.66 315.72,-616.41"/>
<polygon fill="#9a32cd" stroke="#9a32cd" points="463.31,-1035.11 473.56,-1032.45 463.89,-1028.13 463.31,-1035.11"/>
<text text-anchor="middle" x="350.78" y="-805" font-family="Helvetica,sans-Serif" font-size="10.00"> pos</text>
</g>
<!-- Node12 -->
<g id="node12" class="node">
<title>Node12</title>
<g id="a_node12"><a xlink:href="group__mpp__domains__mod.html#structmpp__domains__mod_1_1tile__type" target="_top" xlink:title="Upper and lower x and y bounds for a tile.">
<polygon fill="white" stroke="black" points="450.78,-697.5 450.78,-716.5 509.78,-716.5 509.78,-697.5 450.78,-697.5"/>
<text text-anchor="middle" x="480.28" y="-704.5" font-family="Helvetica,sans-Serif" font-size="10.00">tile_type</text>
</a>
</g>
</g>
<!-- Node7&#45;&gt;Node12 -->
<g id="edge26" class="edge">
<title>Node7&#45;&gt;Node12</title>
<path fill="none" stroke="#9a32cd" stroke-dasharray="5,2" d="M497.07,-1015.39C496.77,-1012.58 496.5,-1009.71 496.28,-1007 486.86,-892.5 481.78,-752.86 480.56,-716.82"/>
<polygon fill="#9a32cd" stroke="#9a32cd" points="493.61,-1015.95 498.21,-1025.5 500.56,-1015.17 493.61,-1015.95"/>
<text text-anchor="middle" x="514.78" y="-960.5" font-family="Helvetica,sans-Serif" font-size="10.00"> xbegin</text>
<text text-anchor="middle" x="514.78" y="-949.5" font-family="Helvetica,sans-Serif" font-size="10.00">xend</text>
<text text-anchor="middle" x="514.78" y="-938.5" font-family="Helvetica,sans-Serif" font-size="10.00">ybegin</text>
<text text-anchor="middle" x="514.78" y="-927.5" font-family="Helvetica,sans-Serif" font-size="10.00">yend</text>
</g>
<!-- Node8&#45;&gt;Node1 -->
<g id="edge29" class="edge">
<title>Node8&#45;&gt;Node1</title>
<path fill="none" stroke="#9a32cd" stroke-dasharray="5,2" d="M598.75,-450.28C611.61,-435.6 628.95,-412.69 636.28,-389 652.16,-337.62 653.89,-318.81 636.28,-268 592.49,-141.64 553.51,-112.23 442.28,-38 430.95,-30.44 417.16,-24.19 405.46,-19.61"/>
<polygon fill="#9a32cd" stroke="#9a32cd" points="595.94,-448.17 591.8,-457.92 601.12,-452.88 595.94,-448.17"/>
<text text-anchor="middle" x="640.78" y="-242" font-family="Helvetica,sans-Serif" font-size="10.00"> recv</text>
<text text-anchor="middle" x="640.78" y="-231" font-family="Helvetica,sans-Serif" font-size="10.00">send</text>
</g>
<!-- Node8&#45;&gt;Node4 -->
<g id="edge14" class="edge">
<title>Node8&#45;&gt;Node4</title>
<path fill="none" stroke="#9a32cd" stroke-dasharray="5,2" d="M548.66,-454.15C519.49,-441.99 478.86,-420.62 455.28,-389 411.07,-329.72 437.16,-297.99 413.28,-228 404.59,-202.53 391.34,-173.64 384.58,-159.4"/>
<polygon fill="#9a32cd" stroke="#9a32cd" points="547.48,-457.45 558.07,-457.93 550.09,-450.96 547.48,-457.45"/>
<text text-anchor="middle" x="478.28" y="-381" font-family="Helvetica,sans-Serif" font-size="10.00"> bound_c</text>
<text text-anchor="middle" x="478.28" y="-370" font-family="Helvetica,sans-Serif" font-size="10.00">bound_e</text>
<text text-anchor="middle" x="478.28" y="-359" font-family="Helvetica,sans-Serif" font-size="10.00">bound_n</text>
<text text-anchor="middle" x="478.28" y="-348" font-family="Helvetica,sans-Serif" font-size="10.00">check_c</text>
<text text-anchor="middle" x="478.28" y="-337" font-family="Helvetica,sans-Serif" font-size="10.00">check_e</text>
<text text-anchor="middle" x="478.28" y="-326" font-family="Helvetica,sans-Serif" font-size="10.00">check_n</text>
<text text-anchor="middle" x="478.28" y="-315" font-family="Helvetica,sans-Serif" font-size="10.00">update_c</text>
<text text-anchor="middle" x="478.28" y="-304" font-family="Helvetica,sans-Serif" font-size="10.00">update_e</text>
<text text-anchor="middle" x="478.28" y="-293" font-family="Helvetica,sans-Serif" font-size="10.00">update_n</text>
<text text-anchor="middle" x="478.28" y="-282" font-family="Helvetica,sans-Serif" font-size="10.00">update_t</text>
<text text-anchor="middle" x="478.28" y="-271" font-family="Helvetica,sans-Serif" font-size="10.00">...</text>
</g>
<!-- Node8&#45;&gt;Node8 -->
<g id="edge18" class="edge">
<title>Node8&#45;&gt;Node8</title>
<path fill="none" stroke="#9a32cd" stroke-dasharray="5,2" d="M596.76,-484.48C615.79,-500.52 639.28,-494.87 639.28,-467.5 639.28,-436.64 609.4,-433.38 589.74,-457.74"/>
<polygon fill="#9a32cd" stroke="#9a32cd" points="599.22,-481.99 589.74,-477.26 594.2,-486.87 599.22,-481.99"/>
<text text-anchor="middle" x="651.78" y="-465" font-family="Helvetica,sans-Serif" font-size="10.00"> next</text>
</g>
<!-- Node9&#45;&gt;Node8 -->
<g id="edge15" class="edge">
<title>Node9&#45;&gt;Node8</title>
<path fill="none" stroke="#9a32cd" stroke-dasharray="5,2" d="M550.22,-787.72C556.76,-724.59 577.78,-521.55 582.38,-477.14"/>
<polygon fill="#9a32cd" stroke="#9a32cd" points="546.72,-787.5 549.18,-797.81 553.69,-788.22 546.72,-787.5"/>
<text text-anchor="middle" x="572.78" y="-710" font-family="Helvetica,sans-Serif" font-size="10.00"> recv</text>
<text text-anchor="middle" x="572.78" y="-699" font-family="Helvetica,sans-Serif" font-size="10.00">send</text>
</g>
<!-- Node10&#45;&gt;Node4 -->
<g id="edge20" class="edge">
<title>Node10&#45;&gt;Node4</title>
<path fill="none" stroke="#9a32cd" stroke-dasharray="5,2" d="M330.02,-309.34C341.89,-271.82 368.73,-186.98 377.47,-159.37"/>
<polygon fill="#9a32cd" stroke="#9a32cd" points="326.66,-308.37 326.98,-318.96 333.33,-310.48 326.66,-308.37"/>
<text text-anchor="middle" x="365.78" y="-236.5" font-family="Helvetica,sans-Serif" font-size="10.00"> list</text>
</g>
<!-- Node11&#45;&gt;Node10 -->
<g id="edge21" class="edge">
<title>Node11&#45;&gt;Node10</title>
<path fill="none" stroke="#9a32cd" stroke-dasharray="5,2" d="M313.09,-586.71C315.45,-532.43 322.22,-376.82 323.9,-338.24"/>
<polygon fill="#9a32cd" stroke="#9a32cd" points="309.59,-586.79 312.65,-596.94 316.58,-587.1 309.59,-586.79"/>
<text text-anchor="middle" x="326.28" y="-470.5" font-family="Helvetica,sans-Serif" font-size="10.00"> x</text>
<text text-anchor="middle" x="326.28" y="-459.5" font-family="Helvetica,sans-Serif" font-size="10.00">y</text>
</g>
<!-- Node12&#45;&gt;Node4 -->
<g id="edge25" class="edge">
<title>Node12&#45;&gt;Node4</title>
<path fill="none" stroke="#9a32cd" stroke-dasharray="5,2" d="M476.45,-687.11C466.55,-638.04 439.45,-502.4 419.28,-389 403.33,-299.36 386.39,-190.32 381.6,-159.18"/>
<polygon fill="#9a32cd" stroke="#9a32cd" points="473.08,-688.08 478.49,-697.19 479.94,-686.7 473.08,-688.08"/>
<text text-anchor="middle" x="462.28" y="-465" font-family="Helvetica,sans-Serif" font-size="10.00"> tilelist</text>
</g>
<!-- Node13 -->
<g id="node13" class="node">
<title>Node13</title>
<g id="a_node13"><a xlink:title=" ">
<polygon fill="white" stroke="#bfbfbf" points="509.78,-313.5 509.78,-343.5 626.78,-343.5 626.78,-313.5 509.78,-313.5"/>
<text text-anchor="start" x="517.78" y="-331.5" font-family="Helvetica,sans-Serif" font-size="10.00">character(len=name</text>
<text text-anchor="middle" x="568.28" y="-320.5" font-family="Helvetica,sans-Serif" font-size="10.00">_length)</text>
</a>
</g>
</g>
<!-- Node13&#45;&gt;Node4 -->
<g id="edge28" class="edge">
<title>Node13&#45;&gt;Node4</title>
<path fill="none" stroke="#9a32cd" stroke-dasharray="5,2" d="M545.82,-306.36C504.56,-267.51 418.29,-186.29 389.7,-159.37"/>
<polygon fill="#9a32cd" stroke="#9a32cd" points="543.53,-309.01 553.21,-313.31 548.33,-303.91 543.53,-309.01"/>
<text text-anchor="middle" x="500.78" y="-236.5" font-family="Helvetica,sans-Serif" font-size="10.00"> name</text>
</g>
</g>
</svg>
        <g id="navigator" transform="translate(0 0)" fill="#404254">
                <rect fill="#f2f5e9" fill-opacity="0.5" stroke="#606060" stroke-width=".5" x="0" y="0" width="60" height="60"/>
                <use id="zoomplus" xlink:href="#zoomPlus" x="17" y="9" onmousedown="handleZoom(evt,'in')"/>
                <use id="zoomminus" xlink:href="#zoomMin" x="42" y="9" onmousedown="handleZoom(evt,'out')"/>
                <use id="reset" xlink:href="#resetDef" x="30" y="36" onmousedown="handleReset()"/>
                <g id="arrowUp" xlink:href="#dirArrow" transform="translate(30 24)" onmousedown="handlePan(0,-1)">
                  <use xlink:href="#rim" fill="#404040">
                        <set attributeName="fill" to="#808080" begin="arrowUp.mouseover" end="arrowUp.mouseout"/>
                  </use>
                  <path fill="none" stroke="white" stroke-width="1.5" d="M0,-3.0v7 M-2.5,-0.5L0,-3.0L2.5,-0.5"/>
                </g>
                <g id="arrowRight" xlink:href="#dirArrow" transform="rotate(90) translate(36 -43)" onmousedown="handlePan(1,0)">
                  <use xlink:href="#rim" fill="#404040">
                        <set attributeName="fill" to="#808080" begin="arrowRight.mouseover" end="arrowRight.mouseout"/>
                  </use>
                  <path fill="none" stroke="white" stroke-width="1.5" d="M0,-3.0v7 M-2.5,-0.5L0,-3.0L2.5,-0.5"/>
                </g>
                <g id="arrowDown" xlink:href="#dirArrow" transform="rotate(180) translate(-30 -48)" onmousedown="handlePan(0,1)">
                  <use xlink:href="#rim" fill="#404040">
                        <set attributeName="fill" to="#808080" begin="arrowDown.mouseover" end="arrowDown.mouseout"/>
                  </use>
                  <path fill="none" stroke="white" stroke-width="1.5" d="M0,-3.0v7 M-2.5,-0.5L0,-3.0L2.5,-0.5"/>
                </g>
                <g id="arrowLeft" xlink:href="#dirArrow" transform="rotate(270) translate(-36 17)" onmousedown="handlePan(-1,0)">
                  <use xlink:href="#rim" fill="#404040">
                        <set attributeName="fill" to="#808080" begin="arrowLeft.mouseover" end="arrowLeft.mouseout"/>
                  </use>
                  <path fill="none" stroke="white" stroke-width="1.5" d="M0,-3.0v7 M-2.5,-0.5L0,-3.0L2.5,-0.5"/>
                </g>
        </g>
        <svg viewBox="0 0 15 15" width="100%" height="30px" preserveAspectRatio="xMaxYMin meet">
         <g id="arrow_out" transform="scale(0.3 0.3)">
          <a xlink:href="structmpp__domains__mod_1_1domaincommunicator2d__coll__graph_org.svg" target="_base">
           <rect id="button" ry="5" rx="5" y="6" x="6" height="38" width="38"
                fill="#f2f5e9" fill-opacity="0.5" stroke="#606060" stroke-width="1.0"/>
           <path id="arrow"
             d="M 11.500037,31.436501 C 11.940474,20.09759 22.043105,11.32322 32.158766,21.979434 L 37.068811,17.246167 C 37.068811,17.246167 37.088388,32 37.088388,32 L 22.160133,31.978069 C 22.160133,31.978069 26.997745,27.140456 26.997745,27.140456 C 18.528582,18.264221 13.291696,25.230495 11.500037,31.436501 z"
             style="fill:#404040;"/>
          </a>
         </g>
        </svg>
</svg>
