<?xml version="1.0" encoding="UTF-8" standalone="no"?>
<!DOCTYPE svg PUBLIC "-//W3C//DTD SVG 1.1//EN"
 "http://www.w3.org/Graphics/SVG/1.1/DTD/svg11.dtd">
<!-- Generated by graphviz version 2.43.0 (0)
 -->
<!-- Title: override_type Pages: 1 -->
<!--zoomable 205 -->
<svg id="main" version="1.1" xmlns="http://www.w3.org/2000/svg" xmlns:xlink="http://www.w3.org/1999/xlink" xml:space="preserve" onload="init(evt)">
<style type="text/css"><![CDATA[
.edge:hover path { stroke: red; }
.edge:hover polygon { stroke: red; fill: red; }
]]></style>
<script type="text/javascript"><![CDATA[
var edges = document.getElementsByTagName('g');
if (edges && edges.length) {
  for (var i=0;i<edges.length;i++) {
    if (edges[i].id.substr(0,4)=='edge') {
      edges[i].setAttribute('class','edge');
    }
  }
}
]]></script>
        <defs>
                <circle id="rim" cx="0" cy="0" r="7"/>
                <circle id="rim2" cx="0" cy="0" r="3.5"/>
                <g id="zoomPlus">
                        <use xlink:href="#rim" fill="#404040">
                                <set attributeName="fill" to="#808080" begin="zoomplus.mouseover" end="zoomplus.mouseout"/>
                        </use>
                        <path d="M-4,0h8M0,-4v8" fill="none" stroke="white" stroke-width="1.5" pointer-events="none"/>
                </g>
                <g id="zoomMin">
                        <use xlink:href="#rim" fill="#404040">
                                <set attributeName="fill" to="#808080" begin="zoomminus.mouseover" end="zoomminus.mouseout"/>
                        </use>
                        <path d="M-4,0h8" fill="none" stroke="white" stroke-width="1.5" pointer-events="none"/>
                </g>
                <g id="dirArrow">
                        <path fill="none" stroke="white" stroke-width="1.5" d="M0,-3.0v7 M-2.5,-0.5L0,-3.0L2.5,-0.5"/>
                </g>
               <g id="resetDef">
                       <use xlink:href="#rim2" fill="#404040">
                               <set attributeName="fill" to="#808080" begin="reset.mouseover" end="reset.mouseout"/>
                       </use>
               </g>
        </defs>

<script type="text/javascript">
var viewWidth = 601;
var viewHeight = 205;
var sectionId = 'dynsection-1';
</script>
<script xlink:href="svgpan.js"/>
<svg id="graph" class="graph">
<g id="viewport">
<title>override_type</title>
<polygon fill="white" stroke="transparent" points="-4,4 -4,-201 596.5,-201 596.5,4 -4,4"/>
<!-- Node1 -->
<g id="node1" class="node">
<title>Node1</title>
<g id="a_node1"><a xlink:title="Private type for holding various data fields for performing data overrides.">
<polygon fill="#bfbfbf" stroke="black" points="262.5,-0.5 262.5,-19.5 346.5,-19.5 346.5,-0.5 262.5,-0.5"/>
<text text-anchor="middle" x="304.5" y="-7.5" font-family="Helvetica,sans-Serif" font-size="10.00">override_type</text>
</a>
</g>
</g>
<!-- Node2 -->
<g id="node2" class="node">
<title>Node2</title>
<g id="a_node2"><a xlink:title=" ">
<polygon fill="white" stroke="#bfbfbf" points="0,-177.5 0,-196.5 49,-196.5 49,-177.5 0,-177.5"/>
<text text-anchor="middle" x="24.5" y="-184.5" font-family="Helvetica,sans-Serif" font-size="10.00">logical</text>
</a>
</g>
</g>
<!-- Node2&#45;&gt;Node1 -->
<g id="edge1" class="edge">
<title>Node2&#45;&gt;Node1</title>
<path fill="none" stroke="#9a32cd" stroke-dasharray="5,2" d="M21,-167.31C16.28,-135.67 12.1,-71.69 47.5,-38 62.73,-23.5 193.52,-15.76 262.42,-12.65"/>
<polygon fill="#9a32cd" stroke="#9a32cd" points="17.59,-168.11 22.7,-177.39 24.49,-166.95 17.59,-168.11"/>
<text text-anchor="middle" x="85.5" y="-96" font-family="Helvetica,sans-Serif" font-size="10.00"> need_compute</text>
</g>
<!-- Node3 -->
<g id="node3" class="node">
<title>Node3</title>
<g id="a_node3"><a xlink:title=" ">
<polygon fill="white" stroke="#bfbfbf" points="70,-177.5 70,-196.5 169,-196.5 169,-177.5 70,-177.5"/>
<text text-anchor="middle" x="119.5" y="-184.5" font-family="Helvetica,sans-Serif" font-size="10.00">character(len=3)</text>
</a>
</g>
</g>
<!-- Node3&#45;&gt;Node1 -->
<g id="edge2" class="edge">
<title>Node3&#45;&gt;Node1</title>
<path fill="none" stroke="#9a32cd" stroke-dasharray="5,2" d="M123.87,-167.32C132.28,-135.68 153.77,-71.72 196.5,-38 215.16,-23.27 240.82,-16.47 262.45,-13.37"/>
<polygon fill="#9a32cd" stroke="#9a32cd" points="120.39,-166.85 121.35,-177.4 127.18,-168.55 120.39,-166.85"/>
<text text-anchor="middle" x="221.5" y="-96" font-family="Helvetica,sans-Serif" font-size="10.00"> gridname</text>
</g>
<!-- Node4 -->
<g id="node4" class="node">
<title>Node4</title>
<g id="a_node4"><a xlink:title=" ">
<polygon fill="white" stroke="#bfbfbf" points="187,-177.5 187,-196.5 298,-196.5 298,-177.5 187,-177.5"/>
<text text-anchor="middle" x="242.5" y="-184.5" font-family="Helvetica,sans-Serif" font-size="10.00">character(len=128)</text>
</a>
</g>
</g>
<!-- Node4&#45;&gt;Node1 -->
<g id="edge3" class="edge">
<title>Node4&#45;&gt;Node1</title>
<path fill="none" stroke="#9a32cd" stroke-dasharray="5,2" d="M248.14,-167.51C256.88,-139.3 274.57,-83.95 292.5,-38 294.89,-31.88 297.89,-25.13 300.29,-19.91"/>
<polygon fill="#9a32cd" stroke="#9a32cd" points="244.75,-166.64 245.15,-177.22 251.44,-168.7 244.75,-166.64"/>
<text text-anchor="middle" x="318.5" y="-96" font-family="Helvetica,sans-Serif" font-size="10.00"> fieldname</text>
</g>
<!-- Node5 -->
<g id="node5" class="node">
<title>Node5</title>
<g id="a_node5"><a xlink:title=" ">
<polygon fill="white" stroke="#bfbfbf" points="316,-177.5 316,-196.5 417,-196.5 417,-177.5 316,-177.5"/>
<text text-anchor="middle" x="366.5" y="-184.5" font-family="Helvetica,sans-Serif" font-size="10.00">horiz_interp_type</text>
</a>
</g>
</g>
<!-- Node5&#45;&gt;Node1 -->
<g id="edge4" class="edge">
<title>Node5&#45;&gt;Node1</title>
<path fill="none" stroke="#9a32cd" stroke-dasharray="5,2" d="M368.32,-166.88C370.2,-136.96 369.93,-78.36 344.5,-38 339.59,-30.2 331.51,-24.12 323.9,-19.72"/>
<polygon fill="#9a32cd" stroke="#9a32cd" points="364.8,-166.92 367.51,-177.16 371.78,-167.47 364.8,-166.92"/>
<text text-anchor="middle" x="397.5" y="-96" font-family="Helvetica,sans-Serif" font-size="10.00"> horz_interp</text>
</g>
<!-- Node6 -->
<g id="node6" class="node">
<title>Node6</title>
<g id="a_node6"><a xlink:title=" ">
<polygon fill="white" stroke="#bfbfbf" points="435,-177.5 435,-196.5 470,-196.5 470,-177.5 435,-177.5"/>
<text text-anchor="middle" x="452.5" y="-184.5" font-family="Helvetica,sans-Serif" font-size="10.00">real</text>
</a>
</g>
</g>
<!-- Node6&#45;&gt;Node1 -->
<g id="edge5" class="edge">
<title>Node6&#45;&gt;Node1</title>
<path fill="none" stroke="#9a32cd" stroke-dasharray="5,2" d="M455.81,-167.28C460.16,-136.09 463.75,-73.43 430.5,-38 419.17,-25.93 378.83,-18.79 346.81,-14.92"/>
<polygon fill="#9a32cd" stroke="#9a32cd" points="452.34,-166.81 454.24,-177.23 459.25,-167.9 452.34,-166.81"/>
<text text-anchor="middle" x="474" y="-101.5" font-family="Helvetica,sans-Serif" font-size="10.00"> lat_in</text>
<text text-anchor="middle" x="474" y="-90.5" font-family="Helvetica,sans-Serif" font-size="10.00">lon_in</text>
</g>
<!-- Node7 -->
<g id="node7" class="node">
<title>Node7</title>
<g id="a_node7"><a xlink:title=" ">
<polygon fill="white" stroke="#bfbfbf" points="488,-177.5 488,-196.5 539,-196.5 539,-177.5 488,-177.5"/>
<text text-anchor="middle" x="513.5" y="-184.5" font-family="Helvetica,sans-Serif" font-size="10.00">integer</text>
</a>
</g>
</g>
<!-- Node7&#45;&gt;Node1 -->
<g id="edge6" class="edge">
<title>Node7&#45;&gt;Node1</title>
<path fill="none" stroke="#9a32cd" stroke-dasharray="5,2" d="M517,-167.48C521.75,-136.07 526.09,-72.45 491.5,-38 471.69,-18.27 395.32,-12.84 346.51,-11.42"/>
<polygon fill="#9a32cd" stroke="#9a32cd" points="513.52,-167.03 515.3,-177.47 520.43,-168.2 513.52,-167.03"/>
<text text-anchor="middle" x="556" y="-151" font-family="Helvetica,sans-Serif" font-size="10.00"> comp_domain</text>
<text text-anchor="middle" x="556" y="-140" font-family="Helvetica,sans-Serif" font-size="10.00">dims</text>
<text text-anchor="middle" x="556" y="-129" font-family="Helvetica,sans-Serif" font-size="10.00">ie_src</text>
<text text-anchor="middle" x="556" y="-118" font-family="Helvetica,sans-Serif" font-size="10.00">is_src</text>
<text text-anchor="middle" x="556" y="-107" font-family="Helvetica,sans-Serif" font-size="10.00">je_src</text>
<text text-anchor="middle" x="556" y="-96" font-family="Helvetica,sans-Serif" font-size="10.00">js_src</text>
<text text-anchor="middle" x="556" y="-85" font-family="Helvetica,sans-Serif" font-size="10.00">numthreads</text>
<text text-anchor="middle" x="556" y="-74" font-family="Helvetica,sans-Serif" font-size="10.00">numwindows</text>
<text text-anchor="middle" x="556" y="-63" font-family="Helvetica,sans-Serif" font-size="10.00">t_index</text>
<text text-anchor="middle" x="556" y="-52" font-family="Helvetica,sans-Serif" font-size="10.00">window_size</text>
<text text-anchor="middle" x="556" y="-41" font-family="Helvetica,sans-Serif" font-size="10.00">...</text>
</g>
</g>
</svg>
        <g id="navigator" transform="translate(0 0)" fill="#404254">
                <rect fill="#f2f5e9" fill-opacity="0.5" stroke="#606060" stroke-width=".5" x="0" y="0" width="60" height="60"/>
                <use id="zoomplus" xlink:href="#zoomPlus" x="17" y="9" onmousedown="handleZoom(evt,'in')"/>
                <use id="zoomminus" xlink:href="#zoomMin" x="42" y="9" onmousedown="handleZoom(evt,'out')"/>
                <use id="reset" xlink:href="#resetDef" x="30" y="36" onmousedown="handleReset()"/>
                <g id="arrowUp" xlink:href="#dirArrow" transform="translate(30 24)" onmousedown="handlePan(0,-1)">
                  <use xlink:href="#rim" fill="#404040">
                        <set attributeName="fill" to="#808080" begin="arrowUp.mouseover" end="arrowUp.mouseout"/>
                  </use>
                  <path fill="none" stroke="white" stroke-width="1.5" d="M0,-3.0v7 M-2.5,-0.5L0,-3.0L2.5,-0.5"/>
                </g>
                <g id="arrowRight" xlink:href="#dirArrow" transform="rotate(90) translate(36 -43)" onmousedown="handlePan(1,0)">
                  <use xlink:href="#rim" fill="#404040">
                        <set attributeName="fill" to="#808080" begin="arrowRight.mouseover" end="arrowRight.mouseout"/>
                  </use>
                  <path fill="none" stroke="white" stroke-width="1.5" d="M0,-3.0v7 M-2.5,-0.5L0,-3.0L2.5,-0.5"/>
                </g>
                <g id="arrowDown" xlink:href="#dirArrow" transform="rotate(180) translate(-30 -48)" onmousedown="handlePan(0,1)">
                  <use xlink:href="#rim" fill="#404040">
                        <set attributeName="fill" to="#808080" begin="arrowDown.mouseover" end="arrowDown.mouseout"/>
                  </use>
                  <path fill="none" stroke="white" stroke-width="1.5" d="M0,-3.0v7 M-2.5,-0.5L0,-3.0L2.5,-0.5"/>
                </g>
                <g id="arrowLeft" xlink:href="#dirArrow" transform="rotate(270) translate(-36 17)" onmousedown="handlePan(-1,0)">
                  <use xlink:href="#rim" fill="#404040">
                        <set attributeName="fill" to="#808080" begin="arrowLeft.mouseover" end="arrowLeft.mouseout"/>
                  </use>
                  <path fill="none" stroke="white" stroke-width="1.5" d="M0,-3.0v7 M-2.5,-0.5L0,-3.0L2.5,-0.5"/>
                </g>
        </g>
        <svg viewBox="0 0 15 15" width="100%" height="30px" preserveAspectRatio="xMaxYMin meet">
         <g id="arrow_out" transform="scale(0.3 0.3)">
          <a xlink:href="structdata__override__mod_1_1override__type__coll__graph_org.svg" target="_base">
           <rect id="button" ry="5" rx="5" y="6" x="6" height="38" width="38"
                fill="#f2f5e9" fill-opacity="0.5" stroke="#606060" stroke-width="1.0"/>
           <path id="arrow"
             d="M 11.500037,31.436501 C 11.940474,20.09759 22.043105,11.32322 32.158766,21.979434 L 37.068811,17.246167 C 37.068811,17.246167 37.088388,32 37.088388,32 L 22.160133,31.978069 C 22.160133,31.978069 26.997745,27.140456 26.997745,27.140456 C 18.528582,18.264221 13.291696,25.230495 11.500037,31.436501 z"
             style="fill:#404040;"/>
          </a>
         </g>
        </svg>
</svg>
