<?xml version="1.0" encoding="UTF-8" standalone="no"?>
<!DOCTYPE svg PUBLIC "-//W3C//DTD SVG 1.1//EN"
 "http://www.w3.org/Graphics/SVG/1.1/DTD/svg11.dtd">
<!-- Generated by graphviz version 2.43.0 (0)
 -->
<!-- Title: xmap_type Pages: 1 -->
<svg width="634pt" height="969pt"
 viewBox="0.00 0.00 634.00 968.64" xmlns="http://www.w3.org/2000/svg" xmlns:xlink="http://www.w3.org/1999/xlink">
<g id="graph0" class="graph" transform="scale(1 1) rotate(0) translate(4 964.64)">
<title>xmap_type</title>
<polygon fill="white" stroke="transparent" points="-4,4 -4,-964.64 630,-964.64 630,4 -4,4"/>
<!-- Node1 -->
<g id="node1" class="node">
<title>Node1</title>
<g id="a_node1"><a xlink:title="Type for an exchange grid, holds pointers to included grids and any necessary data.">
<polygon fill="#bfbfbf" stroke="black" points="555,-587.14 555,-606.14 626,-606.14 626,-587.14 555,-587.14"/>
<text text-anchor="middle" x="590.5" y="-594.14" font-family="Helvetica,sans-Serif" font-size="10.00">xmap_type</text>
</a>
</g>
</g>
<!-- Node2 -->
<g id="node2" class="node">
<title>Node2</title>
<g id="a_node2"><a xlink:title=" ">
<polygon fill="white" stroke="#bfbfbf" points="192,-656.14 192,-675.14 241,-675.14 241,-656.14 192,-656.14"/>
<text text-anchor="middle" x="216.5" y="-663.14" font-family="Helvetica,sans-Serif" font-size="10.00">logical</text>
</a>
</g>
</g>
<!-- Node2&#45;&gt;Node1 -->
<g id="edge1" class="edge">
<title>Node2&#45;&gt;Node1</title>
<path fill="none" stroke="#9a32cd" stroke-dasharray="5,2" d="M251.14,-659.41C321.5,-646.36 483.57,-616.29 554.82,-603.08"/>
<polygon fill="#9a32cd" stroke="#9a32cd" points="250.25,-656.01 241.05,-661.28 251.52,-662.89 250.25,-656.01"/>
<text text-anchor="middle" x="429" y="-645.64" font-family="Helvetica,sans-Serif" font-size="10.00"> your2my1</text>
<text text-anchor="middle" x="429" y="-634.64" font-family="Helvetica,sans-Serif" font-size="10.00">your1my2</text>
</g>
<!-- Node6 -->
<g id="node6" class="node">
<title>Node6</title>
<g id="a_node6"><a xlink:href="group__xgrid__mod.html#structxgrid__mod_1_1grid__type" target="_top" xlink:title="Private type to hold all data needed from given grid for an exchange grid.">
<polygon fill="white" stroke="black" points="398,-425.14 398,-444.14 460,-444.14 460,-425.14 398,-425.14"/>
<text text-anchor="middle" x="429" y="-432.14" font-family="Helvetica,sans-Serif" font-size="10.00">grid_type</text>
</a>
</g>
</g>
<!-- Node2&#45;&gt;Node6 -->
<g id="edge6" class="edge">
<title>Node2&#45;&gt;Node6</title>
<path fill="none" stroke="#9a32cd" stroke-dasharray="5,2" d="M250.53,-653.97C256.31,-650.72 261.81,-646.66 266,-641.64 284.42,-619.64 266.02,-602 284,-579.64 312.55,-544.16 341.57,-562.63 374,-530.64 400.41,-504.59 417.8,-462.9 424.68,-444.23"/>
<polygon fill="#9a32cd" stroke="#9a32cd" points="248.81,-650.92 241.36,-658.45 251.88,-657.21 248.81,-650.92"/>
<text text-anchor="middle" x="329" y="-604.64" font-family="Helvetica,sans-Serif" font-size="10.00"> is_ug</text>
<text text-anchor="middle" x="329" y="-593.64" font-family="Helvetica,sans-Serif" font-size="10.00">is_latlon</text>
<text text-anchor="middle" x="329" y="-582.64" font-family="Helvetica,sans-Serif" font-size="10.00">on_this_pe</text>
</g>
<!-- Node3 -->
<g id="node3" class="node">
<title>Node3</title>
<g id="a_node3"><a xlink:href="group__xgrid__mod.html#structxgrid__mod_1_1x2__type" target="_top" xlink:title="Private type for exchange grid data.">
<polygon fill="white" stroke="black" points="188.5,-65.14 188.5,-84.14 244.5,-84.14 244.5,-65.14 188.5,-65.14"/>
<text text-anchor="middle" x="216.5" y="-72.14" font-family="Helvetica,sans-Serif" font-size="10.00">x2_type</text>
</a>
</g>
</g>
<!-- Node3&#45;&gt;Node1 -->
<g id="edge2" class="edge">
<title>Node3&#45;&gt;Node1</title>
<path fill="none" stroke="#9a32cd" stroke-dasharray="5,2" d="M254.95,-80.66C308.89,-91.24 408.31,-118.18 466,-179.64 583.55,-304.89 589.71,-536.85 589.62,-586.95"/>
<polygon fill="#9a32cd" stroke="#9a32cd" points="255.26,-77.16 244.79,-78.76 253.97,-84.04 255.26,-77.16"/>
<text text-anchor="middle" x="429" y="-193.64" font-family="Helvetica,sans-Serif" font-size="10.00"> x2_get</text>
<text text-anchor="middle" x="429" y="-182.64" font-family="Helvetica,sans-Serif" font-size="10.00">x2</text>
</g>
<!-- Node4 -->
<g id="node4" class="node">
<title>Node4</title>
<g id="a_node4"><a xlink:title=" ">
<polygon fill="white" stroke="#bfbfbf" points="0,-166.14 0,-185.14 79,-185.14 79,-166.14 0,-166.14"/>
<text text-anchor="middle" x="39.5" y="-173.14" font-family="Helvetica,sans-Serif" font-size="10.00">real(r8_kind)</text>
</a>
</g>
</g>
<!-- Node4&#45;&gt;Node3 -->
<g id="edge3" class="edge">
<title>Node4&#45;&gt;Node3</title>
<path fill="none" stroke="#9a32cd" stroke-dasharray="5,2" d="M40.39,-155.57C41.4,-119.15 49.42,-42.77 97,-8.64 115.78,4.83 127.63,0.16 149,-8.64 176.97,-20.17 199.4,-49.79 209.58,-65.12"/>
<polygon fill="#9a32cd" stroke="#9a32cd" points="36.88,-155.85 40.26,-165.89 43.88,-155.94 36.88,-155.85"/>
<text text-anchor="middle" x="123" y="-11.64" font-family="Helvetica,sans-Serif" font-size="10.00"> area</text>
</g>
<!-- Node4&#45;&gt;Node6 -->
<g id="edge14" class="edge">
<title>Node4&#45;&gt;Node6</title>
<path fill="none" stroke="#9a32cd" stroke-dasharray="5,2" d="M89.05,-166.48C136.31,-159.87 209.12,-155.92 266,-180.64 326.27,-206.85 338.03,-226.64 374,-281.64 405.76,-330.21 421.37,-399.69 426.26,-424.97"/>
<polygon fill="#9a32cd" stroke="#9a32cd" points="88.45,-163.04 79.08,-167.97 89.49,-169.96 88.45,-163.04"/>
<text text-anchor="middle" x="216.5" y="-249.64" font-family="Helvetica,sans-Serif" font-size="10.00"> area_inv</text>
<text text-anchor="middle" x="216.5" y="-238.64" font-family="Helvetica,sans-Serif" font-size="10.00">lon</text>
<text text-anchor="middle" x="216.5" y="-227.64" font-family="Helvetica,sans-Serif" font-size="10.00">lat</text>
<text text-anchor="middle" x="216.5" y="-216.64" font-family="Helvetica,sans-Serif" font-size="10.00">frac_area</text>
<text text-anchor="middle" x="216.5" y="-205.64" font-family="Helvetica,sans-Serif" font-size="10.00">geolon</text>
<text text-anchor="middle" x="216.5" y="-194.64" font-family="Helvetica,sans-Serif" font-size="10.00">area</text>
<text text-anchor="middle" x="216.5" y="-183.64" font-family="Helvetica,sans-Serif" font-size="10.00">geolat</text>
</g>
<!-- Node7 -->
<g id="node7" class="node">
<title>Node7</title>
<g id="a_node7"><a xlink:href="group__xgrid__mod.html#structxgrid__mod_1_1xcell__type" target="_top" xlink:title="Private type for cell indices and data in the exchange grid.">
<polygon fill="white" stroke="black" points="183,-380.14 183,-399.14 250,-399.14 250,-380.14 183,-380.14"/>
<text text-anchor="middle" x="216.5" y="-387.14" font-family="Helvetica,sans-Serif" font-size="10.00">xcell_type</text>
</a>
</g>
</g>
<!-- Node4&#45;&gt;Node7 -->
<g id="edge8" class="edge">
<title>Node4&#45;&gt;Node7</title>
<path fill="none" stroke="#9a32cd" stroke-dasharray="5,2" d="M43.72,-195.21C49.49,-224.5 64.19,-279.91 97,-313.64 114.62,-331.76 129.67,-320.37 149,-336.64 160.03,-345.93 156.32,-353.95 167,-363.64 174.35,-370.33 183.74,-375.87 192.29,-380.1"/>
<polygon fill="#9a32cd" stroke="#9a32cd" points="47.16,-194.58 41.93,-185.36 40.28,-195.83 47.16,-194.58"/>
<text text-anchor="middle" x="123" y="-372.64" font-family="Helvetica,sans-Serif" font-size="10.00"> scale</text>
<text text-anchor="middle" x="123" y="-361.64" font-family="Helvetica,sans-Serif" font-size="10.00">di</text>
<text text-anchor="middle" x="123" y="-350.64" font-family="Helvetica,sans-Serif" font-size="10.00">dj</text>
<text text-anchor="middle" x="123" y="-339.64" font-family="Helvetica,sans-Serif" font-size="10.00">area</text>
</g>
<!-- Node10 -->
<g id="node10" class="node">
<title>Node10</title>
<g id="a_node10"><a xlink:href="group__xgrid__mod.html#structxgrid__mod_1_1grid__box__type" target="_top" xlink:title="Type to hold pointers for grid boxes.">
<polygon fill="white" stroke="black" points="173.5,-267.14 173.5,-286.14 259.5,-286.14 259.5,-267.14 173.5,-267.14"/>
<text text-anchor="middle" x="216.5" y="-274.14" font-family="Helvetica,sans-Serif" font-size="10.00">grid_box_type</text>
</a>
</g>
</g>
<!-- Node4&#45;&gt;Node10 -->
<g id="edge13" class="edge">
<title>Node4&#45;&gt;Node10</title>
<path fill="none" stroke="#9a32cd" stroke-dasharray="5,2" d="M89.31,-172.99C109.7,-174.31 132.45,-179.26 149,-192.64 166.39,-206.71 153.6,-221.74 167,-239.64 175.38,-250.84 188.01,-260.33 198.28,-266.89"/>
<polygon fill="#9a32cd" stroke="#9a32cd" points="89.34,-169.49 79.21,-172.61 89.07,-176.49 89.34,-169.49"/>
<text text-anchor="middle" x="123" y="-305.64" font-family="Helvetica,sans-Serif" font-size="10.00"> edge_s</text>
<text text-anchor="middle" x="123" y="-294.64" font-family="Helvetica,sans-Serif" font-size="10.00">edge_e</text>
<text text-anchor="middle" x="123" y="-283.64" font-family="Helvetica,sans-Serif" font-size="10.00">dx</text>
<text text-anchor="middle" x="123" y="-272.64" font-family="Helvetica,sans-Serif" font-size="10.00">edge_w</text>
<text text-anchor="middle" x="123" y="-261.64" font-family="Helvetica,sans-Serif" font-size="10.00">dy</text>
<text text-anchor="middle" x="123" y="-250.64" font-family="Helvetica,sans-Serif" font-size="10.00">vlon</text>
<text text-anchor="middle" x="123" y="-239.64" font-family="Helvetica,sans-Serif" font-size="10.00">en1</text>
<text text-anchor="middle" x="123" y="-228.64" font-family="Helvetica,sans-Serif" font-size="10.00">en2</text>
<text text-anchor="middle" x="123" y="-217.64" font-family="Helvetica,sans-Serif" font-size="10.00">vlat</text>
<text text-anchor="middle" x="123" y="-206.64" font-family="Helvetica,sans-Serif" font-size="10.00">edge_n</text>
<text text-anchor="middle" x="123" y="-195.64" font-family="Helvetica,sans-Serif" font-size="10.00">...</text>
</g>
<!-- Node12 -->
<g id="node12" class="node">
<title>Node12</title>
<g id="a_node12"><a xlink:href="group__xgrid__mod.html#structxgrid__mod_1_1x1__type" target="_top" xlink:title="Private type for exchange grid data.">
<polygon fill="white" stroke="black" points="188.5,-103.14 188.5,-122.14 244.5,-122.14 244.5,-103.14 188.5,-103.14"/>
<text text-anchor="middle" x="216.5" y="-110.14" font-family="Helvetica,sans-Serif" font-size="10.00">x1_type</text>
</a>
</g>
</g>
<!-- Node4&#45;&gt;Node12 -->
<g id="edge18" class="edge">
<title>Node4&#45;&gt;Node12</title>
<path fill="none" stroke="#9a32cd" stroke-dasharray="5,2" d="M41.74,-155.42C44.93,-123.25 56.32,-61.24 97,-33.64 116.13,-20.67 130.46,-19.85 149,-33.64 171.34,-50.26 148.14,-73.17 167,-93.64 172.7,-99.83 180.66,-104.03 188.48,-106.87"/>
<polygon fill="#9a32cd" stroke="#9a32cd" points="38.22,-155.56 40.9,-165.81 45.2,-156.12 38.22,-155.56"/>
<text text-anchor="middle" x="123" y="-58.64" font-family="Helvetica,sans-Serif" font-size="10.00"> di</text>
<text text-anchor="middle" x="123" y="-47.64" font-family="Helvetica,sans-Serif" font-size="10.00">dj</text>
<text text-anchor="middle" x="123" y="-36.64" font-family="Helvetica,sans-Serif" font-size="10.00">area</text>
</g>
<!-- Node14 -->
<g id="node14" class="node">
<title>Node14</title>
<g id="a_node14"><a xlink:href="group__xgrid__mod.html#structxgrid__mod_1_1overlap__type" target="_top" xlink:title="Private type for overlap exchange grid data.">
<polygon fill="white" stroke="black" points="176.5,-694.14 176.5,-713.14 256.5,-713.14 256.5,-694.14 176.5,-694.14"/>
<text text-anchor="middle" x="216.5" y="-701.14" font-family="Helvetica,sans-Serif" font-size="10.00">overlap_type</text>
</a>
</g>
</g>
<!-- Node4&#45;&gt;Node14 -->
<g id="edge23" class="edge">
<title>Node4&#45;&gt;Node14</title>
<path fill="none" stroke="#9a32cd" stroke-dasharray="5,2" d="M41.49,-195.34C45.29,-265.69 60.63,-503.93 97,-569.64 111.66,-596.13 132.96,-587.97 149,-613.64 166.25,-641.25 145.46,-660.23 167,-684.64 170.35,-688.44 174.56,-691.49 179.08,-693.93"/>
<polygon fill="#9a32cd" stroke="#9a32cd" points="44.97,-195.01 40.96,-185.21 37.98,-195.38 44.97,-195.01"/>
<text text-anchor="middle" x="123" y="-627.64" font-family="Helvetica,sans-Serif" font-size="10.00"> di</text>
<text text-anchor="middle" x="123" y="-616.64" font-family="Helvetica,sans-Serif" font-size="10.00">dj</text>
</g>
<!-- Node5 -->
<g id="node5" class="node">
<title>Node5</title>
<g id="a_node5"><a xlink:title=" ">
<polygon fill="white" stroke="#bfbfbf" points="14,-619.14 14,-638.14 65,-638.14 65,-619.14 14,-619.14"/>
<text text-anchor="middle" x="39.5" y="-626.14" font-family="Helvetica,sans-Serif" font-size="10.00">integer</text>
</a>
</g>
</g>
<!-- Node5&#45;&gt;Node1 -->
<g id="edge25" class="edge">
<title>Node5&#45;&gt;Node1</title>
<path fill="none" stroke="#9a32cd" stroke-dasharray="5,2" d="M44.76,-648.21C51.87,-677.71 68.3,-734.43 97,-774.64 143.22,-839.4 188.27,-850.58 266,-833.64 395.42,-805.44 443.07,-803.03 537,-709.64 567.53,-679.29 582.32,-627.85 587.39,-606.44"/>
<polygon fill="#9a32cd" stroke="#9a32cd" points="48.13,-647.28 42.48,-638.32 41.31,-648.85 48.13,-647.28"/>
<text text-anchor="middle" x="329" y="-952.64" font-family="Helvetica,sans-Serif" font-size="10.00"> size_get2</text>
<text text-anchor="middle" x="329" y="-941.64" font-family="Helvetica,sans-Serif" font-size="10.00">size</text>
<text text-anchor="middle" x="329" y="-930.64" font-family="Helvetica,sans-Serif" font-size="10.00">recv_count_repro</text>
<text text-anchor="middle" x="329" y="-919.64" font-family="Helvetica,sans-Serif" font-size="10.00">ind_get1</text>
<text text-anchor="middle" x="329" y="-908.64" font-family="Helvetica,sans-Serif" font-size="10.00">send_count_repro</text>
<text text-anchor="middle" x="329" y="-897.64" font-family="Helvetica,sans-Serif" font-size="10.00">root_pe</text>
<text text-anchor="middle" x="329" y="-886.64" font-family="Helvetica,sans-Serif" font-size="10.00">me</text>
<text text-anchor="start" x="285.5" y="-875.64" font-family="Helvetica,sans-Serif" font-size="10.00">recv_count_repro</text>
<text text-anchor="middle" x="329" y="-864.64" font-family="Helvetica,sans-Serif" font-size="10.00">_tot</text>
<text text-anchor="middle" x="329" y="-853.64" font-family="Helvetica,sans-Serif" font-size="10.00">version</text>
<text text-anchor="middle" x="329" y="-842.64" font-family="Helvetica,sans-Serif" font-size="10.00">your2my1_size</text>
<text text-anchor="middle" x="329" y="-831.64" font-family="Helvetica,sans-Serif" font-size="10.00">...</text>
</g>
<!-- Node5&#45;&gt;Node3 -->
<g id="edge4" class="edge">
<title>Node5&#45;&gt;Node3</title>
<path fill="none" stroke="#9a32cd" stroke-dasharray="5,2" d="M42.1,-608.62C49.58,-516.29 81.29,-135.33 97,-115.64 119.07,-88 160.87,-78.93 188.46,-75.99"/>
<polygon fill="#9a32cd" stroke="#9a32cd" points="38.6,-608.58 41.28,-618.83 45.57,-609.15 38.6,-608.58"/>
<text text-anchor="middle" x="123" y="-162.64" font-family="Helvetica,sans-Serif" font-size="10.00"> i</text>
<text text-anchor="middle" x="123" y="-151.64" font-family="Helvetica,sans-Serif" font-size="10.00">j</text>
<text text-anchor="middle" x="123" y="-140.64" font-family="Helvetica,sans-Serif" font-size="10.00">k</text>
<text text-anchor="middle" x="123" y="-129.64" font-family="Helvetica,sans-Serif" font-size="10.00">l</text>
<text text-anchor="middle" x="123" y="-118.64" font-family="Helvetica,sans-Serif" font-size="10.00">pos</text>
</g>
<!-- Node5&#45;&gt;Node6 -->
<g id="edge15" class="edge">
<title>Node5&#45;&gt;Node6</title>
<path fill="none" stroke="#9a32cd" stroke-dasharray="5,2" d="M75.48,-633.81C99.19,-635.23 129.63,-632.68 149,-614.64 178.53,-587.14 138.87,-554.58 167,-525.64 232.83,-457.93 288.97,-518.74 374,-477.64 391.48,-469.2 408.46,-454.22 418.58,-444.36"/>
<polygon fill="#9a32cd" stroke="#9a32cd" points="75.71,-630.31 65.45,-632.95 75.11,-637.29 75.71,-630.31"/>
<text text-anchor="middle" x="216.5" y="-638.64" font-family="Helvetica,sans-Serif" font-size="10.00"> ied_me</text>
<text text-anchor="middle" x="216.5" y="-627.64" font-family="Helvetica,sans-Serif" font-size="10.00">km</text>
<text text-anchor="middle" x="216.5" y="-616.64" font-family="Helvetica,sans-Serif" font-size="10.00">size</text>
<text text-anchor="middle" x="216.5" y="-605.64" font-family="Helvetica,sans-Serif" font-size="10.00">last_get</text>
<text text-anchor="middle" x="216.5" y="-594.64" font-family="Helvetica,sans-Serif" font-size="10.00">jm</text>
<text text-anchor="middle" x="216.5" y="-583.64" font-family="Helvetica,sans-Serif" font-size="10.00">ge_me</text>
<text text-anchor="middle" x="216.5" y="-572.64" font-family="Helvetica,sans-Serif" font-size="10.00">im</text>
<text text-anchor="middle" x="216.5" y="-561.64" font-family="Helvetica,sans-Serif" font-size="10.00">pelist</text>
<text text-anchor="middle" x="216.5" y="-550.64" font-family="Helvetica,sans-Serif" font-size="10.00">nxl_me</text>
<text text-anchor="middle" x="216.5" y="-539.64" font-family="Helvetica,sans-Serif" font-size="10.00">ie_me</text>
<text text-anchor="middle" x="216.5" y="-528.64" font-family="Helvetica,sans-Serif" font-size="10.00">...</text>
</g>
<!-- Node5&#45;&gt;Node7 -->
<g id="edge9" class="edge">
<title>Node5&#45;&gt;Node7</title>
<path fill="none" stroke="#9a32cd" stroke-dasharray="5,2" d="M42.52,-609.07C46.87,-576.43 59.92,-510.54 97,-470.64 114.21,-452.14 130.51,-464.87 149,-447.64 161.51,-435.99 154.75,-425.57 167,-413.64 173.19,-407.62 181.2,-402.82 188.92,-399.15"/>
<polygon fill="#9a32cd" stroke="#9a32cd" points="39.03,-608.79 41.32,-619.13 45.98,-609.62 39.03,-608.79"/>
<text text-anchor="middle" x="123" y="-561.64" font-family="Helvetica,sans-Serif" font-size="10.00"> pe</text>
<text text-anchor="middle" x="123" y="-550.64" font-family="Helvetica,sans-Serif" font-size="10.00">l1</text>
<text text-anchor="middle" x="123" y="-539.64" font-family="Helvetica,sans-Serif" font-size="10.00">l2</text>
<text text-anchor="middle" x="123" y="-528.64" font-family="Helvetica,sans-Serif" font-size="10.00">j1</text>
<text text-anchor="middle" x="123" y="-517.64" font-family="Helvetica,sans-Serif" font-size="10.00">j2</text>
<text text-anchor="middle" x="123" y="-506.64" font-family="Helvetica,sans-Serif" font-size="10.00">i1</text>
<text text-anchor="middle" x="123" y="-495.64" font-family="Helvetica,sans-Serif" font-size="10.00">i2</text>
<text text-anchor="middle" x="123" y="-484.64" font-family="Helvetica,sans-Serif" font-size="10.00">recv_pos</text>
<text text-anchor="middle" x="123" y="-473.64" font-family="Helvetica,sans-Serif" font-size="10.00">tile</text>
</g>
<!-- Node5&#45;&gt;Node12 -->
<g id="edge19" class="edge">
<title>Node5&#45;&gt;Node12</title>
<path fill="none" stroke="#9a32cd" stroke-dasharray="5,2" d="M42.95,-609.08C49.51,-559.56 68.91,-430.96 97,-399.64 113.43,-381.33 134.17,-400.28 149,-380.64 181.78,-337.27 136.64,-181.75 167,-136.64 172.04,-129.16 180.12,-123.92 188.25,-120.28"/>
<polygon fill="#9a32cd" stroke="#9a32cd" points="39.46,-608.76 41.65,-619.13 46.4,-609.66 39.46,-608.76"/>
<text text-anchor="middle" x="123" y="-435.64" font-family="Helvetica,sans-Serif" font-size="10.00"> i</text>
<text text-anchor="middle" x="123" y="-424.64" font-family="Helvetica,sans-Serif" font-size="10.00">j</text>
<text text-anchor="middle" x="123" y="-413.64" font-family="Helvetica,sans-Serif" font-size="10.00">pos</text>
<text text-anchor="middle" x="123" y="-402.64" font-family="Helvetica,sans-Serif" font-size="10.00">tile</text>
</g>
<!-- Node13 -->
<g id="node13" class="node">
<title>Node13</title>
<g id="a_node13"><a xlink:href="group__xgrid__mod.html#structxgrid__mod_1_1comm__type" target="_top" xlink:title="Private type used for exchange grid communication.">
<polygon fill="white" stroke="black" points="392,-694.14 392,-713.14 466,-713.14 466,-694.14 392,-694.14"/>
<text text-anchor="middle" x="429" y="-701.14" font-family="Helvetica,sans-Serif" font-size="10.00">comm_type</text>
</a>
</g>
</g>
<!-- Node5&#45;&gt;Node13 -->
<g id="edge21" class="edge">
<title>Node5&#45;&gt;Node13</title>
<path fill="none" stroke="#9a32cd" stroke-dasharray="5,2" d="M43.04,-648.08C47.9,-676.34 61.4,-727.9 97,-750.64 200.69,-816.89 359.64,-741.19 411.22,-713.2"/>
<polygon fill="#9a32cd" stroke="#9a32cd" points="46.5,-647.53 41.53,-638.17 39.58,-648.59 46.5,-647.53"/>
<text text-anchor="middle" x="216.5" y="-823.64" font-family="Helvetica,sans-Serif" font-size="10.00"> nsend</text>
<text text-anchor="middle" x="216.5" y="-812.64" font-family="Helvetica,sans-Serif" font-size="10.00">unpack_ind</text>
<text text-anchor="middle" x="216.5" y="-801.64" font-family="Helvetica,sans-Serif" font-size="10.00">recvsize</text>
<text text-anchor="middle" x="216.5" y="-790.64" font-family="Helvetica,sans-Serif" font-size="10.00">sendsize</text>
<text text-anchor="middle" x="216.5" y="-779.64" font-family="Helvetica,sans-Serif" font-size="10.00">nrecv</text>
</g>
<!-- Node5&#45;&gt;Node14 -->
<g id="edge24" class="edge">
<title>Node5&#45;&gt;Node14</title>
<path fill="none" stroke="#9a32cd" stroke-dasharray="5,2" d="M74.94,-634.13C97.46,-638.94 126.73,-647.59 149,-662.64 159.47,-669.72 156.79,-677.21 167,-684.64 172.19,-688.42 178.23,-691.57 184.26,-694.14"/>
<polygon fill="#9a32cd" stroke="#9a32cd" points="75.6,-630.69 65.11,-632.18 74.24,-637.56 75.6,-630.69"/>
<text text-anchor="middle" x="123" y="-742.64" font-family="Helvetica,sans-Serif" font-size="10.00"> g</text>
<text text-anchor="middle" x="123" y="-731.64" font-family="Helvetica,sans-Serif" font-size="10.00">i</text>
<text text-anchor="middle" x="123" y="-720.64" font-family="Helvetica,sans-Serif" font-size="10.00">j</text>
<text text-anchor="middle" x="123" y="-709.64" font-family="Helvetica,sans-Serif" font-size="10.00">pe</text>
<text text-anchor="middle" x="123" y="-698.64" font-family="Helvetica,sans-Serif" font-size="10.00">count</text>
<text text-anchor="middle" x="123" y="-687.64" font-family="Helvetica,sans-Serif" font-size="10.00">xloc</text>
<text text-anchor="middle" x="123" y="-676.64" font-family="Helvetica,sans-Serif" font-size="10.00">buffer_pos</text>
<text text-anchor="middle" x="123" y="-665.64" font-family="Helvetica,sans-Serif" font-size="10.00">tile</text>
</g>
<!-- Node6&#45;&gt;Node1 -->
<g id="edge5" class="edge">
<title>Node6&#45;&gt;Node1</title>
<path fill="none" stroke="#9a32cd" stroke-dasharray="5,2" d="M446.67,-451.58C479.9,-485.33 553.47,-560.05 579.85,-586.84"/>
<polygon fill="#9a32cd" stroke="#9a32cd" points="449.01,-448.96 439.5,-444.29 444.02,-453.88 449.01,-448.96"/>
<text text-anchor="middle" x="510.5" y="-541.64" font-family="Helvetica,sans-Serif" font-size="10.00"> grids</text>
</g>
<!-- Node7&#45;&gt;Node6 -->
<g id="edge7" class="edge">
<title>Node7&#45;&gt;Node6</title>
<path fill="none" stroke="#9a32cd" stroke-dasharray="5,2" d="M260.59,-390.07C292.51,-391.4 336.74,-395.39 374,-406.64 387.95,-410.86 402.55,-418.67 413.05,-424.97"/>
<polygon fill="#9a32cd" stroke="#9a32cd" points="260.38,-386.56 250.27,-389.71 260.14,-393.56 260.38,-386.56"/>
<text text-anchor="middle" x="329" y="-420.64" font-family="Helvetica,sans-Serif" font-size="10.00"> x</text>
<text text-anchor="middle" x="329" y="-409.64" font-family="Helvetica,sans-Serif" font-size="10.00">x_repro</text>
</g>
<!-- Node8 -->
<g id="node8" class="node">
<title>Node8</title>
<g id="a_node8"><a xlink:title=" ">
<polygon fill="white" stroke="#bfbfbf" points="167,-461.14 167,-480.14 266,-480.14 266,-461.14 167,-461.14"/>
<text text-anchor="middle" x="216.5" y="-468.14" font-family="Helvetica,sans-Serif" font-size="10.00">character(len=3)</text>
</a>
</g>
</g>
<!-- Node8&#45;&gt;Node6 -->
<g id="edge10" class="edge">
<title>Node8&#45;&gt;Node6</title>
<path fill="none" stroke="#9a32cd" stroke-dasharray="5,2" d="M276.17,-464.01C305.66,-460.26 341.87,-455.05 374,-448.64 381.79,-447.09 390.13,-445.1 397.87,-443.11"/>
<polygon fill="#9a32cd" stroke="#9a32cd" points="275.52,-460.56 266.03,-465.27 276.39,-467.51 275.52,-460.56"/>
<text text-anchor="middle" x="329" y="-465.64" font-family="Helvetica,sans-Serif" font-size="10.00"> id</text>
</g>
<!-- Node9 -->
<g id="node9" class="node">
<title>Node9</title>
<g id="a_node9"><a xlink:title=" ">
<polygon fill="white" stroke="#bfbfbf" points="169,-423.14 169,-442.14 264,-442.14 264,-423.14 169,-423.14"/>
<text text-anchor="middle" x="216.5" y="-430.14" font-family="Helvetica,sans-Serif" font-size="10.00">type(domainug)</text>
</a>
</g>
</g>
<!-- Node9&#45;&gt;Node6 -->
<g id="edge11" class="edge">
<title>Node9&#45;&gt;Node6</title>
<path fill="none" stroke="#9a32cd" stroke-dasharray="5,2" d="M274.33,-433.18C314.18,-433.56 365.87,-434.05 397.98,-434.36"/>
<polygon fill="#9a32cd" stroke="#9a32cd" points="274.25,-429.68 264.22,-433.09 274.18,-436.68 274.25,-429.68"/>
<text text-anchor="middle" x="329" y="-436.64" font-family="Helvetica,sans-Serif" font-size="10.00"> ug_domain</text>
</g>
<!-- Node10&#45;&gt;Node6 -->
<g id="edge12" class="edge">
<title>Node10&#45;&gt;Node6</title>
<path fill="none" stroke="#9a32cd" stroke-dasharray="5,2" d="M269.71,-282.81C302.81,-289.06 344.75,-301.59 374,-326.64 405.69,-353.78 420.74,-403.99 425.87,-425"/>
<polygon fill="#9a32cd" stroke="#9a32cd" points="270.2,-279.34 259.75,-281.06 268.99,-286.23 270.2,-279.34"/>
<text text-anchor="middle" x="329" y="-329.64" font-family="Helvetica,sans-Serif" font-size="10.00"> box</text>
</g>
<!-- Node11 -->
<g id="node11" class="node">
<title>Node11</title>
<g id="a_node11"><a xlink:title=" ">
<polygon fill="white" stroke="#bfbfbf" points="169,-335.14 169,-354.14 264,-354.14 264,-335.14 169,-335.14"/>
<text text-anchor="middle" x="216.5" y="-342.14" font-family="Helvetica,sans-Serif" font-size="10.00">type(domain2d)</text>
</a>
</g>
</g>
<!-- Node11&#45;&gt;Node6 -->
<g id="edge16" class="edge">
<title>Node11&#45;&gt;Node6</title>
<path fill="none" stroke="#9a32cd" stroke-dasharray="5,2" d="M274.58,-341.61C305.81,-342.39 344.11,-347.51 374,-364.64 398.77,-378.84 416.05,-409.36 423.65,-424.99"/>
<polygon fill="#9a32cd" stroke="#9a32cd" points="274.32,-338.1 264.28,-341.5 274.25,-345.1 274.32,-338.1"/>
<text text-anchor="middle" x="329" y="-378.64" font-family="Helvetica,sans-Serif" font-size="10.00"> domain</text>
<text text-anchor="middle" x="329" y="-367.64" font-family="Helvetica,sans-Serif" font-size="10.00">domain_with_halo</text>
</g>
<!-- Node12&#45;&gt;Node1 -->
<g id="edge17" class="edge">
<title>Node12&#45;&gt;Node1</title>
<path fill="none" stroke="#9a32cd" stroke-dasharray="5,2" d="M254.25,-122.46C288.65,-133.21 339.76,-153.35 374,-185.64 507.05,-311.13 573.58,-537.23 586.95,-586.85"/>
<polygon fill="#9a32cd" stroke="#9a32cd" points="255.16,-119.08 244.58,-119.55 253.15,-125.79 255.16,-119.08"/>
<text text-anchor="middle" x="429" y="-313.64" font-family="Helvetica,sans-Serif" font-size="10.00"> x1_put</text>
<text text-anchor="middle" x="429" y="-302.64" font-family="Helvetica,sans-Serif" font-size="10.00">x1</text>
</g>
<!-- Node13&#45;&gt;Node1 -->
<g id="edge20" class="edge">
<title>Node13&#45;&gt;Node1</title>
<path fill="none" stroke="#9a32cd" stroke-dasharray="5,2" d="M457.2,-689.26C479.3,-677.2 510.96,-659.03 537,-640.64 552.35,-629.81 568.75,-615.59 579.06,-606.29"/>
<polygon fill="#9a32cd" stroke="#9a32cd" points="455.49,-686.21 448.36,-694.04 458.82,-692.37 455.49,-686.21"/>
<text text-anchor="middle" x="510.5" y="-697.64" font-family="Helvetica,sans-Serif" font-size="10.00"> put1</text>
<text text-anchor="middle" x="510.5" y="-686.64" font-family="Helvetica,sans-Serif" font-size="10.00">get1_repro</text>
<text text-anchor="middle" x="510.5" y="-675.64" font-family="Helvetica,sans-Serif" font-size="10.00">get1</text>
</g>
<!-- Node14&#45;&gt;Node13 -->
<g id="edge22" class="edge">
<title>Node14&#45;&gt;Node13</title>
<path fill="none" stroke="#9a32cd" stroke-dasharray="5,2" d="M267.01,-703.64C305.33,-703.64 357.49,-703.64 391.92,-703.64"/>
<polygon fill="#9a32cd" stroke="#9a32cd" points="266.6,-700.14 256.6,-703.64 266.6,-707.14 266.6,-700.14"/>
<text text-anchor="middle" x="329" y="-717.64" font-family="Helvetica,sans-Serif" font-size="10.00"> recv</text>
<text text-anchor="middle" x="329" y="-706.64" font-family="Helvetica,sans-Serif" font-size="10.00">send</text>
</g>
</g>
</svg>
