<?xml version="1.0" encoding="UTF-8" standalone="no"?>
<!DOCTYPE svg PUBLIC "-//W3C//DTD SVG 1.1//EN"
 "http://www.w3.org/Graphics/SVG/1.1/DTD/svg11.dtd">
<!-- Generated by graphviz version 2.43.0 (0)
 -->
<!-- Title: fmattr_t Pages: 1 -->
<svg width="405pt" height="117pt"
 viewBox="0.00 0.00 404.50 117.00" xmlns="http://www.w3.org/2000/svg" xmlns:xlink="http://www.w3.org/1999/xlink">
<g id="graph0" class="graph" transform="scale(1 1) rotate(0) translate(4 113)">
<title>fmattr_t</title>
<polygon fill="white" stroke="transparent" points="-4,4 -4,-113 400.5,-113 400.5,4 -4,4"/>
<!-- Node1 -->
<g id="node1" class="node">
<title>Node1</title>
<g id="a_node1"><a xlink:title="This type represents the subparameters for a given variable parameter. This type contains the name of...">
<polygon fill="#bfbfbf" stroke="black" points="223,-0.5 223,-19.5 279,-19.5 279,-0.5 223,-0.5"/>
<text text-anchor="middle" x="251" y="-7.5" font-family="Helvetica,sans-Serif" font-size="10.00">fmattr_t</text>
</a>
</g>
</g>
<!-- Node2 -->
<g id="node2" class="node">
<title>Node2</title>
<g id="a_node2"><a xlink:title=" ">
<polygon fill="white" stroke="#bfbfbf" points="0,-84 0,-103 156,-103 156,-84 0,-84"/>
<text text-anchor="middle" x="78" y="-91" font-family="Helvetica,sans-Serif" font-size="10.00">character(len=:), allocatable</text>
</a>
</g>
</g>
<!-- Node2&#45;&gt;Node1 -->
<g id="edge1" class="edge">
<title>Node2&#45;&gt;Node1</title>
<path fill="none" stroke="#9a32cd" stroke-dasharray="5,2" d="M102.57,-79.05C123.86,-67.6 155.61,-50.99 184,-38 198.48,-31.38 215.09,-24.68 228.14,-19.61"/>
<polygon fill="#9a32cd" stroke="#9a32cd" points="100.71,-76.08 93.58,-83.92 104.04,-82.24 100.71,-76.08"/>
<text text-anchor="middle" x="215.5" y="-46.5" font-family="Helvetica,sans-Serif" font-size="10.00"> paramname</text>
</g>
<!-- Node3 -->
<g id="node3" class="node">
<title>Node3</title>
<g id="a_node3"><a xlink:title=" ">
<polygon fill="white" stroke="#bfbfbf" points="174.5,-78.5 174.5,-108.5 327.5,-108.5 327.5,-78.5 174.5,-78.5"/>
<text text-anchor="start" x="182.5" y="-96.5" font-family="Helvetica,sans-Serif" font-size="10.00">character(len=:), dimension</text>
<text text-anchor="middle" x="251" y="-85.5" font-family="Helvetica,sans-Serif" font-size="10.00">(:), allocatable</text>
</a>
</g>
</g>
<!-- Node3&#45;&gt;Node1 -->
<g id="edge2" class="edge">
<title>Node3&#45;&gt;Node1</title>
<path fill="none" stroke="#9a32cd" stroke-dasharray="5,2" d="M251,-68.25C251,-51.78 251,-30.99 251,-19.54"/>
<polygon fill="#9a32cd" stroke="#9a32cd" points="247.5,-68.3 251,-78.3 254.5,-68.3 247.5,-68.3"/>
<text text-anchor="middle" x="267.5" y="-52" font-family="Helvetica,sans-Serif" font-size="10.00"> keys</text>
<text text-anchor="middle" x="267.5" y="-41" font-family="Helvetica,sans-Serif" font-size="10.00">values</text>
</g>
<!-- Node4 -->
<g id="node4" class="node">
<title>Node4</title>
<g id="a_node4"><a xlink:title=" ">
<polygon fill="white" stroke="#bfbfbf" points="345.5,-84 345.5,-103 396.5,-103 396.5,-84 345.5,-84"/>
<text text-anchor="middle" x="371" y="-91" font-family="Helvetica,sans-Serif" font-size="10.00">integer</text>
</a>
</g>
</g>
<!-- Node4&#45;&gt;Node1 -->
<g id="edge3" class="edge">
<title>Node4&#45;&gt;Node1</title>
<path fill="none" stroke="#9a32cd" stroke-dasharray="5,2" d="M349.74,-78.06C324.8,-61.12 284.26,-33.59 263.75,-19.66"/>
<polygon fill="#9a32cd" stroke="#9a32cd" points="347.92,-81.06 358.16,-83.78 351.85,-75.26 347.92,-81.06"/>
<text text-anchor="middle" x="330.5" y="-52" font-family="Helvetica,sans-Serif" font-size="10.00"> id</text>
<text text-anchor="middle" x="330.5" y="-41" font-family="Helvetica,sans-Serif" font-size="10.00">yfid</text>
</g>
</g>
</svg>
