<?xml version="1.0" encoding="UTF-8" standalone="no"?>
<!DOCTYPE svg PUBLIC "-//W3C//DTD SVG 1.1//EN"
 "http://www.w3.org/Graphics/SVG/1.1/DTD/svg11.dtd">
<!-- Generated by graphviz version 2.43.0 (0)
 -->
<!-- Title: ax_type Pages: 1 -->
<svg width="1317pt" height="1083pt"
 viewBox="0.00 0.00 1317.00 1083.50" xmlns="http://www.w3.org/2000/svg" xmlns:xlink="http://www.w3.org/1999/xlink">
<g id="graph0" class="graph" transform="scale(1 1) rotate(0) translate(4 1079.5)">
<title>ax_type</title>
<polygon fill="white" stroke="transparent" points="-4,4 -4,-1079.5 1313,-1079.5 1313,4 -4,4"/>
<!-- Node1 -->
<g id="node1" class="node">
<title>Node1</title>
<g id="a_node1"><a xlink:title=" ">
<polygon fill="#bfbfbf" stroke="black" points="1253,-197 1253,-216 1309,-216 1309,-197 1253,-197"/>
<text text-anchor="middle" x="1281" y="-204" font-family="Helvetica,sans-Serif" font-size="10.00">ax_type</text>
</a>
</g>
</g>
<!-- Node2 -->
<g id="node2" class="node">
<title>Node2</title>
<g id="a_node2"><a xlink:href="group__mpp__domains__mod.html#structmpp__domains__mod_1_1domainug" target="_top" xlink:title="Domain information for managing data on unstructured grids.">
<polygon fill="white" stroke="black" points="1004,-879 1004,-898 1069,-898 1069,-879 1004,-879"/>
<text text-anchor="middle" x="1036.5" y="-886" font-family="Helvetica,sans-Serif" font-size="10.00">domainug</text>
</a>
</g>
</g>
<!-- Node2&#45;&gt;Node1 -->
<g id="edge1" class="edge">
<title>Node2&#45;&gt;Node1</title>
<path fill="none" stroke="#9a32cd" stroke-dasharray="5,2" d="M1048.35,-870.16C1081.72,-812.92 1183.68,-631.62 1235,-468.5 1265.06,-372.97 1276.49,-251.14 1279.28,-216.24"/>
<polygon fill="#9a32cd" stroke="#9a32cd" points="1045.31,-868.43 1043.27,-878.82 1051.35,-871.97 1045.31,-868.43"/>
<text text-anchor="middle" x="1172.5" y="-754.5" font-family="Helvetica,sans-Serif" font-size="10.00"> domain_ug</text>
</g>
<!-- Node2&#45;&gt;Node2 -->
<g id="edge33" class="edge">
<title>Node2&#45;&gt;Node2</title>
<path fill="none" stroke="#9a32cd" stroke-dasharray="5,2" d="M1017.61,-907.9C1018.87,-912.81 1025.17,-916.5 1036.5,-916.5 1054.63,-916.5 1059.87,-907.06 1052.22,-898.26"/>
<polygon fill="#9a32cd" stroke="#9a32cd" points="1020.98,-908.85 1020.78,-898.26 1014.33,-906.66 1020.98,-908.85"/>
<text text-anchor="middle" x="1036.5" y="-919.5" font-family="Helvetica,sans-Serif" font-size="10.00"> io_domain</text>
</g>
<!-- Node3 -->
<g id="node3" class="node">
<title>Node3</title>
<g id="a_node3"><a xlink:href="group__mpp__domains__mod.html#structmpp__domains__mod_1_1unstruct__domain__spec" target="_top" xlink:title="Private type for axis specification data for an unstructured domain.">
<polygon fill="white" stroke="black" points="375,-883 375,-902 501,-902 501,-883 375,-883"/>
<text text-anchor="middle" x="438" y="-890" font-family="Helvetica,sans-Serif" font-size="10.00">unstruct_domain_spec</text>
</a>
</g>
</g>
<!-- Node3&#45;&gt;Node2 -->
<g id="edge2" class="edge">
<title>Node3&#45;&gt;Node2</title>
<path fill="none" stroke="#9a32cd" stroke-dasharray="5,2" d="M511.44,-892.01C641.95,-891.14 911.59,-889.33 1003.78,-888.71"/>
<polygon fill="#9a32cd" stroke="#9a32cd" points="511.12,-888.52 501.15,-892.08 511.17,-895.52 511.12,-888.52"/>
<text text-anchor="middle" x="759.5" y="-892.5" font-family="Helvetica,sans-Serif" font-size="10.00"> list</text>
</g>
<!-- Node4 -->
<g id="node4" class="node">
<title>Node4</title>
<g id="a_node4"><a xlink:href="group__mpp__domains__mod.html#structmpp__domains__mod_1_1unstruct__axis__spec" target="_top" xlink:title="Private type for axis specification data for an unstructured grid.">
<polygon fill="white" stroke="black" points="162.5,-887 162.5,-906 272.5,-906 272.5,-887 162.5,-887"/>
<text text-anchor="middle" x="217.5" y="-894" font-family="Helvetica,sans-Serif" font-size="10.00">unstruct_axis_spec</text>
</a>
</g>
</g>
<!-- Node4&#45;&gt;Node2 -->
<g id="edge6" class="edge">
<title>Node4&#45;&gt;Node2</title>
<path fill="none" stroke="#9a32cd" stroke-dasharray="5,2" d="M262,-908.61C305.82,-919.73 375.56,-934.5 437,-934.5 437,-934.5 437,-934.5 842,-934.5 904.5,-934.5 975.35,-911.5 1011.5,-898.03"/>
<polygon fill="#9a32cd" stroke="#9a32cd" points="262.8,-905.21 252.25,-906.09 261.05,-911.98 262.8,-905.21"/>
<text text-anchor="middle" x="666.5" y="-948.5" font-family="Helvetica,sans-Serif" font-size="10.00"> compute</text>
<text text-anchor="middle" x="666.5" y="-937.5" font-family="Helvetica,sans-Serif" font-size="10.00">global</text>
</g>
<!-- Node4&#45;&gt;Node3 -->
<g id="edge3" class="edge">
<title>Node4&#45;&gt;Node3</title>
<path fill="none" stroke="#9a32cd" stroke-dasharray="5,2" d="M282.56,-895.33C311.62,-894.79 345.87,-894.17 374.72,-893.64"/>
<polygon fill="#9a32cd" stroke="#9a32cd" points="282.45,-891.83 272.51,-895.51 282.57,-898.83 282.45,-891.83"/>
<text text-anchor="middle" x="327.5" y="-897.5" font-family="Helvetica,sans-Serif" font-size="10.00"> compute</text>
</g>
<!-- Node5 -->
<g id="node5" class="node">
<title>Node5</title>
<g id="a_node5"><a xlink:title=" ">
<polygon fill="white" stroke="#bfbfbf" points="0,-610 0,-629 51,-629 51,-610 0,-610"/>
<text text-anchor="middle" x="25.5" y="-617" font-family="Helvetica,sans-Serif" font-size="10.00">integer</text>
</a>
</g>
</g>
<!-- Node5&#45;&gt;Node1 -->
<g id="edge46" class="edge">
<title>Node5&#45;&gt;Node1</title>
<path fill="none" stroke="#9a32cd" stroke-dasharray="5,2" d="M27.54,-599.61C31.38,-529.96 45.73,-300.11 69,-277.5 116.23,-231.62 150.65,-263.5 216.5,-263.5 216.5,-263.5 216.5,-263.5 1037.5,-263.5 1126.28,-263.5 1151.46,-263.57 1235,-233.5 1246.49,-229.36 1258.28,-222.16 1266.91,-216.23"/>
<polygon fill="#9a32cd" stroke="#9a32cd" points="24.04,-599.51 27,-609.69 31.03,-599.89 24.04,-599.51"/>
<text text-anchor="middle" x="666.5" y="-310.5" font-family="Helvetica,sans-Serif" font-size="10.00"> dimlen</text>
<text text-anchor="middle" x="666.5" y="-299.5" font-family="Helvetica,sans-Serif" font-size="10.00">idx</text>
<text text-anchor="middle" x="666.5" y="-288.5" font-family="Helvetica,sans-Serif" font-size="10.00">imin</text>
<text text-anchor="middle" x="666.5" y="-277.5" font-family="Helvetica,sans-Serif" font-size="10.00">nelems</text>
<text text-anchor="middle" x="666.5" y="-266.5" font-family="Helvetica,sans-Serif" font-size="10.00">sense</text>
</g>
<!-- Node5&#45;&gt;Node2 -->
<g id="edge38" class="edge">
<title>Node5&#45;&gt;Node2</title>
<path fill="none" stroke="#9a32cd" stroke-dasharray="5,2" d="M29.14,-639.33C34.59,-677.07 48.35,-757.02 69,-774.5 119.3,-817.06 150.61,-789.5 216.5,-789.5 216.5,-789.5 216.5,-789.5 842,-789.5 919.73,-789.5 997.66,-853.6 1025.14,-878.64"/>
<polygon fill="#9a32cd" stroke="#9a32cd" points="32.56,-638.51 27.72,-629.09 25.63,-639.48 32.56,-638.51"/>
<text text-anchor="middle" x="554.5" y="-869.5" font-family="Helvetica,sans-Serif" font-size="10.00"> grid_index</text>
<text text-anchor="middle" x="554.5" y="-858.5" font-family="Helvetica,sans-Serif" font-size="10.00">npes_io_group</text>
<text text-anchor="middle" x="554.5" y="-847.5" font-family="Helvetica,sans-Serif" font-size="10.00">ntiles</text>
<text text-anchor="middle" x="554.5" y="-836.5" font-family="Helvetica,sans-Serif" font-size="10.00">pe</text>
<text text-anchor="middle" x="554.5" y="-825.5" font-family="Helvetica,sans-Serif" font-size="10.00">pos</text>
<text text-anchor="middle" x="554.5" y="-814.5" font-family="Helvetica,sans-Serif" font-size="10.00">tile_id</text>
<text text-anchor="middle" x="554.5" y="-803.5" font-family="Helvetica,sans-Serif" font-size="10.00">tile_npes</text>
<text text-anchor="middle" x="554.5" y="-792.5" font-family="Helvetica,sans-Serif" font-size="10.00">tile_root_pe</text>
</g>
<!-- Node5&#45;&gt;Node3 -->
<g id="edge5" class="edge">
<title>Node5&#45;&gt;Node3</title>
<path fill="none" stroke="#9a32cd" stroke-dasharray="5,2" d="M28.38,-639.3C32.84,-682.03 45.51,-780.82 69,-803.5 137.73,-869.86 187.31,-821.39 280,-844.5 325.63,-855.87 377.66,-872.53 408.89,-882.93"/>
<polygon fill="#9a32cd" stroke="#9a32cd" points="31.86,-638.89 27.38,-629.29 24.89,-639.59 31.86,-638.89"/>
<text text-anchor="middle" x="217.5" y="-869.5" font-family="Helvetica,sans-Serif" font-size="10.00"> pe</text>
<text text-anchor="middle" x="217.5" y="-858.5" font-family="Helvetica,sans-Serif" font-size="10.00">pos</text>
<text text-anchor="middle" x="217.5" y="-847.5" font-family="Helvetica,sans-Serif" font-size="10.00">tile_id</text>
</g>
<!-- Node5&#45;&gt;Node4 -->
<g id="edge4" class="edge">
<title>Node5&#45;&gt;Node4</title>
<path fill="none" stroke="#9a32cd" stroke-dasharray="5,2" d="M27.68,-639.22C31.01,-688.53 42.06,-815.46 69,-846.5 89.91,-870.59 106.78,-859.26 137,-869.5 154.12,-875.3 173.31,-881.82 188.54,-886.99"/>
<polygon fill="#9a32cd" stroke="#9a32cd" points="31.17,-638.95 27.04,-629.19 24.18,-639.39 31.17,-638.95"/>
<text text-anchor="middle" x="103" y="-927.5" font-family="Helvetica,sans-Serif" font-size="10.00"> begin</text>
<text text-anchor="middle" x="103" y="-916.5" font-family="Helvetica,sans-Serif" font-size="10.00">begin_index</text>
<text text-anchor="middle" x="103" y="-905.5" font-family="Helvetica,sans-Serif" font-size="10.00">end</text>
<text text-anchor="middle" x="103" y="-894.5" font-family="Helvetica,sans-Serif" font-size="10.00">end_index</text>
<text text-anchor="middle" x="103" y="-883.5" font-family="Helvetica,sans-Serif" font-size="10.00">max_size</text>
<text text-anchor="middle" x="103" y="-872.5" font-family="Helvetica,sans-Serif" font-size="10.00">size</text>
</g>
<!-- Node6 -->
<g id="node6" class="node">
<title>Node6</title>
<g id="a_node6"><a xlink:href="group__mpp__domains__mod.html#structmpp__domains__mod_1_1domain2d" target="_top" xlink:title="The domain2D type contains all the necessary information to define the global, compute and data domai...">
<polygon fill="white" stroke="black" points="808.5,-461 808.5,-480 873.5,-480 873.5,-461 808.5,-461"/>
<text text-anchor="middle" x="841" y="-468" font-family="Helvetica,sans-Serif" font-size="10.00">domain2d</text>
</a>
</g>
</g>
<!-- Node5&#45;&gt;Node6 -->
<g id="edge31" class="edge">
<title>Node5&#45;&gt;Node6</title>
<path fill="none" stroke="#9a32cd" stroke-dasharray="5,2" d="M28.6,-599.89C33.37,-559.36 46.38,-468.5 69,-448.5 165.59,-363.08 244.03,-475.66 357,-413.5 368.07,-407.41 363.58,-396.91 375,-391.5 425.61,-367.52 447.97,-373.51 501,-391.5 557.74,-410.74 551.48,-453.63 608,-473.5 676.02,-497.41 762.35,-486.42 808.12,-477.64"/>
<polygon fill="#9a32cd" stroke="#9a32cd" points="25.12,-599.55 27.48,-609.88 32.07,-600.34 25.12,-599.55"/>
<text text-anchor="middle" x="438" y="-504.5" font-family="Helvetica,sans-Serif" font-size="10.00"> ehalo</text>
<text text-anchor="middle" x="438" y="-493.5" font-family="Helvetica,sans-Serif" font-size="10.00">fold</text>
<text text-anchor="middle" x="438" y="-482.5" font-family="Helvetica,sans-Serif" font-size="10.00">io_layout</text>
<text text-anchor="middle" x="438" y="-471.5" font-family="Helvetica,sans-Serif" font-size="10.00">max_ntile_pe</text>
<text text-anchor="middle" x="438" y="-460.5" font-family="Helvetica,sans-Serif" font-size="10.00">ncontacts</text>
<text text-anchor="middle" x="438" y="-449.5" font-family="Helvetica,sans-Serif" font-size="10.00">nhalo</text>
<text text-anchor="middle" x="438" y="-438.5" font-family="Helvetica,sans-Serif" font-size="10.00">ntiles</text>
<text text-anchor="middle" x="438" y="-427.5" font-family="Helvetica,sans-Serif" font-size="10.00">pe</text>
<text text-anchor="middle" x="438" y="-416.5" font-family="Helvetica,sans-Serif" font-size="10.00">pearray</text>
<text text-anchor="middle" x="438" y="-405.5" font-family="Helvetica,sans-Serif" font-size="10.00">pos</text>
<text text-anchor="middle" x="438" y="-394.5" font-family="Helvetica,sans-Serif" font-size="10.00">...</text>
</g>
<!-- Node8 -->
<g id="node8" class="node">
<title>Node8</title>
<g id="a_node8"><a xlink:href="group__mpp__domains__mod.html#structmpp__domains__mod_1_1domain1d" target="_top" xlink:title="One dimensional domain used to manage shared data access between pes.">
<polygon fill="white" stroke="black" points="405.5,-295 405.5,-314 470.5,-314 470.5,-295 405.5,-295"/>
<text text-anchor="middle" x="438" y="-302" font-family="Helvetica,sans-Serif" font-size="10.00">domain1d</text>
</a>
</g>
</g>
<!-- Node5&#45;&gt;Node8 -->
<g id="edge15" class="edge">
<title>Node5&#45;&gt;Node8</title>
<path fill="none" stroke="#9a32cd" stroke-dasharray="5,2" d="M28.4,-599.71C33.13,-554.02 46.67,-442.83 69,-413.5 82,-396.42 134.53,-375.95 155,-369.5 241.44,-342.25 270.03,-367.02 357,-341.5 379.76,-334.82 404.29,-322.66 420.1,-314.11"/>
<polygon fill="#9a32cd" stroke="#9a32cd" points="24.9,-599.53 27.39,-609.83 31.87,-600.23 24.9,-599.53"/>
<text text-anchor="middle" x="217.5" y="-405.5" font-family="Helvetica,sans-Serif" font-size="10.00"> goffset</text>
<text text-anchor="middle" x="217.5" y="-394.5" font-family="Helvetica,sans-Serif" font-size="10.00">loffset</text>
<text text-anchor="middle" x="217.5" y="-383.5" font-family="Helvetica,sans-Serif" font-size="10.00">pe</text>
<text text-anchor="middle" x="217.5" y="-372.5" font-family="Helvetica,sans-Serif" font-size="10.00">pos</text>
</g>
<!-- Node9 -->
<g id="node9" class="node">
<title>Node9</title>
<g id="a_node9"><a xlink:href="group__mpp__domains__mod.html#structmpp__domains__mod_1_1domain__axis__spec" target="_top" xlink:title="Used to specify index limits along an axis of a domain.">
<polygon fill="white" stroke="black" points="164,-296 164,-315 271,-315 271,-296 164,-296"/>
<text text-anchor="middle" x="217.5" y="-303" font-family="Helvetica,sans-Serif" font-size="10.00">domain_axis_spec</text>
</a>
</g>
</g>
<!-- Node5&#45;&gt;Node9 -->
<g id="edge14" class="edge">
<title>Node5&#45;&gt;Node9</title>
<path fill="none" stroke="#9a32cd" stroke-dasharray="5,2" d="M26.53,-599.81C27.04,-541.25 31.76,-369.8 69,-331.5 93.11,-306.71 131.98,-300.66 163.77,-300.57"/>
<polygon fill="#9a32cd" stroke="#9a32cd" points="23.03,-599.93 26.47,-609.95 30.03,-599.97 23.03,-599.93"/>
<text text-anchor="middle" x="103" y="-367.5" font-family="Helvetica,sans-Serif" font-size="10.00"> begin</text>
<text text-anchor="middle" x="103" y="-356.5" font-family="Helvetica,sans-Serif" font-size="10.00">end</text>
<text text-anchor="middle" x="103" y="-345.5" font-family="Helvetica,sans-Serif" font-size="10.00">max_size</text>
<text text-anchor="middle" x="103" y="-334.5" font-family="Helvetica,sans-Serif" font-size="10.00">size</text>
</g>
<!-- Node11 -->
<g id="node11" class="node">
<title>Node11</title>
<g id="a_node11"><a xlink:href="group__mpp__domains__mod.html#structmpp__domains__mod_1_1overlapspec" target="_top" xlink:title="Private type for overlap specifications.">
<polygon fill="white" stroke="black" points="400,-598 400,-617 476,-617 476,-598 400,-598"/>
<text text-anchor="middle" x="438" y="-605" font-family="Helvetica,sans-Serif" font-size="10.00">overlapspec</text>
</a>
</g>
</g>
<!-- Node5&#45;&gt;Node11 -->
<g id="edge23" class="edge">
<title>Node5&#45;&gt;Node11</title>
<path fill="none" stroke="#9a32cd" stroke-dasharray="5,2" d="M35.69,-638.52C42.85,-650.99 54.1,-666.26 69,-673.5 96.19,-686.7 113.02,-691.89 137,-673.5 161.47,-654.74 130.53,-625.26 155,-606.5 199.09,-572.69 224.53,-603.43 280,-606.5 288.04,-606.94 289.96,-608.05 298,-608.5 324.18,-609.95 330.78,-608.66 357,-608.5 371.03,-608.41 386.44,-608.24 399.96,-608.06"/>
<polygon fill="#9a32cd" stroke="#9a32cd" points="38.6,-636.54 30.82,-629.34 32.41,-639.81 38.6,-636.54"/>
<text text-anchor="middle" x="217.5" y="-719.5" font-family="Helvetica,sans-Serif" font-size="10.00"> ehalo</text>
<text text-anchor="middle" x="217.5" y="-708.5" font-family="Helvetica,sans-Serif" font-size="10.00">nhalo</text>
<text text-anchor="middle" x="217.5" y="-697.5" font-family="Helvetica,sans-Serif" font-size="10.00">nrecv</text>
<text text-anchor="middle" x="217.5" y="-686.5" font-family="Helvetica,sans-Serif" font-size="10.00">nsend</text>
<text text-anchor="middle" x="217.5" y="-675.5" font-family="Helvetica,sans-Serif" font-size="10.00">recvsize</text>
<text text-anchor="middle" x="217.5" y="-664.5" font-family="Helvetica,sans-Serif" font-size="10.00">sendsize</text>
<text text-anchor="middle" x="217.5" y="-653.5" font-family="Helvetica,sans-Serif" font-size="10.00">shalo</text>
<text text-anchor="middle" x="217.5" y="-642.5" font-family="Helvetica,sans-Serif" font-size="10.00">whalo</text>
<text text-anchor="middle" x="217.5" y="-631.5" font-family="Helvetica,sans-Serif" font-size="10.00">xbegin</text>
<text text-anchor="middle" x="217.5" y="-620.5" font-family="Helvetica,sans-Serif" font-size="10.00">xend</text>
<text text-anchor="middle" x="217.5" y="-609.5" font-family="Helvetica,sans-Serif" font-size="10.00">...</text>
</g>
<!-- Node12 -->
<g id="node12" class="node">
<title>Node12</title>
<g id="a_node12"><a xlink:href="group__mpp__domains__mod.html#structmpp__domains__mod_1_1overlap__type" target="_top" xlink:title="Type for overlapping data.">
<polygon fill="white" stroke="black" points="177.5,-547 177.5,-566 257.5,-566 257.5,-547 177.5,-547"/>
<text text-anchor="middle" x="217.5" y="-554" font-family="Helvetica,sans-Serif" font-size="10.00">overlap_type</text>
</a>
</g>
</g>
<!-- Node5&#45;&gt;Node12 -->
<g id="edge21" class="edge">
<title>Node5&#45;&gt;Node12</title>
<path fill="none" stroke="#9a32cd" stroke-dasharray="5,2" d="M32.69,-600.49C39.02,-584.48 50.58,-562.63 69,-552.5 105.03,-532.69 153.86,-539.29 185.28,-546.97"/>
<polygon fill="#9a32cd" stroke="#9a32cd" points="29.36,-599.38 29.26,-609.98 35.95,-601.76 29.36,-599.38"/>
<text text-anchor="middle" x="103" y="-665.5" font-family="Helvetica,sans-Serif" font-size="10.00"> count</text>
<text text-anchor="middle" x="103" y="-654.5" font-family="Helvetica,sans-Serif" font-size="10.00">dir</text>
<text text-anchor="middle" x="103" y="-643.5" font-family="Helvetica,sans-Serif" font-size="10.00">ie</text>
<text text-anchor="middle" x="103" y="-632.5" font-family="Helvetica,sans-Serif" font-size="10.00">index</text>
<text text-anchor="middle" x="103" y="-621.5" font-family="Helvetica,sans-Serif" font-size="10.00">is</text>
<text text-anchor="middle" x="103" y="-610.5" font-family="Helvetica,sans-Serif" font-size="10.00">je</text>
<text text-anchor="middle" x="103" y="-599.5" font-family="Helvetica,sans-Serif" font-size="10.00">js</text>
<text text-anchor="middle" x="103" y="-588.5" font-family="Helvetica,sans-Serif" font-size="10.00">msgsize</text>
<text text-anchor="middle" x="103" y="-577.5" font-family="Helvetica,sans-Serif" font-size="10.00">pe</text>
<text text-anchor="middle" x="103" y="-566.5" font-family="Helvetica,sans-Serif" font-size="10.00">rotation</text>
<text text-anchor="middle" x="103" y="-555.5" font-family="Helvetica,sans-Serif" font-size="10.00">...</text>
</g>
<!-- Node13 -->
<g id="node13" class="node">
<title>Node13</title>
<g id="a_node13"><a xlink:href="group__mpp__domains__mod.html#structmpp__domains__mod_1_1domain2d__spec" target="_top" xlink:title="Private type to specify multiple index limits and pe information for a 2D domain.">
<polygon fill="white" stroke="black" points="620,-522 620,-541 713,-541 713,-522 620,-522"/>
<text text-anchor="middle" x="666.5" y="-529" font-family="Helvetica,sans-Serif" font-size="10.00">domain2d_spec</text>
</a>
</g>
</g>
<!-- Node5&#45;&gt;Node13 -->
<g id="edge28" class="edge">
<title>Node5&#45;&gt;Node13</title>
<path fill="none" stroke="#9a32cd" stroke-dasharray="5,2" d="M30.32,-599.71C35.37,-579.5 46.43,-549.07 69,-534.5 122.8,-499.77 300.01,-496.31 357,-525.5 369.19,-531.74 362.92,-544.05 375,-550.5 431.48,-580.68 454.97,-554.39 519,-555.5 550.55,-556.05 558.82,-560.34 590,-555.5 607.8,-552.74 627.16,-546.52 641.81,-541.1"/>
<polygon fill="#9a32cd" stroke="#9a32cd" points="26.85,-599.21 28.09,-609.73 33.68,-600.72 26.85,-599.21"/>
<text text-anchor="middle" x="327.5" y="-561.5" font-family="Helvetica,sans-Serif" font-size="10.00"> pe</text>
<text text-anchor="middle" x="327.5" y="-550.5" font-family="Helvetica,sans-Serif" font-size="10.00">pos</text>
<text text-anchor="middle" x="327.5" y="-539.5" font-family="Helvetica,sans-Serif" font-size="10.00">tile_id</text>
<text text-anchor="middle" x="327.5" y="-528.5" font-family="Helvetica,sans-Serif" font-size="10.00">tile_root_pe</text>
</g>
<!-- Node14 -->
<g id="node14" class="node">
<title>Node14</title>
<g id="a_node14"><a xlink:href="group__mpp__domains__mod.html#structmpp__domains__mod_1_1domain1d__spec" target="_top" xlink:title="A private type used to specify index limits for a domain decomposition.">
<polygon fill="white" stroke="black" points="391.5,-522 391.5,-541 484.5,-541 484.5,-522 391.5,-522"/>
<text text-anchor="middle" x="438" y="-529" font-family="Helvetica,sans-Serif" font-size="10.00">domain1d_spec</text>
</a>
</g>
</g>
<!-- Node5&#45;&gt;Node14 -->
<g id="edge27" class="edge">
<title>Node5&#45;&gt;Node14</title>
<path fill="none" stroke="#9a32cd" stroke-dasharray="5,2" d="M29.32,-599.65C34.93,-563.38 48.71,-488.73 69,-473.5 106.38,-445.45 187.27,-439.05 357,-496.5 365.88,-499.5 366.59,-503.35 375,-507.5 385.87,-512.87 398.25,-517.87 409.08,-521.9"/>
<polygon fill="#9a32cd" stroke="#9a32cd" points="25.8,-599.55 27.79,-609.95 32.72,-600.58 25.8,-599.55"/>
<text text-anchor="middle" x="217.5" y="-475.5" font-family="Helvetica,sans-Serif" font-size="10.00"> pos</text>
</g>
<!-- Node15 -->
<g id="node15" class="node">
<title>Node15</title>
<g id="a_node15"><a xlink:href="group__mpp__domains__mod.html#structmpp__domains__mod_1_1tile__type" target="_top" xlink:title="Upper and lower x and y bounds for a tile.">
<polygon fill="white" stroke="black" points="298,-742 298,-761 357,-761 357,-742 298,-742"/>
<text text-anchor="middle" x="327.5" y="-749" font-family="Helvetica,sans-Serif" font-size="10.00">tile_type</text>
</a>
</g>
</g>
<!-- Node5&#45;&gt;Node15 -->
<g id="edge30" class="edge">
<title>Node5&#45;&gt;Node15</title>
<path fill="none" stroke="#9a32cd" stroke-dasharray="5,2" d="M31.75,-638.94C37.77,-657.58 49.41,-685.23 69,-701.5 103.59,-730.23 238.07,-744.39 297.73,-749.36"/>
<polygon fill="#9a32cd" stroke="#9a32cd" points="35.05,-637.75 28.84,-629.16 28.34,-639.74 35.05,-637.75"/>
<text text-anchor="middle" x="103" y="-762.5" font-family="Helvetica,sans-Serif" font-size="10.00"> xbegin</text>
<text text-anchor="middle" x="103" y="-751.5" font-family="Helvetica,sans-Serif" font-size="10.00">xend</text>
<text text-anchor="middle" x="103" y="-740.5" font-family="Helvetica,sans-Serif" font-size="10.00">ybegin</text>
<text text-anchor="middle" x="103" y="-729.5" font-family="Helvetica,sans-Serif" font-size="10.00">yend</text>
</g>
<!-- Node17 -->
<g id="node17" class="node">
<title>Node17</title>
<g id="a_node17"><a xlink:href="group__mpp__domains__mod.html#structmpp__domains__mod_1_1unstruct__pass__type" target="_top" xlink:title="Private type.">
<polygon fill="white" stroke="black" points="382.5,-1001 382.5,-1020 493.5,-1020 493.5,-1001 382.5,-1001"/>
<text text-anchor="middle" x="438" y="-1008" font-family="Helvetica,sans-Serif" font-size="10.00">unstruct_pass_type</text>
</a>
</g>
</g>
<!-- Node5&#45;&gt;Node17 -->
<g id="edge37" class="edge">
<title>Node5&#45;&gt;Node17</title>
<path fill="none" stroke="#9a32cd" stroke-dasharray="5,2" d="M27.2,-639.39C30.06,-714.47 41.95,-977.75 69,-1002.5 165.89,-1091.15 344.36,-1042.63 411,-1020.04"/>
<polygon fill="#9a32cd" stroke="#9a32cd" points="30.7,-639.23 26.83,-629.37 23.71,-639.49 30.7,-639.23"/>
<text text-anchor="middle" x="217.5" y="-1067.5" font-family="Helvetica,sans-Serif" font-size="10.00"> nrecv</text>
<text text-anchor="middle" x="217.5" y="-1056.5" font-family="Helvetica,sans-Serif" font-size="10.00">nsend</text>
</g>
<!-- Node18 -->
<g id="node18" class="node">
<title>Node18</title>
<g id="a_node18"><a xlink:href="group__mpp__domains__mod.html#structmpp__domains__mod_1_1unstruct__overlap__type" target="_top" xlink:title="Private type.">
<polygon fill="white" stroke="black" points="155,-954 155,-973 280,-973 280,-954 155,-954"/>
<text text-anchor="middle" x="217.5" y="-961" font-family="Helvetica,sans-Serif" font-size="10.00">unstruct_overlap_type</text>
</a>
</g>
</g>
<!-- Node5&#45;&gt;Node18 -->
<g id="edge36" class="edge">
<title>Node5&#45;&gt;Node18</title>
<path fill="none" stroke="#9a32cd" stroke-dasharray="5,2" d="M26.26,-639.43C25.95,-701.95 28.41,-892.66 69,-935.5 80.88,-948.03 119.97,-955.09 154.93,-958.99"/>
<polygon fill="#9a32cd" stroke="#9a32cd" points="29.76,-639.34 26.35,-629.31 22.76,-639.28 29.76,-639.34"/>
<text text-anchor="middle" x="103" y="-991.5" font-family="Helvetica,sans-Serif" font-size="10.00"> count</text>
<text text-anchor="middle" x="103" y="-980.5" font-family="Helvetica,sans-Serif" font-size="10.00">i</text>
<text text-anchor="middle" x="103" y="-969.5" font-family="Helvetica,sans-Serif" font-size="10.00">j</text>
<text text-anchor="middle" x="103" y="-958.5" font-family="Helvetica,sans-Serif" font-size="10.00">pe</text>
</g>
<!-- Node6&#45;&gt;Node1 -->
<g id="edge40" class="edge">
<title>Node6&#45;&gt;Node1</title>
<path fill="none" stroke="#9a32cd" stroke-dasharray="5,2" d="M883.46,-458.48C960.23,-434.57 1126.56,-374.77 1235,-277.5 1254.77,-259.76 1269.17,-231.36 1275.85,-216.42"/>
<polygon fill="#9a32cd" stroke="#9a32cd" points="882.21,-455.21 873.68,-461.49 884.26,-461.9 882.21,-455.21"/>
<text text-anchor="middle" x="1036.5" y="-425.5" font-family="Helvetica,sans-Serif" font-size="10.00"> domain</text>
</g>
<!-- Node6&#45;&gt;Node2 -->
<g id="edge7" class="edge">
<title>Node6&#45;&gt;Node2</title>
<path fill="none" stroke="#9a32cd" stroke-dasharray="5,2" d="M850.73,-489.36C884.53,-562.37 1006.1,-824.98 1031.02,-878.82"/>
<polygon fill="#9a32cd" stroke="#9a32cd" points="853.78,-487.62 846.41,-480.01 847.43,-490.56 853.78,-487.62"/>
<text text-anchor="middle" x="934.5" y="-731.5" font-family="Helvetica,sans-Serif" font-size="10.00"> sg_domain</text>
</g>
<!-- Node6&#45;&gt;Node6 -->
<g id="edge17" class="edge">
<title>Node6&#45;&gt;Node6</title>
<path fill="none" stroke="#9a32cd" stroke-dasharray="5,2" d="M826.27,-490.27C827.42,-495 832.34,-498.5 841,-498.5 855.22,-498.5 859.33,-489.06 853.33,-480.26"/>
<polygon fill="#9a32cd" stroke="#9a32cd" points="829.74,-490.8 828.67,-480.26 822.93,-489.16 829.74,-490.8"/>
<text text-anchor="middle" x="841" y="-501.5" font-family="Helvetica,sans-Serif" font-size="10.00"> io_domain</text>
</g>
<!-- Node7 -->
<g id="node7" class="node">
<title>Node7</title>
<g id="a_node7"><a xlink:title=" ">
<polygon fill="white" stroke="#bfbfbf" points="1,-251 1,-270 50,-270 50,-251 1,-251"/>
<text text-anchor="middle" x="25.5" y="-258" font-family="Helvetica,sans-Serif" font-size="10.00">logical</text>
</a>
</g>
</g>
<!-- Node7&#45;&gt;Node6 -->
<g id="edge8" class="edge">
<title>Node7&#45;&gt;Node6</title>
<path fill="none" stroke="#9a32cd" stroke-dasharray="5,2" d="M47.17,-244.89C80.78,-221.1 150.21,-178.5 216.5,-178.5 216.5,-178.5 216.5,-178.5 667.5,-178.5 801.75,-178.5 833.7,-410.12 839.08,-460.78"/>
<polygon fill="#9a32cd" stroke="#9a32cd" points="45.09,-242.07 39.04,-250.77 49.19,-247.74 45.09,-242.07"/>
<text text-anchor="middle" x="438" y="-203.5" font-family="Helvetica,sans-Serif" font-size="10.00"> initialized</text>
<text text-anchor="middle" x="438" y="-192.5" font-family="Helvetica,sans-Serif" font-size="10.00">rotated_ninety</text>
<text text-anchor="middle" x="438" y="-181.5" font-family="Helvetica,sans-Serif" font-size="10.00">symmetry</text>
</g>
<!-- Node7&#45;&gt;Node8 -->
<g id="edge10" class="edge">
<title>Node7&#45;&gt;Node8</title>
<path fill="none" stroke="#9a32cd" stroke-dasharray="5,2" d="M60.12,-250.97C63.1,-250.38 66.09,-249.87 69,-249.5 98.98,-245.68 106.9,-246.78 137,-249.5 235.88,-258.42 350.85,-283.77 405.3,-296.71"/>
<polygon fill="#9a32cd" stroke="#9a32cd" points="59.09,-247.61 50.12,-253.26 60.65,-254.44 59.09,-247.61"/>
<text text-anchor="middle" x="217.5" y="-272.5" font-family="Helvetica,sans-Serif" font-size="10.00"> cyclic</text>
</g>
<!-- Node7&#45;&gt;Node9 -->
<g id="edge13" class="edge">
<title>Node7&#45;&gt;Node9</title>
<path fill="none" stroke="#9a32cd" stroke-dasharray="5,2" d="M60.09,-268.45C92.53,-276.14 141.69,-287.78 176.22,-295.96"/>
<polygon fill="#9a32cd" stroke="#9a32cd" points="60.72,-265.01 50.18,-266.11 59.1,-271.82 60.72,-265.01"/>
<text text-anchor="middle" x="103" y="-288.5" font-family="Helvetica,sans-Serif" font-size="10.00"> is_global</text>
</g>
<!-- Node7&#45;&gt;Node12 -->
<g id="edge20" class="edge">
<title>Node7&#45;&gt;Node12</title>
<path fill="none" stroke="#9a32cd" stroke-dasharray="5,2" d="M31.41,-279.81C37.98,-303.86 50.92,-345.77 69,-378.5 99,-432.82 115.05,-441.01 155,-488.5 172.83,-509.69 194.83,-533.49 207.1,-546.56"/>
<polygon fill="#9a32cd" stroke="#9a32cd" points="34.79,-278.89 28.85,-270.11 28.02,-280.68 34.79,-278.89"/>
<text text-anchor="middle" x="103" y="-468.5" font-family="Helvetica,sans-Serif" font-size="10.00"> from_contact</text>
</g>
<!-- Node8&#45;&gt;Node6 -->
<g id="edge9" class="edge">
<title>Node8&#45;&gt;Node6</title>
<path fill="none" stroke="#9a32cd" stroke-dasharray="5,2" d="M473.87,-317.55C507.94,-330.19 561.34,-349.71 608,-365.5 659.66,-382.98 675.2,-380.25 725,-402.5 763.33,-419.62 804.95,-446.53 826.04,-460.82"/>
<polygon fill="#9a32cd" stroke="#9a32cd" points="474.96,-314.22 464.37,-314.02 472.52,-320.78 474.96,-314.22"/>
<text text-anchor="middle" x="666.5" y="-416.5" font-family="Helvetica,sans-Serif" font-size="10.00"> x</text>
<text text-anchor="middle" x="666.5" y="-405.5" font-family="Helvetica,sans-Serif" font-size="10.00">y</text>
</g>
<!-- Node8&#45;&gt;Node8 -->
<g id="edge11" class="edge">
<title>Node8&#45;&gt;Node8</title>
<path fill="none" stroke="#9a32cd" stroke-dasharray="5,2" d="M417.63,-323.9C418.99,-328.81 425.78,-332.5 438,-332.5 457.55,-332.5 463.2,-323.06 454.95,-314.26"/>
<polygon fill="#9a32cd" stroke="#9a32cd" points="421.01,-324.85 421.05,-314.26 414.41,-322.51 421.01,-324.85"/>
<text text-anchor="middle" x="438" y="-335.5" font-family="Helvetica,sans-Serif" font-size="10.00"> list</text>
</g>
<!-- Node9&#45;&gt;Node8 -->
<g id="edge12" class="edge">
<title>Node9&#45;&gt;Node8</title>
<path fill="none" stroke="#9a32cd" stroke-dasharray="5,2" d="M281.22,-298.6C286.89,-298.15 292.54,-297.77 298,-297.5 324.19,-296.18 330.8,-296.36 357,-297.5 372.88,-298.19 390.48,-299.66 405.12,-301.07"/>
<polygon fill="#9a32cd" stroke="#9a32cd" points="280.71,-295.13 271.04,-299.46 281.3,-302.1 280.71,-295.13"/>
<text text-anchor="middle" x="327.5" y="-333.5" font-family="Helvetica,sans-Serif" font-size="10.00"> compute</text>
<text text-anchor="middle" x="327.5" y="-322.5" font-family="Helvetica,sans-Serif" font-size="10.00">data</text>
<text text-anchor="middle" x="327.5" y="-311.5" font-family="Helvetica,sans-Serif" font-size="10.00">global</text>
<text text-anchor="middle" x="327.5" y="-300.5" font-family="Helvetica,sans-Serif" font-size="10.00">memory</text>
</g>
<!-- Node9&#45;&gt;Node14 -->
<g id="edge26" class="edge">
<title>Node9&#45;&gt;Node14</title>
<path fill="none" stroke="#9a32cd" stroke-dasharray="5,2" d="M256.35,-319.09C264.61,-323.02 272.98,-327.82 280,-333.5 324.71,-369.68 332.27,-385.58 357,-437.5 370.81,-466.5 353.66,-483.49 375,-507.5 380.6,-513.8 388.04,-518.45 395.83,-521.9"/>
<polygon fill="#9a32cd" stroke="#9a32cd" points="257.7,-315.86 247.14,-315.02 254.87,-322.26 257.7,-315.86"/>
<text text-anchor="middle" x="327.5" y="-451.5" font-family="Helvetica,sans-Serif" font-size="10.00"> compute</text>
<text text-anchor="middle" x="327.5" y="-440.5" font-family="Helvetica,sans-Serif" font-size="10.00">global</text>
</g>
<!-- Node10 -->
<g id="node10" class="node">
<title>Node10</title>
<g id="a_node10"><a xlink:title=" ">
<polygon fill="white" stroke="#bfbfbf" points="619.5,-337 619.5,-356 713.5,-356 713.5,-337 619.5,-337"/>
<text text-anchor="middle" x="666.5" y="-344" font-family="Helvetica,sans-Serif" font-size="10.00">integer(i8_kind)</text>
</a>
</g>
</g>
<!-- Node10&#45;&gt;Node6 -->
<g id="edge16" class="edge">
<title>Node10&#45;&gt;Node6</title>
<path fill="none" stroke="#9a32cd" stroke-dasharray="5,2" d="M723.8,-348.6C741.71,-351.47 760.8,-357.04 776,-367.5 810.51,-391.26 830.04,-440.32 837.03,-460.99"/>
<polygon fill="#9a32cd" stroke="#9a32cd" points="724.1,-345.11 713.72,-347.24 723.16,-352.04 724.1,-345.11"/>
<text text-anchor="middle" x="759.5" y="-370.5" font-family="Helvetica,sans-Serif" font-size="10.00"> id</text>
</g>
<!-- Node11&#45;&gt;Node6 -->
<g id="edge18" class="edge">
<title>Node11&#45;&gt;Node6</title>
<path fill="none" stroke="#9a32cd" stroke-dasharray="5,2" d="M486.26,-606.52C555.04,-603.07 684.47,-588.76 776,-531.5 799.16,-517.01 821.06,-493.18 832.25,-480"/>
<polygon fill="#9a32cd" stroke="#9a32cd" points="485.99,-603.03 476.16,-606.97 486.31,-610.02 485.99,-603.03"/>
<text text-anchor="middle" x="666.5" y="-704.5" font-family="Helvetica,sans-Serif" font-size="10.00"> bound_c</text>
<text text-anchor="middle" x="666.5" y="-693.5" font-family="Helvetica,sans-Serif" font-size="10.00">bound_e</text>
<text text-anchor="middle" x="666.5" y="-682.5" font-family="Helvetica,sans-Serif" font-size="10.00">bound_n</text>
<text text-anchor="middle" x="666.5" y="-671.5" font-family="Helvetica,sans-Serif" font-size="10.00">check_c</text>
<text text-anchor="middle" x="666.5" y="-660.5" font-family="Helvetica,sans-Serif" font-size="10.00">check_e</text>
<text text-anchor="middle" x="666.5" y="-649.5" font-family="Helvetica,sans-Serif" font-size="10.00">check_n</text>
<text text-anchor="middle" x="666.5" y="-638.5" font-family="Helvetica,sans-Serif" font-size="10.00">update_c</text>
<text text-anchor="middle" x="666.5" y="-627.5" font-family="Helvetica,sans-Serif" font-size="10.00">update_e</text>
<text text-anchor="middle" x="666.5" y="-616.5" font-family="Helvetica,sans-Serif" font-size="10.00">update_n</text>
<text text-anchor="middle" x="666.5" y="-605.5" font-family="Helvetica,sans-Serif" font-size="10.00">update_t</text>
<text text-anchor="middle" x="666.5" y="-594.5" font-family="Helvetica,sans-Serif" font-size="10.00">...</text>
</g>
<!-- Node11&#45;&gt;Node11 -->
<g id="edge22" class="edge">
<title>Node11&#45;&gt;Node11</title>
<path fill="none" stroke="#9a32cd" stroke-dasharray="5,2" d="M417.63,-626.9C418.99,-631.81 425.78,-635.5 438,-635.5 457.55,-635.5 463.2,-626.06 454.95,-617.26"/>
<polygon fill="#9a32cd" stroke="#9a32cd" points="421.01,-627.85 421.05,-617.26 414.41,-625.51 421.01,-627.85"/>
<text text-anchor="middle" x="438" y="-638.5" font-family="Helvetica,sans-Serif" font-size="10.00"> next</text>
</g>
<!-- Node12&#45;&gt;Node11 -->
<g id="edge19" class="edge">
<title>Node12&#45;&gt;Node11</title>
<path fill="none" stroke="#9a32cd" stroke-dasharray="5,2" d="M267.53,-566.58C294.07,-572.17 327.4,-579.41 357,-586.5 371.8,-590.04 388.06,-594.25 402.04,-597.97"/>
<polygon fill="#9a32cd" stroke="#9a32cd" points="268.21,-563.14 257.71,-564.52 266.77,-570 268.21,-563.14"/>
<text text-anchor="middle" x="327.5" y="-600.5" font-family="Helvetica,sans-Serif" font-size="10.00"> recv</text>
<text text-anchor="middle" x="327.5" y="-589.5" font-family="Helvetica,sans-Serif" font-size="10.00">send</text>
</g>
<!-- Node13&#45;&gt;Node6 -->
<g id="edge24" class="edge">
<title>Node13&#45;&gt;Node6</title>
<path fill="none" stroke="#9a32cd" stroke-dasharray="5,2" d="M723.17,-521.87C740.42,-518.04 759.27,-512.98 776,-506.5 794.07,-499.5 813.24,-488.12 825.84,-480.03"/>
<polygon fill="#9a32cd" stroke="#9a32cd" points="722.29,-518.48 713.24,-523.98 723.75,-525.33 722.29,-518.48"/>
<text text-anchor="middle" x="759.5" y="-519.5" font-family="Helvetica,sans-Serif" font-size="10.00"> list</text>
</g>
<!-- Node14&#45;&gt;Node13 -->
<g id="edge25" class="edge">
<title>Node14&#45;&gt;Node13</title>
<path fill="none" stroke="#9a32cd" stroke-dasharray="5,2" d="M495.05,-531.5C533.41,-531.5 583.64,-531.5 619.62,-531.5"/>
<polygon fill="#9a32cd" stroke="#9a32cd" points="494.56,-528 484.56,-531.5 494.56,-535 494.56,-528"/>
<text text-anchor="middle" x="554.5" y="-545.5" font-family="Helvetica,sans-Serif" font-size="10.00"> x</text>
<text text-anchor="middle" x="554.5" y="-534.5" font-family="Helvetica,sans-Serif" font-size="10.00">y</text>
</g>
<!-- Node15&#45;&gt;Node6 -->
<g id="edge29" class="edge">
<title>Node15&#45;&gt;Node6</title>
<path fill="none" stroke="#9a32cd" stroke-dasharray="5,2" d="M367.25,-752.85C455.46,-755.19 668.02,-756.39 725,-716.5 809.97,-657.02 833.83,-518.09 838.86,-480.2"/>
<polygon fill="#9a32cd" stroke="#9a32cd" points="367.22,-749.35 357.12,-752.56 367.02,-756.35 367.22,-749.35"/>
<text text-anchor="middle" x="554.5" y="-754.5" font-family="Helvetica,sans-Serif" font-size="10.00"> tilelist</text>
</g>
<!-- Node16 -->
<g id="node16" class="node">
<title>Node16</title>
<g id="a_node16"><a xlink:title=" ">
<polygon fill="white" stroke="#bfbfbf" points="608,-433.5 608,-463.5 725,-463.5 725,-433.5 608,-433.5"/>
<text text-anchor="start" x="616" y="-451.5" font-family="Helvetica,sans-Serif" font-size="10.00">character(len=name</text>
<text text-anchor="middle" x="666.5" y="-440.5" font-family="Helvetica,sans-Serif" font-size="10.00">_length)</text>
</a>
</g>
</g>
<!-- Node16&#45;&gt;Node6 -->
<g id="edge32" class="edge">
<title>Node16&#45;&gt;Node6</title>
<path fill="none" stroke="#9a32cd" stroke-dasharray="5,2" d="M735.62,-457.19C760.63,-460.38 787.78,-463.84 808.12,-466.43"/>
<polygon fill="#9a32cd" stroke="#9a32cd" points="735.78,-453.68 725.42,-455.89 734.9,-460.62 735.78,-453.68"/>
<text text-anchor="middle" x="759.5" y="-464.5" font-family="Helvetica,sans-Serif" font-size="10.00"> name</text>
</g>
<!-- Node17&#45;&gt;Node2 -->
<g id="edge34" class="edge">
<title>Node17&#45;&gt;Node2</title>
<path fill="none" stroke="#9a32cd" stroke-dasharray="5,2" d="M491.18,-1021.94C590.69,-1040.79 811.2,-1068.11 963,-979.5 997.02,-959.64 1021.28,-917.24 1030.91,-898.15"/>
<polygon fill="#9a32cd" stroke="#9a32cd" points="491.85,-1018.5 481.36,-1020.03 490.51,-1025.37 491.85,-1018.5"/>
<text text-anchor="middle" x="759.5" y="-1052.5" font-family="Helvetica,sans-Serif" font-size="10.00"> sg2ug</text>
<text text-anchor="middle" x="759.5" y="-1041.5" font-family="Helvetica,sans-Serif" font-size="10.00">ug2sg</text>
</g>
<!-- Node18&#45;&gt;Node17 -->
<g id="edge35" class="edge">
<title>Node18&#45;&gt;Node17</title>
<path fill="none" stroke="#9a32cd" stroke-dasharray="5,2" d="M290.2,-969.03C311.86,-971.58 335.57,-975.24 357,-980.5 377.46,-985.52 399.83,-994.2 415.71,-1000.93"/>
<polygon fill="#9a32cd" stroke="#9a32cd" points="290.41,-965.53 280.08,-967.91 289.64,-972.49 290.41,-965.53"/>
<text text-anchor="middle" x="327.5" y="-994.5" font-family="Helvetica,sans-Serif" font-size="10.00"> recv</text>
<text text-anchor="middle" x="327.5" y="-983.5" font-family="Helvetica,sans-Serif" font-size="10.00">send</text>
</g>
<!-- Node19 -->
<g id="node19" class="node">
<title>Node19</title>
<g id="a_node19"><a xlink:title=" ">
<polygon fill="white" stroke="#bfbfbf" points="794,-963 794,-982 888,-982 888,-963 794,-963"/>
<text text-anchor="middle" x="841" y="-970" font-family="Helvetica,sans-Serif" font-size="10.00">integer(i4_kind)</text>
</a>
</g>
</g>
<!-- Node19&#45;&gt;Node2 -->
<g id="edge39" class="edge">
<title>Node19&#45;&gt;Node2</title>
<path fill="none" stroke="#9a32cd" stroke-dasharray="5,2" d="M898.31,-967.23C919.34,-963.76 942.97,-958.02 963,-948.5 989.27,-936.02 1014.06,-911.89 1026.73,-898.34"/>
<polygon fill="#9a32cd" stroke="#9a32cd" points="897.59,-963.8 888.22,-968.75 898.63,-970.72 897.59,-963.8"/>
<text text-anchor="middle" x="934.5" y="-967.5" font-family="Helvetica,sans-Serif" font-size="10.00"> io_layout</text>
</g>
<!-- Node20 -->
<g id="node20" class="node">
<title>Node20</title>
<g id="a_node20"><a xlink:title=" ">
<polygon fill="white" stroke="#bfbfbf" points="981,-216 981,-235 1092,-235 1092,-216 981,-216"/>
<text text-anchor="middle" x="1036.5" y="-223" font-family="Helvetica,sans-Serif" font-size="10.00">character(len=256)</text>
</a>
</g>
</g>
<!-- Node20&#45;&gt;Node1 -->
<g id="edge41" class="edge">
<title>Node20&#45;&gt;Node1</title>
<path fill="none" stroke="#9a32cd" stroke-dasharray="5,2" d="M1102.46,-220.41C1151.63,-216.56 1216.68,-211.46 1252.83,-208.63"/>
<polygon fill="#9a32cd" stroke="#9a32cd" points="1101.92,-216.94 1092.22,-221.21 1102.47,-223.92 1101.92,-216.94"/>
<text text-anchor="middle" x="1172.5" y="-221.5" font-family="Helvetica,sans-Serif" font-size="10.00"> compressed</text>
</g>
<!-- Node21 -->
<g id="node21" class="node">
<title>Node21</title>
<g id="a_node21"><a xlink:title=" ">
<polygon fill="white" stroke="#bfbfbf" points="987.5,-178 987.5,-197 1085.5,-197 1085.5,-178 987.5,-178"/>
<text text-anchor="middle" x="1036.5" y="-185" font-family="Helvetica,sans-Serif" font-size="10.00">integer(int_kind)</text>
</a>
</g>
</g>
<!-- Node21&#45;&gt;Node1 -->
<g id="edge42" class="edge">
<title>Node21&#45;&gt;Node1</title>
<path fill="none" stroke="#9a32cd" stroke-dasharray="5,2" d="M1095.91,-186.14C1135.39,-186.05 1188.59,-187.58 1235,-194.5 1240.76,-195.36 1246.84,-196.68 1252.6,-198.14"/>
<polygon fill="#9a32cd" stroke="#9a32cd" points="1095.65,-182.64 1085.67,-186.19 1095.69,-189.64 1095.65,-182.64"/>
<text text-anchor="middle" x="1172.5" y="-197.5" font-family="Helvetica,sans-Serif" font-size="10.00"> nelems_for_current_rank</text>
</g>
<!-- Node22 -->
<g id="node22" class="node">
<title>Node22</title>
<g id="a_node22"><a xlink:title=" ">
<polygon fill="white" stroke="#bfbfbf" points="987,-140 987,-159 1086,-159 1086,-140 987,-140"/>
<text text-anchor="middle" x="1036.5" y="-147" font-family="Helvetica,sans-Serif" font-size="10.00">character(len=8)</text>
</a>
</g>
</g>
<!-- Node22&#45;&gt;Node1 -->
<g id="edge43" class="edge">
<title>Node22&#45;&gt;Node1</title>
<path fill="none" stroke="#9a32cd" stroke-dasharray="5,2" d="M1096.26,-147.23C1136.69,-147.68 1190.85,-152.33 1235,-170.5 1249.25,-176.36 1262.64,-188.2 1271.05,-196.7"/>
<polygon fill="#9a32cd" stroke="#9a32cd" points="1096.04,-143.73 1086.03,-147.2 1096.02,-150.73 1096.04,-143.73"/>
<text text-anchor="middle" x="1172.5" y="-173.5" font-family="Helvetica,sans-Serif" font-size="10.00"> cartesian</text>
</g>
<!-- Node23 -->
<g id="node23" class="node">
<title>Node23</title>
<g id="a_node23"><a xlink:title=" ">
<polygon fill="white" stroke="#bfbfbf" points="981,-57 981,-76 1092,-76 1092,-57 981,-57"/>
<text text-anchor="middle" x="1036.5" y="-64" font-family="Helvetica,sans-Serif" font-size="10.00">character(len=128)</text>
</a>
</g>
</g>
<!-- Node23&#45;&gt;Node1 -->
<g id="edge44" class="edge">
<title>Node23&#45;&gt;Node1</title>
<path fill="none" stroke="#9a32cd" stroke-dasharray="5,2" d="M1086.33,-55.22C1129.75,-48.17 1192.71,-45.66 1235,-77.5 1273.84,-106.75 1279.33,-171.87 1279.98,-196.66"/>
<polygon fill="#9a32cd" stroke="#9a32cd" points="1085.53,-51.8 1076.29,-56.98 1086.75,-58.7 1085.53,-51.8"/>
<text text-anchor="middle" x="1172.5" y="-135.5" font-family="Helvetica,sans-Serif" font-size="10.00"> calendar</text>
<text text-anchor="middle" x="1172.5" y="-124.5" font-family="Helvetica,sans-Serif" font-size="10.00">dimlen_lname</text>
<text text-anchor="middle" x="1172.5" y="-113.5" font-family="Helvetica,sans-Serif" font-size="10.00">dimlen_name</text>
<text text-anchor="middle" x="1172.5" y="-102.5" font-family="Helvetica,sans-Serif" font-size="10.00">longname</text>
<text text-anchor="middle" x="1172.5" y="-91.5" font-family="Helvetica,sans-Serif" font-size="10.00">name</text>
<text text-anchor="middle" x="1172.5" y="-80.5" font-family="Helvetica,sans-Serif" font-size="10.00">units</text>
</g>
<!-- Node24 -->
<g id="node24" class="node">
<title>Node24</title>
<g id="a_node24"><a xlink:title=" ">
<polygon fill="white" stroke="#bfbfbf" points="1019,-12 1019,-31 1054,-31 1054,-12 1019,-12"/>
<text text-anchor="middle" x="1036.5" y="-19" font-family="Helvetica,sans-Serif" font-size="10.00">real</text>
</a>
</g>
</g>
<!-- Node24&#45;&gt;Node1 -->
<g id="edge45" class="edge">
<title>Node24&#45;&gt;Node1</title>
<path fill="none" stroke="#9a32cd" stroke-dasharray="5,2" d="M1063.62,-13C1104.9,-1.35 1185.58,13.95 1235,-25.5 1262.46,-47.42 1275.7,-162.23 1279.1,-196.7"/>
<polygon fill="#9a32cd" stroke="#9a32cd" points="1062.61,-9.65 1054.02,-15.85 1064.6,-16.36 1062.61,-9.65"/>
<text text-anchor="middle" x="1172.5" y="-39.5" font-family="Helvetica,sans-Serif" font-size="10.00"> data</text>
<text text-anchor="middle" x="1172.5" y="-28.5" font-family="Helvetica,sans-Serif" font-size="10.00">min</text>
</g>
</g>
</svg>
