<?xml version="1.0" encoding="UTF-8" standalone="no"?>
<!DOCTYPE svg PUBLIC "-//W3C//DTD SVG 1.1//EN"
 "http://www.w3.org/Graphics/SVG/1.1/DTD/svg11.dtd">
<!-- Generated by graphviz version 2.43.0 (0)
 -->
<!-- Title: comm_type Pages: 1 -->
<svg width="183pt" height="285pt"
 viewBox="0.00 0.00 183.00 285.00" xmlns="http://www.w3.org/2000/svg" xmlns:xlink="http://www.w3.org/1999/xlink">
<g id="graph0" class="graph" transform="scale(1 1) rotate(0) translate(4 281)">
<title>comm_type</title>
<polygon fill="white" stroke="transparent" points="-4,4 -4,-281 179,-281 179,4 -4,4"/>
<!-- Node1 -->
<g id="node1" class="node">
<title>Node1</title>
<g id="a_node1"><a xlink:title="Private type used for exchange grid communication.">
<polygon fill="#bfbfbf" stroke="black" points="0,-0.5 0,-19.5 74,-19.5 74,-0.5 0,-0.5"/>
<text text-anchor="middle" x="37" y="-7.5" font-family="Helvetica,sans-Serif" font-size="10.00">comm_type</text>
</a>
</g>
</g>
<!-- Node2 -->
<g id="node2" class="node">
<title>Node2</title>
<g id="a_node2"><a xlink:title=" ">
<polygon fill="white" stroke="#bfbfbf" points="10.5,-257.5 10.5,-276.5 61.5,-276.5 61.5,-257.5 10.5,-257.5"/>
<text text-anchor="middle" x="36" y="-264.5" font-family="Helvetica,sans-Serif" font-size="10.00">integer</text>
</a>
</g>
</g>
<!-- Node2&#45;&gt;Node1 -->
<g id="edge1" class="edge">
<title>Node2&#45;&gt;Node1</title>
<path fill="none" stroke="#9a32cd" stroke-dasharray="5,2" d="M34.35,-247.12C31.62,-213.23 26.78,-139.84 30,-78 31.1,-56.98 34.11,-32.39 35.81,-19.65"/>
<polygon fill="#9a32cd" stroke="#9a32cd" points="30.89,-247.7 35.21,-257.37 37.86,-247.12 30.89,-247.7"/>
<text text-anchor="middle" x="58" y="-125" font-family="Helvetica,sans-Serif" font-size="10.00"> nrecv</text>
<text text-anchor="middle" x="58" y="-114" font-family="Helvetica,sans-Serif" font-size="10.00">nsend</text>
<text text-anchor="middle" x="58" y="-103" font-family="Helvetica,sans-Serif" font-size="10.00">recvsize</text>
<text text-anchor="middle" x="58" y="-92" font-family="Helvetica,sans-Serif" font-size="10.00">sendsize</text>
<text text-anchor="middle" x="58" y="-81" font-family="Helvetica,sans-Serif" font-size="10.00">unpack_ind</text>
</g>
<!-- Node3 -->
<g id="node3" class="node">
<title>Node3</title>
<g id="a_node3"><a xlink:href="group__xgrid__mod.html#structxgrid__mod_1_1overlap__type" target="_top" xlink:title="Private type for overlap exchange grid data.">
<polygon fill="white" stroke="black" points="95,-96 95,-115 175,-115 175,-96 95,-96"/>
<text text-anchor="middle" x="135" y="-103" font-family="Helvetica,sans-Serif" font-size="10.00">overlap_type</text>
</a>
</g>
</g>
<!-- Node2&#45;&gt;Node3 -->
<g id="edge4" class="edge">
<title>Node2&#45;&gt;Node3</title>
<path fill="none" stroke="#9a32cd" stroke-dasharray="5,2" d="M38.99,-247.47C43.6,-223.36 54.29,-180.79 76,-151 87.33,-135.45 105.64,-122.84 118.86,-115.07"/>
<polygon fill="#9a32cd" stroke="#9a32cd" points="35.52,-246.96 37.23,-257.41 42.42,-248.17 35.52,-246.96"/>
<text text-anchor="middle" x="103.5" y="-231" font-family="Helvetica,sans-Serif" font-size="10.00"> buffer_pos</text>
<text text-anchor="middle" x="103.5" y="-220" font-family="Helvetica,sans-Serif" font-size="10.00">count</text>
<text text-anchor="middle" x="103.5" y="-209" font-family="Helvetica,sans-Serif" font-size="10.00">g</text>
<text text-anchor="middle" x="103.5" y="-198" font-family="Helvetica,sans-Serif" font-size="10.00">i</text>
<text text-anchor="middle" x="103.5" y="-187" font-family="Helvetica,sans-Serif" font-size="10.00">j</text>
<text text-anchor="middle" x="103.5" y="-176" font-family="Helvetica,sans-Serif" font-size="10.00">pe</text>
<text text-anchor="middle" x="103.5" y="-165" font-family="Helvetica,sans-Serif" font-size="10.00">tile</text>
<text text-anchor="middle" x="103.5" y="-154" font-family="Helvetica,sans-Serif" font-size="10.00">xloc</text>
</g>
<!-- Node3&#45;&gt;Node1 -->
<g id="edge2" class="edge">
<title>Node3&#45;&gt;Node1</title>
<path fill="none" stroke="#9a32cd" stroke-dasharray="5,2" d="M118.48,-88.74C97.63,-68.84 62.49,-35.32 46.02,-19.61"/>
<polygon fill="#9a32cd" stroke="#9a32cd" points="116.3,-91.5 125.96,-95.87 121.14,-86.44 116.3,-91.5"/>
<text text-anchor="middle" x="98.5" y="-52" font-family="Helvetica,sans-Serif" font-size="10.00"> recv</text>
<text text-anchor="middle" x="98.5" y="-41" font-family="Helvetica,sans-Serif" font-size="10.00">send</text>
</g>
<!-- Node4 -->
<g id="node4" class="node">
<title>Node4</title>
<g id="a_node4"><a xlink:title=" ">
<polygon fill="white" stroke="#bfbfbf" points="95.5,-257.5 95.5,-276.5 174.5,-276.5 174.5,-257.5 95.5,-257.5"/>
<text text-anchor="middle" x="135" y="-264.5" font-family="Helvetica,sans-Serif" font-size="10.00">real(r8_kind)</text>
</a>
</g>
</g>
<!-- Node4&#45;&gt;Node3 -->
<g id="edge3" class="edge">
<title>Node4&#45;&gt;Node3</title>
<path fill="none" stroke="#9a32cd" stroke-dasharray="5,2" d="M135,-247.28C135,-212.7 135,-140.05 135,-115.12"/>
<polygon fill="#9a32cd" stroke="#9a32cd" points="131.5,-247.42 135,-257.42 138.5,-247.42 131.5,-247.42"/>
<text text-anchor="middle" x="141.5" y="-198" font-family="Helvetica,sans-Serif" font-size="10.00"> di</text>
<text text-anchor="middle" x="141.5" y="-187" font-family="Helvetica,sans-Serif" font-size="10.00">dj</text>
</g>
</g>
</svg>
