<?xml version="1.0" encoding="UTF-8" standalone="no"?>
<!DOCTYPE svg PUBLIC "-//W3C//DTD SVG 1.1//EN"
 "http://www.w3.org/Graphics/SVG/1.1/DTD/svg11.dtd">
<!-- Generated by graphviz version 2.43.0 (0)
 -->
<!-- Title: method_type_short Pages: 1 -->
<svg width="168pt" height="106pt"
 viewBox="0.00 0.00 168.00 106.00" xmlns="http://www.w3.org/2000/svg" xmlns:xlink="http://www.w3.org/1999/xlink">
<g id="graph0" class="graph" transform="scale(1 1) rotate(0) translate(4 102)">
<title>method_type_short</title>
<polygon fill="white" stroke="transparent" points="-4,4 -4,-102 164,-102 164,4 -4,4"/>
<!-- Node1 -->
<g id="node1" class="node">
<title>Node1</title>
<g id="a_node1"><a xlink:title="This method_type is the same as method_type except that the method_control string is not present....">
<polygon fill="#bfbfbf" stroke="black" points="24.5,-0.5 24.5,-19.5 135.5,-19.5 135.5,-0.5 24.5,-0.5"/>
<text text-anchor="middle" x="80" y="-7.5" font-family="Helvetica,sans-Serif" font-size="10.00">method_type_short</text>
</a>
</g>
</g>
<!-- Node2 -->
<g id="node2" class="node">
<title>Node2</title>
<g id="a_node2"><a xlink:title=" ">
<polygon fill="white" stroke="#bfbfbf" points="0,-78.5 0,-97.5 160,-97.5 160,-78.5 0,-78.5"/>
<text text-anchor="middle" x="80" y="-85.5" font-family="Helvetica,sans-Serif" font-size="10.00">character(len=fm_string_len)</text>
</a>
</g>
</g>
<!-- Node2&#45;&gt;Node1 -->
<g id="edge1" class="edge">
<title>Node2&#45;&gt;Node1</title>
<path fill="none" stroke="#9a32cd" stroke-dasharray="5,2" d="M80,-68.22C80,-52.7 80,-31.36 80,-19.62"/>
<polygon fill="#9a32cd" stroke="#9a32cd" points="76.5,-68.28 80,-78.28 83.5,-68.28 76.5,-68.28"/>
<text text-anchor="middle" x="117" y="-52" font-family="Helvetica,sans-Serif" font-size="10.00"> method_name</text>
<text text-anchor="middle" x="117" y="-41" font-family="Helvetica,sans-Serif" font-size="10.00">method_type</text>
</g>
</g>
</svg>
