<?xml version="1.0" encoding="UTF-8" standalone="no"?>
<!DOCTYPE svg PUBLIC "-//W3C//DTD SVG 1.1//EN"
 "http://www.w3.org/Graphics/SVG/1.1/DTD/svg11.dtd">
<!-- Generated by graphviz version 2.43.0 (0)
 -->
<!-- Title: clock_data_summary Pages: 1 -->
<svg width="397pt" height="183pt"
 viewBox="0.00 0.00 397.00 182.50" xmlns="http://www.w3.org/2000/svg" xmlns:xlink="http://www.w3.org/1999/xlink">
<g id="graph0" class="graph" transform="scale(1 1) rotate(0) translate(4 178.5)">
<title>clock_data_summary</title>
<polygon fill="white" stroke="transparent" points="-4,4 -4,-178.5 393,-178.5 393,4 -4,4"/>
<!-- Node1 -->
<g id="node1" class="node">
<title>Node1</title>
<g id="a_node1"><a xlink:title="Summary of information from a clock run.">
<polygon fill="#bfbfbf" stroke="black" points="268,-83 268,-102 389,-102 389,-83 268,-83"/>
<text text-anchor="middle" x="328.5" y="-90" font-family="Helvetica,sans-Serif" font-size="10.00">clock_data_summary</text>
</a>
</g>
</g>
<!-- Node2 -->
<g id="node2" class="node">
<title>Node2</title>
<g id="a_node2"><a xlink:title=" ">
<polygon fill="white" stroke="#bfbfbf" points="23,-155 23,-174 128,-174 128,-155 23,-155"/>
<text text-anchor="middle" x="75.5" y="-162" font-family="Helvetica,sans-Serif" font-size="10.00">character(len=16)</text>
</a>
</g>
</g>
<!-- Node2&#45;&gt;Node1 -->
<g id="edge1" class="edge">
<title>Node2&#45;&gt;Node1</title>
<path fill="none" stroke="#9a32cd" stroke-dasharray="5,2" d="M138.36,-155.83C171.92,-150.18 213.81,-141.58 250,-129.5 271.64,-122.28 295.09,-110.47 310.47,-102.14"/>
<polygon fill="#9a32cd" stroke="#9a32cd" points="137.53,-152.41 128.23,-157.48 138.67,-159.32 137.53,-152.41"/>
<text text-anchor="middle" x="209.5" y="-152.5" font-family="Helvetica,sans-Serif" font-size="10.00"> name</text>
</g>
<!-- Node3 -->
<g id="node3" class="node">
<title>Node3</title>
<g id="a_node3"><a xlink:title=" ">
<polygon fill="white" stroke="#bfbfbf" points="28.5,-117 28.5,-136 122.5,-136 122.5,-117 28.5,-117"/>
<text text-anchor="middle" x="75.5" y="-124" font-family="Helvetica,sans-Serif" font-size="10.00">integer(i8_kind)</text>
</a>
</g>
</g>
<!-- Node3&#45;&gt;Node1 -->
<g id="edge2" class="edge">
<title>Node3&#45;&gt;Node1</title>
<path fill="none" stroke="#9a32cd" stroke-dasharray="5,2" d="M132.77,-119.76C166.75,-115.59 210.9,-110.01 250,-104.5 255.8,-103.68 261.83,-102.8 267.87,-101.9"/>
<polygon fill="#9a32cd" stroke="#9a32cd" points="132.08,-116.32 122.57,-121.01 132.92,-123.27 132.08,-116.32"/>
<text text-anchor="middle" x="209.5" y="-117.5" font-family="Helvetica,sans-Serif" font-size="10.00"> total_cnts</text>
</g>
<!-- Node4 -->
<g id="node4" class="node">
<title>Node4</title>
<g id="a_node4"><a xlink:title=" ">
<polygon fill="white" stroke="#bfbfbf" points="36,-50 36,-69 115,-69 115,-50 36,-50"/>
<text text-anchor="middle" x="75.5" y="-57" font-family="Helvetica,sans-Serif" font-size="10.00">real(r8_kind)</text>
</a>
</g>
</g>
<!-- Node4&#45;&gt;Node1 -->
<g id="edge3" class="edge">
<title>Node4&#45;&gt;Node1</title>
<path fill="none" stroke="#9a32cd" stroke-dasharray="5,2" d="M125.16,-54.83C160.22,-52.66 208.48,-52.14 250,-60.5 271.55,-64.84 294.64,-75.19 309.96,-82.96"/>
<polygon fill="#9a32cd" stroke="#9a32cd" points="124.92,-51.34 115.18,-55.52 125.39,-58.32 124.92,-51.34"/>
<text text-anchor="middle" x="209.5" y="-96.5" font-family="Helvetica,sans-Serif" font-size="10.00"> total_data</text>
<text text-anchor="middle" x="209.5" y="-85.5" font-family="Helvetica,sans-Serif" font-size="10.00">msg_size_sums</text>
<text text-anchor="middle" x="209.5" y="-74.5" font-family="Helvetica,sans-Serif" font-size="10.00">msg_time_sums</text>
<text text-anchor="middle" x="209.5" y="-63.5" font-family="Helvetica,sans-Serif" font-size="10.00">total_time</text>
</g>
<!-- Node5 -->
<g id="node5" class="node">
<title>Node5</title>
<g id="a_node5"><a xlink:title=" ">
<polygon fill="white" stroke="#bfbfbf" points="0,-0.5 0,-30.5 151,-30.5 151,-0.5 0,-0.5"/>
<text text-anchor="start" x="8" y="-18.5" font-family="Helvetica,sans-Serif" font-size="10.00">integer(i8_kind), dimension</text>
<text text-anchor="middle" x="75.5" y="-7.5" font-family="Helvetica,sans-Serif" font-size="10.00">(max_bins)</text>
</a>
</g>
</g>
<!-- Node5&#45;&gt;Node1 -->
<g id="edge4" class="edge">
<title>Node5&#45;&gt;Node1</title>
<path fill="none" stroke="#9a32cd" stroke-dasharray="5,2" d="M161.16,-17.91C190.09,-20.89 222.16,-26.65 250,-37.5 277.06,-48.05 303.54,-70.09 317.45,-82.83"/>
<polygon fill="#9a32cd" stroke="#9a32cd" points="161.35,-14.41 151.06,-16.97 160.7,-21.38 161.35,-14.41"/>
<text text-anchor="middle" x="209.5" y="-40.5" font-family="Helvetica,sans-Serif" font-size="10.00"> msg_size_cnts</text>
</g>
</g>
</svg>
