<?xml version="1.0" encoding="UTF-8" standalone="no"?>
<!DOCTYPE svg PUBLIC "-//W3C//DTD SVG 1.1//EN"
 "http://www.w3.org/Graphics/SVG/1.1/DTD/svg11.dtd">
<!-- Generated by graphviz version 2.43.0 (0)
 -->
<!-- Title: fmsdiagoutfield_type Pages: 1 -->
<svg width="541pt" height="252pt"
 viewBox="0.00 0.00 540.97 252.00" xmlns="http://www.w3.org/2000/svg" xmlns:xlink="http://www.w3.org/1999/xlink">
<g id="graph0" class="graph" transform="scale(1 1) rotate(0) translate(4 248)">
<title>fmsdiagoutfield_type</title>
<polygon fill="white" stroke="transparent" points="-4,4 -4,-248 536.97,-248 536.97,4 -4,4"/>
<!-- Node1 -->
<g id="node1" class="node">
<title>Node1</title>
<g id="a_node1"><a xlink:title="Class fmsDiagOutfield_type (along with class ms_diag_outfield_index_type ) contain information used i...">
<polygon fill="#bfbfbf" stroke="black" points="196.97,-0.5 196.97,-19.5 316.97,-19.5 316.97,-0.5 196.97,-0.5"/>
<text text-anchor="middle" x="256.97" y="-7.5" font-family="Helvetica,sans-Serif" font-size="10.00">fmsdiagoutfield_type</text>
</a>
</g>
</g>
<!-- Node2 -->
<g id="node2" class="node">
<title>Node2</title>
<g id="a_node2"><a xlink:title=" ">
<polygon fill="white" stroke="#bfbfbf" points="0.47,-224.5 0.47,-243.5 49.47,-243.5 49.47,-224.5 0.47,-224.5"/>
<text text-anchor="middle" x="24.97" y="-231.5" font-family="Helvetica,sans-Serif" font-size="10.00">logical</text>
</a>
</g>
</g>
<!-- Node2&#45;&gt;Node1 -->
<g id="edge1" class="edge">
<title>Node2&#45;&gt;Node1</title>
<path fill="none" stroke="#9a32cd" stroke-dasharray="5,2" d="M16.61,-215.05C5.17,-187.59 -11.31,-134.7 12.97,-100 54.27,-40.98 139.04,-20.96 196.95,-14.25"/>
<polygon fill="#9a32cd" stroke="#9a32cd" points="13.42,-216.49 20.65,-224.24 19.82,-213.68 13.42,-216.49"/>
<text text-anchor="middle" x="59.47" y="-158" font-family="Helvetica,sans-Serif" font-size="10.00"> mask_present</text>
<text text-anchor="middle" x="59.47" y="-147" font-family="Helvetica,sans-Serif" font-size="10.00">mask_variant</text>
<text text-anchor="middle" x="59.47" y="-136" font-family="Helvetica,sans-Serif" font-size="10.00">missvalue_present</text>
<text text-anchor="middle" x="59.47" y="-125" font-family="Helvetica,sans-Serif" font-size="10.00">need_compute</text>
<text text-anchor="middle" x="59.47" y="-114" font-family="Helvetica,sans-Serif" font-size="10.00">phys_window</text>
<text text-anchor="middle" x="59.47" y="-103" font-family="Helvetica,sans-Serif" font-size="10.00">reduced_k_range</text>
</g>
<!-- Node3 -->
<g id="node3" class="node">
<title>Node3</title>
<g id="a_node3"><a xlink:href="group__fms__diag__time__reduction__mod.html#structfms__diag__time__reduction__mod_1_1fmsdiagtimereduction__type" target="_top" xlink:title=" ">
<polygon fill="white" stroke="black" points="114.97,-123.5 114.97,-142.5 266.97,-142.5 266.97,-123.5 114.97,-123.5"/>
<text text-anchor="middle" x="190.97" y="-130.5" font-family="Helvetica,sans-Serif" font-size="10.00">fmsdiagtimereduction_type</text>
</a>
</g>
</g>
<!-- Node2&#45;&gt;Node3 -->
<g id="edge3" class="edge">
<title>Node2&#45;&gt;Node3</title>
<path fill="none" stroke="#9a32cd" stroke-dasharray="5,2" d="M46,-218.65C60.88,-208.64 81.42,-195.14 99.97,-184 125.48,-168.69 155.91,-152.35 174.32,-142.66"/>
<polygon fill="#9a32cd" stroke="#9a32cd" points="43.85,-215.88 37.53,-224.38 47.77,-221.67 43.85,-215.88"/>
<text text-anchor="middle" x="139.97" y="-198" font-family="Helvetica,sans-Serif" font-size="10.00"> time_averaging</text>
<text text-anchor="middle" x="139.97" y="-187" font-family="Helvetica,sans-Serif" font-size="10.00">time_ops</text>
</g>
<!-- Node3&#45;&gt;Node1 -->
<g id="edge2" class="edge">
<title>Node3&#45;&gt;Node1</title>
<path fill="none" stroke="#9a32cd" stroke-dasharray="5,2" d="M190.93,-113.15C191.79,-92.8 195.87,-60.32 211.97,-38 217.73,-30.02 226.64,-23.97 235.02,-19.64"/>
<polygon fill="#9a32cd" stroke="#9a32cd" points="187.43,-113.24 190.73,-123.31 194.43,-113.38 187.43,-113.24"/>
<text text-anchor="middle" x="250.47" y="-57.5" font-family="Helvetica,sans-Serif" font-size="10.00"> time_reduction</text>
</g>
<!-- Node4 -->
<g id="node4" class="node">
<title>Node4</title>
<g id="a_node4"><a xlink:title=" ">
<polygon fill="white" stroke="#bfbfbf" points="220.47,-224.5 220.47,-243.5 271.47,-243.5 271.47,-224.5 220.47,-224.5"/>
<text text-anchor="middle" x="245.97" y="-231.5" font-family="Helvetica,sans-Serif" font-size="10.00">integer</text>
</a>
</g>
</g>
<!-- Node4&#45;&gt;Node1 -->
<g id="edge6" class="edge">
<title>Node4&#45;&gt;Node1</title>
<path fill="none" stroke="#9a32cd" stroke-dasharray="5,2" d="M276.81,-219.18C281.69,-215.6 286.08,-211.24 288.97,-206 307.04,-173.33 304.7,-71.86 288.97,-38 285.42,-30.35 278.52,-24.09 272.03,-19.53"/>
<polygon fill="#9a32cd" stroke="#9a32cd" points="274.94,-216.22 268.31,-224.48 278.64,-222.16 274.94,-216.22"/>
<text text-anchor="middle" x="328.97" y="-130.5" font-family="Helvetica,sans-Serif" font-size="10.00"> pow_value</text>
</g>
<!-- Node4&#45;&gt;Node3 -->
<g id="edge4" class="edge">
<title>Node4&#45;&gt;Node3</title>
<path fill="none" stroke="#9a32cd" stroke-dasharray="5,2" d="M211.07,-222.99C203.13,-219.02 195.66,-213.53 190.97,-206 178.68,-186.27 184.25,-157.2 188.22,-142.78"/>
<polygon fill="#9a32cd" stroke="#9a32cd" points="209.9,-226.3 220.47,-227 212.65,-219.86 209.9,-226.3"/>
<text text-anchor="middle" x="239.97" y="-192.5" font-family="Helvetica,sans-Serif" font-size="10.00"> the_time_reduction</text>
</g>
<!-- Node5 -->
<g id="node5" class="node">
<title>Node5</title>
<g id="a_node5"><a xlink:title=" ">
<polygon fill="white" stroke="#bfbfbf" points="376.97,-123.5 376.97,-142.5 532.97,-142.5 532.97,-123.5 376.97,-123.5"/>
<text text-anchor="middle" x="454.97" y="-130.5" font-family="Helvetica,sans-Serif" font-size="10.00">character(len=:), allocatable</text>
</a>
</g>
</g>
<!-- Node5&#45;&gt;Node1 -->
<g id="edge5" class="edge">
<title>Node5&#45;&gt;Node1</title>
<path fill="none" stroke="#9a32cd" stroke-dasharray="5,2" d="M435.31,-116.98C409.16,-97.38 361.09,-62.7 316.97,-38 304.61,-31.08 290.15,-24.53 278.52,-19.61"/>
<polygon fill="#9a32cd" stroke="#9a32cd" points="433.51,-120.01 443.6,-123.24 437.73,-114.42 433.51,-120.01"/>
<text text-anchor="middle" x="420.97" y="-74" font-family="Helvetica,sans-Serif" font-size="10.00"> field_name</text>
<text text-anchor="middle" x="420.97" y="-63" font-family="Helvetica,sans-Serif" font-size="10.00">module_name</text>
<text text-anchor="middle" x="420.97" y="-52" font-family="Helvetica,sans-Serif" font-size="10.00">output_file</text>
<text text-anchor="middle" x="420.97" y="-41" font-family="Helvetica,sans-Serif" font-size="10.00">output_name</text>
</g>
</g>
</svg>
