<?xml version="1.0" encoding="UTF-8" standalone="no"?>
<!DOCTYPE svg PUBLIC "-//W3C//DTD SVG 1.1//EN"
 "http://www.w3.org/Graphics/SVG/1.1/DTD/svg11.dtd">
<!-- Generated by graphviz version 2.43.0 (0)
 -->
<!-- Title: contact_type Pages: 1 -->
<svg width="118pt" height="205pt"
 viewBox="0.00 0.00 117.50 205.00" xmlns="http://www.w3.org/2000/svg" xmlns:xlink="http://www.w3.org/1999/xlink">
<g id="graph0" class="graph" transform="scale(1 1) rotate(0) translate(4 201)">
<title>contact_type</title>
<polygon fill="white" stroke="transparent" points="-4,4 -4,-201 113.5,-201 113.5,4 -4,4"/>
<!-- Node1 -->
<g id="node1" class="node">
<title>Node1</title>
<g id="a_node1"><a xlink:title="Type used to represent the contact between tiles.">
<polygon fill="#bfbfbf" stroke="black" points="7.5,-0.5 7.5,-19.5 87.5,-19.5 87.5,-0.5 7.5,-0.5"/>
<text text-anchor="middle" x="47.5" y="-7.5" font-family="Helvetica,sans-Serif" font-size="10.00">contact_type</text>
</a>
</g>
</g>
<!-- Node2 -->
<g id="node2" class="node">
<title>Node2</title>
<g id="a_node2"><a xlink:title=" ">
<polygon fill="white" stroke="#bfbfbf" points="0,-177.5 0,-196.5 35,-196.5 35,-177.5 0,-177.5"/>
<text text-anchor="middle" x="17.5" y="-184.5" font-family="Helvetica,sans-Serif" font-size="10.00">real</text>
</a>
</g>
</g>
<!-- Node2&#45;&gt;Node1 -->
<g id="edge1" class="edge">
<title>Node2&#45;&gt;Node1</title>
<path fill="none" stroke="#9a32cd" stroke-dasharray="5,2" d="M13.31,-167.16C7.8,-138.08 0.84,-81.09 19.5,-38 22.67,-30.69 28.86,-24.38 34.62,-19.7"/>
<polygon fill="#9a32cd" stroke="#9a32cd" points="9.93,-168.08 15.37,-177.17 16.79,-166.67 9.93,-168.08"/>
<text text-anchor="middle" x="38" y="-101.5" font-family="Helvetica,sans-Serif" font-size="10.00"> refine1</text>
<text text-anchor="middle" x="38" y="-90.5" font-family="Helvetica,sans-Serif" font-size="10.00">refine2</text>
</g>
<!-- Node3 -->
<g id="node3" class="node">
<title>Node3</title>
<g id="a_node3"><a xlink:title=" ">
<polygon fill="white" stroke="#bfbfbf" points="53,-177.5 53,-196.5 104,-196.5 104,-177.5 53,-177.5"/>
<text text-anchor="middle" x="78.5" y="-184.5" font-family="Helvetica,sans-Serif" font-size="10.00">integer</text>
</a>
</g>
</g>
<!-- Node3&#45;&gt;Node1 -->
<g id="edge2" class="edge">
<title>Node3&#45;&gt;Node1</title>
<path fill="none" stroke="#9a32cd" stroke-dasharray="5,2" d="M76.76,-167.13C73.91,-138.81 67.44,-83.74 56.5,-38 55.03,-31.85 52.78,-25.1 50.9,-19.89"/>
<polygon fill="#9a32cd" stroke="#9a32cd" points="73.29,-167.61 77.73,-177.22 80.26,-166.93 73.29,-167.61"/>
<text text-anchor="middle" x="92.5" y="-151" font-family="Helvetica,sans-Serif" font-size="10.00"> align1</text>
<text text-anchor="middle" x="92.5" y="-140" font-family="Helvetica,sans-Serif" font-size="10.00">align2</text>
<text text-anchor="middle" x="92.5" y="-129" font-family="Helvetica,sans-Serif" font-size="10.00">ie1</text>
<text text-anchor="middle" x="92.5" y="-118" font-family="Helvetica,sans-Serif" font-size="10.00">ie2</text>
<text text-anchor="middle" x="92.5" y="-107" font-family="Helvetica,sans-Serif" font-size="10.00">is1</text>
<text text-anchor="middle" x="92.5" y="-96" font-family="Helvetica,sans-Serif" font-size="10.00">is2</text>
<text text-anchor="middle" x="92.5" y="-85" font-family="Helvetica,sans-Serif" font-size="10.00">je1</text>
<text text-anchor="middle" x="92.5" y="-74" font-family="Helvetica,sans-Serif" font-size="10.00">je2</text>
<text text-anchor="middle" x="92.5" y="-63" font-family="Helvetica,sans-Serif" font-size="10.00">js1</text>
<text text-anchor="middle" x="92.5" y="-52" font-family="Helvetica,sans-Serif" font-size="10.00">js2</text>
<text text-anchor="middle" x="92.5" y="-41" font-family="Helvetica,sans-Serif" font-size="10.00">...</text>
</g>
</g>
</svg>
