<?xml version="1.0" encoding="UTF-8" standalone="no"?>
<!DOCTYPE svg PUBLIC "-//W3C//DTD SVG 1.1//EN"
 "http://www.w3.org/Graphics/SVG/1.1/DTD/svg11.dtd">
<!-- Generated by graphviz version 2.43.0 (0)
 -->
<!-- Title: horiz_interp_type Pages: 1 -->
<svg width="304pt" height="205pt"
 viewBox="0.00 0.00 303.50 205.00" xmlns="http://www.w3.org/2000/svg" xmlns:xlink="http://www.w3.org/1999/xlink">
<g id="graph0" class="graph" transform="scale(1 1) rotate(0) translate(4 201)">
<title>horiz_interp_type</title>
<polygon fill="white" stroke="transparent" points="-4,4 -4,-201 299.5,-201 299.5,4 -4,4"/>
<!-- Node1 -->
<g id="node1" class="node">
<title>Node1</title>
<g id="a_node1"><a xlink:title=" ">
<polygon fill="#bfbfbf" stroke="black" points="79,-0.5 79,-19.5 180,-19.5 180,-0.5 79,-0.5"/>
<text text-anchor="middle" x="129.5" y="-7.5" font-family="Helvetica,sans-Serif" font-size="10.00">horiz_interp_type</text>
</a>
</g>
</g>
<!-- Node2 -->
<g id="node2" class="node">
<title>Node2</title>
<g id="a_node2"><a xlink:title=" ">
<polygon fill="white" stroke="#bfbfbf" points="0,-177.5 0,-196.5 49,-196.5 49,-177.5 0,-177.5"/>
<text text-anchor="middle" x="24.5" y="-184.5" font-family="Helvetica,sans-Serif" font-size="10.00">logical</text>
</a>
</g>
</g>
<!-- Node2&#45;&gt;Node1 -->
<g id="edge1" class="edge">
<title>Node2&#45;&gt;Node1</title>
<path fill="none" stroke="#9a32cd" stroke-dasharray="5,2" d="M21.06,-167.25C16.56,-136.47 12.53,-74.98 43.5,-38 52.44,-27.32 65.56,-20.8 78.87,-16.85"/>
<polygon fill="#9a32cd" stroke="#9a32cd" points="17.66,-168.12 22.74,-177.42 24.57,-166.99 17.66,-168.12"/>
<text text-anchor="middle" x="84.5" y="-101.5" font-family="Helvetica,sans-Serif" font-size="10.00"> i_am_initialized</text>
<text text-anchor="middle" x="84.5" y="-90.5" font-family="Helvetica,sans-Serif" font-size="10.00">found_neighbors</text>
</g>
<!-- Node3 -->
<g id="node3" class="node">
<title>Node3</title>
<g id="a_node3"><a xlink:title=" ">
<polygon fill="white" stroke="#bfbfbf" points="104,-177.5 104,-196.5 155,-196.5 155,-177.5 104,-177.5"/>
<text text-anchor="middle" x="129.5" y="-184.5" font-family="Helvetica,sans-Serif" font-size="10.00">integer</text>
</a>
</g>
</g>
<!-- Node3&#45;&gt;Node1 -->
<g id="edge2" class="edge">
<title>Node3&#45;&gt;Node1</title>
<path fill="none" stroke="#9a32cd" stroke-dasharray="5,2" d="M129.5,-166.95C129.5,-129.3 129.5,-46.65 129.5,-19.69"/>
<polygon fill="#9a32cd" stroke="#9a32cd" points="126,-167.08 129.5,-177.08 133,-167.08 126,-167.08"/>
<text text-anchor="middle" x="165.5" y="-151" font-family="Helvetica,sans-Serif" font-size="10.00"> nlat_dst</text>
<text text-anchor="middle" x="165.5" y="-140" font-family="Helvetica,sans-Serif" font-size="10.00">nlat_src</text>
<text text-anchor="middle" x="165.5" y="-129" font-family="Helvetica,sans-Serif" font-size="10.00">j_lat</text>
<text text-anchor="middle" x="165.5" y="-118" font-family="Helvetica,sans-Serif" font-size="10.00">ilon</text>
<text text-anchor="middle" x="165.5" y="-107" font-family="Helvetica,sans-Serif" font-size="10.00">num_found</text>
<text text-anchor="middle" x="165.5" y="-96" font-family="Helvetica,sans-Serif" font-size="10.00">jlat</text>
<text text-anchor="middle" x="165.5" y="-85" font-family="Helvetica,sans-Serif" font-size="10.00">interp_method</text>
<text text-anchor="middle" x="165.5" y="-74" font-family="Helvetica,sans-Serif" font-size="10.00">i_src</text>
<text text-anchor="middle" x="165.5" y="-63" font-family="Helvetica,sans-Serif" font-size="10.00">i_dst</text>
<text text-anchor="middle" x="165.5" y="-52" font-family="Helvetica,sans-Serif" font-size="10.00">j_src</text>
<text text-anchor="middle" x="165.5" y="-41" font-family="Helvetica,sans-Serif" font-size="10.00">...</text>
</g>
<!-- Node4 -->
<g id="node4" class="node">
<title>Node4</title>
<g id="a_node4"><a xlink:title=" ">
<polygon fill="white" stroke="#bfbfbf" points="207,-177.5 207,-196.5 242,-196.5 242,-177.5 207,-177.5"/>
<text text-anchor="middle" x="224.5" y="-184.5" font-family="Helvetica,sans-Serif" font-size="10.00">real</text>
</a>
</g>
</g>
<!-- Node4&#45;&gt;Node1 -->
<g id="edge3" class="edge">
<title>Node4&#45;&gt;Node1</title>
<path fill="none" stroke="#9a32cd" stroke-dasharray="5,2" d="M227.28,-167.37C230.77,-136.78 232.99,-75.55 202.5,-38 195.52,-29.4 185.52,-23.54 175.15,-19.54"/>
<polygon fill="#9a32cd" stroke="#9a32cd" points="223.79,-167.11 225.96,-177.48 230.73,-168.03 223.79,-167.11"/>
<text text-anchor="middle" x="262" y="-151" font-family="Helvetica,sans-Serif" font-size="10.00"> faci</text>
<text text-anchor="middle" x="262" y="-140" font-family="Helvetica,sans-Serif" font-size="10.00">facj</text>
<text text-anchor="middle" x="262" y="-129" font-family="Helvetica,sans-Serif" font-size="10.00">area_frac_dst</text>
<text text-anchor="middle" x="262" y="-118" font-family="Helvetica,sans-Serif" font-size="10.00">max_src_dist</text>
<text text-anchor="middle" x="262" y="-107" font-family="Helvetica,sans-Serif" font-size="10.00">src_dist</text>
<text text-anchor="middle" x="262" y="-96" font-family="Helvetica,sans-Serif" font-size="10.00">rat_x</text>
<text text-anchor="middle" x="262" y="-85" font-family="Helvetica,sans-Serif" font-size="10.00">rat_y</text>
<text text-anchor="middle" x="262" y="-74" font-family="Helvetica,sans-Serif" font-size="10.00">wti</text>
<text text-anchor="middle" x="262" y="-63" font-family="Helvetica,sans-Serif" font-size="10.00">lat_in</text>
<text text-anchor="middle" x="262" y="-52" font-family="Helvetica,sans-Serif" font-size="10.00">wtj</text>
<text text-anchor="middle" x="262" y="-41" font-family="Helvetica,sans-Serif" font-size="10.00">...</text>
</g>
</g>
</svg>
