<?xml version="1.0" encoding="UTF-8" standalone="no"?>
<!DOCTYPE svg PUBLIC "-//W3C//DTD SVG 1.1//EN"
 "http://www.w3.org/Graphics/SVG/1.1/DTD/svg11.dtd">
<!-- Generated by graphviz version 2.43.0 (0)
 -->
<!-- Title: nonblock_type Pages: 1 -->
<svg width="226pt" height="205pt"
 viewBox="0.00 0.00 226.00 205.00" xmlns="http://www.w3.org/2000/svg" xmlns:xlink="http://www.w3.org/1999/xlink">
<g id="graph0" class="graph" transform="scale(1 1) rotate(0) translate(4 201)">
<title>nonblock_type</title>
<polygon fill="white" stroke="transparent" points="-4,4 -4,-201 222,-201 222,4 -4,4"/>
<!-- Node1 -->
<g id="node1" class="node">
<title>Node1</title>
<g id="a_node1"><a xlink:title="Used for nonblocking data transfer.">
<polygon fill="#bfbfbf" stroke="black" points="48,-0.5 48,-19.5 136,-19.5 136,-0.5 48,-0.5"/>
<text text-anchor="middle" x="92" y="-7.5" font-family="Helvetica,sans-Serif" font-size="10.00">nonblock_type</text>
</a>
</g>
</g>
<!-- Node2 -->
<g id="node2" class="node">
<title>Node2</title>
<g id="a_node2"><a xlink:title=" ">
<polygon fill="white" stroke="#bfbfbf" points="0,-177.5 0,-196.5 94,-196.5 94,-177.5 0,-177.5"/>
<text text-anchor="middle" x="47" y="-184.5" font-family="Helvetica,sans-Serif" font-size="10.00">integer(i8_kind)</text>
</a>
</g>
</g>
<!-- Node2&#45;&gt;Node1 -->
<g id="edge1" class="edge">
<title>Node2&#45;&gt;Node1</title>
<path fill="none" stroke="#9a32cd" stroke-dasharray="5,2" d="M42.71,-167.12C37.04,-137.54 30.24,-79.37 53,-38 57.37,-30.06 65.18,-23.96 72.67,-19.58"/>
<polygon fill="#9a32cd" stroke="#9a32cd" points="39.36,-168.21 44.83,-177.28 46.21,-166.78 39.36,-168.21"/>
<text text-anchor="middle" x="84.5" y="-101.5" font-family="Helvetica,sans-Serif" font-size="10.00"> field_addrs2</text>
<text text-anchor="middle" x="84.5" y="-90.5" font-family="Helvetica,sans-Serif" font-size="10.00">field_addrs</text>
</g>
<!-- Node3 -->
<g id="node3" class="node">
<title>Node3</title>
<g id="a_node3"><a xlink:title=" ">
<polygon fill="white" stroke="#bfbfbf" points="112.5,-177.5 112.5,-196.5 163.5,-196.5 163.5,-177.5 112.5,-177.5"/>
<text text-anchor="middle" x="138" y="-184.5" font-family="Helvetica,sans-Serif" font-size="10.00">integer</text>
</a>
</g>
</g>
<!-- Node3&#45;&gt;Node1 -->
<g id="edge2" class="edge">
<title>Node3&#45;&gt;Node1</title>
<path fill="none" stroke="#9a32cd" stroke-dasharray="5,2" d="M138.56,-167.14C138.71,-138.03 136.1,-81.01 116,-38 112.71,-30.95 106.97,-24.4 101.94,-19.51"/>
<polygon fill="#9a32cd" stroke="#9a32cd" points="135.06,-167.11 138.39,-177.16 142.06,-167.22 135.06,-167.11"/>
<text text-anchor="middle" x="178" y="-151" font-family="Helvetica,sans-Serif" font-size="10.00"> request_send</text>
<text text-anchor="middle" x="178" y="-140" font-family="Helvetica,sans-Serif" font-size="10.00">update_whalo</text>
<text text-anchor="middle" x="178" y="-129" font-family="Helvetica,sans-Serif" font-size="10.00">send_msgsize</text>
<text text-anchor="middle" x="178" y="-118" font-family="Helvetica,sans-Serif" font-size="10.00">send_pos</text>
<text text-anchor="middle" x="178" y="-107" font-family="Helvetica,sans-Serif" font-size="10.00">buffer_pos_send</text>
<text text-anchor="middle" x="178" y="-96" font-family="Helvetica,sans-Serif" font-size="10.00">update_ehalo</text>
<text text-anchor="middle" x="178" y="-85" font-family="Helvetica,sans-Serif" font-size="10.00">request_recv</text>
<text text-anchor="middle" x="178" y="-74" font-family="Helvetica,sans-Serif" font-size="10.00">update_shalo</text>
<text text-anchor="middle" x="178" y="-63" font-family="Helvetica,sans-Serif" font-size="10.00">nfields</text>
<text text-anchor="middle" x="178" y="-52" font-family="Helvetica,sans-Serif" font-size="10.00">update_flags</text>
<text text-anchor="middle" x="178" y="-41" font-family="Helvetica,sans-Serif" font-size="10.00">...</text>
</g>
</g>
</svg>
