<?xml version="1.0" encoding="UTF-8" standalone="no"?>
<!DOCTYPE svg PUBLIC "-//W3C//DTD SVG 1.1//EN"
 "http://www.w3.org/Graphics/SVG/1.1/DTD/svg11.dtd">
<!-- Generated by graphviz version 2.43.0 (0)
 -->
<!-- Title: inst_type Pages: 1 -->
<svg width="190pt" height="95pt"
 viewBox="0.00 0.00 189.50 95.00" xmlns="http://www.w3.org/2000/svg" xmlns:xlink="http://www.w3.org/1999/xlink">
<g id="graph0" class="graph" transform="scale(1 1) rotate(0) translate(4 91)">
<title>inst_type</title>
<polygon fill="white" stroke="transparent" points="-4,4 -4,-91 185.5,-91 185.5,4 -4,4"/>
<!-- Node1 -->
<g id="node1" class="node">
<title>Node1</title>
<g id="a_node1"><a xlink:title="Private type to represent named instances.">
<polygon fill="#bfbfbf" stroke="black" points="73.5,-0.5 73.5,-19.5 135.5,-19.5 135.5,-0.5 73.5,-0.5"/>
<text text-anchor="middle" x="104.5" y="-7.5" font-family="Helvetica,sans-Serif" font-size="10.00">inst_type</text>
</a>
</g>
</g>
<!-- Node2 -->
<g id="node2" class="node">
<title>Node2</title>
<g id="a_node2"><a xlink:title=" ">
<polygon fill="white" stroke="#bfbfbf" points="0,-67.5 0,-86.5 111,-86.5 111,-67.5 0,-67.5"/>
<text text-anchor="middle" x="55.5" y="-74.5" font-family="Helvetica,sans-Serif" font-size="10.00">character(len=128)</text>
</a>
</g>
</g>
<!-- Node2&#45;&gt;Node1 -->
<g id="edge1" class="edge">
<title>Node2&#45;&gt;Node1</title>
<path fill="none" stroke="#9a32cd" stroke-dasharray="5,2" d="M68.39,-58.9C77.91,-46.27 90.48,-29.6 98,-19.63"/>
<polygon fill="#9a32cd" stroke="#9a32cd" points="65.33,-57.14 62.11,-67.23 70.92,-61.36 65.33,-57.14"/>
<text text-anchor="middle" x="99" y="-41" font-family="Helvetica,sans-Serif" font-size="10.00"> name</text>
</g>
<!-- Node3 -->
<g id="node3" class="node">
<title>Node3</title>
<g id="a_node3"><a xlink:title=" ">
<polygon fill="white" stroke="#bfbfbf" points="129,-67.5 129,-86.5 180,-86.5 180,-67.5 129,-67.5"/>
<text text-anchor="middle" x="154.5" y="-74.5" font-family="Helvetica,sans-Serif" font-size="10.00">integer</text>
</a>
</g>
</g>
<!-- Node3&#45;&gt;Node1 -->
<g id="edge2" class="edge">
<title>Node3&#45;&gt;Node1</title>
<path fill="none" stroke="#9a32cd" stroke-dasharray="5,2" d="M141.63,-59.27C131.88,-46.6 118.89,-29.7 111.14,-19.63"/>
<polygon fill="#9a32cd" stroke="#9a32cd" points="138.89,-61.44 147.76,-67.23 144.43,-57.17 138.89,-61.44"/>
<text text-anchor="middle" x="156.5" y="-41" font-family="Helvetica,sans-Serif" font-size="10.00"> instances</text>
</g>
</g>
</svg>
