<?xml version="1.0" encoding="UTF-8" standalone="no"?>
<!DOCTYPE svg PUBLIC "-//W3C//DTD SVG 1.1//EN"
 "http://www.w3.org/Graphics/SVG/1.1/DTD/svg11.dtd">
<!-- Generated by graphviz version 2.43.0 (0)
 -->
<!-- Title: override_type Pages: 1 -->
<svg width="601pt" height="205pt"
 viewBox="0.00 0.00 600.50 205.00" xmlns="http://www.w3.org/2000/svg" xmlns:xlink="http://www.w3.org/1999/xlink">
<g id="graph0" class="graph" transform="scale(1 1) rotate(0) translate(4 201)">
<title>override_type</title>
<polygon fill="white" stroke="transparent" points="-4,4 -4,-201 596.5,-201 596.5,4 -4,4"/>
<!-- Node1 -->
<g id="node1" class="node">
<title>Node1</title>
<g id="a_node1"><a xlink:title="Private type for holding various data fields for performing data overrides.">
<polygon fill="#bfbfbf" stroke="black" points="262.5,-0.5 262.5,-19.5 346.5,-19.5 346.5,-0.5 262.5,-0.5"/>
<text text-anchor="middle" x="304.5" y="-7.5" font-family="Helvetica,sans-Serif" font-size="10.00">override_type</text>
</a>
</g>
</g>
<!-- Node2 -->
<g id="node2" class="node">
<title>Node2</title>
<g id="a_node2"><a xlink:title=" ">
<polygon fill="white" stroke="#bfbfbf" points="0,-177.5 0,-196.5 49,-196.5 49,-177.5 0,-177.5"/>
<text text-anchor="middle" x="24.5" y="-184.5" font-family="Helvetica,sans-Serif" font-size="10.00">logical</text>
</a>
</g>
</g>
<!-- Node2&#45;&gt;Node1 -->
<g id="edge1" class="edge">
<title>Node2&#45;&gt;Node1</title>
<path fill="none" stroke="#9a32cd" stroke-dasharray="5,2" d="M21,-167.31C16.28,-135.67 12.1,-71.69 47.5,-38 62.73,-23.5 193.52,-15.76 262.42,-12.65"/>
<polygon fill="#9a32cd" stroke="#9a32cd" points="17.59,-168.11 22.7,-177.39 24.49,-166.95 17.59,-168.11"/>
<text text-anchor="middle" x="85.5" y="-96" font-family="Helvetica,sans-Serif" font-size="10.00"> need_compute</text>
</g>
<!-- Node3 -->
<g id="node3" class="node">
<title>Node3</title>
<g id="a_node3"><a xlink:title=" ">
<polygon fill="white" stroke="#bfbfbf" points="70,-177.5 70,-196.5 169,-196.5 169,-177.5 70,-177.5"/>
<text text-anchor="middle" x="119.5" y="-184.5" font-family="Helvetica,sans-Serif" font-size="10.00">character(len=3)</text>
</a>
</g>
</g>
<!-- Node3&#45;&gt;Node1 -->
<g id="edge2" class="edge">
<title>Node3&#45;&gt;Node1</title>
<path fill="none" stroke="#9a32cd" stroke-dasharray="5,2" d="M123.87,-167.32C132.28,-135.68 153.77,-71.72 196.5,-38 215.16,-23.27 240.82,-16.47 262.45,-13.37"/>
<polygon fill="#9a32cd" stroke="#9a32cd" points="120.39,-166.85 121.35,-177.4 127.18,-168.55 120.39,-166.85"/>
<text text-anchor="middle" x="221.5" y="-96" font-family="Helvetica,sans-Serif" font-size="10.00"> gridname</text>
</g>
<!-- Node4 -->
<g id="node4" class="node">
<title>Node4</title>
<g id="a_node4"><a xlink:title=" ">
<polygon fill="white" stroke="#bfbfbf" points="187,-177.5 187,-196.5 298,-196.5 298,-177.5 187,-177.5"/>
<text text-anchor="middle" x="242.5" y="-184.5" font-family="Helvetica,sans-Serif" font-size="10.00">character(len=128)</text>
</a>
</g>
</g>
<!-- Node4&#45;&gt;Node1 -->
<g id="edge3" class="edge">
<title>Node4&#45;&gt;Node1</title>
<path fill="none" stroke="#9a32cd" stroke-dasharray="5,2" d="M248.14,-167.51C256.88,-139.3 274.57,-83.95 292.5,-38 294.89,-31.88 297.89,-25.13 300.29,-19.91"/>
<polygon fill="#9a32cd" stroke="#9a32cd" points="244.75,-166.64 245.15,-177.22 251.44,-168.7 244.75,-166.64"/>
<text text-anchor="middle" x="318.5" y="-96" font-family="Helvetica,sans-Serif" font-size="10.00"> fieldname</text>
</g>
<!-- Node5 -->
<g id="node5" class="node">
<title>Node5</title>
<g id="a_node5"><a xlink:title=" ">
<polygon fill="white" stroke="#bfbfbf" points="316,-177.5 316,-196.5 417,-196.5 417,-177.5 316,-177.5"/>
<text text-anchor="middle" x="366.5" y="-184.5" font-family="Helvetica,sans-Serif" font-size="10.00">horiz_interp_type</text>
</a>
</g>
</g>
<!-- Node5&#45;&gt;Node1 -->
<g id="edge4" class="edge">
<title>Node5&#45;&gt;Node1</title>
<path fill="none" stroke="#9a32cd" stroke-dasharray="5,2" d="M368.32,-166.88C370.2,-136.96 369.93,-78.36 344.5,-38 339.59,-30.2 331.51,-24.12 323.9,-19.72"/>
<polygon fill="#9a32cd" stroke="#9a32cd" points="364.8,-166.92 367.51,-177.16 371.78,-167.47 364.8,-166.92"/>
<text text-anchor="middle" x="397.5" y="-96" font-family="Helvetica,sans-Serif" font-size="10.00"> horz_interp</text>
</g>
<!-- Node6 -->
<g id="node6" class="node">
<title>Node6</title>
<g id="a_node6"><a xlink:title=" ">
<polygon fill="white" stroke="#bfbfbf" points="435,-177.5 435,-196.5 470,-196.5 470,-177.5 435,-177.5"/>
<text text-anchor="middle" x="452.5" y="-184.5" font-family="Helvetica,sans-Serif" font-size="10.00">real</text>
</a>
</g>
</g>
<!-- Node6&#45;&gt;Node1 -->
<g id="edge5" class="edge">
<title>Node6&#45;&gt;Node1</title>
<path fill="none" stroke="#9a32cd" stroke-dasharray="5,2" d="M455.81,-167.28C460.16,-136.09 463.75,-73.43 430.5,-38 419.17,-25.93 378.83,-18.79 346.81,-14.92"/>
<polygon fill="#9a32cd" stroke="#9a32cd" points="452.34,-166.81 454.24,-177.23 459.25,-167.9 452.34,-166.81"/>
<text text-anchor="middle" x="474" y="-101.5" font-family="Helvetica,sans-Serif" font-size="10.00"> lat_in</text>
<text text-anchor="middle" x="474" y="-90.5" font-family="Helvetica,sans-Serif" font-size="10.00">lon_in</text>
</g>
<!-- Node7 -->
<g id="node7" class="node">
<title>Node7</title>
<g id="a_node7"><a xlink:title=" ">
<polygon fill="white" stroke="#bfbfbf" points="488,-177.5 488,-196.5 539,-196.5 539,-177.5 488,-177.5"/>
<text text-anchor="middle" x="513.5" y="-184.5" font-family="Helvetica,sans-Serif" font-size="10.00">integer</text>
</a>
</g>
</g>
<!-- Node7&#45;&gt;Node1 -->
<g id="edge6" class="edge">
<title>Node7&#45;&gt;Node1</title>
<path fill="none" stroke="#9a32cd" stroke-dasharray="5,2" d="M517,-167.48C521.75,-136.07 526.09,-72.45 491.5,-38 471.69,-18.27 395.32,-12.84 346.51,-11.42"/>
<polygon fill="#9a32cd" stroke="#9a32cd" points="513.52,-167.03 515.3,-177.47 520.43,-168.2 513.52,-167.03"/>
<text text-anchor="middle" x="556" y="-151" font-family="Helvetica,sans-Serif" font-size="10.00"> comp_domain</text>
<text text-anchor="middle" x="556" y="-140" font-family="Helvetica,sans-Serif" font-size="10.00">dims</text>
<text text-anchor="middle" x="556" y="-129" font-family="Helvetica,sans-Serif" font-size="10.00">ie_src</text>
<text text-anchor="middle" x="556" y="-118" font-family="Helvetica,sans-Serif" font-size="10.00">is_src</text>
<text text-anchor="middle" x="556" y="-107" font-family="Helvetica,sans-Serif" font-size="10.00">je_src</text>
<text text-anchor="middle" x="556" y="-96" font-family="Helvetica,sans-Serif" font-size="10.00">js_src</text>
<text text-anchor="middle" x="556" y="-85" font-family="Helvetica,sans-Serif" font-size="10.00">numthreads</text>
<text text-anchor="middle" x="556" y="-74" font-family="Helvetica,sans-Serif" font-size="10.00">numwindows</text>
<text text-anchor="middle" x="556" y="-63" font-family="Helvetica,sans-Serif" font-size="10.00">t_index</text>
<text text-anchor="middle" x="556" y="-52" font-family="Helvetica,sans-Serif" font-size="10.00">window_size</text>
<text text-anchor="middle" x="556" y="-41" font-family="Helvetica,sans-Serif" font-size="10.00">...</text>
</g>
</g>
</svg>
