<?xml version="1.0" encoding="UTF-8" standalone="no"?>
<!DOCTYPE svg PUBLIC "-//W3C//DTD SVG 1.1//EN"
 "http://www.w3.org/Graphics/SVG/1.1/DTD/svg11.dtd">
<!-- Generated by graphviz version 2.43.0 (0)
 -->
<!-- Title: diag_grid Pages: 1 -->
<svg width="132pt" height="117pt"
 viewBox="0.00 0.00 132.00 117.00" xmlns="http://www.w3.org/2000/svg" xmlns:xlink="http://www.w3.org/1999/xlink">
<g id="graph0" class="graph" transform="scale(1 1) rotate(0) translate(4 113)">
<title>diag_grid</title>
<polygon fill="white" stroke="transparent" points="-4,4 -4,-113 128,-113 128,4 -4,4"/>
<!-- Node1 -->
<g id="node1" class="node">
<title>Node1</title>
<g id="a_node1"><a xlink:title="Contains the coordinates of the local domain to output.">
<polygon fill="#bfbfbf" stroke="black" points="34.5,-0.5 34.5,-19.5 96.5,-19.5 96.5,-0.5 34.5,-0.5"/>
<text text-anchor="middle" x="65.5" y="-7.5" font-family="Helvetica,sans-Serif" font-size="10.00">diag_grid</text>
</a>
</g>
</g>
<!-- Node2 -->
<g id="node2" class="node">
<title>Node2</title>
<g id="a_node2"><a xlink:title=" ">
<polygon fill="white" stroke="#bfbfbf" points="0,-89.5 0,-108.5 51,-108.5 51,-89.5 0,-89.5"/>
<text text-anchor="middle" x="25.5" y="-96.5" font-family="Helvetica,sans-Serif" font-size="10.00">integer</text>
</a>
</g>
</g>
<!-- Node2&#45;&gt;Node1 -->
<g id="edge1" class="edge">
<title>Node2&#45;&gt;Node1</title>
<path fill="none" stroke="#9a32cd" stroke-dasharray="5,2" d="M21.56,-79.12C19.96,-66.71 19.81,-50.52 26.5,-38 30.77,-30.01 38.57,-23.9 46.08,-19.53"/>
<polygon fill="#9a32cd" stroke="#9a32cd" points="18.15,-79.97 23.29,-89.24 25.05,-78.79 18.15,-79.97"/>
<text text-anchor="middle" x="55.5" y="-63" font-family="Helvetica,sans-Serif" font-size="10.00"> l_end_indx</text>
<text text-anchor="middle" x="55.5" y="-52" font-family="Helvetica,sans-Serif" font-size="10.00">l_start_indx</text>
<text text-anchor="middle" x="55.5" y="-41" font-family="Helvetica,sans-Serif" font-size="10.00">subaxes</text>
</g>
<!-- Node3 -->
<g id="node3" class="node">
<title>Node3</title>
<g id="a_node3"><a xlink:title=" ">
<polygon fill="white" stroke="#bfbfbf" points="89,-89.5 89,-108.5 124,-108.5 124,-89.5 89,-89.5"/>
<text text-anchor="middle" x="106.5" y="-96.5" font-family="Helvetica,sans-Serif" font-size="10.00">real</text>
</a>
</g>
</g>
<!-- Node3&#45;&gt;Node1 -->
<g id="edge2" class="edge">
<title>Node3&#45;&gt;Node1</title>
<path fill="none" stroke="#9a32cd" stroke-dasharray="5,2" d="M101.04,-79.28C97.16,-67.17 91.43,-51.24 84.5,-38 81.1,-31.5 76.35,-24.75 72.45,-19.63"/>
<polygon fill="#9a32cd" stroke="#9a32cd" points="97.78,-80.61 104.05,-89.15 104.48,-78.57 97.78,-80.61"/>
<text text-anchor="middle" x="109" y="-57.5" font-family="Helvetica,sans-Serif" font-size="10.00"> end</text>
<text text-anchor="middle" x="109" y="-46.5" font-family="Helvetica,sans-Serif" font-size="10.00">start</text>
</g>
</g>
</svg>
