<?xml version="1.0" encoding="UTF-8" standalone="no"?>
<!DOCTYPE svg PUBLIC "-//W3C//DTD SVG 1.1//EN"
 "http://www.w3.org/Graphics/SVG/1.1/DTD/svg11.dtd">
<!-- Generated by graphviz version 2.43.0 (0)
 -->
<!-- Title: axistype Pages: 1 -->
<svg width="622pt" height="592pt"
 viewBox="0.00 0.00 622.00 592.00" xmlns="http://www.w3.org/2000/svg" xmlns:xlink="http://www.w3.org/1999/xlink">
<g id="graph0" class="graph" transform="scale(1 1) rotate(0) translate(4 588)">
<title>axistype</title>
<polygon fill="white" stroke="transparent" points="-4,4 -4,-588 618,-588 618,4 -4,4"/>
<!-- Node1 -->
<g id="node1" class="node">
<title>Node1</title>
<g id="a_node1"><a xlink:title=" ">
<polygon fill="#bfbfbf" stroke="black" points="555,-156.5 555,-175.5 614,-175.5 614,-156.5 555,-156.5"/>
<text text-anchor="middle" x="584.5" y="-163.5" font-family="Helvetica,sans-Serif" font-size="10.00">axistype</text>
</a>
</g>
</g>
<!-- Node2 -->
<g id="node2" class="node">
<title>Node2</title>
<g id="a_node2"><a xlink:href="group__mpp__domains__mod.html#structmpp__domains__mod_1_1domain1d" target="_top" xlink:title="One dimensional domain used to manage shared data access between pes.">
<polygon fill="white" stroke="black" points="371,-468.5 371,-487.5 436,-487.5 436,-468.5 371,-468.5"/>
<text text-anchor="middle" x="403.5" y="-475.5" font-family="Helvetica,sans-Serif" font-size="10.00">domain1d</text>
</a>
</g>
</g>
<!-- Node2&#45;&gt;Node1 -->
<g id="edge1" class="edge">
<title>Node2&#45;&gt;Node1</title>
<path fill="none" stroke="#9a32cd" stroke-dasharray="5,2" d="M427.55,-462.52C457.43,-441.21 509.04,-399.97 537,-352 572.37,-291.32 581.02,-204.31 582.97,-175.6"/>
<polygon fill="#9a32cd" stroke="#9a32cd" points="425.21,-459.88 419.02,-468.48 429.22,-465.62 425.21,-459.88"/>
<text text-anchor="middle" x="507" y="-423" font-family="Helvetica,sans-Serif" font-size="10.00"> domain</text>
</g>
<!-- Node2&#45;&gt;Node2 -->
<g id="edge3" class="edge">
<title>Node2&#45;&gt;Node2</title>
<path fill="none" stroke="#9a32cd" stroke-dasharray="5,2" d="M385.72,-497.4C386.91,-502.31 392.84,-506 403.5,-506 420.56,-506 425.49,-496.57 418.3,-487.76"/>
<polygon fill="#9a32cd" stroke="#9a32cd" points="389.09,-498.34 388.7,-487.76 382.41,-496.28 389.09,-498.34"/>
<text text-anchor="middle" x="403.5" y="-509" font-family="Helvetica,sans-Serif" font-size="10.00"> list</text>
</g>
<!-- Node3 -->
<g id="node3" class="node">
<title>Node3</title>
<g id="a_node3"><a xlink:title=" ">
<polygon fill="white" stroke="#bfbfbf" points="1,-559.5 1,-578.5 50,-578.5 50,-559.5 1,-559.5"/>
<text text-anchor="middle" x="25.5" y="-566.5" font-family="Helvetica,sans-Serif" font-size="10.00">logical</text>
</a>
</g>
</g>
<!-- Node3&#45;&gt;Node2 -->
<g id="edge2" class="edge">
<title>Node3&#45;&gt;Node2</title>
<path fill="none" stroke="#9a32cd" stroke-dasharray="5,2" d="M60.26,-571.75C107.5,-574.58 195.53,-576.12 267,-556 317.17,-541.88 368.3,-505.06 390.73,-487.54"/>
<polygon fill="#9a32cd" stroke="#9a32cd" points="60.48,-568.26 50.27,-571.1 60.02,-575.24 60.48,-568.26"/>
<text text-anchor="middle" x="202" y="-576" font-family="Helvetica,sans-Serif" font-size="10.00"> cyclic</text>
</g>
<!-- Node4 -->
<g id="node4" class="node">
<title>Node4</title>
<g id="a_node4"><a xlink:href="group__mpp__domains__mod.html#structmpp__domains__mod_1_1domain__axis__spec" target="_top" xlink:title="Used to specify index limits along an axis of a domain.">
<polygon fill="white" stroke="black" points="148.5,-439.5 148.5,-458.5 255.5,-458.5 255.5,-439.5 148.5,-439.5"/>
<text text-anchor="middle" x="202" y="-446.5" font-family="Helvetica,sans-Serif" font-size="10.00">domain_axis_spec</text>
</a>
</g>
</g>
<!-- Node3&#45;&gt;Node4 -->
<g id="edge5" class="edge">
<title>Node3&#45;&gt;Node4</title>
<path fill="none" stroke="#9a32cd" stroke-dasharray="5,2" d="M46.26,-553.02C67.97,-535.73 104.14,-507.73 137,-486 152.1,-476.02 169.98,-465.81 183,-458.65"/>
<polygon fill="#9a32cd" stroke="#9a32cd" points="44.04,-550.31 38.42,-559.3 48.41,-555.78 44.04,-550.31"/>
<text text-anchor="middle" x="94" y="-537" font-family="Helvetica,sans-Serif" font-size="10.00"> is_global</text>
</g>
<!-- Node4&#45;&gt;Node2 -->
<g id="edge4" class="edge">
<title>Node4&#45;&gt;Node2</title>
<path fill="none" stroke="#9a32cd" stroke-dasharray="5,2" d="M265.85,-445.04C286.44,-444.92 309.34,-446.06 330,-450 348.82,-453.58 369.07,-461.81 383.37,-468.42"/>
<polygon fill="#9a32cd" stroke="#9a32cd" points="265.57,-441.54 255.63,-445.2 265.68,-448.54 265.57,-441.54"/>
<text text-anchor="middle" x="307.5" y="-486" font-family="Helvetica,sans-Serif" font-size="10.00"> memory</text>
<text text-anchor="middle" x="307.5" y="-475" font-family="Helvetica,sans-Serif" font-size="10.00">global</text>
<text text-anchor="middle" x="307.5" y="-464" font-family="Helvetica,sans-Serif" font-size="10.00">compute</text>
<text text-anchor="middle" x="307.5" y="-453" font-family="Helvetica,sans-Serif" font-size="10.00">data</text>
</g>
<!-- Node5 -->
<g id="node5" class="node">
<title>Node5</title>
<g id="a_node5"><a xlink:title=" ">
<polygon fill="white" stroke="#bfbfbf" points="0,-363.5 0,-382.5 51,-382.5 51,-363.5 0,-363.5"/>
<text text-anchor="middle" x="25.5" y="-370.5" font-family="Helvetica,sans-Serif" font-size="10.00">integer</text>
</a>
</g>
</g>
<!-- Node5&#45;&gt;Node1 -->
<g id="edge17" class="edge">
<title>Node5&#45;&gt;Node1</title>
<path fill="none" stroke="#9a32cd" stroke-dasharray="5,2" d="M61.32,-368.8C163.9,-355.83 462.44,-313.58 537,-253 562.52,-232.27 575.92,-193.7 581.02,-175.71"/>
<polygon fill="#9a32cd" stroke="#9a32cd" points="60.67,-365.35 51.18,-370.07 61.54,-372.3 60.67,-365.35"/>
<text text-anchor="middle" x="307.5" y="-413" font-family="Helvetica,sans-Serif" font-size="10.00"> natt</text>
<text text-anchor="middle" x="307.5" y="-402" font-family="Helvetica,sans-Serif" font-size="10.00">sense</text>
<text text-anchor="middle" x="307.5" y="-391" font-family="Helvetica,sans-Serif" font-size="10.00">did</text>
<text text-anchor="middle" x="307.5" y="-380" font-family="Helvetica,sans-Serif" font-size="10.00">shift</text>
<text text-anchor="middle" x="307.5" y="-369" font-family="Helvetica,sans-Serif" font-size="10.00">type</text>
<text text-anchor="middle" x="307.5" y="-358" font-family="Helvetica,sans-Serif" font-size="10.00">id</text>
<text text-anchor="middle" x="307.5" y="-347" font-family="Helvetica,sans-Serif" font-size="10.00">idata</text>
<text text-anchor="middle" x="307.5" y="-336" font-family="Helvetica,sans-Serif" font-size="10.00">len</text>
</g>
<!-- Node5&#45;&gt;Node2 -->
<g id="edge7" class="edge">
<title>Node5&#45;&gt;Node2</title>
<path fill="none" stroke="#9a32cd" stroke-dasharray="5,2" d="M30.31,-392.35C35.41,-412.83 46.56,-444.42 69,-461 160.16,-528.34 306.58,-502.74 370.7,-486.88"/>
<polygon fill="#9a32cd" stroke="#9a32cd" points="33.71,-391.54 28.11,-382.54 26.88,-393.07 33.71,-391.54"/>
<text text-anchor="middle" x="202" y="-541" font-family="Helvetica,sans-Serif" font-size="10.00"> pe</text>
<text text-anchor="middle" x="202" y="-530" font-family="Helvetica,sans-Serif" font-size="10.00">goffset</text>
<text text-anchor="middle" x="202" y="-519" font-family="Helvetica,sans-Serif" font-size="10.00">pos</text>
<text text-anchor="middle" x="202" y="-508" font-family="Helvetica,sans-Serif" font-size="10.00">loffset</text>
</g>
<!-- Node5&#45;&gt;Node4 -->
<g id="edge6" class="edge">
<title>Node5&#45;&gt;Node4</title>
<path fill="none" stroke="#9a32cd" stroke-dasharray="5,2" d="M57.88,-386.67C92.85,-401.9 148.5,-426.13 179.08,-439.45"/>
<polygon fill="#9a32cd" stroke="#9a32cd" points="59.17,-383.41 48.6,-382.63 56.37,-389.83 59.17,-383.41"/>
<text text-anchor="middle" x="94" y="-449" font-family="Helvetica,sans-Serif" font-size="10.00"> max_size</text>
<text text-anchor="middle" x="94" y="-438" font-family="Helvetica,sans-Serif" font-size="10.00">size</text>
<text text-anchor="middle" x="94" y="-427" font-family="Helvetica,sans-Serif" font-size="10.00">begin</text>
<text text-anchor="middle" x="94" y="-416" font-family="Helvetica,sans-Serif" font-size="10.00">end</text>
</g>
<!-- Node7 -->
<g id="node7" class="node">
<title>Node7</title>
<g id="a_node7"><a xlink:href="group__mpp__io__mod.html#structmpp__io__mod_1_1atttype" target="_top" xlink:title=" ">
<polygon fill="white" stroke="black" points="377.5,-241.5 377.5,-260.5 429.5,-260.5 429.5,-241.5 377.5,-241.5"/>
<text text-anchor="middle" x="403.5" y="-248.5" font-family="Helvetica,sans-Serif" font-size="10.00">atttype</text>
</a>
</g>
</g>
<!-- Node5&#45;&gt;Node7 -->
<g id="edge12" class="edge">
<title>Node5&#45;&gt;Node7</title>
<path fill="none" stroke="#9a32cd" stroke-dasharray="5,2" d="M41.17,-356.07C48.79,-348.14 58.66,-339.11 69,-333 122.38,-301.44 309.18,-267.03 377.35,-255.24"/>
<polygon fill="#9a32cd" stroke="#9a32cd" points="38.54,-353.75 34.36,-363.48 43.7,-358.48 38.54,-353.75"/>
<text text-anchor="middle" x="202" y="-320" font-family="Helvetica,sans-Serif" font-size="10.00"> type</text>
<text text-anchor="middle" x="202" y="-309" font-family="Helvetica,sans-Serif" font-size="10.00">len</text>
</g>
<!-- Node6 -->
<g id="node6" class="node">
<title>Node6</title>
<g id="a_node6"><a xlink:title=" ">
<polygon fill="white" stroke="#bfbfbf" points="348,-76.5 348,-95.5 459,-95.5 459,-76.5 348,-76.5"/>
<text text-anchor="middle" x="403.5" y="-83.5" font-family="Helvetica,sans-Serif" font-size="10.00">character(len=256)</text>
</a>
</g>
</g>
<!-- Node6&#45;&gt;Node1 -->
<g id="edge8" class="edge">
<title>Node6&#45;&gt;Node1</title>
<path fill="none" stroke="#9a32cd" stroke-dasharray="5,2" d="M469.57,-79.61C492.23,-80.22 516.98,-84.27 537,-96 560.54,-109.79 574.5,-140.78 580.32,-156.49"/>
<polygon fill="#9a32cd" stroke="#9a32cd" points="469.34,-76.11 459.32,-79.57 469.31,-83.11 469.34,-76.11"/>
<text text-anchor="middle" x="507" y="-110" font-family="Helvetica,sans-Serif" font-size="10.00"> longname</text>
<text text-anchor="middle" x="507" y="-99" font-family="Helvetica,sans-Serif" font-size="10.00">compressed</text>
</g>
<!-- Node7&#45;&gt;Node1 -->
<g id="edge9" class="edge">
<title>Node7&#45;&gt;Node1</title>
<path fill="none" stroke="#9a32cd" stroke-dasharray="5,2" d="M439.63,-246.77C467.59,-242.2 506.88,-232.99 537,-215 553.91,-204.9 568.65,-186.95 576.79,-175.81"/>
<polygon fill="#9a32cd" stroke="#9a32cd" points="438.88,-243.34 429.52,-248.3 439.93,-250.26 438.88,-243.34"/>
<text text-anchor="middle" x="507" y="-241" font-family="Helvetica,sans-Serif" font-size="10.00"> att</text>
</g>
<!-- Node8 -->
<g id="node8" class="node">
<title>Node8</title>
<g id="a_node8"><a xlink:title=" ">
<polygon fill="white" stroke="#bfbfbf" points="146.5,-138.5 146.5,-157.5 257.5,-157.5 257.5,-138.5 146.5,-138.5"/>
<text text-anchor="middle" x="202" y="-145.5" font-family="Helvetica,sans-Serif" font-size="10.00">character(len=128)</text>
</a>
</g>
</g>
<!-- Node8&#45;&gt;Node1 -->
<g id="edge15" class="edge">
<title>Node8&#45;&gt;Node1</title>
<path fill="none" stroke="#9a32cd" stroke-dasharray="5,2" d="M267.59,-144.38C319.42,-142.23 394,-140.81 459,-146 492.17,-148.65 529.84,-155.2 554.98,-160.09"/>
<polygon fill="#9a32cd" stroke="#9a32cd" points="267.37,-140.89 257.53,-144.82 267.68,-147.88 267.37,-140.89"/>
<text text-anchor="middle" x="403.5" y="-171" font-family="Helvetica,sans-Serif" font-size="10.00"> units</text>
<text text-anchor="middle" x="403.5" y="-160" font-family="Helvetica,sans-Serif" font-size="10.00">name</text>
<text text-anchor="middle" x="403.5" y="-149" font-family="Helvetica,sans-Serif" font-size="10.00">name_bounds</text>
</g>
<!-- Node8&#45;&gt;Node7 -->
<g id="edge10" class="edge">
<title>Node8&#45;&gt;Node7</title>
<path fill="none" stroke="#9a32cd" stroke-dasharray="5,2" d="M240.01,-161.24C266.46,-171.68 302.16,-187.83 330,-208 339.42,-214.82 338.49,-220.3 348,-227 356.88,-233.25 367.64,-238.41 377.25,-242.32"/>
<polygon fill="#9a32cd" stroke="#9a32cd" points="240.95,-157.85 230.36,-157.52 238.43,-164.38 240.95,-157.85"/>
<text text-anchor="middle" x="307.5" y="-211" font-family="Helvetica,sans-Serif" font-size="10.00"> name</text>
</g>
<!-- Node9 -->
<g id="node9" class="node">
<title>Node9</title>
<g id="a_node9"><a xlink:title=" ">
<polygon fill="white" stroke="#bfbfbf" points="184.5,-191.5 184.5,-210.5 219.5,-210.5 219.5,-191.5 184.5,-191.5"/>
<text text-anchor="middle" x="202" y="-198.5" font-family="Helvetica,sans-Serif" font-size="10.00">real</text>
</a>
</g>
</g>
<!-- Node9&#45;&gt;Node1 -->
<g id="edge16" class="edge">
<title>Node9&#45;&gt;Node1</title>
<path fill="none" stroke="#9a32cd" stroke-dasharray="5,2" d="M229.97,-198.85C276.66,-195.08 375.54,-186.94 459,-179 491.88,-175.87 529.61,-171.87 554.83,-169.14"/>
<polygon fill="#9a32cd" stroke="#9a32cd" points="229.47,-195.37 219.78,-199.66 230.03,-202.35 229.47,-195.37"/>
<text text-anchor="middle" x="403.5" y="-202" font-family="Helvetica,sans-Serif" font-size="10.00"> data_bounds</text>
<text text-anchor="middle" x="403.5" y="-191" font-family="Helvetica,sans-Serif" font-size="10.00">data</text>
</g>
<!-- Node9&#45;&gt;Node7 -->
<g id="edge11" class="edge">
<title>Node9&#45;&gt;Node7</title>
<path fill="none" stroke="#9a32cd" stroke-dasharray="5,2" d="M229.67,-207.68C268.39,-217.39 339.66,-235.25 377.45,-244.72"/>
<polygon fill="#9a32cd" stroke="#9a32cd" points="230.22,-204.21 219.67,-205.18 228.52,-211 230.22,-204.21"/>
<text text-anchor="middle" x="307.5" y="-234" font-family="Helvetica,sans-Serif" font-size="10.00"> fatt</text>
</g>
<!-- Node10 -->
<g id="node10" class="node">
<title>Node10</title>
<g id="a_node10"><a xlink:title=" ">
<polygon fill="white" stroke="#bfbfbf" points="137,-230 137,-260 267,-260 267,-230 137,-230"/>
<text text-anchor="start" x="145" y="-248" font-family="Helvetica,sans-Serif" font-size="10.00">character(len=max_att</text>
<text text-anchor="middle" x="202" y="-237" font-family="Helvetica,sans-Serif" font-size="10.00">_length)</text>
</a>
</g>
</g>
<!-- Node10&#45;&gt;Node7 -->
<g id="edge13" class="edge">
<title>Node10&#45;&gt;Node7</title>
<path fill="none" stroke="#9a32cd" stroke-dasharray="5,2" d="M277.46,-247.24C312.53,-248.29 352.07,-249.48 377.12,-250.24"/>
<polygon fill="#9a32cd" stroke="#9a32cd" points="277.32,-243.73 267.22,-246.93 277.11,-250.73 277.32,-243.73"/>
<text text-anchor="middle" x="307.5" y="-251" font-family="Helvetica,sans-Serif" font-size="10.00"> catt</text>
</g>
<!-- Node11 -->
<g id="node11" class="node">
<title>Node11</title>
<g id="a_node11"><a xlink:title=" ">
<polygon fill="white" stroke="#bfbfbf" points="354,-38.5 354,-57.5 453,-57.5 453,-38.5 354,-38.5"/>
<text text-anchor="middle" x="403.5" y="-45.5" font-family="Helvetica,sans-Serif" font-size="10.00">character(len=8)</text>
</a>
</g>
</g>
<!-- Node11&#45;&gt;Node1 -->
<g id="edge14" class="edge">
<title>Node11&#45;&gt;Node1</title>
<path fill="none" stroke="#9a32cd" stroke-dasharray="5,2" d="M463.19,-43.49C488.06,-44.44 516.05,-49.62 537,-65 567.81,-87.63 578.78,-135.67 582.16,-156.28"/>
<polygon fill="#9a32cd" stroke="#9a32cd" points="463.18,-39.99 453.12,-43.32 463.06,-46.99 463.18,-39.99"/>
<text text-anchor="middle" x="507" y="-68" font-family="Helvetica,sans-Serif" font-size="10.00"> cartesian</text>
</g>
<!-- Node12 -->
<g id="node12" class="node">
<title>Node12</title>
<g id="a_node12"><a xlink:title=" ">
<polygon fill="white" stroke="#bfbfbf" points="351,-0.5 351,-19.5 456,-19.5 456,-0.5 351,-0.5"/>
<text text-anchor="middle" x="403.5" y="-7.5" font-family="Helvetica,sans-Serif" font-size="10.00">character(len=24)</text>
</a>
</g>
</g>
<!-- Node12&#45;&gt;Node1 -->
<g id="edge18" class="edge">
<title>Node12&#45;&gt;Node1</title>
<path fill="none" stroke="#9a32cd" stroke-dasharray="5,2" d="M466.45,-5.61C490.85,-7.03 517.6,-12.89 537,-29 576.81,-62.06 582.66,-130.62 583.43,-156.15"/>
<polygon fill="#9a32cd" stroke="#9a32cd" points="466.29,-2.1 456.17,-5.26 466.05,-9.1 466.29,-2.1"/>
<text text-anchor="middle" x="507" y="-32" font-family="Helvetica,sans-Serif" font-size="10.00"> calendar</text>
</g>
</g>
</svg>
