<?xml version="1.0" encoding="UTF-8" standalone="no"?>
<!DOCTYPE svg PUBLIC "-//W3C//DTD SVG 1.1//EN"
 "http://www.w3.org/Graphics/SVG/1.1/DTD/svg11.dtd">
<!-- Generated by graphviz version 2.43.0 (0)
 -->
<!-- Title: coupler_1d_bc_type Pages: 1 -->
<svg width="717pt" height="426pt"
 viewBox="0.00 0.00 717.00 425.85" xmlns="http://www.w3.org/2000/svg" xmlns:xlink="http://www.w3.org/1999/xlink">
<g id="graph0" class="graph" transform="scale(1 1) rotate(0) translate(4 421.85)">
<title>coupler_1d_bc_type</title>
<polygon fill="white" stroke="transparent" points="-4,4 -4,-421.85 713,-421.85 713,4 -4,4"/>
<!-- Node1 -->
<g id="node1" class="node">
<title>Node1</title>
<g id="a_node1"><a xlink:title="Coupler data for 1D boundary conditions.">
<polygon fill="#bfbfbf" stroke="black" points="596,-171.92 596,-190.92 709,-190.92 709,-171.92 596,-171.92"/>
<text text-anchor="middle" x="652.5" y="-178.92" font-family="Helvetica,sans-Serif" font-size="10.00">coupler_1d_bc_type</text>
</a>
</g>
</g>
<!-- Node2 -->
<g id="node2" class="node">
<title>Node2</title>
<g id="a_node2"><a xlink:title=" ">
<polygon fill="white" stroke="#bfbfbf" points="31,-369.92 31,-388.92 80,-388.92 80,-369.92 31,-369.92"/>
<text text-anchor="middle" x="55.5" y="-376.92" font-family="Helvetica,sans-Serif" font-size="10.00">logical</text>
</a>
</g>
</g>
<!-- Node2&#45;&gt;Node1 -->
<g id="edge1" class="edge">
<title>Node2&#45;&gt;Node1</title>
<path fill="none" stroke="#9a32cd" stroke-dasharray="5,2" d="M89.97,-390.85C143.82,-407.42 252.44,-433.24 339,-405.42 478.49,-360.59 608.52,-227.96 642.76,-191.05"/>
<polygon fill="#9a32cd" stroke="#9a32cd" points="90.85,-387.46 80.26,-387.78 88.73,-394.14 90.85,-387.46"/>
<text text-anchor="middle" x="380.5" y="-401.42" font-family="Helvetica,sans-Serif" font-size="10.00"> set</text>
</g>
<!-- Node3 -->
<g id="node3" class="node">
<title>Node3</title>
<g id="a_node3"><a xlink:href="group__coupler__types__mod.html#structcoupler__types__mod_1_1coupler__1d__field__type" target="_top" xlink:title="Coupler data for 1D fields.">
<polygon fill="white" stroke="black" points="422,-171.92 422,-190.92 545,-190.92 545,-171.92 422,-171.92"/>
<text text-anchor="middle" x="483.5" y="-178.92" font-family="Helvetica,sans-Serif" font-size="10.00">coupler_1d_field_type</text>
</a>
</g>
</g>
<!-- Node2&#45;&gt;Node3 -->
<g id="edge3" class="edge">
<title>Node2&#45;&gt;Node3</title>
<path fill="none" stroke="#9a32cd" stroke-dasharray="5,2" d="M90.67,-377.07C117.23,-374.74 154.83,-370.34 187,-362.42 288.89,-337.35 322.41,-335.4 404,-269.42 434.25,-244.97 462.84,-208.34 475.57,-191.08"/>
<polygon fill="#9a32cd" stroke="#9a32cd" points="90.05,-373.61 80.37,-377.92 90.62,-380.59 90.05,-373.61"/>
<text text-anchor="middle" x="272" y="-393.42" font-family="Helvetica,sans-Serif" font-size="10.00"> flag</text>
<text text-anchor="middle" x="272" y="-382.42" font-family="Helvetica,sans-Serif" font-size="10.00">pass_through_ice</text>
<text text-anchor="middle" x="272" y="-371.42" font-family="Helvetica,sans-Serif" font-size="10.00">use_10m_wind_speed</text>
<text text-anchor="middle" x="272" y="-360.42" font-family="Helvetica,sans-Serif" font-size="10.00">use_atm_pressure</text>
</g>
<!-- Node6 -->
<g id="node6" class="node">
<title>Node6</title>
<g id="a_node6"><a xlink:href="group__coupler__types__mod.html#structcoupler__types__mod_1_1coupler__1d__values__type" target="_top" xlink:title="Coupler data for 1D values.">
<polygon fill="white" stroke="black" points="205,-243.92 205,-262.92 339,-262.92 339,-243.92 205,-243.92"/>
<text text-anchor="middle" x="272" y="-250.92" font-family="Helvetica,sans-Serif" font-size="10.00">coupler_1d_values_type</text>
</a>
</g>
</g>
<!-- Node2&#45;&gt;Node6 -->
<g id="edge7" class="edge">
<title>Node2&#45;&gt;Node6</title>
<path fill="none" stroke="#9a32cd" stroke-dasharray="5,2" d="M78.52,-363.84C116.56,-337 191.81,-284.21 205,-277.42 215.95,-271.79 228.53,-266.86 239.76,-262.97"/>
<polygon fill="#9a32cd" stroke="#9a32cd" points="76.28,-361.14 70.14,-369.76 80.32,-366.85 76.28,-361.14"/>
<text text-anchor="middle" x="158" y="-350.42" font-family="Helvetica,sans-Serif" font-size="10.00"> may_init</text>
<text text-anchor="middle" x="158" y="-339.42" font-family="Helvetica,sans-Serif" font-size="10.00">mean</text>
<text text-anchor="middle" x="158" y="-328.42" font-family="Helvetica,sans-Serif" font-size="10.00">override</text>
</g>
<!-- Node3&#45;&gt;Node1 -->
<g id="edge2" class="edge">
<title>Node3&#45;&gt;Node1</title>
<path fill="none" stroke="#9a32cd" stroke-dasharray="5,2" d="M555.46,-181.42C568.93,-181.42 582.85,-181.42 595.77,-181.42"/>
<polygon fill="#9a32cd" stroke="#9a32cd" points="555.26,-177.92 545.26,-181.42 555.26,-184.92 555.26,-177.92"/>
<text text-anchor="middle" x="570.5" y="-184.42" font-family="Helvetica,sans-Serif" font-size="10.00"> bc</text>
</g>
<!-- Node4 -->
<g id="node4" class="node">
<title>Node4</title>
<g id="a_node4"><a xlink:title=" ">
<polygon fill="white" stroke="#bfbfbf" points="219,-67.42 219,-97.42 325,-97.42 325,-67.42 219,-67.42"/>
<text text-anchor="start" x="227" y="-85.42" font-family="Helvetica,sans-Serif" font-size="10.00">real, dimension(:),</text>
<text text-anchor="middle" x="272" y="-74.42" font-family="Helvetica,sans-Serif" font-size="10.00"> pointer</text>
</a>
</g>
</g>
<!-- Node4&#45;&gt;Node3 -->
<g id="edge4" class="edge">
<title>Node4&#45;&gt;Node3</title>
<path fill="none" stroke="#9a32cd" stroke-dasharray="5,2" d="M335.36,-88.28C357.88,-92.17 382.93,-98.65 404,-109.42 434.62,-125.09 462.19,-156 474.97,-171.73"/>
<polygon fill="#9a32cd" stroke="#9a32cd" points="335.64,-84.78 325.21,-86.67 334.54,-91.7 335.64,-84.78"/>
<text text-anchor="middle" x="380.5" y="-112.42" font-family="Helvetica,sans-Serif" font-size="10.00"> param</text>
</g>
<!-- Node5 -->
<g id="node5" class="node">
<title>Node5</title>
<g id="a_node5"><a xlink:title=" ">
<polygon fill="white" stroke="#bfbfbf" points="3,-141.92 3,-160.92 108,-160.92 108,-141.92 3,-141.92"/>
<text text-anchor="middle" x="55.5" y="-148.92" font-family="Helvetica,sans-Serif" font-size="10.00">character(len=48)</text>
</a>
</g>
</g>
<!-- Node5&#45;&gt;Node3 -->
<g id="edge5" class="edge">
<title>Node5&#45;&gt;Node3</title>
<path fill="none" stroke="#9a32cd" stroke-dasharray="5,2" d="M118.24,-146.4C175.63,-142.76 263.37,-139.84 339,-148.42 377.99,-152.85 421.81,-163.83 450.66,-171.92"/>
<polygon fill="#9a32cd" stroke="#9a32cd" points="117.99,-142.91 108.25,-147.06 118.45,-149.89 117.99,-142.91"/>
<text text-anchor="middle" x="272" y="-151.42" font-family="Helvetica,sans-Serif" font-size="10.00"> name</text>
</g>
<!-- Node5&#45;&gt;Node6 -->
<g id="edge8" class="edge">
<title>Node5&#45;&gt;Node6</title>
<path fill="none" stroke="#9a32cd" stroke-dasharray="5,2" d="M88.79,-165.03C115.81,-176.93 154.98,-195.42 187,-215.42 195.59,-220.79 196.13,-224.52 205,-229.42 215.46,-235.2 227.58,-240.07 238.56,-243.89"/>
<polygon fill="#9a32cd" stroke="#9a32cd" points="89.98,-161.73 79.42,-160.95 87.19,-168.15 89.98,-161.73"/>
<text text-anchor="middle" x="158" y="-218.42" font-family="Helvetica,sans-Serif" font-size="10.00"> name</text>
</g>
<!-- Node6&#45;&gt;Node3 -->
<g id="edge6" class="edge">
<title>Node6&#45;&gt;Node3</title>
<path fill="none" stroke="#9a32cd" stroke-dasharray="5,2" d="M310.53,-240.53C351.9,-226.31 417.49,-203.77 454.56,-191.02"/>
<polygon fill="#9a32cd" stroke="#9a32cd" points="309.14,-237.3 300.82,-243.86 311.41,-243.92 309.14,-237.3"/>
<text text-anchor="middle" x="380.5" y="-227.42" font-family="Helvetica,sans-Serif" font-size="10.00"> field</text>
</g>
<!-- Node7 -->
<g id="node7" class="node">
<title>Node7</title>
<g id="a_node7"><a xlink:title=" ">
<polygon fill="white" stroke="#bfbfbf" points="0,-207.92 0,-226.92 111,-226.92 111,-207.92 0,-207.92"/>
<text text-anchor="middle" x="55.5" y="-214.92" font-family="Helvetica,sans-Serif" font-size="10.00">character(len=128)</text>
</a>
</g>
</g>
<!-- Node7&#45;&gt;Node3 -->
<g id="edge12" class="edge">
<title>Node7&#45;&gt;Node3</title>
<path fill="none" stroke="#9a32cd" stroke-dasharray="5,2" d="M109.52,-205.82C137.73,-200.15 173.09,-193.82 205,-190.42 279.41,-182.5 365.63,-180.87 421.96,-180.82"/>
<polygon fill="#9a32cd" stroke="#9a32cd" points="108.57,-202.44 99.47,-207.88 109.97,-209.3 108.57,-202.44"/>
<text text-anchor="middle" x="272" y="-226.42" font-family="Helvetica,sans-Serif" font-size="10.00"> flux_type</text>
<text text-anchor="middle" x="272" y="-215.42" font-family="Helvetica,sans-Serif" font-size="10.00">ice_restart_file</text>
<text text-anchor="middle" x="272" y="-204.42" font-family="Helvetica,sans-Serif" font-size="10.00">implementation</text>
<text text-anchor="middle" x="272" y="-193.42" font-family="Helvetica,sans-Serif" font-size="10.00">ocean_restart_file</text>
</g>
<!-- Node7&#45;&gt;Node6 -->
<g id="edge9" class="edge">
<title>Node7&#45;&gt;Node6</title>
<path fill="none" stroke="#9a32cd" stroke-dasharray="5,2" d="M121.41,-228.32C150.97,-233.28 185.65,-239.1 214.17,-243.89"/>
<polygon fill="#9a32cd" stroke="#9a32cd" points="121.62,-224.8 111.18,-226.6 120.47,-231.71 121.62,-224.8"/>
<text text-anchor="middle" x="158" y="-253.42" font-family="Helvetica,sans-Serif" font-size="10.00"> long_name</text>
<text text-anchor="middle" x="158" y="-242.42" font-family="Helvetica,sans-Serif" font-size="10.00">units</text>
</g>
<!-- Node8 -->
<g id="node8" class="node">
<title>Node8</title>
<g id="a_node8"><a xlink:title=" ">
<polygon fill="white" stroke="#bfbfbf" points="30,-16.92 30,-35.92 81,-35.92 81,-16.92 30,-16.92"/>
<text text-anchor="middle" x="55.5" y="-23.92" font-family="Helvetica,sans-Serif" font-size="10.00">integer</text>
</a>
</g>
</g>
<!-- Node8&#45;&gt;Node1 -->
<g id="edge15" class="edge">
<title>Node8&#45;&gt;Node1</title>
<path fill="none" stroke="#9a32cd" stroke-dasharray="5,2" d="M91.08,-16.6C102.99,-13.68 116.48,-10.87 129,-9.42 221.72,1.3 246.7,4.46 339,-9.42 471.58,-29.36 603.42,-138.59 640.95,-171.83"/>
<polygon fill="#9a32cd" stroke="#9a32cd" points="89.9,-13.29 81.08,-19.17 91.64,-20.07 89.9,-13.29"/>
<text text-anchor="middle" x="380.5" y="-29.42" font-family="Helvetica,sans-Serif" font-size="10.00"> num_bcs</text>
</g>
<!-- Node8&#45;&gt;Node3 -->
<g id="edge14" class="edge">
<title>Node8&#45;&gt;Node3</title>
<path fill="none" stroke="#9a32cd" stroke-dasharray="5,2" d="M91.58,-20.47C146.42,-12.69 254.91,-3.53 339,-35.42 408.78,-61.89 460.64,-143.18 477.02,-171.54"/>
<polygon fill="#9a32cd" stroke="#9a32cd" points="90.72,-17.06 81.35,-21.99 91.75,-23.98 90.72,-17.06"/>
<text text-anchor="middle" x="272" y="-49.42" font-family="Helvetica,sans-Serif" font-size="10.00"> atm_tr_index</text>
<text text-anchor="middle" x="272" y="-38.42" font-family="Helvetica,sans-Serif" font-size="10.00">num_fields</text>
</g>
<!-- Node8&#45;&gt;Node6 -->
<g id="edge10" class="edge">
<title>Node8&#45;&gt;Node6</title>
<path fill="none" stroke="#9a32cd" stroke-dasharray="5,2" d="M75.72,-42.53C104.03,-67.25 156.84,-117.28 187,-170.42 200.53,-194.27 186.13,-209.53 205,-229.42 211.04,-235.79 218.91,-240.48 227.09,-243.92"/>
<polygon fill="#9a32cd" stroke="#9a32cd" points="77.96,-39.85 68.1,-35.98 73.4,-45.15 77.96,-39.85"/>
<text text-anchor="middle" x="158" y="-173.42" font-family="Helvetica,sans-Serif" font-size="10.00"> id_diag</text>
</g>
<!-- Node9 -->
<g id="node9" class="node">
<title>Node9</title>
<g id="a_node9"><a xlink:title=" ">
<polygon fill="white" stroke="#bfbfbf" points="38,-275.92 38,-294.92 73,-294.92 73,-275.92 38,-275.92"/>
<text text-anchor="middle" x="55.5" y="-282.92" font-family="Helvetica,sans-Serif" font-size="10.00">real</text>
</a>
</g>
</g>
<!-- Node9&#45;&gt;Node3 -->
<g id="edge13" class="edge">
<title>Node9&#45;&gt;Node3</title>
<path fill="none" stroke="#9a32cd" stroke-dasharray="5,2" d="M83.32,-288.15C134.27,-292.48 248.08,-298.01 339,-272.42 394.94,-256.68 449.76,-211.28 472.06,-191.19"/>
<polygon fill="#9a32cd" stroke="#9a32cd" points="83.43,-284.65 73.15,-287.23 82.8,-291.62 83.43,-284.65"/>
<text text-anchor="middle" x="272" y="-294.42" font-family="Helvetica,sans-Serif" font-size="10.00"> mol_wt</text>
</g>
<!-- Node9&#45;&gt;Node6 -->
<g id="edge11" class="edge">
<title>Node9&#45;&gt;Node6</title>
<path fill="none" stroke="#9a32cd" stroke-dasharray="5,2" d="M83.35,-280.82C97.01,-278.52 113.87,-275.74 129,-273.42 153.73,-269.64 180.93,-265.74 204.85,-262.4"/>
<polygon fill="#9a32cd" stroke="#9a32cd" points="82.46,-277.42 73.18,-282.54 83.63,-284.32 82.46,-277.42"/>
<text text-anchor="middle" x="158" y="-276.42" font-family="Helvetica,sans-Serif" font-size="10.00"> values</text>
</g>
</g>
</svg>
