<?xml version="1.0" encoding="UTF-8" standalone="no"?>
<!DOCTYPE svg PUBLIC "-//W3C//DTD SVG 1.1//EN"
 "http://www.w3.org/Graphics/SVG/1.1/DTD/svg11.dtd">
<!-- Generated by graphviz version 2.43.0 (0)
 -->
<!-- Title: fm_list_iter_type Pages: 1 -->
<svg width="459pt" height="249pt"
 viewBox="0.00 0.00 459.00 249.00" xmlns="http://www.w3.org/2000/svg" xmlns:xlink="http://www.w3.org/1999/xlink">
<g id="graph0" class="graph" transform="scale(1 1) rotate(0) translate(4 245)">
<title>fm_list_iter_type</title>
<polygon fill="white" stroke="transparent" points="-4,4 -4,-245 455,-245 455,4 -4,4"/>
<!-- Node1 -->
<g id="node1" class="node">
<title>Node1</title>
<g id="a_node1"><a xlink:title="Iterator over the field manager list.">
<polygon fill="#bfbfbf" stroke="black" points="352,-128.5 352,-147.5 451,-147.5 451,-128.5 352,-128.5"/>
<text text-anchor="middle" x="401.5" y="-135.5" font-family="Helvetica,sans-Serif" font-size="10.00">fm_list_iter_type</text>
</a>
</g>
</g>
<!-- Node2 -->
<g id="node2" class="node">
<title>Node2</title>
<g id="a_node2"><a xlink:href="group__field__manager__mod.html#structfield__manager__mod_1_1field__def" target="_top" xlink:title="Private type for internal use.">
<polygon fill="white" stroke="black" points="240,-128.5 240,-147.5 299,-147.5 299,-128.5 240,-128.5"/>
<text text-anchor="middle" x="269.5" y="-135.5" font-family="Helvetica,sans-Serif" font-size="10.00">field_def</text>
</a>
</g>
</g>
<!-- Node2&#45;&gt;Node1 -->
<g id="edge1" class="edge">
<title>Node2&#45;&gt;Node1</title>
<path fill="none" stroke="#9a32cd" stroke-dasharray="5,2" d="M309.31,-138C322.67,-138 337.8,-138 351.85,-138"/>
<polygon fill="#9a32cd" stroke="#9a32cd" points="309.03,-134.5 299.03,-138 309.03,-141.5 309.03,-134.5"/>
<text text-anchor="middle" x="325.5" y="-141" font-family="Helvetica,sans-Serif" font-size="10.00"> ptr</text>
</g>
<!-- Node2&#45;&gt;Node2 -->
<g id="edge4" class="edge">
<title>Node2&#45;&gt;Node2</title>
<path fill="none" stroke="#9a32cd" stroke-dasharray="5,2" d="M259.19,-157.77C260,-162.5 263.43,-166 269.5,-166 279.45,-166 282.33,-156.57 278.13,-147.76"/>
<polygon fill="#9a32cd" stroke="#9a32cd" points="262.66,-158.2 260.87,-147.76 255.76,-157.04 262.66,-158.2"/>
<text text-anchor="middle" x="269.5" y="-213" font-family="Helvetica,sans-Serif" font-size="10.00"> first_field</text>
<text text-anchor="middle" x="269.5" y="-202" font-family="Helvetica,sans-Serif" font-size="10.00">last_field</text>
<text text-anchor="middle" x="269.5" y="-191" font-family="Helvetica,sans-Serif" font-size="10.00">next</text>
<text text-anchor="middle" x="269.5" y="-180" font-family="Helvetica,sans-Serif" font-size="10.00">parent</text>
<text text-anchor="middle" x="269.5" y="-169" font-family="Helvetica,sans-Serif" font-size="10.00">prev</text>
</g>
<!-- Node3 -->
<g id="node3" class="node">
<title>Node3</title>
<g id="a_node3"><a xlink:title=" ">
<polygon fill="white" stroke="#bfbfbf" points="50,-221.5 50,-240.5 99,-240.5 99,-221.5 50,-221.5"/>
<text text-anchor="middle" x="74.5" y="-228.5" font-family="Helvetica,sans-Serif" font-size="10.00">logical</text>
</a>
</g>
</g>
<!-- Node3&#45;&gt;Node2 -->
<g id="edge2" class="edge">
<title>Node3&#45;&gt;Node2</title>
<path fill="none" stroke="#9a32cd" stroke-dasharray="5,2" d="M109.05,-224.48C140.17,-217.33 186.82,-203.75 222,-181 236.77,-171.45 251.24,-157.04 260.02,-147.58"/>
<polygon fill="#9a32cd" stroke="#9a32cd" points="108.15,-221.09 99.14,-226.66 109.66,-227.93 108.15,-221.09"/>
<text text-anchor="middle" x="194.5" y="-209" font-family="Helvetica,sans-Serif" font-size="10.00"> l_value</text>
</g>
<!-- Node4 -->
<g id="node4" class="node">
<title>Node4</title>
<g id="a_node4"><a xlink:title=" ">
<polygon fill="white" stroke="#bfbfbf" points="10,-172 10,-202 139,-202 139,-172 10,-172"/>
<text text-anchor="start" x="18" y="-190" font-family="Helvetica,sans-Serif" font-size="10.00">character(len=fm_field</text>
<text text-anchor="middle" x="74.5" y="-179" font-family="Helvetica,sans-Serif" font-size="10.00">_name_len)</text>
</a>
</g>
</g>
<!-- Node4&#45;&gt;Node2 -->
<g id="edge3" class="edge">
<title>Node4&#45;&gt;Node2</title>
<path fill="none" stroke="#9a32cd" stroke-dasharray="5,2" d="M149.11,-171.19C172.52,-165.82 198.44,-159.52 222,-153 227.89,-151.37 234.14,-149.47 240.09,-147.58"/>
<polygon fill="#9a32cd" stroke="#9a32cd" points="148.23,-167.8 139.25,-173.43 149.78,-174.63 148.23,-167.8"/>
<text text-anchor="middle" x="194.5" y="-169" font-family="Helvetica,sans-Serif" font-size="10.00"> name</text>
</g>
<!-- Node5 -->
<g id="node5" class="node">
<title>Node5</title>
<g id="a_node5"><a xlink:title=" ">
<polygon fill="white" stroke="#bfbfbf" points="0,-123 0,-153 149,-153 149,-123 0,-123"/>
<text text-anchor="start" x="8" y="-141" font-family="Helvetica,sans-Serif" font-size="10.00">character(len=fm_string</text>
<text text-anchor="middle" x="74.5" y="-130" font-family="Helvetica,sans-Serif" font-size="10.00">_len), dimension(:), pointer</text>
</a>
</g>
</g>
<!-- Node5&#45;&gt;Node2 -->
<g id="edge5" class="edge">
<title>Node5&#45;&gt;Node2</title>
<path fill="none" stroke="#9a32cd" stroke-dasharray="5,2" d="M159.16,-138C188.07,-138 218.55,-138 239.97,-138"/>
<polygon fill="#9a32cd" stroke="#9a32cd" points="159.02,-134.5 149.02,-138 159.02,-141.5 159.02,-134.5"/>
<text text-anchor="middle" x="194.5" y="-141" font-family="Helvetica,sans-Serif" font-size="10.00"> s_value</text>
</g>
<!-- Node6 -->
<g id="node6" class="node">
<title>Node6</title>
<g id="a_node6"><a xlink:title=" ">
<polygon fill="white" stroke="#bfbfbf" points="57,-84.5 57,-103.5 92,-103.5 92,-84.5 57,-84.5"/>
<text text-anchor="middle" x="74.5" y="-91.5" font-family="Helvetica,sans-Serif" font-size="10.00">real</text>
</a>
</g>
</g>
<!-- Node6&#45;&gt;Node2 -->
<g id="edge6" class="edge">
<title>Node6&#45;&gt;Node2</title>
<path fill="none" stroke="#9a32cd" stroke-dasharray="5,2" d="M102.3,-98.34C131.84,-103.34 180.65,-112.28 222,-123 228.08,-124.58 234.52,-126.49 240.62,-128.42"/>
<polygon fill="#9a32cd" stroke="#9a32cd" points="102.78,-94.87 92.34,-96.68 101.63,-101.77 102.78,-94.87"/>
<text text-anchor="middle" x="194.5" y="-126" font-family="Helvetica,sans-Serif" font-size="10.00"> r_value</text>
</g>
<!-- Node7 -->
<g id="node7" class="node">
<title>Node7</title>
<g id="a_node7"><a xlink:title=" ">
<polygon fill="white" stroke="#bfbfbf" points="49,-0.5 49,-19.5 100,-19.5 100,-0.5 49,-0.5"/>
<text text-anchor="middle" x="74.5" y="-7.5" font-family="Helvetica,sans-Serif" font-size="10.00">integer</text>
</a>
</g>
</g>
<!-- Node7&#45;&gt;Node2 -->
<g id="edge7" class="edge">
<title>Node7&#45;&gt;Node2</title>
<path fill="none" stroke="#9a32cd" stroke-dasharray="5,2" d="M110.3,-9.02C142.49,-9.88 190.05,-15.89 222,-41 250.78,-63.62 262.75,-108.46 266.78,-128.24"/>
<polygon fill="#9a32cd" stroke="#9a32cd" points="110.06,-5.51 100.02,-8.9 109.98,-12.51 110.06,-5.51"/>
<text text-anchor="middle" x="194.5" y="-99" font-family="Helvetica,sans-Serif" font-size="10.00"> array_dim</text>
<text text-anchor="middle" x="194.5" y="-88" font-family="Helvetica,sans-Serif" font-size="10.00">field_type</text>
<text text-anchor="middle" x="194.5" y="-77" font-family="Helvetica,sans-Serif" font-size="10.00">i_value</text>
<text text-anchor="middle" x="194.5" y="-66" font-family="Helvetica,sans-Serif" font-size="10.00">index</text>
<text text-anchor="middle" x="194.5" y="-55" font-family="Helvetica,sans-Serif" font-size="10.00">length</text>
<text text-anchor="middle" x="194.5" y="-44" font-family="Helvetica,sans-Serif" font-size="10.00">max_index</text>
</g>
</g>
</svg>
