<?xml version="1.0" encoding="UTF-8" standalone="no"?>
<!DOCTYPE svg PUBLIC "-//W3C//DTD SVG 1.1//EN"
 "http://www.w3.org/Graphics/SVG/1.1/DTD/svg11.dtd">
<!-- Generated by graphviz version 2.43.0 (0)
 -->
<!-- Title: x2_type Pages: 1 -->
<svg width="156pt" height="139pt"
 viewBox="0.00 0.00 156.00 139.00" xmlns="http://www.w3.org/2000/svg" xmlns:xlink="http://www.w3.org/1999/xlink">
<g id="graph0" class="graph" transform="scale(1 1) rotate(0) translate(4 135)">
<title>x2_type</title>
<polygon fill="white" stroke="transparent" points="-4,4 -4,-135 152,-135 152,4 -4,4"/>
<!-- Node1 -->
<g id="node1" class="node">
<title>Node1</title>
<g id="a_node1"><a xlink:title="Private type for exchange grid data.">
<polygon fill="#bfbfbf" stroke="black" points="52.5,-0.5 52.5,-19.5 108.5,-19.5 108.5,-0.5 52.5,-0.5"/>
<text text-anchor="middle" x="80.5" y="-7.5" font-family="Helvetica,sans-Serif" font-size="10.00">x2_type</text>
</a>
</g>
</g>
<!-- Node2 -->
<g id="node2" class="node">
<title>Node2</title>
<g id="a_node2"><a xlink:title=" ">
<polygon fill="white" stroke="#bfbfbf" points="0,-111.5 0,-130.5 79,-130.5 79,-111.5 0,-111.5"/>
<text text-anchor="middle" x="39.5" y="-118.5" font-family="Helvetica,sans-Serif" font-size="10.00">real(r8_kind)</text>
</a>
</g>
</g>
<!-- Node2&#45;&gt;Node1 -->
<g id="edge1" class="edge">
<title>Node2&#45;&gt;Node1</title>
<path fill="none" stroke="#9a32cd" stroke-dasharray="5,2" d="M46.33,-101.84C55.29,-78.01 70.66,-37.15 77.3,-19.51"/>
<polygon fill="#9a32cd" stroke="#9a32cd" points="42.96,-100.85 42.72,-111.45 49.51,-103.32 42.96,-100.85"/>
<text text-anchor="middle" x="83" y="-63" font-family="Helvetica,sans-Serif" font-size="10.00"> area</text>
</g>
<!-- Node3 -->
<g id="node3" class="node">
<title>Node3</title>
<g id="a_node3"><a xlink:title=" ">
<polygon fill="white" stroke="#bfbfbf" points="97,-111.5 97,-130.5 148,-130.5 148,-111.5 97,-111.5"/>
<text text-anchor="middle" x="122.5" y="-118.5" font-family="Helvetica,sans-Serif" font-size="10.00">integer</text>
</a>
</g>
</g>
<!-- Node3&#45;&gt;Node1 -->
<g id="edge2" class="edge">
<title>Node3&#45;&gt;Node1</title>
<path fill="none" stroke="#9a32cd" stroke-dasharray="5,2" d="M119.12,-101.19C115.62,-84.14 109.28,-58.6 99.5,-38 96.35,-31.37 91.6,-24.62 87.64,-19.53"/>
<polygon fill="#9a32cd" stroke="#9a32cd" points="115.69,-101.87 121.02,-111.03 122.56,-100.55 115.69,-101.87"/>
<text text-anchor="middle" x="125.5" y="-85" font-family="Helvetica,sans-Serif" font-size="10.00"> i</text>
<text text-anchor="middle" x="125.5" y="-74" font-family="Helvetica,sans-Serif" font-size="10.00">j</text>
<text text-anchor="middle" x="125.5" y="-63" font-family="Helvetica,sans-Serif" font-size="10.00">k</text>
<text text-anchor="middle" x="125.5" y="-52" font-family="Helvetica,sans-Serif" font-size="10.00">l</text>
<text text-anchor="middle" x="125.5" y="-41" font-family="Helvetica,sans-Serif" font-size="10.00">pos</text>
</g>
</g>
</svg>
