<?xml version="1.0" encoding="UTF-8" standalone="no"?>
<!DOCTYPE svg PUBLIC "-//W3C//DTD SVG 1.1//EN"
 "http://www.w3.org/Graphics/SVG/1.1/DTD/svg11.dtd">
<!-- Generated by graphviz version 2.43.0 (0)
 -->
<!-- Title: fmsdiagtimereduction_type Pages: 1 -->
<svg width="224pt" height="106pt"
 viewBox="0.00 0.00 224.00 106.00" xmlns="http://www.w3.org/2000/svg" xmlns:xlink="http://www.w3.org/1999/xlink">
<g id="graph0" class="graph" transform="scale(1 1) rotate(0) translate(4 102)">
<title>fmsdiagtimereduction_type</title>
<polygon fill="white" stroke="transparent" points="-4,4 -4,-102 220,-102 220,4 -4,4"/>
<!-- Node1 -->
<g id="node1" class="node">
<title>Node1</title>
<g id="a_node1"><a xlink:title=" ">
<polygon fill="#bfbfbf" stroke="black" points="0,-0.5 0,-19.5 152,-19.5 152,-0.5 0,-0.5"/>
<text text-anchor="middle" x="76" y="-7.5" font-family="Helvetica,sans-Serif" font-size="10.00">fmsdiagtimereduction_type</text>
</a>
</g>
</g>
<!-- Node2 -->
<g id="node2" class="node">
<title>Node2</title>
<g id="a_node2"><a xlink:title=" ">
<polygon fill="white" stroke="#bfbfbf" points="0.5,-78.5 0.5,-97.5 49.5,-97.5 49.5,-78.5 0.5,-78.5"/>
<text text-anchor="middle" x="25" y="-85.5" font-family="Helvetica,sans-Serif" font-size="10.00">logical</text>
</a>
</g>
</g>
<!-- Node2&#45;&gt;Node1 -->
<g id="edge1" class="edge">
<title>Node2&#45;&gt;Node1</title>
<path fill="none" stroke="#9a32cd" stroke-dasharray="5,2" d="M21.13,-68.42C20.1,-58.69 20.52,-46.97 26,-38 31.09,-29.66 39.72,-23.74 48.39,-19.6"/>
<polygon fill="#9a32cd" stroke="#9a32cd" points="17.67,-68.99 22.71,-78.31 24.58,-67.88 17.67,-68.99"/>
<text text-anchor="middle" x="66" y="-52" font-family="Helvetica,sans-Serif" font-size="10.00"> time_averaging</text>
<text text-anchor="middle" x="66" y="-41" font-family="Helvetica,sans-Serif" font-size="10.00">time_ops</text>
</g>
<!-- Node3 -->
<g id="node3" class="node">
<title>Node3</title>
<g id="a_node3"><a xlink:title=" ">
<polygon fill="white" stroke="#bfbfbf" points="102.5,-78.5 102.5,-97.5 153.5,-97.5 153.5,-78.5 102.5,-78.5"/>
<text text-anchor="middle" x="128" y="-85.5" font-family="Helvetica,sans-Serif" font-size="10.00">integer</text>
</a>
</g>
</g>
<!-- Node3&#45;&gt;Node1 -->
<g id="edge2" class="edge">
<title>Node3&#45;&gt;Node1</title>
<path fill="none" stroke="#9a32cd" stroke-dasharray="5,2" d="M121.99,-69C118.26,-59.29 112.86,-47.41 106,-38 100.88,-30.98 93.68,-24.43 87.62,-19.53"/>
<polygon fill="#9a32cd" stroke="#9a32cd" points="118.72,-70.23 125.38,-78.46 125.31,-67.87 118.72,-70.23"/>
<text text-anchor="middle" x="167" y="-46.5" font-family="Helvetica,sans-Serif" font-size="10.00"> the_time_reduction</text>
</g>
</g>
</svg>
