<?xml version="1.0" encoding="UTF-8" standalone="no"?>
<!DOCTYPE svg PUBLIC "-//W3C//DTD SVG 1.1//EN"
 "http://www.w3.org/Graphics/SVG/1.1/DTD/svg11.dtd">
<!-- Generated by graphviz version 2.43.0 (0)
 -->
<!-- Title: domaindimension_t Pages: 1 -->
<svg width="188pt" height="106pt"
 viewBox="0.00 0.00 188.00 106.00" xmlns="http://www.w3.org/2000/svg" xmlns:xlink="http://www.w3.org/1999/xlink">
<g id="graph0" class="graph" transform="scale(1 1) rotate(0) translate(4 102)">
<title>domaindimension_t</title>
<polygon fill="white" stroke="transparent" points="-4,4 -4,-102 184,-102 184,4 -4,4"/>
<!-- Node1 -->
<g id="node1" class="node">
<title>Node1</title>
<g id="a_node1"><a xlink:title="Domain variable.">
<polygon fill="#bfbfbf" stroke="black" points="48,-0.5 48,-19.5 161,-19.5 161,-0.5 48,-0.5"/>
<text text-anchor="middle" x="104.5" y="-7.5" font-family="Helvetica,sans-Serif" font-size="10.00">domaindimension_t</text>
</a>
</g>
</g>
<!-- Node2 -->
<g id="node2" class="node">
<title>Node2</title>
<g id="a_node2"><a xlink:title=" ">
<polygon fill="white" stroke="#bfbfbf" points="0,-67.5 0,-97.5 111,-97.5 111,-67.5 0,-67.5"/>
<text text-anchor="start" x="8" y="-85.5" font-family="Helvetica,sans-Serif" font-size="10.00">character(len=nf90</text>
<text text-anchor="middle" x="55.5" y="-74.5" font-family="Helvetica,sans-Serif" font-size="10.00">_max_name)</text>
</a>
</g>
</g>
<!-- Node2&#45;&gt;Node1 -->
<g id="edge1" class="edge">
<title>Node2&#45;&gt;Node1</title>
<path fill="none" stroke="#9a32cd" stroke-dasharray="5,2" d="M71.13,-58.75C75.74,-52.06 80.81,-44.73 85.5,-38 89.69,-31.98 94.44,-25.23 98.15,-19.99"/>
<polygon fill="#9a32cd" stroke="#9a32cd" points="67.98,-57.15 65.19,-67.37 73.75,-61.12 67.98,-57.15"/>
<text text-anchor="middle" x="109" y="-41" font-family="Helvetica,sans-Serif" font-size="10.00"> varname</text>
</g>
<!-- Node3 -->
<g id="node3" class="node">
<title>Node3</title>
<g id="a_node3"><a xlink:title=" ">
<polygon fill="white" stroke="#bfbfbf" points="129,-73 129,-92 180,-92 180,-73 129,-73"/>
<text text-anchor="middle" x="154.5" y="-80" font-family="Helvetica,sans-Serif" font-size="10.00">integer</text>
</a>
</g>
</g>
<!-- Node3&#45;&gt;Node1 -->
<g id="edge2" class="edge">
<title>Node3&#45;&gt;Node1</title>
<path fill="none" stroke="#9a32cd" stroke-dasharray="5,2" d="M146.98,-63.34C143.21,-55.22 138.23,-45.76 132.5,-38 127.45,-31.15 120.58,-24.51 114.92,-19.52"/>
<polygon fill="#9a32cd" stroke="#9a32cd" points="143.85,-64.92 151.07,-72.67 150.26,-62.11 143.85,-64.92"/>
<text text-anchor="middle" x="149" y="-41" font-family="Helvetica,sans-Serif" font-size="10.00"> pos</text>
</g>
</g>
</svg>
