<?xml version="1.0" encoding="UTF-8" standalone="no"?>
<!DOCTYPE svg PUBLIC "-//W3C//DTD SVG 1.1//EN"
 "http://www.w3.org/Graphics/SVG/1.1/DTD/svg11.dtd">
<!-- Generated by graphviz version 2.43.0 (0)
 -->
<!-- Title: field_mgr_type Pages: 1 -->
<svg width="454pt" height="206pt"
 viewBox="0.00 0.00 454.00 206.00" xmlns="http://www.w3.org/2000/svg" xmlns:xlink="http://www.w3.org/1999/xlink">
<g id="graph0" class="graph" transform="scale(1 1) rotate(0) translate(4 202)">
<title>field_mgr_type</title>
<polygon fill="white" stroke="transparent" points="-4,4 -4,-202 450,-202 450,4 -4,4"/>
<!-- Node1 -->
<g id="node1" class="node">
<title>Node1</title>
<g id="a_node1"><a xlink:title="Private type for internal use.">
<polygon fill="#bfbfbf" stroke="black" points="224.5,-0.5 224.5,-19.5 313.5,-19.5 313.5,-0.5 224.5,-0.5"/>
<text text-anchor="middle" x="269" y="-7.5" font-family="Helvetica,sans-Serif" font-size="10.00">field_mgr_type</text>
</a>
</g>
</g>
<!-- Node2 -->
<g id="node2" class="node">
<title>Node2</title>
<g id="a_node2"><a xlink:href="group__field__manager__mod.html#structfield__manager__mod_1_1method__type" target="_top" xlink:title="This method_type is a way to allow a component module to alter the parameters it needs for various tr...">
<polygon fill="white" stroke="black" points="140.5,-84 140.5,-103 221.5,-103 221.5,-84 140.5,-84"/>
<text text-anchor="middle" x="181" y="-91" font-family="Helvetica,sans-Serif" font-size="10.00">method_type</text>
</a>
</g>
</g>
<!-- Node2&#45;&gt;Node1 -->
<g id="edge1" class="edge">
<title>Node2&#45;&gt;Node1</title>
<path fill="none" stroke="#9a32cd" stroke-dasharray="5,2" d="M194.47,-76.07C204.09,-64.79 217.65,-49.78 231,-38 238.65,-31.25 247.97,-24.61 255.47,-19.6"/>
<polygon fill="#9a32cd" stroke="#9a32cd" points="191.69,-73.94 187.95,-83.86 197.05,-78.44 191.69,-73.94"/>
<text text-anchor="middle" x="254" y="-46.5" font-family="Helvetica,sans-Serif" font-size="10.00"> methods</text>
</g>
<!-- Node3 -->
<g id="node3" class="node">
<title>Node3</title>
<g id="a_node3"><a xlink:title=" ">
<polygon fill="white" stroke="#bfbfbf" points="0,-178.5 0,-197.5 160,-197.5 160,-178.5 0,-178.5"/>
<text text-anchor="middle" x="80" y="-185.5" font-family="Helvetica,sans-Serif" font-size="10.00">character(len=fm_string_len)</text>
</a>
</g>
</g>
<!-- Node3&#45;&gt;Node1 -->
<g id="edge5" class="edge">
<title>Node3&#45;&gt;Node1</title>
<path fill="none" stroke="#9a32cd" stroke-dasharray="5,2" d="M72.44,-169C63.98,-145.69 53.78,-104.89 73,-78 107.2,-30.17 177.66,-16.11 224.12,-12.19"/>
<polygon fill="#9a32cd" stroke="#9a32cd" points="69.2,-170.32 76.1,-178.36 75.72,-167.77 69.2,-170.32"/>
<text text-anchor="middle" x="102" y="-91" font-family="Helvetica,sans-Serif" font-size="10.00"> field_name</text>
</g>
<!-- Node3&#45;&gt;Node2 -->
<g id="edge2" class="edge">
<title>Node3&#45;&gt;Node2</title>
<path fill="none" stroke="#9a32cd" stroke-dasharray="5,2" d="M96.74,-171.67C118.2,-152.02 154.66,-118.63 171.7,-103.02"/>
<polygon fill="#9a32cd" stroke="#9a32cd" points="94.33,-169.13 89.32,-178.46 99.06,-174.29 94.33,-169.13"/>
<text text-anchor="middle" x="186" y="-152" font-family="Helvetica,sans-Serif" font-size="10.00"> method_control</text>
<text text-anchor="middle" x="186" y="-141" font-family="Helvetica,sans-Serif" font-size="10.00">method_name</text>
<text text-anchor="middle" x="186" y="-130" font-family="Helvetica,sans-Serif" font-size="10.00">method_type</text>
</g>
<!-- Node4 -->
<g id="node4" class="node">
<title>Node4</title>
<g id="a_node4"><a xlink:title=" ">
<polygon fill="white" stroke="#bfbfbf" points="239.5,-78.5 239.5,-108.5 368.5,-108.5 368.5,-78.5 239.5,-78.5"/>
<text text-anchor="start" x="247.5" y="-96.5" font-family="Helvetica,sans-Serif" font-size="10.00">character(len=fm_field</text>
<text text-anchor="middle" x="304" y="-85.5" font-family="Helvetica,sans-Serif" font-size="10.00">_name_len)</text>
</a>
</g>
</g>
<!-- Node4&#45;&gt;Node1 -->
<g id="edge3" class="edge">
<title>Node4&#45;&gt;Node1</title>
<path fill="none" stroke="#9a32cd" stroke-dasharray="5,2" d="M293.79,-68.72C286.68,-52.18 277.63,-31.1 272.67,-19.54"/>
<polygon fill="#9a32cd" stroke="#9a32cd" points="290.74,-70.5 297.9,-78.3 297.17,-67.73 290.74,-70.5"/>
<text text-anchor="middle" x="315" y="-46.5" font-family="Helvetica,sans-Serif" font-size="10.00"> field_type</text>
</g>
<!-- Node5 -->
<g id="node5" class="node">
<title>Node5</title>
<g id="a_node5"><a xlink:title=" ">
<polygon fill="white" stroke="#bfbfbf" points="386.5,-84 386.5,-103 437.5,-103 437.5,-84 386.5,-84"/>
<text text-anchor="middle" x="412" y="-91" font-family="Helvetica,sans-Serif" font-size="10.00">integer</text>
</a>
</g>
</g>
<!-- Node5&#45;&gt;Node1 -->
<g id="edge4" class="edge">
<title>Node5&#45;&gt;Node1</title>
<path fill="none" stroke="#9a32cd" stroke-dasharray="5,2" d="M395.66,-76.5C382.77,-64.59 363.87,-48.61 345,-38 331.21,-30.25 314.78,-24.08 300.74,-19.6"/>
<polygon fill="#9a32cd" stroke="#9a32cd" points="393.53,-79.31 403.2,-83.65 398.35,-74.23 393.53,-79.31"/>
<text text-anchor="middle" x="411" y="-52" font-family="Helvetica,sans-Serif" font-size="10.00"> model</text>
<text text-anchor="middle" x="411" y="-41" font-family="Helvetica,sans-Serif" font-size="10.00">num_methods</text>
</g>
</g>
</svg>
