<?xml version="1.0" encoding="UTF-8" standalone="no"?>
<!DOCTYPE svg PUBLIC "-//W3C//DTD SVG 1.1//EN"
 "http://www.w3.org/Graphics/SVG/1.1/DTD/svg11.dtd">
<!-- Generated by graphviz version 2.43.0 (0)
 -->
<!-- Title: fmtable_t Pages: 1 -->
<!--zoomable 499 -->
<svg id="main" version="1.1" xmlns="http://www.w3.org/2000/svg" xmlns:xlink="http://www.w3.org/1999/xlink" xml:space="preserve" onload="init(evt)">
<style type="text/css"><![CDATA[
.edge:hover path { stroke: red; }
.edge:hover polygon { stroke: red; fill: red; }
]]></style>
<script type="text/javascript"><![CDATA[
var edges = document.getElementsByTagName('g');
if (edges && edges.length) {
  for (var i=0;i<edges.length;i++) {
    if (edges[i].id.substr(0,4)=='edge') {
      edges[i].setAttribute('class','edge');
    }
  }
}
]]></script>
        <defs>
                <circle id="rim" cx="0" cy="0" r="7"/>
                <circle id="rim2" cx="0" cy="0" r="3.5"/>
                <g id="zoomPlus">
                        <use xlink:href="#rim" fill="#404040">
                                <set attributeName="fill" to="#808080" begin="zoomplus.mouseover" end="zoomplus.mouseout"/>
                        </use>
                        <path d="M-4,0h8M0,-4v8" fill="none" stroke="white" stroke-width="1.5" pointer-events="none"/>
                </g>
                <g id="zoomMin">
                        <use xlink:href="#rim" fill="#404040">
                                <set attributeName="fill" to="#808080" begin="zoomminus.mouseover" end="zoomminus.mouseout"/>
                        </use>
                        <path d="M-4,0h8" fill="none" stroke="white" stroke-width="1.5" pointer-events="none"/>
                </g>
                <g id="dirArrow">
                        <path fill="none" stroke="white" stroke-width="1.5" d="M0,-3.0v7 M-2.5,-0.5L0,-3.0L2.5,-0.5"/>
                </g>
               <g id="resetDef">
                       <use xlink:href="#rim2" fill="#404040">
                               <set attributeName="fill" to="#808080" begin="reset.mouseover" end="reset.mouseout"/>
                       </use>
               </g>
        </defs>

<script type="text/javascript">
var viewWidth = 765;
var viewHeight = 499;
var sectionId = 'dynsection-2';
</script>
<script xlink:href="svgpan.js"/>
<svg id="graph" class="graph">
<g id="viewport">
<title>fmtable_t</title>
<polygon fill="white" stroke="transparent" points="-4,4 -4,-495 760.5,-495 760.5,4 -4,4"/>
<!-- Node1 -->
<g id="node1" class="node">
<title>Node1</title>
<g id="a_node1"><a xlink:title="This type represents the entirety of the field table. This type contains the file id of the yaml file...">
<polygon fill="#bfbfbf" stroke="black" points="591,-0.5 591,-19.5 655,-19.5 655,-0.5 591,-0.5"/>
<text text-anchor="middle" x="623" y="-7.5" font-family="Helvetica,sans-Serif" font-size="10.00">fmtable_t</text>
</a>
</g>
</g>
<!-- Node2 -->
<g id="node2" class="node">
<title>Node2</title>
<g id="a_node2"><a xlink:href="group__fm__yaml__mod.html#structfm__yaml__mod_1_1fmtype__t" target="_top" xlink:title="This type represents the entries for a specific field type, e.g. a tracer. This type contains the nam...">
<polygon fill="white" stroke="black" points="432.5,-67.5 432.5,-86.5 493.5,-86.5 493.5,-67.5 432.5,-67.5"/>
<text text-anchor="middle" x="463" y="-74.5" font-family="Helvetica,sans-Serif" font-size="10.00">fmtype_t</text>
</a>
</g>
</g>
<!-- Node2&#45;&gt;Node1 -->
<g id="edge1" class="edge">
<title>Node2&#45;&gt;Node1</title>
<path fill="none" stroke="#9a32cd" stroke-dasharray="5,2" d="M493.51,-63.6C525.28,-50.7 574.19,-30.83 601.92,-19.56"/>
<polygon fill="#9a32cd" stroke="#9a32cd" points="492.19,-60.36 484.25,-67.37 494.83,-66.85 492.19,-60.36"/>
<text text-anchor="middle" x="574.5" y="-41" font-family="Helvetica,sans-Serif" font-size="10.00"> children</text>
</g>
<!-- Node3 -->
<g id="node3" class="node">
<title>Node3</title>
<g id="a_node3"><a xlink:href="group__fm__yaml__mod.html#structfm__yaml__mod_1_1fmmodel__t" target="_top" xlink:title="This type represents the entries for a given model, e.g. land, ocean, atmosphere. This type contains ...">
<polygon fill="white" stroke="black" points="322,-134.5 322,-153.5 392,-153.5 392,-134.5 322,-134.5"/>
<text text-anchor="middle" x="357" y="-141.5" font-family="Helvetica,sans-Serif" font-size="10.00">fmmodel_t</text>
</a>
</g>
</g>
<!-- Node3&#45;&gt;Node2 -->
<g id="edge2" class="edge">
<title>Node3&#45;&gt;Node2</title>
<path fill="none" stroke="#9a32cd" stroke-dasharray="5,2" d="M374.54,-127.9C383.59,-120.5 395.02,-111.75 406,-105 417.48,-97.95 431.08,-91.44 442.12,-86.58"/>
<polygon fill="#9a32cd" stroke="#9a32cd" points="372.1,-125.37 366.67,-134.47 376.59,-130.74 372.1,-125.37"/>
<text text-anchor="middle" x="427.5" y="-108" font-family="Helvetica,sans-Serif" font-size="10.00"> children</text>
</g>
<!-- Node4 -->
<g id="node4" class="node">
<title>Node4</title>
<g id="a_node4"><a xlink:title=" ">
<polygon fill="white" stroke="#bfbfbf" points="0,-466 0,-485 156,-485 156,-466 0,-466"/>
<text text-anchor="middle" x="78" y="-473" font-family="Helvetica,sans-Serif" font-size="10.00">character(len=:), allocatable</text>
</a>
</g>
</g>
<!-- Node4&#45;&gt;Node2 -->
<g id="edge15" class="edge">
<title>Node4&#45;&gt;Node2</title>
<path fill="none" stroke="#9a32cd" stroke-dasharray="5,2" d="M56.43,-460.02C33.65,-442.8 1,-411.8 1,-375.5 1,-375.5 1,-375.5 1,-143 1,-99.31 329.14,-83.09 432.33,-79.08"/>
<polygon fill="#9a32cd" stroke="#9a32cd" points="54.43,-462.89 64.59,-465.92 58.54,-457.22 54.43,-462.89"/>
<text text-anchor="middle" x="16.5" y="-242.5" font-family="Helvetica,sans-Serif" font-size="10.00"> name</text>
</g>
<!-- Node4&#45;&gt;Node3 -->
<g id="edge3" class="edge">
<title>Node4&#45;&gt;Node3</title>
<path fill="none" stroke="#9a32cd" stroke-dasharray="5,2" d="M76.64,-455.51C74.99,-419.16 76.05,-338.6 112,-285 162.89,-209.12 269.66,-169.5 323.88,-153.58"/>
<polygon fill="#9a32cd" stroke="#9a32cd" points="73.15,-455.89 77.23,-465.67 80.14,-455.48 73.15,-455.89"/>
<text text-anchor="middle" x="127.5" y="-304.5" font-family="Helvetica,sans-Serif" font-size="10.00"> name</text>
</g>
<!-- Node6 -->
<g id="node6" class="node">
<title>Node6</title>
<g id="a_node6"><a xlink:href="group__fm__yaml__mod.html#structfm__yaml__mod_1_1fmvar__t" target="_top" xlink:title="This type represents the entries for a given variable, e.g. dust. This type contains the name of the ...">
<polygon fill="white" stroke="black" points="254.5,-235.5 254.5,-254.5 309.5,-254.5 309.5,-235.5 254.5,-235.5"/>
<text text-anchor="middle" x="282" y="-242.5" font-family="Helvetica,sans-Serif" font-size="10.00">fmvar_t</text>
</a>
</g>
</g>
<!-- Node4&#45;&gt;Node6 -->
<g id="edge11" class="edge">
<title>Node4&#45;&gt;Node6</title>
<path fill="none" stroke="#9a32cd" stroke-dasharray="5,2" d="M83.42,-455.96C95.55,-417.83 128.58,-330.42 188,-285 207.79,-269.87 234.3,-259.58 254.12,-253.38"/>
<polygon fill="#9a32cd" stroke="#9a32cd" points="80.01,-455.13 80.44,-465.72 86.71,-457.18 80.01,-455.13"/>
<text text-anchor="middle" x="147.5" y="-372" font-family="Helvetica,sans-Serif" font-size="10.00"> name</text>
</g>
<!-- Node7 -->
<g id="node7" class="node">
<title>Node7</title>
<g id="a_node7"><a xlink:href="group__fm__yaml__mod.html#structfm__yaml__mod_1_1fmattr__t" target="_top" xlink:title="This type represents the subparameters for a given variable parameter. This type contains the name of...">
<polygon fill="white" stroke="black" points="345,-365 345,-384 401,-384 401,-365 345,-365"/>
<text text-anchor="middle" x="373" y="-372" font-family="Helvetica,sans-Serif" font-size="10.00">fmattr_t</text>
</a>
</g>
</g>
<!-- Node4&#45;&gt;Node7 -->
<g id="edge7" class="edge">
<title>Node4&#45;&gt;Node7</title>
<path fill="none" stroke="#9a32cd" stroke-dasharray="5,2" d="M108.74,-462.23C140.07,-450.1 190.3,-431.71 235,-420 278.69,-408.56 293.29,-419.32 335,-402 345.4,-397.68 355.79,-390.16 363.07,-384.23"/>
<polygon fill="#9a32cd" stroke="#9a32cd" points="107.3,-459.03 99.26,-465.93 109.85,-465.55 107.3,-459.03"/>
<text text-anchor="middle" x="266.5" y="-428.5" font-family="Helvetica,sans-Serif" font-size="10.00"> paramname</text>
</g>
<!-- Node5 -->
<g id="node5" class="node">
<title>Node5</title>
<g id="a_node5"><a xlink:title=" ">
<polygon fill="white" stroke="#bfbfbf" points="406.5,-235.5 406.5,-254.5 505.5,-254.5 505.5,-235.5 406.5,-235.5"/>
<text text-anchor="middle" x="456" y="-242.5" font-family="Helvetica,sans-Serif" font-size="10.00">character(len=7)</text>
</a>
</g>
</g>
<!-- Node5&#45;&gt;Node2 -->
<g id="edge16" class="edge">
<title>Node5&#45;&gt;Node2</title>
<path fill="none" stroke="#9a32cd" stroke-dasharray="5,2" d="M456.8,-224.93C458.32,-188.92 461.56,-112.23 462.64,-86.57"/>
<polygon fill="#9a32cd" stroke="#9a32cd" points="453.3,-224.94 456.38,-235.08 460.29,-225.23 453.3,-224.94"/>
<text text-anchor="middle" x="490" y="-141.5" font-family="Helvetica,sans-Serif" font-size="10.00"> blockname</text>
</g>
<!-- Node5&#45;&gt;Node3 -->
<g id="edge4" class="edge">
<title>Node5&#45;&gt;Node3</title>
<path fill="none" stroke="#9a32cd" stroke-dasharray="5,2" d="M427.06,-230.8C414.91,-224.27 401.25,-215.51 391,-205 375.95,-189.57 365.26,-166.18 360.23,-153.65"/>
<polygon fill="#9a32cd" stroke="#9a32cd" points="425.48,-233.92 435.98,-235.36 428.67,-227.69 425.48,-233.92"/>
<text text-anchor="middle" x="420" y="-186" font-family="Helvetica,sans-Serif" font-size="10.00"> blockname</text>
</g>
<!-- Node6&#45;&gt;Node3 -->
<g id="edge5" class="edge">
<title>Node6&#45;&gt;Node3</title>
<path fill="none" stroke="#9a32cd" stroke-dasharray="5,2" d="M282.37,-225.28C283.6,-209.48 287.64,-187.07 300,-172 306.87,-163.62 316.95,-157.68 326.73,-153.55"/>
<polygon fill="#9a32cd" stroke="#9a32cd" points="278.86,-225.27 281.88,-235.42 285.86,-225.6 278.86,-225.27"/>
<text text-anchor="middle" x="321.5" y="-186" font-family="Helvetica,sans-Serif" font-size="10.00"> children</text>
</g>
<!-- Node7&#45;&gt;Node6 -->
<g id="edge6" class="edge">
<title>Node7&#45;&gt;Node6</title>
<path fill="none" stroke="#9a32cd" stroke-dasharray="5,2" d="M370.4,-354.9C366.93,-335.7 359.22,-305.71 343,-285 332.3,-271.34 315.41,-261.08 302.12,-254.51"/>
<polygon fill="#9a32cd" stroke="#9a32cd" points="366.95,-355.48 371.99,-364.8 373.86,-354.37 366.95,-355.48"/>
<text text-anchor="middle" x="385.5" y="-304.5" font-family="Helvetica,sans-Serif" font-size="10.00"> children</text>
</g>
<!-- Node8 -->
<g id="node8" class="node">
<title>Node8</title>
<g id="a_node8"><a xlink:title=" ">
<polygon fill="white" stroke="#bfbfbf" points="186.5,-460.5 186.5,-490.5 339.5,-490.5 339.5,-460.5 186.5,-460.5"/>
<text text-anchor="start" x="194.5" y="-478.5" font-family="Helvetica,sans-Serif" font-size="10.00">character(len=:), dimension</text>
<text text-anchor="middle" x="263" y="-467.5" font-family="Helvetica,sans-Serif" font-size="10.00">(:), allocatable</text>
</a>
</g>
</g>
<!-- Node8&#45;&gt;Node6 -->
<g id="edge12" class="edge">
<title>Node8&#45;&gt;Node6</title>
<path fill="none" stroke="#9a32cd" stroke-dasharray="5,2" d="M235.84,-454.18C214.62,-437.62 187.78,-414.93 182,-402 172.02,-379.68 172.7,-369.61 182,-347 199.65,-304.1 245.31,-269.74 268.32,-254.51"/>
<polygon fill="#9a32cd" stroke="#9a32cd" points="233.88,-457.08 243.93,-460.41 238.15,-451.53 233.88,-457.08"/>
<text text-anchor="middle" x="200" y="-377.5" font-family="Helvetica,sans-Serif" font-size="10.00"> values</text>
<text text-anchor="middle" x="200" y="-366.5" font-family="Helvetica,sans-Serif" font-size="10.00">keys</text>
</g>
<!-- Node8&#45;&gt;Node7 -->
<g id="edge8" class="edge">
<title>Node8&#45;&gt;Node7</title>
<path fill="none" stroke="#9a32cd" stroke-dasharray="5,2" d="M286.37,-453.46C310.33,-431.9 346.41,-399.43 363.44,-384.1"/>
<polygon fill="#9a32cd" stroke="#9a32cd" points="283.85,-451.02 278.76,-460.32 288.53,-456.23 283.85,-451.02"/>
<text text-anchor="middle" x="340" y="-434" font-family="Helvetica,sans-Serif" font-size="10.00"> values</text>
<text text-anchor="middle" x="340" y="-423" font-family="Helvetica,sans-Serif" font-size="10.00">keys</text>
</g>
<!-- Node9 -->
<g id="node9" class="node">
<title>Node9</title>
<g id="a_node9"><a xlink:title=" ">
<polygon fill="white" stroke="#bfbfbf" points="485.5,-466 485.5,-485 536.5,-485 536.5,-466 485.5,-466"/>
<text text-anchor="middle" x="511" y="-473" font-family="Helvetica,sans-Serif" font-size="10.00">integer</text>
</a>
</g>
</g>
<!-- Node9&#45;&gt;Node1 -->
<g id="edge19" class="edge">
<title>Node9&#45;&gt;Node1</title>
<path fill="none" stroke="#9a32cd" stroke-dasharray="5,2" d="M543.83,-461.9C576.88,-446.82 623,-418.13 623,-375.5 623,-375.5 623,-375.5 623,-76 623,-55.91 623,-32.33 623,-19.83"/>
<polygon fill="#9a32cd" stroke="#9a32cd" points="542.25,-458.77 534.48,-465.97 545.04,-465.19 542.25,-458.77"/>
<text text-anchor="middle" x="646" y="-197" font-family="Helvetica,sans-Serif" font-size="10.00"> child_ids</text>
<text text-anchor="middle" x="646" y="-186" font-family="Helvetica,sans-Serif" font-size="10.00">yfid</text>
<text text-anchor="middle" x="646" y="-175" font-family="Helvetica,sans-Serif" font-size="10.00">nchildren</text>
</g>
<!-- Node9&#45;&gt;Node2 -->
<g id="edge17" class="edge">
<title>Node9&#45;&gt;Node2</title>
<path fill="none" stroke="#9a32cd" stroke-dasharray="5,2" d="M522.12,-457.15C533.34,-437.97 549,-405.76 549,-375.5 549,-375.5 549,-375.5 549,-143 549,-113.8 517.06,-96.05 492.12,-86.64"/>
<polygon fill="#9a32cd" stroke="#9a32cd" points="519,-455.56 516.77,-465.92 524.97,-459.21 519,-455.56"/>
<text text-anchor="middle" x="572" y="-259" font-family="Helvetica,sans-Serif" font-size="10.00"> child_ids</text>
<text text-anchor="middle" x="572" y="-248" font-family="Helvetica,sans-Serif" font-size="10.00">yfid</text>
<text text-anchor="middle" x="572" y="-237" font-family="Helvetica,sans-Serif" font-size="10.00">nchildren</text>
<text text-anchor="middle" x="572" y="-226" font-family="Helvetica,sans-Serif" font-size="10.00">id</text>
</g>
<!-- Node9&#45;&gt;Node3 -->
<g id="edge14" class="edge">
<title>Node9&#45;&gt;Node3</title>
<path fill="none" stroke="#9a32cd" stroke-dasharray="5,2" d="M512.61,-455.72C514.04,-429.92 513.75,-382.66 497,-347 480.7,-312.29 468.38,-307.04 437,-285 421.05,-273.79 410.61,-280.96 397,-267 365.11,-234.28 358.64,-175.73 357.33,-153.7"/>
<polygon fill="#9a32cd" stroke="#9a32cd" points="509.1,-455.72 511.89,-465.94 516.09,-456.22 509.1,-455.72"/>
<text text-anchor="middle" x="511" y="-321" font-family="Helvetica,sans-Serif" font-size="10.00"> child_ids</text>
<text text-anchor="middle" x="511" y="-310" font-family="Helvetica,sans-Serif" font-size="10.00">yfid</text>
<text text-anchor="middle" x="511" y="-299" font-family="Helvetica,sans-Serif" font-size="10.00">nchildren</text>
<text text-anchor="middle" x="511" y="-288" font-family="Helvetica,sans-Serif" font-size="10.00">id</text>
</g>
<!-- Node9&#45;&gt;Node6 -->
<g id="edge13" class="edge">
<title>Node9&#45;&gt;Node6</title>
<path fill="none" stroke="#9a32cd" stroke-dasharray="5,2" d="M494.94,-458.63C481.63,-444.73 463.01,-423.45 451,-402 424.15,-354.05 450.68,-323.02 411,-285 390.59,-265.44 377.06,-275.17 350,-267 336.63,-262.96 321.82,-258.4 309.44,-254.56"/>
<polygon fill="#9a32cd" stroke="#9a32cd" points="492.57,-461.22 502.07,-465.91 497.57,-456.32 492.57,-461.22"/>
<text text-anchor="middle" x="474" y="-394" font-family="Helvetica,sans-Serif" font-size="10.00"> key_ids</text>
<text text-anchor="middle" x="474" y="-383" font-family="Helvetica,sans-Serif" font-size="10.00">child_ids</text>
<text text-anchor="middle" x="474" y="-372" font-family="Helvetica,sans-Serif" font-size="10.00">yfid</text>
<text text-anchor="middle" x="474" y="-361" font-family="Helvetica,sans-Serif" font-size="10.00">nchildren</text>
<text text-anchor="middle" x="474" y="-350" font-family="Helvetica,sans-Serif" font-size="10.00">id</text>
</g>
<!-- Node9&#45;&gt;Node7 -->
<g id="edge9" class="edge">
<title>Node9&#45;&gt;Node7</title>
<path fill="none" stroke="#9a32cd" stroke-dasharray="5,2" d="M475.3,-471.8C451.68,-468.29 421.43,-460.27 401,-442 383.63,-426.47 376.72,-398.4 374.24,-384.21"/>
<polygon fill="#9a32cd" stroke="#9a32cd" points="474.93,-475.28 485.29,-473.08 475.82,-468.34 474.93,-475.28"/>
<text text-anchor="middle" x="412" y="-434" font-family="Helvetica,sans-Serif" font-size="10.00"> yfid</text>
<text text-anchor="middle" x="412" y="-423" font-family="Helvetica,sans-Serif" font-size="10.00">id</text>
</g>
<!-- Node10 -->
<g id="node10" class="node">
<title>Node10</title>
<g id="a_node10"><a xlink:title=" ">
<polygon fill="white" stroke="#bfbfbf" points="227.5,-365 227.5,-384 326.5,-384 326.5,-365 227.5,-365"/>
<text text-anchor="middle" x="277" y="-372" font-family="Helvetica,sans-Serif" font-size="10.00">character(len=9)</text>
</a>
</g>
</g>
<!-- Node10&#45;&gt;Node6 -->
<g id="edge10" class="edge">
<title>Node10&#45;&gt;Node6</title>
<path fill="none" stroke="#9a32cd" stroke-dasharray="5,2" d="M277.74,-354.66C278.83,-326.71 280.85,-275.36 281.65,-254.82"/>
<polygon fill="#9a32cd" stroke="#9a32cd" points="274.24,-354.61 277.34,-364.74 281.23,-354.88 274.24,-354.61"/>
<text text-anchor="middle" x="310" y="-304.5" font-family="Helvetica,sans-Serif" font-size="10.00"> blockname</text>
</g>
<!-- Node11 -->
<g id="node11" class="node">
<title>Node11</title>
<g id="a_node11"><a xlink:title=" ">
<polygon fill="white" stroke="#bfbfbf" points="651.5,-67.5 651.5,-86.5 756.5,-86.5 756.5,-67.5 651.5,-67.5"/>
<text text-anchor="middle" x="704" y="-74.5" font-family="Helvetica,sans-Serif" font-size="10.00">character(len=11)</text>
</a>
</g>
</g>
<!-- Node11&#45;&gt;Node1 -->
<g id="edge18" class="edge">
<title>Node11&#45;&gt;Node1</title>
<path fill="none" stroke="#9a32cd" stroke-dasharray="5,2" d="M684.95,-60.71C668.99,-47.91 646.79,-30.09 633.75,-19.63"/>
<polygon fill="#9a32cd" stroke="#9a32cd" points="683.09,-63.7 693.08,-67.23 687.47,-58.25 683.09,-63.7"/>
<text text-anchor="middle" x="697" y="-41" font-family="Helvetica,sans-Serif" font-size="10.00"> blockname</text>
</g>
</g>
</svg>
        <g id="navigator" transform="translate(0 0)" fill="#404254">
                <rect fill="#f2f5e9" fill-opacity="0.5" stroke="#606060" stroke-width=".5" x="0" y="0" width="60" height="60"/>
                <use id="zoomplus" xlink:href="#zoomPlus" x="17" y="9" onmousedown="handleZoom(evt,'in')"/>
                <use id="zoomminus" xlink:href="#zoomMin" x="42" y="9" onmousedown="handleZoom(evt,'out')"/>
                <use id="reset" xlink:href="#resetDef" x="30" y="36" onmousedown="handleReset()"/>
                <g id="arrowUp" xlink:href="#dirArrow" transform="translate(30 24)" onmousedown="handlePan(0,-1)">
                  <use xlink:href="#rim" fill="#404040">
                        <set attributeName="fill" to="#808080" begin="arrowUp.mouseover" end="arrowUp.mouseout"/>
                  </use>
                  <path fill="none" stroke="white" stroke-width="1.5" d="M0,-3.0v7 M-2.5,-0.5L0,-3.0L2.5,-0.5"/>
                </g>
                <g id="arrowRight" xlink:href="#dirArrow" transform="rotate(90) translate(36 -43)" onmousedown="handlePan(1,0)">
                  <use xlink:href="#rim" fill="#404040">
                        <set attributeName="fill" to="#808080" begin="arrowRight.mouseover" end="arrowRight.mouseout"/>
                  </use>
                  <path fill="none" stroke="white" stroke-width="1.5" d="M0,-3.0v7 M-2.5,-0.5L0,-3.0L2.5,-0.5"/>
                </g>
                <g id="arrowDown" xlink:href="#dirArrow" transform="rotate(180) translate(-30 -48)" onmousedown="handlePan(0,1)">
                  <use xlink:href="#rim" fill="#404040">
                        <set attributeName="fill" to="#808080" begin="arrowDown.mouseover" end="arrowDown.mouseout"/>
                  </use>
                  <path fill="none" stroke="white" stroke-width="1.5" d="M0,-3.0v7 M-2.5,-0.5L0,-3.0L2.5,-0.5"/>
                </g>
                <g id="arrowLeft" xlink:href="#dirArrow" transform="rotate(270) translate(-36 17)" onmousedown="handlePan(-1,0)">
                  <use xlink:href="#rim" fill="#404040">
                        <set attributeName="fill" to="#808080" begin="arrowLeft.mouseover" end="arrowLeft.mouseout"/>
                  </use>
                  <path fill="none" stroke="white" stroke-width="1.5" d="M0,-3.0v7 M-2.5,-0.5L0,-3.0L2.5,-0.5"/>
                </g>
        </g>
        <svg viewBox="0 0 15 15" width="100%" height="30px" preserveAspectRatio="xMaxYMin meet">
         <g id="arrow_out" transform="scale(0.3 0.3)">
          <a xlink:href="structfm__yaml__mod_1_1fmtable__t__coll__graph_org.svg" target="_base">
           <rect id="button" ry="5" rx="5" y="6" x="6" height="38" width="38"
                fill="#f2f5e9" fill-opacity="0.5" stroke="#606060" stroke-width="1.0"/>
           <path id="arrow"
             d="M 11.500037,31.436501 C 11.940474,20.09759 22.043105,11.32322 32.158766,21.979434 L 37.068811,17.246167 C 37.068811,17.246167 37.088388,32 37.088388,32 L 22.160133,31.978069 C 22.160133,31.978069 26.997745,27.140456 26.997745,27.140456 C 18.528582,18.264221 13.291696,25.230495 11.500037,31.436501 z"
             style="fill:#404040;"/>
          </a>
         </g>
        </svg>
</svg>
