<?xml version="1.0" encoding="UTF-8" standalone="no"?>
<!DOCTYPE svg PUBLIC "-//W3C//DTD SVG 1.1//EN"
 "http://www.w3.org/Graphics/SVG/1.1/DTD/svg11.dtd">
<!-- Generated by graphviz version 2.43.0 (0)
 -->
<!-- Title: index_type Pages: 1 -->
<svg width="79pt" height="172pt"
 viewBox="0.00 0.00 79.00 172.00" xmlns="http://www.w3.org/2000/svg" xmlns:xlink="http://www.w3.org/1999/xlink">
<g id="graph0" class="graph" transform="scale(1 1) rotate(0) translate(4 168)">
<title>index_type</title>
<polygon fill="white" stroke="transparent" points="-4,4 -4,-168 75,-168 75,4 -4,4"/>
<!-- Node1 -->
<g id="node1" class="node">
<title>Node1</title>
<g id="a_node1"><a xlink:title="index bounds for use in nestSpec">
<polygon fill="#bfbfbf" stroke="black" points="0,-0.5 0,-19.5 71,-19.5 71,-0.5 0,-0.5"/>
<text text-anchor="middle" x="35.5" y="-7.5" font-family="Helvetica,sans-Serif" font-size="10.00">index_type</text>
</a>
</g>
</g>
<!-- Node2 -->
<g id="node2" class="node">
<title>Node2</title>
<g id="a_node2"><a xlink:title=" ">
<polygon fill="white" stroke="#bfbfbf" points="10,-144.5 10,-163.5 61,-163.5 61,-144.5 10,-144.5"/>
<text text-anchor="middle" x="35.5" y="-151.5" font-family="Helvetica,sans-Serif" font-size="10.00">integer</text>
</a>
</g>
</g>
<!-- Node2&#45;&gt;Node1 -->
<g id="edge1" class="edge">
<title>Node2&#45;&gt;Node1</title>
<path fill="none" stroke="#9a32cd" stroke-dasharray="5,2" d="M35.5,-134.11C35.5,-102.93 35.5,-41.93 35.5,-19.52"/>
<polygon fill="#9a32cd" stroke="#9a32cd" points="32,-134.12 35.5,-144.12 39,-134.12 32,-134.12"/>
<text text-anchor="middle" x="52.5" y="-118" font-family="Helvetica,sans-Serif" font-size="10.00"> ie_me</text>
<text text-anchor="middle" x="52.5" y="-107" font-family="Helvetica,sans-Serif" font-size="10.00">ie_you</text>
<text text-anchor="middle" x="52.5" y="-96" font-family="Helvetica,sans-Serif" font-size="10.00">is_me</text>
<text text-anchor="middle" x="52.5" y="-85" font-family="Helvetica,sans-Serif" font-size="10.00">is_you</text>
<text text-anchor="middle" x="52.5" y="-74" font-family="Helvetica,sans-Serif" font-size="10.00">je_me</text>
<text text-anchor="middle" x="52.5" y="-63" font-family="Helvetica,sans-Serif" font-size="10.00">je_you</text>
<text text-anchor="middle" x="52.5" y="-52" font-family="Helvetica,sans-Serif" font-size="10.00">js_me</text>
<text text-anchor="middle" x="52.5" y="-41" font-family="Helvetica,sans-Serif" font-size="10.00">js_you</text>
</g>
</g>
</svg>
