<?xml version="1.0" encoding="UTF-8" standalone="no"?>
<!DOCTYPE svg PUBLIC "-//W3C//DTD SVG 1.1//EN"
 "http://www.w3.org/Graphics/SVG/1.1/DTD/svg11.dtd">
<!-- Generated by graphviz version 2.43.0 (0)
 -->
<!-- Title: unstruct_overlap_type Pages: 1 -->
<svg width="133pt" height="128pt"
 viewBox="0.00 0.00 133.00 128.00" xmlns="http://www.w3.org/2000/svg" xmlns:xlink="http://www.w3.org/1999/xlink">
<g id="graph0" class="graph" transform="scale(1 1) rotate(0) translate(4 124)">
<title>unstruct_overlap_type</title>
<polygon fill="white" stroke="transparent" points="-4,4 -4,-124 129,-124 129,4 -4,4"/>
<!-- Node1 -->
<g id="node1" class="node">
<title>Node1</title>
<g id="a_node1"><a xlink:title="Private type.">
<polygon fill="#bfbfbf" stroke="black" points="0,-0.5 0,-19.5 125,-19.5 125,-0.5 0,-0.5"/>
<text text-anchor="middle" x="62.5" y="-7.5" font-family="Helvetica,sans-Serif" font-size="10.00">unstruct_overlap_type</text>
</a>
</g>
</g>
<!-- Node2 -->
<g id="node2" class="node">
<title>Node2</title>
<g id="a_node2"><a xlink:title=" ">
<polygon fill="white" stroke="#bfbfbf" points="37,-100.5 37,-119.5 88,-119.5 88,-100.5 37,-100.5"/>
<text text-anchor="middle" x="62.5" y="-107.5" font-family="Helvetica,sans-Serif" font-size="10.00">integer</text>
</a>
</g>
</g>
<!-- Node2&#45;&gt;Node1 -->
<g id="edge1" class="edge">
<title>Node2&#45;&gt;Node1</title>
<path fill="none" stroke="#9a32cd" stroke-dasharray="5,2" d="M62.5,-90.22C62.5,-68.95 62.5,-35.22 62.5,-19.54"/>
<polygon fill="#9a32cd" stroke="#9a32cd" points="59,-90.3 62.5,-100.3 66,-90.3 59,-90.3"/>
<text text-anchor="middle" x="78" y="-74" font-family="Helvetica,sans-Serif" font-size="10.00"> count</text>
<text text-anchor="middle" x="78" y="-63" font-family="Helvetica,sans-Serif" font-size="10.00">i</text>
<text text-anchor="middle" x="78" y="-52" font-family="Helvetica,sans-Serif" font-size="10.00">j</text>
<text text-anchor="middle" x="78" y="-41" font-family="Helvetica,sans-Serif" font-size="10.00">pe</text>
</g>
</g>
</svg>
