<?xml version="1.0" encoding="UTF-8" standalone="no"?>
<!DOCTYPE svg PUBLIC "-//W3C//DTD SVG 1.1//EN"
 "http://www.w3.org/Graphics/SVG/1.1/DTD/svg11.dtd">
<!-- Generated by graphviz version 2.43.0 (0)
 -->
<!-- Title: fmsyamloutkeys_type Pages: 1 -->
<svg width="435pt" height="247pt"
 viewBox="0.00 0.00 435.00 247.00" xmlns="http://www.w3.org/2000/svg" xmlns:xlink="http://www.w3.org/1999/xlink">
<g id="graph0" class="graph" transform="scale(1 1) rotate(0) translate(4 243)">
<title>fmsyamloutkeys_type</title>
<polygon fill="white" stroke="transparent" points="-4,4 -4,-243 431,-243 431,4 -4,4"/>
<!-- Node1 -->
<g id="node1" class="node">
<title>Node1</title>
<g id="a_node1"><a xlink:title="Keys for the output yaml on a given level corresponding to the struct in yaml_output_functions....">
<polygon fill="#bfbfbf" stroke="black" points="302,-71.5 302,-90.5 427,-90.5 427,-71.5 302,-71.5"/>
<text text-anchor="middle" x="364.5" y="-78.5" font-family="Helvetica,sans-Serif" font-size="10.00">fmsyamloutkeys_type</text>
</a>
</g>
</g>
<!-- Node2 -->
<g id="node2" class="node">
<title>Node2</title>
<g id="a_node2"><a xlink:title=" ">
<polygon fill="white" stroke="#bfbfbf" points="50,-215.5 50,-234.5 132,-234.5 132,-215.5 50,-215.5"/>
<text text-anchor="middle" x="91" y="-222.5" font-family="Helvetica,sans-Serif" font-size="10.00">integer(c_int)</text>
</a>
</g>
</g>
<!-- Node2&#45;&gt;Node1 -->
<g id="edge1" class="edge">
<title>Node2&#45;&gt;Node1</title>
<path fill="none" stroke="#9a32cd" stroke-dasharray="5,2" d="M142.4,-230.46C183.5,-232.42 241.51,-229.27 284,-203 327.87,-175.88 352.3,-114.51 360.42,-90.7"/>
<polygon fill="#9a32cd" stroke="#9a32cd" points="142.52,-226.97 132.33,-229.87 142.11,-233.95 142.52,-226.97"/>
<text text-anchor="middle" x="242" y="-231" font-family="Helvetica,sans-Serif" font-size="10.00"> level2key_offset</text>
</g>
<!-- Node3 -->
<g id="node3" class="node">
<title>Node3</title>
<g id="a_node3"><a xlink:title=" ">
<polygon fill="white" stroke="#bfbfbf" points="30,-60.5 30,-101.5 152,-101.5 152,-60.5 30,-60.5"/>
<text text-anchor="start" x="38" y="-89.5" font-family="Helvetica,sans-Serif" font-size="10.00">character(c_char),</text>
<text text-anchor="start" x="38" y="-78.5" font-family="Helvetica,sans-Serif" font-size="10.00"> dimension(string_len</text>
<text text-anchor="middle" x="91" y="-67.5" font-family="Helvetica,sans-Serif" font-size="10.00">_parameter)</text>
</a>
</g>
</g>
<!-- Node3&#45;&gt;Node1 -->
<g id="edge2" class="edge">
<title>Node3&#45;&gt;Node1</title>
<path fill="none" stroke="#9a32cd" stroke-dasharray="5,2" d="M162.38,-81C205.46,-81 260.09,-81 301.53,-81"/>
<polygon fill="#9a32cd" stroke="#9a32cd" points="162.25,-77.5 152.25,-81 162.25,-84.5 162.25,-77.5"/>
<text text-anchor="middle" x="242" y="-194" font-family="Helvetica,sans-Serif" font-size="10.00"> key1</text>
<text text-anchor="middle" x="242" y="-183" font-family="Helvetica,sans-Serif" font-size="10.00">key10</text>
<text text-anchor="middle" x="242" y="-172" font-family="Helvetica,sans-Serif" font-size="10.00">key11</text>
<text text-anchor="middle" x="242" y="-161" font-family="Helvetica,sans-Serif" font-size="10.00">key12</text>
<text text-anchor="middle" x="242" y="-150" font-family="Helvetica,sans-Serif" font-size="10.00">key13</text>
<text text-anchor="middle" x="242" y="-139" font-family="Helvetica,sans-Serif" font-size="10.00">key14</text>
<text text-anchor="middle" x="242" y="-128" font-family="Helvetica,sans-Serif" font-size="10.00">key15</text>
<text text-anchor="middle" x="242" y="-117" font-family="Helvetica,sans-Serif" font-size="10.00">key16</text>
<text text-anchor="middle" x="242" y="-106" font-family="Helvetica,sans-Serif" font-size="10.00">key2</text>
<text text-anchor="middle" x="242" y="-95" font-family="Helvetica,sans-Serif" font-size="10.00">key3</text>
<text text-anchor="middle" x="242" y="-84" font-family="Helvetica,sans-Serif" font-size="10.00">...</text>
</g>
<!-- Node4 -->
<g id="node4" class="node">
<title>Node4</title>
<g id="a_node4"><a xlink:title=" ">
<polygon fill="white" stroke="#bfbfbf" points="0,-0.5 0,-41.5 182,-41.5 182,-0.5 0,-0.5"/>
<text text-anchor="start" x="8" y="-29.5" font-family="Helvetica,sans-Serif" font-size="10.00">character(c_char),</text>
<text text-anchor="start" x="8" y="-18.5" font-family="Helvetica,sans-Serif" font-size="10.00"> dimension(string_len</text>
<text text-anchor="middle" x="91" y="-7.5" font-family="Helvetica,sans-Serif" font-size="10.00">_parameter *lvl2_key_parameter)</text>
</a>
</g>
</g>
<!-- Node4&#45;&gt;Node1 -->
<g id="edge3" class="edge">
<title>Node4&#45;&gt;Node1</title>
<path fill="none" stroke="#9a32cd" stroke-dasharray="5,2" d="M191.97,-43.09C236.26,-52.88 286.01,-63.88 320.48,-71.49"/>
<polygon fill="#9a32cd" stroke="#9a32cd" points="192.55,-39.64 182.03,-40.9 191.04,-46.47 192.55,-39.64"/>
<text text-anchor="middle" x="242" y="-66" font-family="Helvetica,sans-Serif" font-size="10.00"> level2key</text>
</g>
</g>
</svg>
