<?xml version="1.0" encoding="UTF-8" standalone="no"?>
<!DOCTYPE svg PUBLIC "-//W3C//DTD SVG 1.1//EN"
 "http://www.w3.org/Graphics/SVG/1.1/DTD/svg11.dtd">
<!-- Generated by graphviz version 2.43.0 (0)
 -->
<!-- Title: coupler_3d_values_type Pages: 1 -->
<svg width="440pt" height="117pt"
 viewBox="0.00 0.00 439.50 117.00" xmlns="http://www.w3.org/2000/svg" xmlns:xlink="http://www.w3.org/1999/xlink">
<g id="graph0" class="graph" transform="scale(1 1) rotate(0) translate(4 113)">
<title>coupler_3d_values_type</title>
<polygon fill="white" stroke="transparent" points="-4,4 -4,-113 435.5,-113 435.5,4 -4,4"/>
<!-- Node1 -->
<g id="node1" class="node">
<title>Node1</title>
<g id="a_node1"><a xlink:title="Coupler data for 3D values.">
<polygon fill="#bfbfbf" stroke="black" points="178.5,-0.5 178.5,-19.5 312.5,-19.5 312.5,-0.5 178.5,-0.5"/>
<text text-anchor="middle" x="245.5" y="-7.5" font-family="Helvetica,sans-Serif" font-size="10.00">coupler_3d_values_type</text>
</a>
</g>
</g>
<!-- Node2 -->
<g id="node2" class="node">
<title>Node2</title>
<g id="a_node2"><a xlink:title=" ">
<polygon fill="white" stroke="#bfbfbf" points="0,-89.5 0,-108.5 49,-108.5 49,-89.5 0,-89.5"/>
<text text-anchor="middle" x="24.5" y="-96.5" font-family="Helvetica,sans-Serif" font-size="10.00">logical</text>
</a>
</g>
</g>
<!-- Node2&#45;&gt;Node1 -->
<g id="edge1" class="edge">
<title>Node2&#45;&gt;Node1</title>
<path fill="none" stroke="#9a32cd" stroke-dasharray="5,2" d="M41.95,-82.76C58.66,-68.97 85.18,-49.17 111.5,-38 132.47,-29.1 156.56,-23.08 178.48,-19.03"/>
<polygon fill="#9a32cd" stroke="#9a32cd" points="39.53,-80.22 34.15,-89.35 44.05,-85.57 39.53,-80.22"/>
<text text-anchor="middle" x="133.5" y="-63" font-family="Helvetica,sans-Serif" font-size="10.00"> override</text>
<text text-anchor="middle" x="133.5" y="-52" font-family="Helvetica,sans-Serif" font-size="10.00">may_init</text>
<text text-anchor="middle" x="133.5" y="-41" font-family="Helvetica,sans-Serif" font-size="10.00">mean</text>
</g>
<!-- Node3 -->
<g id="node3" class="node">
<title>Node3</title>
<g id="a_node3"><a xlink:title=" ">
<polygon fill="white" stroke="#bfbfbf" points="67,-89.5 67,-108.5 172,-108.5 172,-89.5 67,-89.5"/>
<text text-anchor="middle" x="119.5" y="-96.5" font-family="Helvetica,sans-Serif" font-size="10.00">character(len=48)</text>
</a>
</g>
</g>
<!-- Node3&#45;&gt;Node1 -->
<g id="edge2" class="edge">
<title>Node3&#45;&gt;Node1</title>
<path fill="none" stroke="#9a32cd" stroke-dasharray="5,2" d="M140.57,-83.45C166.99,-65.21 211.44,-34.52 233.01,-19.62"/>
<polygon fill="#9a32cd" stroke="#9a32cd" points="138.28,-80.78 132.04,-89.34 142.26,-86.54 138.28,-80.78"/>
<text text-anchor="middle" x="220" y="-52" font-family="Helvetica,sans-Serif" font-size="10.00"> name</text>
</g>
<!-- Node4 -->
<g id="node4" class="node">
<title>Node4</title>
<g id="a_node4"><a xlink:title=" ">
<polygon fill="white" stroke="#bfbfbf" points="190,-89.5 190,-108.5 301,-108.5 301,-89.5 190,-89.5"/>
<text text-anchor="middle" x="245.5" y="-96.5" font-family="Helvetica,sans-Serif" font-size="10.00">character(len=128)</text>
</a>
</g>
</g>
<!-- Node4&#45;&gt;Node1 -->
<g id="edge3" class="edge">
<title>Node4&#45;&gt;Node1</title>
<path fill="none" stroke="#9a32cd" stroke-dasharray="5,2" d="M245.5,-79.19C245.5,-60.74 245.5,-33.41 245.5,-19.62"/>
<polygon fill="#9a32cd" stroke="#9a32cd" points="242,-79.34 245.5,-89.34 249,-79.34 242,-79.34"/>
<text text-anchor="middle" x="273" y="-57.5" font-family="Helvetica,sans-Serif" font-size="10.00"> units</text>
<text text-anchor="middle" x="273" y="-46.5" font-family="Helvetica,sans-Serif" font-size="10.00">long_name</text>
</g>
<!-- Node5 -->
<g id="node5" class="node">
<title>Node5</title>
<g id="a_node5"><a xlink:title=" ">
<polygon fill="white" stroke="#bfbfbf" points="319,-89.5 319,-108.5 370,-108.5 370,-89.5 319,-89.5"/>
<text text-anchor="middle" x="344.5" y="-96.5" font-family="Helvetica,sans-Serif" font-size="10.00">integer</text>
</a>
</g>
</g>
<!-- Node5&#45;&gt;Node1 -->
<g id="edge4" class="edge">
<title>Node5&#45;&gt;Node1</title>
<path fill="none" stroke="#9a32cd" stroke-dasharray="5,2" d="M336.03,-80.16C329.07,-67.08 318.17,-49.65 304.5,-38 295.16,-30.03 283.07,-23.96 272.28,-19.6"/>
<polygon fill="#9a32cd" stroke="#9a32cd" points="332.93,-81.78 340.55,-89.14 339.18,-78.64 332.93,-81.78"/>
<text text-anchor="middle" x="349" y="-57.5" font-family="Helvetica,sans-Serif" font-size="10.00"> id_diag</text>
<text text-anchor="middle" x="349" y="-46.5" font-family="Helvetica,sans-Serif" font-size="10.00">id_rest</text>
</g>
<!-- Node6 -->
<g id="node6" class="node">
<title>Node6</title>
<g id="a_node6"><a xlink:title=" ">
<polygon fill="white" stroke="#bfbfbf" points="388,-89.5 388,-108.5 423,-108.5 423,-89.5 388,-89.5"/>
<text text-anchor="middle" x="405.5" y="-96.5" font-family="Helvetica,sans-Serif" font-size="10.00">real</text>
</a>
</g>
</g>
<!-- Node6&#45;&gt;Node1 -->
<g id="edge5" class="edge">
<title>Node6&#45;&gt;Node1</title>
<path fill="none" stroke="#9a32cd" stroke-dasharray="5,2" d="M399.93,-79.35C394.92,-65.82 386.21,-48.18 372.5,-38 355.31,-25.23 333.39,-18.22 312.61,-14.46"/>
<polygon fill="#9a32cd" stroke="#9a32cd" points="396.69,-80.71 403.18,-89.09 403.34,-78.5 396.69,-80.71"/>
<text text-anchor="middle" x="413.5" y="-52" font-family="Helvetica,sans-Serif" font-size="10.00"> values</text>
</g>
</g>
</svg>
