<?xml version="1.0" encoding="UTF-8" standalone="no"?>
<!DOCTYPE svg PUBLIC "-//W3C//DTD SVG 1.1//EN"
 "http://www.w3.org/Graphics/SVG/1.1/DTD/svg11.dtd">
<!-- Generated by graphviz version 2.43.0 (0)
 -->
<!-- Title: ext_fieldtype Pages: 1 -->
<svg width="1127pt" height="1081pt"
 viewBox="0.00 0.00 1127.00 1081.00" xmlns="http://www.w3.org/2000/svg" xmlns:xlink="http://www.w3.org/1999/xlink">
<g id="graph0" class="graph" transform="scale(1 1) rotate(0) translate(4 1077)">
<title>ext_fieldtype</title>
<polygon fill="white" stroke="transparent" points="-4,4 -4,-1077 1123,-1077 1123,4 -4,4"/>
<!-- Node1 -->
<g id="node1" class="node">
<title>Node1</title>
<g id="a_node1"><a xlink:title="Represents external fields.">
<polygon fill="#bfbfbf" stroke="black" points="1039,-199.5 1039,-218.5 1119,-218.5 1119,-199.5 1039,-199.5"/>
<text text-anchor="middle" x="1079" y="-206.5" font-family="Helvetica,sans-Serif" font-size="10.00">ext_fieldtype</text>
</a>
</g>
</g>
<!-- Node2 -->
<g id="node2" class="node">
<title>Node2</title>
<g id="a_node2"><a xlink:title=" ">
<polygon fill="white" stroke="#bfbfbf" points="1,-910.5 1,-929.5 50,-929.5 50,-910.5 1,-910.5"/>
<text text-anchor="middle" x="25.5" y="-917.5" font-family="Helvetica,sans-Serif" font-size="10.00">logical</text>
</a>
</g>
</g>
<!-- Node2&#45;&gt;Node1 -->
<g id="edge1" class="edge">
<title>Node2&#45;&gt;Node1</title>
<path fill="none" stroke="#9a32cd" stroke-dasharray="5,2" d="M45.38,-936.14C76.8,-961.29 142.81,-1007 207.5,-1007 207.5,-1007 207.5,-1007 896.5,-1007 1066.64,-1007 1077.29,-308.55 1077.96,-218.52"/>
<polygon fill="#9a32cd" stroke="#9a32cd" points="47.41,-933.28 37.46,-929.64 42.97,-938.69 47.41,-933.28"/>
<text text-anchor="middle" x="556.5" y="-1065" font-family="Helvetica,sans-Serif" font-size="10.00"> correct_leap_year_inconsistency</text>
<text text-anchor="middle" x="556.5" y="-1054" font-family="Helvetica,sans-Serif" font-size="10.00">need_compute</text>
<text text-anchor="middle" x="556.5" y="-1043" font-family="Helvetica,sans-Serif" font-size="10.00">domain_present</text>
<text text-anchor="middle" x="556.5" y="-1032" font-family="Helvetica,sans-Serif" font-size="10.00">mask</text>
<text text-anchor="middle" x="556.5" y="-1021" font-family="Helvetica,sans-Serif" font-size="10.00">modulo_time</text>
<text text-anchor="middle" x="556.5" y="-1010" font-family="Helvetica,sans-Serif" font-size="10.00">have_modulo_times</text>
</g>
<!-- Node5 -->
<g id="node5" class="node">
<title>Node5</title>
<g id="a_node5"><a xlink:href="group__mpp__domains__mod.html#structmpp__domains__mod_1_1domain2d" target="_top" xlink:title="The domain2D type contains all the necessary information to define the global, compute and data domai...">
<polygon fill="white" stroke="black" points="863,-618.5 863,-637.5 928,-637.5 928,-618.5 863,-618.5"/>
<text text-anchor="middle" x="895.5" y="-625.5" font-family="Helvetica,sans-Serif" font-size="10.00">domain2d</text>
</a>
</g>
</g>
<!-- Node2&#45;&gt;Node5 -->
<g id="edge5" class="edge">
<title>Node2&#45;&gt;Node5</title>
<path fill="none" stroke="#9a32cd" stroke-dasharray="5,2" d="M59.18,-932.6C62.46,-933.54 65.77,-934.37 69,-935 106.55,-942.33 116.75,-938.11 155,-939 223.75,-940.6 716.87,-944.74 773,-905 868.36,-837.48 889.74,-678.08 893.7,-637.52"/>
<polygon fill="#9a32cd" stroke="#9a32cd" points="60.13,-929.23 49.54,-929.51 57.99,-935.9 60.13,-929.23"/>
<text text-anchor="middle" x="410.5" y="-964" font-family="Helvetica,sans-Serif" font-size="10.00"> rotated_ninety</text>
<text text-anchor="middle" x="410.5" y="-953" font-family="Helvetica,sans-Serif" font-size="10.00">symmetry</text>
<text text-anchor="middle" x="410.5" y="-942" font-family="Helvetica,sans-Serif" font-size="10.00">initialized</text>
</g>
<!-- Node6 -->
<g id="node6" class="node">
<title>Node6</title>
<g id="a_node6"><a xlink:href="group__mpp__domains__mod.html#structmpp__domains__mod_1_1domain1d" target="_top" xlink:title="One dimensional domain used to manage shared data access between pes.">
<polygon fill="white" stroke="black" points="378,-614.5 378,-633.5 443,-633.5 443,-614.5 378,-614.5"/>
<text text-anchor="middle" x="410.5" y="-621.5" font-family="Helvetica,sans-Serif" font-size="10.00">domain1d</text>
</a>
</g>
</g>
<!-- Node2&#45;&gt;Node6 -->
<g id="edge7" class="edge">
<title>Node2&#45;&gt;Node6</title>
<path fill="none" stroke="#9a32cd" stroke-dasharray="5,2" d="M60.37,-911.25C121.59,-895.22 245.87,-861.63 262,-849 331.98,-794.22 312.19,-749.21 364,-677 375.45,-661.04 390.63,-644.05 400.23,-633.73"/>
<polygon fill="#9a32cd" stroke="#9a32cd" points="59.2,-907.94 50.41,-913.85 60.97,-914.71 59.2,-907.94"/>
<text text-anchor="middle" x="208.5" y="-887" font-family="Helvetica,sans-Serif" font-size="10.00"> cyclic</text>
</g>
<!-- Node7 -->
<g id="node7" class="node">
<title>Node7</title>
<g id="a_node7"><a xlink:href="group__mpp__domains__mod.html#structmpp__domains__mod_1_1domain__axis__spec" target="_top" xlink:title="Used to specify index limits along an axis of a domain.">
<polygon fill="white" stroke="black" points="155,-630.5 155,-649.5 262,-649.5 262,-630.5 155,-630.5"/>
<text text-anchor="middle" x="208.5" y="-637.5" font-family="Helvetica,sans-Serif" font-size="10.00">domain_axis_spec</text>
</a>
</g>
</g>
<!-- Node2&#45;&gt;Node7 -->
<g id="edge10" class="edge">
<title>Node2&#45;&gt;Node7</title>
<path fill="none" stroke="#9a32cd" stroke-dasharray="5,2" d="M28.46,-900.34C33.31,-854.94 47.1,-744.44 69,-715 94.62,-680.55 140.91,-660.15 172.88,-649.52"/>
<polygon fill="#9a32cd" stroke="#9a32cd" points="24.97,-900.09 27.42,-910.39 31.93,-900.81 24.97,-900.09"/>
<text text-anchor="middle" x="103" y="-718" font-family="Helvetica,sans-Serif" font-size="10.00"> is_global</text>
</g>
<!-- Node10 -->
<g id="node10" class="node">
<title>Node10</title>
<g id="a_node10"><a xlink:href="group__mpp__domains__mod.html#structmpp__domains__mod_1_1overlap__type" target="_top" xlink:title="Type for overlapping data.">
<polygon fill="white" stroke="black" points="168.5,-910.5 168.5,-929.5 248.5,-929.5 248.5,-910.5 168.5,-910.5"/>
<text text-anchor="middle" x="208.5" y="-917.5" font-family="Helvetica,sans-Serif" font-size="10.00">overlap_type</text>
</a>
</g>
</g>
<!-- Node2&#45;&gt;Node10 -->
<g id="edge17" class="edge">
<title>Node2&#45;&gt;Node10</title>
<path fill="none" stroke="#9a32cd" stroke-dasharray="5,2" d="M60.35,-920C90.97,-920 136.07,-920 168.26,-920"/>
<polygon fill="#9a32cd" stroke="#9a32cd" points="60.16,-916.5 50.16,-920 60.16,-923.5 60.16,-916.5"/>
<text text-anchor="middle" x="103" y="-923" font-family="Helvetica,sans-Serif" font-size="10.00"> from_contact</text>
</g>
<!-- Node3 -->
<g id="node3" class="node">
<title>Node3</title>
<g id="a_node3"><a xlink:href="group__time__manager__mod.html#structtime__manager__mod_1_1time__type" target="_top" xlink:title="Type to represent amounts of time. Implemented as seconds and days to allow for larger intervals.">
<polygon fill="white" stroke="black" points="280,-276.5 280,-295.5 346,-295.5 346,-276.5 280,-276.5"/>
<text text-anchor="middle" x="313" y="-283.5" font-family="Helvetica,sans-Serif" font-size="10.00">time_type</text>
</a>
</g>
</g>
<!-- Node3&#45;&gt;Node1 -->
<g id="edge2" class="edge">
<title>Node3&#45;&gt;Node1</title>
<path fill="none" stroke="#9a32cd" stroke-dasharray="5,2" d="M356.38,-279.51C404.51,-272.71 485.46,-263 555.5,-263 555.5,-263 555.5,-263 896.5,-263 958.14,-263 1026.85,-234.03 1059.21,-218.53"/>
<polygon fill="#9a32cd" stroke="#9a32cd" points="355.73,-276.06 346.33,-280.95 356.72,-282.99 355.73,-276.06"/>
<text text-anchor="middle" x="714.5" y="-321" font-family="Helvetica,sans-Serif" font-size="10.00"> start_time</text>
<text text-anchor="middle" x="714.5" y="-310" font-family="Helvetica,sans-Serif" font-size="10.00">modulo_time_end</text>
<text text-anchor="middle" x="714.5" y="-299" font-family="Helvetica,sans-Serif" font-size="10.00">period</text>
<text text-anchor="middle" x="714.5" y="-288" font-family="Helvetica,sans-Serif" font-size="10.00">end_time</text>
<text text-anchor="middle" x="714.5" y="-277" font-family="Helvetica,sans-Serif" font-size="10.00">modulo_time_beg</text>
<text text-anchor="middle" x="714.5" y="-266" font-family="Helvetica,sans-Serif" font-size="10.00">time</text>
</g>
<!-- Node4 -->
<g id="node4" class="node">
<title>Node4</title>
<g id="a_node4"><a xlink:title=" ">
<polygon fill="white" stroke="#bfbfbf" points="0,-526.5 0,-545.5 51,-545.5 51,-526.5 0,-526.5"/>
<text text-anchor="middle" x="25.5" y="-533.5" font-family="Helvetica,sans-Serif" font-size="10.00">integer</text>
</a>
</g>
</g>
<!-- Node4&#45;&gt;Node1 -->
<g id="edge36" class="edge">
<title>Node4&#45;&gt;Node1</title>
<path fill="none" stroke="#9a32cd" stroke-dasharray="5,2" d="M28.69,-516.26C32.52,-490.39 42.75,-445.04 69,-417 114.85,-368.03 140.42,-357 207.5,-357 207.5,-357 207.5,-357 896.5,-357 984.32,-357 1053.16,-251.64 1072.52,-218.71"/>
<polygon fill="#9a32cd" stroke="#9a32cd" points="25.19,-515.97 27.37,-526.34 32.13,-516.88 25.19,-515.97"/>
<text text-anchor="middle" x="556.5" y="-470" font-family="Helvetica,sans-Serif" font-size="10.00"> je_src</text>
<text text-anchor="middle" x="556.5" y="-459" font-family="Helvetica,sans-Serif" font-size="10.00">is_region</text>
<text text-anchor="middle" x="556.5" y="-448" font-family="Helvetica,sans-Serif" font-size="10.00">ie_src</text>
<text text-anchor="middle" x="556.5" y="-437" font-family="Helvetica,sans-Serif" font-size="10.00">iec</text>
<text text-anchor="middle" x="556.5" y="-426" font-family="Helvetica,sans-Serif" font-size="10.00">jec</text>
<text text-anchor="middle" x="556.5" y="-415" font-family="Helvetica,sans-Serif" font-size="10.00">numwindows</text>
<text text-anchor="middle" x="556.5" y="-404" font-family="Helvetica,sans-Serif" font-size="10.00">isc</text>
<text text-anchor="middle" x="556.5" y="-393" font-family="Helvetica,sans-Serif" font-size="10.00">tdim</text>
<text text-anchor="middle" x="556.5" y="-382" font-family="Helvetica,sans-Serif" font-size="10.00">jsc</text>
<text text-anchor="middle" x="556.5" y="-371" font-family="Helvetica,sans-Serif" font-size="10.00">nbuf</text>
<text text-anchor="middle" x="556.5" y="-360" font-family="Helvetica,sans-Serif" font-size="10.00">...</text>
</g>
<!-- Node4&#45;&gt;Node3 -->
<g id="edge3" class="edge">
<title>Node4&#45;&gt;Node3</title>
<path fill="none" stroke="#9a32cd" stroke-dasharray="5,2" d="M27.28,-516.32C29.68,-466.55 38.75,-337.71 69,-310 126.83,-257.02 227.98,-268.08 279.64,-278.29"/>
<polygon fill="#9a32cd" stroke="#9a32cd" points="23.78,-516.28 26.83,-526.42 30.77,-516.58 23.78,-516.28"/>
<text text-anchor="middle" x="103" y="-335" font-family="Helvetica,sans-Serif" font-size="10.00"> days</text>
<text text-anchor="middle" x="103" y="-324" font-family="Helvetica,sans-Serif" font-size="10.00">seconds</text>
<text text-anchor="middle" x="103" y="-313" font-family="Helvetica,sans-Serif" font-size="10.00">ticks</text>
</g>
<!-- Node4&#45;&gt;Node5 -->
<g id="edge28" class="edge">
<title>Node4&#45;&gt;Node5</title>
<path fill="none" stroke="#9a32cd" stroke-dasharray="5,2" d="M26.72,-555.8C28.22,-584.7 35.66,-637.84 69,-664 166.81,-740.74 699.93,-661.66 773,-652 803.8,-647.93 838.54,-640.81 862.96,-635.38"/>
<polygon fill="#9a32cd" stroke="#9a32cd" points="30.22,-555.57 26.39,-545.69 23.22,-555.8 30.22,-555.57"/>
<text text-anchor="middle" x="410.5" y="-818" font-family="Helvetica,sans-Serif" font-size="10.00"> fold</text>
<text text-anchor="middle" x="410.5" y="-807" font-family="Helvetica,sans-Serif" font-size="10.00">tile_id</text>
<text text-anchor="middle" x="410.5" y="-796" font-family="Helvetica,sans-Serif" font-size="10.00">tile_id_all</text>
<text text-anchor="middle" x="410.5" y="-785" font-family="Helvetica,sans-Serif" font-size="10.00">io_layout</text>
<text text-anchor="middle" x="410.5" y="-774" font-family="Helvetica,sans-Serif" font-size="10.00">nhalo</text>
<text text-anchor="middle" x="410.5" y="-763" font-family="Helvetica,sans-Serif" font-size="10.00">ntiles</text>
<text text-anchor="middle" x="410.5" y="-752" font-family="Helvetica,sans-Serif" font-size="10.00">pe</text>
<text text-anchor="start" x="386" y="-741" font-family="Helvetica,sans-Serif" font-size="10.00">max_ntile</text>
<text text-anchor="middle" x="410.5" y="-730" font-family="Helvetica,sans-Serif" font-size="10.00">_pe</text>
<text text-anchor="middle" x="410.5" y="-719" font-family="Helvetica,sans-Serif" font-size="10.00">shalo</text>
<text text-anchor="middle" x="410.5" y="-708" font-family="Helvetica,sans-Serif" font-size="10.00">ncontacts</text>
<text text-anchor="middle" x="410.5" y="-697" font-family="Helvetica,sans-Serif" font-size="10.00">...</text>
</g>
<!-- Node4&#45;&gt;Node6 -->
<g id="edge12" class="edge">
<title>Node4&#45;&gt;Node6</title>
<path fill="none" stroke="#9a32cd" stroke-dasharray="5,2" d="M61.9,-538.17C134.38,-543.08 297.01,-556.64 346,-582 356.33,-587.35 354.67,-594.05 364,-601 370.96,-606.18 379.25,-610.77 386.85,-614.45"/>
<polygon fill="#9a32cd" stroke="#9a32cd" points="61.68,-534.65 51.47,-537.48 61.22,-541.63 61.68,-534.65"/>
<text text-anchor="middle" x="208.5" y="-594" font-family="Helvetica,sans-Serif" font-size="10.00"> pe</text>
<text text-anchor="middle" x="208.5" y="-583" font-family="Helvetica,sans-Serif" font-size="10.00">goffset</text>
<text text-anchor="middle" x="208.5" y="-572" font-family="Helvetica,sans-Serif" font-size="10.00">pos</text>
<text text-anchor="middle" x="208.5" y="-561" font-family="Helvetica,sans-Serif" font-size="10.00">loffset</text>
</g>
<!-- Node4&#45;&gt;Node7 -->
<g id="edge11" class="edge">
<title>Node4&#45;&gt;Node7</title>
<path fill="none" stroke="#9a32cd" stroke-dasharray="5,2" d="M48.56,-551.43C54.98,-555.52 62.11,-559.71 69,-563 97.78,-576.76 112.16,-565.98 137,-586 149.11,-595.76 143.41,-605.64 155,-616 161.72,-622.01 170.21,-626.76 178.39,-630.4"/>
<polygon fill="#9a32cd" stroke="#9a32cd" points="50.07,-548.23 39.8,-545.62 46.2,-554.06 50.07,-548.23"/>
<text text-anchor="middle" x="103" y="-622" font-family="Helvetica,sans-Serif" font-size="10.00"> max_size</text>
<text text-anchor="middle" x="103" y="-611" font-family="Helvetica,sans-Serif" font-size="10.00">size</text>
<text text-anchor="middle" x="103" y="-600" font-family="Helvetica,sans-Serif" font-size="10.00">begin</text>
<text text-anchor="middle" x="103" y="-589" font-family="Helvetica,sans-Serif" font-size="10.00">end</text>
</g>
<!-- Node9 -->
<g id="node9" class="node">
<title>Node9</title>
<g id="a_node9"><a xlink:href="group__mpp__domains__mod.html#structmpp__domains__mod_1_1overlapspec" target="_top" xlink:title="Private type for overlap specifications.">
<polygon fill="white" stroke="black" points="372.5,-849.5 372.5,-868.5 448.5,-868.5 448.5,-849.5 372.5,-849.5"/>
<text text-anchor="middle" x="410.5" y="-856.5" font-family="Helvetica,sans-Serif" font-size="10.00">overlapspec</text>
</a>
</g>
</g>
<!-- Node4&#45;&gt;Node9 -->
<g id="edge20" class="edge">
<title>Node4&#45;&gt;Node9</title>
<path fill="none" stroke="#9a32cd" stroke-dasharray="5,2" d="M25.61,-556.24C25.33,-589.83 30.05,-656.82 69,-692 133.53,-750.28 185.53,-682.62 262,-724 320.93,-755.88 310.93,-794.11 364,-835 371.22,-840.56 379.9,-845.5 387.75,-849.43"/>
<polygon fill="#9a32cd" stroke="#9a32cd" points="29.12,-555.95 25.87,-545.87 22.12,-555.78 29.12,-555.95"/>
<text text-anchor="middle" x="208.5" y="-837" font-family="Helvetica,sans-Serif" font-size="10.00"> nsend</text>
<text text-anchor="middle" x="208.5" y="-826" font-family="Helvetica,sans-Serif" font-size="10.00">ybegin</text>
<text text-anchor="middle" x="208.5" y="-815" font-family="Helvetica,sans-Serif" font-size="10.00">xbegin</text>
<text text-anchor="middle" x="208.5" y="-804" font-family="Helvetica,sans-Serif" font-size="10.00">yend</text>
<text text-anchor="middle" x="208.5" y="-793" font-family="Helvetica,sans-Serif" font-size="10.00">nhalo</text>
<text text-anchor="middle" x="208.5" y="-782" font-family="Helvetica,sans-Serif" font-size="10.00">xend</text>
<text text-anchor="middle" x="208.5" y="-771" font-family="Helvetica,sans-Serif" font-size="10.00">recvsize</text>
<text text-anchor="middle" x="208.5" y="-760" font-family="Helvetica,sans-Serif" font-size="10.00">shalo</text>
<text text-anchor="middle" x="208.5" y="-749" font-family="Helvetica,sans-Serif" font-size="10.00">ehalo</text>
<text text-anchor="middle" x="208.5" y="-738" font-family="Helvetica,sans-Serif" font-size="10.00">sendsize</text>
<text text-anchor="middle" x="208.5" y="-727" font-family="Helvetica,sans-Serif" font-size="10.00">...</text>
</g>
<!-- Node4&#45;&gt;Node10 -->
<g id="edge18" class="edge">
<title>Node4&#45;&gt;Node10</title>
<path fill="none" stroke="#9a32cd" stroke-dasharray="5,2" d="M27.37,-555.91C29.7,-591.94 38.2,-669.49 69,-726 89.61,-763.8 117.22,-756.75 137,-795 157.94,-835.5 127.07,-859.96 155,-896 159.85,-902.26 166.71,-906.94 173.87,-910.42"/>
<polygon fill="#9a32cd" stroke="#9a32cd" points="30.86,-555.54 26.81,-545.74 23.87,-555.92 30.86,-555.54"/>
<text text-anchor="middle" x="103" y="-908" font-family="Helvetica,sans-Serif" font-size="10.00"> rotation</text>
<text text-anchor="middle" x="103" y="-897" font-family="Helvetica,sans-Serif" font-size="10.00">totsize</text>
<text text-anchor="middle" x="103" y="-886" font-family="Helvetica,sans-Serif" font-size="10.00">pe</text>
<text text-anchor="middle" x="103" y="-875" font-family="Helvetica,sans-Serif" font-size="10.00">dir</text>
<text text-anchor="middle" x="103" y="-864" font-family="Helvetica,sans-Serif" font-size="10.00">tileme</text>
<text text-anchor="middle" x="103" y="-853" font-family="Helvetica,sans-Serif" font-size="10.00">js</text>
<text text-anchor="middle" x="103" y="-842" font-family="Helvetica,sans-Serif" font-size="10.00">count</text>
<text text-anchor="middle" x="103" y="-831" font-family="Helvetica,sans-Serif" font-size="10.00">is</text>
<text text-anchor="middle" x="103" y="-820" font-family="Helvetica,sans-Serif" font-size="10.00">tilenbr</text>
<text text-anchor="middle" x="103" y="-809" font-family="Helvetica,sans-Serif" font-size="10.00">index</text>
<text text-anchor="middle" x="103" y="-798" font-family="Helvetica,sans-Serif" font-size="10.00">...</text>
</g>
<!-- Node11 -->
<g id="node11" class="node">
<title>Node11</title>
<g id="a_node11"><a xlink:href="group__mpp__domains__mod.html#structmpp__domains__mod_1_1domain2d__spec" target="_top" xlink:title="Private type to specify multiple index limits and pe information for a 2D domain.">
<polygon fill="white" stroke="black" points="668,-572.5 668,-591.5 761,-591.5 761,-572.5 668,-572.5"/>
<text text-anchor="middle" x="714.5" y="-579.5" font-family="Helvetica,sans-Serif" font-size="10.00">domain2d_spec</text>
</a>
</g>
</g>
<!-- Node4&#45;&gt;Node11 -->
<g id="edge25" class="edge">
<title>Node4&#45;&gt;Node11</title>
<path fill="none" stroke="#9a32cd" stroke-dasharray="5,2" d="M60.55,-523.43C63.39,-522.55 66.23,-521.73 69,-521 161.1,-496.85 185.15,-492.25 280,-484 450.49,-469.17 490.55,-523.27 656,-567 662.68,-568.77 669.81,-570.64 676.68,-572.43"/>
<polygon fill="#9a32cd" stroke="#9a32cd" points="59.41,-520.12 51.01,-526.57 61.6,-526.77 59.41,-520.12"/>
<text text-anchor="middle" x="313" y="-520" font-family="Helvetica,sans-Serif" font-size="10.00"> tile_id</text>
<text text-anchor="middle" x="313" y="-509" font-family="Helvetica,sans-Serif" font-size="10.00">pe</text>
<text text-anchor="middle" x="313" y="-498" font-family="Helvetica,sans-Serif" font-size="10.00">tile_root_pe</text>
<text text-anchor="middle" x="313" y="-487" font-family="Helvetica,sans-Serif" font-size="10.00">pos</text>
</g>
<!-- Node12 -->
<g id="node12" class="node">
<title>Node12</title>
<g id="a_node12"><a xlink:href="group__mpp__domains__mod.html#structmpp__domains__mod_1_1domain1d__spec" target="_top" xlink:title="A private type used to specify index limits for a domain decomposition.">
<polygon fill="white" stroke="black" points="364,-572.5 364,-591.5 457,-591.5 457,-572.5 364,-572.5"/>
<text text-anchor="middle" x="410.5" y="-579.5" font-family="Helvetica,sans-Serif" font-size="10.00">domain1d_spec</text>
</a>
</g>
</g>
<!-- Node4&#45;&gt;Node12 -->
<g id="edge24" class="edge">
<title>Node4&#45;&gt;Node12</title>
<path fill="none" stroke="#9a32cd" stroke-dasharray="5,2" d="M61.46,-531.06C121.48,-523.93 247.17,-514.97 346,-548 363.79,-553.95 382.53,-564.6 395.01,-572.4"/>
<polygon fill="#9a32cd" stroke="#9a32cd" points="60.87,-527.6 51.38,-532.31 61.74,-534.55 60.87,-527.6"/>
<text text-anchor="middle" x="208.5" y="-532" font-family="Helvetica,sans-Serif" font-size="10.00"> pos</text>
</g>
<!-- Node13 -->
<g id="node13" class="node">
<title>Node13</title>
<g id="a_node13"><a xlink:href="group__mpp__domains__mod.html#structmpp__domains__mod_1_1tile__type" target="_top" xlink:title="Upper and lower x and y bounds for a tile.">
<polygon fill="white" stroke="black" points="527,-483.5 527,-502.5 586,-502.5 586,-483.5 527,-483.5"/>
<text text-anchor="middle" x="556.5" y="-490.5" font-family="Helvetica,sans-Serif" font-size="10.00">tile_type</text>
</a>
</g>
</g>
<!-- Node4&#45;&gt;Node13 -->
<g id="edge27" class="edge">
<title>Node4&#45;&gt;Node13</title>
<path fill="none" stroke="#9a32cd" stroke-dasharray="5,2" d="M33.86,-516.37C40.84,-499.9 52.69,-476.63 69,-461 100,-431.29 113.26,-427.06 155,-417 295.84,-383.06 333.87,-446.29 475,-479 492,-482.94 511.25,-486.32 526.66,-488.78"/>
<polygon fill="#9a32cd" stroke="#9a32cd" points="30.45,-515.48 29.98,-526.06 36.94,-518.08 30.45,-515.48"/>
<text text-anchor="middle" x="208.5" y="-453" font-family="Helvetica,sans-Serif" font-size="10.00"> ybegin</text>
<text text-anchor="middle" x="208.5" y="-442" font-family="Helvetica,sans-Serif" font-size="10.00">xbegin</text>
<text text-anchor="middle" x="208.5" y="-431" font-family="Helvetica,sans-Serif" font-size="10.00">yend</text>
<text text-anchor="middle" x="208.5" y="-420" font-family="Helvetica,sans-Serif" font-size="10.00">xend</text>
</g>
<!-- Node5&#45;&gt;Node1 -->
<g id="edge4" class="edge">
<title>Node5&#45;&gt;Node1</title>
<path fill="none" stroke="#9a32cd" stroke-dasharray="5,2" d="M906.44,-609.34C928.58,-567.43 982.96,-462.32 1021,-371 1044.62,-314.3 1067.13,-243.95 1075.03,-218.64"/>
<polygon fill="#9a32cd" stroke="#9a32cd" points="903.24,-607.9 901.65,-618.38 909.43,-611.18 903.24,-607.9"/>
<text text-anchor="middle" x="995" y="-488" font-family="Helvetica,sans-Serif" font-size="10.00"> domain</text>
</g>
<!-- Node5&#45;&gt;Node5 -->
<g id="edge14" class="edge">
<title>Node5&#45;&gt;Node5</title>
<path fill="none" stroke="#9a32cd" stroke-dasharray="5,2" d="M879.2,-647.4C880.29,-652.31 885.72,-656 895.5,-656 911.14,-656 915.66,-646.57 909.06,-637.76"/>
<polygon fill="#9a32cd" stroke="#9a32cd" points="882.58,-648.33 881.94,-637.76 875.84,-646.42 882.58,-648.33"/>
<text text-anchor="middle" x="895.5" y="-659" font-family="Helvetica,sans-Serif" font-size="10.00"> io_domain</text>
</g>
<!-- Node6&#45;&gt;Node5 -->
<g id="edge6" class="edge">
<title>Node6&#45;&gt;Node5</title>
<path fill="none" stroke="#9a32cd" stroke-dasharray="5,2" d="M453.28,-624.35C548.16,-625.13 778.2,-627.04 862.69,-627.74"/>
<polygon fill="#9a32cd" stroke="#9a32cd" points="453.22,-620.85 443.19,-624.26 453.16,-627.85 453.22,-620.85"/>
<text text-anchor="middle" x="714.5" y="-640" font-family="Helvetica,sans-Serif" font-size="10.00"> x</text>
<text text-anchor="middle" x="714.5" y="-629" font-family="Helvetica,sans-Serif" font-size="10.00">y</text>
</g>
<!-- Node6&#45;&gt;Node6 -->
<g id="edge8" class="edge">
<title>Node6&#45;&gt;Node6</title>
<path fill="none" stroke="#9a32cd" stroke-dasharray="5,2" d="M392.72,-643.4C393.91,-648.31 399.84,-652 410.5,-652 427.56,-652 432.49,-642.57 425.3,-633.76"/>
<polygon fill="#9a32cd" stroke="#9a32cd" points="396.09,-644.34 395.7,-633.76 389.41,-642.28 396.09,-644.34"/>
<text text-anchor="middle" x="410.5" y="-655" font-family="Helvetica,sans-Serif" font-size="10.00"> list</text>
</g>
<!-- Node7&#45;&gt;Node6 -->
<g id="edge9" class="edge">
<title>Node7&#45;&gt;Node6</title>
<path fill="none" stroke="#9a32cd" stroke-dasharray="5,2" d="M272.22,-634.98C307.33,-632.17 349.61,-628.79 377.89,-626.53"/>
<polygon fill="#9a32cd" stroke="#9a32cd" points="271.74,-631.51 262.05,-635.8 272.29,-638.49 271.74,-631.51"/>
<text text-anchor="middle" x="313" y="-669" font-family="Helvetica,sans-Serif" font-size="10.00"> memory</text>
<text text-anchor="middle" x="313" y="-658" font-family="Helvetica,sans-Serif" font-size="10.00">global</text>
<text text-anchor="middle" x="313" y="-647" font-family="Helvetica,sans-Serif" font-size="10.00">compute</text>
<text text-anchor="middle" x="313" y="-636" font-family="Helvetica,sans-Serif" font-size="10.00">data</text>
</g>
<!-- Node7&#45;&gt;Node12 -->
<g id="edge23" class="edge">
<title>Node7&#45;&gt;Node12</title>
<path fill="none" stroke="#9a32cd" stroke-dasharray="5,2" d="M242.43,-626.15C249.03,-623.04 255.83,-619.59 262,-616 270.53,-611.04 270.88,-606.78 280,-603 306.51,-592.01 338.29,-586.75 363.74,-584.24"/>
<polygon fill="#9a32cd" stroke="#9a32cd" points="240.65,-623.12 232.99,-630.44 243.55,-629.49 240.65,-623.12"/>
<text text-anchor="middle" x="313" y="-617" font-family="Helvetica,sans-Serif" font-size="10.00"> global</text>
<text text-anchor="middle" x="313" y="-606" font-family="Helvetica,sans-Serif" font-size="10.00">compute</text>
</g>
<!-- Node8 -->
<g id="node8" class="node">
<title>Node8</title>
<g id="a_node8"><a xlink:title=" ">
<polygon fill="white" stroke="#bfbfbf" points="667.5,-487.5 667.5,-506.5 761.5,-506.5 761.5,-487.5 667.5,-487.5"/>
<text text-anchor="middle" x="714.5" y="-494.5" font-family="Helvetica,sans-Serif" font-size="10.00">integer(i8_kind)</text>
</a>
</g>
</g>
<!-- Node8&#45;&gt;Node5 -->
<g id="edge13" class="edge">
<title>Node8&#45;&gt;Node5</title>
<path fill="none" stroke="#9a32cd" stroke-dasharray="5,2" d="M771.55,-499.68C788.85,-502.62 807.22,-508.08 822,-518 860.17,-543.63 883.09,-596.82 891.18,-618.5"/>
<polygon fill="#9a32cd" stroke="#9a32cd" points="771.92,-496.19 761.52,-498.22 770.91,-503.12 771.92,-496.19"/>
<text text-anchor="middle" x="806.5" y="-521" font-family="Helvetica,sans-Serif" font-size="10.00"> id</text>
</g>
<!-- Node9&#45;&gt;Node5 -->
<g id="edge15" class="edge">
<title>Node9&#45;&gt;Node5</title>
<path fill="none" stroke="#9a32cd" stroke-dasharray="5,2" d="M454.94,-846.66C547.39,-819.92 760.17,-755.59 822,-713 852.51,-691.99 877.85,-655.01 888.75,-637.59"/>
<polygon fill="#9a32cd" stroke="#9a32cd" points="453.97,-843.3 445.33,-849.43 455.91,-850.03 453.97,-843.3"/>
<text text-anchor="middle" x="714.5" y="-894" font-family="Helvetica,sans-Serif" font-size="10.00"> update_c</text>
<text text-anchor="middle" x="714.5" y="-883" font-family="Helvetica,sans-Serif" font-size="10.00">update_t</text>
<text text-anchor="middle" x="714.5" y="-872" font-family="Helvetica,sans-Serif" font-size="10.00">update_e</text>
<text text-anchor="middle" x="714.5" y="-861" font-family="Helvetica,sans-Serif" font-size="10.00">bound_c</text>
<text text-anchor="middle" x="714.5" y="-850" font-family="Helvetica,sans-Serif" font-size="10.00">bound_e</text>
<text text-anchor="middle" x="714.5" y="-839" font-family="Helvetica,sans-Serif" font-size="10.00">check_n</text>
<text text-anchor="middle" x="714.5" y="-828" font-family="Helvetica,sans-Serif" font-size="10.00">update_n</text>
<text text-anchor="middle" x="714.5" y="-817" font-family="Helvetica,sans-Serif" font-size="10.00">check_c</text>
<text text-anchor="middle" x="714.5" y="-806" font-family="Helvetica,sans-Serif" font-size="10.00">bound_n</text>
<text text-anchor="middle" x="714.5" y="-795" font-family="Helvetica,sans-Serif" font-size="10.00">check_e</text>
<text text-anchor="middle" x="714.5" y="-784" font-family="Helvetica,sans-Serif" font-size="10.00">...</text>
</g>
<!-- Node9&#45;&gt;Node9 -->
<g id="edge19" class="edge">
<title>Node9&#45;&gt;Node9</title>
<path fill="none" stroke="#9a32cd" stroke-dasharray="5,2" d="M392.72,-878.4C393.91,-883.31 399.84,-887 410.5,-887 427.56,-887 432.49,-877.57 425.3,-868.76"/>
<polygon fill="#9a32cd" stroke="#9a32cd" points="396.09,-879.34 395.7,-868.76 389.41,-877.28 396.09,-879.34"/>
<text text-anchor="middle" x="410.5" y="-890" font-family="Helvetica,sans-Serif" font-size="10.00"> next</text>
</g>
<!-- Node10&#45;&gt;Node9 -->
<g id="edge16" class="edge">
<title>Node10&#45;&gt;Node9</title>
<path fill="none" stroke="#9a32cd" stroke-dasharray="5,2" d="M258.81,-915.01C285.23,-911.34 318.01,-905.17 346,-895 364.1,-888.42 383.1,-876.96 395.54,-868.74"/>
<polygon fill="#9a32cd" stroke="#9a32cd" points="258.11,-911.58 248.65,-916.35 259.02,-918.52 258.11,-911.58"/>
<text text-anchor="middle" x="313" y="-925" font-family="Helvetica,sans-Serif" font-size="10.00"> recv</text>
<text text-anchor="middle" x="313" y="-914" font-family="Helvetica,sans-Serif" font-size="10.00">send</text>
</g>
<!-- Node11&#45;&gt;Node5 -->
<g id="edge21" class="edge">
<title>Node11&#45;&gt;Node5</title>
<path fill="none" stroke="#9a32cd" stroke-dasharray="5,2" d="M771.19,-591.48C787.66,-594.69 805.65,-598.59 822,-603 838.07,-607.33 855.73,-613.39 869.6,-618.46"/>
<polygon fill="#9a32cd" stroke="#9a32cd" points="771.64,-588.01 761.16,-589.58 770.33,-594.88 771.64,-588.01"/>
<text text-anchor="middle" x="806.5" y="-606" font-family="Helvetica,sans-Serif" font-size="10.00"> list</text>
</g>
<!-- Node12&#45;&gt;Node11 -->
<g id="edge22" class="edge">
<title>Node12&#45;&gt;Node11</title>
<path fill="none" stroke="#9a32cd" stroke-dasharray="5,2" d="M467.07,-582C524.71,-582 613.8,-582 667.59,-582"/>
<polygon fill="#9a32cd" stroke="#9a32cd" points="467.04,-578.5 457.04,-582 467.04,-585.5 467.04,-578.5"/>
<text text-anchor="middle" x="556.5" y="-596" font-family="Helvetica,sans-Serif" font-size="10.00"> x</text>
<text text-anchor="middle" x="556.5" y="-585" font-family="Helvetica,sans-Serif" font-size="10.00">y</text>
</g>
<!-- Node13&#45;&gt;Node5 -->
<g id="edge26" class="edge">
<title>Node13&#45;&gt;Node5</title>
<path fill="none" stroke="#9a32cd" stroke-dasharray="5,2" d="M596.22,-497.4C609.66,-499.53 624.69,-502.62 638,-507 646.5,-509.8 647.7,-512.67 656,-516 706.5,-536.23 723.52,-529.38 773,-552 815.09,-571.24 860.16,-602.64 881.66,-618.38"/>
<polygon fill="#9a32cd" stroke="#9a32cd" points="596.71,-493.93 586.31,-495.94 595.69,-500.86 596.71,-493.93"/>
<text text-anchor="middle" x="714.5" y="-555" font-family="Helvetica,sans-Serif" font-size="10.00"> tilelist</text>
</g>
<!-- Node14 -->
<g id="node14" class="node">
<title>Node14</title>
<g id="a_node14"><a xlink:title=" ">
<polygon fill="white" stroke="#bfbfbf" points="656,-948 656,-978 773,-978 773,-948 656,-948"/>
<text text-anchor="start" x="664" y="-966" font-family="Helvetica,sans-Serif" font-size="10.00">character(len=name</text>
<text text-anchor="middle" x="714.5" y="-955" font-family="Helvetica,sans-Serif" font-size="10.00">_length)</text>
</a>
</g>
</g>
<!-- Node14&#45;&gt;Node5 -->
<g id="edge29" class="edge">
<title>Node14&#45;&gt;Node5</title>
<path fill="none" stroke="#9a32cd" stroke-dasharray="5,2" d="M783.09,-955.41C797.54,-950.89 811.57,-943.87 822,-933 864.58,-888.62 888.48,-684.9 893.5,-637.76"/>
<polygon fill="#9a32cd" stroke="#9a32cd" points="781.79,-952.14 773.06,-958.15 783.63,-958.89 781.79,-952.14"/>
<text text-anchor="middle" x="806.5" y="-955" font-family="Helvetica,sans-Serif" font-size="10.00"> name</text>
</g>
<!-- Node15 -->
<g id="node15" class="node">
<title>Node15</title>
<g id="a_node15"><a xlink:title=" ">
<polygon fill="white" stroke="#bfbfbf" points="856,-215.5 856,-234.5 935,-234.5 935,-215.5 856,-215.5"/>
<text text-anchor="middle" x="895.5" y="-222.5" font-family="Helvetica,sans-Serif" font-size="10.00">type(valid_t)</text>
</a>
</g>
</g>
<!-- Node15&#45;&gt;Node1 -->
<g id="edge30" class="edge">
<title>Node15&#45;&gt;Node1</title>
<path fill="none" stroke="#9a32cd" stroke-dasharray="5,2" d="M945.46,-220.68C974.74,-218.1 1011.46,-214.87 1038.82,-212.45"/>
<polygon fill="#9a32cd" stroke="#9a32cd" points="945.09,-217.2 935.44,-221.57 945.71,-224.18 945.09,-217.2"/>
<text text-anchor="middle" x="995" y="-221" font-family="Helvetica,sans-Serif" font-size="10.00"> valid</text>
</g>
<!-- Node16 -->
<g id="node16" class="node">
<title>Node16</title>
<g id="a_node16"><a xlink:title=" ">
<polygon fill="white" stroke="#bfbfbf" points="840,-177.5 840,-196.5 951,-196.5 951,-177.5 840,-177.5"/>
<text text-anchor="middle" x="895.5" y="-184.5" font-family="Helvetica,sans-Serif" font-size="10.00">character(len=128)</text>
</a>
</g>
</g>
<!-- Node16&#45;&gt;Node1 -->
<g id="edge31" class="edge">
<title>Node16&#45;&gt;Node1</title>
<path fill="none" stroke="#9a32cd" stroke-dasharray="5,2" d="M961.34,-183.31C980.66,-183.34 1001.8,-184.5 1021,-188 1033.45,-190.27 1046.75,-195.03 1057.37,-199.44"/>
<polygon fill="#9a32cd" stroke="#9a32cd" points="961.09,-179.81 951.12,-183.4 961.15,-186.81 961.09,-179.81"/>
<text text-anchor="middle" x="995" y="-202" font-family="Helvetica,sans-Serif" font-size="10.00"> units</text>
<text text-anchor="middle" x="995" y="-191" font-family="Helvetica,sans-Serif" font-size="10.00">name</text>
</g>
<!-- Node17 -->
<g id="node17" class="node">
<title>Node17</title>
<g id="a_node17"><a xlink:title=" ">
<polygon fill="white" stroke="#bfbfbf" points="844.5,-139.5 844.5,-158.5 946.5,-158.5 946.5,-139.5 844.5,-139.5"/>
<text text-anchor="middle" x="895.5" y="-146.5" font-family="Helvetica,sans-Serif" font-size="10.00">real(double_kind)</text>
</a>
</g>
</g>
<!-- Node17&#45;&gt;Node1 -->
<g id="edge32" class="edge">
<title>Node17&#45;&gt;Node1</title>
<path fill="none" stroke="#9a32cd" stroke-dasharray="5,2" d="M956.84,-144.86C977.85,-145.47 1001.13,-148.55 1021,-157 1042.45,-166.12 1061.07,-186.86 1070.8,-199.22"/>
<polygon fill="#9a32cd" stroke="#9a32cd" points="956.77,-141.36 946.73,-144.74 956.69,-148.36 956.77,-141.36"/>
<text text-anchor="middle" x="995" y="-171" font-family="Helvetica,sans-Serif" font-size="10.00"> slope</text>
<text text-anchor="middle" x="995" y="-160" font-family="Helvetica,sans-Serif" font-size="10.00">intercept</text>
</g>
<!-- Node18 -->
<g id="node18" class="node">
<title>Node18</title>
<g id="a_node18"><a xlink:title=" ">
<polygon fill="white" stroke="#bfbfbf" points="842,-90 842,-120 949,-120 949,-90 842,-90"/>
<text text-anchor="start" x="850" y="-108" font-family="Helvetica,sans-Serif" font-size="10.00">type(fmsnetcdffile</text>
<text text-anchor="middle" x="895.5" y="-97" font-family="Helvetica,sans-Serif" font-size="10.00">_t), pointer</text>
</a>
</g>
</g>
<!-- Node18&#45;&gt;Node1 -->
<g id="edge33" class="edge">
<title>Node18&#45;&gt;Node1</title>
<path fill="none" stroke="#9a32cd" stroke-dasharray="5,2" d="M959.22,-108.41C980.15,-111.85 1002.76,-118.26 1021,-130 1048.02,-147.39 1066.33,-182.49 1073.98,-199.42"/>
<polygon fill="#9a32cd" stroke="#9a32cd" points="959.51,-104.91 949.11,-106.95 958.5,-111.84 959.51,-104.91"/>
<text text-anchor="middle" x="995" y="-133" font-family="Helvetica,sans-Serif" font-size="10.00"> fileobj</text>
</g>
<!-- Node19 -->
<g id="node19" class="node">
<title>Node19</title>
<g id="a_node19"><a xlink:title=" ">
<polygon fill="white" stroke="#bfbfbf" points="843,-51.5 843,-70.5 948,-70.5 948,-51.5 843,-51.5"/>
<text text-anchor="middle" x="895.5" y="-58.5" font-family="Helvetica,sans-Serif" font-size="10.00">character(len=32)</text>
</a>
</g>
</g>
<!-- Node19&#45;&gt;Node1 -->
<g id="edge34" class="edge">
<title>Node19&#45;&gt;Node1</title>
<path fill="none" stroke="#9a32cd" stroke-dasharray="5,2" d="M958.06,-67.33C979.82,-72.11 1003.27,-80.46 1021,-95 1055.39,-123.2 1070.92,-177.4 1076,-199.38"/>
<polygon fill="#9a32cd" stroke="#9a32cd" points="958.7,-63.89 948.21,-65.37 957.33,-70.75 958.7,-63.89"/>
<text text-anchor="middle" x="995" y="-98" font-family="Helvetica,sans-Serif" font-size="10.00"> axisname</text>
</g>
<!-- Node20 -->
<g id="node20" class="node">
<title>Node20</title>
<g id="a_node20"><a xlink:title=" ">
<polygon fill="white" stroke="#bfbfbf" points="878,-0.5 878,-19.5 913,-19.5 913,-0.5 878,-0.5"/>
<text text-anchor="middle" x="895.5" y="-7.5" font-family="Helvetica,sans-Serif" font-size="10.00">real</text>
</a>
</g>
</g>
<!-- Node20&#45;&gt;Node1 -->
<g id="edge35" class="edge">
<title>Node20&#45;&gt;Node1</title>
<path fill="none" stroke="#9a32cd" stroke-dasharray="5,2" d="M923.48,-7.54C951.26,-6.53 994.16,-9.45 1021,-33 1072.18,-77.9 1077.68,-169.14 1078.06,-199.17"/>
<polygon fill="#9a32cd" stroke="#9a32cd" points="923.08,-4.05 913.29,-8.11 923.47,-11.04 923.08,-4.05"/>
<text text-anchor="middle" x="995" y="-58" font-family="Helvetica,sans-Serif" font-size="10.00"> missing</text>
<text text-anchor="middle" x="995" y="-47" font-family="Helvetica,sans-Serif" font-size="10.00">src_data</text>
<text text-anchor="middle" x="995" y="-36" font-family="Helvetica,sans-Serif" font-size="10.00">data</text>
</g>
</g>
</svg>
