<?xml version="1.0" encoding="UTF-8" standalone="no"?>
<!DOCTYPE svg PUBLIC "-//W3C//DTD SVG 1.1//EN"
 "http://www.w3.org/Graphics/SVG/1.1/DTD/svg11.dtd">
<!-- Generated by graphviz version 2.43.0 (0)
 -->
<!-- Title: compresseddimension_t Pages: 1 -->
<svg width="220pt" height="117pt"
 viewBox="0.00 0.00 219.50 117.00" xmlns="http://www.w3.org/2000/svg" xmlns:xlink="http://www.w3.org/1999/xlink">
<g id="graph0" class="graph" transform="scale(1 1) rotate(0) translate(4 113)">
<title>compresseddimension_t</title>
<polygon fill="white" stroke="transparent" points="-4,4 -4,-113 215.5,-113 215.5,4 -4,4"/>
<!-- Node1 -->
<g id="node1" class="node">
<title>Node1</title>
<g id="a_node1"><a xlink:title="Compressed dimension.">
<polygon fill="#bfbfbf" stroke="black" points="36.5,-0.5 36.5,-19.5 172.5,-19.5 172.5,-0.5 36.5,-0.5"/>
<text text-anchor="middle" x="104.5" y="-7.5" font-family="Helvetica,sans-Serif" font-size="10.00">compresseddimension_t</text>
</a>
</g>
</g>
<!-- Node2 -->
<g id="node2" class="node">
<title>Node2</title>
<g id="a_node2"><a xlink:title=" ">
<polygon fill="white" stroke="#bfbfbf" points="0,-89.5 0,-108.5 111,-108.5 111,-89.5 0,-89.5"/>
<text text-anchor="middle" x="55.5" y="-96.5" font-family="Helvetica,sans-Serif" font-size="10.00">character(len=256)</text>
</a>
</g>
</g>
<!-- Node2&#45;&gt;Node1 -->
<g id="edge1" class="edge">
<title>Node2&#45;&gt;Node1</title>
<path fill="none" stroke="#9a32cd" stroke-dasharray="5,2" d="M62.34,-79.55C67.21,-67.35 74.33,-51.23 82.5,-38 86.57,-31.42 92.07,-24.67 96.55,-19.56"/>
<polygon fill="#9a32cd" stroke="#9a32cd" points="59,-78.51 58.67,-89.1 65.53,-81.02 59,-78.51"/>
<text text-anchor="middle" x="107.5" y="-52" font-family="Helvetica,sans-Serif" font-size="10.00"> dimname</text>
</g>
<!-- Node3 -->
<g id="node3" class="node">
<title>Node3</title>
<g id="a_node3"><a xlink:title=" ">
<polygon fill="white" stroke="#bfbfbf" points="129,-89.5 129,-108.5 180,-108.5 180,-89.5 129,-89.5"/>
<text text-anchor="middle" x="154.5" y="-96.5" font-family="Helvetica,sans-Serif" font-size="10.00">integer</text>
</a>
</g>
</g>
<!-- Node3&#45;&gt;Node1 -->
<g id="edge2" class="edge">
<title>Node3&#45;&gt;Node1</title>
<path fill="none" stroke="#9a32cd" stroke-dasharray="5,2" d="M150.09,-79.6C146.57,-67.18 140.84,-50.8 132.5,-38 127.93,-30.98 121.22,-24.43 115.51,-19.54"/>
<polygon fill="#9a32cd" stroke="#9a32cd" points="146.71,-80.5 152.62,-89.29 153.48,-78.73 146.71,-80.5"/>
<text text-anchor="middle" x="179" y="-63" font-family="Helvetica,sans-Serif" font-size="10.00"> nelems</text>
<text text-anchor="middle" x="179" y="-52" font-family="Helvetica,sans-Serif" font-size="10.00">npes_corner</text>
<text text-anchor="middle" x="179" y="-41" font-family="Helvetica,sans-Serif" font-size="10.00">npes_nelems</text>
</g>
</g>
</svg>
