<?xml version="1.0" encoding="UTF-8" standalone="no"?>
<!DOCTYPE svg PUBLIC "-//W3C//DTD SVG 1.1//EN"
 "http://www.w3.org/Graphics/SVG/1.1/DTD/svg11.dtd">
<!-- Generated by graphviz version 2.43.0 (0)
 -->
<!-- Title: fmsdiagoutfield_type Pages: 1 -->
<!--zoomable 252 -->
<svg id="main" version="1.1" xmlns="http://www.w3.org/2000/svg" xmlns:xlink="http://www.w3.org/1999/xlink" xml:space="preserve" onload="init(evt)">
<style type="text/css"><![CDATA[
.edge:hover path { stroke: red; }
.edge:hover polygon { stroke: red; fill: red; }
]]></style>
<script type="text/javascript"><![CDATA[
var edges = document.getElementsByTagName('g');
if (edges && edges.length) {
  for (var i=0;i<edges.length;i++) {
    if (edges[i].id.substr(0,4)=='edge') {
      edges[i].setAttribute('class','edge');
    }
  }
}
]]></script>
        <defs>
                <circle id="rim" cx="0" cy="0" r="7"/>
                <circle id="rim2" cx="0" cy="0" r="3.5"/>
                <g id="zoomPlus">
                        <use xlink:href="#rim" fill="#404040">
                                <set attributeName="fill" to="#808080" begin="zoomplus.mouseover" end="zoomplus.mouseout"/>
                        </use>
                        <path d="M-4,0h8M0,-4v8" fill="none" stroke="white" stroke-width="1.5" pointer-events="none"/>
                </g>
                <g id="zoomMin">
                        <use xlink:href="#rim" fill="#404040">
                                <set attributeName="fill" to="#808080" begin="zoomminus.mouseover" end="zoomminus.mouseout"/>
                        </use>
                        <path d="M-4,0h8" fill="none" stroke="white" stroke-width="1.5" pointer-events="none"/>
                </g>
                <g id="dirArrow">
                        <path fill="none" stroke="white" stroke-width="1.5" d="M0,-3.0v7 M-2.5,-0.5L0,-3.0L2.5,-0.5"/>
                </g>
               <g id="resetDef">
                       <use xlink:href="#rim2" fill="#404040">
                               <set attributeName="fill" to="#808080" begin="reset.mouseover" end="reset.mouseout"/>
                       </use>
               </g>
        </defs>

<script type="text/javascript">
var viewWidth = 541;
var viewHeight = 252;
var sectionId = 'dynsection-0';
</script>
<script xlink:href="svgpan.js"/>
<svg id="graph" class="graph">
<g id="viewport">
<title>fmsdiagoutfield_type</title>
<polygon fill="white" stroke="transparent" points="-4,4 -4,-248 536.97,-248 536.97,4 -4,4"/>
<!-- Node1 -->
<g id="node1" class="node">
<title>Node1</title>
<g id="a_node1"><a xlink:title="Class fmsDiagOutfield_type (along with class ms_diag_outfield_index_type ) contain information used i...">
<polygon fill="#bfbfbf" stroke="black" points="196.97,-0.5 196.97,-19.5 316.97,-19.5 316.97,-0.5 196.97,-0.5"/>
<text text-anchor="middle" x="256.97" y="-7.5" font-family="Helvetica,sans-Serif" font-size="10.00">fmsdiagoutfield_type</text>
</a>
</g>
</g>
<!-- Node2 -->
<g id="node2" class="node">
<title>Node2</title>
<g id="a_node2"><a xlink:title=" ">
<polygon fill="white" stroke="#bfbfbf" points="0.47,-224.5 0.47,-243.5 49.47,-243.5 49.47,-224.5 0.47,-224.5"/>
<text text-anchor="middle" x="24.97" y="-231.5" font-family="Helvetica,sans-Serif" font-size="10.00">logical</text>
</a>
</g>
</g>
<!-- Node2&#45;&gt;Node1 -->
<g id="edge1" class="edge">
<title>Node2&#45;&gt;Node1</title>
<path fill="none" stroke="#9a32cd" stroke-dasharray="5,2" d="M16.61,-215.05C5.17,-187.59 -11.31,-134.7 12.97,-100 54.27,-40.98 139.04,-20.96 196.95,-14.25"/>
<polygon fill="#9a32cd" stroke="#9a32cd" points="13.42,-216.49 20.65,-224.24 19.82,-213.68 13.42,-216.49"/>
<text text-anchor="middle" x="59.47" y="-158" font-family="Helvetica,sans-Serif" font-size="10.00"> mask_present</text>
<text text-anchor="middle" x="59.47" y="-147" font-family="Helvetica,sans-Serif" font-size="10.00">mask_variant</text>
<text text-anchor="middle" x="59.47" y="-136" font-family="Helvetica,sans-Serif" font-size="10.00">missvalue_present</text>
<text text-anchor="middle" x="59.47" y="-125" font-family="Helvetica,sans-Serif" font-size="10.00">need_compute</text>
<text text-anchor="middle" x="59.47" y="-114" font-family="Helvetica,sans-Serif" font-size="10.00">phys_window</text>
<text text-anchor="middle" x="59.47" y="-103" font-family="Helvetica,sans-Serif" font-size="10.00">reduced_k_range</text>
</g>
<!-- Node3 -->
<g id="node3" class="node">
<title>Node3</title>
<g id="a_node3"><a xlink:href="group__fms__diag__time__reduction__mod.html#structfms__diag__time__reduction__mod_1_1fmsdiagtimereduction__type" target="_top" xlink:title=" ">
<polygon fill="white" stroke="black" points="114.97,-123.5 114.97,-142.5 266.97,-142.5 266.97,-123.5 114.97,-123.5"/>
<text text-anchor="middle" x="190.97" y="-130.5" font-family="Helvetica,sans-Serif" font-size="10.00">fmsdiagtimereduction_type</text>
</a>
</g>
</g>
<!-- Node2&#45;&gt;Node3 -->
<g id="edge3" class="edge">
<title>Node2&#45;&gt;Node3</title>
<path fill="none" stroke="#9a32cd" stroke-dasharray="5,2" d="M46,-218.65C60.88,-208.64 81.42,-195.14 99.97,-184 125.48,-168.69 155.91,-152.35 174.32,-142.66"/>
<polygon fill="#9a32cd" stroke="#9a32cd" points="43.85,-215.88 37.53,-224.38 47.77,-221.67 43.85,-215.88"/>
<text text-anchor="middle" x="139.97" y="-198" font-family="Helvetica,sans-Serif" font-size="10.00"> time_averaging</text>
<text text-anchor="middle" x="139.97" y="-187" font-family="Helvetica,sans-Serif" font-size="10.00">time_ops</text>
</g>
<!-- Node3&#45;&gt;Node1 -->
<g id="edge2" class="edge">
<title>Node3&#45;&gt;Node1</title>
<path fill="none" stroke="#9a32cd" stroke-dasharray="5,2" d="M190.93,-113.15C191.79,-92.8 195.87,-60.32 211.97,-38 217.73,-30.02 226.64,-23.97 235.02,-19.64"/>
<polygon fill="#9a32cd" stroke="#9a32cd" points="187.43,-113.24 190.73,-123.31 194.43,-113.38 187.43,-113.24"/>
<text text-anchor="middle" x="250.47" y="-57.5" font-family="Helvetica,sans-Serif" font-size="10.00"> time_reduction</text>
</g>
<!-- Node4 -->
<g id="node4" class="node">
<title>Node4</title>
<g id="a_node4"><a xlink:title=" ">
<polygon fill="white" stroke="#bfbfbf" points="220.47,-224.5 220.47,-243.5 271.47,-243.5 271.47,-224.5 220.47,-224.5"/>
<text text-anchor="middle" x="245.97" y="-231.5" font-family="Helvetica,sans-Serif" font-size="10.00">integer</text>
</a>
</g>
</g>
<!-- Node4&#45;&gt;Node1 -->
<g id="edge6" class="edge">
<title>Node4&#45;&gt;Node1</title>
<path fill="none" stroke="#9a32cd" stroke-dasharray="5,2" d="M276.81,-219.18C281.69,-215.6 286.08,-211.24 288.97,-206 307.04,-173.33 304.7,-71.86 288.97,-38 285.42,-30.35 278.52,-24.09 272.03,-19.53"/>
<polygon fill="#9a32cd" stroke="#9a32cd" points="274.94,-216.22 268.31,-224.48 278.64,-222.16 274.94,-216.22"/>
<text text-anchor="middle" x="328.97" y="-130.5" font-family="Helvetica,sans-Serif" font-size="10.00"> pow_value</text>
</g>
<!-- Node4&#45;&gt;Node3 -->
<g id="edge4" class="edge">
<title>Node4&#45;&gt;Node3</title>
<path fill="none" stroke="#9a32cd" stroke-dasharray="5,2" d="M211.07,-222.99C203.13,-219.02 195.66,-213.53 190.97,-206 178.68,-186.27 184.25,-157.2 188.22,-142.78"/>
<polygon fill="#9a32cd" stroke="#9a32cd" points="209.9,-226.3 220.47,-227 212.65,-219.86 209.9,-226.3"/>
<text text-anchor="middle" x="239.97" y="-192.5" font-family="Helvetica,sans-Serif" font-size="10.00"> the_time_reduction</text>
</g>
<!-- Node5 -->
<g id="node5" class="node">
<title>Node5</title>
<g id="a_node5"><a xlink:title=" ">
<polygon fill="white" stroke="#bfbfbf" points="376.97,-123.5 376.97,-142.5 532.97,-142.5 532.97,-123.5 376.97,-123.5"/>
<text text-anchor="middle" x="454.97" y="-130.5" font-family="Helvetica,sans-Serif" font-size="10.00">character(len=:), allocatable</text>
</a>
</g>
</g>
<!-- Node5&#45;&gt;Node1 -->
<g id="edge5" class="edge">
<title>Node5&#45;&gt;Node1</title>
<path fill="none" stroke="#9a32cd" stroke-dasharray="5,2" d="M435.31,-116.98C409.16,-97.38 361.09,-62.7 316.97,-38 304.61,-31.08 290.15,-24.53 278.52,-19.61"/>
<polygon fill="#9a32cd" stroke="#9a32cd" points="433.51,-120.01 443.6,-123.24 437.73,-114.42 433.51,-120.01"/>
<text text-anchor="middle" x="420.97" y="-74" font-family="Helvetica,sans-Serif" font-size="10.00"> field_name</text>
<text text-anchor="middle" x="420.97" y="-63" font-family="Helvetica,sans-Serif" font-size="10.00">module_name</text>
<text text-anchor="middle" x="420.97" y="-52" font-family="Helvetica,sans-Serif" font-size="10.00">output_file</text>
<text text-anchor="middle" x="420.97" y="-41" font-family="Helvetica,sans-Serif" font-size="10.00">output_name</text>
</g>
</g>
</svg>
        <g id="navigator" transform="translate(0 0)" fill="#404254">
                <rect fill="#f2f5e9" fill-opacity="0.5" stroke="#606060" stroke-width=".5" x="0" y="0" width="60" height="60"/>
                <use id="zoomplus" xlink:href="#zoomPlus" x="17" y="9" onmousedown="handleZoom(evt,'in')"/>
                <use id="zoomminus" xlink:href="#zoomMin" x="42" y="9" onmousedown="handleZoom(evt,'out')"/>
                <use id="reset" xlink:href="#resetDef" x="30" y="36" onmousedown="handleReset()"/>
                <g id="arrowUp" xlink:href="#dirArrow" transform="translate(30 24)" onmousedown="handlePan(0,-1)">
                  <use xlink:href="#rim" fill="#404040">
                        <set attributeName="fill" to="#808080" begin="arrowUp.mouseover" end="arrowUp.mouseout"/>
                  </use>
                  <path fill="none" stroke="white" stroke-width="1.5" d="M0,-3.0v7 M-2.5,-0.5L0,-3.0L2.5,-0.5"/>
                </g>
                <g id="arrowRight" xlink:href="#dirArrow" transform="rotate(90) translate(36 -43)" onmousedown="handlePan(1,0)">
                  <use xlink:href="#rim" fill="#404040">
                        <set attributeName="fill" to="#808080" begin="arrowRight.mouseover" end="arrowRight.mouseout"/>
                  </use>
                  <path fill="none" stroke="white" stroke-width="1.5" d="M0,-3.0v7 M-2.5,-0.5L0,-3.0L2.5,-0.5"/>
                </g>
                <g id="arrowDown" xlink:href="#dirArrow" transform="rotate(180) translate(-30 -48)" onmousedown="handlePan(0,1)">
                  <use xlink:href="#rim" fill="#404040">
                        <set attributeName="fill" to="#808080" begin="arrowDown.mouseover" end="arrowDown.mouseout"/>
                  </use>
                  <path fill="none" stroke="white" stroke-width="1.5" d="M0,-3.0v7 M-2.5,-0.5L0,-3.0L2.5,-0.5"/>
                </g>
                <g id="arrowLeft" xlink:href="#dirArrow" transform="rotate(270) translate(-36 17)" onmousedown="handlePan(-1,0)">
                  <use xlink:href="#rim" fill="#404040">
                        <set attributeName="fill" to="#808080" begin="arrowLeft.mouseover" end="arrowLeft.mouseout"/>
                  </use>
                  <path fill="none" stroke="white" stroke-width="1.5" d="M0,-3.0v7 M-2.5,-0.5L0,-3.0L2.5,-0.5"/>
                </g>
        </g>
        <svg viewBox="0 0 15 15" width="100%" height="30px" preserveAspectRatio="xMaxYMin meet">
         <g id="arrow_out" transform="scale(0.3 0.3)">
          <a xlink:href="structfms__diag__outfield__mod_1_1fmsdiagoutfield__type__coll__graph_org.svg" target="_base">
           <rect id="button" ry="5" rx="5" y="6" x="6" height="38" width="38"
                fill="#f2f5e9" fill-opacity="0.5" stroke="#606060" stroke-width="1.0"/>
           <path id="arrow"
             d="M 11.500037,31.436501 C 11.940474,20.09759 22.043105,11.32322 32.158766,21.979434 L 37.068811,17.246167 C 37.068811,17.246167 37.088388,32 37.088388,32 L 22.160133,31.978069 C 22.160133,31.978069 26.997745,27.140456 26.997745,27.140456 C 18.528582,18.264221 13.291696,25.230495 11.500037,31.436501 z"
             style="fill:#404040;"/>
          </a>
         </g>
        </svg>
</svg>
