<?xml version="1.0" encoding="UTF-8" standalone="no"?>
<!DOCTYPE svg PUBLIC "-//W3C//DTD SVG 1.1//EN"
 "http://www.w3.org/Graphics/SVG/1.1/DTD/svg11.dtd">
<!-- Generated by graphviz version 2.43.0 (0)
 -->
<!-- Title: fmsdiagoutfieldindex_type Pages: 1 -->
<svg width="155pt" height="205pt"
 viewBox="0.00 0.00 155.00 205.00" xmlns="http://www.w3.org/2000/svg" xmlns:xlink="http://www.w3.org/1999/xlink">
<g id="graph0" class="graph" transform="scale(1 1) rotate(0) translate(4 201)">
<title>fmsdiagoutfieldindex_type</title>
<polygon fill="white" stroke="transparent" points="-4,4 -4,-201 151,-201 151,4 -4,4"/>
<!-- Node1 -->
<g id="node1" class="node">
<title>Node1</title>
<g id="a_node1"><a xlink:title="Class fms_diag_outfield_index_type which (along with class fmsDiagOutfield_type) encapsulate related ...">
<polygon fill="#bfbfbf" stroke="black" points="0,-0.5 0,-19.5 147,-19.5 147,-0.5 0,-0.5"/>
<text text-anchor="middle" x="73.5" y="-7.5" font-family="Helvetica,sans-Serif" font-size="10.00">fmsdiagoutfieldindex_type</text>
</a>
</g>
</g>
<!-- Node2 -->
<g id="node2" class="node">
<title>Node2</title>
<g id="a_node2"><a xlink:title=" ">
<polygon fill="white" stroke="#bfbfbf" points="48,-177.5 48,-196.5 99,-196.5 99,-177.5 48,-177.5"/>
<text text-anchor="middle" x="73.5" y="-184.5" font-family="Helvetica,sans-Serif" font-size="10.00">integer</text>
</a>
</g>
</g>
<!-- Node2&#45;&gt;Node1 -->
<g id="edge1" class="edge">
<title>Node2&#45;&gt;Node1</title>
<path fill="none" stroke="#9a32cd" stroke-dasharray="5,2" d="M73.5,-166.95C73.5,-129.3 73.5,-46.65 73.5,-19.69"/>
<polygon fill="#9a32cd" stroke="#9a32cd" points="70,-167.08 73.5,-177.08 77,-167.08 70,-167.08"/>
<text text-anchor="middle" x="80" y="-151" font-family="Helvetica,sans-Serif" font-size="10.00"> f1</text>
<text text-anchor="middle" x="80" y="-140" font-family="Helvetica,sans-Serif" font-size="10.00">f2</text>
<text text-anchor="middle" x="80" y="-129" font-family="Helvetica,sans-Serif" font-size="10.00">f3</text>
<text text-anchor="middle" x="80" y="-118" font-family="Helvetica,sans-Serif" font-size="10.00">f4</text>
<text text-anchor="middle" x="80" y="-107" font-family="Helvetica,sans-Serif" font-size="10.00">hi</text>
<text text-anchor="middle" x="80" y="-96" font-family="Helvetica,sans-Serif" font-size="10.00">hj</text>
<text text-anchor="middle" x="80" y="-85" font-family="Helvetica,sans-Serif" font-size="10.00">ie</text>
<text text-anchor="middle" x="80" y="-74" font-family="Helvetica,sans-Serif" font-size="10.00">is</text>
<text text-anchor="middle" x="80" y="-63" font-family="Helvetica,sans-Serif" font-size="10.00">je</text>
<text text-anchor="middle" x="80" y="-52" font-family="Helvetica,sans-Serif" font-size="10.00">js</text>
<text text-anchor="middle" x="80" y="-41" font-family="Helvetica,sans-Serif" font-size="10.00">...</text>
</g>
</g>
</svg>
