<?xml version="1.0" encoding="UTF-8" standalone="no"?>
<!DOCTYPE svg PUBLIC "-//W3C//DTD SVG 1.1//EN"
 "http://www.w3.org/Graphics/SVG/1.1/DTD/svg11.dtd">
<!-- Generated by graphviz version 2.43.0 (0)
 -->
<!-- Title: fieldtype Pages: 1 -->
<svg width="1102pt" height="566pt"
 viewBox="0.00 0.00 1101.50 566.00" xmlns="http://www.w3.org/2000/svg" xmlns:xlink="http://www.w3.org/1999/xlink">
<g id="graph0" class="graph" transform="scale(1 1) rotate(0) translate(4 562)">
<title>fieldtype</title>
<polygon fill="white" stroke="transparent" points="-4,4 -4,-562 1097.5,-562 1097.5,4 -4,4"/>
<!-- Node1 -->
<g id="node1" class="node">
<title>Node1</title>
<g id="a_node1"><a xlink:title=" ">
<polygon fill="#bfbfbf" stroke="black" points="253.5,-0.5 253.5,-19.5 312.5,-19.5 312.5,-0.5 253.5,-0.5"/>
<text text-anchor="middle" x="283" y="-7.5" font-family="Helvetica,sans-Serif" font-size="10.00">fieldtype</text>
</a>
</g>
</g>
<!-- Node2 -->
<g id="node2" class="node">
<title>Node2</title>
<g id="a_node2"><a xlink:title=" ">
<polygon fill="white" stroke="#bfbfbf" points="0,-68.5 0,-87.5 94,-87.5 94,-68.5 0,-68.5"/>
<text text-anchor="middle" x="47" y="-75.5" font-family="Helvetica,sans-Serif" font-size="10.00">integer(i8_kind)</text>
</a>
</g>
</g>
<!-- Node2&#45;&gt;Node1 -->
<g id="edge1" class="edge">
<title>Node2&#45;&gt;Node1</title>
<path fill="none" stroke="#9a32cd" stroke-dasharray="5,2" d="M46.37,-58.47C47.13,-51.1 49.39,-43.15 55,-38 83.25,-12.04 197.93,-9.86 253.09,-10.37"/>
<polygon fill="#9a32cd" stroke="#9a32cd" points="42.87,-58.4 46.12,-68.48 49.87,-58.57 42.87,-58.4"/>
<text text-anchor="middle" x="81.5" y="-41" font-family="Helvetica,sans-Serif" font-size="10.00"> checksum</text>
</g>
<!-- Node3 -->
<g id="node3" class="node">
<title>Node3</title>
<g id="a_node3"><a xlink:title=" ">
<polygon fill="white" stroke="#bfbfbf" points="227.5,-231 227.5,-250 338.5,-250 338.5,-231 227.5,-231"/>
<text text-anchor="middle" x="283" y="-238" font-family="Helvetica,sans-Serif" font-size="10.00">character(len=256)</text>
</a>
</g>
</g>
<!-- Node3&#45;&gt;Node1 -->
<g id="edge2" class="edge">
<title>Node3&#45;&gt;Node1</title>
<path fill="none" stroke="#9a32cd" stroke-dasharray="5,2" d="M283,-220.56C283,-173.58 283,-53.07 283,-19.69"/>
<polygon fill="#9a32cd" stroke="#9a32cd" points="279.5,-220.82 283,-230.82 286.5,-220.82 279.5,-220.82"/>
<text text-anchor="middle" x="321" y="-81" font-family="Helvetica,sans-Serif" font-size="10.00"> longname</text>
<text text-anchor="middle" x="321" y="-70" font-family="Helvetica,sans-Serif" font-size="10.00">standard_name</text>
</g>
<!-- Node9 -->
<g id="node9" class="node">
<title>Node9</title>
<g id="a_node9"><a xlink:href="group__mpp__io__mod.html#structmpp__io__mod_1_1axistype" target="_top" xlink:title=" ">
<polygon fill="white" stroke="black" points="559.5,-68.5 559.5,-87.5 618.5,-87.5 618.5,-68.5 559.5,-68.5"/>
<text text-anchor="middle" x="589" y="-75.5" font-family="Helvetica,sans-Serif" font-size="10.00">axistype</text>
</a>
</g>
</g>
<!-- Node3&#45;&gt;Node9 -->
<g id="edge16" class="edge">
<title>Node3&#45;&gt;Node9</title>
<path fill="none" stroke="#9a32cd" stroke-dasharray="5,2" d="M287.82,-221.17C296.86,-188.29 317.13,-121.35 336,-107 370.38,-80.85 499.8,-78.31 559.05,-78.57"/>
<polygon fill="#9a32cd" stroke="#9a32cd" points="284.42,-220.33 285.21,-230.89 291.18,-222.15 284.42,-220.33"/>
<text text-anchor="middle" x="367.5" y="-143" font-family="Helvetica,sans-Serif" font-size="10.00"> compressed</text>
<text text-anchor="middle" x="367.5" y="-132" font-family="Helvetica,sans-Serif" font-size="10.00">longname</text>
</g>
<!-- Node4 -->
<g id="node4" class="node">
<title>Node4</title>
<g id="a_node4"><a xlink:href="group__mpp__io__mod.html#structmpp__io__mod_1_1atttype" target="_top" xlink:title=" ">
<polygon fill="white" stroke="black" points="861,-231 861,-250 913,-250 913,-231 861,-231"/>
<text text-anchor="middle" x="887" y="-238" font-family="Helvetica,sans-Serif" font-size="10.00">atttype</text>
</a>
</g>
</g>
<!-- Node4&#45;&gt;Node1 -->
<g id="edge3" class="edge">
<title>Node4&#45;&gt;Node1</title>
<path fill="none" stroke="#9a32cd" stroke-dasharray="5,2" d="M891.06,-221.15C896.16,-192.7 901.09,-138 872,-107 794.64,-24.55 421.09,-12.91 312.6,-11.27"/>
<polygon fill="#9a32cd" stroke="#9a32cd" points="887.62,-220.48 889.09,-230.98 894.48,-221.86 887.62,-220.48"/>
<text text-anchor="middle" x="856.5" y="-75.5" font-family="Helvetica,sans-Serif" font-size="10.00"> att</text>
</g>
<!-- Node4&#45;&gt;Node9 -->
<g id="edge17" class="edge">
<title>Node4&#45;&gt;Node9</title>
<path fill="none" stroke="#9a32cd" stroke-dasharray="5,2" d="M879.59,-221.36C866.5,-191.89 836.35,-134.2 791,-107 762.53,-89.93 667.41,-82.84 618.53,-80.27"/>
<polygon fill="#9a32cd" stroke="#9a32cd" points="876.48,-223.01 883.63,-230.83 882.92,-220.26 876.48,-223.01"/>
<text text-anchor="middle" x="859.5" y="-137.5" font-family="Helvetica,sans-Serif" font-size="10.00"> att</text>
</g>
<!-- Node5 -->
<g id="node5" class="node">
<title>Node5</title>
<g id="a_node5"><a xlink:title=" ">
<polygon fill="white" stroke="#bfbfbf" points="418.5,-426.5 418.5,-445.5 529.5,-445.5 529.5,-426.5 418.5,-426.5"/>
<text text-anchor="middle" x="474" y="-433.5" font-family="Helvetica,sans-Serif" font-size="10.00">character(len=128)</text>
</a>
</g>
</g>
<!-- Node5&#45;&gt;Node1 -->
<g id="edge23" class="edge">
<title>Node5&#45;&gt;Node1</title>
<path fill="none" stroke="#9a32cd" stroke-dasharray="5,2" d="M426.61,-423.76C365.84,-406.53 262.95,-367.13 218,-290 162.65,-195.04 251.31,-56.11 276.58,-19.89"/>
<polygon fill="#9a32cd" stroke="#9a32cd" points="425.78,-427.17 436.35,-426.44 427.64,-420.42 425.78,-427.17"/>
<text text-anchor="middle" x="242.5" y="-143" font-family="Helvetica,sans-Serif" font-size="10.00"> name</text>
<text text-anchor="middle" x="242.5" y="-132" font-family="Helvetica,sans-Serif" font-size="10.00">units</text>
</g>
<!-- Node5&#45;&gt;Node4 -->
<g id="edge4" class="edge">
<title>Node5&#45;&gt;Node4</title>
<path fill="none" stroke="#9a32cd" stroke-dasharray="5,2" d="M524.46,-424.46C542.56,-420.88 563.15,-417.02 582,-414 613.63,-408.94 699.87,-415.85 725,-396 757.78,-370.11 726.07,-334.93 758,-308 790.52,-280.58 816.13,-312.86 852,-290 867.24,-280.29 877.93,-261.37 883.22,-250.25"/>
<polygon fill="#9a32cd" stroke="#9a32cd" points="523.52,-421.08 514.4,-426.48 524.89,-427.95 523.52,-421.08"/>
<text text-anchor="middle" x="773.5" y="-349.5" font-family="Helvetica,sans-Serif" font-size="10.00"> name</text>
</g>
<!-- Node5&#45;&gt;Node9 -->
<g id="edge19" class="edge">
<title>Node5&#45;&gt;Node9</title>
<path fill="none" stroke="#9a32cd" stroke-dasharray="5,2" d="M473.32,-415.99C472.47,-373.82 474.1,-269.93 506,-191 523.68,-147.24 562.59,-105.16 580.12,-87.59"/>
<polygon fill="#9a32cd" stroke="#9a32cd" points="469.82,-416.28 473.6,-426.18 476.82,-416.08 469.82,-416.28"/>
<text text-anchor="middle" x="540.5" y="-249" font-family="Helvetica,sans-Serif" font-size="10.00"> name</text>
<text text-anchor="middle" x="540.5" y="-238" font-family="Helvetica,sans-Serif" font-size="10.00">name_bounds</text>
<text text-anchor="middle" x="540.5" y="-227" font-family="Helvetica,sans-Serif" font-size="10.00">units</text>
</g>
<!-- Node6 -->
<g id="node6" class="node">
<title>Node6</title>
<g id="a_node6"><a xlink:title=" ">
<polygon fill="white" stroke="#bfbfbf" points="1058.5,-426.5 1058.5,-445.5 1093.5,-445.5 1093.5,-426.5 1058.5,-426.5"/>
<text text-anchor="middle" x="1076" y="-433.5" font-family="Helvetica,sans-Serif" font-size="10.00">real</text>
</a>
</g>
</g>
<!-- Node6&#45;&gt;Node1 -->
<g id="edge25" class="edge">
<title>Node6&#45;&gt;Node1</title>
<path fill="none" stroke="#9a32cd" stroke-dasharray="5,2" d="M1079.75,-416.26C1087.35,-373.07 1100.38,-264.58 1057,-191 1006.16,-104.78 961.71,-104.72 869,-67 766.29,-25.21 416.65,-14.03 312.51,-11.59"/>
<polygon fill="#9a32cd" stroke="#9a32cd" points="1076.29,-415.73 1077.89,-426.21 1083.17,-417.02 1076.29,-415.73"/>
<text text-anchor="middle" x="1064.5" y="-165" font-family="Helvetica,sans-Serif" font-size="10.00"> add</text>
<text text-anchor="middle" x="1064.5" y="-154" font-family="Helvetica,sans-Serif" font-size="10.00">fill</text>
<text text-anchor="middle" x="1064.5" y="-143" font-family="Helvetica,sans-Serif" font-size="10.00">max</text>
<text text-anchor="middle" x="1064.5" y="-132" font-family="Helvetica,sans-Serif" font-size="10.00">min</text>
<text text-anchor="middle" x="1064.5" y="-121" font-family="Helvetica,sans-Serif" font-size="10.00">missing</text>
<text text-anchor="middle" x="1064.5" y="-110" font-family="Helvetica,sans-Serif" font-size="10.00">scale</text>
</g>
<!-- Node6&#45;&gt;Node4 -->
<g id="edge5" class="edge">
<title>Node6&#45;&gt;Node4</title>
<path fill="none" stroke="#9a32cd" stroke-dasharray="5,2" d="M1059.35,-420.1C1056.09,-417.76 1052.57,-415.6 1049,-414 1008.17,-395.75 982.8,-426.4 950,-396 920.35,-368.52 942.69,-345.26 927,-308 917.69,-285.9 901.99,-262.38 893.29,-250.1"/>
<polygon fill="#9a32cd" stroke="#9a32cd" points="1057.24,-422.89 1067.23,-426.41 1061.61,-417.42 1057.24,-422.89"/>
<text text-anchor="middle" x="960.5" y="-349.5" font-family="Helvetica,sans-Serif" font-size="10.00"> fatt</text>
</g>
<!-- Node6&#45;&gt;Node9 -->
<g id="edge20" class="edge">
<title>Node6&#45;&gt;Node9</title>
<path fill="none" stroke="#9a32cd" stroke-dasharray="5,2" d="M1066.3,-417.46C1030.07,-352.22 903.15,-126.38 872,-107 830.29,-81.05 682.42,-78.53 618.64,-78.69"/>
<polygon fill="#9a32cd" stroke="#9a32cd" points="1063.4,-419.44 1071.31,-426.49 1069.52,-416.05 1063.4,-419.44"/>
<text text-anchor="middle" x="1021.5" y="-243.5" font-family="Helvetica,sans-Serif" font-size="10.00"> data</text>
<text text-anchor="middle" x="1021.5" y="-232.5" font-family="Helvetica,sans-Serif" font-size="10.00">data_bounds</text>
</g>
<!-- Node7 -->
<g id="node7" class="node">
<title>Node7</title>
<g id="a_node7"><a xlink:title=" ">
<polygon fill="white" stroke="#bfbfbf" points="578.5,-538.5 578.5,-557.5 629.5,-557.5 629.5,-538.5 578.5,-538.5"/>
<text text-anchor="middle" x="604" y="-545.5" font-family="Helvetica,sans-Serif" font-size="10.00">integer</text>
</a>
</g>
</g>
<!-- Node7&#45;&gt;Node1 -->
<g id="edge24" class="edge">
<title>Node7&#45;&gt;Node1</title>
<path fill="none" stroke="#9a32cd" stroke-dasharray="5,2" d="M568.35,-546.48C456.83,-543.91 122,-528.57 122,-437 122,-437 122,-437 122,-77 122,-20.81 206.99,-11.43 253.47,-10.5"/>
<polygon fill="#9a32cd" stroke="#9a32cd" points="568.35,-549.98 578.43,-546.69 568.5,-542.98 568.35,-549.98"/>
<text text-anchor="middle" x="146.5" y="-282" font-family="Helvetica,sans-Serif" font-size="10.00"> id</text>
<text text-anchor="middle" x="146.5" y="-271" font-family="Helvetica,sans-Serif" font-size="10.00">natt</text>
<text text-anchor="middle" x="146.5" y="-260" font-family="Helvetica,sans-Serif" font-size="10.00">ndim</text>
<text text-anchor="middle" x="146.5" y="-249" font-family="Helvetica,sans-Serif" font-size="10.00">pack</text>
<text text-anchor="middle" x="146.5" y="-238" font-family="Helvetica,sans-Serif" font-size="10.00">position</text>
<text text-anchor="middle" x="146.5" y="-227" font-family="Helvetica,sans-Serif" font-size="10.00">size</text>
<text text-anchor="start" x="122" y="-216" font-family="Helvetica,sans-Serif" font-size="10.00">time_axis</text>
<text text-anchor="middle" x="146.5" y="-205" font-family="Helvetica,sans-Serif" font-size="10.00">_index</text>
<text text-anchor="middle" x="146.5" y="-194" font-family="Helvetica,sans-Serif" font-size="10.00">type</text>
</g>
<!-- Node7&#45;&gt;Node4 -->
<g id="edge6" class="edge">
<title>Node7&#45;&gt;Node4</title>
<path fill="none" stroke="#9a32cd" stroke-dasharray="5,2" d="M639.75,-546.73C687.59,-545.56 768.76,-540.52 789,-520 822.37,-486.17 789.31,-459.51 803,-414 823.06,-347.33 866.35,-274.55 881.57,-250.07"/>
<polygon fill="#9a32cd" stroke="#9a32cd" points="639.44,-543.23 629.51,-546.93 639.58,-550.23 639.44,-543.23"/>
<text text-anchor="middle" x="814" y="-439" font-family="Helvetica,sans-Serif" font-size="10.00"> len</text>
<text text-anchor="middle" x="814" y="-428" font-family="Helvetica,sans-Serif" font-size="10.00">type</text>
</g>
<!-- Node7&#45;&gt;Node9 -->
<g id="edge21" class="edge">
<title>Node7&#45;&gt;Node9</title>
<path fill="none" stroke="#9a32cd" stroke-dasharray="5,2" d="M600.67,-528.04C595.85,-499.5 587.15,-443.77 584,-396 575.96,-274.07 585.62,-125.22 588.33,-87.84"/>
<polygon fill="#9a32cd" stroke="#9a32cd" points="597.27,-528.93 602.42,-538.19 604.17,-527.74 597.27,-528.93"/>
<text text-anchor="middle" x="598.5" y="-388" font-family="Helvetica,sans-Serif" font-size="10.00"> did</text>
<text text-anchor="middle" x="598.5" y="-377" font-family="Helvetica,sans-Serif" font-size="10.00">id</text>
<text text-anchor="middle" x="598.5" y="-366" font-family="Helvetica,sans-Serif" font-size="10.00">idata</text>
<text text-anchor="middle" x="598.5" y="-355" font-family="Helvetica,sans-Serif" font-size="10.00">len</text>
<text text-anchor="middle" x="598.5" y="-344" font-family="Helvetica,sans-Serif" font-size="10.00">natt</text>
<text text-anchor="middle" x="598.5" y="-333" font-family="Helvetica,sans-Serif" font-size="10.00">sense</text>
<text text-anchor="middle" x="598.5" y="-322" font-family="Helvetica,sans-Serif" font-size="10.00">shift</text>
<text text-anchor="middle" x="598.5" y="-311" font-family="Helvetica,sans-Serif" font-size="10.00">type</text>
</g>
<!-- Node10 -->
<g id="node10" class="node">
<title>Node10</title>
<g id="a_node10"><a xlink:href="group__mpp__domains__mod.html#structmpp__domains__mod_1_1domain1d" target="_top" xlink:title="One dimensional domain used to manage shared data access between pes.">
<polygon fill="white" stroke="black" points="617.5,-231 617.5,-250 682.5,-250 682.5,-231 617.5,-231"/>
<text text-anchor="middle" x="650" y="-238" font-family="Helvetica,sans-Serif" font-size="10.00">domain1d</text>
</a>
</g>
</g>
<!-- Node7&#45;&gt;Node10 -->
<g id="edge15" class="edge">
<title>Node7&#45;&gt;Node10</title>
<path fill="none" stroke="#9a32cd" stroke-dasharray="5,2" d="M604.65,-527.99C605.71,-502.1 608.3,-454.36 614,-414 622.99,-350.39 641.46,-275.06 647.8,-250.05"/>
<polygon fill="#9a32cd" stroke="#9a32cd" points="601.14,-528.12 604.26,-538.24 608.14,-528.38 601.14,-528.12"/>
<text text-anchor="middle" x="632.5" y="-450" font-family="Helvetica,sans-Serif" font-size="10.00"> goffset</text>
<text text-anchor="middle" x="632.5" y="-439" font-family="Helvetica,sans-Serif" font-size="10.00">loffset</text>
<text text-anchor="middle" x="632.5" y="-428" font-family="Helvetica,sans-Serif" font-size="10.00">pe</text>
<text text-anchor="middle" x="632.5" y="-417" font-family="Helvetica,sans-Serif" font-size="10.00">pos</text>
</g>
<!-- Node12 -->
<g id="node12" class="node">
<title>Node12</title>
<g id="a_node12"><a xlink:href="group__mpp__domains__mod.html#structmpp__domains__mod_1_1domain__axis__spec" target="_top" xlink:title="Used to specify index limits along an axis of a domain.">
<polygon fill="white" stroke="black" points="659.5,-426.5 659.5,-445.5 766.5,-445.5 766.5,-426.5 659.5,-426.5"/>
<text text-anchor="middle" x="713" y="-433.5" font-family="Helvetica,sans-Serif" font-size="10.00">domain_axis_spec</text>
</a>
</g>
</g>
<!-- Node7&#45;&gt;Node12 -->
<g id="edge14" class="edge">
<title>Node7&#45;&gt;Node12</title>
<path fill="none" stroke="#9a32cd" stroke-dasharray="5,2" d="M619.65,-531.21C643.01,-507.63 686.22,-464.03 704.49,-445.59"/>
<polygon fill="#9a32cd" stroke="#9a32cd" points="617.11,-528.8 612.55,-538.37 622.08,-533.73 617.11,-528.8"/>
<text text-anchor="middle" x="694.5" y="-512" font-family="Helvetica,sans-Serif" font-size="10.00"> begin</text>
<text text-anchor="middle" x="694.5" y="-501" font-family="Helvetica,sans-Serif" font-size="10.00">end</text>
<text text-anchor="middle" x="694.5" y="-490" font-family="Helvetica,sans-Serif" font-size="10.00">max_size</text>
<text text-anchor="middle" x="694.5" y="-479" font-family="Helvetica,sans-Serif" font-size="10.00">size</text>
</g>
<!-- Node8 -->
<g id="node8" class="node">
<title>Node8</title>
<g id="a_node8"><a xlink:title=" ">
<polygon fill="white" stroke="#bfbfbf" points="910,-421 910,-451 1040,-451 1040,-421 910,-421"/>
<text text-anchor="start" x="918" y="-439" font-family="Helvetica,sans-Serif" font-size="10.00">character(len=max_att</text>
<text text-anchor="middle" x="975" y="-428" font-family="Helvetica,sans-Serif" font-size="10.00">_length)</text>
</a>
</g>
</g>
<!-- Node8&#45;&gt;Node4 -->
<g id="edge7" class="edge">
<title>Node8&#45;&gt;Node4</title>
<path fill="none" stroke="#9a32cd" stroke-dasharray="5,2" d="M926.33,-415.92C918.05,-410.64 910.39,-404.07 905,-396 873.49,-348.85 881.56,-275.09 885.48,-250.11"/>
<polygon fill="#9a32cd" stroke="#9a32cd" points="924.7,-419.02 935.11,-420.97 928.19,-412.96 924.7,-419.02"/>
<text text-anchor="middle" x="916" y="-349.5" font-family="Helvetica,sans-Serif" font-size="10.00"> catt</text>
</g>
<!-- Node9&#45;&gt;Node1 -->
<g id="edge8" class="edge">
<title>Node9&#45;&gt;Node1</title>
<path fill="none" stroke="#9a32cd" stroke-dasharray="5,2" d="M549.55,-68.49C487.4,-55.09 368.06,-29.35 312.63,-17.39"/>
<polygon fill="#9a32cd" stroke="#9a32cd" points="548.87,-71.92 559.38,-70.61 550.34,-65.08 548.87,-71.92"/>
<text text-anchor="middle" x="468" y="-41" font-family="Helvetica,sans-Serif" font-size="10.00"> axes</text>
</g>
<!-- Node10&#45;&gt;Node9 -->
<g id="edge9" class="edge">
<title>Node10&#45;&gt;Node9</title>
<path fill="none" stroke="#9a32cd" stroke-dasharray="5,2" d="M644.38,-221.44C636.18,-195.69 620.06,-147.09 603,-107 600.19,-100.4 596.56,-93.16 593.7,-87.7"/>
<polygon fill="#9a32cd" stroke="#9a32cd" points="641.04,-222.51 647.38,-230.99 647.72,-220.4 641.04,-222.51"/>
<text text-anchor="middle" x="648" y="-137.5" font-family="Helvetica,sans-Serif" font-size="10.00"> domain</text>
</g>
<!-- Node10&#45;&gt;Node10 -->
<g id="edge11" class="edge">
<title>Node10&#45;&gt;Node10</title>
<path fill="none" stroke="#9a32cd" stroke-dasharray="5,2" d="M667.53,-255.88C683.44,-263.43 700.5,-258.3 700.5,-240.5 700.5,-219.41 676.53,-216.11 658.93,-230.61"/>
<polygon fill="#9a32cd" stroke="#9a32cd" points="669.24,-252.82 658.93,-250.39 665.47,-258.72 669.24,-252.82"/>
<text text-anchor="middle" x="710" y="-238" font-family="Helvetica,sans-Serif" font-size="10.00"> list</text>
</g>
<!-- Node11 -->
<g id="node11" class="node">
<title>Node11</title>
<g id="a_node11"><a xlink:title=" ">
<polygon fill="white" stroke="#bfbfbf" points="776.5,-538.5 776.5,-557.5 825.5,-557.5 825.5,-538.5 776.5,-538.5"/>
<text text-anchor="middle" x="801" y="-545.5" font-family="Helvetica,sans-Serif" font-size="10.00">logical</text>
</a>
</g>
</g>
<!-- Node11&#45;&gt;Node10 -->
<g id="edge10" class="edge">
<title>Node11&#45;&gt;Node10</title>
<path fill="none" stroke="#9a32cd" stroke-dasharray="5,2" d="M812.41,-529.72C814.14,-526.58 815.76,-523.26 817,-520 826.97,-493.76 826.32,-485.94 829,-458 835.54,-389.75 842.75,-355.17 793,-308 771.56,-287.67 756.07,-301.84 729,-290 703.64,-278.91 676.7,-260.83 661.74,-250.16"/>
<polygon fill="#9a32cd" stroke="#9a32cd" points="809.34,-528.03 807.14,-538.39 815.33,-531.66 809.34,-528.03"/>
<text text-anchor="middle" x="847.5" y="-433.5" font-family="Helvetica,sans-Serif" font-size="10.00"> cyclic</text>
</g>
<!-- Node11&#45;&gt;Node12 -->
<g id="edge13" class="edge">
<title>Node11&#45;&gt;Node12</title>
<path fill="none" stroke="#9a32cd" stroke-dasharray="5,2" d="M787.62,-530.27C768.6,-506.49 734.43,-463.79 719.87,-445.59"/>
<polygon fill="#9a32cd" stroke="#9a32cd" points="785.11,-532.75 794.09,-538.37 790.58,-528.37 785.11,-532.75"/>
<text text-anchor="middle" x="800.5" y="-495.5" font-family="Helvetica,sans-Serif" font-size="10.00"> is_global</text>
</g>
<!-- Node12&#45;&gt;Node10 -->
<g id="edge12" class="edge">
<title>Node12&#45;&gt;Node10</title>
<path fill="none" stroke="#9a32cd" stroke-dasharray="5,2" d="M695.59,-418.98C689.46,-412.43 683.08,-404.41 679,-396 654.12,-344.67 650.54,-274.18 650.06,-250.02"/>
<polygon fill="#9a32cd" stroke="#9a32cd" points="693.5,-421.83 703.05,-426.42 698.44,-416.88 693.5,-421.83"/>
<text text-anchor="middle" x="702" y="-366" font-family="Helvetica,sans-Serif" font-size="10.00"> compute</text>
<text text-anchor="middle" x="702" y="-355" font-family="Helvetica,sans-Serif" font-size="10.00">data</text>
<text text-anchor="middle" x="702" y="-344" font-family="Helvetica,sans-Serif" font-size="10.00">global</text>
<text text-anchor="middle" x="702" y="-333" font-family="Helvetica,sans-Serif" font-size="10.00">memory</text>
</g>
<!-- Node13 -->
<g id="node13" class="node">
<title>Node13</title>
<g id="a_node13"><a xlink:title=" ">
<polygon fill="white" stroke="#bfbfbf" points="356.5,-231 356.5,-250 455.5,-250 455.5,-231 356.5,-231"/>
<text text-anchor="middle" x="406" y="-238" font-family="Helvetica,sans-Serif" font-size="10.00">character(len=8)</text>
</a>
</g>
</g>
<!-- Node13&#45;&gt;Node9 -->
<g id="edge18" class="edge">
<title>Node13&#45;&gt;Node9</title>
<path fill="none" stroke="#9a32cd" stroke-dasharray="5,2" d="M403.17,-220.61C400.03,-191.84 398.84,-137.2 429,-107 446.88,-89.09 518.35,-82.53 559.47,-80.21"/>
<polygon fill="#9a32cd" stroke="#9a32cd" points="399.75,-221.43 404.5,-230.9 406.69,-220.53 399.75,-221.43"/>
<text text-anchor="middle" x="453.5" y="-137.5" font-family="Helvetica,sans-Serif" font-size="10.00"> cartesian</text>
</g>
<!-- Node14 -->
<g id="node14" class="node">
<title>Node14</title>
<g id="a_node14"><a xlink:title=" ">
<polygon fill="white" stroke="#bfbfbf" points="737.5,-231 737.5,-250 842.5,-250 842.5,-231 737.5,-231"/>
<text text-anchor="middle" x="790" y="-238" font-family="Helvetica,sans-Serif" font-size="10.00">character(len=24)</text>
</a>
</g>
</g>
<!-- Node14&#45;&gt;Node9 -->
<g id="edge22" class="edge">
<title>Node14&#45;&gt;Node9</title>
<path fill="none" stroke="#9a32cd" stroke-dasharray="5,2" d="M779.1,-222.31C760.45,-194.27 719.81,-138.61 672,-107 655.89,-96.35 635.34,-89.37 618.71,-85.05"/>
<polygon fill="#9a32cd" stroke="#9a32cd" points="776.36,-224.53 784.75,-231 782.23,-220.71 776.36,-224.53"/>
<text text-anchor="middle" x="764" y="-137.5" font-family="Helvetica,sans-Serif" font-size="10.00"> calendar</text>
</g>
</g>
</svg>
