<?xml version="1.0" encoding="UTF-8" standalone="no"?>
<!DOCTYPE svg PUBLIC "-//W3C//DTD SVG 1.1//EN"
 "http://www.w3.org/Graphics/SVG/1.1/DTD/svg11.dtd">
<!-- Generated by graphviz version 2.43.0 (0)
 -->
<!-- Title: var_type Pages: 1 -->
<svg width="1212pt" height="1010pt"
 viewBox="0.00 0.00 1212.00 1009.50" xmlns="http://www.w3.org/2000/svg" xmlns:xlink="http://www.w3.org/1999/xlink">
<g id="graph0" class="graph" transform="scale(1 1) rotate(0) translate(4 1005.5)">
<title>var_type</title>
<polygon fill="white" stroke="transparent" points="-4,4 -4,-1005.5 1208,-1005.5 1208,4 -4,4"/>
<!-- Node1 -->
<g id="node1" class="node">
<title>Node1</title>
<g id="a_node1"><a xlink:title=" ">
<polygon fill="#bfbfbf" stroke="black" points="1145,-308 1145,-327 1204,-327 1204,-308 1145,-308"/>
<text text-anchor="middle" x="1174.5" y="-315" font-family="Helvetica,sans-Serif" font-size="10.00">var_type</text>
</a>
</g>
</g>
<!-- Node2 -->
<g id="node2" class="node">
<title>Node2</title>
<g id="a_node2"><a xlink:title=" ">
<polygon fill="white" stroke="#bfbfbf" points="1,-543 1,-562 50,-562 50,-543 1,-543"/>
<text text-anchor="middle" x="25.5" y="-550" font-family="Helvetica,sans-Serif" font-size="10.00">logical</text>
</a>
</g>
</g>
<!-- Node2&#45;&gt;Node1 -->
<g id="edge1" class="edge">
<title>Node2&#45;&gt;Node1</title>
<path fill="none" stroke="#9a32cd" stroke-dasharray="5,2" d="M26.34,-572.39C26.84,-650.97 39.77,-935.5 201,-935.5 201,-935.5 201,-935.5 930.5,-935.5 1018.05,-935.5 1064.91,-983.23 1127,-921.5 1171,-877.75 1173.39,-401.35 1173.5,-327.18"/>
<polygon fill="#9a32cd" stroke="#9a32cd" points="29.84,-572.35 26.34,-562.35 22.84,-572.35 29.84,-572.35"/>
<text text-anchor="middle" x="516.5" y="-993.5" font-family="Helvetica,sans-Serif" font-size="10.00"> mandatory</text>
<text text-anchor="middle" x="516.5" y="-982.5" font-family="Helvetica,sans-Serif" font-size="10.00">is_dimvar</text>
<text text-anchor="middle" x="516.5" y="-971.5" font-family="Helvetica,sans-Serif" font-size="10.00">domain_present</text>
<text text-anchor="middle" x="516.5" y="-960.5" font-family="Helvetica,sans-Serif" font-size="10.00">initialized</text>
<text text-anchor="middle" x="516.5" y="-949.5" font-family="Helvetica,sans-Serif" font-size="10.00">read_only</text>
<text text-anchor="middle" x="516.5" y="-938.5" font-family="Helvetica,sans-Serif" font-size="10.00">owns_data</text>
</g>
<!-- Node13 -->
<g id="node13" class="node">
<title>Node13</title>
<g id="a_node13"><a xlink:href="group__mpp__domains__mod.html#structmpp__domains__mod_1_1domain1d" target="_top" xlink:title="One dimensional domain used to manage shared data access between pes.">
<polygon fill="white" stroke="black" points="371,-461 371,-480 436,-480 436,-461 371,-461"/>
<text text-anchor="middle" x="403.5" y="-468" font-family="Helvetica,sans-Serif" font-size="10.00">domain1d</text>
</a>
</g>
</g>
<!-- Node2&#45;&gt;Node13 -->
<g id="edge13" class="edge">
<title>Node2&#45;&gt;Node13</title>
<path fill="none" stroke="#9a32cd" stroke-dasharray="5,2" d="M60.2,-550.31C78.04,-548.43 100.11,-544.94 119,-538.5 127.66,-535.55 128.29,-531.32 137,-528.5 219.19,-501.91 247.08,-529.72 330,-505.5 350.53,-499.5 372.41,-488.17 386.7,-480.03"/>
<polygon fill="#9a32cd" stroke="#9a32cd" points="59.87,-546.82 50.24,-551.24 60.52,-553.79 59.87,-546.82"/>
<text text-anchor="middle" x="202" y="-531.5" font-family="Helvetica,sans-Serif" font-size="10.00"> cyclic</text>
</g>
<!-- Node14 -->
<g id="node14" class="node">
<title>Node14</title>
<g id="a_node14"><a xlink:href="group__mpp__domains__mod.html#structmpp__domains__mod_1_1domain__axis__spec" target="_top" xlink:title="Used to specify index limits along an axis of a domain.">
<polygon fill="white" stroke="black" points="148.5,-464 148.5,-483 255.5,-483 255.5,-464 148.5,-464"/>
<text text-anchor="middle" x="202" y="-471" font-family="Helvetica,sans-Serif" font-size="10.00">domain_axis_spec</text>
</a>
</g>
</g>
<!-- Node2&#45;&gt;Node14 -->
<g id="edge16" class="edge">
<title>Node2&#45;&gt;Node14</title>
<path fill="none" stroke="#9a32cd" stroke-dasharray="5,2" d="M50.78,-537.56C56.67,-534.12 63,-530.57 69,-527.5 104.15,-509.49 146.74,-492.96 173.85,-483.06"/>
<polygon fill="#9a32cd" stroke="#9a32cd" points="48.8,-534.67 42,-542.8 52.38,-540.68 48.8,-534.67"/>
<text text-anchor="middle" x="94" y="-530.5" font-family="Helvetica,sans-Serif" font-size="10.00"> is_global</text>
</g>
<!-- Node3 -->
<g id="node3" class="node">
<title>Node3</title>
<g id="a_node3"><a xlink:title=" ">
<polygon fill="white" stroke="#bfbfbf" points="862,-888 862,-907 997,-907 997,-888 862,-888"/>
<text text-anchor="middle" x="929.5" y="-895" font-family="Helvetica,sans-Serif" font-size="10.00">type(domainug), pointer</text>
</a>
</g>
</g>
<!-- Node3&#45;&gt;Node1 -->
<g id="edge2" class="edge">
<title>Node3&#45;&gt;Node1</title>
<path fill="none" stroke="#9a32cd" stroke-dasharray="5,2" d="M989.63,-908.11C1033.84,-912.34 1092.39,-909.45 1127,-873.5 1166.47,-832.5 1172.66,-398.25 1173.41,-327.28"/>
<polygon fill="#9a32cd" stroke="#9a32cd" points="989.9,-904.62 979.57,-907 989.13,-911.58 989.9,-904.62"/>
<text text-anchor="middle" x="1071" y="-912.5" font-family="Helvetica,sans-Serif" font-size="10.00"> domain_ug</text>
</g>
<!-- Node4 -->
<g id="node4" class="node">
<title>Node4</title>
<g id="a_node4"><a xlink:href="group__mpp__io__mod.html#structmpp__io__mod_1_1fieldtype" target="_top" xlink:title=" ">
<polygon fill="white" stroke="black" points="900,-611 900,-630 959,-630 959,-611 900,-611"/>
<text text-anchor="middle" x="929.5" y="-618" font-family="Helvetica,sans-Serif" font-size="10.00">fieldtype</text>
</a>
</g>
</g>
<!-- Node4&#45;&gt;Node1 -->
<g id="edge3" class="edge">
<title>Node4&#45;&gt;Node1</title>
<path fill="none" stroke="#9a32cd" stroke-dasharray="5,2" d="M944.77,-602.7C990.34,-545.88 1131.37,-370.03 1165.84,-327.05"/>
<polygon fill="#9a32cd" stroke="#9a32cd" points="941.84,-600.77 938.31,-610.76 947.3,-605.15 941.84,-600.77"/>
<text text-anchor="middle" x="1071" y="-516.5" font-family="Helvetica,sans-Serif" font-size="10.00"> field</text>
</g>
<!-- Node5 -->
<g id="node5" class="node">
<title>Node5</title>
<g id="a_node5"><a xlink:title=" ">
<polygon fill="white" stroke="#bfbfbf" points="574,-588 574,-607 738,-607 738,-588 574,-588"/>
<text text-anchor="middle" x="656" y="-595" font-family="Helvetica,sans-Serif" font-size="10.00">integer(i8_kind), dimension(3)</text>
</a>
</g>
</g>
<!-- Node5&#45;&gt;Node4 -->
<g id="edge4" class="edge">
<title>Node5&#45;&gt;Node4</title>
<path fill="none" stroke="#9a32cd" stroke-dasharray="5,2" d="M748.17,-605.22C801.01,-609.7 863.99,-615.03 899.8,-618.07"/>
<polygon fill="#9a32cd" stroke="#9a32cd" points="748.35,-601.73 738.09,-604.37 747.76,-608.7 748.35,-601.73"/>
<text text-anchor="middle" x="800" y="-615.5" font-family="Helvetica,sans-Serif" font-size="10.00"> checksum</text>
</g>
<!-- Node6 -->
<g id="node6" class="node">
<title>Node6</title>
<g id="a_node6"><a xlink:title=" ">
<polygon fill="white" stroke="#bfbfbf" points="348,-655 348,-674 459,-674 459,-655 348,-655"/>
<text text-anchor="middle" x="403.5" y="-662" font-family="Helvetica,sans-Serif" font-size="10.00">character(len=256)</text>
</a>
</g>
</g>
<!-- Node6&#45;&gt;Node4 -->
<g id="edge5" class="edge">
<title>Node6&#45;&gt;Node4</title>
<path fill="none" stroke="#9a32cd" stroke-dasharray="5,2" d="M469.36,-664.76C496.23,-664.36 527.67,-663.22 556,-660.5 564.07,-659.72 565.96,-658.59 574,-657.5 694.8,-641.14 839.61,-628.05 899.94,-622.88"/>
<polygon fill="#9a32cd" stroke="#9a32cd" points="469.27,-661.26 459.31,-664.88 469.35,-668.26 469.27,-661.26"/>
<text text-anchor="middle" x="656" y="-671.5" font-family="Helvetica,sans-Serif" font-size="10.00"> longname</text>
<text text-anchor="middle" x="656" y="-660.5" font-family="Helvetica,sans-Serif" font-size="10.00">standard_name</text>
</g>
<!-- Node12 -->
<g id="node12" class="node">
<title>Node12</title>
<g id="a_node12"><a xlink:href="group__mpp__io__mod.html#structmpp__io__mod_1_1axistype" target="_top" xlink:title=" ">
<polygon fill="white" stroke="black" points="626.5,-511 626.5,-530 685.5,-530 685.5,-511 626.5,-511"/>
<text text-anchor="middle" x="656" y="-518" font-family="Helvetica,sans-Serif" font-size="10.00">axistype</text>
</a>
</g>
</g>
<!-- Node6&#45;&gt;Node12 -->
<g id="edge19" class="edge">
<title>Node6&#45;&gt;Node12</title>
<path fill="none" stroke="#9a32cd" stroke-dasharray="5,2" d="M445.27,-650.41C450.24,-647.61 454.98,-644.33 459,-640.5 471.95,-628.16 463.26,-615.96 477,-604.5 505.08,-581.08 522.58,-596.34 556,-581.5 588.66,-567 623.48,-543.39 641.87,-530.2"/>
<polygon fill="#9a32cd" stroke="#9a32cd" points="443.57,-647.34 436.16,-654.92 446.68,-653.61 443.57,-647.34"/>
<text text-anchor="middle" x="516.5" y="-618.5" font-family="Helvetica,sans-Serif" font-size="10.00"> longname</text>
<text text-anchor="middle" x="516.5" y="-607.5" font-family="Helvetica,sans-Serif" font-size="10.00">compressed</text>
</g>
<!-- Node7 -->
<g id="node7" class="node">
<title>Node7</title>
<g id="a_node7"><a xlink:href="group__mpp__io__mod.html#structmpp__io__mod_1_1atttype" target="_top" xlink:title=" ">
<polygon fill="white" stroke="black" points="377.5,-693 377.5,-712 429.5,-712 429.5,-693 377.5,-693"/>
<text text-anchor="middle" x="403.5" y="-700" font-family="Helvetica,sans-Serif" font-size="10.00">atttype</text>
</a>
</g>
</g>
<!-- Node7&#45;&gt;Node4 -->
<g id="edge6" class="edge">
<title>Node7&#45;&gt;Node4</title>
<path fill="none" stroke="#9a32cd" stroke-dasharray="5,2" d="M440.15,-702.73C501.54,-702.53 630.9,-699.5 738,-679.5 799.09,-668.09 868.17,-643.68 904,-630.1"/>
<polygon fill="#9a32cd" stroke="#9a32cd" points="439.85,-699.23 429.85,-702.74 439.86,-706.23 439.85,-699.23"/>
<text text-anchor="middle" x="656" y="-700.5" font-family="Helvetica,sans-Serif" font-size="10.00"> att</text>
</g>
<!-- Node7&#45;&gt;Node12 -->
<g id="edge20" class="edge">
<title>Node7&#45;&gt;Node12</title>
<path fill="none" stroke="#9a32cd" stroke-dasharray="5,2" d="M439.15,-691.57C445.83,-689.14 452.71,-686.41 459,-683.5 504.38,-662.5 523.82,-664.77 556,-626.5 570.66,-609.06 560.14,-596.58 574,-578.5 590.52,-556.95 617.24,-540.02 635.44,-530.14"/>
<polygon fill="#9a32cd" stroke="#9a32cd" points="437.89,-688.3 429.59,-694.9 440.19,-694.91 437.89,-688.3"/>
<text text-anchor="middle" x="516.5" y="-677.5" font-family="Helvetica,sans-Serif" font-size="10.00"> att</text>
</g>
<!-- Node8 -->
<g id="node8" class="node">
<title>Node8</title>
<g id="a_node8"><a xlink:title=" ">
<polygon fill="white" stroke="#bfbfbf" points="146.5,-812 146.5,-831 257.5,-831 257.5,-812 146.5,-812"/>
<text text-anchor="middle" x="202" y="-819" font-family="Helvetica,sans-Serif" font-size="10.00">character(len=128)</text>
</a>
</g>
</g>
<!-- Node8&#45;&gt;Node1 -->
<g id="edge33" class="edge">
<title>Node8&#45;&gt;Node1</title>
<path fill="none" stroke="#9a32cd" stroke-dasharray="5,2" d="M252.09,-833.16C262.87,-835.31 274.27,-837.26 285,-838.5 485.86,-861.75 548.37,-866.67 738,-796.5 934.9,-723.64 1018.97,-708.52 1127,-528.5 1168.31,-459.67 1173.05,-358.47 1173.49,-327.12"/>
<polygon fill="#9a32cd" stroke="#9a32cd" points="252.48,-829.67 241.98,-831.06 251.06,-836.52 252.48,-829.67"/>
<text text-anchor="middle" x="656" y="-869.5" font-family="Helvetica,sans-Serif" font-size="10.00"> longname</text>
<text text-anchor="middle" x="656" y="-858.5" font-family="Helvetica,sans-Serif" font-size="10.00">units</text>
<text text-anchor="middle" x="656" y="-847.5" font-family="Helvetica,sans-Serif" font-size="10.00">name</text>
</g>
<!-- Node8&#45;&gt;Node4 -->
<g id="edge26" class="edge">
<title>Node8&#45;&gt;Node4</title>
<path fill="none" stroke="#9a32cd" stroke-dasharray="5,2" d="M267.87,-824.36C339.17,-826.2 456.79,-825.41 556,-806.5 689.1,-781.13 729.5,-778.96 844,-706.5 877.78,-685.12 908.19,-647.77 921.46,-630.18"/>
<polygon fill="#9a32cd" stroke="#9a32cd" points="267.78,-820.85 257.69,-824.07 267.58,-827.85 267.78,-820.85"/>
<text text-anchor="middle" x="516.5" y="-831.5" font-family="Helvetica,sans-Serif" font-size="10.00"> units</text>
<text text-anchor="middle" x="516.5" y="-820.5" font-family="Helvetica,sans-Serif" font-size="10.00">name</text>
</g>
<!-- Node8&#45;&gt;Node7 -->
<g id="edge7" class="edge">
<title>Node8&#45;&gt;Node7</title>
<path fill="none" stroke="#9a32cd" stroke-dasharray="5,2" d="M237.7,-808.1C247.34,-804.05 257.71,-799.37 267,-794.5 315.36,-769.17 367.4,-730.09 390.4,-712.13"/>
<polygon fill="#9a32cd" stroke="#9a32cd" points="236.29,-804.89 228.37,-811.93 238.95,-811.37 236.29,-804.89"/>
<text text-anchor="middle" x="307.5" y="-786.5" font-family="Helvetica,sans-Serif" font-size="10.00"> name</text>
</g>
<!-- Node8&#45;&gt;Node12 -->
<g id="edge22" class="edge">
<title>Node8&#45;&gt;Node12</title>
<path fill="none" stroke="#9a32cd" stroke-dasharray="5,2" d="M250.52,-807.51C256.71,-804.06 262.46,-799.78 267,-794.5 288.22,-769.81 272.86,-753.7 285,-723.5 306.16,-670.87 303.64,-647.85 348,-612.5 370.35,-594.68 554.65,-546.19 626.48,-527.75"/>
<polygon fill="#9a32cd" stroke="#9a32cd" points="248.72,-804.49 241.24,-812 251.77,-810.8 248.72,-804.49"/>
<text text-anchor="middle" x="403.5" y="-637.5" font-family="Helvetica,sans-Serif" font-size="10.00"> units</text>
<text text-anchor="middle" x="403.5" y="-626.5" font-family="Helvetica,sans-Serif" font-size="10.00">name</text>
<text text-anchor="middle" x="403.5" y="-615.5" font-family="Helvetica,sans-Serif" font-size="10.00">name_bounds</text>
</g>
<!-- Node9 -->
<g id="node9" class="node">
<title>Node9</title>
<g id="a_node9"><a xlink:title=" ">
<polygon fill="white" stroke="#bfbfbf" points="184.5,-549 184.5,-568 219.5,-568 219.5,-549 184.5,-549"/>
<text text-anchor="middle" x="202" y="-556" font-family="Helvetica,sans-Serif" font-size="10.00">real</text>
</a>
</g>
</g>
<!-- Node9&#45;&gt;Node1 -->
<g id="edge35" class="edge">
<title>Node9&#45;&gt;Node1</title>
<path fill="none" stroke="#9a32cd" stroke-dasharray="5,2" d="M229.59,-555.64C241.58,-553.52 255.59,-549.85 267,-543.5 301.6,-524.24 313.6,-516.54 330,-480.5 342.08,-453.94 326.67,-238.41 348,-218.5 384.06,-184.83 411.78,-204.2 459,-218.5 468.2,-221.29 467.99,-227.15 477,-230.5 540.67,-254.19 1021.92,-302.62 1144.94,-314.72"/>
<polygon fill="#9a32cd" stroke="#9a32cd" points="229.05,-552.18 219.68,-557.13 230.09,-559.1 229.05,-552.18"/>
<text text-anchor="middle" x="656" y="-284.5" font-family="Helvetica,sans-Serif" font-size="10.00"> default_data</text>
<text text-anchor="middle" x="656" y="-273.5" font-family="Helvetica,sans-Serif" font-size="10.00">buffer</text>
</g>
<!-- Node9&#45;&gt;Node4 -->
<g id="edge28" class="edge">
<title>Node9&#45;&gt;Node4</title>
<path fill="none" stroke="#9a32cd" stroke-dasharray="5,2" d="M229.78,-559.83C242.14,-561.6 256.39,-565.43 267,-573.5 296.84,-596.19 315.75,-702.38 348,-721.5 379.52,-740.18 554.37,-745.88 738,-712.5 786.95,-703.6 799.34,-698.42 844,-676.5 871.33,-663.08 900.31,-642.23 916.23,-630.11"/>
<polygon fill="#9a32cd" stroke="#9a32cd" points="229.86,-556.31 219.54,-558.74 229.12,-563.28 229.86,-556.31"/>
<text text-anchor="middle" x="516.5" y="-794.5" font-family="Helvetica,sans-Serif" font-size="10.00"> fill</text>
<text text-anchor="middle" x="516.5" y="-783.5" font-family="Helvetica,sans-Serif" font-size="10.00">scale</text>
<text text-anchor="middle" x="516.5" y="-772.5" font-family="Helvetica,sans-Serif" font-size="10.00">missing</text>
<text text-anchor="middle" x="516.5" y="-761.5" font-family="Helvetica,sans-Serif" font-size="10.00">add</text>
<text text-anchor="middle" x="516.5" y="-750.5" font-family="Helvetica,sans-Serif" font-size="10.00">min</text>
<text text-anchor="middle" x="516.5" y="-739.5" font-family="Helvetica,sans-Serif" font-size="10.00">max</text>
</g>
<!-- Node9&#45;&gt;Node7 -->
<g id="edge8" class="edge">
<title>Node9&#45;&gt;Node7</title>
<path fill="none" stroke="#9a32cd" stroke-dasharray="5,2" d="M229.85,-554.72C258.67,-552.31 303.84,-553.54 330,-579.5 363.29,-612.55 317.66,-647.72 348,-683.5 355.32,-692.14 366.8,-696.85 377.34,-699.42"/>
<polygon fill="#9a32cd" stroke="#9a32cd" points="229.26,-551.27 219.68,-555.78 229.98,-558.23 229.26,-551.27"/>
<text text-anchor="middle" x="307.5" y="-582.5" font-family="Helvetica,sans-Serif" font-size="10.00"> fatt</text>
</g>
<!-- Node9&#45;&gt;Node12 -->
<g id="edge23" class="edge">
<title>Node9&#45;&gt;Node12</title>
<path fill="none" stroke="#9a32cd" stroke-dasharray="5,2" d="M229.8,-556.25C309.41,-549.55 544.08,-529.83 626.21,-522.92"/>
<polygon fill="#9a32cd" stroke="#9a32cd" points="229.29,-552.78 219.62,-557.1 229.88,-559.75 229.29,-552.78"/>
<text text-anchor="middle" x="403.5" y="-559.5" font-family="Helvetica,sans-Serif" font-size="10.00"> data_bounds</text>
<text text-anchor="middle" x="403.5" y="-548.5" font-family="Helvetica,sans-Serif" font-size="10.00">data</text>
</g>
<!-- Node10 -->
<g id="node10" class="node">
<title>Node10</title>
<g id="a_node10"><a xlink:title=" ">
<polygon fill="white" stroke="#bfbfbf" points="0,-341 0,-360 51,-360 51,-341 0,-341"/>
<text text-anchor="middle" x="25.5" y="-348" font-family="Helvetica,sans-Serif" font-size="10.00">integer</text>
</a>
</g>
</g>
<!-- Node10&#45;&gt;Node1 -->
<g id="edge34" class="edge">
<title>Node10&#45;&gt;Node1</title>
<path fill="none" stroke="#9a32cd" stroke-dasharray="5,2" d="M30.66,-330.64C44.06,-272.8 91.74,-108.5 201,-108.5 201,-108.5 201,-108.5 930.5,-108.5 1054.59,-108.5 1146.88,-267.09 1168.61,-307.98"/>
<polygon fill="#9a32cd" stroke="#9a32cd" points="27.18,-330.19 28.43,-340.71 34.01,-331.71 27.18,-330.19"/>
<text text-anchor="middle" x="516.5" y="-221.5" font-family="Helvetica,sans-Serif" font-size="10.00"> y_halo</text>
<text text-anchor="middle" x="516.5" y="-210.5" font-family="Helvetica,sans-Serif" font-size="10.00">pelist</text>
<text text-anchor="middle" x="516.5" y="-199.5" font-family="Helvetica,sans-Serif" font-size="10.00">x_halo</text>
<text text-anchor="middle" x="516.5" y="-188.5" font-family="Helvetica,sans-Serif" font-size="10.00">jshift</text>
<text text-anchor="middle" x="516.5" y="-177.5" font-family="Helvetica,sans-Serif" font-size="10.00">position</text>
<text text-anchor="middle" x="516.5" y="-166.5" font-family="Helvetica,sans-Serif" font-size="10.00">ishift</text>
<text text-anchor="middle" x="516.5" y="-155.5" font-family="Helvetica,sans-Serif" font-size="10.00">js</text>
<text text-anchor="middle" x="516.5" y="-144.5" font-family="Helvetica,sans-Serif" font-size="10.00">id_axes</text>
<text text-anchor="middle" x="516.5" y="-133.5" font-family="Helvetica,sans-Serif" font-size="10.00">domain_idx</text>
<text text-anchor="middle" x="516.5" y="-122.5" font-family="Helvetica,sans-Serif" font-size="10.00">is</text>
<text text-anchor="middle" x="516.5" y="-111.5" font-family="Helvetica,sans-Serif" font-size="10.00">...</text>
</g>
<!-- Node10&#45;&gt;Node4 -->
<g id="edge27" class="edge">
<title>Node10&#45;&gt;Node4</title>
<path fill="none" stroke="#9a32cd" stroke-dasharray="5,2" d="M40.66,-333.19C48.27,-324.93 58.28,-315.54 69,-309.5 96.24,-294.15 106.54,-298.56 137,-291.5 277.6,-258.93 322.67,-202.14 459,-249.5 682.74,-327.23 880.36,-560.79 920.91,-610.95"/>
<polygon fill="#9a32cd" stroke="#9a32cd" points="37.86,-331.09 33.92,-340.92 43.13,-335.69 37.86,-331.09"/>
<text text-anchor="middle" x="403.5" y="-329.5" font-family="Helvetica,sans-Serif" font-size="10.00"> size</text>
<text text-anchor="middle" x="403.5" y="-318.5" font-family="Helvetica,sans-Serif" font-size="10.00">natt</text>
<text text-anchor="middle" x="403.5" y="-307.5" font-family="Helvetica,sans-Serif" font-size="10.00">time_axis_index</text>
<text text-anchor="middle" x="403.5" y="-296.5" font-family="Helvetica,sans-Serif" font-size="10.00">position</text>
<text text-anchor="middle" x="403.5" y="-285.5" font-family="Helvetica,sans-Serif" font-size="10.00">pack</text>
<text text-anchor="middle" x="403.5" y="-274.5" font-family="Helvetica,sans-Serif" font-size="10.00">ndim</text>
<text text-anchor="middle" x="403.5" y="-263.5" font-family="Helvetica,sans-Serif" font-size="10.00">type</text>
<text text-anchor="middle" x="403.5" y="-252.5" font-family="Helvetica,sans-Serif" font-size="10.00">id</text>
</g>
<!-- Node10&#45;&gt;Node7 -->
<g id="edge9" class="edge">
<title>Node10&#45;&gt;Node7</title>
<path fill="none" stroke="#9a32cd" stroke-dasharray="5,2" d="M28.52,-370.28C32.23,-397.61 42.36,-447.18 69,-479.5 85.2,-499.15 103.46,-487.32 119,-507.5 138.59,-532.96 116.84,-552.49 137,-577.5 200.15,-655.84 323.88,-687.7 377.14,-698.17"/>
<polygon fill="#9a32cd" stroke="#9a32cd" points="31.96,-369.56 27.3,-360.05 25.01,-370.39 31.96,-369.56"/>
<text text-anchor="middle" x="202" y="-678.5" font-family="Helvetica,sans-Serif" font-size="10.00"> type</text>
<text text-anchor="middle" x="202" y="-667.5" font-family="Helvetica,sans-Serif" font-size="10.00">len</text>
</g>
<!-- Node10&#45;&gt;Node12 -->
<g id="edge24" class="edge">
<title>Node10&#45;&gt;Node12</title>
<path fill="none" stroke="#9a32cd" stroke-dasharray="5,2" d="M55.85,-336.72C114.07,-311.63 245.77,-266.3 330,-325.5 349.32,-339.08 331.02,-359.09 348,-375.5 365.46,-392.38 534.57,-431.08 556,-442.5 592.11,-461.74 628.29,-494.49 645.17,-510.75"/>
<polygon fill="#9a32cd" stroke="#9a32cd" points="54.25,-333.6 46.51,-340.84 57.07,-340.01 54.25,-333.6"/>
<text text-anchor="middle" x="307.5" y="-405.5" font-family="Helvetica,sans-Serif" font-size="10.00"> natt</text>
<text text-anchor="middle" x="307.5" y="-394.5" font-family="Helvetica,sans-Serif" font-size="10.00">sense</text>
<text text-anchor="middle" x="307.5" y="-383.5" font-family="Helvetica,sans-Serif" font-size="10.00">did</text>
<text text-anchor="middle" x="307.5" y="-372.5" font-family="Helvetica,sans-Serif" font-size="10.00">shift</text>
<text text-anchor="middle" x="307.5" y="-361.5" font-family="Helvetica,sans-Serif" font-size="10.00">type</text>
<text text-anchor="middle" x="307.5" y="-350.5" font-family="Helvetica,sans-Serif" font-size="10.00">id</text>
<text text-anchor="middle" x="307.5" y="-339.5" font-family="Helvetica,sans-Serif" font-size="10.00">idata</text>
<text text-anchor="middle" x="307.5" y="-328.5" font-family="Helvetica,sans-Serif" font-size="10.00">len</text>
</g>
<!-- Node10&#45;&gt;Node13 -->
<g id="edge18" class="edge">
<title>Node10&#45;&gt;Node13</title>
<path fill="none" stroke="#9a32cd" stroke-dasharray="5,2" d="M61.34,-356.64C108.79,-365.58 195.95,-384.04 267,-410.5 304.81,-424.58 310.87,-435.71 348,-451.5 355.93,-454.87 364.68,-458.12 372.81,-460.95"/>
<polygon fill="#9a32cd" stroke="#9a32cd" points="61.75,-353.16 51.28,-354.78 60.48,-360.04 61.75,-353.16"/>
<text text-anchor="middle" x="202" y="-446.5" font-family="Helvetica,sans-Serif" font-size="10.00"> pe</text>
<text text-anchor="middle" x="202" y="-435.5" font-family="Helvetica,sans-Serif" font-size="10.00">goffset</text>
<text text-anchor="middle" x="202" y="-424.5" font-family="Helvetica,sans-Serif" font-size="10.00">pos</text>
<text text-anchor="middle" x="202" y="-413.5" font-family="Helvetica,sans-Serif" font-size="10.00">loffset</text>
</g>
<!-- Node10&#45;&gt;Node14 -->
<g id="edge17" class="edge">
<title>Node10&#45;&gt;Node14</title>
<path fill="none" stroke="#9a32cd" stroke-dasharray="5,2" d="M35.66,-368.98C43.11,-382.48 54.71,-400.45 69,-412.5 87.7,-428.27 98.1,-422.8 119,-435.5 127.66,-440.76 128.15,-444.55 137,-449.5 147.25,-455.23 159.15,-460.12 169.88,-463.96"/>
<polygon fill="#9a32cd" stroke="#9a32cd" points="38.74,-367.31 30.99,-360.09 32.54,-370.57 38.74,-367.31"/>
<text text-anchor="middle" x="94" y="-471.5" font-family="Helvetica,sans-Serif" font-size="10.00"> max_size</text>
<text text-anchor="middle" x="94" y="-460.5" font-family="Helvetica,sans-Serif" font-size="10.00">size</text>
<text text-anchor="middle" x="94" y="-449.5" font-family="Helvetica,sans-Serif" font-size="10.00">begin</text>
<text text-anchor="middle" x="94" y="-438.5" font-family="Helvetica,sans-Serif" font-size="10.00">end</text>
</g>
<!-- Node11 -->
<g id="node11" class="node">
<title>Node11</title>
<g id="a_node11"><a xlink:title=" ">
<polygon fill="white" stroke="#bfbfbf" points="137,-754.5 137,-784.5 267,-784.5 267,-754.5 137,-754.5"/>
<text text-anchor="start" x="145" y="-772.5" font-family="Helvetica,sans-Serif" font-size="10.00">character(len=max_att</text>
<text text-anchor="middle" x="202" y="-761.5" font-family="Helvetica,sans-Serif" font-size="10.00">_length)</text>
</a>
</g>
</g>
<!-- Node11&#45;&gt;Node7 -->
<g id="edge10" class="edge">
<title>Node11&#45;&gt;Node7</title>
<path fill="none" stroke="#9a32cd" stroke-dasharray="5,2" d="M257.44,-751.22C296.52,-738.09 347.4,-721 377.35,-710.95"/>
<polygon fill="#9a32cd" stroke="#9a32cd" points="256.14,-747.96 247.77,-754.46 258.37,-754.6 256.14,-747.96"/>
<text text-anchor="middle" x="307.5" y="-742.5" font-family="Helvetica,sans-Serif" font-size="10.00"> catt</text>
</g>
<!-- Node12&#45;&gt;Node1 -->
<g id="edge30" class="edge">
<title>Node12&#45;&gt;Node1</title>
<path fill="none" stroke="#9a32cd" stroke-dasharray="5,2" d="M690.3,-507.16C753.52,-481.86 895.29,-425.28 1015,-378.5 1062.1,-360.1 1117.23,-338.97 1148.49,-327.04"/>
<polygon fill="#9a32cd" stroke="#9a32cd" points="688.83,-503.98 680.85,-510.94 691.43,-510.48 688.83,-503.98"/>
<text text-anchor="middle" x="929.5" y="-439.5" font-family="Helvetica,sans-Serif" font-size="10.00"> axis</text>
</g>
<!-- Node12&#45;&gt;Node4 -->
<g id="edge11" class="edge">
<title>Node12&#45;&gt;Node4</title>
<path fill="none" stroke="#9a32cd" stroke-dasharray="5,2" d="M692.44,-533.55C747.84,-553.96 853.65,-592.93 902.55,-610.94"/>
<polygon fill="#9a32cd" stroke="#9a32cd" points="693.63,-530.26 683.03,-530.09 691.21,-536.83 693.63,-530.26"/>
<text text-anchor="middle" x="800" y="-590.5" font-family="Helvetica,sans-Serif" font-size="10.00"> axes</text>
</g>
<!-- Node13&#45;&gt;Node12 -->
<g id="edge12" class="edge">
<title>Node13&#45;&gt;Node12</title>
<path fill="none" stroke="#9a32cd" stroke-dasharray="5,2" d="M446.25,-478.83C497.21,-489.01 582.04,-505.94 626.24,-514.76"/>
<polygon fill="#9a32cd" stroke="#9a32cd" points="446.72,-475.36 436.23,-476.83 445.35,-482.22 446.72,-475.36"/>
<text text-anchor="middle" x="516.5" y="-502.5" font-family="Helvetica,sans-Serif" font-size="10.00"> domain</text>
</g>
<!-- Node13&#45;&gt;Node13 -->
<g id="edge14" class="edge">
<title>Node13&#45;&gt;Node13</title>
<path fill="none" stroke="#9a32cd" stroke-dasharray="5,2" d="M385.72,-489.9C386.91,-494.81 392.84,-498.5 403.5,-498.5 420.56,-498.5 425.49,-489.07 418.3,-480.26"/>
<polygon fill="#9a32cd" stroke="#9a32cd" points="389.09,-490.84 388.7,-480.26 382.41,-488.78 389.09,-490.84"/>
<text text-anchor="middle" x="403.5" y="-501.5" font-family="Helvetica,sans-Serif" font-size="10.00"> list</text>
</g>
<!-- Node14&#45;&gt;Node13 -->
<g id="edge15" class="edge">
<title>Node14&#45;&gt;Node13</title>
<path fill="none" stroke="#9a32cd" stroke-dasharray="5,2" d="M265.88,-463.35C272.33,-462.6 278.78,-461.95 285,-461.5 304.95,-460.05 310.04,-460.27 330,-461.5 343.42,-462.33 358.16,-464.02 370.82,-465.71"/>
<polygon fill="#9a32cd" stroke="#9a32cd" points="265.29,-459.9 255.81,-464.62 266.17,-466.84 265.29,-459.9"/>
<text text-anchor="middle" x="307.5" y="-497.5" font-family="Helvetica,sans-Serif" font-size="10.00"> memory</text>
<text text-anchor="middle" x="307.5" y="-486.5" font-family="Helvetica,sans-Serif" font-size="10.00">global</text>
<text text-anchor="middle" x="307.5" y="-475.5" font-family="Helvetica,sans-Serif" font-size="10.00">compute</text>
<text text-anchor="middle" x="307.5" y="-464.5" font-family="Helvetica,sans-Serif" font-size="10.00">data</text>
</g>
<!-- Node15 -->
<g id="node15" class="node">
<title>Node15</title>
<g id="a_node15"><a xlink:title=" ">
<polygon fill="white" stroke="#bfbfbf" points="354,-347 354,-366 453,-366 453,-347 354,-347"/>
<text text-anchor="middle" x="403.5" y="-354" font-family="Helvetica,sans-Serif" font-size="10.00">character(len=8)</text>
</a>
</g>
</g>
<!-- Node15&#45;&gt;Node1 -->
<g id="edge32" class="edge">
<title>Node15&#45;&gt;Node1</title>
<path fill="none" stroke="#9a32cd" stroke-dasharray="5,2" d="M463.28,-347.02C467.92,-346.45 472.53,-345.93 477,-345.5 735.4,-320.78 1049.76,-317.83 1144.9,-317.52"/>
<polygon fill="#9a32cd" stroke="#9a32cd" points="462.61,-343.58 453.16,-348.36 463.53,-350.52 462.61,-343.58"/>
<text text-anchor="middle" x="800" y="-329.5" font-family="Helvetica,sans-Serif" font-size="10.00"> compressed_axis</text>
</g>
<!-- Node15&#45;&gt;Node12 -->
<g id="edge21" class="edge">
<title>Node15&#45;&gt;Node12</title>
<path fill="none" stroke="#9a32cd" stroke-dasharray="5,2" d="M463.42,-349.88C493.1,-349.32 528.52,-353.1 556,-369.5 612.53,-403.23 642.93,-483.23 652.03,-510.89"/>
<polygon fill="#9a32cd" stroke="#9a32cd" points="463.05,-346.39 453.18,-350.25 463.3,-353.39 463.05,-346.39"/>
<text text-anchor="middle" x="516.5" y="-372.5" font-family="Helvetica,sans-Serif" font-size="10.00"> cartesian</text>
</g>
<!-- Node16 -->
<g id="node16" class="node">
<title>Node16</title>
<g id="a_node16"><a xlink:title=" ">
<polygon fill="white" stroke="#bfbfbf" points="351,-423 351,-442 456,-442 456,-423 351,-423"/>
<text text-anchor="middle" x="403.5" y="-430" font-family="Helvetica,sans-Serif" font-size="10.00">character(len=24)</text>
</a>
</g>
</g>
<!-- Node16&#45;&gt;Node12 -->
<g id="edge25" class="edge">
<title>Node16&#45;&gt;Node12</title>
<path fill="none" stroke="#9a32cd" stroke-dasharray="5,2" d="M466.27,-444.12C494.14,-450.24 527.2,-458.74 556,-469.5 586.79,-481.01 620.34,-499.72 639.41,-511"/>
<polygon fill="#9a32cd" stroke="#9a32cd" points="466.76,-440.65 456.25,-441.97 465.3,-447.49 466.76,-440.65"/>
<text text-anchor="middle" x="516.5" y="-472.5" font-family="Helvetica,sans-Serif" font-size="10.00"> calendar</text>
</g>
<!-- Node17 -->
<g id="node17" class="node">
<title>Node17</title>
<g id="a_node17"><a xlink:title=" ">
<polygon fill="white" stroke="#bfbfbf" points="879,-49.5 879,-79.5 980,-79.5 980,-49.5 879,-49.5"/>
<text text-anchor="start" x="887" y="-67.5" font-family="Helvetica,sans-Serif" font-size="10.00">integer(int_kind),</text>
<text text-anchor="middle" x="929.5" y="-56.5" font-family="Helvetica,sans-Serif" font-size="10.00"> dimension(nidx)</text>
</a>
</g>
</g>
<!-- Node17&#45;&gt;Node1 -->
<g id="edge29" class="edge">
<title>Node17&#45;&gt;Node1</title>
<path fill="none" stroke="#9a32cd" stroke-dasharray="5,2" d="M990.29,-53.12C1033.58,-48.54 1090.65,-50.61 1127,-83.5 1161.09,-114.35 1171.02,-267.67 1173.06,-307.85"/>
<polygon fill="#9a32cd" stroke="#9a32cd" points="989.67,-49.67 980.16,-54.34 990.5,-56.62 989.67,-49.67"/>
<text text-anchor="middle" x="1071" y="-86.5" font-family="Helvetica,sans-Serif" font-size="10.00"> field_dimension_sizes</text>
</g>
<!-- Node18 -->
<g id="node18" class="node">
<title>Node18</title>
<g id="a_node18"><a xlink:title=" ">
<polygon fill="white" stroke="#bfbfbf" points="879,-0.5 879,-30.5 980,-30.5 980,-0.5 879,-0.5"/>
<text text-anchor="start" x="887" y="-18.5" font-family="Helvetica,sans-Serif" font-size="10.00">integer(int_kind),</text>
<text text-anchor="middle" x="929.5" y="-7.5" font-family="Helvetica,sans-Serif" font-size="10.00"> dimension(5)</text>
</a>
</g>
</g>
<!-- Node18&#45;&gt;Node1 -->
<g id="edge31" class="edge">
<title>Node18&#45;&gt;Node1</title>
<path fill="none" stroke="#9a32cd" stroke-dasharray="5,2" d="M990.22,-4.17C1033.75,0.4 1091.14,-1.8 1127,-35.5 1167.68,-73.73 1172.77,-262.6 1173.41,-307.78"/>
<polygon fill="#9a32cd" stroke="#9a32cd" points="989.55,-0.72 980.04,-5.39 990.38,-7.67 989.55,-0.72"/>
<text text-anchor="middle" x="1071" y="-38.5" font-family="Helvetica,sans-Serif" font-size="10.00"> field_dimension_order</text>
</g>
</g>
</svg>
