<?xml version="1.0" encoding="UTF-8" standalone="no"?>
<!DOCTYPE svg PUBLIC "-//W3C//DTD SVG 1.1//EN"
 "http://www.w3.org/Graphics/SVG/1.1/DTD/svg11.dtd">
<!-- Generated by graphviz version 2.43.0 (0)
 -->
<!-- Title: domainug Pages: 1 -->
<!--zoomable 854 -->
<svg id="main" version="1.1" xmlns="http://www.w3.org/2000/svg" xmlns:xlink="http://www.w3.org/1999/xlink" xml:space="preserve" onload="init(evt)">
<style type="text/css"><![CDATA[
.edge:hover path { stroke: red; }
.edge:hover polygon { stroke: red; fill: red; }
]]></style>
<script type="text/javascript"><![CDATA[
var edges = document.getElementsByTagName('g');
if (edges && edges.length) {
  for (var i=0;i<edges.length;i++) {
    if (edges[i].id.substr(0,4)=='edge') {
      edges[i].setAttribute('class','edge');
    }
  }
}
]]></script>
        <defs>
                <circle id="rim" cx="0" cy="0" r="7"/>
                <circle id="rim2" cx="0" cy="0" r="3.5"/>
                <g id="zoomPlus">
                        <use xlink:href="#rim" fill="#404040">
                                <set attributeName="fill" to="#808080" begin="zoomplus.mouseover" end="zoomplus.mouseout"/>
                        </use>
                        <path d="M-4,0h8M0,-4v8" fill="none" stroke="white" stroke-width="1.5" pointer-events="none"/>
                </g>
                <g id="zoomMin">
                        <use xlink:href="#rim" fill="#404040">
                                <set attributeName="fill" to="#808080" begin="zoomminus.mouseover" end="zoomminus.mouseout"/>
                        </use>
                        <path d="M-4,0h8" fill="none" stroke="white" stroke-width="1.5" pointer-events="none"/>
                </g>
                <g id="dirArrow">
                        <path fill="none" stroke="white" stroke-width="1.5" d="M0,-3.0v7 M-2.5,-0.5L0,-3.0L2.5,-0.5"/>
                </g>
               <g id="resetDef">
                       <use xlink:href="#rim2" fill="#404040">
                               <set attributeName="fill" to="#808080" begin="reset.mouseover" end="reset.mouseout"/>
                       </use>
               </g>
        </defs>

<script type="text/javascript">
var viewWidth = 1054;
var viewHeight = 854;
var sectionId = 'dynsection-7';
</script>
<script xlink:href="svgpan.js"/>
<svg id="graph" class="graph">
<g id="viewport">
<title>domainug</title>
<polygon fill="white" stroke="transparent" points="-4,4 -4,-850 1050,-850 1050,4 -4,4"/>
<!-- Node1 -->
<g id="node1" class="node">
<title>Node1</title>
<g id="a_node1"><a xlink:title="Domain information for managing data on unstructured grids.">
<polygon fill="#bfbfbf" stroke="black" points="981,-635.5 981,-654.5 1046,-654.5 1046,-635.5 981,-635.5"/>
<text text-anchor="middle" x="1013.5" y="-642.5" font-family="Helvetica,sans-Serif" font-size="10.00">domainug</text>
</a>
</g>
</g>
<!-- Node1&#45;&gt;Node1 -->
<g id="edge32" class="edge">
<title>Node1&#45;&gt;Node1</title>
<path fill="none" stroke="#9a32cd" stroke-dasharray="5,2" d="M999.14,-664.77C1000.26,-669.5 1005.05,-673 1013.5,-673 1027.36,-673 1031.37,-663.57 1025.52,-654.76"/>
<polygon fill="#9a32cd" stroke="#9a32cd" points="1002.61,-665.29 1001.48,-654.76 995.79,-663.7 1002.61,-665.29"/>
<text text-anchor="middle" x="1013.5" y="-676" font-family="Helvetica,sans-Serif" font-size="10.00"> io_domain</text>
</g>
<!-- Node2 -->
<g id="node2" class="node">
<title>Node2</title>
<g id="a_node2"><a xlink:href="group__mpp__domains__mod.html#structmpp__domains__mod_1_1unstruct__domain__spec" target="_top" xlink:title="Private type for axis specification data for an unstructured domain.">
<polygon fill="white" stroke="black" points="375,-648.5 375,-667.5 501,-667.5 501,-648.5 375,-648.5"/>
<text text-anchor="middle" x="438" y="-655.5" font-family="Helvetica,sans-Serif" font-size="10.00">unstruct_domain_spec</text>
</a>
</g>
</g>
<!-- Node2&#45;&gt;Node1 -->
<g id="edge1" class="edge">
<title>Node2&#45;&gt;Node1</title>
<path fill="none" stroke="#9a32cd" stroke-dasharray="5,2" d="M511.5,-656.36C637.4,-653.5 891.53,-647.74 980.7,-645.72"/>
<polygon fill="#9a32cd" stroke="#9a32cd" points="511.11,-652.86 501.19,-656.59 511.27,-659.86 511.11,-652.86"/>
<text text-anchor="middle" x="759.5" y="-655" font-family="Helvetica,sans-Serif" font-size="10.00"> list</text>
</g>
<!-- Node3 -->
<g id="node3" class="node">
<title>Node3</title>
<g id="a_node3"><a xlink:href="group__mpp__domains__mod.html#structmpp__domains__mod_1_1unstruct__axis__spec" target="_top" xlink:title="Private type for axis specification data for an unstructured grid.">
<polygon fill="white" stroke="black" points="162.5,-646.5 162.5,-665.5 272.5,-665.5 272.5,-646.5 162.5,-646.5"/>
<text text-anchor="middle" x="217.5" y="-653.5" font-family="Helvetica,sans-Serif" font-size="10.00">unstruct_axis_spec</text>
</a>
</g>
</g>
<!-- Node3&#45;&gt;Node1 -->
<g id="edge5" class="edge">
<title>Node3&#45;&gt;Node1</title>
<path fill="none" stroke="#9a32cd" stroke-dasharray="5,2" d="M275.43,-644.46C329.32,-633.93 406.39,-620 437,-620 437,-620 437,-620 842,-620 890.91,-620 946.9,-630.2 980.96,-637.57"/>
<polygon fill="#9a32cd" stroke="#9a32cd" points="274.46,-641.08 265.32,-646.45 275.81,-647.95 274.46,-641.08"/>
<text text-anchor="middle" x="666.5" y="-634" font-family="Helvetica,sans-Serif" font-size="10.00"> compute</text>
<text text-anchor="middle" x="666.5" y="-623" font-family="Helvetica,sans-Serif" font-size="10.00">global</text>
</g>
<!-- Node3&#45;&gt;Node2 -->
<g id="edge2" class="edge">
<title>Node3&#45;&gt;Node2</title>
<path fill="none" stroke="#9a32cd" stroke-dasharray="5,2" d="M282.56,-656.59C311.62,-656.85 345.87,-657.17 374.72,-657.43"/>
<polygon fill="#9a32cd" stroke="#9a32cd" points="282.54,-653.09 272.51,-656.49 282.48,-660.09 282.54,-653.09"/>
<text text-anchor="middle" x="327.5" y="-661" font-family="Helvetica,sans-Serif" font-size="10.00"> compute</text>
</g>
<!-- Node4 -->
<g id="node4" class="node">
<title>Node4</title>
<g id="a_node4"><a xlink:title=" ">
<polygon fill="white" stroke="#bfbfbf" points="0,-493.5 0,-512.5 51,-512.5 51,-493.5 0,-493.5"/>
<text text-anchor="middle" x="25.5" y="-500.5" font-family="Helvetica,sans-Serif" font-size="10.00">integer</text>
</a>
</g>
</g>
<!-- Node4&#45;&gt;Node1 -->
<g id="edge37" class="edge">
<title>Node4&#45;&gt;Node1</title>
<path fill="none" stroke="#9a32cd" stroke-dasharray="5,2" d="M27.94,-523.02C31.59,-567.6 42.85,-672.9 69,-695 112.76,-731.98 269.2,-708 326.5,-708 326.5,-708 326.5,-708 842,-708 902.9,-708 968.88,-672.19 997.67,-654.57"/>
<polygon fill="#9a32cd" stroke="#9a32cd" points="31.41,-522.55 27.15,-512.85 24.43,-523.09 31.41,-522.55"/>
<text text-anchor="middle" x="554.5" y="-788" font-family="Helvetica,sans-Serif" font-size="10.00"> grid_index</text>
<text text-anchor="middle" x="554.5" y="-777" font-family="Helvetica,sans-Serif" font-size="10.00">npes_io_group</text>
<text text-anchor="middle" x="554.5" y="-766" font-family="Helvetica,sans-Serif" font-size="10.00">ntiles</text>
<text text-anchor="middle" x="554.5" y="-755" font-family="Helvetica,sans-Serif" font-size="10.00">pe</text>
<text text-anchor="middle" x="554.5" y="-744" font-family="Helvetica,sans-Serif" font-size="10.00">pos</text>
<text text-anchor="middle" x="554.5" y="-733" font-family="Helvetica,sans-Serif" font-size="10.00">tile_id</text>
<text text-anchor="middle" x="554.5" y="-722" font-family="Helvetica,sans-Serif" font-size="10.00">tile_npes</text>
<text text-anchor="middle" x="554.5" y="-711" font-family="Helvetica,sans-Serif" font-size="10.00">tile_root_pe</text>
</g>
<!-- Node4&#45;&gt;Node2 -->
<g id="edge4" class="edge">
<title>Node4&#45;&gt;Node2</title>
<path fill="none" stroke="#9a32cd" stroke-dasharray="5,2" d="M32.12,-522.29C38.24,-539.6 49.81,-564.2 69,-577 147.64,-629.47 187.93,-582.51 280,-604 328.84,-615.4 383.82,-636.25 414.03,-648.44"/>
<polygon fill="#9a32cd" stroke="#9a32cd" points="35.41,-521.06 29,-512.62 28.75,-523.21 35.41,-521.06"/>
<text text-anchor="middle" x="217.5" y="-629" font-family="Helvetica,sans-Serif" font-size="10.00"> pe</text>
<text text-anchor="middle" x="217.5" y="-618" font-family="Helvetica,sans-Serif" font-size="10.00">pos</text>
<text text-anchor="middle" x="217.5" y="-607" font-family="Helvetica,sans-Serif" font-size="10.00">tile_id</text>
</g>
<!-- Node4&#45;&gt;Node3 -->
<g id="edge3" class="edge">
<title>Node4&#45;&gt;Node3</title>
<path fill="none" stroke="#9a32cd" stroke-dasharray="5,2" d="M29.6,-522.74C34.22,-545.79 45.1,-583.61 69,-606 92.28,-627.81 106.78,-618.76 137,-629 154.12,-634.8 173.31,-641.32 188.54,-646.49"/>
<polygon fill="#9a32cd" stroke="#9a32cd" points="33.02,-521.96 27.8,-512.74 26.13,-523.2 33.02,-521.96"/>
<text text-anchor="middle" x="103" y="-687" font-family="Helvetica,sans-Serif" font-size="10.00"> begin</text>
<text text-anchor="middle" x="103" y="-676" font-family="Helvetica,sans-Serif" font-size="10.00">begin_index</text>
<text text-anchor="middle" x="103" y="-665" font-family="Helvetica,sans-Serif" font-size="10.00">end</text>
<text text-anchor="middle" x="103" y="-654" font-family="Helvetica,sans-Serif" font-size="10.00">end_index</text>
<text text-anchor="middle" x="103" y="-643" font-family="Helvetica,sans-Serif" font-size="10.00">max_size</text>
<text text-anchor="middle" x="103" y="-632" font-family="Helvetica,sans-Serif" font-size="10.00">size</text>
</g>
<!-- Node5 -->
<g id="node5" class="node">
<title>Node5</title>
<g id="a_node5"><a xlink:href="group__mpp__domains__mod.html#structmpp__domains__mod_1_1domain2d" target="_top" xlink:title="The domain2D type contains all the necessary information to define the global, compute and data domai...">
<polygon fill="white" stroke="black" points="808.5,-273.5 808.5,-292.5 873.5,-292.5 873.5,-273.5 808.5,-273.5"/>
<text text-anchor="middle" x="841" y="-280.5" font-family="Helvetica,sans-Serif" font-size="10.00">domain2d</text>
</a>
</g>
</g>
<!-- Node4&#45;&gt;Node5 -->
<g id="edge30" class="edge">
<title>Node4&#45;&gt;Node5</title>
<path fill="none" stroke="#9a32cd" stroke-dasharray="5,2" d="M47.39,-487.51C54.06,-483.05 61.63,-478.45 69,-475 190.09,-418.29 255.68,-475.25 357,-388 371.16,-375.81 359.31,-360.15 375,-350 505.63,-265.49 574.27,-381.56 725,-343 764.71,-332.84 806.08,-306.8 826.68,-292.6"/>
<polygon fill="#9a32cd" stroke="#9a32cd" points="45.15,-484.81 38.95,-493.4 49.15,-490.55 45.15,-484.81"/>
<text text-anchor="middle" x="438" y="-463" font-family="Helvetica,sans-Serif" font-size="10.00"> ehalo</text>
<text text-anchor="middle" x="438" y="-452" font-family="Helvetica,sans-Serif" font-size="10.00">fold</text>
<text text-anchor="middle" x="438" y="-441" font-family="Helvetica,sans-Serif" font-size="10.00">io_layout</text>
<text text-anchor="middle" x="438" y="-430" font-family="Helvetica,sans-Serif" font-size="10.00">max_ntile_pe</text>
<text text-anchor="middle" x="438" y="-419" font-family="Helvetica,sans-Serif" font-size="10.00">ncontacts</text>
<text text-anchor="middle" x="438" y="-408" font-family="Helvetica,sans-Serif" font-size="10.00">nhalo</text>
<text text-anchor="middle" x="438" y="-397" font-family="Helvetica,sans-Serif" font-size="10.00">ntiles</text>
<text text-anchor="middle" x="438" y="-386" font-family="Helvetica,sans-Serif" font-size="10.00">pe</text>
<text text-anchor="middle" x="438" y="-375" font-family="Helvetica,sans-Serif" font-size="10.00">pearray</text>
<text text-anchor="middle" x="438" y="-364" font-family="Helvetica,sans-Serif" font-size="10.00">pos</text>
<text text-anchor="middle" x="438" y="-353" font-family="Helvetica,sans-Serif" font-size="10.00">...</text>
</g>
<!-- Node7 -->
<g id="node7" class="node">
<title>Node7</title>
<g id="a_node7"><a xlink:href="group__mpp__domains__mod.html#structmpp__domains__mod_1_1domain1d" target="_top" xlink:title="One dimensional domain used to manage shared data access between pes.">
<polygon fill="white" stroke="black" points="405.5,-79.5 405.5,-98.5 470.5,-98.5 470.5,-79.5 405.5,-79.5"/>
<text text-anchor="middle" x="438" y="-86.5" font-family="Helvetica,sans-Serif" font-size="10.00">domain1d</text>
</a>
</g>
</g>
<!-- Node4&#45;&gt;Node7 -->
<g id="edge14" class="edge">
<title>Node4&#45;&gt;Node7</title>
<path fill="none" stroke="#9a32cd" stroke-dasharray="5,2" d="M27.26,-483.12C30.3,-408.05 42.78,-144.77 69,-119 92.75,-95.67 320.31,-90.45 405.24,-89.31"/>
<polygon fill="#9a32cd" stroke="#9a32cd" points="23.76,-483.01 26.86,-493.14 30.75,-483.28 23.76,-483.01"/>
<text text-anchor="middle" x="217.5" y="-137" font-family="Helvetica,sans-Serif" font-size="10.00"> goffset</text>
<text text-anchor="middle" x="217.5" y="-126" font-family="Helvetica,sans-Serif" font-size="10.00">loffset</text>
<text text-anchor="middle" x="217.5" y="-115" font-family="Helvetica,sans-Serif" font-size="10.00">pe</text>
<text text-anchor="middle" x="217.5" y="-104" font-family="Helvetica,sans-Serif" font-size="10.00">pos</text>
</g>
<!-- Node8 -->
<g id="node8" class="node">
<title>Node8</title>
<g id="a_node8"><a xlink:href="group__mpp__domains__mod.html#structmpp__domains__mod_1_1domain__axis__spec" target="_top" xlink:title="Used to specify index limits along an axis of a domain.">
<polygon fill="white" stroke="black" points="164,-212.5 164,-231.5 271,-231.5 271,-212.5 164,-212.5"/>
<text text-anchor="middle" x="217.5" y="-219.5" font-family="Helvetica,sans-Serif" font-size="10.00">domain_axis_spec</text>
</a>
</g>
</g>
<!-- Node4&#45;&gt;Node8 -->
<g id="edge13" class="edge">
<title>Node4&#45;&gt;Node8</title>
<path fill="none" stroke="#9a32cd" stroke-dasharray="5,2" d="M28.58,-483.21C33.45,-440.48 46.89,-341.48 69,-317 90.39,-293.32 113.66,-315.75 137,-294 152.16,-279.87 140.68,-265.97 155,-251 163.24,-242.39 174.55,-236.05 185.23,-231.55"/>
<polygon fill="#9a32cd" stroke="#9a32cd" points="25.1,-482.9 27.48,-493.22 32.05,-483.66 25.1,-482.9"/>
<text text-anchor="middle" x="103" y="-353" font-family="Helvetica,sans-Serif" font-size="10.00"> begin</text>
<text text-anchor="middle" x="103" y="-342" font-family="Helvetica,sans-Serif" font-size="10.00">end</text>
<text text-anchor="middle" x="103" y="-331" font-family="Helvetica,sans-Serif" font-size="10.00">max_size</text>
<text text-anchor="middle" x="103" y="-320" font-family="Helvetica,sans-Serif" font-size="10.00">size</text>
</g>
<!-- Node10 -->
<g id="node10" class="node">
<title>Node10</title>
<g id="a_node10"><a xlink:href="group__mpp__domains__mod.html#structmpp__domains__mod_1_1overlapspec" target="_top" xlink:title="Private type for overlap specifications.">
<polygon fill="white" stroke="black" points="400,-198.5 400,-217.5 476,-217.5 476,-198.5 400,-198.5"/>
<text text-anchor="middle" x="438" y="-205.5" font-family="Helvetica,sans-Serif" font-size="10.00">overlapspec</text>
</a>
</g>
</g>
<!-- Node4&#45;&gt;Node10 -->
<g id="edge22" class="edge">
<title>Node4&#45;&gt;Node10</title>
<path fill="none" stroke="#9a32cd" stroke-dasharray="5,2" d="M31.73,-483.69C38.01,-463.21 50.11,-430.73 69,-408 92.48,-379.74 116.19,-391.27 137,-361 156.18,-333.11 129.89,-309.7 155,-287 222.24,-226.22 271.94,-290.3 357,-259 383.74,-249.16 410.87,-229.33 425.66,-217.5"/>
<polygon fill="#9a32cd" stroke="#9a32cd" points="28.33,-482.87 28.91,-493.44 35.05,-484.81 28.33,-482.87"/>
<text text-anchor="middle" x="217.5" y="-400" font-family="Helvetica,sans-Serif" font-size="10.00"> ehalo</text>
<text text-anchor="middle" x="217.5" y="-389" font-family="Helvetica,sans-Serif" font-size="10.00">nhalo</text>
<text text-anchor="middle" x="217.5" y="-378" font-family="Helvetica,sans-Serif" font-size="10.00">nrecv</text>
<text text-anchor="middle" x="217.5" y="-367" font-family="Helvetica,sans-Serif" font-size="10.00">nsend</text>
<text text-anchor="middle" x="217.5" y="-356" font-family="Helvetica,sans-Serif" font-size="10.00">recvsize</text>
<text text-anchor="middle" x="217.5" y="-345" font-family="Helvetica,sans-Serif" font-size="10.00">sendsize</text>
<text text-anchor="middle" x="217.5" y="-334" font-family="Helvetica,sans-Serif" font-size="10.00">shalo</text>
<text text-anchor="middle" x="217.5" y="-323" font-family="Helvetica,sans-Serif" font-size="10.00">whalo</text>
<text text-anchor="middle" x="217.5" y="-312" font-family="Helvetica,sans-Serif" font-size="10.00">xbegin</text>
<text text-anchor="middle" x="217.5" y="-301" font-family="Helvetica,sans-Serif" font-size="10.00">xend</text>
<text text-anchor="middle" x="217.5" y="-290" font-family="Helvetica,sans-Serif" font-size="10.00">...</text>
</g>
<!-- Node11 -->
<g id="node11" class="node">
<title>Node11</title>
<g id="a_node11"><a xlink:href="group__mpp__domains__mod.html#structmpp__domains__mod_1_1overlap__type" target="_top" xlink:title="Type for overlapping data.">
<polygon fill="white" stroke="black" points="177.5,-164.5 177.5,-183.5 257.5,-183.5 257.5,-164.5 177.5,-164.5"/>
<text text-anchor="middle" x="217.5" y="-171.5" font-family="Helvetica,sans-Serif" font-size="10.00">overlap_type</text>
</a>
</g>
</g>
<!-- Node4&#45;&gt;Node11 -->
<g id="edge20" class="edge">
<title>Node4&#45;&gt;Node11</title>
<path fill="none" stroke="#9a32cd" stroke-dasharray="5,2" d="M27.53,-483.07C31.28,-414.29 45.26,-189.91 69,-169 103.22,-138.85 161.17,-153.05 193.3,-164.49"/>
<polygon fill="#9a32cd" stroke="#9a32cd" points="24.02,-483.2 26.98,-493.38 31.01,-483.58 24.02,-483.2"/>
<text text-anchor="middle" x="103" y="-282" font-family="Helvetica,sans-Serif" font-size="10.00"> count</text>
<text text-anchor="middle" x="103" y="-271" font-family="Helvetica,sans-Serif" font-size="10.00">dir</text>
<text text-anchor="middle" x="103" y="-260" font-family="Helvetica,sans-Serif" font-size="10.00">ie</text>
<text text-anchor="middle" x="103" y="-249" font-family="Helvetica,sans-Serif" font-size="10.00">index</text>
<text text-anchor="middle" x="103" y="-238" font-family="Helvetica,sans-Serif" font-size="10.00">is</text>
<text text-anchor="middle" x="103" y="-227" font-family="Helvetica,sans-Serif" font-size="10.00">je</text>
<text text-anchor="middle" x="103" y="-216" font-family="Helvetica,sans-Serif" font-size="10.00">js</text>
<text text-anchor="middle" x="103" y="-205" font-family="Helvetica,sans-Serif" font-size="10.00">msgsize</text>
<text text-anchor="middle" x="103" y="-194" font-family="Helvetica,sans-Serif" font-size="10.00">pe</text>
<text text-anchor="middle" x="103" y="-183" font-family="Helvetica,sans-Serif" font-size="10.00">rotation</text>
<text text-anchor="middle" x="103" y="-172" font-family="Helvetica,sans-Serif" font-size="10.00">...</text>
</g>
<!-- Node12 -->
<g id="node12" class="node">
<title>Node12</title>
<g id="a_node12"><a xlink:href="group__mpp__domains__mod.html#structmpp__domains__mod_1_1domain2d__spec" target="_top" xlink:title="Private type to specify multiple index limits and pe information for a 2D domain.">
<polygon fill="white" stroke="black" points="620,-480.5 620,-499.5 713,-499.5 713,-480.5 620,-480.5"/>
<text text-anchor="middle" x="666.5" y="-487.5" font-family="Helvetica,sans-Serif" font-size="10.00">domain2d_spec</text>
</a>
</g>
</g>
<!-- Node4&#45;&gt;Node12 -->
<g id="edge27" class="edge">
<title>Node4&#45;&gt;Node12</title>
<path fill="none" stroke="#9a32cd" stroke-dasharray="5,2" d="M61.32,-501.59C134.27,-498.87 300.99,-493.91 357,-503 365.32,-504.35 366.7,-507.5 375,-509 438.02,-520.35 454.97,-512.89 519,-514 550.55,-514.55 559.29,-521.25 590,-514 598.71,-511.95 599.63,-508.15 608,-505 613.31,-503 618.99,-501.17 624.65,-499.53"/>
<polygon fill="#9a32cd" stroke="#9a32cd" points="61.12,-498.09 51.27,-501.97 61.39,-505.09 61.12,-498.09"/>
<text text-anchor="middle" x="327.5" y="-539" font-family="Helvetica,sans-Serif" font-size="10.00"> pe</text>
<text text-anchor="middle" x="327.5" y="-528" font-family="Helvetica,sans-Serif" font-size="10.00">pos</text>
<text text-anchor="middle" x="327.5" y="-517" font-family="Helvetica,sans-Serif" font-size="10.00">tile_id</text>
<text text-anchor="middle" x="327.5" y="-506" font-family="Helvetica,sans-Serif" font-size="10.00">tile_root_pe</text>
</g>
<!-- Node13 -->
<g id="node13" class="node">
<title>Node13</title>
<g id="a_node13"><a xlink:href="group__mpp__domains__mod.html#structmpp__domains__mod_1_1domain1d__spec" target="_top" xlink:title="A private type used to specify index limits for a domain decomposition.">
<polygon fill="white" stroke="black" points="391.5,-480.5 391.5,-499.5 484.5,-499.5 484.5,-480.5 391.5,-480.5"/>
<text text-anchor="middle" x="438" y="-487.5" font-family="Helvetica,sans-Serif" font-size="10.00">domain1d_spec</text>
</a>
</g>
</g>
<!-- Node4&#45;&gt;Node13 -->
<g id="edge26" class="edge">
<title>Node4&#45;&gt;Node13</title>
<path fill="none" stroke="#9a32cd" stroke-dasharray="5,2" d="M61.01,-490.88C63.69,-490.17 66.38,-489.53 69,-489 194.47,-463.6 229.15,-478.52 357,-485 368.12,-485.56 380.1,-486.26 391.32,-486.96"/>
<polygon fill="#9a32cd" stroke="#9a32cd" points="60.01,-487.53 51.4,-493.71 61.99,-494.25 60.01,-487.53"/>
<text text-anchor="middle" x="217.5" y="-483" font-family="Helvetica,sans-Serif" font-size="10.00"> pos</text>
</g>
<!-- Node14 -->
<g id="node14" class="node">
<title>Node14</title>
<g id="a_node14"><a xlink:href="group__mpp__domains__mod.html#structmpp__domains__mod_1_1tile__type" target="_top" xlink:title="Upper and lower x and y bounds for a tile.">
<polygon fill="white" stroke="black" points="298,-556.5 298,-575.5 357,-575.5 357,-556.5 298,-556.5"/>
<text text-anchor="middle" x="327.5" y="-563.5" font-family="Helvetica,sans-Serif" font-size="10.00">tile_type</text>
</a>
</g>
</g>
<!-- Node4&#45;&gt;Node14 -->
<g id="edge29" class="edge">
<title>Node4&#45;&gt;Node14</title>
<path fill="none" stroke="#9a32cd" stroke-dasharray="5,2" d="M60.94,-512.08C63.66,-512.75 66.37,-513.4 69,-514 151.67,-533.03 250.14,-551.86 297.81,-560.73"/>
<polygon fill="#9a32cd" stroke="#9a32cd" points="61.72,-508.67 51.17,-509.62 60.01,-515.46 61.72,-508.67"/>
<text text-anchor="middle" x="103" y="-565" font-family="Helvetica,sans-Serif" font-size="10.00"> xbegin</text>
<text text-anchor="middle" x="103" y="-554" font-family="Helvetica,sans-Serif" font-size="10.00">xend</text>
<text text-anchor="middle" x="103" y="-543" font-family="Helvetica,sans-Serif" font-size="10.00">ybegin</text>
<text text-anchor="middle" x="103" y="-532" font-family="Helvetica,sans-Serif" font-size="10.00">yend</text>
</g>
<!-- Node16 -->
<g id="node16" class="node">
<title>Node16</title>
<g id="a_node16"><a xlink:href="group__mpp__domains__mod.html#structmpp__domains__mod_1_1unstruct__pass__type" target="_top" xlink:title="Private type.">
<polygon fill="white" stroke="black" points="382.5,-794.5 382.5,-813.5 493.5,-813.5 493.5,-794.5 382.5,-794.5"/>
<text text-anchor="middle" x="438" y="-801.5" font-family="Helvetica,sans-Serif" font-size="10.00">unstruct_pass_type</text>
</a>
</g>
</g>
<!-- Node4&#45;&gt;Node16 -->
<g id="edge36" class="edge">
<title>Node4&#45;&gt;Node16</title>
<path fill="none" stroke="#9a32cd" stroke-dasharray="5,2" d="M27.54,-522.65C30.53,-571.2 40.81,-694.91 69,-723 136.61,-790.37 186.88,-742.04 280,-763 322.74,-772.62 371.48,-785.68 403.17,-794.45"/>
<polygon fill="#9a32cd" stroke="#9a32cd" points="31.03,-522.29 26.96,-512.51 24.04,-522.7 31.03,-522.29"/>
<text text-anchor="middle" x="217.5" y="-777" font-family="Helvetica,sans-Serif" font-size="10.00"> nrecv</text>
<text text-anchor="middle" x="217.5" y="-766" font-family="Helvetica,sans-Serif" font-size="10.00">nsend</text>
</g>
<!-- Node17 -->
<g id="node17" class="node">
<title>Node17</title>
<g id="a_node17"><a xlink:href="group__mpp__domains__mod.html#structmpp__domains__mod_1_1unstruct__overlap__type" target="_top" xlink:title="Private type.">
<polygon fill="white" stroke="black" points="155,-794.5 155,-813.5 280,-813.5 280,-794.5 155,-794.5"/>
<text text-anchor="middle" x="217.5" y="-801.5" font-family="Helvetica,sans-Serif" font-size="10.00">unstruct_overlap_type</text>
</a>
</g>
</g>
<!-- Node4&#45;&gt;Node17 -->
<g id="edge35" class="edge">
<title>Node4&#45;&gt;Node17</title>
<path fill="none" stroke="#9a32cd" stroke-dasharray="5,2" d="M26.93,-522.8C28.54,-578.05 35.96,-732.19 69,-768 90.63,-791.44 124.76,-800.77 154.75,-804.08"/>
<polygon fill="#9a32cd" stroke="#9a32cd" points="30.42,-522.5 26.67,-512.59 23.43,-522.68 30.42,-522.5"/>
<text text-anchor="middle" x="103" y="-838" font-family="Helvetica,sans-Serif" font-size="10.00"> count</text>
<text text-anchor="middle" x="103" y="-827" font-family="Helvetica,sans-Serif" font-size="10.00">i</text>
<text text-anchor="middle" x="103" y="-816" font-family="Helvetica,sans-Serif" font-size="10.00">j</text>
<text text-anchor="middle" x="103" y="-805" font-family="Helvetica,sans-Serif" font-size="10.00">pe</text>
</g>
<!-- Node5&#45;&gt;Node1 -->
<g id="edge6" class="edge">
<title>Node5&#45;&gt;Node1</title>
<path fill="none" stroke="#9a32cd" stroke-dasharray="5,2" d="M850.91,-301.92C882.03,-367.99 985.18,-587 1008,-635.46"/>
<polygon fill="#9a32cd" stroke="#9a32cd" points="853.99,-300.24 846.56,-292.68 847.66,-303.22 853.99,-300.24"/>
<text text-anchor="middle" x="934.5" y="-542" font-family="Helvetica,sans-Serif" font-size="10.00"> sg_domain</text>
</g>
<!-- Node5&#45;&gt;Node5 -->
<g id="edge16" class="edge">
<title>Node5&#45;&gt;Node5</title>
<path fill="none" stroke="#9a32cd" stroke-dasharray="5,2" d="M826.27,-302.77C827.42,-307.5 832.34,-311 841,-311 855.22,-311 859.33,-301.57 853.33,-292.76"/>
<polygon fill="#9a32cd" stroke="#9a32cd" points="829.74,-303.3 828.67,-292.76 822.93,-301.66 829.74,-303.3"/>
<text text-anchor="middle" x="841" y="-314" font-family="Helvetica,sans-Serif" font-size="10.00"> io_domain</text>
</g>
<!-- Node6 -->
<g id="node6" class="node">
<title>Node6</title>
<g id="a_node6"><a xlink:title=" ">
<polygon fill="white" stroke="#bfbfbf" points="1,-53.5 1,-72.5 50,-72.5 50,-53.5 1,-53.5"/>
<text text-anchor="middle" x="25.5" y="-60.5" font-family="Helvetica,sans-Serif" font-size="10.00">logical</text>
</a>
</g>
</g>
<!-- Node6&#45;&gt;Node5 -->
<g id="edge7" class="edge">
<title>Node6&#45;&gt;Node5</title>
<path fill="none" stroke="#9a32cd" stroke-dasharray="5,2" d="M52.4,-48.52C88.15,-29.92 155.19,0 216.5,0 216.5,0 216.5,0 667.5,0 726.63,0 746.37,-25.83 776,-77 796.92,-113.13 769.15,-230.45 794,-264 797.6,-268.86 802.67,-272.48 808.14,-275.18"/>
<polygon fill="#9a32cd" stroke="#9a32cd" points="50.35,-45.64 43.17,-53.43 53.64,-51.82 50.35,-45.64"/>
<text text-anchor="middle" x="438" y="-25" font-family="Helvetica,sans-Serif" font-size="10.00"> initialized</text>
<text text-anchor="middle" x="438" y="-14" font-family="Helvetica,sans-Serif" font-size="10.00">rotated_ninety</text>
<text text-anchor="middle" x="438" y="-3" font-family="Helvetica,sans-Serif" font-size="10.00">symmetry</text>
</g>
<!-- Node6&#45;&gt;Node7 -->
<g id="edge9" class="edge">
<title>Node6&#45;&gt;Node7</title>
<path fill="none" stroke="#9a32cd" stroke-dasharray="5,2" d="M60.59,-62.69C109.31,-62.51 201.64,-63.1 280,-69 323.57,-72.28 373.58,-79.2 405.22,-83.98"/>
<polygon fill="#9a32cd" stroke="#9a32cd" points="60.29,-59.2 50.31,-62.75 60.32,-66.2 60.29,-59.2"/>
<text text-anchor="middle" x="217.5" y="-72" font-family="Helvetica,sans-Serif" font-size="10.00"> cyclic</text>
</g>
<!-- Node6&#45;&gt;Node8 -->
<g id="edge12" class="edge">
<title>Node6&#45;&gt;Node8</title>
<path fill="none" stroke="#9a32cd" stroke-dasharray="5,2" d="M37.37,-81.37C44.95,-92.76 56.01,-106.91 69,-116 95.14,-134.29 114.49,-116.39 137,-139 154.85,-156.93 138.21,-174.08 155,-193 162.68,-201.65 173.49,-207.93 183.91,-212.38"/>
<polygon fill="#9a32cd" stroke="#9a32cd" points="40.15,-79.21 31.86,-72.62 34.23,-82.94 40.15,-79.21"/>
<text text-anchor="middle" x="103" y="-142" font-family="Helvetica,sans-Serif" font-size="10.00"> is_global</text>
</g>
<!-- Node6&#45;&gt;Node11 -->
<g id="edge19" class="edge">
<title>Node6&#45;&gt;Node11</title>
<path fill="none" stroke="#9a32cd" stroke-dasharray="5,2" d="M60.04,-68.34C84.21,-73.79 116.12,-84.48 137,-105 152.36,-120.1 139.7,-134.83 155,-150 161.35,-156.29 169.54,-160.98 177.86,-164.46"/>
<polygon fill="#9a32cd" stroke="#9a32cd" points="60.71,-64.91 50.21,-66.32 59.3,-71.76 60.71,-64.91"/>
<text text-anchor="middle" x="103" y="-108" font-family="Helvetica,sans-Serif" font-size="10.00"> from_contact</text>
</g>
<!-- Node7&#45;&gt;Node5 -->
<g id="edge8" class="edge">
<title>Node7&#45;&gt;Node5</title>
<path fill="none" stroke="#9a32cd" stroke-dasharray="5,2" d="M476.67,-76.35C533.12,-59.63 641.87,-36.09 725,-71 754.85,-83.53 761.88,-93.87 776,-123 803.55,-179.85 755.61,-213.82 794,-264 797.67,-268.8 802.78,-272.4 808.26,-275.09"/>
<polygon fill="#9a32cd" stroke="#9a32cd" points="475.3,-73.11 466.76,-79.38 477.35,-79.81 475.3,-73.11"/>
<text text-anchor="middle" x="666.5" y="-85" font-family="Helvetica,sans-Serif" font-size="10.00"> x</text>
<text text-anchor="middle" x="666.5" y="-74" font-family="Helvetica,sans-Serif" font-size="10.00">y</text>
</g>
<!-- Node7&#45;&gt;Node7 -->
<g id="edge10" class="edge">
<title>Node7&#45;&gt;Node7</title>
<path fill="none" stroke="#9a32cd" stroke-dasharray="5,2" d="M417.63,-108.4C418.99,-113.31 425.78,-117 438,-117 457.55,-117 463.2,-107.57 454.95,-98.76"/>
<polygon fill="#9a32cd" stroke="#9a32cd" points="421.01,-109.35 421.05,-98.76 414.41,-107.01 421.01,-109.35"/>
<text text-anchor="middle" x="438" y="-120" font-family="Helvetica,sans-Serif" font-size="10.00"> list</text>
</g>
<!-- Node8&#45;&gt;Node7 -->
<g id="edge11" class="edge">
<title>Node8&#45;&gt;Node7</title>
<path fill="none" stroke="#9a32cd" stroke-dasharray="5,2" d="M281.23,-217.72C306.3,-213.72 334.49,-206.17 357,-192 394.94,-168.12 422.05,-119.56 432.38,-98.79"/>
<polygon fill="#9a32cd" stroke="#9a32cd" points="280.47,-214.29 271.07,-219.18 281.46,-221.22 280.47,-214.29"/>
<text text-anchor="middle" x="327.5" y="-251" font-family="Helvetica,sans-Serif" font-size="10.00"> compute</text>
<text text-anchor="middle" x="327.5" y="-240" font-family="Helvetica,sans-Serif" font-size="10.00">data</text>
<text text-anchor="middle" x="327.5" y="-229" font-family="Helvetica,sans-Serif" font-size="10.00">global</text>
<text text-anchor="middle" x="327.5" y="-218" font-family="Helvetica,sans-Serif" font-size="10.00">memory</text>
</g>
<!-- Node8&#45;&gt;Node13 -->
<g id="edge25" class="edge">
<title>Node8&#45;&gt;Node13</title>
<path fill="none" stroke="#9a32cd" stroke-dasharray="5,2" d="M258.52,-235.76C266.33,-239.78 273.96,-244.81 280,-251 289.12,-260.35 365.55,-456.98 375,-466 381.6,-472.3 390.03,-476.99 398.53,-480.47"/>
<polygon fill="#9a32cd" stroke="#9a32cd" points="259.9,-232.55 249.36,-231.5 256.95,-238.89 259.9,-232.55"/>
<text text-anchor="middle" x="327.5" y="-442" font-family="Helvetica,sans-Serif" font-size="10.00"> compute</text>
<text text-anchor="middle" x="327.5" y="-431" font-family="Helvetica,sans-Serif" font-size="10.00">global</text>
</g>
<!-- Node9 -->
<g id="node9" class="node">
<title>Node9</title>
<g id="a_node9"><a xlink:title=" ">
<polygon fill="white" stroke="#bfbfbf" points="619.5,-102.5 619.5,-121.5 713.5,-121.5 713.5,-102.5 619.5,-102.5"/>
<text text-anchor="middle" x="666.5" y="-109.5" font-family="Helvetica,sans-Serif" font-size="10.00">integer(i8_kind)</text>
</a>
</g>
</g>
<!-- Node9&#45;&gt;Node5 -->
<g id="edge15" class="edge">
<title>Node9&#45;&gt;Node5</title>
<path fill="none" stroke="#9a32cd" stroke-dasharray="5,2" d="M723.45,-119.43C742.85,-124.81 762.98,-134.07 776,-150 808.47,-189.71 762.23,-223.73 794,-264 797.75,-268.75 802.88,-272.32 808.37,-275.01"/>
<polygon fill="#9a32cd" stroke="#9a32cd" points="724.27,-116.02 713.72,-117.02 722.58,-122.82 724.27,-116.02"/>
<text text-anchor="middle" x="759.5" y="-153" font-family="Helvetica,sans-Serif" font-size="10.00"> id</text>
</g>
<!-- Node10&#45;&gt;Node5 -->
<g id="edge17" class="edge">
<title>Node10&#45;&gt;Node5</title>
<path fill="none" stroke="#9a32cd" stroke-dasharray="5,2" d="M486.39,-203.31C544.14,-199.17 644.02,-197.14 725,-222 759.32,-232.54 761.98,-247.77 794,-264 800.63,-267.36 807.99,-270.61 814.85,-273.44"/>
<polygon fill="#9a32cd" stroke="#9a32cd" points="485.81,-199.84 476.11,-204.1 486.35,-206.82 485.81,-199.84"/>
<text text-anchor="middle" x="666.5" y="-335" font-family="Helvetica,sans-Serif" font-size="10.00"> bound_c</text>
<text text-anchor="middle" x="666.5" y="-324" font-family="Helvetica,sans-Serif" font-size="10.00">bound_e</text>
<text text-anchor="middle" x="666.5" y="-313" font-family="Helvetica,sans-Serif" font-size="10.00">bound_n</text>
<text text-anchor="middle" x="666.5" y="-302" font-family="Helvetica,sans-Serif" font-size="10.00">check_c</text>
<text text-anchor="middle" x="666.5" y="-291" font-family="Helvetica,sans-Serif" font-size="10.00">check_e</text>
<text text-anchor="middle" x="666.5" y="-280" font-family="Helvetica,sans-Serif" font-size="10.00">check_n</text>
<text text-anchor="middle" x="666.5" y="-269" font-family="Helvetica,sans-Serif" font-size="10.00">update_c</text>
<text text-anchor="middle" x="666.5" y="-258" font-family="Helvetica,sans-Serif" font-size="10.00">update_e</text>
<text text-anchor="middle" x="666.5" y="-247" font-family="Helvetica,sans-Serif" font-size="10.00">update_n</text>
<text text-anchor="middle" x="666.5" y="-236" font-family="Helvetica,sans-Serif" font-size="10.00">update_t</text>
<text text-anchor="middle" x="666.5" y="-225" font-family="Helvetica,sans-Serif" font-size="10.00">...</text>
</g>
<!-- Node10&#45;&gt;Node10 -->
<g id="edge21" class="edge">
<title>Node10&#45;&gt;Node10</title>
<path fill="none" stroke="#9a32cd" stroke-dasharray="5,2" d="M417.63,-227.4C418.99,-232.31 425.78,-236 438,-236 457.55,-236 463.2,-226.57 454.95,-217.76"/>
<polygon fill="#9a32cd" stroke="#9a32cd" points="421.01,-228.35 421.05,-217.76 414.41,-226.01 421.01,-228.35"/>
<text text-anchor="middle" x="438" y="-239" font-family="Helvetica,sans-Serif" font-size="10.00"> next</text>
</g>
<!-- Node11&#45;&gt;Node10 -->
<g id="edge18" class="edge">
<title>Node11&#45;&gt;Node10</title>
<path fill="none" stroke="#9a32cd" stroke-dasharray="5,2" d="M267.76,-166.68C294.48,-164.17 327.89,-163.44 357,-170 381.15,-175.44 406.57,-189.07 422.1,-198.43"/>
<polygon fill="#9a32cd" stroke="#9a32cd" points="267.08,-163.23 257.5,-167.75 267.82,-170.19 267.08,-163.23"/>
<text text-anchor="middle" x="327.5" y="-184" font-family="Helvetica,sans-Serif" font-size="10.00"> recv</text>
<text text-anchor="middle" x="327.5" y="-173" font-family="Helvetica,sans-Serif" font-size="10.00">send</text>
</g>
<!-- Node12&#45;&gt;Node5 -->
<g id="edge23" class="edge">
<title>Node12&#45;&gt;Node5</title>
<path fill="none" stroke="#9a32cd" stroke-dasharray="5,2" d="M684.09,-473.02C705.93,-450.4 745.16,-408.82 776,-371 798.44,-343.47 822.44,-308.92 833.6,-292.5"/>
<polygon fill="#9a32cd" stroke="#9a32cd" points="681.33,-470.84 676.88,-480.45 686.35,-475.71 681.33,-470.84"/>
<text text-anchor="middle" x="759.5" y="-412" font-family="Helvetica,sans-Serif" font-size="10.00"> list</text>
</g>
<!-- Node13&#45;&gt;Node12 -->
<g id="edge24" class="edge">
<title>Node13&#45;&gt;Node12</title>
<path fill="none" stroke="#9a32cd" stroke-dasharray="5,2" d="M495.05,-490C533.41,-490 583.64,-490 619.62,-490"/>
<polygon fill="#9a32cd" stroke="#9a32cd" points="494.56,-486.5 484.56,-490 494.56,-493.5 494.56,-486.5"/>
<text text-anchor="middle" x="554.5" y="-504" font-family="Helvetica,sans-Serif" font-size="10.00"> x</text>
<text text-anchor="middle" x="554.5" y="-493" font-family="Helvetica,sans-Serif" font-size="10.00">y</text>
</g>
<!-- Node14&#45;&gt;Node5 -->
<g id="edge28" class="edge">
<title>Node14&#45;&gt;Node5</title>
<path fill="none" stroke="#9a32cd" stroke-dasharray="5,2" d="M367.19,-571.59C443.63,-580.45 616.05,-589.28 725,-509 802.26,-452.07 831.33,-328.21 838.26,-292.7"/>
<polygon fill="#9a32cd" stroke="#9a32cd" points="367.4,-568.09 357.05,-570.35 366.55,-575.04 367.4,-568.09"/>
<text text-anchor="middle" x="554.5" y="-578" font-family="Helvetica,sans-Serif" font-size="10.00"> tilelist</text>
</g>
<!-- Node15 -->
<g id="node15" class="node">
<title>Node15</title>
<g id="a_node15"><a xlink:title=" ">
<polygon fill="white" stroke="#bfbfbf" points="608,-141 608,-171 725,-171 725,-141 608,-141"/>
<text text-anchor="start" x="616" y="-159" font-family="Helvetica,sans-Serif" font-size="10.00">character(len=name</text>
<text text-anchor="middle" x="666.5" y="-148" font-family="Helvetica,sans-Serif" font-size="10.00">_length)</text>
</a>
</g>
</g>
<!-- Node15&#45;&gt;Node5 -->
<g id="edge31" class="edge">
<title>Node15&#45;&gt;Node5</title>
<path fill="none" stroke="#9a32cd" stroke-dasharray="5,2" d="M735.01,-160.85C750.2,-164.94 765.05,-171.77 776,-183 801.75,-209.4 770.27,-235.77 794,-264 797.78,-268.5 802.8,-271.95 808.13,-274.59"/>
<polygon fill="#9a32cd" stroke="#9a32cd" points="735.55,-157.38 725.01,-158.54 733.97,-164.2 735.55,-157.38"/>
<text text-anchor="middle" x="759.5" y="-186" font-family="Helvetica,sans-Serif" font-size="10.00"> name</text>
</g>
<!-- Node16&#45;&gt;Node1 -->
<g id="edge33" class="edge">
<title>Node16&#45;&gt;Node1</title>
<path fill="none" stroke="#9a32cd" stroke-dasharray="5,2" d="M504.11,-810.67C610.01,-818.09 821.87,-818.33 963,-722 987.81,-705.07 1002.97,-671.17 1009.2,-654.58"/>
<polygon fill="#9a32cd" stroke="#9a32cd" points="504.13,-807.16 493.89,-809.91 503.61,-814.14 504.13,-807.16"/>
<text text-anchor="middle" x="759.5" y="-816" font-family="Helvetica,sans-Serif" font-size="10.00"> sg2ug</text>
<text text-anchor="middle" x="759.5" y="-805" font-family="Helvetica,sans-Serif" font-size="10.00">ug2sg</text>
</g>
<!-- Node17&#45;&gt;Node16 -->
<g id="edge34" class="edge">
<title>Node17&#45;&gt;Node16</title>
<path fill="none" stroke="#9a32cd" stroke-dasharray="5,2" d="M290.24,-804C320.26,-804 354.58,-804 382.48,-804"/>
<polygon fill="#9a32cd" stroke="#9a32cd" points="290.24,-800.5 280.24,-804 290.24,-807.5 290.24,-800.5"/>
<text text-anchor="middle" x="327.5" y="-818" font-family="Helvetica,sans-Serif" font-size="10.00"> recv</text>
<text text-anchor="middle" x="327.5" y="-807" font-family="Helvetica,sans-Serif" font-size="10.00">send</text>
</g>
<!-- Node18 -->
<g id="node18" class="node">
<title>Node18</title>
<g id="a_node18"><a xlink:title=" ">
<polygon fill="white" stroke="#bfbfbf" points="794,-235.5 794,-254.5 888,-254.5 888,-235.5 794,-235.5"/>
<text text-anchor="middle" x="841" y="-242.5" font-family="Helvetica,sans-Serif" font-size="10.00">integer(i4_kind)</text>
</a>
</g>
</g>
<!-- Node18&#45;&gt;Node1 -->
<g id="edge38" class="edge">
<title>Node18&#45;&gt;Node1</title>
<path fill="none" stroke="#9a32cd" stroke-dasharray="5,2" d="M882.47,-259.67C884.43,-261 886.29,-262.44 888,-264 940.79,-312.04 938.86,-338.83 963,-406 993.82,-491.73 1007.79,-602.04 1011.47,-635.17"/>
<polygon fill="#9a32cd" stroke="#9a32cd" points="883.86,-256.43 873.43,-254.52 880.39,-262.51 883.86,-256.43"/>
<text text-anchor="middle" x="934.5" y="-409" font-family="Helvetica,sans-Serif" font-size="10.00"> io_layout</text>
</g>
</g>
</svg>
        <g id="navigator" transform="translate(0 0)" fill="#404254">
                <rect fill="#f2f5e9" fill-opacity="0.5" stroke="#606060" stroke-width=".5" x="0" y="0" width="60" height="60"/>
                <use id="zoomplus" xlink:href="#zoomPlus" x="17" y="9" onmousedown="handleZoom(evt,'in')"/>
                <use id="zoomminus" xlink:href="#zoomMin" x="42" y="9" onmousedown="handleZoom(evt,'out')"/>
                <use id="reset" xlink:href="#resetDef" x="30" y="36" onmousedown="handleReset()"/>
                <g id="arrowUp" xlink:href="#dirArrow" transform="translate(30 24)" onmousedown="handlePan(0,-1)">
                  <use xlink:href="#rim" fill="#404040">
                        <set attributeName="fill" to="#808080" begin="arrowUp.mouseover" end="arrowUp.mouseout"/>
                  </use>
                  <path fill="none" stroke="white" stroke-width="1.5" d="M0,-3.0v7 M-2.5,-0.5L0,-3.0L2.5,-0.5"/>
                </g>
                <g id="arrowRight" xlink:href="#dirArrow" transform="rotate(90) translate(36 -43)" onmousedown="handlePan(1,0)">
                  <use xlink:href="#rim" fill="#404040">
                        <set attributeName="fill" to="#808080" begin="arrowRight.mouseover" end="arrowRight.mouseout"/>
                  </use>
                  <path fill="none" stroke="white" stroke-width="1.5" d="M0,-3.0v7 M-2.5,-0.5L0,-3.0L2.5,-0.5"/>
                </g>
                <g id="arrowDown" xlink:href="#dirArrow" transform="rotate(180) translate(-30 -48)" onmousedown="handlePan(0,1)">
                  <use xlink:href="#rim" fill="#404040">
                        <set attributeName="fill" to="#808080" begin="arrowDown.mouseover" end="arrowDown.mouseout"/>
                  </use>
                  <path fill="none" stroke="white" stroke-width="1.5" d="M0,-3.0v7 M-2.5,-0.5L0,-3.0L2.5,-0.5"/>
                </g>
                <g id="arrowLeft" xlink:href="#dirArrow" transform="rotate(270) translate(-36 17)" onmousedown="handlePan(-1,0)">
                  <use xlink:href="#rim" fill="#404040">
                        <set attributeName="fill" to="#808080" begin="arrowLeft.mouseover" end="arrowLeft.mouseout"/>
                  </use>
                  <path fill="none" stroke="white" stroke-width="1.5" d="M0,-3.0v7 M-2.5,-0.5L0,-3.0L2.5,-0.5"/>
                </g>
        </g>
        <svg viewBox="0 0 15 15" width="100%" height="30px" preserveAspectRatio="xMaxYMin meet">
         <g id="arrow_out" transform="scale(0.3 0.3)">
          <a xlink:href="structmpp__domains__mod_1_1domainug__coll__graph_org.svg" target="_base">
           <rect id="button" ry="5" rx="5" y="6" x="6" height="38" width="38"
                fill="#f2f5e9" fill-opacity="0.5" stroke="#606060" stroke-width="1.0"/>
           <path id="arrow"
             d="M 11.500037,31.436501 C 11.940474,20.09759 22.043105,11.32322 32.158766,21.979434 L 37.068811,17.246167 C 37.068811,17.246167 37.088388,32 37.088388,32 L 22.160133,31.978069 C 22.160133,31.978069 26.997745,27.140456 26.997745,27.140456 C 18.528582,18.264221 13.291696,25.230495 11.500037,31.436501 z"
             style="fill:#404040;"/>
          </a>
         </g>
        </svg>
</svg>
