<?xml version="1.0" encoding="UTF-8" standalone="no"?>
<!DOCTYPE svg PUBLIC "-//W3C//DTD SVG 1.1//EN"
 "http://www.w3.org/Graphics/SVG/1.1/DTD/svg11.dtd">
<!-- Generated by graphviz version 2.43.0 (0)
 -->
<!-- Title: diag_atttype Pages: 1 -->
<svg width="376pt" height="117pt"
 viewBox="0.00 0.00 376.00 117.00" xmlns="http://www.w3.org/2000/svg" xmlns:xlink="http://www.w3.org/1999/xlink">
<g id="graph0" class="graph" transform="scale(1 1) rotate(0) translate(4 113)">
<title>diag_atttype</title>
<polygon fill="white" stroke="transparent" points="-4,4 -4,-113 372,-113 372,4 -4,4"/>
<!-- Node1 -->
<g id="node1" class="node">
<title>Node1</title>
<g id="a_node1"><a xlink:title="Attribute type for diagnostic fields.">
<polygon fill="#bfbfbf" stroke="black" points="196.5,-0.5 196.5,-19.5 274.5,-19.5 274.5,-0.5 196.5,-0.5"/>
<text text-anchor="middle" x="235.5" y="-7.5" font-family="Helvetica,sans-Serif" font-size="10.00">diag_atttype</text>
</a>
</g>
</g>
<!-- Node2 -->
<g id="node2" class="node">
<title>Node2</title>
<g id="a_node2"><a xlink:title=" ">
<polygon fill="white" stroke="#bfbfbf" points="0,-89.5 0,-108.5 117,-108.5 117,-89.5 0,-89.5"/>
<text text-anchor="middle" x="58.5" y="-96.5" font-family="Helvetica,sans-Serif" font-size="10.00">character(len=1280)</text>
</a>
</g>
</g>
<!-- Node2&#45;&gt;Node1 -->
<g id="edge1" class="edge">
<title>Node2&#45;&gt;Node1</title>
<path fill="none" stroke="#9a32cd" stroke-dasharray="5,2" d="M84.46,-84.82C108.71,-72.55 145.96,-53.84 178.5,-38 191.4,-31.72 206.02,-24.8 217.23,-19.53"/>
<polygon fill="#9a32cd" stroke="#9a32cd" points="82.87,-81.7 75.53,-89.34 86.04,-87.95 82.87,-81.7"/>
<text text-anchor="middle" x="189.5" y="-52" font-family="Helvetica,sans-Serif" font-size="10.00"> catt</text>
</g>
<!-- Node3 -->
<g id="node3" class="node">
<title>Node3</title>
<g id="a_node3"><a xlink:title=" ">
<polygon fill="white" stroke="#bfbfbf" points="135,-89.5 135,-108.5 246,-108.5 246,-89.5 135,-89.5"/>
<text text-anchor="middle" x="190.5" y="-96.5" font-family="Helvetica,sans-Serif" font-size="10.00">character(len=128)</text>
</a>
</g>
</g>
<!-- Node3&#45;&gt;Node1 -->
<g id="edge2" class="edge">
<title>Node3&#45;&gt;Node1</title>
<path fill="none" stroke="#9a32cd" stroke-dasharray="5,2" d="M199.69,-80.23C209.24,-61.77 223.77,-33.67 231.04,-19.62"/>
<polygon fill="#9a32cd" stroke="#9a32cd" points="196.46,-78.85 194.98,-89.34 202.68,-82.07 196.46,-78.85"/>
<text text-anchor="middle" x="236" y="-52" font-family="Helvetica,sans-Serif" font-size="10.00"> name</text>
</g>
<!-- Node4 -->
<g id="node4" class="node">
<title>Node4</title>
<g id="a_node4"><a xlink:title=" ">
<polygon fill="white" stroke="#bfbfbf" points="264,-89.5 264,-108.5 299,-108.5 299,-89.5 264,-89.5"/>
<text text-anchor="middle" x="281.5" y="-96.5" font-family="Helvetica,sans-Serif" font-size="10.00">real</text>
</a>
</g>
</g>
<!-- Node4&#45;&gt;Node1 -->
<g id="edge3" class="edge">
<title>Node4&#45;&gt;Node1</title>
<path fill="none" stroke="#9a32cd" stroke-dasharray="5,2" d="M274.82,-79.66C270.08,-67.5 263.22,-51.39 255.5,-38 251.77,-31.53 246.77,-24.78 242.7,-19.65"/>
<polygon fill="#9a32cd" stroke="#9a32cd" points="271.59,-81.03 278.39,-89.15 278.14,-78.56 271.59,-81.03"/>
<text text-anchor="middle" x="281" y="-52" font-family="Helvetica,sans-Serif" font-size="10.00"> fatt</text>
</g>
<!-- Node5 -->
<g id="node5" class="node">
<title>Node5</title>
<g id="a_node5"><a xlink:title=" ">
<polygon fill="white" stroke="#bfbfbf" points="317,-89.5 317,-108.5 368,-108.5 368,-89.5 317,-89.5"/>
<text text-anchor="middle" x="342.5" y="-96.5" font-family="Helvetica,sans-Serif" font-size="10.00">integer</text>
</a>
</g>
</g>
<!-- Node5&#45;&gt;Node1 -->
<g id="edge4" class="edge">
<title>Node5&#45;&gt;Node1</title>
<path fill="none" stroke="#9a32cd" stroke-dasharray="5,2" d="M332.14,-80.57C323.65,-67.47 310.59,-49.82 295.5,-38 285.43,-30.11 272.69,-23.96 261.54,-19.53"/>
<polygon fill="#9a32cd" stroke="#9a32cd" points="329.23,-82.52 337.49,-89.16 335.18,-78.82 329.23,-82.52"/>
<text text-anchor="middle" x="335.5" y="-63" font-family="Helvetica,sans-Serif" font-size="10.00"> iatt</text>
<text text-anchor="middle" x="335.5" y="-52" font-family="Helvetica,sans-Serif" font-size="10.00">len</text>
<text text-anchor="middle" x="335.5" y="-41" font-family="Helvetica,sans-Serif" font-size="10.00">type</text>
</g>
</g>
</svg>
