<?xml version="1.0" encoding="UTF-8" standalone="no"?>
<!DOCTYPE svg PUBLIC "-//W3C//DTD SVG 1.1//EN"
 "http://www.w3.org/Graphics/SVG/1.1/DTD/svg11.dtd">
<!-- Generated by graphviz version 2.43.0 (0)
 -->
<!-- Title: domain1d_spec Pages: 1 -->
<svg width="179pt" height="206pt"
 viewBox="0.00 0.00 178.50 206.00" xmlns="http://www.w3.org/2000/svg" xmlns:xlink="http://www.w3.org/1999/xlink">
<g id="graph0" class="graph" transform="scale(1 1) rotate(0) translate(4 202)">
<title>domain1d_spec</title>
<polygon fill="white" stroke="transparent" points="-4,4 -4,-202 174.5,-202 174.5,4 -4,4"/>
<!-- Node1 -->
<g id="node1" class="node">
<title>Node1</title>
<g id="a_node1"><a xlink:title="A private type used to specify index limits for a domain decomposition.">
<polygon fill="#bfbfbf" stroke="black" points="68,-0.5 68,-19.5 161,-19.5 161,-0.5 68,-0.5"/>
<text text-anchor="middle" x="114.5" y="-7.5" font-family="Helvetica,sans-Serif" font-size="10.00">domain1d_spec</text>
</a>
</g>
</g>
<!-- Node2 -->
<g id="node2" class="node">
<title>Node2</title>
<g id="a_node2"><a xlink:href="group__mpp__domains__mod.html#structmpp__domains__mod_1_1domain__axis__spec" target="_top" xlink:title="Used to specify index limits along an axis of a domain.">
<polygon fill="white" stroke="black" points="16,-78.5 16,-97.5 123,-97.5 123,-78.5 16,-78.5"/>
<text text-anchor="middle" x="69.5" y="-85.5" font-family="Helvetica,sans-Serif" font-size="10.00">domain_axis_spec</text>
</a>
</g>
</g>
<!-- Node2&#45;&gt;Node1 -->
<g id="edge1" class="edge">
<title>Node2&#45;&gt;Node1</title>
<path fill="none" stroke="#9a32cd" stroke-dasharray="5,2" d="M79.82,-69.57C89.07,-53.95 102.24,-31.7 109.4,-19.62"/>
<polygon fill="#9a32cd" stroke="#9a32cd" points="76.75,-67.89 74.66,-78.28 82.77,-71.46 76.75,-67.89"/>
<text text-anchor="middle" x="119" y="-52" font-family="Helvetica,sans-Serif" font-size="10.00"> global</text>
<text text-anchor="middle" x="119" y="-41" font-family="Helvetica,sans-Serif" font-size="10.00">compute</text>
</g>
<!-- Node3 -->
<g id="node3" class="node">
<title>Node3</title>
<g id="a_node3"><a xlink:title=" ">
<polygon fill="white" stroke="#bfbfbf" points="0,-178.5 0,-197.5 49,-197.5 49,-178.5 0,-178.5"/>
<text text-anchor="middle" x="24.5" y="-185.5" font-family="Helvetica,sans-Serif" font-size="10.00">logical</text>
</a>
</g>
</g>
<!-- Node3&#45;&gt;Node2 -->
<g id="edge2" class="edge">
<title>Node3&#45;&gt;Node2</title>
<path fill="none" stroke="#9a32cd" stroke-dasharray="5,2" d="M20.08,-168.29C17.56,-153.17 16.46,-131.88 25.5,-116 30.11,-107.9 38.24,-101.92 46.26,-97.68"/>
<polygon fill="#9a32cd" stroke="#9a32cd" points="16.72,-169.34 22.14,-178.45 23.58,-167.95 16.72,-169.34"/>
<text text-anchor="middle" x="49" y="-135.5" font-family="Helvetica,sans-Serif" font-size="10.00"> is_global</text>
</g>
<!-- Node4 -->
<g id="node4" class="node">
<title>Node4</title>
<g id="a_node4"><a xlink:title=" ">
<polygon fill="white" stroke="#bfbfbf" points="101,-178.5 101,-197.5 152,-197.5 152,-178.5 101,-178.5"/>
<text text-anchor="middle" x="126.5" y="-185.5" font-family="Helvetica,sans-Serif" font-size="10.00">integer</text>
</a>
</g>
</g>
<!-- Node4&#45;&gt;Node1 -->
<g id="edge4" class="edge">
<title>Node4&#45;&gt;Node1</title>
<path fill="none" stroke="#9a32cd" stroke-dasharray="5,2" d="M140.67,-170.11C142.66,-166.93 144.39,-163.49 145.5,-160 150.27,-144.92 151.38,-53.18 144.5,-38 141.09,-30.47 134.45,-24.14 128.28,-19.51"/>
<polygon fill="#9a32cd" stroke="#9a32cd" points="137.78,-168.13 134.73,-178.27 143.45,-172.24 137.78,-168.13"/>
<text text-anchor="middle" x="160" y="-85.5" font-family="Helvetica,sans-Serif" font-size="10.00"> pos</text>
</g>
<!-- Node4&#45;&gt;Node2 -->
<g id="edge3" class="edge">
<title>Node4&#45;&gt;Node2</title>
<path fill="none" stroke="#9a32cd" stroke-dasharray="5,2" d="M106.06,-171.83C102.18,-168.27 98.43,-164.26 95.5,-160 81.66,-139.89 74.21,-111.52 71.16,-97.51"/>
<polygon fill="#9a32cd" stroke="#9a32cd" points="104.05,-174.71 113.97,-178.45 108.54,-169.35 104.05,-174.71"/>
<text text-anchor="middle" x="120.5" y="-152" font-family="Helvetica,sans-Serif" font-size="10.00"> max_size</text>
<text text-anchor="middle" x="120.5" y="-141" font-family="Helvetica,sans-Serif" font-size="10.00">size</text>
<text text-anchor="middle" x="120.5" y="-130" font-family="Helvetica,sans-Serif" font-size="10.00">begin</text>
<text text-anchor="middle" x="120.5" y="-119" font-family="Helvetica,sans-Serif" font-size="10.00">end</text>
</g>
</g>
</svg>
