<?xml version="1.0" encoding="UTF-8" standalone="no"?>
<!DOCTYPE svg PUBLIC "-//W3C//DTD SVG 1.1//EN"
 "http://www.w3.org/Graphics/SVG/1.1/DTD/svg11.dtd">
<!-- Generated by graphviz version 2.43.0 (0)
 -->
<!-- Title: nonblock_type Pages: 1 -->
<svg width="244pt" height="205pt"
 viewBox="0.00 0.00 244.00 205.00" xmlns="http://www.w3.org/2000/svg" xmlns:xlink="http://www.w3.org/1999/xlink">
<g id="graph0" class="graph" transform="scale(1 1) rotate(0) translate(4 201)">
<title>nonblock_type</title>
<polygon fill="white" stroke="transparent" points="-4,4 -4,-201 240,-201 240,4 -4,4"/>
<!-- Node1 -->
<g id="node1" class="node">
<title>Node1</title>
<g id="a_node1"><a xlink:title="Used for nonblocking data transfer.">
<polygon fill="#bfbfbf" stroke="black" points="48,-0.5 48,-19.5 136,-19.5 136,-0.5 48,-0.5"/>
<text text-anchor="middle" x="92" y="-7.5" font-family="Helvetica,sans-Serif" font-size="10.00">nonblock_type</text>
</a>
</g>
</g>
<!-- Node2 -->
<g id="node2" class="node">
<title>Node2</title>
<g id="a_node2"><a xlink:title=" ">
<polygon fill="white" stroke="#bfbfbf" points="0,-177.5 0,-196.5 94,-196.5 94,-177.5 0,-177.5"/>
<text text-anchor="middle" x="47" y="-184.5" font-family="Helvetica,sans-Serif" font-size="10.00">integer(i8_kind)</text>
</a>
</g>
</g>
<!-- Node2&#45;&gt;Node1 -->
<g id="edge1" class="edge">
<title>Node2&#45;&gt;Node1</title>
<path fill="none" stroke="#9a32cd" stroke-dasharray="5,2" d="M43.38,-167.18C38.7,-137.68 33.59,-79.62 56,-38 60.15,-30.3 67.56,-24.17 74.58,-19.71"/>
<polygon fill="#9a32cd" stroke="#9a32cd" points="39.98,-168.07 45.15,-177.31 46.87,-166.86 39.98,-168.07"/>
<text text-anchor="middle" x="86" y="-101.5" font-family="Helvetica,sans-Serif" font-size="10.00"> field_addrs</text>
<text text-anchor="middle" x="86" y="-90.5" font-family="Helvetica,sans-Serif" font-size="10.00">field_addrs2</text>
</g>
<!-- Node3 -->
<g id="node3" class="node">
<title>Node3</title>
<g id="a_node3"><a xlink:title=" ">
<polygon fill="white" stroke="#bfbfbf" points="112.5,-177.5 112.5,-196.5 163.5,-196.5 163.5,-177.5 112.5,-177.5"/>
<text text-anchor="middle" x="138" y="-184.5" font-family="Helvetica,sans-Serif" font-size="10.00">integer</text>
</a>
</g>
</g>
<!-- Node3&#45;&gt;Node1 -->
<g id="edge2" class="edge">
<title>Node3&#45;&gt;Node1</title>
<path fill="none" stroke="#9a32cd" stroke-dasharray="5,2" d="M138.56,-167.14C138.71,-138.03 136.1,-81.01 116,-38 112.71,-30.95 106.97,-24.4 101.94,-19.51"/>
<polygon fill="#9a32cd" stroke="#9a32cd" points="135.06,-167.11 138.39,-177.16 142.06,-167.22 135.06,-167.11"/>
<text text-anchor="middle" x="187" y="-151" font-family="Helvetica,sans-Serif" font-size="10.00"> buffer_pos_recv</text>
<text text-anchor="middle" x="187" y="-140" font-family="Helvetica,sans-Serif" font-size="10.00">buffer_pos_send</text>
<text text-anchor="middle" x="187" y="-129" font-family="Helvetica,sans-Serif" font-size="10.00">nfields</text>
<text text-anchor="middle" x="187" y="-118" font-family="Helvetica,sans-Serif" font-size="10.00">recv_msgsize</text>
<text text-anchor="middle" x="187" y="-107" font-family="Helvetica,sans-Serif" font-size="10.00">recv_pos</text>
<text text-anchor="middle" x="187" y="-96" font-family="Helvetica,sans-Serif" font-size="10.00">request_recv</text>
<text text-anchor="middle" x="187" y="-85" font-family="Helvetica,sans-Serif" font-size="10.00">request_recv_count</text>
<text text-anchor="middle" x="187" y="-74" font-family="Helvetica,sans-Serif" font-size="10.00">request_send</text>
<text text-anchor="middle" x="187" y="-63" font-family="Helvetica,sans-Serif" font-size="10.00">request_send_count</text>
<text text-anchor="middle" x="187" y="-52" font-family="Helvetica,sans-Serif" font-size="10.00">send_msgsize</text>
<text text-anchor="middle" x="187" y="-41" font-family="Helvetica,sans-Serif" font-size="10.00">...</text>
</g>
</g>
</svg>
