<?xml version="1.0" encoding="UTF-8" standalone="no"?>
<!DOCTYPE svg PUBLIC "-//W3C//DTD SVG 1.1//EN"
 "http://www.w3.org/Graphics/SVG/1.1/DTD/svg11.dtd">
<!-- Generated by graphviz version 2.43.0 (0)
 -->
<!-- Title: unstruct_pass_type Pages: 1 -->
<svg width="202pt" height="208pt"
 viewBox="0.00 0.00 202.00 208.00" xmlns="http://www.w3.org/2000/svg" xmlns:xlink="http://www.w3.org/1999/xlink">
<g id="graph0" class="graph" transform="scale(1 1) rotate(0) translate(4 204)">
<title>unstruct_pass_type</title>
<polygon fill="white" stroke="transparent" points="-4,4 -4,-204 198,-204 198,4 -4,4"/>
<!-- Node1 -->
<g id="node1" class="node">
<title>Node1</title>
<g id="a_node1"><a xlink:title="Private type.">
<polygon fill="#bfbfbf" stroke="black" points="0,-0.5 0,-19.5 111,-19.5 111,-0.5 0,-0.5"/>
<text text-anchor="middle" x="55.5" y="-7.5" font-family="Helvetica,sans-Serif" font-size="10.00">unstruct_pass_type</text>
</a>
</g>
</g>
<!-- Node2 -->
<g id="node2" class="node">
<title>Node2</title>
<g id="a_node2"><a xlink:href="group__mpp__domains__mod.html#structmpp__domains__mod_1_1unstruct__overlap__type" target="_top" xlink:title="Private type.">
<polygon fill="white" stroke="black" points="69,-79.5 69,-98.5 194,-98.5 194,-79.5 69,-79.5"/>
<text text-anchor="middle" x="131.5" y="-86.5" font-family="Helvetica,sans-Serif" font-size="10.00">unstruct_overlap_type</text>
</a>
</g>
</g>
<!-- Node2&#45;&gt;Node1 -->
<g id="edge1" class="edge">
<title>Node2&#45;&gt;Node1</title>
<path fill="none" stroke="#9a32cd" stroke-dasharray="5,2" d="M115.71,-72C100.08,-56.16 76.73,-32.51 64.2,-19.81"/>
<polygon fill="#9a32cd" stroke="#9a32cd" points="113.56,-74.81 123.08,-79.47 118.54,-69.89 113.56,-74.81"/>
<text text-anchor="middle" x="115" y="-52" font-family="Helvetica,sans-Serif" font-size="10.00"> recv</text>
<text text-anchor="middle" x="115" y="-41" font-family="Helvetica,sans-Serif" font-size="10.00">send</text>
</g>
<!-- Node3 -->
<g id="node3" class="node">
<title>Node3</title>
<g id="a_node3"><a xlink:title=" ">
<polygon fill="white" stroke="#bfbfbf" points="10,-180.5 10,-199.5 61,-199.5 61,-180.5 10,-180.5"/>
<text text-anchor="middle" x="35.5" y="-187.5" font-family="Helvetica,sans-Serif" font-size="10.00">integer</text>
</a>
</g>
</g>
<!-- Node3&#45;&gt;Node1 -->
<g id="edge3" class="edge">
<title>Node3&#45;&gt;Node1</title>
<path fill="none" stroke="#9a32cd" stroke-dasharray="5,2" d="M31.79,-170.21C28.01,-147.99 23.51,-109.98 29.5,-78 33.59,-56.17 44.56,-32.31 50.87,-19.79"/>
<polygon fill="#9a32cd" stroke="#9a32cd" points="28.39,-171.07 33.63,-180.27 35.27,-169.81 28.39,-171.07"/>
<text text-anchor="middle" x="45" y="-92" font-family="Helvetica,sans-Serif" font-size="10.00"> nrecv</text>
<text text-anchor="middle" x="45" y="-81" font-family="Helvetica,sans-Serif" font-size="10.00">nsend</text>
</g>
<!-- Node3&#45;&gt;Node2 -->
<g id="edge2" class="edge">
<title>Node3&#45;&gt;Node2</title>
<path fill="none" stroke="#9a32cd" stroke-dasharray="5,2" d="M51.1,-172.92C71.65,-151.72 107.07,-115.2 123.14,-98.62"/>
<polygon fill="#9a32cd" stroke="#9a32cd" points="48.47,-170.6 44.02,-180.21 53.49,-175.47 48.47,-170.6"/>
<text text-anchor="middle" x="118" y="-154" font-family="Helvetica,sans-Serif" font-size="10.00"> count</text>
<text text-anchor="middle" x="118" y="-143" font-family="Helvetica,sans-Serif" font-size="10.00">i</text>
<text text-anchor="middle" x="118" y="-132" font-family="Helvetica,sans-Serif" font-size="10.00">j</text>
<text text-anchor="middle" x="118" y="-121" font-family="Helvetica,sans-Serif" font-size="10.00">pe</text>
</g>
</g>
</svg>
