<?xml version="1.0" encoding="UTF-8" standalone="no"?>
<!DOCTYPE svg PUBLIC "-//W3C//DTD SVG 1.1//EN"
 "http://www.w3.org/Graphics/SVG/1.1/DTD/svg11.dtd">
<!-- Generated by graphviz version 2.43.0 (0)
 -->
<!-- Title: nestspec Pages: 1 -->
<svg width="325pt" height="418pt"
 viewBox="0.00 0.00 325.00 417.55" xmlns="http://www.w3.org/2000/svg" xmlns:xlink="http://www.w3.org/1999/xlink">
<g id="graph0" class="graph" transform="scale(1 1) rotate(0) translate(4 413.55)">
<title>nestspec</title>
<polygon fill="white" stroke="transparent" points="-4,4 -4,-413.55 321,-413.55 321,4 -4,4"/>
<!-- Node1 -->
<g id="node1" class="node">
<title>Node1</title>
<g id="a_node1"><a xlink:title="Used to specify bounds and index information for nested tiles as a linked list.">
<polygon fill="#bfbfbf" stroke="black" points="142.5,-1.05 142.5,-20.05 202.5,-20.05 202.5,-1.05 142.5,-1.05"/>
<text text-anchor="middle" x="172.5" y="-8.05" font-family="Helvetica,sans-Serif" font-size="10.00">nestspec</text>
</a>
</g>
</g>
<!-- Node1&#45;&gt;Node1 -->
<g id="edge6" class="edge">
<title>Node1&#45;&gt;Node1</title>
<path fill="none" stroke="#9a32cd" stroke-dasharray="5,2" d="M205.25,-20.58C213.93,-20.01 220.5,-16.66 220.5,-10.55 220.5,-2.21 208.31,0.98 195.22,-0.98"/>
<polygon fill="#9a32cd" stroke="#9a32cd" points="205.37,-17.08 195.22,-20.11 205.04,-24.08 205.37,-17.08"/>
<text text-anchor="middle" x="233" y="-8.05" font-family="Helvetica,sans-Serif" font-size="10.00"> next</text>
</g>
<!-- Node2 -->
<g id="node2" class="node">
<title>Node2</title>
<g id="a_node2"><a xlink:href="group__mpp__domains__mod.html#structmpp__domains__mod_1_1overlap__type" target="_top" xlink:title="Type for overlapping data.">
<polygon fill="white" stroke="black" points="56.5,-162.55 56.5,-181.55 136.5,-181.55 136.5,-162.55 56.5,-162.55"/>
<text text-anchor="middle" x="96.5" y="-169.55" font-family="Helvetica,sans-Serif" font-size="10.00">overlap_type</text>
</a>
</g>
</g>
<!-- Node2&#45;&gt;Node1 -->
<g id="edge1" class="edge">
<title>Node2&#45;&gt;Node1</title>
<path fill="none" stroke="#9a32cd" stroke-dasharray="5,2" d="M97.74,-152.32C100.38,-124.99 108.53,-73.61 133.5,-38.55 138.95,-30.9 147.27,-24.71 154.84,-20.19"/>
<polygon fill="#9a32cd" stroke="#9a32cd" points="94.24,-152.19 96.92,-162.44 101.22,-152.76 94.24,-152.19"/>
<text text-anchor="middle" x="146" y="-69.05" font-family="Helvetica,sans-Serif" font-size="10.00"> recv</text>
<text text-anchor="middle" x="146" y="-58.05" font-family="Helvetica,sans-Serif" font-size="10.00">send</text>
</g>
<!-- Node3 -->
<g id="node3" class="node">
<title>Node3</title>
<g id="a_node3"><a xlink:title=" ">
<polygon fill="white" stroke="#bfbfbf" points="0,-390.05 0,-409.05 49,-409.05 49,-390.05 0,-390.05"/>
<text text-anchor="middle" x="24.5" y="-397.05" font-family="Helvetica,sans-Serif" font-size="10.00">logical</text>
</a>
</g>
</g>
<!-- Node3&#45;&gt;Node2 -->
<g id="edge2" class="edge">
<title>Node3&#45;&gt;Node2</title>
<path fill="none" stroke="#9a32cd" stroke-dasharray="5,2" d="M20.48,-379.86C15.17,-350.97 8.34,-294.25 25.5,-250.55 37.44,-220.14 67.39,-194.37 84.33,-181.61"/>
<polygon fill="#9a32cd" stroke="#9a32cd" points="17.07,-380.67 22.46,-389.8 23.94,-379.3 17.07,-380.67"/>
<text text-anchor="middle" x="59.5" y="-308.55" font-family="Helvetica,sans-Serif" font-size="10.00"> from_contact</text>
</g>
<!-- Node4 -->
<g id="node4" class="node">
<title>Node4</title>
<g id="a_node4"><a xlink:title=" ">
<polygon fill="white" stroke="#bfbfbf" points="147,-390.05 147,-409.05 198,-409.05 198,-390.05 147,-390.05"/>
<text text-anchor="middle" x="172.5" y="-397.05" font-family="Helvetica,sans-Serif" font-size="10.00">integer</text>
</a>
</g>
</g>
<!-- Node4&#45;&gt;Node1 -->
<g id="edge7" class="edge">
<title>Node4&#45;&gt;Node1</title>
<path fill="none" stroke="#9a32cd" stroke-dasharray="5,2" d="M172.5,-379.36C172.5,-309.29 172.5,-68.84 172.5,-20.17"/>
<polygon fill="#9a32cd" stroke="#9a32cd" points="169,-379.74 172.5,-389.74 176,-379.74 169,-379.74"/>
<text text-anchor="middle" x="200" y="-224.55" font-family="Helvetica,sans-Serif" font-size="10.00"> extra_halo</text>
<text text-anchor="middle" x="200" y="-213.55" font-family="Helvetica,sans-Serif" font-size="10.00">nsend</text>
<text text-anchor="middle" x="200" y="-202.55" font-family="Helvetica,sans-Serif" font-size="10.00">xsize_c</text>
<text text-anchor="middle" x="200" y="-191.55" font-family="Helvetica,sans-Serif" font-size="10.00">ybegin</text>
<text text-anchor="middle" x="200" y="-180.55" font-family="Helvetica,sans-Serif" font-size="10.00">xbegin</text>
<text text-anchor="middle" x="200" y="-169.55" font-family="Helvetica,sans-Serif" font-size="10.00">yend</text>
<text text-anchor="middle" x="200" y="-158.55" font-family="Helvetica,sans-Serif" font-size="10.00">xend</text>
<text text-anchor="middle" x="200" y="-147.55" font-family="Helvetica,sans-Serif" font-size="10.00">yend_c</text>
<text text-anchor="middle" x="200" y="-136.55" font-family="Helvetica,sans-Serif" font-size="10.00">xbegin_c</text>
<text text-anchor="middle" x="200" y="-125.55" font-family="Helvetica,sans-Serif" font-size="10.00">ysize_c</text>
<text text-anchor="middle" x="200" y="-114.55" font-family="Helvetica,sans-Serif" font-size="10.00">...</text>
</g>
<!-- Node4&#45;&gt;Node2 -->
<g id="edge3" class="edge">
<title>Node4&#45;&gt;Node2</title>
<path fill="none" stroke="#9a32cd" stroke-dasharray="5,2" d="M137.28,-388.22C129.27,-384.26 121.62,-378.85 116.5,-371.55 94.64,-340.34 95.58,-216.17 96.28,-181.87"/>
<polygon fill="#9a32cd" stroke="#9a32cd" points="136.16,-391.55 146.73,-392.25 138.9,-385.11 136.16,-391.55"/>
<text text-anchor="middle" x="137.5" y="-363.55" font-family="Helvetica,sans-Serif" font-size="10.00"> rotation</text>
<text text-anchor="middle" x="137.5" y="-352.55" font-family="Helvetica,sans-Serif" font-size="10.00">totsize</text>
<text text-anchor="middle" x="137.5" y="-341.55" font-family="Helvetica,sans-Serif" font-size="10.00">pe</text>
<text text-anchor="middle" x="137.5" y="-330.55" font-family="Helvetica,sans-Serif" font-size="10.00">dir</text>
<text text-anchor="middle" x="137.5" y="-319.55" font-family="Helvetica,sans-Serif" font-size="10.00">tileme</text>
<text text-anchor="middle" x="137.5" y="-308.55" font-family="Helvetica,sans-Serif" font-size="10.00">js</text>
<text text-anchor="middle" x="137.5" y="-297.55" font-family="Helvetica,sans-Serif" font-size="10.00">count</text>
<text text-anchor="middle" x="137.5" y="-286.55" font-family="Helvetica,sans-Serif" font-size="10.00">is</text>
<text text-anchor="middle" x="137.5" y="-275.55" font-family="Helvetica,sans-Serif" font-size="10.00">tilenbr</text>
<text text-anchor="middle" x="137.5" y="-264.55" font-family="Helvetica,sans-Serif" font-size="10.00">index</text>
<text text-anchor="middle" x="137.5" y="-253.55" font-family="Helvetica,sans-Serif" font-size="10.00">...</text>
</g>
<!-- Node5 -->
<g id="node5" class="node">
<title>Node5</title>
<g id="a_node5"><a xlink:href="group__mpp__domains__mod.html#structmpp__domains__mod_1_1index__type" target="_top" xlink:title="index bounds for use in nestSpec">
<polygon fill="white" stroke="black" points="246,-162.55 246,-181.55 317,-181.55 317,-162.55 246,-162.55"/>
<text text-anchor="middle" x="281.5" y="-169.55" font-family="Helvetica,sans-Serif" font-size="10.00">index_type</text>
</a>
</g>
</g>
<!-- Node4&#45;&gt;Node5 -->
<g id="edge5" class="edge">
<title>Node4&#45;&gt;Node5</title>
<path fill="none" stroke="#9a32cd" stroke-dasharray="5,2" d="M181.92,-380.58C183.47,-377.57 185.04,-374.48 186.5,-371.55 222.8,-298.71 264.46,-209.66 277.43,-181.8"/>
<polygon fill="#9a32cd" stroke="#9a32cd" points="178.74,-379.09 177.24,-389.58 184.96,-382.32 178.74,-379.09"/>
<text text-anchor="middle" x="261.5" y="-347.05" font-family="Helvetica,sans-Serif" font-size="10.00"> ie_me</text>
<text text-anchor="middle" x="261.5" y="-336.05" font-family="Helvetica,sans-Serif" font-size="10.00">js_you</text>
<text text-anchor="middle" x="261.5" y="-325.05" font-family="Helvetica,sans-Serif" font-size="10.00">je_me</text>
<text text-anchor="middle" x="261.5" y="-314.05" font-family="Helvetica,sans-Serif" font-size="10.00">is_you</text>
<text text-anchor="middle" x="261.5" y="-303.05" font-family="Helvetica,sans-Serif" font-size="10.00">is_me</text>
<text text-anchor="middle" x="261.5" y="-292.05" font-family="Helvetica,sans-Serif" font-size="10.00">je_you</text>
<text text-anchor="middle" x="261.5" y="-281.05" font-family="Helvetica,sans-Serif" font-size="10.00">js_me</text>
<text text-anchor="middle" x="261.5" y="-270.05" font-family="Helvetica,sans-Serif" font-size="10.00">ie_you</text>
</g>
<!-- Node5&#45;&gt;Node1 -->
<g id="edge4" class="edge">
<title>Node5&#45;&gt;Node1</title>
<path fill="none" stroke="#9a32cd" stroke-dasharray="5,2" d="M269.92,-154.09C246.81,-120.28 195.73,-45.53 178.39,-20.16"/>
<polygon fill="#9a32cd" stroke="#9a32cd" points="267.11,-156.19 275.64,-162.47 272.89,-152.24 267.11,-156.19"/>
<text text-anchor="middle" x="243" y="-85.55" font-family="Helvetica,sans-Serif" font-size="10.00"> west</text>
<text text-anchor="middle" x="243" y="-74.55" font-family="Helvetica,sans-Serif" font-size="10.00">center</text>
<text text-anchor="middle" x="243" y="-63.55" font-family="Helvetica,sans-Serif" font-size="10.00">south</text>
<text text-anchor="middle" x="243" y="-52.55" font-family="Helvetica,sans-Serif" font-size="10.00">east</text>
<text text-anchor="middle" x="243" y="-41.55" font-family="Helvetica,sans-Serif" font-size="10.00">north</text>
</g>
</g>
</svg>
