<?xml version="1.0" encoding="UTF-8" standalone="no"?>
<!DOCTYPE svg PUBLIC "-//W3C//DTD SVG 1.1//EN"
 "http://www.w3.org/Graphics/SVG/1.1/DTD/svg11.dtd">
<!-- Generated by graphviz version 2.43.0 (0)
 -->
<!-- Title: fieldtype Pages: 1 -->
<svg width="875pt" height="714pt"
 viewBox="0.00 0.00 875.00 713.96" xmlns="http://www.w3.org/2000/svg" xmlns:xlink="http://www.w3.org/1999/xlink">
<g id="graph0" class="graph" transform="scale(1 1) rotate(0) translate(4 709.96)">
<title>fieldtype</title>
<polygon fill="white" stroke="transparent" points="-4,4 -4,-709.96 871,-709.96 871,4 -4,4"/>
<!-- Node1 -->
<g id="node1" class="node">
<title>Node1</title>
<g id="a_node1"><a xlink:title=" ">
<polygon fill="#bfbfbf" stroke="black" points="808,-513.46 808,-532.46 867,-532.46 867,-513.46 808,-513.46"/>
<text text-anchor="middle" x="837.5" y="-520.46" font-family="Helvetica,sans-Serif" font-size="10.00">fieldtype</text>
</a>
</g>
</g>
<!-- Node2 -->
<g id="node2" class="node">
<title>Node2</title>
<g id="a_node2"><a xlink:title=" ">
<polygon fill="white" stroke="#bfbfbf" points="555,-646.46 555,-665.46 719,-665.46 719,-646.46 555,-646.46"/>
<text text-anchor="middle" x="637" y="-653.46" font-family="Helvetica,sans-Serif" font-size="10.00">integer(i8_kind), dimension(3)</text>
</a>
</g>
</g>
<!-- Node2&#45;&gt;Node1 -->
<g id="edge1" class="edge">
<title>Node2&#45;&gt;Node1</title>
<path fill="none" stroke="#9a32cd" stroke-dasharray="5,2" d="M729.3,-656.43C750.94,-652.72 772.73,-645.42 790,-631.96 822.45,-606.67 832.58,-554.37 835.46,-532.7"/>
<polygon fill="#9a32cd" stroke="#9a32cd" points="728.76,-652.97 719.38,-657.89 729.78,-659.9 728.76,-652.97"/>
<text text-anchor="middle" x="763.5" y="-656.96" font-family="Helvetica,sans-Serif" font-size="10.00"> checksum</text>
</g>
<!-- Node3 -->
<g id="node3" class="node">
<title>Node3</title>
<g id="a_node3"><a xlink:title=" ">
<polygon fill="white" stroke="#bfbfbf" points="348,-523.46 348,-542.46 459,-542.46 459,-523.46 348,-523.46"/>
<text text-anchor="middle" x="403.5" y="-530.46" font-family="Helvetica,sans-Serif" font-size="10.00">character(len=256)</text>
</a>
</g>
</g>
<!-- Node3&#45;&gt;Node1 -->
<g id="edge2" class="edge">
<title>Node3&#45;&gt;Node1</title>
<path fill="none" stroke="#9a32cd" stroke-dasharray="5,2" d="M469.33,-531.46C564.82,-529.25 739.37,-525.21 807.85,-523.62"/>
<polygon fill="#9a32cd" stroke="#9a32cd" points="469.13,-527.96 459.21,-531.69 469.29,-534.96 469.13,-527.96"/>
<text text-anchor="middle" x="637" y="-542.96" font-family="Helvetica,sans-Serif" font-size="10.00"> longname</text>
<text text-anchor="middle" x="637" y="-531.96" font-family="Helvetica,sans-Serif" font-size="10.00">standard_name</text>
</g>
<!-- Node9 -->
<g id="node9" class="node">
<title>Node9</title>
<g id="a_node9"><a xlink:href="group__mpp__io__mod.html#structmpp__io__mod_1_1axistype" target="_top" xlink:title=" ">
<polygon fill="white" stroke="black" points="607.5,-282.46 607.5,-301.46 666.5,-301.46 666.5,-282.46 607.5,-282.46"/>
<text text-anchor="middle" x="637" y="-289.46" font-family="Helvetica,sans-Serif" font-size="10.00">axistype</text>
</a>
</g>
</g>
<!-- Node3&#45;&gt;Node9 -->
<g id="edge16" class="edge">
<title>Node3&#45;&gt;Node9</title>
<path fill="none" stroke="#9a32cd" stroke-dasharray="5,2" d="M437.74,-519.55C450.06,-514.61 464.15,-508.99 477,-503.96 503.59,-493.55 517.47,-501.8 537,-480.96 555.45,-461.26 543.81,-447.52 555,-422.96 576.94,-374.78 613.4,-322.76 628.79,-301.67"/>
<polygon fill="#9a32cd" stroke="#9a32cd" points="436.28,-516.36 428.3,-523.34 438.89,-522.86 436.28,-516.36"/>
<text text-anchor="middle" x="507" y="-517.96" font-family="Helvetica,sans-Serif" font-size="10.00"> longname</text>
<text text-anchor="middle" x="507" y="-506.96" font-family="Helvetica,sans-Serif" font-size="10.00">compressed</text>
</g>
<!-- Node4 -->
<g id="node4" class="node">
<title>Node4</title>
<g id="a_node4"><a xlink:href="group__mpp__io__mod.html#structmpp__io__mod_1_1atttype" target="_top" xlink:title=" ">
<polygon fill="white" stroke="black" points="377.5,-409.46 377.5,-428.46 429.5,-428.46 429.5,-409.46 377.5,-409.46"/>
<text text-anchor="middle" x="403.5" y="-416.46" font-family="Helvetica,sans-Serif" font-size="10.00">atttype</text>
</a>
</g>
</g>
<!-- Node4&#45;&gt;Node1 -->
<g id="edge3" class="edge">
<title>Node4&#45;&gt;Node1</title>
<path fill="none" stroke="#9a32cd" stroke-dasharray="5,2" d="M439.32,-427.34C522.41,-447.35 731.1,-497.59 807.72,-516.03"/>
<polygon fill="#9a32cd" stroke="#9a32cd" points="440.13,-423.94 429.59,-425 438.5,-430.75 440.13,-423.94"/>
<text text-anchor="middle" x="637" y="-496.96" font-family="Helvetica,sans-Serif" font-size="10.00"> att</text>
</g>
<!-- Node4&#45;&gt;Node9 -->
<g id="edge17" class="edge">
<title>Node4&#45;&gt;Node9</title>
<path fill="none" stroke="#9a32cd" stroke-dasharray="5,2" d="M439.8,-419.15C467.68,-417.93 506.8,-413.06 537,-396.96 581,-373.51 616.42,-323.07 630.01,-301.77"/>
<polygon fill="#9a32cd" stroke="#9a32cd" points="439.59,-415.66 429.7,-419.46 439.8,-422.66 439.59,-415.66"/>
<text text-anchor="middle" x="507" y="-417.96" font-family="Helvetica,sans-Serif" font-size="10.00"> att</text>
</g>
<!-- Node5 -->
<g id="node5" class="node">
<title>Node5</title>
<g id="a_node5"><a xlink:title=" ">
<polygon fill="white" stroke="#bfbfbf" points="146.5,-468.46 146.5,-487.46 257.5,-487.46 257.5,-468.46 146.5,-468.46"/>
<text text-anchor="middle" x="202" y="-475.46" font-family="Helvetica,sans-Serif" font-size="10.00">character(len=128)</text>
</a>
</g>
</g>
<!-- Node5&#45;&gt;Node1 -->
<g id="edge23" class="edge">
<title>Node5&#45;&gt;Node1</title>
<path fill="none" stroke="#9a32cd" stroke-dasharray="5,2" d="M224.97,-493.26C252.32,-511.32 301.17,-540.34 348,-551.96 508.04,-591.67 555.24,-574.29 719,-554.96 751.12,-551.17 786.82,-540.48 810.34,-532.49"/>
<polygon fill="#9a32cd" stroke="#9a32cd" points="226.8,-490.28 216.55,-487.6 222.9,-496.09 226.8,-490.28"/>
<text text-anchor="middle" x="507" y="-588.96" font-family="Helvetica,sans-Serif" font-size="10.00"> units</text>
<text text-anchor="middle" x="507" y="-577.96" font-family="Helvetica,sans-Serif" font-size="10.00">name</text>
</g>
<!-- Node5&#45;&gt;Node4 -->
<g id="edge4" class="edge">
<title>Node5&#45;&gt;Node4</title>
<path fill="none" stroke="#9a32cd" stroke-dasharray="5,2" d="M243.83,-465.39C256.96,-461.38 271.58,-456.95 285,-452.96 316.76,-443.53 353.44,-432.96 377.26,-426.15"/>
<polygon fill="#9a32cd" stroke="#9a32cd" points="242.66,-462.09 234.12,-468.36 244.71,-468.78 242.66,-462.09"/>
<text text-anchor="middle" x="307.5" y="-455.96" font-family="Helvetica,sans-Serif" font-size="10.00"> name</text>
</g>
<!-- Node5&#45;&gt;Node9 -->
<g id="edge19" class="edge">
<title>Node5&#45;&gt;Node9</title>
<path fill="none" stroke="#9a32cd" stroke-dasharray="5,2" d="M267.76,-474.79C351.9,-469.63 493.23,-457.14 537,-429.96 588.85,-397.77 621.58,-327.41 632.21,-301.65"/>
<polygon fill="#9a32cd" stroke="#9a32cd" points="267.32,-471.31 257.54,-475.39 267.73,-478.3 267.32,-471.31"/>
<text text-anchor="middle" x="403.5" y="-492.96" font-family="Helvetica,sans-Serif" font-size="10.00"> units</text>
<text text-anchor="middle" x="403.5" y="-481.96" font-family="Helvetica,sans-Serif" font-size="10.00">name</text>
<text text-anchor="middle" x="403.5" y="-470.96" font-family="Helvetica,sans-Serif" font-size="10.00">name_bounds</text>
</g>
<!-- Node6 -->
<g id="node6" class="node">
<title>Node6</title>
<g id="a_node6"><a xlink:title=" ">
<polygon fill="white" stroke="#bfbfbf" points="184.5,-313.46 184.5,-332.46 219.5,-332.46 219.5,-313.46 184.5,-313.46"/>
<text text-anchor="middle" x="202" y="-320.46" font-family="Helvetica,sans-Serif" font-size="10.00">real</text>
</a>
</g>
</g>
<!-- Node6&#45;&gt;Node1 -->
<g id="edge25" class="edge">
<title>Node6&#45;&gt;Node1</title>
<path fill="none" stroke="#9a32cd" stroke-dasharray="5,2" d="M229.73,-321.37C298.44,-317.57 479.87,-309.56 537,-326.96 665.99,-366.26 791.5,-479.77 826.75,-513.44"/>
<polygon fill="#9a32cd" stroke="#9a32cd" points="229.49,-317.87 219.7,-321.93 229.88,-324.86 229.49,-317.87"/>
<text text-anchor="middle" x="507" y="-384.96" font-family="Helvetica,sans-Serif" font-size="10.00"> fill</text>
<text text-anchor="middle" x="507" y="-373.96" font-family="Helvetica,sans-Serif" font-size="10.00">scale</text>
<text text-anchor="middle" x="507" y="-362.96" font-family="Helvetica,sans-Serif" font-size="10.00">missing</text>
<text text-anchor="middle" x="507" y="-351.96" font-family="Helvetica,sans-Serif" font-size="10.00">add</text>
<text text-anchor="middle" x="507" y="-340.96" font-family="Helvetica,sans-Serif" font-size="10.00">min</text>
<text text-anchor="middle" x="507" y="-329.96" font-family="Helvetica,sans-Serif" font-size="10.00">max</text>
</g>
<!-- Node6&#45;&gt;Node4 -->
<g id="edge5" class="edge">
<title>Node6&#45;&gt;Node4</title>
<path fill="none" stroke="#9a32cd" stroke-dasharray="5,2" d="M229.61,-330.79C241.17,-334.31 254.82,-338.65 267,-342.96 295.4,-353.02 303.5,-353.64 330,-367.96 352.75,-380.25 376.86,-398.37 390.75,-409.38"/>
<polygon fill="#9a32cd" stroke="#9a32cd" points="230.27,-327.33 219.69,-327.8 228.26,-334.04 230.27,-327.33"/>
<text text-anchor="middle" x="307.5" y="-370.96" font-family="Helvetica,sans-Serif" font-size="10.00"> fatt</text>
</g>
<!-- Node6&#45;&gt;Node9 -->
<g id="edge20" class="edge">
<title>Node6&#45;&gt;Node9</title>
<path fill="none" stroke="#9a32cd" stroke-dasharray="5,2" d="M229.91,-320.95C257.75,-317.6 301.1,-308.68 330,-284.96 343.22,-274.11 333.35,-259.78 348,-250.96 437.78,-196.91 571.23,-257.42 618.57,-282.28"/>
<polygon fill="#9a32cd" stroke="#9a32cd" points="229.3,-317.49 219.72,-322.01 230.03,-324.46 229.3,-317.49"/>
<text text-anchor="middle" x="403.5" y="-264.96" font-family="Helvetica,sans-Serif" font-size="10.00"> data_bounds</text>
<text text-anchor="middle" x="403.5" y="-253.96" font-family="Helvetica,sans-Serif" font-size="10.00">data</text>
</g>
<!-- Node7 -->
<g id="node7" class="node">
<title>Node7</title>
<g id="a_node7"><a xlink:title=" ">
<polygon fill="white" stroke="#bfbfbf" points="0,-189.46 0,-208.46 51,-208.46 51,-189.46 0,-189.46"/>
<text text-anchor="middle" x="25.5" y="-196.46" font-family="Helvetica,sans-Serif" font-size="10.00">integer</text>
</a>
</g>
</g>
<!-- Node7&#45;&gt;Node1 -->
<g id="edge24" class="edge">
<title>Node7&#45;&gt;Node1</title>
<path fill="none" stroke="#9a32cd" stroke-dasharray="5,2" d="M30.17,-218.57C46.22,-301.35 113.32,-617.96 201,-617.96 201,-617.96 201,-617.96 638,-617.96 716.32,-617.96 796.49,-557.04 825.33,-532.77"/>
<polygon fill="#9a32cd" stroke="#9a32cd" points="33.56,-217.67 28.25,-208.5 26.69,-218.98 33.56,-217.67"/>
<text text-anchor="middle" x="403.5" y="-697.96" font-family="Helvetica,sans-Serif" font-size="10.00"> size</text>
<text text-anchor="middle" x="403.5" y="-686.96" font-family="Helvetica,sans-Serif" font-size="10.00">natt</text>
<text text-anchor="middle" x="403.5" y="-675.96" font-family="Helvetica,sans-Serif" font-size="10.00">time_axis_index</text>
<text text-anchor="middle" x="403.5" y="-664.96" font-family="Helvetica,sans-Serif" font-size="10.00">position</text>
<text text-anchor="middle" x="403.5" y="-653.96" font-family="Helvetica,sans-Serif" font-size="10.00">pack</text>
<text text-anchor="middle" x="403.5" y="-642.96" font-family="Helvetica,sans-Serif" font-size="10.00">ndim</text>
<text text-anchor="middle" x="403.5" y="-631.96" font-family="Helvetica,sans-Serif" font-size="10.00">type</text>
<text text-anchor="middle" x="403.5" y="-620.96" font-family="Helvetica,sans-Serif" font-size="10.00">id</text>
</g>
<!-- Node7&#45;&gt;Node4 -->
<g id="edge6" class="edge">
<title>Node7&#45;&gt;Node4</title>
<path fill="none" stroke="#9a32cd" stroke-dasharray="5,2" d="M31.32,-218.68C42.31,-259.02 73.37,-350.63 137,-391.96 212.76,-441.18 327.15,-431.08 377.37,-423.48"/>
<polygon fill="#9a32cd" stroke="#9a32cd" points="34.64,-217.55 28.74,-208.75 27.86,-219.31 34.64,-217.55"/>
<text text-anchor="middle" x="202" y="-441.96" font-family="Helvetica,sans-Serif" font-size="10.00"> type</text>
<text text-anchor="middle" x="202" y="-430.96" font-family="Helvetica,sans-Serif" font-size="10.00">len</text>
</g>
<!-- Node7&#45;&gt;Node9 -->
<g id="edge21" class="edge">
<title>Node7&#45;&gt;Node9</title>
<path fill="none" stroke="#9a32cd" stroke-dasharray="5,2" d="M61.27,-197.9C110.91,-196.44 204.92,-193.89 285,-192.96 398.13,-191.65 431.5,-188.11 537,-228.96 571.39,-242.28 606.64,-268.26 624.34,-282.34"/>
<polygon fill="#9a32cd" stroke="#9a32cd" points="60.98,-194.4 51.09,-198.2 61.19,-201.4 60.98,-194.4"/>
<text text-anchor="middle" x="307.5" y="-272.96" font-family="Helvetica,sans-Serif" font-size="10.00"> natt</text>
<text text-anchor="middle" x="307.5" y="-261.96" font-family="Helvetica,sans-Serif" font-size="10.00">sense</text>
<text text-anchor="middle" x="307.5" y="-250.96" font-family="Helvetica,sans-Serif" font-size="10.00">did</text>
<text text-anchor="middle" x="307.5" y="-239.96" font-family="Helvetica,sans-Serif" font-size="10.00">shift</text>
<text text-anchor="middle" x="307.5" y="-228.96" font-family="Helvetica,sans-Serif" font-size="10.00">type</text>
<text text-anchor="middle" x="307.5" y="-217.96" font-family="Helvetica,sans-Serif" font-size="10.00">id</text>
<text text-anchor="middle" x="307.5" y="-206.96" font-family="Helvetica,sans-Serif" font-size="10.00">idata</text>
<text text-anchor="middle" x="307.5" y="-195.96" font-family="Helvetica,sans-Serif" font-size="10.00">len</text>
</g>
<!-- Node10 -->
<g id="node10" class="node">
<title>Node10</title>
<g id="a_node10"><a xlink:href="group__mpp__domains__mod.html#structmpp__domains__mod_1_1domain1d" target="_top" xlink:title="One dimensional domain used to manage shared data access between pes.">
<polygon fill="white" stroke="black" points="371,-117.46 371,-136.46 436,-136.46 436,-117.46 371,-117.46"/>
<text text-anchor="middle" x="403.5" y="-124.46" font-family="Helvetica,sans-Serif" font-size="10.00">domain1d</text>
</a>
</g>
</g>
<!-- Node7&#45;&gt;Node10 -->
<g id="edge15" class="edge">
<title>Node7&#45;&gt;Node10</title>
<path fill="none" stroke="#9a32cd" stroke-dasharray="5,2" d="M48.37,-183.82C69.85,-169.87 104.09,-150 137,-140.96 218.9,-118.47 320.23,-121.08 370.74,-124.32"/>
<polygon fill="#9a32cd" stroke="#9a32cd" points="46.38,-180.94 39.99,-189.39 50.26,-186.77 46.38,-180.94"/>
<text text-anchor="middle" x="202" y="-176.96" font-family="Helvetica,sans-Serif" font-size="10.00"> pe</text>
<text text-anchor="middle" x="202" y="-165.96" font-family="Helvetica,sans-Serif" font-size="10.00">goffset</text>
<text text-anchor="middle" x="202" y="-154.96" font-family="Helvetica,sans-Serif" font-size="10.00">pos</text>
<text text-anchor="middle" x="202" y="-143.96" font-family="Helvetica,sans-Serif" font-size="10.00">loffset</text>
</g>
<!-- Node12 -->
<g id="node12" class="node">
<title>Node12</title>
<g id="a_node12"><a xlink:href="group__mpp__domains__mod.html#structmpp__domains__mod_1_1domain__axis__spec" target="_top" xlink:title="Used to specify index limits along an axis of a domain.">
<polygon fill="white" stroke="black" points="148.5,-58.46 148.5,-77.46 255.5,-77.46 255.5,-58.46 148.5,-58.46"/>
<text text-anchor="middle" x="202" y="-65.46" font-family="Helvetica,sans-Serif" font-size="10.00">domain_axis_spec</text>
</a>
</g>
</g>
<!-- Node7&#45;&gt;Node12 -->
<g id="edge14" class="edge">
<title>Node7&#45;&gt;Node12</title>
<path fill="none" stroke="#9a32cd" stroke-dasharray="5,2" d="M26.36,-178.98C27.36,-149.33 34.14,-94.44 69,-68.96 97.58,-48.07 139.75,-52.03 168.68,-58.45"/>
<polygon fill="#9a32cd" stroke="#9a32cd" points="22.85,-179.28 26.21,-189.32 29.85,-179.37 22.85,-179.28"/>
<text text-anchor="middle" x="94" y="-104.96" font-family="Helvetica,sans-Serif" font-size="10.00"> max_size</text>
<text text-anchor="middle" x="94" y="-93.96" font-family="Helvetica,sans-Serif" font-size="10.00">size</text>
<text text-anchor="middle" x="94" y="-82.96" font-family="Helvetica,sans-Serif" font-size="10.00">begin</text>
<text text-anchor="middle" x="94" y="-71.96" font-family="Helvetica,sans-Serif" font-size="10.00">end</text>
</g>
<!-- Node8 -->
<g id="node8" class="node">
<title>Node8</title>
<g id="a_node8"><a xlink:title=" ">
<polygon fill="white" stroke="#bfbfbf" points="137,-351.96 137,-381.96 267,-381.96 267,-351.96 137,-351.96"/>
<text text-anchor="start" x="145" y="-369.96" font-family="Helvetica,sans-Serif" font-size="10.00">character(len=max_att</text>
<text text-anchor="middle" x="202" y="-358.96" font-family="Helvetica,sans-Serif" font-size="10.00">_length)</text>
</a>
</g>
</g>
<!-- Node8&#45;&gt;Node4 -->
<g id="edge7" class="edge">
<title>Node8&#45;&gt;Node4</title>
<path fill="none" stroke="#9a32cd" stroke-dasharray="5,2" d="M277.14,-381.13C294.57,-384.9 313.02,-389.25 330,-393.96 345.91,-398.38 363.41,-404.38 377.24,-409.4"/>
<polygon fill="#9a32cd" stroke="#9a32cd" points="277.51,-377.63 267,-378.97 276.06,-384.47 277.51,-377.63"/>
<text text-anchor="middle" x="307.5" y="-396.96" font-family="Helvetica,sans-Serif" font-size="10.00"> catt</text>
</g>
<!-- Node9&#45;&gt;Node1 -->
<g id="edge8" class="edge">
<title>Node9&#45;&gt;Node1</title>
<path fill="none" stroke="#9a32cd" stroke-dasharray="5,2" d="M676.56,-283.66C710.58,-278.75 759.4,-277.96 790,-304.96 822.06,-333.25 833.42,-475.16 835.93,-513.44"/>
<polygon fill="#9a32cd" stroke="#9a32cd" points="675.82,-280.24 666.51,-285.29 676.94,-287.15 675.82,-280.24"/>
<text text-anchor="middle" x="763.5" y="-307.96" font-family="Helvetica,sans-Serif" font-size="10.00"> axes</text>
</g>
<!-- Node10&#45;&gt;Node9 -->
<g id="edge9" class="edge">
<title>Node10&#45;&gt;Node9</title>
<path fill="none" stroke="#9a32cd" stroke-dasharray="5,2" d="M446.31,-134.5C473.86,-140.93 509.74,-152.19 537,-170.96 582.16,-202.05 617.69,-259.41 630.67,-282.23"/>
<polygon fill="#9a32cd" stroke="#9a32cd" points="446.72,-131.01 436.2,-132.27 445.21,-137.84 446.72,-131.01"/>
<text text-anchor="middle" x="507" y="-173.96" font-family="Helvetica,sans-Serif" font-size="10.00"> domain</text>
</g>
<!-- Node10&#45;&gt;Node10 -->
<g id="edge11" class="edge">
<title>Node10&#45;&gt;Node10</title>
<path fill="none" stroke="#9a32cd" stroke-dasharray="5,2" d="M385.72,-146.36C386.91,-151.28 392.84,-154.96 403.5,-154.96 420.56,-154.96 425.49,-145.53 418.3,-136.72"/>
<polygon fill="#9a32cd" stroke="#9a32cd" points="389.09,-147.31 388.7,-136.72 382.41,-145.24 389.09,-147.31"/>
<text text-anchor="middle" x="403.5" y="-157.96" font-family="Helvetica,sans-Serif" font-size="10.00"> list</text>
</g>
<!-- Node11 -->
<g id="node11" class="node">
<title>Node11</title>
<g id="a_node11"><a xlink:title=" ">
<polygon fill="white" stroke="#bfbfbf" points="1,-8.46 1,-27.46 50,-27.46 50,-8.46 1,-8.46"/>
<text text-anchor="middle" x="25.5" y="-15.46" font-family="Helvetica,sans-Serif" font-size="10.00">logical</text>
</a>
</g>
</g>
<!-- Node11&#45;&gt;Node10 -->
<g id="edge10" class="edge">
<title>Node11&#45;&gt;Node10</title>
<path fill="none" stroke="#9a32cd" stroke-dasharray="5,2" d="M60.37,-10.31C122.46,1.55 255,16.42 330,-51.96 349.32,-69.57 329.74,-89.25 348,-107.96 354.16,-114.27 362.52,-118.49 370.85,-121.31"/>
<polygon fill="#9a32cd" stroke="#9a32cd" points="59.45,-6.92 50.33,-12.32 60.82,-13.79 59.45,-6.92"/>
<text text-anchor="middle" x="202" y="-17.96" font-family="Helvetica,sans-Serif" font-size="10.00"> cyclic</text>
</g>
<!-- Node11&#45;&gt;Node12 -->
<g id="edge13" class="edge">
<title>Node11&#45;&gt;Node12</title>
<path fill="none" stroke="#9a32cd" stroke-dasharray="5,2" d="M60.75,-22.57C78.36,-25.37 100.04,-29.46 119,-34.96 140.52,-41.2 164.16,-51.06 180.51,-58.37"/>
<polygon fill="#9a32cd" stroke="#9a32cd" points="60.79,-19.04 50.38,-21 59.74,-25.96 60.79,-19.04"/>
<text text-anchor="middle" x="94" y="-37.96" font-family="Helvetica,sans-Serif" font-size="10.00"> is_global</text>
</g>
<!-- Node12&#45;&gt;Node10 -->
<g id="edge12" class="edge">
<title>Node12&#45;&gt;Node10</title>
<path fill="none" stroke="#9a32cd" stroke-dasharray="5,2" d="M249.51,-56.87C275.19,-53.41 306.53,-53.81 330,-68.96 346.04,-79.31 333.86,-95.13 348,-107.96 354.38,-113.75 362.63,-117.8 370.76,-120.61"/>
<polygon fill="#9a32cd" stroke="#9a32cd" points="248.95,-53.42 239.62,-58.43 250.04,-60.33 248.95,-53.42"/>
<text text-anchor="middle" x="307.5" y="-104.96" font-family="Helvetica,sans-Serif" font-size="10.00"> memory</text>
<text text-anchor="middle" x="307.5" y="-93.96" font-family="Helvetica,sans-Serif" font-size="10.00">global</text>
<text text-anchor="middle" x="307.5" y="-82.96" font-family="Helvetica,sans-Serif" font-size="10.00">compute</text>
<text text-anchor="middle" x="307.5" y="-71.96" font-family="Helvetica,sans-Serif" font-size="10.00">data</text>
</g>
<!-- Node13 -->
<g id="node13" class="node">
<title>Node13</title>
<g id="a_node13"><a xlink:title=" ">
<polygon fill="white" stroke="#bfbfbf" points="354,-79.46 354,-98.46 453,-98.46 453,-79.46 354,-79.46"/>
<text text-anchor="middle" x="403.5" y="-86.46" font-family="Helvetica,sans-Serif" font-size="10.00">character(len=8)</text>
</a>
</g>
</g>
<!-- Node13&#45;&gt;Node9 -->
<g id="edge18" class="edge">
<title>Node13&#45;&gt;Node9</title>
<path fill="none" stroke="#9a32cd" stroke-dasharray="5,2" d="M463.16,-97.11C487.89,-102.83 515.8,-112.54 537,-128.96 591.97,-171.54 623.37,-253.95 632.88,-282.19"/>
<polygon fill="#9a32cd" stroke="#9a32cd" points="463.66,-93.63 453.15,-94.96 462.19,-100.48 463.66,-93.63"/>
<text text-anchor="middle" x="507" y="-131.96" font-family="Helvetica,sans-Serif" font-size="10.00"> cartesian</text>
</g>
<!-- Node14 -->
<g id="node14" class="node">
<title>Node14</title>
<g id="a_node14"><a xlink:title=" ">
<polygon fill="white" stroke="#bfbfbf" points="351,-282.46 351,-301.46 456,-301.46 456,-282.46 351,-282.46"/>
<text text-anchor="middle" x="403.5" y="-289.46" font-family="Helvetica,sans-Serif" font-size="10.00">character(len=24)</text>
</a>
</g>
</g>
<!-- Node14&#45;&gt;Node9 -->
<g id="edge22" class="edge">
<title>Node14&#45;&gt;Node9</title>
<path fill="none" stroke="#9a32cd" stroke-dasharray="5,2" d="M466.29,-291.96C512.07,-291.96 572.37,-291.96 607.39,-291.96"/>
<polygon fill="#9a32cd" stroke="#9a32cd" points="466.17,-288.46 456.16,-291.96 466.16,-295.46 466.17,-288.46"/>
<text text-anchor="middle" x="507" y="-294.96" font-family="Helvetica,sans-Serif" font-size="10.00"> calendar</text>
</g>
</g>
</svg>
