<?xml version="1.0" encoding="UTF-8" standalone="no"?>
<!DOCTYPE svg PUBLIC "-//W3C//DTD SVG 1.1//EN"
 "http://www.w3.org/Graphics/SVG/1.1/DTD/svg11.dtd">
<!-- Generated by graphviz version 2.43.0 (0)
 -->
<!-- Title: mpp_group_update_type Pages: 1 -->
<svg width="294pt" height="205pt"
 viewBox="0.00 0.00 293.50 205.00" xmlns="http://www.w3.org/2000/svg" xmlns:xlink="http://www.w3.org/1999/xlink">
<g id="graph0" class="graph" transform="scale(1 1) rotate(0) translate(4 201)">
<title>mpp_group_update_type</title>
<polygon fill="white" stroke="transparent" points="-4,4 -4,-201 289.5,-201 289.5,4 -4,4"/>
<!-- Node1 -->
<g id="node1" class="node">
<title>Node1</title>
<g id="a_node1"><a xlink:title="used for updates on a group">
<polygon fill="#bfbfbf" stroke="black" points="48,-0.5 48,-19.5 185,-19.5 185,-0.5 48,-0.5"/>
<text text-anchor="middle" x="116.5" y="-7.5" font-family="Helvetica,sans-Serif" font-size="10.00">mpp_group_update_type</text>
</a>
</g>
</g>
<!-- Node2 -->
<g id="node2" class="node">
<title>Node2</title>
<g id="a_node2"><a xlink:title=" ">
<polygon fill="white" stroke="#bfbfbf" points="0,-177.5 0,-196.5 49,-196.5 49,-177.5 0,-177.5"/>
<text text-anchor="middle" x="24.5" y="-184.5" font-family="Helvetica,sans-Serif" font-size="10.00">logical</text>
</a>
</g>
</g>
<!-- Node2&#45;&gt;Node1 -->
<g id="edge1" class="edge">
<title>Node2&#45;&gt;Node1</title>
<path fill="none" stroke="#9a32cd" stroke-dasharray="5,2" d="M21.21,-166.98C17.04,-136.3 13.61,-75.57 43.5,-38 50.31,-29.44 60.13,-23.59 70.35,-19.59"/>
<polygon fill="#9a32cd" stroke="#9a32cd" points="17.8,-167.8 22.78,-177.15 24.71,-166.73 17.8,-167.8"/>
<text text-anchor="middle" x="78" y="-123.5" font-family="Helvetica,sans-Serif" font-size="10.00"> initialized</text>
<text text-anchor="middle" x="78" y="-112.5" font-family="Helvetica,sans-Serif" font-size="10.00">k_loop_inside</text>
<text text-anchor="middle" x="78" y="-101.5" font-family="Helvetica,sans-Serif" font-size="10.00">nonsym_edge</text>
<text text-anchor="middle" x="78" y="-90.5" font-family="Helvetica,sans-Serif" font-size="10.00">recv_s</text>
<text text-anchor="middle" x="78" y="-79.5" font-family="Helvetica,sans-Serif" font-size="10.00">recv_x</text>
<text text-anchor="middle" x="78" y="-68.5" font-family="Helvetica,sans-Serif" font-size="10.00">recv_y</text>
</g>
<!-- Node3 -->
<g id="node3" class="node">
<title>Node3</title>
<g id="a_node3"><a xlink:title=" ">
<polygon fill="white" stroke="#bfbfbf" points="69.5,-177.5 69.5,-196.5 163.5,-196.5 163.5,-177.5 69.5,-177.5"/>
<text text-anchor="middle" x="116.5" y="-184.5" font-family="Helvetica,sans-Serif" font-size="10.00">integer(i8_kind)</text>
</a>
</g>
</g>
<!-- Node3&#45;&gt;Node1 -->
<g id="edge2" class="edge">
<title>Node3&#45;&gt;Node1</title>
<path fill="none" stroke="#9a32cd" stroke-dasharray="5,2" d="M116.5,-166.95C116.5,-129.3 116.5,-46.65 116.5,-19.69"/>
<polygon fill="#9a32cd" stroke="#9a32cd" points="113,-167.08 116.5,-177.08 120,-167.08 113,-167.08"/>
<text text-anchor="middle" x="137" y="-107" font-family="Helvetica,sans-Serif" font-size="10.00"> addrs_s</text>
<text text-anchor="middle" x="137" y="-96" font-family="Helvetica,sans-Serif" font-size="10.00">addrs_x</text>
<text text-anchor="middle" x="137" y="-85" font-family="Helvetica,sans-Serif" font-size="10.00">addrs_y</text>
</g>
<!-- Node4 -->
<g id="node4" class="node">
<title>Node4</title>
<g id="a_node4"><a xlink:title=" ">
<polygon fill="white" stroke="#bfbfbf" points="182,-177.5 182,-196.5 233,-196.5 233,-177.5 182,-177.5"/>
<text text-anchor="middle" x="207.5" y="-184.5" font-family="Helvetica,sans-Serif" font-size="10.00">integer</text>
</a>
</g>
</g>
<!-- Node4&#45;&gt;Node1 -->
<g id="edge3" class="edge">
<title>Node4&#45;&gt;Node1</title>
<path fill="none" stroke="#9a32cd" stroke-dasharray="5,2" d="M205.96,-167.35C202.62,-137.21 192.3,-77.21 161.5,-38 155.31,-30.12 146.13,-24.03 137.67,-19.64"/>
<polygon fill="#9a32cd" stroke="#9a32cd" points="202.48,-167.72 206.93,-177.34 209.45,-167.05 202.48,-167.72"/>
<text text-anchor="middle" x="245" y="-151" font-family="Helvetica,sans-Serif" font-size="10.00"> buffer_pos_recv</text>
<text text-anchor="middle" x="245" y="-140" font-family="Helvetica,sans-Serif" font-size="10.00">buffer_pos_send</text>
<text text-anchor="middle" x="245" y="-129" font-family="Helvetica,sans-Serif" font-size="10.00">buffer_start_pos</text>
<text text-anchor="middle" x="245" y="-118" font-family="Helvetica,sans-Serif" font-size="10.00">ehalo_s</text>
<text text-anchor="middle" x="245" y="-107" font-family="Helvetica,sans-Serif" font-size="10.00">ehalo_v</text>
<text text-anchor="middle" x="245" y="-96" font-family="Helvetica,sans-Serif" font-size="10.00">flags_s</text>
<text text-anchor="middle" x="245" y="-85" font-family="Helvetica,sans-Serif" font-size="10.00">flags_v</text>
<text text-anchor="middle" x="245" y="-74" font-family="Helvetica,sans-Serif" font-size="10.00">from_pe</text>
<text text-anchor="middle" x="245" y="-63" font-family="Helvetica,sans-Serif" font-size="10.00">gridtype</text>
<text text-anchor="middle" x="245" y="-52" font-family="Helvetica,sans-Serif" font-size="10.00">ie_s</text>
<text text-anchor="middle" x="245" y="-41" font-family="Helvetica,sans-Serif" font-size="10.00">...</text>
</g>
</g>
</svg>
