<?xml version="1.0" encoding="UTF-8" standalone="no"?>
<!DOCTYPE svg PUBLIC "-//W3C//DTD SVG 1.1//EN"
 "http://www.w3.org/Graphics/SVG/1.1/DTD/svg11.dtd">
<!-- Generated by graphviz version 2.43.0 (0)
 -->
<!-- Title: mpp_type Pages: 1 -->
<svg width="116pt" height="213pt"
 viewBox="0.00 0.00 116.00 212.78" xmlns="http://www.w3.org/2000/svg" xmlns:xlink="http://www.w3.org/1999/xlink">
<g id="graph0" class="graph" transform="scale(1 1) rotate(0) translate(4 208.78)">
<title>mpp_type</title>
<polygon fill="white" stroke="transparent" points="-4,4 -4,-208.78 112,-208.78 112,4 -4,4"/>
<!-- Node1 -->
<g id="node1" class="node">
<title>Node1</title>
<g id="a_node1"><a xlink:title="Data types for generalized data transfer (e.g. MPI_Type)">
<polygon fill="#bfbfbf" stroke="black" points="0,-7.28 0,-26.28 65,-26.28 65,-7.28 0,-7.28"/>
<text text-anchor="middle" x="32.5" y="-14.28" font-family="Helvetica,sans-Serif" font-size="10.00">mpp_type</text>
</a>
</g>
</g>
<!-- Node1&#45;&gt;Node1 -->
<g id="edge1" class="edge">
<title>Node1&#45;&gt;Node1</title>
<path fill="none" stroke="#9a32cd" stroke-dasharray="5,2" d="M52.22,-31.16C67.46,-36.52 83,-31.72 83,-16.78 83,1.27 60.35,4.51 42.91,-7.05"/>
<polygon fill="#9a32cd" stroke="#9a32cd" points="53.42,-27.84 42.91,-26.51 50.29,-34.11 53.42,-27.84"/>
<text text-anchor="middle" x="95.5" y="-19.78" font-family="Helvetica,sans-Serif" font-size="10.00"> next</text>
<text text-anchor="middle" x="95.5" y="-8.78" font-family="Helvetica,sans-Serif" font-size="10.00">prev</text>
</g>
<!-- Node2 -->
<g id="node2" class="node">
<title>Node2</title>
<g id="a_node2"><a xlink:title=" ">
<polygon fill="white" stroke="#bfbfbf" points="7,-185.28 7,-204.28 58,-204.28 58,-185.28 7,-185.28"/>
<text text-anchor="middle" x="32.5" y="-192.28" font-family="Helvetica,sans-Serif" font-size="10.00">integer</text>
</a>
</g>
</g>
<!-- Node2&#45;&gt;Node1 -->
<g id="edge2" class="edge">
<title>Node2&#45;&gt;Node1</title>
<path fill="none" stroke="#9a32cd" stroke-dasharray="5,2" d="M32.5,-174.62C32.5,-136.75 32.5,-53.64 32.5,-26.52"/>
<polygon fill="#9a32cd" stroke="#9a32cd" points="29,-174.81 32.5,-184.81 36,-174.81 29,-174.81"/>
<text text-anchor="middle" x="61" y="-158.78" font-family="Helvetica,sans-Serif" font-size="10.00"> counter</text>
<text text-anchor="middle" x="61" y="-147.78" font-family="Helvetica,sans-Serif" font-size="10.00">data</text>
<text text-anchor="middle" x="61" y="-136.78" font-family="Helvetica,sans-Serif" font-size="10.00">elementary</text>
<text text-anchor="middle" x="61" y="-125.78" font-family="Helvetica,sans-Serif" font-size="10.00">etype</text>
<text text-anchor="middle" x="61" y="-114.78" font-family="Helvetica,sans-Serif" font-size="10.00">id</text>
<text text-anchor="middle" x="61" y="-103.78" font-family="Helvetica,sans-Serif" font-size="10.00">identifier</text>
<text text-anchor="middle" x="61" y="-92.78" font-family="Helvetica,sans-Serif" font-size="10.00">instances</text>
<text text-anchor="middle" x="61" y="-81.78" font-family="Helvetica,sans-Serif" font-size="10.00">library</text>
<text text-anchor="middle" x="61" y="-70.78" font-family="Helvetica,sans-Serif" font-size="10.00">message</text>
<text text-anchor="middle" x="61" y="-59.78" font-family="Helvetica,sans-Serif" font-size="10.00">ndims</text>
<text text-anchor="middle" x="61" y="-48.78" font-family="Helvetica,sans-Serif" font-size="10.00">...</text>
</g>
</g>
</svg>
