<?xml version="1.0" encoding="UTF-8" standalone="no"?>
<!DOCTYPE svg PUBLIC "-//W3C//DTD SVG 1.1//EN"
 "http://www.w3.org/Graphics/SVG/1.1/DTD/svg11.dtd">
<!-- Generated by graphviz version 2.43.0 (0)
 -->
<!-- Title: drifters_type Pages: 1 -->
<!--zoomable 924 -->
<svg id="main" version="1.1" xmlns="http://www.w3.org/2000/svg" xmlns:xlink="http://www.w3.org/1999/xlink" xml:space="preserve" onload="init(evt)">
<style type="text/css"><![CDATA[
.edge:hover path { stroke: red; }
.edge:hover polygon { stroke: red; fill: red; }
]]></style>
<script type="text/javascript"><![CDATA[
var edges = document.getElementsByTagName('g');
if (edges && edges.length) {
  for (var i=0;i<edges.length;i++) {
    if (edges[i].id.substr(0,4)=='edge') {
      edges[i].setAttribute('class','edge');
    }
  }
}
]]></script>
        <defs>
                <circle id="rim" cx="0" cy="0" r="7"/>
                <circle id="rim2" cx="0" cy="0" r="3.5"/>
                <g id="zoomPlus">
                        <use xlink:href="#rim" fill="#404040">
                                <set attributeName="fill" to="#808080" begin="zoomplus.mouseover" end="zoomplus.mouseout"/>
                        </use>
                        <path d="M-4,0h8M0,-4v8" fill="none" stroke="white" stroke-width="1.5" pointer-events="none"/>
                </g>
                <g id="zoomMin">
                        <use xlink:href="#rim" fill="#404040">
                                <set attributeName="fill" to="#808080" begin="zoomminus.mouseover" end="zoomminus.mouseout"/>
                        </use>
                        <path d="M-4,0h8" fill="none" stroke="white" stroke-width="1.5" pointer-events="none"/>
                </g>
                <g id="dirArrow">
                        <path fill="none" stroke="white" stroke-width="1.5" d="M0,-3.0v7 M-2.5,-0.5L0,-3.0L2.5,-0.5"/>
                </g>
               <g id="resetDef">
                       <use xlink:href="#rim2" fill="#404040">
                               <set attributeName="fill" to="#808080" begin="reset.mouseover" end="reset.mouseout"/>
                       </use>
               </g>
        </defs>

<script type="text/javascript">
var viewWidth = 537;
var viewHeight = 924;
var sectionId = 'dynsection-0';
</script>
<script xlink:href="svgpan.js"/>
<svg id="graph" class="graph">
<g id="viewport">
<title>drifters_type</title>
<polygon fill="white" stroke="transparent" points="-4,4 -4,-920.15 533,-920.15 533,4 -4,4"/>
<!-- Node1 -->
<g id="node1" class="node">
<title>Node1</title>
<g id="a_node1"><a xlink:title="Holds all data needed for drifters communication, io, and input.">
<polygon fill="#bfbfbf" stroke="black" points="451,-493.65 451,-512.65 529,-512.65 529,-493.65 451,-493.65"/>
<text text-anchor="middle" x="490" y="-500.65" font-family="Helvetica,sans-Serif" font-size="10.00">drifters_type</text>
</a>
</g>
</g>
<!-- Node2 -->
<g id="node2" class="node">
<title>Node2</title>
<g id="a_node2"><a xlink:title=" ">
<polygon fill="white" stroke="#bfbfbf" points="52,-884.65 52,-903.65 101,-903.65 101,-884.65 52,-884.65"/>
<text text-anchor="middle" x="76.5" y="-891.65" font-family="Helvetica,sans-Serif" font-size="10.00">logical</text>
</a>
</g>
</g>
<!-- Node2&#45;&gt;Node1 -->
<g id="edge1" class="edge">
<title>Node2&#45;&gt;Node1</title>
<path fill="none" stroke="#9a32cd" stroke-dasharray="5,2" d="M111.04,-904.41C146.79,-913.45 204.28,-922.45 249,-903.15 419.65,-829.51 477.21,-566.43 487.3,-512.75"/>
<polygon fill="#9a32cd" stroke="#9a32cd" points="111.69,-900.96 101.13,-901.76 109.88,-907.72 111.69,-900.96"/>
<text text-anchor="middle" x="324" y="-908.15" font-family="Helvetica,sans-Serif" font-size="10.00"> remove</text>
<text text-anchor="middle" x="324" y="-897.15" font-family="Helvetica,sans-Serif" font-size="10.00">rk4_completed</text>
</g>
<!-- Node4 -->
<g id="node4" class="node">
<title>Node4</title>
<g id="a_node4"><a xlink:href="group__drifters__input__mod.html#structdrifters__io__mod_1_1drifters__io__type" target="_top" xlink:title="IO data for drifters.">
<polygon fill="white" stroke="black" points="278,-734.65 278,-753.65 370,-753.65 370,-734.65 278,-734.65"/>
<text text-anchor="middle" x="324" y="-741.65" font-family="Helvetica,sans-Serif" font-size="10.00">drifters_io_type</text>
</a>
</g>
</g>
<!-- Node2&#45;&gt;Node4 -->
<g id="edge4" class="edge">
<title>Node2&#45;&gt;Node4</title>
<path fill="none" stroke="#9a32cd" stroke-dasharray="5,2" d="M111.18,-893.32C154.58,-891.67 227.07,-886.74 249,-872.15 292.81,-843 313.91,-778.45 320.58,-753.89"/>
<polygon fill="#9a32cd" stroke="#9a32cd" points="110.96,-889.83 101.09,-893.67 111.2,-896.82 110.96,-889.83"/>
<text text-anchor="middle" x="210" y="-891.15" font-family="Helvetica,sans-Serif" font-size="10.00"> enddef</text>
</g>
<!-- Node7 -->
<g id="node7" class="node">
<title>Node7</title>
<g id="a_node7"><a xlink:href="group__drifters__comm__mod.html#structdrifters__comm__mod_1_1drifters__comm__type" target="_top" xlink:title="Type for drifter communication between PE&#39;s.">
<polygon fill="white" stroke="black" points="267,-578.65 267,-597.65 381,-597.65 381,-578.65 267,-578.65"/>
<text text-anchor="middle" x="324" y="-585.65" font-family="Helvetica,sans-Serif" font-size="10.00">drifters_comm_type</text>
</a>
</g>
</g>
<!-- Node2&#45;&gt;Node7 -->
<g id="edge8" class="edge">
<title>Node2&#45;&gt;Node7</title>
<path fill="none" stroke="#9a32cd" stroke-dasharray="5,2" d="M83.29,-874.86C94.46,-841.07 122.29,-771.34 171,-735.15 199.64,-713.87 220.44,-737.54 249,-716.15 290.91,-684.76 313.02,-622.12 320.27,-597.96"/>
<polygon fill="#9a32cd" stroke="#9a32cd" points="79.93,-873.89 80.24,-884.48 86.6,-876 79.93,-873.89"/>
<text text-anchor="middle" x="210" y="-749.15" font-family="Helvetica,sans-Serif" font-size="10.00"> xperiodic</text>
<text text-anchor="middle" x="210" y="-738.15" font-family="Helvetica,sans-Serif" font-size="10.00">yperiodic</text>
</g>
<!-- Node3 -->
<g id="node3" class="node">
<title>Node3</title>
<g id="a_node3"><a xlink:title=" ">
<polygon fill="white" stroke="#bfbfbf" points="0,-2.65 0,-21.65 153,-21.65 153,-2.65 0,-2.65"/>
<text text-anchor="middle" x="76.5" y="-9.65" font-family="Helvetica,sans-Serif" font-size="10.00">character(len=max_str_len)</text>
</a>
</g>
</g>
<!-- Node3&#45;&gt;Node1 -->
<g id="edge2" class="edge">
<title>Node3&#45;&gt;Node1</title>
<path fill="none" stroke="#9a32cd" stroke-dasharray="5,2" d="M145.75,-1.72C177.78,0.76 216.06,0.2 249,-10.15 344.77,-40.23 381.35,-55.07 433,-141.15 470.3,-203.32 485.58,-441.89 488.48,-493.34"/>
<polygon fill="#9a32cd" stroke="#9a32cd" points="145.23,1.75 135.58,-2.62 145.85,-5.22 145.23,1.75"/>
<text text-anchor="middle" x="324" y="-87.15" font-family="Helvetica,sans-Serif" font-size="10.00"> input_file</text>
<text text-anchor="middle" x="324" y="-76.15" font-family="Helvetica,sans-Serif" font-size="10.00">output_file</text>
</g>
<!-- Node8 -->
<g id="node8" class="node">
<title>Node8</title>
<g id="a_node8"><a xlink:href="group__drifters__input__mod.html#structdrifters__input__mod_1_1drifters__input__type" target="_top" xlink:title="Input data type for drifters.">
<polygon fill="white" stroke="black" points="270,-133.65 270,-152.65 378,-152.65 378,-133.65 270,-133.65"/>
<text text-anchor="middle" x="324" y="-140.65" font-family="Helvetica,sans-Serif" font-size="10.00">drifters_input_type</text>
</a>
</g>
</g>
<!-- Node3&#45;&gt;Node8 -->
<g id="edge12" class="edge">
<title>Node3&#45;&gt;Node8</title>
<path fill="none" stroke="#9a32cd" stroke-dasharray="5,2" d="M163.41,-11.82C192.35,-15.06 223.68,-22.5 249,-38.15 286.94,-61.6 310.76,-112.5 319.37,-133.64"/>
<polygon fill="#9a32cd" stroke="#9a32cd" points="163.59,-8.32 153.3,-10.84 162.91,-15.29 163.59,-8.32"/>
<text text-anchor="middle" x="210" y="-63.15" font-family="Helvetica,sans-Serif" font-size="10.00"> time_units</text>
<text text-anchor="middle" x="210" y="-52.15" font-family="Helvetica,sans-Serif" font-size="10.00">title</text>
<text text-anchor="middle" x="210" y="-41.15" font-family="Helvetica,sans-Serif" font-size="10.00">version</text>
</g>
<!-- Node4&#45;&gt;Node1 -->
<g id="edge3" class="edge">
<title>Node4&#45;&gt;Node1</title>
<path fill="none" stroke="#9a32cd" stroke-dasharray="5,2" d="M337.4,-725.92C370.09,-677.88 457.8,-549 482.47,-512.75"/>
<polygon fill="#9a32cd" stroke="#9a32cd" points="334.36,-724.17 331.63,-734.4 340.15,-728.1 334.36,-724.17"/>
<text text-anchor="middle" x="416" y="-633.15" font-family="Helvetica,sans-Serif" font-size="10.00"> io</text>
</g>
<!-- Node5 -->
<g id="node5" class="node">
<title>Node5</title>
<g id="a_node5"><a xlink:title=" ">
<polygon fill="white" stroke="#bfbfbf" points="51,-517.65 51,-536.65 102,-536.65 102,-517.65 51,-517.65"/>
<text text-anchor="middle" x="76.5" y="-524.65" font-family="Helvetica,sans-Serif" font-size="10.00">integer</text>
</a>
</g>
</g>
<!-- Node5&#45;&gt;Node1 -->
<g id="edge20" class="edge">
<title>Node5&#45;&gt;Node1</title>
<path fill="none" stroke="#9a32cd" stroke-dasharray="5,2" d="M112.06,-525.13C188.47,-520.68 371.25,-510.02 450.86,-505.37"/>
<polygon fill="#9a32cd" stroke="#9a32cd" points="111.79,-521.64 102.01,-525.72 112.2,-528.63 111.79,-521.64"/>
<text text-anchor="middle" x="324" y="-540.15" font-family="Helvetica,sans-Serif" font-size="10.00"> nx</text>
<text text-anchor="middle" x="324" y="-529.15" font-family="Helvetica,sans-Serif" font-size="10.00">ny</text>
<text text-anchor="middle" x="324" y="-518.15" font-family="Helvetica,sans-Serif" font-size="10.00">rk4_step</text>
</g>
<!-- Node5&#45;&gt;Node4 -->
<g id="edge5" class="edge">
<title>Node5&#45;&gt;Node4</title>
<path fill="none" stroke="#9a32cd" stroke-dasharray="5,2" d="M78.42,-546.83C81.8,-593.64 97.55,-711.4 171,-761.15 211.67,-788.7 272.94,-767.55 303.8,-753.7"/>
<polygon fill="#9a32cd" stroke="#9a32cd" points="81.91,-546.55 77.81,-536.78 74.92,-546.97 81.91,-546.55"/>
<text text-anchor="middle" x="210" y="-854.15" font-family="Helvetica,sans-Serif" font-size="10.00"> it</text>
<text text-anchor="middle" x="210" y="-843.15" font-family="Helvetica,sans-Serif" font-size="10.00">it_id</text>
<text text-anchor="middle" x="210" y="-832.15" font-family="Helvetica,sans-Serif" font-size="10.00">nc_fields</text>
<text text-anchor="middle" x="210" y="-821.15" font-family="Helvetica,sans-Serif" font-size="10.00">nc_ids</text>
<text text-anchor="middle" x="210" y="-810.15" font-family="Helvetica,sans-Serif" font-size="10.00">nc_index_time</text>
<text text-anchor="middle" x="210" y="-799.15" font-family="Helvetica,sans-Serif" font-size="10.00">nc_positions</text>
<text text-anchor="middle" x="210" y="-788.15" font-family="Helvetica,sans-Serif" font-size="10.00">nc_time</text>
<text text-anchor="middle" x="210" y="-777.15" font-family="Helvetica,sans-Serif" font-size="10.00">ncid</text>
</g>
<!-- Node5&#45;&gt;Node7 -->
<g id="edge9" class="edge">
<title>Node5&#45;&gt;Node7</title>
<path fill="none" stroke="#9a32cd" stroke-dasharray="5,2" d="M112.36,-532.44C147.28,-538.12 202.38,-548.11 249,-561.15 266.25,-565.98 285.23,-572.93 299.64,-578.58"/>
<polygon fill="#9a32cd" stroke="#9a32cd" points="112.63,-528.94 102.2,-530.82 111.53,-535.85 112.63,-528.94"/>
<text text-anchor="middle" x="210" y="-674.15" font-family="Helvetica,sans-Serif" font-size="10.00"> pe_beg</text>
<text text-anchor="middle" x="210" y="-663.15" font-family="Helvetica,sans-Serif" font-size="10.00">pe_e</text>
<text text-anchor="middle" x="210" y="-652.15" font-family="Helvetica,sans-Serif" font-size="10.00">pe_end</text>
<text text-anchor="middle" x="210" y="-641.15" font-family="Helvetica,sans-Serif" font-size="10.00">pe_n</text>
<text text-anchor="middle" x="210" y="-630.15" font-family="Helvetica,sans-Serif" font-size="10.00">pe_ne</text>
<text text-anchor="middle" x="210" y="-619.15" font-family="Helvetica,sans-Serif" font-size="10.00">pe_nw</text>
<text text-anchor="middle" x="210" y="-608.15" font-family="Helvetica,sans-Serif" font-size="10.00">pe_s</text>
<text text-anchor="middle" x="210" y="-597.15" font-family="Helvetica,sans-Serif" font-size="10.00">pe_se</text>
<text text-anchor="middle" x="210" y="-586.15" font-family="Helvetica,sans-Serif" font-size="10.00">pe_sw</text>
<text text-anchor="middle" x="210" y="-575.15" font-family="Helvetica,sans-Serif" font-size="10.00">pe_w</text>
<text text-anchor="middle" x="210" y="-564.15" font-family="Helvetica,sans-Serif" font-size="10.00">...</text>
</g>
<!-- Node5&#45;&gt;Node8 -->
<g id="edge14" class="edge">
<title>Node5&#45;&gt;Node8</title>
<path fill="none" stroke="#9a32cd" stroke-dasharray="5,2" d="M90.43,-509.33C106.8,-488.05 137.03,-452.85 171,-433.15 202.06,-415.14 226.13,-439.82 249,-412.15 283.77,-370.07 235.3,-211.59 267,-167.15 271.48,-160.86 277.96,-156.21 284.94,-152.77"/>
<polygon fill="#9a32cd" stroke="#9a32cd" points="87.49,-507.42 84.28,-517.52 93.08,-511.62 87.49,-507.42"/>
<text text-anchor="middle" x="210" y="-436.15" font-family="Helvetica,sans-Serif" font-size="10.00"> ids</text>
</g>
<!-- Node10 -->
<g id="node10" class="node">
<title>Node10</title>
<g id="a_node10"><a xlink:href="group__drifters__core__mod.html#structdrifters__core__mod_1_1drifters__core__type" target="_top" xlink:title="Core data needed for drifters. Be sure to update drifters_core_new, drifters_core_del and drifters_co...">
<polygon fill="white" stroke="black" points="272,-352.65 272,-371.65 376,-371.65 376,-352.65 272,-352.65"/>
<text text-anchor="middle" x="324" y="-359.65" font-family="Helvetica,sans-Serif" font-size="10.00">drifters_core_type</text>
</a>
</g>
</g>
<!-- Node5&#45;&gt;Node10 -->
<g id="edge19" class="edge">
<title>Node5&#45;&gt;Node10</title>
<path fill="none" stroke="#9a32cd" stroke-dasharray="5,2" d="M98.72,-511.67C117.1,-498.85 144.78,-480.89 171,-469.15 203.99,-454.38 218.53,-465.58 249,-446.15 280.3,-426.19 306.09,-389.25 317.16,-371.78"/>
<polygon fill="#9a32cd" stroke="#9a32cd" points="96.63,-508.87 90.49,-517.51 100.68,-514.58 96.63,-508.87"/>
<text text-anchor="middle" x="210" y="-505.15" font-family="Helvetica,sans-Serif" font-size="10.00"> ids</text>
<text text-anchor="middle" x="210" y="-494.15" font-family="Helvetica,sans-Serif" font-size="10.00">nd</text>
<text text-anchor="middle" x="210" y="-483.15" font-family="Helvetica,sans-Serif" font-size="10.00">np</text>
<text text-anchor="middle" x="210" y="-472.15" font-family="Helvetica,sans-Serif" font-size="10.00">npdim</text>
</g>
<!-- Node6 -->
<g id="node6" class="node">
<title>Node6</title>
<g id="a_node6"><a xlink:title=" ">
<polygon fill="white" stroke="#bfbfbf" points="59,-250.65 59,-269.65 94,-269.65 94,-250.65 59,-250.65"/>
<text text-anchor="middle" x="76.5" y="-257.65" font-family="Helvetica,sans-Serif" font-size="10.00">real</text>
</a>
</g>
</g>
<!-- Node6&#45;&gt;Node1 -->
<g id="edge21" class="edge">
<title>Node6&#45;&gt;Node1</title>
<path fill="none" stroke="#9a32cd" stroke-dasharray="5,2" d="M104.2,-259.01C119.92,-257.08 139.34,-252.37 153,-241.15 167.44,-229.29 155.21,-213.14 171,-203.15 205.83,-181.11 371.71,-214.74 381,-222.15 471.7,-294.51 486.31,-452.69 488.59,-493.42"/>
<polygon fill="#9a32cd" stroke="#9a32cd" points="103.66,-255.55 94.03,-259.95 104.31,-262.52 103.66,-255.55"/>
<text text-anchor="middle" x="324" y="-335.15" font-family="Helvetica,sans-Serif" font-size="10.00"> dt</text>
<text text-anchor="middle" x="324" y="-324.15" font-family="Helvetica,sans-Serif" font-size="10.00">fields</text>
<text text-anchor="middle" x="324" y="-313.15" font-family="Helvetica,sans-Serif" font-size="10.00">rk4_k1</text>
<text text-anchor="middle" x="324" y="-302.15" font-family="Helvetica,sans-Serif" font-size="10.00">rk4_k2</text>
<text text-anchor="middle" x="324" y="-291.15" font-family="Helvetica,sans-Serif" font-size="10.00">rk4_k3</text>
<text text-anchor="middle" x="324" y="-280.15" font-family="Helvetica,sans-Serif" font-size="10.00">rk4_k4</text>
<text text-anchor="middle" x="324" y="-269.15" font-family="Helvetica,sans-Serif" font-size="10.00">temp_pos</text>
<text text-anchor="middle" x="324" y="-258.15" font-family="Helvetica,sans-Serif" font-size="10.00">time</text>
<text text-anchor="middle" x="324" y="-247.15" font-family="Helvetica,sans-Serif" font-size="10.00">xu</text>
<text text-anchor="middle" x="324" y="-236.15" font-family="Helvetica,sans-Serif" font-size="10.00">xv</text>
<text text-anchor="middle" x="324" y="-225.15" font-family="Helvetica,sans-Serif" font-size="10.00">...</text>
</g>
<!-- Node6&#45;&gt;Node4 -->
<g id="edge6" class="edge">
<title>Node6&#45;&gt;Node4</title>
<path fill="none" stroke="#9a32cd" stroke-dasharray="5,2" d="M84.8,-279.52C100.07,-320.86 135.41,-421.08 153,-508.15 160.7,-546.25 145.8,-652.55 171,-682.15 194.28,-709.48 215.72,-689.68 249,-703.15 270.51,-711.85 293.66,-725.43 308.23,-734.55"/>
<polygon fill="#9a32cd" stroke="#9a32cd" points="87.99,-278.04 81.22,-269.9 81.43,-280.49 87.99,-278.04"/>
<text text-anchor="middle" x="210" y="-706.15" font-family="Helvetica,sans-Serif" font-size="10.00"> time</text>
</g>
<!-- Node6&#45;&gt;Node7 -->
<g id="edge10" class="edge">
<title>Node6&#45;&gt;Node7</title>
<path fill="none" stroke="#9a32cd" stroke-dasharray="5,2" d="M104.4,-263.19C150.23,-268.63 239.46,-280.47 249,-291.15 289.49,-336.5 231.88,-514.52 267,-564.15 271.46,-570.45 277.93,-575.11 284.9,-578.55"/>
<polygon fill="#9a32cd" stroke="#9a32cd" points="104.62,-259.69 94.28,-262.01 103.81,-266.64 104.62,-259.69"/>
<text text-anchor="middle" x="210" y="-404.15" font-family="Helvetica,sans-Serif" font-size="10.00"> xcmax</text>
<text text-anchor="middle" x="210" y="-393.15" font-family="Helvetica,sans-Serif" font-size="10.00">xcmin</text>
<text text-anchor="middle" x="210" y="-382.15" font-family="Helvetica,sans-Serif" font-size="10.00">xdmax</text>
<text text-anchor="middle" x="210" y="-371.15" font-family="Helvetica,sans-Serif" font-size="10.00">xdmin</text>
<text text-anchor="middle" x="210" y="-360.15" font-family="Helvetica,sans-Serif" font-size="10.00">xgmax</text>
<text text-anchor="middle" x="210" y="-349.15" font-family="Helvetica,sans-Serif" font-size="10.00">xgmin</text>
<text text-anchor="middle" x="210" y="-338.15" font-family="Helvetica,sans-Serif" font-size="10.00">ycmax</text>
<text text-anchor="middle" x="210" y="-327.15" font-family="Helvetica,sans-Serif" font-size="10.00">ycmin</text>
<text text-anchor="middle" x="210" y="-316.15" font-family="Helvetica,sans-Serif" font-size="10.00">ydmax</text>
<text text-anchor="middle" x="210" y="-305.15" font-family="Helvetica,sans-Serif" font-size="10.00">ydmin</text>
<text text-anchor="middle" x="210" y="-294.15" font-family="Helvetica,sans-Serif" font-size="10.00">...</text>
</g>
<!-- Node6&#45;&gt;Node8 -->
<g id="edge15" class="edge">
<title>Node6&#45;&gt;Node8</title>
<path fill="none" stroke="#9a32cd" stroke-dasharray="5,2" d="M104.05,-260.11C120.3,-258.64 140.33,-254.04 153,-241.15 177.64,-216.09 145.03,-187.83 171,-164.15 185.22,-151.18 231.82,-146.16 269.71,-144.25"/>
<polygon fill="#9a32cd" stroke="#9a32cd" points="103.83,-256.61 94.04,-260.67 104.22,-263.6 103.83,-256.61"/>
<text text-anchor="middle" x="210" y="-167.15" font-family="Helvetica,sans-Serif" font-size="10.00"> positions</text>
</g>
<!-- Node6&#45;&gt;Node10 -->
<g id="edge18" class="edge">
<title>Node6&#45;&gt;Node10</title>
<path fill="none" stroke="#9a32cd" stroke-dasharray="5,2" d="M104.11,-255.9C146.46,-249.76 226.69,-240.8 249,-257.15 270.43,-272.85 252.35,-291.99 267,-314.15 277.59,-330.17 295,-343.9 307.59,-352.52"/>
<polygon fill="#9a32cd" stroke="#9a32cd" points="103.59,-252.44 94.22,-257.39 104.63,-259.36 103.59,-252.44"/>
<text text-anchor="middle" x="210" y="-260.15" font-family="Helvetica,sans-Serif" font-size="10.00"> positions</text>
</g>
<!-- Node7&#45;&gt;Node1 -->
<g id="edge7" class="edge">
<title>Node7&#45;&gt;Node1</title>
<path fill="none" stroke="#9a32cd" stroke-dasharray="5,2" d="M356.7,-574.64C364.64,-571.23 373.14,-567.57 381,-564.15 404.17,-554.06 410.9,-553.4 433,-541.15 448.41,-532.6 464.99,-521.02 476.08,-512.9"/>
<polygon fill="#9a32cd" stroke="#9a32cd" points="355.19,-571.48 347.37,-578.63 357.94,-577.91 355.19,-571.48"/>
<text text-anchor="middle" x="416" y="-559.15" font-family="Helvetica,sans-Serif" font-size="10.00"> comm</text>
</g>
<!-- Node8&#45;&gt;Node1 -->
<g id="edge11" class="edge">
<title>Node8&#45;&gt;Node1</title>
<path fill="none" stroke="#9a32cd" stroke-dasharray="5,2" d="M388.47,-142.86C404.94,-145.88 421.31,-152.13 433,-164.15 480.4,-212.91 487.79,-443.71 488.84,-493.62"/>
<polygon fill="#9a32cd" stroke="#9a32cd" points="388.65,-139.35 378.25,-141.38 387.64,-146.28 388.65,-139.35"/>
<text text-anchor="middle" x="416" y="-167.15" font-family="Helvetica,sans-Serif" font-size="10.00"> input</text>
</g>
<!-- Node9 -->
<g id="node9" class="node">
<title>Node9</title>
<g id="a_node9"><a xlink:title=" ">
<polygon fill="white" stroke="#bfbfbf" points="12,-64.65 12,-105.65 141,-105.65 141,-64.65 12,-64.65"/>
<text text-anchor="start" x="20" y="-93.65" font-family="Helvetica,sans-Serif" font-size="10.00">character(len=max_str</text>
<text text-anchor="start" x="20" y="-82.65" font-family="Helvetica,sans-Serif" font-size="10.00">_len), dimension(:),</text>
<text text-anchor="middle" x="76.5" y="-71.65" font-family="Helvetica,sans-Serif" font-size="10.00"> allocatable</text>
</a>
</g>
</g>
<!-- Node9&#45;&gt;Node8 -->
<g id="edge13" class="edge">
<title>Node9&#45;&gt;Node8</title>
<path fill="none" stroke="#9a32cd" stroke-dasharray="5,2" d="M151.33,-75.35C182.26,-73.83 218.14,-75.54 249,-86.15 276.6,-95.64 301.97,-119.96 314.61,-133.57"/>
<polygon fill="#9a32cd" stroke="#9a32cd" points="150.81,-71.87 141.04,-75.98 151.23,-78.86 150.81,-71.87"/>
<text text-anchor="middle" x="210" y="-133.15" font-family="Helvetica,sans-Serif" font-size="10.00"> field_names</text>
<text text-anchor="middle" x="210" y="-122.15" font-family="Helvetica,sans-Serif" font-size="10.00">field_units</text>
<text text-anchor="middle" x="210" y="-111.15" font-family="Helvetica,sans-Serif" font-size="10.00">position_names</text>
<text text-anchor="middle" x="210" y="-100.15" font-family="Helvetica,sans-Serif" font-size="10.00">position_units</text>
<text text-anchor="middle" x="210" y="-89.15" font-family="Helvetica,sans-Serif" font-size="10.00">velocity_names</text>
</g>
<!-- Node10&#45;&gt;Node1 -->
<g id="edge16" class="edge">
<title>Node10&#45;&gt;Node1</title>
<path fill="none" stroke="#9a32cd" stroke-dasharray="5,2" d="M344.19,-378.64C378.63,-408.26 449.95,-469.57 477.65,-493.39"/>
<polygon fill="#9a32cd" stroke="#9a32cd" points="346.14,-375.71 336.27,-371.84 341.57,-381.01 346.14,-375.71"/>
<text text-anchor="middle" x="416" y="-456.15" font-family="Helvetica,sans-Serif" font-size="10.00"> core</text>
</g>
<!-- Node11 -->
<g id="node11" class="node">
<title>Node11</title>
<g id="a_node11"><a xlink:title=" ">
<polygon fill="white" stroke="#bfbfbf" points="15,-212.65 15,-231.65 138,-231.65 138,-212.65 15,-212.65"/>
<text text-anchor="middle" x="76.5" y="-219.65" font-family="Helvetica,sans-Serif" font-size="10.00">integer(kind=i8_kind)</text>
</a>
</g>
</g>
<!-- Node11&#45;&gt;Node10 -->
<g id="edge17" class="edge">
<title>Node11&#45;&gt;Node10</title>
<path fill="none" stroke="#9a32cd" stroke-dasharray="5,2" d="M124.98,-210.75C162.97,-204.64 215.3,-203.39 249,-232.15 277.38,-256.37 247.84,-282.13 267,-314.15 276.8,-330.52 294.16,-344.1 306.96,-352.58"/>
<polygon fill="#9a32cd" stroke="#9a32cd" points="123.9,-207.39 114.67,-212.59 125.13,-214.28 123.9,-207.39"/>
<text text-anchor="middle" x="210" y="-235.15" font-family="Helvetica,sans-Serif" font-size="10.00"> it</text>
</g>
</g>
</svg>
        <g id="navigator" transform="translate(0 0)" fill="#404254">
                <rect fill="#f2f5e9" fill-opacity="0.5" stroke="#606060" stroke-width=".5" x="0" y="0" width="60" height="60"/>
                <use id="zoomplus" xlink:href="#zoomPlus" x="17" y="9" onmousedown="handleZoom(evt,'in')"/>
                <use id="zoomminus" xlink:href="#zoomMin" x="42" y="9" onmousedown="handleZoom(evt,'out')"/>
                <use id="reset" xlink:href="#resetDef" x="30" y="36" onmousedown="handleReset()"/>
                <g id="arrowUp" xlink:href="#dirArrow" transform="translate(30 24)" onmousedown="handlePan(0,-1)">
                  <use xlink:href="#rim" fill="#404040">
                        <set attributeName="fill" to="#808080" begin="arrowUp.mouseover" end="arrowUp.mouseout"/>
                  </use>
                  <path fill="none" stroke="white" stroke-width="1.5" d="M0,-3.0v7 M-2.5,-0.5L0,-3.0L2.5,-0.5"/>
                </g>
                <g id="arrowRight" xlink:href="#dirArrow" transform="rotate(90) translate(36 -43)" onmousedown="handlePan(1,0)">
                  <use xlink:href="#rim" fill="#404040">
                        <set attributeName="fill" to="#808080" begin="arrowRight.mouseover" end="arrowRight.mouseout"/>
                  </use>
                  <path fill="none" stroke="white" stroke-width="1.5" d="M0,-3.0v7 M-2.5,-0.5L0,-3.0L2.5,-0.5"/>
                </g>
                <g id="arrowDown" xlink:href="#dirArrow" transform="rotate(180) translate(-30 -48)" onmousedown="handlePan(0,1)">
                  <use xlink:href="#rim" fill="#404040">
                        <set attributeName="fill" to="#808080" begin="arrowDown.mouseover" end="arrowDown.mouseout"/>
                  </use>
                  <path fill="none" stroke="white" stroke-width="1.5" d="M0,-3.0v7 M-2.5,-0.5L0,-3.0L2.5,-0.5"/>
                </g>
                <g id="arrowLeft" xlink:href="#dirArrow" transform="rotate(270) translate(-36 17)" onmousedown="handlePan(-1,0)">
                  <use xlink:href="#rim" fill="#404040">
                        <set attributeName="fill" to="#808080" begin="arrowLeft.mouseover" end="arrowLeft.mouseout"/>
                  </use>
                  <path fill="none" stroke="white" stroke-width="1.5" d="M0,-3.0v7 M-2.5,-0.5L0,-3.0L2.5,-0.5"/>
                </g>
        </g>
        <svg viewBox="0 0 15 15" width="100%" height="30px" preserveAspectRatio="xMaxYMin meet">
         <g id="arrow_out" transform="scale(0.3 0.3)">
          <a xlink:href="structdrifters__mod_1_1drifters__type__coll__graph_org.svg" target="_base">
           <rect id="button" ry="5" rx="5" y="6" x="6" height="38" width="38"
                fill="#f2f5e9" fill-opacity="0.5" stroke="#606060" stroke-width="1.0"/>
           <path id="arrow"
             d="M 11.500037,31.436501 C 11.940474,20.09759 22.043105,11.32322 32.158766,21.979434 L 37.068811,17.246167 C 37.068811,17.246167 37.088388,32 37.088388,32 L 22.160133,31.978069 C 22.160133,31.978069 26.997745,27.140456 26.997745,27.140456 C 18.528582,18.264221 13.291696,25.230495 11.500037,31.436501 z"
             style="fill:#404040;"/>
          </a>
         </g>
        </svg>
</svg>
