<?xml version="1.0" encoding="UTF-8" standalone="no"?>
<!DOCTYPE svg PUBLIC "-//W3C//DTD SVG 1.1//EN"
 "http://www.w3.org/Graphics/SVG/1.1/DTD/svg11.dtd">
<!-- Generated by graphviz version 2.43.0 (0)
 -->
<!-- Title: fmtable_t Pages: 1 -->
<!--zoomable 499 -->
<svg id="main" version="1.1" xmlns="http://www.w3.org/2000/svg" xmlns:xlink="http://www.w3.org/1999/xlink" xml:space="preserve" onload="init(evt)">
<style type="text/css"><![CDATA[
.edge:hover path { stroke: red; }
.edge:hover polygon { stroke: red; fill: red; }
]]></style>
<script type="text/javascript"><![CDATA[
var edges = document.getElementsByTagName('g');
if (edges && edges.length) {
  for (var i=0;i<edges.length;i++) {
    if (edges[i].id.substr(0,4)=='edge') {
      edges[i].setAttribute('class','edge');
    }
  }
}
]]></script>
        <defs>
                <circle id="rim" cx="0" cy="0" r="7"/>
                <circle id="rim2" cx="0" cy="0" r="3.5"/>
                <g id="zoomPlus">
                        <use xlink:href="#rim" fill="#404040">
                                <set attributeName="fill" to="#808080" begin="zoomplus.mouseover" end="zoomplus.mouseout"/>
                        </use>
                        <path d="M-4,0h8M0,-4v8" fill="none" stroke="white" stroke-width="1.5" pointer-events="none"/>
                </g>
                <g id="zoomMin">
                        <use xlink:href="#rim" fill="#404040">
                                <set attributeName="fill" to="#808080" begin="zoomminus.mouseover" end="zoomminus.mouseout"/>
                        </use>
                        <path d="M-4,0h8" fill="none" stroke="white" stroke-width="1.5" pointer-events="none"/>
                </g>
                <g id="dirArrow">
                        <path fill="none" stroke="white" stroke-width="1.5" d="M0,-3.0v7 M-2.5,-0.5L0,-3.0L2.5,-0.5"/>
                </g>
               <g id="resetDef">
                       <use xlink:href="#rim2" fill="#404040">
                               <set attributeName="fill" to="#808080" begin="reset.mouseover" end="reset.mouseout"/>
                       </use>
               </g>
        </defs>

<script type="text/javascript">
var viewWidth = 762;
var viewHeight = 499;
var sectionId = 'dynsection-2';
</script>
<script xlink:href="svgpan.js"/>
<svg id="graph" class="graph">
<g id="viewport">
<title>fmtable_t</title>
<polygon fill="white" stroke="transparent" points="-4,4 -4,-495 757.5,-495 757.5,4 -4,4"/>
<!-- Node1 -->
<g id="node1" class="node">
<title>Node1</title>
<g id="a_node1"><a xlink:title="This type represents the entirety of the field table. This type contains the file id of the yaml file...">
<polygon fill="#bfbfbf" stroke="black" points="588,-0.5 588,-19.5 652,-19.5 652,-0.5 588,-0.5"/>
<text text-anchor="middle" x="620" y="-7.5" font-family="Helvetica,sans-Serif" font-size="10.00">fmtable_t</text>
</a>
</g>
</g>
<!-- Node2 -->
<g id="node2" class="node">
<title>Node2</title>
<g id="a_node2"><a xlink:href="group__fm__yaml__mod.html#structfm__yaml__mod_1_1fmtype__t" target="_top" xlink:title="This type represents the entries for a specific field type, e.g. a tracer. This type contains the nam...">
<polygon fill="white" stroke="black" points="429.5,-67.5 429.5,-86.5 490.5,-86.5 490.5,-67.5 429.5,-67.5"/>
<text text-anchor="middle" x="460" y="-74.5" font-family="Helvetica,sans-Serif" font-size="10.00">fmtype_t</text>
</a>
</g>
</g>
<!-- Node2&#45;&gt;Node1 -->
<g id="edge1" class="edge">
<title>Node2&#45;&gt;Node1</title>
<path fill="none" stroke="#9a32cd" stroke-dasharray="5,2" d="M490.51,-63.6C522.28,-50.7 571.19,-30.83 598.92,-19.56"/>
<polygon fill="#9a32cd" stroke="#9a32cd" points="489.19,-60.36 481.25,-67.37 491.83,-66.85 489.19,-60.36"/>
<text text-anchor="middle" x="571.5" y="-41" font-family="Helvetica,sans-Serif" font-size="10.00"> children</text>
</g>
<!-- Node3 -->
<g id="node3" class="node">
<title>Node3</title>
<g id="a_node3"><a xlink:href="group__fm__yaml__mod.html#structfm__yaml__mod_1_1fmmodel__t" target="_top" xlink:title="This type represents the entries for a given model, e.g. land, ocean, atmosphere. This type contains ...">
<polygon fill="white" stroke="black" points="319,-134.5 319,-153.5 389,-153.5 389,-134.5 319,-134.5"/>
<text text-anchor="middle" x="354" y="-141.5" font-family="Helvetica,sans-Serif" font-size="10.00">fmmodel_t</text>
</a>
</g>
</g>
<!-- Node3&#45;&gt;Node2 -->
<g id="edge2" class="edge">
<title>Node3&#45;&gt;Node2</title>
<path fill="none" stroke="#9a32cd" stroke-dasharray="5,2" d="M371.54,-127.9C380.59,-120.5 392.02,-111.75 403,-105 414.48,-97.95 428.08,-91.44 439.12,-86.58"/>
<polygon fill="#9a32cd" stroke="#9a32cd" points="369.1,-125.37 363.67,-134.47 373.59,-130.74 369.1,-125.37"/>
<text text-anchor="middle" x="424.5" y="-108" font-family="Helvetica,sans-Serif" font-size="10.00"> children</text>
</g>
<!-- Node4 -->
<g id="node4" class="node">
<title>Node4</title>
<g id="a_node4"><a xlink:title=" ">
<polygon fill="white" stroke="#bfbfbf" points="0,-466 0,-485 156,-485 156,-466 0,-466"/>
<text text-anchor="middle" x="78" y="-473" font-family="Helvetica,sans-Serif" font-size="10.00">character(len=:), allocatable</text>
</a>
</g>
</g>
<!-- Node4&#45;&gt;Node2 -->
<g id="edge15" class="edge">
<title>Node4&#45;&gt;Node2</title>
<path fill="none" stroke="#9a32cd" stroke-dasharray="5,2" d="M56.43,-460.02C33.65,-442.8 1,-411.8 1,-375.5 1,-375.5 1,-375.5 1,-143 1,-99.64 326.26,-83.22 429.17,-79.11"/>
<polygon fill="#9a32cd" stroke="#9a32cd" points="54.43,-462.89 64.59,-465.92 58.54,-457.22 54.43,-462.89"/>
<text text-anchor="middle" x="16.5" y="-242.5" font-family="Helvetica,sans-Serif" font-size="10.00"> name</text>
</g>
<!-- Node4&#45;&gt;Node3 -->
<g id="edge3" class="edge">
<title>Node4&#45;&gt;Node3</title>
<path fill="none" stroke="#9a32cd" stroke-dasharray="5,2" d="M76.68,-455.54C75.1,-419.23 76.27,-338.75 112,-285 162.25,-209.41 268.21,-169.55 321.69,-153.56"/>
<polygon fill="#9a32cd" stroke="#9a32cd" points="73.19,-455.89 77.25,-465.68 80.18,-455.5 73.19,-455.89"/>
<text text-anchor="middle" x="127.5" y="-304.5" font-family="Helvetica,sans-Serif" font-size="10.00"> name</text>
</g>
<!-- Node6 -->
<g id="node6" class="node">
<title>Node6</title>
<g id="a_node6"><a xlink:href="group__fm__yaml__mod.html#structfm__yaml__mod_1_1fmvar__t" target="_top" xlink:title="This type represents the entries for a given variable, e.g. dust. This type contains the name of the ...">
<polygon fill="white" stroke="black" points="251.5,-235.5 251.5,-254.5 306.5,-254.5 306.5,-235.5 251.5,-235.5"/>
<text text-anchor="middle" x="279" y="-242.5" font-family="Helvetica,sans-Serif" font-size="10.00">fmvar_t</text>
</a>
</g>
</g>
<!-- Node4&#45;&gt;Node6 -->
<g id="edge11" class="edge">
<title>Node4&#45;&gt;Node6</title>
<path fill="none" stroke="#9a32cd" stroke-dasharray="5,2" d="M83.47,-456.01C95.68,-417.99 128.85,-330.76 188,-285 206.9,-270.38 232.1,-260.14 251.19,-253.83"/>
<polygon fill="#9a32cd" stroke="#9a32cd" points="80.07,-455.16 80.46,-465.75 86.75,-457.23 80.07,-455.16"/>
<text text-anchor="middle" x="148.5" y="-372" font-family="Helvetica,sans-Serif" font-size="10.00"> name</text>
</g>
<!-- Node7 -->
<g id="node7" class="node">
<title>Node7</title>
<g id="a_node7"><a xlink:href="group__fm__yaml__mod.html#structfm__yaml__mod_1_1fmattr__t" target="_top" xlink:title="This type represents the subparameters for a given variable parameter. This type contains the name of...">
<polygon fill="white" stroke="black" points="342,-365 342,-384 398,-384 398,-365 342,-365"/>
<text text-anchor="middle" x="370" y="-372" font-family="Helvetica,sans-Serif" font-size="10.00">fmattr_t</text>
</a>
</g>
</g>
<!-- Node4&#45;&gt;Node7 -->
<g id="edge7" class="edge">
<title>Node4&#45;&gt;Node7</title>
<path fill="none" stroke="#9a32cd" stroke-dasharray="5,2" d="M108.54,-462.25C139.68,-450.14 189.58,-431.76 234,-420 276.81,-408.66 291.13,-419.05 332,-402 342.39,-397.66 352.78,-390.14 360.07,-384.22"/>
<polygon fill="#9a32cd" stroke="#9a32cd" points="107.15,-459.04 99.12,-465.95 109.71,-465.55 107.15,-459.04"/>
<text text-anchor="middle" x="265.5" y="-428.5" font-family="Helvetica,sans-Serif" font-size="10.00"> paramname</text>
</g>
<!-- Node5 -->
<g id="node5" class="node">
<title>Node5</title>
<g id="a_node5"><a xlink:title=" ">
<polygon fill="white" stroke="#bfbfbf" points="403.5,-235.5 403.5,-254.5 502.5,-254.5 502.5,-235.5 403.5,-235.5"/>
<text text-anchor="middle" x="453" y="-242.5" font-family="Helvetica,sans-Serif" font-size="10.00">character(len=7)</text>
</a>
</g>
</g>
<!-- Node5&#45;&gt;Node2 -->
<g id="edge16" class="edge">
<title>Node5&#45;&gt;Node2</title>
<path fill="none" stroke="#9a32cd" stroke-dasharray="5,2" d="M453.8,-224.93C455.32,-188.92 458.56,-112.23 459.64,-86.57"/>
<polygon fill="#9a32cd" stroke="#9a32cd" points="450.3,-224.94 453.38,-235.08 457.29,-225.23 450.3,-224.94"/>
<text text-anchor="middle" x="487" y="-141.5" font-family="Helvetica,sans-Serif" font-size="10.00"> blockname</text>
</g>
<!-- Node5&#45;&gt;Node3 -->
<g id="edge4" class="edge">
<title>Node5&#45;&gt;Node3</title>
<path fill="none" stroke="#9a32cd" stroke-dasharray="5,2" d="M424.06,-230.8C411.91,-224.27 398.25,-215.51 388,-205 372.95,-189.57 362.26,-166.18 357.23,-153.65"/>
<polygon fill="#9a32cd" stroke="#9a32cd" points="422.48,-233.92 432.98,-235.36 425.67,-227.69 422.48,-233.92"/>
<text text-anchor="middle" x="417" y="-186" font-family="Helvetica,sans-Serif" font-size="10.00"> blockname</text>
</g>
<!-- Node6&#45;&gt;Node3 -->
<g id="edge5" class="edge">
<title>Node6&#45;&gt;Node3</title>
<path fill="none" stroke="#9a32cd" stroke-dasharray="5,2" d="M279.37,-225.28C280.6,-209.48 284.64,-187.07 297,-172 303.87,-163.62 313.95,-157.68 323.73,-153.55"/>
<polygon fill="#9a32cd" stroke="#9a32cd" points="275.86,-225.27 278.88,-235.42 282.86,-225.6 275.86,-225.27"/>
<text text-anchor="middle" x="318.5" y="-186" font-family="Helvetica,sans-Serif" font-size="10.00"> children</text>
</g>
<!-- Node7&#45;&gt;Node6 -->
<g id="edge6" class="edge">
<title>Node7&#45;&gt;Node6</title>
<path fill="none" stroke="#9a32cd" stroke-dasharray="5,2" d="M367.4,-354.9C363.93,-335.7 356.22,-305.71 340,-285 329.3,-271.34 312.41,-261.08 299.12,-254.51"/>
<polygon fill="#9a32cd" stroke="#9a32cd" points="363.95,-355.48 368.99,-364.8 370.86,-354.37 363.95,-355.48"/>
<text text-anchor="middle" x="382.5" y="-304.5" font-family="Helvetica,sans-Serif" font-size="10.00"> children</text>
</g>
<!-- Node8 -->
<g id="node8" class="node">
<title>Node8</title>
<g id="a_node8"><a xlink:title=" ">
<polygon fill="white" stroke="#bfbfbf" points="186.5,-460.5 186.5,-490.5 339.5,-490.5 339.5,-460.5 186.5,-460.5"/>
<text text-anchor="start" x="194.5" y="-478.5" font-family="Helvetica,sans-Serif" font-size="10.00">character(len=:), dimension</text>
<text text-anchor="middle" x="263" y="-467.5" font-family="Helvetica,sans-Serif" font-size="10.00">(:), allocatable</text>
</a>
</g>
</g>
<!-- Node8&#45;&gt;Node6 -->
<g id="edge12" class="edge">
<title>Node8&#45;&gt;Node6</title>
<path fill="none" stroke="#9a32cd" stroke-dasharray="5,2" d="M235.84,-454.18C214.62,-437.62 187.78,-414.93 182,-402 172.02,-379.68 172.87,-369.68 182,-347 199.06,-304.6 243.38,-270 265.72,-254.62"/>
<polygon fill="#9a32cd" stroke="#9a32cd" points="233.88,-457.08 243.93,-460.41 238.15,-451.53 233.88,-457.08"/>
<text text-anchor="middle" x="198.5" y="-377.5" font-family="Helvetica,sans-Serif" font-size="10.00"> keys</text>
<text text-anchor="middle" x="198.5" y="-366.5" font-family="Helvetica,sans-Serif" font-size="10.00">values</text>
</g>
<!-- Node8&#45;&gt;Node7 -->
<g id="edge8" class="edge">
<title>Node8&#45;&gt;Node7</title>
<path fill="none" stroke="#9a32cd" stroke-dasharray="5,2" d="M285.74,-453.46C309.04,-431.9 344.13,-399.43 360.7,-384.1"/>
<polygon fill="#9a32cd" stroke="#9a32cd" points="283.29,-450.96 278.33,-460.32 288.05,-456.09 283.29,-450.96"/>
<text text-anchor="middle" x="336.5" y="-434" font-family="Helvetica,sans-Serif" font-size="10.00"> keys</text>
<text text-anchor="middle" x="336.5" y="-423" font-family="Helvetica,sans-Serif" font-size="10.00">values</text>
</g>
<!-- Node9 -->
<g id="node9" class="node">
<title>Node9</title>
<g id="a_node9"><a xlink:title=" ">
<polygon fill="white" stroke="#bfbfbf" points="482.5,-466 482.5,-485 533.5,-485 533.5,-466 482.5,-466"/>
<text text-anchor="middle" x="508" y="-473" font-family="Helvetica,sans-Serif" font-size="10.00">integer</text>
</a>
</g>
</g>
<!-- Node9&#45;&gt;Node1 -->
<g id="edge19" class="edge">
<title>Node9&#45;&gt;Node1</title>
<path fill="none" stroke="#9a32cd" stroke-dasharray="5,2" d="M540.83,-461.9C573.88,-446.82 620,-418.13 620,-375.5 620,-375.5 620,-375.5 620,-76 620,-55.91 620,-32.33 620,-19.83"/>
<polygon fill="#9a32cd" stroke="#9a32cd" points="539.25,-458.77 531.48,-465.97 542.04,-465.19 539.25,-458.77"/>
<text text-anchor="middle" x="643" y="-197" font-family="Helvetica,sans-Serif" font-size="10.00"> child_ids</text>
<text text-anchor="middle" x="643" y="-186" font-family="Helvetica,sans-Serif" font-size="10.00">nchildren</text>
<text text-anchor="middle" x="643" y="-175" font-family="Helvetica,sans-Serif" font-size="10.00">yfid</text>
</g>
<!-- Node9&#45;&gt;Node2 -->
<g id="edge17" class="edge">
<title>Node9&#45;&gt;Node2</title>
<path fill="none" stroke="#9a32cd" stroke-dasharray="5,2" d="M519.12,-457.15C530.34,-437.97 546,-405.76 546,-375.5 546,-375.5 546,-375.5 546,-143 546,-113.8 514.06,-96.05 489.12,-86.64"/>
<polygon fill="#9a32cd" stroke="#9a32cd" points="516,-455.56 513.77,-465.92 521.97,-459.21 516,-455.56"/>
<text text-anchor="middle" x="569" y="-259" font-family="Helvetica,sans-Serif" font-size="10.00"> child_ids</text>
<text text-anchor="middle" x="569" y="-248" font-family="Helvetica,sans-Serif" font-size="10.00">id</text>
<text text-anchor="middle" x="569" y="-237" font-family="Helvetica,sans-Serif" font-size="10.00">nchildren</text>
<text text-anchor="middle" x="569" y="-226" font-family="Helvetica,sans-Serif" font-size="10.00">yfid</text>
</g>
<!-- Node9&#45;&gt;Node3 -->
<g id="edge14" class="edge">
<title>Node9&#45;&gt;Node3</title>
<path fill="none" stroke="#9a32cd" stroke-dasharray="5,2" d="M509.61,-455.72C511.04,-429.92 510.75,-382.66 494,-347 477.7,-312.29 465.38,-307.04 434,-285 418.05,-273.79 407.61,-280.96 394,-267 362.11,-234.28 355.64,-175.73 354.33,-153.7"/>
<polygon fill="#9a32cd" stroke="#9a32cd" points="506.1,-455.72 508.89,-465.94 513.09,-456.22 506.1,-455.72"/>
<text text-anchor="middle" x="508" y="-321" font-family="Helvetica,sans-Serif" font-size="10.00"> child_ids</text>
<text text-anchor="middle" x="508" y="-310" font-family="Helvetica,sans-Serif" font-size="10.00">id</text>
<text text-anchor="middle" x="508" y="-299" font-family="Helvetica,sans-Serif" font-size="10.00">nchildren</text>
<text text-anchor="middle" x="508" y="-288" font-family="Helvetica,sans-Serif" font-size="10.00">yfid</text>
</g>
<!-- Node9&#45;&gt;Node6 -->
<g id="edge13" class="edge">
<title>Node9&#45;&gt;Node6</title>
<path fill="none" stroke="#9a32cd" stroke-dasharray="5,2" d="M491.94,-458.63C478.63,-444.73 460.01,-423.45 448,-402 421.15,-354.05 447.68,-323.02 408,-285 387.59,-265.44 374.06,-275.17 347,-267 333.63,-262.96 318.82,-258.4 306.44,-254.56"/>
<polygon fill="#9a32cd" stroke="#9a32cd" points="489.57,-461.22 499.07,-465.91 494.57,-456.32 489.57,-461.22"/>
<text text-anchor="middle" x="471" y="-394" font-family="Helvetica,sans-Serif" font-size="10.00"> child_ids</text>
<text text-anchor="middle" x="471" y="-383" font-family="Helvetica,sans-Serif" font-size="10.00">id</text>
<text text-anchor="middle" x="471" y="-372" font-family="Helvetica,sans-Serif" font-size="10.00">key_ids</text>
<text text-anchor="middle" x="471" y="-361" font-family="Helvetica,sans-Serif" font-size="10.00">nchildren</text>
<text text-anchor="middle" x="471" y="-350" font-family="Helvetica,sans-Serif" font-size="10.00">yfid</text>
</g>
<!-- Node9&#45;&gt;Node7 -->
<g id="edge9" class="edge">
<title>Node9&#45;&gt;Node7</title>
<path fill="none" stroke="#9a32cd" stroke-dasharray="5,2" d="M472.29,-471.12C449.59,-467.31 420.84,-459.21 401,-442 383.11,-426.47 374.85,-398.4 371.67,-384.21"/>
<polygon fill="#9a32cd" stroke="#9a32cd" points="471.84,-474.59 482.25,-472.58 472.86,-467.66 471.84,-474.59"/>
<text text-anchor="middle" x="410.5" y="-434" font-family="Helvetica,sans-Serif" font-size="10.00"> id</text>
<text text-anchor="middle" x="410.5" y="-423" font-family="Helvetica,sans-Serif" font-size="10.00">yfid</text>
</g>
<!-- Node10 -->
<g id="node10" class="node">
<title>Node10</title>
<g id="a_node10"><a xlink:title=" ">
<polygon fill="white" stroke="#bfbfbf" points="224.5,-365 224.5,-384 323.5,-384 323.5,-365 224.5,-365"/>
<text text-anchor="middle" x="274" y="-372" font-family="Helvetica,sans-Serif" font-size="10.00">character(len=9)</text>
</a>
</g>
</g>
<!-- Node10&#45;&gt;Node6 -->
<g id="edge10" class="edge">
<title>Node10&#45;&gt;Node6</title>
<path fill="none" stroke="#9a32cd" stroke-dasharray="5,2" d="M274.74,-354.66C275.83,-326.71 277.85,-275.36 278.65,-254.82"/>
<polygon fill="#9a32cd" stroke="#9a32cd" points="271.24,-354.61 274.34,-364.74 278.23,-354.88 271.24,-354.61"/>
<text text-anchor="middle" x="307" y="-304.5" font-family="Helvetica,sans-Serif" font-size="10.00"> blockname</text>
</g>
<!-- Node11 -->
<g id="node11" class="node">
<title>Node11</title>
<g id="a_node11"><a xlink:title=" ">
<polygon fill="white" stroke="#bfbfbf" points="648.5,-67.5 648.5,-86.5 753.5,-86.5 753.5,-67.5 648.5,-67.5"/>
<text text-anchor="middle" x="701" y="-74.5" font-family="Helvetica,sans-Serif" font-size="10.00">character(len=11)</text>
</a>
</g>
</g>
<!-- Node11&#45;&gt;Node1 -->
<g id="edge18" class="edge">
<title>Node11&#45;&gt;Node1</title>
<path fill="none" stroke="#9a32cd" stroke-dasharray="5,2" d="M681.95,-60.71C665.99,-47.91 643.79,-30.09 630.75,-19.63"/>
<polygon fill="#9a32cd" stroke="#9a32cd" points="680.09,-63.7 690.08,-67.23 684.47,-58.25 680.09,-63.7"/>
<text text-anchor="middle" x="694" y="-41" font-family="Helvetica,sans-Serif" font-size="10.00"> blockname</text>
</g>
</g>
</svg>
        <g id="navigator" transform="translate(0 0)" fill="#404254">
                <rect fill="#f2f5e9" fill-opacity="0.5" stroke="#606060" stroke-width=".5" x="0" y="0" width="60" height="60"/>
                <use id="zoomplus" xlink:href="#zoomPlus" x="17" y="9" onmousedown="handleZoom(evt,'in')"/>
                <use id="zoomminus" xlink:href="#zoomMin" x="42" y="9" onmousedown="handleZoom(evt,'out')"/>
                <use id="reset" xlink:href="#resetDef" x="30" y="36" onmousedown="handleReset()"/>
                <g id="arrowUp" xlink:href="#dirArrow" transform="translate(30 24)" onmousedown="handlePan(0,-1)">
                  <use xlink:href="#rim" fill="#404040">
                        <set attributeName="fill" to="#808080" begin="arrowUp.mouseover" end="arrowUp.mouseout"/>
                  </use>
                  <path fill="none" stroke="white" stroke-width="1.5" d="M0,-3.0v7 M-2.5,-0.5L0,-3.0L2.5,-0.5"/>
                </g>
                <g id="arrowRight" xlink:href="#dirArrow" transform="rotate(90) translate(36 -43)" onmousedown="handlePan(1,0)">
                  <use xlink:href="#rim" fill="#404040">
                        <set attributeName="fill" to="#808080" begin="arrowRight.mouseover" end="arrowRight.mouseout"/>
                  </use>
                  <path fill="none" stroke="white" stroke-width="1.5" d="M0,-3.0v7 M-2.5,-0.5L0,-3.0L2.5,-0.5"/>
                </g>
                <g id="arrowDown" xlink:href="#dirArrow" transform="rotate(180) translate(-30 -48)" onmousedown="handlePan(0,1)">
                  <use xlink:href="#rim" fill="#404040">
                        <set attributeName="fill" to="#808080" begin="arrowDown.mouseover" end="arrowDown.mouseout"/>
                  </use>
                  <path fill="none" stroke="white" stroke-width="1.5" d="M0,-3.0v7 M-2.5,-0.5L0,-3.0L2.5,-0.5"/>
                </g>
                <g id="arrowLeft" xlink:href="#dirArrow" transform="rotate(270) translate(-36 17)" onmousedown="handlePan(-1,0)">
                  <use xlink:href="#rim" fill="#404040">
                        <set attributeName="fill" to="#808080" begin="arrowLeft.mouseover" end="arrowLeft.mouseout"/>
                  </use>
                  <path fill="none" stroke="white" stroke-width="1.5" d="M0,-3.0v7 M-2.5,-0.5L0,-3.0L2.5,-0.5"/>
                </g>
        </g>
        <svg viewBox="0 0 15 15" width="100%" height="30px" preserveAspectRatio="xMaxYMin meet">
         <g id="arrow_out" transform="scale(0.3 0.3)">
          <a xlink:href="structfm__yaml__mod_1_1fmtable__t__coll__graph_org.svg" target="_base">
           <rect id="button" ry="5" rx="5" y="6" x="6" height="38" width="38"
                fill="#f2f5e9" fill-opacity="0.5" stroke="#606060" stroke-width="1.0"/>
           <path id="arrow"
             d="M 11.500037,31.436501 C 11.940474,20.09759 22.043105,11.32322 32.158766,21.979434 L 37.068811,17.246167 C 37.068811,17.246167 37.088388,32 37.088388,32 L 22.160133,31.978069 C 22.160133,31.978069 26.997745,27.140456 26.997745,27.140456 C 18.528582,18.264221 13.291696,25.230495 11.500037,31.436501 z"
             style="fill:#404040;"/>
          </a>
         </g>
        </svg>
</svg>
