<?xml version="1.0" encoding="UTF-8" standalone="no"?>
<!DOCTYPE svg PUBLIC "-//W3C//DTD SVG 1.1//EN"
 "http://www.w3.org/Graphics/SVG/1.1/DTD/svg11.dtd">
<!-- Generated by graphviz version 2.43.0 (0)
 -->
<!-- Title: block_control_type Pages: 1 -->
<svg width="210pt" height="274pt"
 viewBox="0.00 0.00 210.29 274.00" xmlns="http://www.w3.org/2000/svg" xmlns:xlink="http://www.w3.org/1999/xlink">
<g id="graph0" class="graph" transform="scale(1 1) rotate(0) translate(4 270)">
<title>block_control_type</title>
<polygon fill="white" stroke="transparent" points="-4,4 -4,-270 206.29,-270 206.29,4 -4,4"/>
<!-- Node1 -->
<g id="node1" class="node">
<title>Node1</title>
<g id="a_node1"><a xlink:title="Block data and extents for OpenMP threading of column&#45;based calculations.">
<polygon fill="#bfbfbf" stroke="black" points="46.79,-0.5 46.79,-19.5 155.79,-19.5 155.79,-0.5 46.79,-0.5"/>
<text text-anchor="middle" x="101.29" y="-7.5" font-family="Helvetica,sans-Serif" font-size="10.00">block_control_type</text>
</a>
</g>
</g>
<!-- Node2 -->
<g id="node2" class="node">
<title>Node2</title>
<g id="a_node2"><a xlink:href="group__block__control__mod.html#structblock__control__mod_1_1ix__type" target="_top" xlink:title="Type to dereference packed index from global index.">
<polygon fill="white" stroke="black" points="74.79,-118 74.79,-137 127.79,-137 127.79,-118 74.79,-118"/>
<text text-anchor="middle" x="101.29" y="-125" font-family="Helvetica,sans-Serif" font-size="10.00">ix_type</text>
</a>
</g>
</g>
<!-- Node2&#45;&gt;Node1 -->
<g id="edge1" class="edge">
<title>Node2&#45;&gt;Node1</title>
<path fill="none" stroke="#9a32cd" stroke-dasharray="5,2" d="M101.29,-107.66C101.29,-82.37 101.29,-38.44 101.29,-19.78"/>
<polygon fill="#9a32cd" stroke="#9a32cd" points="97.79,-107.82 101.29,-117.82 104.79,-107.82 97.79,-107.82"/>
<text text-anchor="middle" x="107.79" y="-41" font-family="Helvetica,sans-Serif" font-size="10.00"> ix</text>
</g>
<!-- Node3 -->
<g id="node3" class="node">
<title>Node3</title>
<g id="a_node3"><a xlink:title=" ">
<polygon fill="white" stroke="#bfbfbf" points="75.79,-246.5 75.79,-265.5 126.79,-265.5 126.79,-246.5 75.79,-246.5"/>
<text text-anchor="middle" x="101.29" y="-253.5" font-family="Helvetica,sans-Serif" font-size="10.00">integer</text>
</a>
</g>
</g>
<!-- Node3&#45;&gt;Node1 -->
<g id="edge5" class="edge">
<title>Node3&#45;&gt;Node1</title>
<path fill="none" stroke="#9a32cd" stroke-dasharray="5,2" d="M74.2,-241.6C54.67,-230.29 29.8,-212.09 18.29,-188 -4.9,-139.48 -6.95,-114.48 18.29,-67 30.69,-43.67 57.63,-28.3 77.47,-19.67"/>
<polygon fill="#9a32cd" stroke="#9a32cd" points="72.56,-244.69 83.01,-246.45 75.94,-238.56 72.56,-244.69"/>
<text text-anchor="middle" x="41.79" y="-180" font-family="Helvetica,sans-Serif" font-size="10.00"> ny_block</text>
<text text-anchor="middle" x="41.79" y="-169" font-family="Helvetica,sans-Serif" font-size="10.00">npz</text>
<text text-anchor="middle" x="41.79" y="-158" font-family="Helvetica,sans-Serif" font-size="10.00">iec</text>
<text text-anchor="middle" x="41.79" y="-147" font-family="Helvetica,sans-Serif" font-size="10.00">blksz</text>
<text text-anchor="middle" x="41.79" y="-136" font-family="Helvetica,sans-Serif" font-size="10.00">jec</text>
<text text-anchor="middle" x="41.79" y="-125" font-family="Helvetica,sans-Serif" font-size="10.00">ibs</text>
<text text-anchor="middle" x="41.79" y="-114" font-family="Helvetica,sans-Serif" font-size="10.00">jbs</text>
<text text-anchor="middle" x="41.79" y="-103" font-family="Helvetica,sans-Serif" font-size="10.00">isc</text>
<text text-anchor="middle" x="41.79" y="-92" font-family="Helvetica,sans-Serif" font-size="10.00">jsc</text>
<text text-anchor="middle" x="41.79" y="-81" font-family="Helvetica,sans-Serif" font-size="10.00">ibe</text>
<text text-anchor="middle" x="41.79" y="-70" font-family="Helvetica,sans-Serif" font-size="10.00">...</text>
</g>
<!-- Node3&#45;&gt;Node2 -->
<g id="edge2" class="edge">
<title>Node3&#45;&gt;Node2</title>
<path fill="none" stroke="#9a32cd" stroke-dasharray="5,2" d="M101.29,-235.94C101.29,-208.12 101.29,-157.54 101.29,-137.26"/>
<polygon fill="#9a32cd" stroke="#9a32cd" points="97.79,-236.31 101.29,-246.31 104.79,-236.31 97.79,-236.31"/>
<text text-anchor="middle" x="107.79" y="-214.5" font-family="Helvetica,sans-Serif" font-size="10.00"> ix</text>
</g>
<!-- Node4 -->
<g id="node4" class="node">
<title>Node4</title>
<g id="a_node4"><a xlink:href="group__block__control__mod.html#structblock__control__mod_1_1pk__type" target="_top" xlink:title="Type to dereference packed index from global indices.">
<polygon fill="white" stroke="black" points="146.29,-118 146.29,-137 202.29,-137 202.29,-118 146.29,-118"/>
<text text-anchor="middle" x="174.29" y="-125" font-family="Helvetica,sans-Serif" font-size="10.00">pk_type</text>
</a>
</g>
</g>
<!-- Node3&#45;&gt;Node4 -->
<g id="edge4" class="edge">
<title>Node3&#45;&gt;Node4</title>
<path fill="none" stroke="#9a32cd" stroke-dasharray="5,2" d="M112.57,-237.36C114.51,-234.26 116.48,-231.05 118.29,-228 138.07,-194.79 160.21,-154.44 169.64,-137.1"/>
<polygon fill="#9a32cd" stroke="#9a32cd" points="109.45,-235.75 107.07,-246.07 115.37,-239.48 109.45,-235.75"/>
<text text-anchor="middle" x="136.29" y="-220" font-family="Helvetica,sans-Serif" font-size="10.00"> jj</text>
<text text-anchor="middle" x="136.29" y="-209" font-family="Helvetica,sans-Serif" font-size="10.00">ii</text>
</g>
<!-- Node4&#45;&gt;Node1 -->
<g id="edge3" class="edge">
<title>Node4&#45;&gt;Node1</title>
<path fill="none" stroke="#9a32cd" stroke-dasharray="5,2" d="M163.45,-109.34C147.65,-84.36 118.9,-38.86 106.84,-19.78"/>
<polygon fill="#9a32cd" stroke="#9a32cd" points="160.5,-111.24 168.8,-117.82 166.42,-107.5 160.5,-111.24"/>
<text text-anchor="middle" x="140.79" y="-41" font-family="Helvetica,sans-Serif" font-size="10.00"> index</text>
</g>
</g>
</svg>
