<?xml version="1.0" encoding="UTF-8" standalone="no"?>
<!DOCTYPE svg PUBLIC "-//W3C//DTD SVG 1.1//EN"
 "http://www.w3.org/Graphics/SVG/1.1/DTD/svg11.dtd">
<!-- Generated by graphviz version 2.43.0 (0)
 -->
<!-- Title: domain2d_spec Pages: 1 -->
<svg width="250pt" height="306pt"
 viewBox="0.00 0.00 249.50 306.00" xmlns="http://www.w3.org/2000/svg" xmlns:xlink="http://www.w3.org/1999/xlink">
<g id="graph0" class="graph" transform="scale(1 1) rotate(0) translate(4 302)">
<title>domain2d_spec</title>
<polygon fill="white" stroke="transparent" points="-4,4 -4,-302 245.5,-302 245.5,4 -4,4"/>
<!-- Node1 -->
<g id="node1" class="node">
<title>Node1</title>
<g id="a_node1"><a xlink:title="Private type to specify multiple index limits and pe information for a 2D domain.">
<polygon fill="#bfbfbf" stroke="black" points="0,-0.5 0,-19.5 93,-19.5 93,-0.5 0,-0.5"/>
<text text-anchor="middle" x="46.5" y="-7.5" font-family="Helvetica,sans-Serif" font-size="10.00">domain2d_spec</text>
</a>
</g>
</g>
<!-- Node2 -->
<g id="node2" class="node">
<title>Node2</title>
<g id="a_node2"><a xlink:href="group__mpp__domains__mod.html#structmpp__domains__mod_1_1domain1d__spec" target="_top" xlink:title="A private type used to specify index limits for a domain decomposition.">
<polygon fill="white" stroke="black" points="48,-78.5 48,-97.5 141,-97.5 141,-78.5 48,-78.5"/>
<text text-anchor="middle" x="94.5" y="-85.5" font-family="Helvetica,sans-Serif" font-size="10.00">domain1d_spec</text>
</a>
</g>
</g>
<!-- Node2&#45;&gt;Node1 -->
<g id="edge1" class="edge">
<title>Node2&#45;&gt;Node1</title>
<path fill="none" stroke="#9a32cd" stroke-dasharray="5,2" d="M83.49,-69.57C73.63,-53.95 59.57,-31.7 51.94,-19.62"/>
<polygon fill="#9a32cd" stroke="#9a32cd" points="80.69,-71.7 88.99,-78.28 86.61,-67.96 80.69,-71.7"/>
<text text-anchor="middle" x="80.5" y="-52" font-family="Helvetica,sans-Serif" font-size="10.00"> x</text>
<text text-anchor="middle" x="80.5" y="-41" font-family="Helvetica,sans-Serif" font-size="10.00">y</text>
</g>
<!-- Node3 -->
<g id="node3" class="node">
<title>Node3</title>
<g id="a_node3"><a xlink:href="group__mpp__domains__mod.html#structmpp__domains__mod_1_1domain__axis__spec" target="_top" xlink:title="Used to specify index limits along an axis of a domain.">
<polygon fill="white" stroke="black" points="132,-178.5 132,-197.5 239,-197.5 239,-178.5 132,-178.5"/>
<text text-anchor="middle" x="185.5" y="-185.5" font-family="Helvetica,sans-Serif" font-size="10.00">domain_axis_spec</text>
</a>
</g>
</g>
<!-- Node3&#45;&gt;Node2 -->
<g id="edge2" class="edge">
<title>Node3&#45;&gt;Node2</title>
<path fill="none" stroke="#9a32cd" stroke-dasharray="5,2" d="M170.46,-170.8C150.94,-149.78 117.59,-113.87 102.43,-97.54"/>
<polygon fill="#9a32cd" stroke="#9a32cd" points="168.06,-173.36 177.42,-178.3 173.18,-168.59 168.06,-173.36"/>
<text text-anchor="middle" x="180" y="-141" font-family="Helvetica,sans-Serif" font-size="10.00"> global</text>
<text text-anchor="middle" x="180" y="-130" font-family="Helvetica,sans-Serif" font-size="10.00">compute</text>
</g>
<!-- Node4 -->
<g id="node4" class="node">
<title>Node4</title>
<g id="a_node4"><a xlink:title=" ">
<polygon fill="white" stroke="#bfbfbf" points="174,-278.5 174,-297.5 223,-297.5 223,-278.5 174,-278.5"/>
<text text-anchor="middle" x="198.5" y="-285.5" font-family="Helvetica,sans-Serif" font-size="10.00">logical</text>
</a>
</g>
</g>
<!-- Node4&#45;&gt;Node3 -->
<g id="edge3" class="edge">
<title>Node4&#45;&gt;Node3</title>
<path fill="none" stroke="#9a32cd" stroke-dasharray="5,2" d="M196.01,-268.22C193.19,-246.95 188.71,-213.22 186.63,-197.54"/>
<polygon fill="#9a32cd" stroke="#9a32cd" points="192.56,-268.85 197.35,-278.3 199.5,-267.93 192.56,-268.85"/>
<text text-anchor="middle" x="218" y="-235.5" font-family="Helvetica,sans-Serif" font-size="10.00"> is_global</text>
</g>
<!-- Node5 -->
<g id="node5" class="node">
<title>Node5</title>
<g id="a_node5"><a xlink:title=" ">
<polygon fill="white" stroke="#bfbfbf" points="67,-278.5 67,-297.5 118,-297.5 118,-278.5 67,-278.5"/>
<text text-anchor="middle" x="92.5" y="-285.5" font-family="Helvetica,sans-Serif" font-size="10.00">integer</text>
</a>
</g>
</g>
<!-- Node5&#45;&gt;Node1 -->
<g id="edge6" class="edge">
<title>Node5&#45;&gt;Node1</title>
<path fill="none" stroke="#9a32cd" stroke-dasharray="5,2" d="M81.1,-269.75C66.24,-246.15 41.05,-201.92 31.5,-160 19.55,-107.53 36.73,-42.49 43.75,-19.52"/>
<polygon fill="#9a32cd" stroke="#9a32cd" points="78.23,-271.76 86.58,-278.27 84.11,-267.97 78.23,-271.76"/>
<text text-anchor="middle" x="60.5" y="-152" font-family="Helvetica,sans-Serif" font-size="10.00"> tile_id</text>
<text text-anchor="middle" x="60.5" y="-141" font-family="Helvetica,sans-Serif" font-size="10.00">pe</text>
<text text-anchor="middle" x="60.5" y="-130" font-family="Helvetica,sans-Serif" font-size="10.00">tile_root_pe</text>
<text text-anchor="middle" x="60.5" y="-119" font-family="Helvetica,sans-Serif" font-size="10.00">pos</text>
</g>
<!-- Node5&#45;&gt;Node2 -->
<g id="edge5" class="edge">
<title>Node5&#45;&gt;Node2</title>
<path fill="none" stroke="#9a32cd" stroke-dasharray="5,2" d="M92.69,-268.4C93.11,-226.81 94.11,-127.63 94.41,-97.7"/>
<polygon fill="#9a32cd" stroke="#9a32cd" points="89.19,-268.46 92.59,-278.49 96.19,-268.53 89.19,-268.46"/>
<text text-anchor="middle" x="104" y="-185.5" font-family="Helvetica,sans-Serif" font-size="10.00"> pos</text>
</g>
<!-- Node5&#45;&gt;Node3 -->
<g id="edge4" class="edge">
<title>Node5&#45;&gt;Node3</title>
<path fill="none" stroke="#9a32cd" stroke-dasharray="5,2" d="M99.99,-268.54C107.03,-252.98 118.84,-230.94 134.5,-216 142.69,-208.19 153.59,-202.01 163.21,-197.55"/>
<polygon fill="#9a32cd" stroke="#9a32cd" points="96.61,-267.53 95.88,-278.1 103.04,-270.29 96.61,-267.53"/>
<text text-anchor="middle" x="159.5" y="-252" font-family="Helvetica,sans-Serif" font-size="10.00"> max_size</text>
<text text-anchor="middle" x="159.5" y="-241" font-family="Helvetica,sans-Serif" font-size="10.00">size</text>
<text text-anchor="middle" x="159.5" y="-230" font-family="Helvetica,sans-Serif" font-size="10.00">begin</text>
<text text-anchor="middle" x="159.5" y="-219" font-family="Helvetica,sans-Serif" font-size="10.00">end</text>
</g>
</g>
</svg>
