<?xml version="1.0" encoding="UTF-8" standalone="no"?>
<!DOCTYPE svg PUBLIC "-//W3C//DTD SVG 1.1//EN"
 "http://www.w3.org/Graphics/SVG/1.1/DTD/svg11.dtd">
<!-- Generated by graphviz version 2.43.0 (0)
 -->
<!-- Title: field_def Pages: 1 -->
<svg width="532pt" height="196pt"
 viewBox="0.00 0.00 531.50 196.00" xmlns="http://www.w3.org/2000/svg" xmlns:xlink="http://www.w3.org/1999/xlink">
<g id="graph0" class="graph" transform="scale(1 1) rotate(0) translate(4 192)">
<title>field_def</title>
<polygon fill="white" stroke="transparent" points="-4,4 -4,-192 527.5,-192 527.5,4 -4,4"/>
<!-- Node1 -->
<g id="node1" class="node">
<title>Node1</title>
<g id="a_node1"><a xlink:title="Private type for internal use.">
<polygon fill="#bfbfbf" stroke="black" points="265,-18 265,-37 324,-37 324,-18 265,-18"/>
<text text-anchor="middle" x="294.5" y="-25" font-family="Helvetica,sans-Serif" font-size="10.00">field_def</text>
</a>
</g>
</g>
<!-- Node1&#45;&gt;Node1 -->
<g id="edge3" class="edge">
<title>Node1&#45;&gt;Node1</title>
<path fill="none" stroke="#9a32cd" stroke-dasharray="5,2" d="M315.47,-40.96C328.98,-44.49 342,-40 342,-27.5 342,-12.11 322.28,-8.87 306.19,-17.76"/>
<polygon fill="#9a32cd" stroke="#9a32cd" points="316.77,-37.71 306.19,-37.24 314.17,-44.21 316.77,-37.71"/>
<text text-anchor="middle" x="365" y="-47" font-family="Helvetica,sans-Serif" font-size="10.00"> prev</text>
<text text-anchor="middle" x="365" y="-36" font-family="Helvetica,sans-Serif" font-size="10.00">last_field</text>
<text text-anchor="middle" x="365" y="-25" font-family="Helvetica,sans-Serif" font-size="10.00">next</text>
<text text-anchor="middle" x="365" y="-14" font-family="Helvetica,sans-Serif" font-size="10.00">first_field</text>
<text text-anchor="middle" x="365" y="-3" font-family="Helvetica,sans-Serif" font-size="10.00">parent</text>
</g>
<!-- Node2 -->
<g id="node2" class="node">
<title>Node2</title>
<g id="a_node2"><a xlink:title=" ">
<polygon fill="white" stroke="#bfbfbf" points="0,-163 0,-182 49,-182 49,-163 0,-163"/>
<text text-anchor="middle" x="24.5" y="-170" font-family="Helvetica,sans-Serif" font-size="10.00">logical</text>
</a>
</g>
</g>
<!-- Node2&#45;&gt;Node1 -->
<g id="edge1" class="edge">
<title>Node2&#45;&gt;Node1</title>
<path fill="none" stroke="#9a32cd" stroke-dasharray="5,2" d="M37.5,-154.83C55.56,-132.82 90.35,-94.34 128.5,-73 172.38,-48.45 230.41,-36.94 264.96,-31.94"/>
<polygon fill="#9a32cd" stroke="#9a32cd" points="34.55,-152.92 31.02,-162.91 40.01,-157.3 34.55,-152.92"/>
<text text-anchor="middle" x="148" y="-103.5" font-family="Helvetica,sans-Serif" font-size="10.00"> l_value</text>
</g>
<!-- Node3 -->
<g id="node3" class="node">
<title>Node3</title>
<g id="a_node3"><a xlink:title=" ">
<polygon fill="white" stroke="#bfbfbf" points="67,-157.5 67,-187.5 196,-187.5 196,-157.5 67,-157.5"/>
<text text-anchor="start" x="75" y="-175.5" font-family="Helvetica,sans-Serif" font-size="10.00">character(len=fm_field</text>
<text text-anchor="middle" x="131.5" y="-164.5" font-family="Helvetica,sans-Serif" font-size="10.00">_name_len)</text>
</a>
</g>
</g>
<!-- Node3&#45;&gt;Node1 -->
<g id="edge2" class="edge">
<title>Node3&#45;&gt;Node1</title>
<path fill="none" stroke="#9a32cd" stroke-dasharray="5,2" d="M155.39,-150.54C191.66,-118.72 259.1,-59.56 284.49,-37.28"/>
<polygon fill="#9a32cd" stroke="#9a32cd" points="152.93,-148.04 147.72,-157.27 157.55,-153.3 152.93,-148.04"/>
<text text-anchor="middle" x="257" y="-103.5" font-family="Helvetica,sans-Serif" font-size="10.00"> name</text>
</g>
<!-- Node4 -->
<g id="node4" class="node">
<title>Node4</title>
<g id="a_node4"><a xlink:title=" ">
<polygon fill="white" stroke="#bfbfbf" points="214.5,-163 214.5,-182 374.5,-182 374.5,-163 214.5,-163"/>
<text text-anchor="middle" x="294.5" y="-170" font-family="Helvetica,sans-Serif" font-size="10.00">character(len=fm_string_len)</text>
</a>
</g>
</g>
<!-- Node4&#45;&gt;Node1 -->
<g id="edge4" class="edge">
<title>Node4&#45;&gt;Node1</title>
<path fill="none" stroke="#9a32cd" stroke-dasharray="5,2" d="M294.5,-152.6C294.5,-121.27 294.5,-59.81 294.5,-37.15"/>
<polygon fill="#9a32cd" stroke="#9a32cd" points="291,-152.98 294.5,-162.98 298,-152.98 291,-152.98"/>
<text text-anchor="middle" x="315" y="-103.5" font-family="Helvetica,sans-Serif" font-size="10.00"> s_value</text>
</g>
<!-- Node5 -->
<g id="node5" class="node">
<title>Node5</title>
<g id="a_node5"><a xlink:title=" ">
<polygon fill="white" stroke="#bfbfbf" points="393,-163 393,-182 428,-182 428,-163 393,-163"/>
<text text-anchor="middle" x="410.5" y="-170" font-family="Helvetica,sans-Serif" font-size="10.00">real</text>
</a>
</g>
</g>
<!-- Node5&#45;&gt;Node1 -->
<g id="edge5" class="edge">
<title>Node5&#45;&gt;Node1</title>
<path fill="none" stroke="#9a32cd" stroke-dasharray="5,2" d="M399.55,-154.56C386.24,-134.41 362.69,-100.1 339.5,-73 328.21,-59.81 313.72,-45.95 304.27,-37.27"/>
<polygon fill="#9a32cd" stroke="#9a32cd" points="396.65,-156.52 405.05,-162.98 402.51,-152.69 396.65,-156.52"/>
<text text-anchor="middle" x="407.5" y="-103.5" font-family="Helvetica,sans-Serif" font-size="10.00"> r_value</text>
</g>
<!-- Node6 -->
<g id="node6" class="node">
<title>Node6</title>
<g id="a_node6"><a xlink:title=" ">
<polygon fill="white" stroke="#bfbfbf" points="447,-163 447,-182 498,-182 498,-163 447,-163"/>
<text text-anchor="middle" x="472.5" y="-170" font-family="Helvetica,sans-Serif" font-size="10.00">integer</text>
</a>
</g>
</g>
<!-- Node6&#45;&gt;Node1 -->
<g id="edge6" class="edge">
<title>Node6&#45;&gt;Node1</title>
<path fill="none" stroke="#9a32cd" stroke-dasharray="5,2" d="M469.52,-152.64C465.06,-130.55 454.57,-94.29 431.5,-73 401.63,-45.44 354.48,-34.94 324.02,-30.94"/>
<polygon fill="#9a32cd" stroke="#9a32cd" points="466.12,-153.52 471.34,-162.74 473.01,-152.28 466.12,-153.52"/>
<text text-anchor="middle" x="494.5" y="-131" font-family="Helvetica,sans-Serif" font-size="10.00"> max_index</text>
<text text-anchor="middle" x="494.5" y="-120" font-family="Helvetica,sans-Serif" font-size="10.00">array_dim</text>
<text text-anchor="middle" x="494.5" y="-109" font-family="Helvetica,sans-Serif" font-size="10.00">i_value</text>
<text text-anchor="middle" x="494.5" y="-98" font-family="Helvetica,sans-Serif" font-size="10.00">length</text>
<text text-anchor="middle" x="494.5" y="-87" font-family="Helvetica,sans-Serif" font-size="10.00">field_type</text>
<text text-anchor="middle" x="494.5" y="-76" font-family="Helvetica,sans-Serif" font-size="10.00">index</text>
</g>
</g>
</svg>
