<?xml version="1.0" encoding="UTF-8" standalone="no"?>
<!DOCTYPE svg PUBLIC "-//W3C//DTD SVG 1.1//EN"
 "http://www.w3.org/Graphics/SVG/1.1/DTD/svg11.dtd">
<!-- Generated by graphviz version 2.43.0 (0)
 -->
<!-- Title: bc_information Pages: 1 -->
<svg width="375pt" height="318pt"
 viewBox="0.00 0.00 375.00 317.50" xmlns="http://www.w3.org/2000/svg" xmlns:xlink="http://www.w3.org/1999/xlink">
<g id="graph0" class="graph" transform="scale(1 1) rotate(0) translate(4 313.5)">
<title>bc_information</title>
<polygon fill="white" stroke="transparent" points="-4,4 -4,-313.5 371,-313.5 371,4 -4,4"/>
<!-- Node1 -->
<g id="node1" class="node">
<title>Node1</title>
<g id="a_node1"><a xlink:title="information needed fr regional restart variables">
<polygon fill="#bfbfbf" stroke="black" points="277,-144 277,-163 367,-163 367,-144 277,-144"/>
<text text-anchor="middle" x="322" y="-151" font-family="Helvetica,sans-Serif" font-size="10.00">bc_information</text>
</a>
</g>
</g>
<!-- Node2 -->
<g id="node2" class="node">
<title>Node2</title>
<g id="a_node2"><a xlink:title=" ">
<polygon fill="white" stroke="#bfbfbf" points="52,-275 52,-294 101,-294 101,-275 52,-275"/>
<text text-anchor="middle" x="76.5" y="-282" font-family="Helvetica,sans-Serif" font-size="10.00">logical</text>
</a>
</g>
</g>
<!-- Node2&#45;&gt;Node1 -->
<g id="edge1" class="edge">
<title>Node2&#45;&gt;Node1</title>
<path fill="none" stroke="#9a32cd" stroke-dasharray="5,2" d="M111.54,-288.72C150.51,-291.75 214.67,-291.05 259,-261.5 294.98,-237.52 312.58,-185.09 318.56,-163.3"/>
<polygon fill="#9a32cd" stroke="#9a32cd" points="111.53,-285.2 101.26,-287.79 110.9,-292.18 111.53,-285.2"/>
<text text-anchor="middle" x="215" y="-301.5" font-family="Helvetica,sans-Serif" font-size="10.00"> data_on_file_root</text>
<text text-anchor="middle" x="215" y="-290.5" font-family="Helvetica,sans-Serif" font-size="10.00">is_root_pe</text>
</g>
<!-- Node3 -->
<g id="node3" class="node">
<title>Node3</title>
<g id="a_node3"><a xlink:title=" ">
<polygon fill="white" stroke="#bfbfbf" points="22.5,-231 22.5,-250 130.5,-250 130.5,-231 22.5,-231"/>
<text text-anchor="middle" x="76.5" y="-238" font-family="Helvetica,sans-Serif" font-size="10.00">real(kind=r8_kind)</text>
</a>
</g>
</g>
<!-- Node3&#45;&gt;Node1 -->
<g id="edge2" class="edge">
<title>Node3&#45;&gt;Node1</title>
<path fill="none" stroke="#9a32cd" stroke-dasharray="5,2" d="M141.23,-239.43C177.35,-236.64 222.48,-229.38 259,-211.5 282.56,-199.96 303.33,-176.43 313.8,-163.16"/>
<polygon fill="#9a32cd" stroke="#9a32cd" points="140.55,-235.97 130.81,-240.13 141.02,-242.95 140.55,-235.97"/>
<text text-anchor="middle" x="215" y="-249.5" font-family="Helvetica,sans-Serif" font-size="10.00"> globaldata2d_r8</text>
<text text-anchor="middle" x="215" y="-238.5" font-family="Helvetica,sans-Serif" font-size="10.00">globaldata3d_r8</text>
</g>
<!-- Node4 -->
<g id="node4" class="node">
<title>Node4</title>
<g id="a_node4"><a xlink:title=" ">
<polygon fill="white" stroke="#bfbfbf" points="24,-193 24,-212 129,-212 129,-193 24,-193"/>
<text text-anchor="middle" x="76.5" y="-200" font-family="Helvetica,sans-Serif" font-size="10.00">character(len=32)</text>
</a>
</g>
</g>
<!-- Node4&#45;&gt;Node1 -->
<g id="edge3" class="edge">
<title>Node4&#45;&gt;Node1</title>
<path fill="none" stroke="#9a32cd" stroke-dasharray="5,2" d="M139.38,-200.08C174.9,-197.52 220.04,-192.27 259,-181.5 274.71,-177.16 291.5,-169.36 303.64,-163.09"/>
<polygon fill="#9a32cd" stroke="#9a32cd" points="138.9,-196.6 129.16,-200.76 139.37,-203.59 138.9,-196.6"/>
<text text-anchor="middle" x="215" y="-199.5" font-family="Helvetica,sans-Serif" font-size="10.00"> chksum</text>
</g>
<!-- Node5 -->
<g id="node5" class="node">
<title>Node5</title>
<g id="a_node5"><a xlink:title=" ">
<polygon fill="white" stroke="#bfbfbf" points="51,-99 51,-118 102,-118 102,-99 51,-99"/>
<text text-anchor="middle" x="76.5" y="-106" font-family="Helvetica,sans-Serif" font-size="10.00">integer</text>
</a>
</g>
</g>
<!-- Node5&#45;&gt;Node1 -->
<g id="edge4" class="edge">
<title>Node5&#45;&gt;Node1</title>
<path fill="none" stroke="#9a32cd" stroke-dasharray="5,2" d="M112.01,-100.76C149.36,-93.95 210.15,-87.53 259,-104.5 281.29,-112.25 301.62,-131.7 312.55,-143.64"/>
<polygon fill="#9a32cd" stroke="#9a32cd" points="111.27,-97.33 102.12,-102.67 112.6,-104.21 111.27,-97.33"/>
<text text-anchor="middle" x="215" y="-173.5" font-family="Helvetica,sans-Serif" font-size="10.00"> global_size</text>
<text text-anchor="middle" x="215" y="-162.5" font-family="Helvetica,sans-Serif" font-size="10.00">y_halo</text>
<text text-anchor="middle" x="215" y="-151.5" font-family="Helvetica,sans-Serif" font-size="10.00">pelist</text>
<text text-anchor="middle" x="215" y="-140.5" font-family="Helvetica,sans-Serif" font-size="10.00">x_halo</text>
<text text-anchor="middle" x="215" y="-129.5" font-family="Helvetica,sans-Serif" font-size="10.00">jshift</text>
<text text-anchor="middle" x="215" y="-118.5" font-family="Helvetica,sans-Serif" font-size="10.00">ishift</text>
<text text-anchor="middle" x="215" y="-107.5" font-family="Helvetica,sans-Serif" font-size="10.00">indices</text>
</g>
<!-- Node6 -->
<g id="node6" class="node">
<title>Node6</title>
<g id="a_node6"><a xlink:title=" ">
<polygon fill="white" stroke="#bfbfbf" points="0,-49.5 0,-79.5 153,-79.5 153,-49.5 0,-49.5"/>
<text text-anchor="start" x="8" y="-67.5" font-family="Helvetica,sans-Serif" font-size="10.00">real(kind=r4_kind),</text>
<text text-anchor="middle" x="76.5" y="-56.5" font-family="Helvetica,sans-Serif" font-size="10.00"> dimension(:,:,:), allocatable</text>
</a>
</g>
</g>
<!-- Node6&#45;&gt;Node1 -->
<g id="edge5" class="edge">
<title>Node6&#45;&gt;Node1</title>
<path fill="none" stroke="#9a32cd" stroke-dasharray="5,2" d="M163.24,-57.46C194.86,-58.29 230.01,-63.47 259,-78.5 287.34,-93.2 307.63,-127.07 316.31,-143.8"/>
<polygon fill="#9a32cd" stroke="#9a32cd" points="163.15,-53.95 153.11,-57.33 163.07,-60.95 163.15,-53.95"/>
<text text-anchor="middle" x="215" y="-81.5" font-family="Helvetica,sans-Serif" font-size="10.00"> globaldata3d_r4</text>
</g>
<!-- Node7 -->
<g id="node7" class="node">
<title>Node7</title>
<g id="a_node7"><a xlink:title=" ">
<polygon fill="white" stroke="#bfbfbf" points="3,-0.5 3,-30.5 150,-30.5 150,-0.5 3,-0.5"/>
<text text-anchor="start" x="11" y="-18.5" font-family="Helvetica,sans-Serif" font-size="10.00">real(kind=r4_kind),</text>
<text text-anchor="middle" x="76.5" y="-7.5" font-family="Helvetica,sans-Serif" font-size="10.00"> dimension(:,:), allocatable</text>
</a>
</g>
</g>
<!-- Node7&#45;&gt;Node1 -->
<g id="edge6" class="edge">
<title>Node7&#45;&gt;Node1</title>
<path fill="none" stroke="#9a32cd" stroke-dasharray="5,2" d="M160.28,-12.48C193.46,-14.97 230.5,-22.81 259,-42.5 295.5,-67.72 312.91,-121.76 318.7,-143.82"/>
<polygon fill="#9a32cd" stroke="#9a32cd" points="160.31,-8.97 150.12,-11.87 159.89,-15.96 160.31,-8.97"/>
<text text-anchor="middle" x="215" y="-45.5" font-family="Helvetica,sans-Serif" font-size="10.00"> globaldata2d_r4</text>
</g>
</g>
</svg>
